<?xml version="1.0" encoding="UTF-8"?>
<svg id="Ebene_1" xmlns="http://www.w3.org/2000/svg" version="1.1" viewBox="0 0 1600 900">
  <!-- Generator: Adobe Illustrator 29.1.0, SVG Export Plug-In . SVG Version: 2.1.0 Build 142)  -->
  <defs>
    <style>
      .st0 {
        fill: none;
      }

      .st0, .st1, .st2 {
        stroke: #000;
        stroke-linecap: round;
        stroke-linejoin: round;
        stroke-width: 3px;
      }

      .st1 {
        fill: #2323ff;
      }

      .st2 {
        fill: #fff;
      }
    </style>
  </defs>
  <path id="STROKE_dbc6816b-a160-4d5c-9b5a-6550b22fb29b" class="st1" d="M1020.1,796.8c-19.8-115.5-2.3-266.9-5.1-355.8-2.6-84.1-14.7-253.4-16.8-336.1-99.5-10.8-286.3,6.7-418.2,0-.8,49.7,6.3,99.3,9.7,148.2-1.7,87.2-1.7,183.5,1.7,270.2-3.4,105-17.3,167.9-8.4,273.5,0,0,252.7,4.2,437.1,0Z"/>
  <g id="Zu">
    <path id="STROKE_d6b0a1ff-db12-466c-80fd-e210cd41de6b" class="st2" d="M403.9,116.1c-9.4-8.2-22.5-12.2-34.9-10.5-3.6.8-7.3,2.3-11,3.3-3.2,1.1-6.5,1.8-9,4.2-14.4,16.2-16,43.7,2.2,57.8,9.9,8.4,31.1,10.1,42.4,3.7,5.1-3.4,10.6-7.2,14-12.4,7.6-14.2,7.7-33.8-3.3-46.3l-.4.2h0Z"/>
    <path id="STROKE_159d6125-75b0-47ed-a944-7f380c305c94" class="st0" d="M396,121.1c-13.8,13.8-26.8,28.7-41.6,41.4"/>
    <path id="STROKE_c1231344-1495-4733-beee-34d3045628f5" class="st0" d="M354.6,121.1c12.5,14.9,27.2,28.1,41.3,41.3"/>
  </g>
</svg>