<?xml version="1.0" encoding="UTF-8"?>
<svg id="Ebene_1" xmlns="http://www.w3.org/2000/svg" version="1.1" viewBox="0 0 1600 900">
  <!-- Generator: Adobe Illustrator 29.1.0, SVG Export Plug-In . SVG Version: 2.1.0 Build 142)  -->
  <defs>
    <style>
      .st0, .st1 {
        fill: #0000c8;
      }

      .st2, .st1, .st3, .st4 {
        stroke: lime;
      }

      .st2, .st1, .st3, .st4, .st5 {
        stroke-width: 3px;
      }

      .st2, .st3 {
        fill: none;
      }

      .st2, .st4, .st5 {
        stroke-linecap: round;
        stroke-linejoin: round;
      }

      .st1, .st3 {
        stroke-miterlimit: 10;
      }

      .st5 {
        display: none;
        fill: aqua;
        stroke: #000;
      }
    </style>
  </defs>
  <rect class="st0" width="1600.1" height="900"/>
  <g id="Outline">
    <g>
      <path id="STROKE_93bbf4fe-0bce-443f-a105-52d0745b4623" class="st3" d="M380,591.7c-4-40.4,13.5-126.5-36-141.9-11.9-5-20.8-5.1-32.7-6.7-11.1-1.4-23.4-5.2-33.2-10.8-9.4-6.4-19.7-13.9-26-23.6-6.1-10.9-12.1-24.2-24.2-29.6-4.6-2-10.1-1.3-14.8-1.3,9-5.7,17.5-8.3,27.9-11.3,17.3-6.1,35.1-7.2,51.1,3.1,17.5,10.1,25.7,27.1,41.9,38.6,23.3,22.9,56.9,7.1,84.1,18.4,18.1,9.9,21.7,31.8,25.6,50.4,3.3,20.1,8.3,39.8,9.3,60.7-6.7,6.4-15.4,11.3-22.3,17.7-15.5,13.9-32.5,26.3-50.6,36.4-1.3,1-4.8,2-6.4,2.2-12.5,2-25.4,1-37.8-1.6-16.3-2.2-33.3-4.6-49.3-7.6-18.8-3.8-37.6-3.8-56.7-6.9-7.4-.8-11-1.6-18.1-2.9-1.7-.3-2.1-5.6-2.1-5.6,0-33.3,1.6-66.4-1.4-99.7-2.3-22.4-3.4-42.1-1.5-64.9.7-11.7,1.1-17.2,6.2-26.8"/>
      <path id="STROKE_38ef0f3a-d0a8-44f9-a218-620ead2a06e9" class="st3" d="M346.2,450.5c5.1-.6,10.6-1.9,15.8-2.8,8.5-1,16.4-.9,25-1,16.5-.5,34.3-.2,47.9,10.2,2.5,1.8,4.8,5.2,6.4,7.9"/>
      <path id="STROKE_350aa6b8-1158-4371-9931-771e7c792c56" class="st3" d="M379.3,513.5c23.7-7.2,44.7-20.2,64.9-34"/>
      <path id="STROKE_8955ad7c-0a67-47e3-8549-cff94e9963a2" class="st3" d="M500.7,390.7c1.2-10.7,15-7.1,22.6-7.5,5.3.3,12.9.6,13.5,7.5.9,9.4.2,18.2.4,27.7-.3,12.1.6,23.5.5,35.5,0,12.3-1,25.4-.8,37.6,0,0,0,2.4-.6,2.9-1.9,1.1-6,.9-8.2,1-7.3,0-16.3,1.6-23.4-.3,0,0-1.4-1-1.4-1.2l-.3-.3c-2.3-4.6-1.1-10.6-1.4-15.8v-23.4c-.4-21.3-1-63.7-1-63.7h0Z"/>
      <path id="STROKE_b0ec272c-4a5d-4a28-87be-2775f04fad8d" class="st3" d="M502.8,385.8c9.8-8,20.5-16.4,32.2-21.3,6.6-1.8,13.8.3,20.3,1"/>
      <path id="STROKE_dde253a3-fdf5-4850-a218-76bf6ea7fda8" class="st3" d="M555.1,373.2c-6.6,4.8-13.1,8.7-19.1,13.9"/>
      <path id="STROKE_2b6f9a91-3d5d-4ce1-9e07-68cee5f5009a" class="st3" d="M537.1,425.9c1.5-4.7,4.8-9.7,7.6-13.7,8-9.3,16.4-20.4,29.3-20.4"/>
      <path id="STROKE_2ece04be-02ee-44a4-ad25-7b04c8420acd" class="st3" d="M556.7,399c-.6-14.1-1.6-27.4-1.2-41.4,0-10.2-.3-21.9,3.1-31.6,4.7-10.6,23.4-6.6,33.1-7.4,25.6,1,51.2,0,76.8.3,29.8,1,60.4,2,90.2,1,4,0,8.1-.7,11.4,1.7,5.7,7,3.2,17.3,3.2,25.9-.9,15.7-2.3,30.7-1.4,46.3"/>
      <path id="STROKE_049e0d5d-ace7-4793-8ece-b9ea362a204a" class="st3" d="M678.7,391.6c1-6.6-.9-12.7-1.3-19.2.6-6.6-2.5-13.6-2.9-20.1-.3-4.2,0-8.5,1-12.5.6-2.9,2.7-6.9,2.4-10-15.9,0-31.8,1.3-47.6,2-17.7.8-36-.3-53.7.4-.5,0-1.4.5-2,.7.6,22.7-.3,46.4.2,69.2"/>
      <path id="STROKE_6365249c-b1a0-46ac-8e31-424942d5296a" class="st3" d="M864.1,394.6c-25.3-1.1-51,.3-76.2-1-9.2,0-17.8,1.4-27.2.3-11.4-.4-22.8-1.2-34.2-.6-11.5,1.3-24.5,2-36,1.7"/>
      <path id="STROKE_421dfb20-3d55-455f-b8c5-f9d1730424f0" class="st3" d="M875.4,321.1c-20.8-2.3-43,0-63.9-2.6-11.5.2-25.1-4-35,3.5-1.8,1.2-2.9,3.3-3.5,5.6"/>
      <path id="STROKE_2e441e67-02cb-4e79-8ee5-aca0a5b1af49" class="st3" d="M868.3,381.9c-1,4.7-5,11-3.7,15.5,0,0,.2.2.2.3,2.8,1.5,5.9.5,8.9.2,4.8-.7,9.9-.5,14.8-.5,18.1,2.1,36-.2,54.2,1.1,7.8-.2,28.8,7.8,33.4,3.7,0,0,.2-.3.3-.4v-.3c.6-3-1.6-6.1-1.8-9.4-1.4-13.9,0-28.7,3.1-42.3,1.8-4.2,2-8.6,3.5-12.9,1.6-5.9,5.8-12.9,2.3-18.6-3.2-2-7.4.2-10.8.6-19.1.3-37,1.1-56.2-2-10.4-.3-33.1-9.8-39.6-2.1-1,1.6-1.2,4-1.1,5.9v15.6s-2.3,31-7.4,45.6h-.1Z"/>
      <path id="STROKE_4a956f82-c95e-4bc6-a660-87193fa802d2" class="st3" d="M983.5,330.2c6.6,12.8,2.5,28.4,1.6,42.1-1.6,9.4,0,18.8-.3,28.3"/>
      <path id="STROKE_70b4dbfc-c888-4bf2-a6be-a08ff088ec41" class="st3" d="M539.2,421.5c7.7-1.8,16.6-1.4,24.4-.5"/>
      <path id="STROKE_38e92e29-1976-48e8-8bc7-7c69afd6db15" class="st3" d="M616.4,421.4c10.7-.6,23.4-1,34.3-1.4"/>
      <path id="STROKE_cd594e23-b56c-41f0-af2e-55b4a9c4e905" class="st3" d="M680.1,419.6c25.5-.5,52.3,1.5,77.8,1.8,34.9,1,70.2.4,105,0,30.1-.6,60.8-2.3,91.1-2,15.3-.2,29.4,2.6,44.6.2"/>
      <path id="STROKE_47038d82-f612-477b-8c68-44e3c3bace4e" class="st3" d="M975.1,395c9.6,4.7,18.3,12.5,26.2,19.4"/>
      <path id="STROKE_066f61af-588b-4e78-96f0-d644ffdc50da" class="st3" d="M536.7,493.6c3.7-.7,10-.3,13.8-.7"/>
      <path id="STROKE_d62cc840-4716-4e41-a81c-e78b1c3a5045" class="st3" d="M961.2,494.9c12.4,0,26.7.5,39.2.9"/>
      <path id="STROKE_c1c569ca-413e-4bc5-9d52-af8948b861c0" class="st3" d="M986.3,365.2c3.6-.5,7.8-.3,11.4-.3s6.2-.4,9.1.5c4,.8,7.7,3.5,11.2,5.4,6.8,4.1,13.6,8.6,20.4,12.5"/>
      <path id="STROKE_6edb988e-039b-42df-9fe6-d559d8eeca12" class="st3" d="M1043.9,413.3c.5-7.2-.7-15.4-1.2-22.5,1-9-8.9-9-15.3-7.6-4.8,1-9.8.5-14.6.4-1.7,0-3.1-.2-4.6.8,0,0-.7.4-.7.6-3.4,3.4-1.8,23-1.2,28.4"/>
      <path id="STROKE_87730eb7-6a3c-4c6c-9f26-c76fd5c90581" class="st3" d="M985.4,370.9c5.2,7,13.5,10.6,20.6,15.4"/>
      <path id="STROKE_31b39804-ec67-4349-b3ad-c37b6226d502" class="st3" d="M1281.7,615.9c20.7,1,40.3,3,61.2,3.9,20.3,1.4,21.6-.6,21.1-20.5,0-31.5,2.6-62.4,1-94-.9-8.6,2.7-20.6-4.2-26.8-10.8-6.7-24.2-9.8-36.8-7.3-17.9,1.9-36.6-.7-54.6-.9-20.1-.4-40.2,2.7-60.4,1.9-31.1,1-62.5-.8-93.5-.8-11.8.8-24.3-1.6-35.7.9-9.3,4-4.8,22.2-5.2,30.4-1,26.4-2.6,52.6-.9,79.1,1,8.2-.7,14.8,4,21.7,4.9,6.6,13.1,11.9,20.9,13.7,2.7.7,14.8.8,18.1.8,0,0,110.2-2.2,165-2h0Z"/>
      <path id="STROKE_b48e9037-53cb-4fc7-9cfa-da0b07d7cfd9" class="st3" d="M998.9,446.4c.4-10.3-1.1-20.7,1-30.7,0,0,.3-1,.8-1.2s0,0,.2,0h.3c2.3,0,4.7,2.2,6.4,3.6,1.4,1.2,3.3,2.6,4.1,4.3,1.3,9.1.2,19,.6,28.3,0,9.3,1,19.2.8,28.5,0,9.2.2,18.9,0,28.2-.3,3.9.9,8.1-1.1,11.5h-1c-3.5-2.2-7.2-5.2-9.5-8.7-2.8-8.2,0-18.3-.7-26.7-.9-12.3-1.8-37.1-1.8-37.1h0Z"/>
      <path id="STROKE_a18c1083-1880-4f75-9d4d-dd1bec5f407e" class="st3" d="M1010.9,519c8.7,12.3,17.3,24.7,27.1,36.1,11.7,13.8,27.6,30.3,35.7,41.3,8.1,10.9,1.9,3,2.2,3.4"/>
      <path id="STROKE_94238cf3-4615-414f-951d-940d5bf4a7f3" class="st3" d="M1013,483.4c.2,0,.2.2.3.2,9.3,10.7,20.8,19.9,31.3,29.5,10.5,9.2,19.2,20,28.4,30.3"/>
      <path id="STROKE_b4ff47cb-6d5c-49f8-87ad-41741fa32f11" class="st3" d="M1012.3,458.8c7.9-15.2,16.2-15.8,31.8-18,27.3-3.4,56.7-3,84-5.8"/>
      <path id="STROKE_85646f75-5004-499a-91b5-9317a3c38da8" class="st3" d="M1018.9,449.4c17.2,12,34,25.5,50.9,38,.8.4,3.2,2.2,4,2.6"/>
      <path id="STROKE_6e0227f8-90d6-476e-9596-a87368d6b0a7" class="st3" d="M1232.2,471.4c-8.4-7.2-17.6-12.7-27.1-18.4"/>
      <path id="STROKE_0d987ee2-f86f-4f02-9da2-6d6412e39b5c" class="st3" d="M1001.3,414.1c15-2.9,31.5-1.2,46.8-.7,29.2,0,59.5-.3,88.7-1.5"/>
      <path id="STROKE_91d15049-1df7-4d88-bd0a-2c9075c4ef51" class="st3" d="M1011.6,422c11.8-1.9,24.5-1.3,36.5-1,27.3-1.9,54.9,0,82.3.3"/>
      <path id="STROKE_d6626ae0-b4bd-4d5d-95a0-cead38ff41ad" class="st3" d="M1319.5,395.6c.3.2.9.3,1.1.5,2.2.5,6.4,2.8,8.5,3.5,4.1,1.4,9,3.5,11.8,7.1,4.8,8.8,3.6,20,4.3,29.9.6,11.6-2.2,22.8-1.8,34.2"/>
      <path id="STROKE_eea42c44-b520-49e6-95b9-01228faa57c9" class="st3" d="M1288.8,372.8c-14.6,11.9-19.6,31.8-26,48.6-3.6,9.1-5.6,19-8.1,28.4-2.3,6.7-5,13.6-5.1,20.7"/>
      <path id="STROKE_9a8956ae-b7cd-4de4-972d-f47ae237a07b" class="st3" d="M1302.9,471.4c4.8-22.9,7.4-46.4,14.2-68.8,1.3-5.2,3-11.8-1.6-16-5.2-4.8-11.1-8.3-17.9-10.5-17.5-6.9-36.3-11.7-54.9-14.7"/>
      <path id="STROKE_59d3980f-6507-4ad4-aa76-3f211b257577" class="st3" d="M1339.5,405.9c-7.7-.3-15.6-.9-23.4-1"/>
      <path id="STROKE_fb549945-6793-40fe-8a69-4dfaac17dd11" class="st3" d="M1225.4,400.1c-1.8,5.9-4.2,13.1-6.7,18.7-22.9,53.8-6.9,45.5-72.5,24.4-7.9-2.3-22.1-4.3-18.5-15.9,1.4-5.6,6.5-9.9,9-15,11.6-22.6,15.7-48.8,27.8-71.2,5.9-8.7,13.8-6.1,21.7-2.2,5.4,2,12.1,3.7,17.6,5.2,10.8,3.3,23.3,2.5,34,5.7,11.3,3.1,2,15.6-.8,22.1-3.6,8.7-8.7,18.8-11.2,27.9l-.3.3h0Z"/>
      <path id="STROKE_66b87a71-b7cc-4fd3-b4c7-6468701c4e82" class="st3" d="M1093.7,615.5c1.8-21.4-2.7-43.2-1.1-64.8-.2-13,1.7-24.1,1.3-36.7.5-8.2-1.6-17.1.9-24.9,3-9.4,23.9-4.7,31.8-5.4,13-.8,25.9-1.8,39.1-.5,19.5-.3,39.2-1.4,58.7,0,18.2,0,31.9-.7,51-.4,22.8.5,41.3-1.6,63.3,0,6.7.3,14.8-.9,21.3,1,.6.3,4,2.5,5,3.1"/>
      <path id="STROKE_c945a1ec-8c7b-43e9-8f18-8d9055ac2e79" class="st3" d="M1095.2,487.8c-5.4-4.7-11.9-8.8-16.6-14.4"/>
      <path id="STROKE_d9bb58c9-23d0-4bde-9fb9-aba913d6aeaf" class="st3" d="M1294.5,616.9c13,14,26,25.8,41.1,37.2,9.6,7.9,20.9,13.5,30.2,21.7-34.1-.2-70.8.8-105.3,1-43.4-2-87.6-.2-131,.5-105.5,5.3-212,3.6-317.6,3.9-29.9-.8-57.9-4.3-87.4-6.1-58.2.9-115.4,4-174,5.1-32.3.5-60.5-1.3-92-1.4-35.3-.7-71.5,2-106.9.7-32-1-60.3,0-93-.4-33.7-1.1-61.3-1.9-94.4.6,0,0,5.4-4.8,5.5-4.8,18.5-16,39.2-29.3,58.8-43.8,10.8-7.9,22.2-15.8,32.1-24.9,8.3-6.7,18.8-14.1,26.7-21.3"/>
      <path id="STROKE_8d1851af-3de7-4624-8d63-1d5b53be2814" class="st3" d="M1365.7,542.7c8.6,3.7,37.3,21.1,47.2,26.7,28.4,16.2,51.9,27.9,78.7,46.2,25.5,16.3,83.3,48.3,108.4,63.9"/>
      <path id="STROKE_97148e2b-3dc8-446c-b288-2f0357496b83" class="st3" d="M41.9,632.8c-7.2,5.2-18.8,13.4-42,29.2"/>
      <path id="STROKE_97148e2b-3dc8-446c-b288-2f0357496b831" class="st3" d="M210.1,531.1c-11.7,6.6-23.9,13.6-35.4,20.4"/>
      <path id="STROKE_c2d5cc9e-0638-44c7-a5a1-3b480800c4fe" class="st3" d="M363.6,27.5c-13.3-9.2-26.7-18.3-40.1-27.5"/>
      <path id="STROKE_48a42b1d-a2eb-47fc-bff3-32e2281978f9" class="st3" d="M363.6,27.5c2.6,10.6.4,22.8,0,33.7-.5,18-.7,34.4-.3,52.4,0,17.6,1.8,35.7,3.2,53.1.3,30.7.3,62.3.9,93,.6,27.3,0,55.9-2.7,83.1-2.3,25.6-2.2,52.7-1,78.4"/>
      <path id="STROKE_bf4b7c1a-ce7a-42d8-953c-9ab55bdc22ca" class="st3" d="M363.6,27.5c2-.8,10.4,0,11.7,0,11-.3,26-1.6,37.6-2.4,32.4-.6,60.7.3,93.2,2.5,28.1,2,55.5-.5,83.8,0,47.8-2.4,93.5-4.8,141.6-3.7,57.1-1,116.7,4.4,173.7,3.2,60.3.9,120.1-3.7,180.3-1.1,19.7,1.2,43.8.9,62.5,1.1,12.4-.3,24.6,2.1,37.3,0"/>
      <path id="STROKE_2cedf5aa-76f1-4729-b866-79981d5025e1" class="st3" d="M1185.2,27.2c-.2,10.8-1.5,20.9.3,31.8,1.9,22.2,1.8,45.8,1.8,68.4"/>
      <path id="STROKE_a966d240-e519-425c-abb6-3d0c24630d8f" class="st3" d="M1186.1,181.6v36.8"/>
      <path id="STROKE_24759007-2643-4dc6-993a-6e64d8bd6456" class="st3" d="M1186.3,254.8c.4,28.6-1.7,56.5.7,84.5"/>
      <path id="STROKE_5979b6ed-c7a4-49ab-a7fd-46d0aa418c28" class="st3" d="M1185.2,27.2c17.1-8.7,31.1-18.6,44.3-27.2"/>
      <path id="STROKE_db67bf3f-7463-4aaf-bc31-632bca238f7c" class="st3" d="M501.2,458.8c-14.3,1-27.2-.2-41,.2"/>
      <path id="STROKE_007d32b3-9479-4525-85e2-4c4040f091f2" class="st3" d="M451.1,458.8c-1.6,0-5,.4-7.7.3h-3.1"/>
      <path id="STROKE_ac34ac13-2f37-461c-8e1d-712323259d47" class="st3" d="M1097.1,381.1c-11.4,1.9-24.7-2.1-35.3,4.1-5.5,4.7-2.3,9.9,3.5,12.1,5.2,2,10.7,2,16.3,3.3,10.6,2.4,21,3.5,31.9,4,8.7,1.3,17.7.8,26.3-.6"/>
      <path id="STROKE_3e340ea7-083d-4d61-8fd2-9cb88c6c48cc" class="st3" d="M1145.8,387.6c-10.8-3.6-19.8-3.9-30.6-6.2"/>
      <path id="STROKE_97b893a6-e810-45d5-a534-f7fe923dbe94" class="st3" d="M1099,393.9c-2.9-21.8-4.5-46.1-16.7-64.9-3.3-4.1-9.6-6.3-14.5-8.1-3.8-1.5-5.9-2.8-10.1-4.3-6.5-3-17.8-5-21.9-11,1-7.7,20.2-7.6,26.1-6.5,18.6,2.6,23.6,18.5,26.9,34.7.7,2.3,4.1,21.1,4.1,21.1"/>
      <path id="STROKE_311f92b7-0982-4e8d-b5f0-39a6733f9243" class="st3" d="M1092.7,353.2c-6.1-26-12.4-36.9-38-46.5"/>
      <path id="STROKE_29f6eb8b-32ed-4cd9-ba82-630303d589d3" class="st3" d="M1101.6,395.3c0-25.9.2-80.6-14.5-101-6.4-9.1-17.1-12.5-26.5-17.5-14.2-6.7-29.1-12.5-42.1-21.3-3.4-2.2-6.5-4.8-9.5-7.2-1.3-1.2-4.3-3.4-4.8-5.4-.8-2.8,5.9-6.6,8.3-7.8,10.3-5.3,22.1-3.6,32.5,0,15.2,3.7,28,14.2,36.4,27.2,2.9,5.3,4.7,11.8,5,17.8,0,2.9,0,6.3.6,9.2,3,9,6.5,17.3,8.8,26.7"/>
      <path id="STROKE_a7695925-113e-4f0d-9c56-38abba8102d3" class="st3" d="M1104.3,397.8c-.9-15.5,1.5-30.8,1.5-46.3-.2-14.5-.9-28.3-2.2-42.9-2.4-16.4-6.4-32.6-10.4-48.7-1.8-5.8-2.1-12.2-5.7-17.1-7.3-6.5-16.4-10.8-23.9-17.3-9-7.5-14.9-17.3-23.6-25.3-14.2-16.1-32.3-28.2-47-43.7"/>
      <path id="STROKE_afd52fe8-1cea-48d8-8c6a-ef9d77ead1f8" class="st3" d="M993.1,156.5c17.5-1,35.3,1.7,49.6,12.5,19.4,11.7,31.2,32.6,40.2,52.7,8.4,18.5,10.5,37,14.8,57"/>
      <path id="STROKE_7ff567ae-8624-4324-a626-935048c953b2" class="st3" d="M1103.1,304.7c-3.4-23.3-1.5-47.6-7.2-70.7-2.9-14.5-4-29.7-12.1-42.4-5.7-8.9-15.2-15.1-22.6-22.5-6.4-6.3-11.6-13.4-16.3-21-6-10-9-21.2-12.5-32.2-4.9-15.9-7.6-33.8-2.9-49.9h.3c9.2,7.5,19.7,14.2,27.4,23.4,13.6,20.3,26.3,42.3,29.3,67-.6,23.3,4,50.8,4,50.8"/>
      <path id="STROKE_64c24054-9595-4c56-afe1-105d104b5dde" class="st3" d="M1105.8,354.9c-.6-32.7-3.3-73.8-2.8-106.5,1.1-20.7,4.9-41,7.1-61.6.6-9.3-4.7-17.3-8.4-25.5-4.5-11.5-4.9-24.3-4.5-36.5,2.7-20.2,13.5-39,22.5-57,5-9.4,25.3-32.3,35.4-33.6,6.2,14.3,2.5,31.6.2,46.5-2,18.8-4.9,38.3-15.1,54.7-5.7,11.1-12.6,22-20.3,31.8-5.4,8.4-9.2,16.8-10.6,26.8"/>
      <path id="STROKE_b7babae6-9bbe-4e5d-bd11-60e03c595bd0" class="st3" d="M1105.8,350c-1-26.5-.4-53.3,5.2-79.4,2.3-13.2,3.3-27.9,13.8-37.6,12.9-13.8,31.8-20.7,45.2-34,7.4-6.7,13.6-14.5,20.2-22.2,7.5-9,13.3-19,16.8-30.2,1.2-6.2,8.8-16.4,7.2-21.8-11.4-.9-24.1,1-34.5,6-18.8,13.5-32.8,32.8-45.3,52-5.2,8-10.2,16.6-13.8,25.6-2.7,7.3-3.6,15.8-4.2,23.5,0,8.6-1,14.8-2.9,23.9"/>
      <path id="STROKE_73812906-d419-4cb3-b89e-66642e475c0f" class="st3" d="M1108.3,396.4c3.8-24.5,1.7-50,9-74.1,2.6-10.2,3.6-21.3,9.6-30.2,9.3-10.1,23.2-15.1,34.6-22.4,16.6-8.2,31.4-19.8,45.3-31.8,3-2.9,7.5-5.1,8.3-9.4v-.5c-4-4.8-10.4-6.5-16.3-8.1-8-2.3-16.2-2-24,.8-17.9,3.8-32.2,16.6-40,32.9-6.9,12.4-12.3,25.9-14.4,39.9-1.5,16.5-4.6,32.2-7.4,48.8"/>
      <path id="STROKE_cb5a9ada-ad85-4475-bd4e-b9a39835153d" class="st3" d="M1113.9,396.2c.9-10.7,1-22.1,2.9-32.8.9-8.5,2.7-18.3,10.7-22.8,10.1-5,21.2-9.2,29.6-17,2.9-2.6,5.4-5.8,8.4-8.3,3.1-3,4.6-4.6-1-5.9-13.6-4.8-26.7-.8-33.7,12.2-7.6,13-11.7,25.9-13.9,41.1"/>
      <path id="STROKE_3541243a-751b-410b-a638-76f22b02066a" class="st3" d="M1089.3,297.5c-11.9-26.5-34.6-47.1-63.1-54.5"/>
      <path id="STROKE_32a4fa8f-4bcd-4b9a-bea5-47ebea09ca91" class="st3" d="M1093.2,256c-7.7-28.2-21.2-39.5-31.2-51.4-8-8.9-17.1-16.5-26.6-24"/>
      <path id="STROKE_0020e692-9731-4bd5-b6bd-482ec9717b3d" class="st3" d="M1089.2,201.6c-4.8-19.4-21.4-49.7-28.9-68.2-4.6-10.9-12.1-20.8-15.5-32.3"/>
      <path id="STROKE_f114cc06-6979-457d-92f7-8defb284436d" class="st3" d="M1110.7,185.6c2.2-25.5,4.5-54.7,12.5-79.3,2.5-10.4,4.9-19.4,8.9-28.9,2.6-6.1,5-14.8,9.9-19.6"/>
      <path id="STROKE_9c7e73a4-8943-4b9e-b260-11f8fd813eef" class="st3" d="M1115.9,247.2c3-14.5,10.5-24.8,16.2-33.9,6.8-11.8,14-23.6,23.2-33.6,5.4-7.5,12.5-13.5,19.6-19.6,4.6-4.6,7.8-10.7,12.5-15"/>
      <path id="STROKE_65c53c06-46d7-4844-84f5-c0bc7746ecad" class="st3" d="M1116,326.1c8.7-42.7,13.6-44.1,21.6-54.1,6-10,14-18.4,22.9-25.9,6-4.6,12-10.2,19.5-12.2"/>
      <path id="STROKE_63264c72-5508-47ff-89a6-0f74b8f1d183" class="st3" d="M1150.6,317.3c-11.9,7.3-22,18-30.3,29.9"/>
      <path id="STROKE_b674c37c-3660-4e96-b72b-9d33e59aa2d6" class="st3" d="M1059.5,388.3c-2.8,6.7-3.5,17.8-2.8,25"/>
      <path id="STROKE_bc473130-ef2a-4132-8571-bf50412f3707" class="st3" d="M602.3,206.1c-14.4-.3-29.5,2.2-43.2-2.7,0,0-.2,0-.3-.2-8.4-8,49.3-6.4,53.5-6.5,10.3,0,21.4-.9,31,3.3.7.4,1.6,1.4,1,2.3-4.8,3.3-14.5,2.4-20.3,3.2-7.2,0-14.5.8-21.7.4h0v.2h0Z"/>
      <path id="STROKE_be32d392-fe2a-42a0-a31c-fe74aa72f97e" class="st3" d="M644.5,201.8c0-12.2-.8-25.2-6.8-35.9-11.3-16.6-34.8-21.8-53.4-16.9-5.9,1.5-10.2,6.5-14.3,10.6-12.5,12.7-12.3,25.2-12,42"/>
      <path id="STROKE_4e3c84f0-4f85-4197-be30-fe68e696381e" class="st3" d="M460.3,459c9.1,2.8,18,3.8,26.2,8.7,12.2,5.8,21.6,20.1,8.7,30.2-13.5,6.5-31.6,8.4-46.4,5.8"/>
      <path id="STROKE_391a98ad-bfb1-4e18-a047-bc3a2e5aa3ab" class="st3" d="M601.1,147.1c1.4-36.6-20-80-60.7-81.3-6.1-.6-12.2,3.1-17.4,5.9-12.1,6.1-21.3,17.1-29.5,27.5-16,21.9-25,48.4-28.7,75-3.1,15.6-6.7,31.4-8.1,47.2-4.2,36.7-1.5,73.8-2.7,110.7-1.5,28.8.2,57.8-1.2,86.6,0,21.8-2.3,43.7-1.2,65.4.4.5.8.7,1,.9s.3.2.4.3c.2,0,.6.3.8.3.7.2,1.7.2,2.8.2s3.4-.7,3.4-.7c0,0,0-103.3-.4-154.9.2-27.3-.6-54.7.5-81.9,0-11.5-.7-23.2,1.7-34.4,2.2-16.1,3.8-32.1,8.7-47.7,6.5-29.4,18.6-59,42.4-78.6,6.7-5.4,14.1-11,22.7-12.6,15.8-1.7,30.8,7.3,39.9,19.8,7.6,9.8,13.1,21.3,15.3,33.5,1,6,2.9,12.9,2.8,19.1"/>
      <path class="st3" d="M963.6,498.6c-.8-1.2-1.6-2.5-2.4-3.7-10.5-16.4-20.6-33.6-31-50,0,0-44.1.7-69.9-.8-1.9,0-3.7-.2-5.3-.4.3,1.3.7,2.7.8,3.9v.6l-51,9.4-26.8-8.8c-1.1-.2-.8-1.2-.8-2.1v-4.4c-33.8-1.5-63.1.9-96.8,2.7-33.9,1-68.3,2.6-102.2,2.9-2.9,3.7-5.5,7.7-7.9,11.9h0c-2.9,5-5.4,10.3-8.3,15.3-2.7,4.8-5.4,9.3-8.7,13.4-2.9,4.5-6.7,10.4-9.6,14.7,20.6,3.6,41.6,1.5,62.6,1.8,36,0,71.9-.2,107.9-.6,84.3-.2,168.5-1.1,252.7-1.1-1-1.7-2.5-3.1-3.3-4.8h0ZM791.8,459.9c2.6.9,6.3,1.7,8.8,2.4,10.2-1.9,20.5-3.4,30.9-5,6.1-1,11.6-2.7,17.5-3.2.8-.2,1.9-.4,2.9-.4-.2,1.9.3,4.1.3,5.9-7.8,0-14.8,2.5-22.3,4-9.7,1.5-20.2,3.8-29.6,6.4-9.2-2.5-19.7-5.6-29.1-7.7,0-1.8-.4-6.9-.4-6.9,6.3.4,20.5,4.5,21,4.7h0v-.2h0ZM861.3,475c-13.3,2.4-26.5,5.7-39.8,8.4-7.6,1.4-24.1,3.1-24.6,3.2,0,0-2.6-.7-3.2-.9-8.7-2.5-17.6-5.2-26-8.7-.4,0-1-.4-1.5-.5v-12.1c5.5,2.3,11.5,4.9,17.3,6.6,4.2,1.2,8.8,2,12.9,3.7,4.8-.4,10.2-.5,14.9-1.2,6.7-1,13.3-3.3,20.1-4.4,5.7-1.2,11.8-1.9,17.5-3.1,3.9-1,12.5-2.9,12.5-2.9v11.9h-.1Z"/>
      <path class="st3" d="M543.7,503.3c0,3-.2,6.3,0,9.2,47.4,9.2,96.3,1,144.3,2.5,41.9-1.5,83.8,2,125.8,0,32.8-1.5,65.7-.9,98.5-1,2.7,0,5.3,0,8.1-.2,3.7-.2,7.5-.6,11.3-.9,3.3-.3,6.7-.5,10-.5,8.1-.3,16.5.9,24.4-.3.2-.9,1-7.7.8-8.8"/>
      <path class="st3" d="M855,443.8h0"/>
      <path id="STROKE_b9ddcb97-bfec-44b8-b779-0876d1714279" class="st3" d="M566.8,515.7c-2.2,14.9-3.7,31.6-5.3,46.7-.9,6-1.4,12.8-1.7,18.8.2,3.4-1.1,9.2,3.3,10.3,6.4-.7,8.7-19.9,10.4-25.5,3.8-16,5.3-33,5.4-49.3"/>
      <path id="STROKE_9ef4aec7-5fa5-4476-b5e6-afb60d551d3a" class="st3" d="M595.7,517c0,6.5-2.9,16,.4,22,8.7,5.6,7.1-17.4,7.3-22"/>
      <path id="STROKE_adcc8485-b6a5-47d7-a827-305ea8305281" class="st3" d="M931.7,513c1.1,17.3,7,35.4,9.1,52.6,1.2,7.1,1.5,20.2,7.9,24.5,1.2.3,3.2,0,4-1,1.3-2.5.3-7.2,0-10-.6-13.2-3.5-26.4-4.7-39.5-1.5-8.5-3.7-18.4-3.8-27.1"/>
      <path id="STROKE_8b358f5b-3b2e-4ef2-9bfb-e8fca6054de2" class="st3" d="M920.4,513.8c-.4,6.9,1,15.8,0,22.6-.4,3.9-5,6.7-8.5,4.3-4.4-6.9-.4-18.5-2.2-26.5"/>
      <path id="STROKE_10c5f1f6-8edf-46cf-a3c4-1d185dd0a885" class="st3" d="M601.7,391.1c-.4,0-1.1-.2-1.5-.3-2.3-.2-3.9.5-6.3.7-3.5,0-6.6,1.2-9.5,2.8-4.3,2.7-8,6.5-11.8,9.8-2.5,2.6-4,6-5.7,9.1-4.4,8.8-4.9,18.4-4.6,28.1,0,10.6,0,23.1-.3,33.8"/>
      <path id="STROKE_333fea52-51a4-47b8-b662-3d1480307c21" class="st3" d="M585.4,410.4c3.3-4.2,8-7.2,11.5-11.3,2.5-2.7,3.4-6.3,6-8.7.5-.5,1.9-1.3,1.9-1.3,16.1-6.5,14.8,3.6,29,2.3,5.2-.4,9.2-4.2,14-5.8,5.2-1.6,11.7.3,15.3,4.3,3.1,3.3,5.3,8,9,10.8,12.3,8.7,7.3,24.4,4.8,37"/>
      <path id="STROKE_67c815cb-5eac-4128-82c3-a2a4f5e29463" class="st3" d="M607.2,447.3c2.8-9.4,7.8-20.2,9.9-29.8,1.2-5.5,3.7-11.4,8.7-14.3,2.2-1,3.6-2.7,5.8-3.6"/>
      <path id="STROKE_b92f9754-348f-4dae-aabb-f1e334b0a3f9" class="st3" d="M619.3,417.6s.7-.2.8-.3c2.4-1.2,5.4-2.4,8.1-3,2.6-1,5.9-2.3,8.7-2.9,3.3-.9,6.6-.3,9.8-1h1.2"/>
      <path id="STROKE_2279a12b-d386-4d20-bd2c-65f86559df07" class="st3" d="M646.2,395.2c2.4,6.7,2.9,14.4,4.2,21.4,1.2,7.2,1,14.2,0,21.5"/>
      <path id="STROKE_7bbca534-d8b3-4eea-96c4-362994e2f0b3" class="st3" d="M622.6,389.5c-10.6,3.5-18.3,12.6-22.2,22.9-4.6,11-5.8,22.9-5.4,34.7"/>
      <path id="STROKE_19391637-27c4-4dbd-88ed-a42e0e893adb" class="st3" d="M589.9,428.6c-.5,6.6-1.1,12.5-1.9,19"/>
      <path class="st3" d="M570.4,459.8h0"/>
      <path class="st3" d="M570.4,459.8c.6-5.5.9-9.6,2.7-14.7,1.6-6.1,6-11.5,6.5-17.8"/>
      <path id="STROKE_c65a331f-4cc6-499b-a903-5dfd4c997807" class="st3" d="M663,389.8c2.3-.6,7.8-1.2,9.7-.5,9.6,3.7,8.7,2.9,16.1,4.9,4.7,2,8.7,6.1,13.7,7.3,1.7.3,3.7,1.2,5.4,1.3,4.3,0,9.7-.8,12.7,2.9,3,2.8,6.8,7.3,8.3,11.2"/>
      <path id="STROKE_cfe6b7ba-683d-4726-8970-2533252af677" class="st3" d="M684.5,402.5c1.4,3.5.9,7.9.2,11.5-.4,1.7-.9,3.4-1.4,5"/>
      <path id="STROKE_2b6a16b6-4a50-4e74-8a76-bb69178908a1" class="st3" d="M684.8,413.5c5-.4,9.8-3.5,14.9-2.3"/>
      <path id="STROKE_63f16f00-91d1-4c54-8041-969550754a2f" class="st3" d="M697.6,403.9c4.5,8,3.4,17.9,3.8,26.8"/>
      <path id="STROKE_a3cdfe1f-f4ee-4e08-ae71-89e7eb6f148a" class="st3" d="M688.2,401.4c1.6,1.7,2.9,3.7,4.2,5.7.8,1.2,1.5,2.7,2.5,3.8"/>
      <path id="STROKE_c927aa4a-e955-4c59-ab86-b5fe965e2b92" class="st3" d="M713.2,429.9c0-3.7-2.1-11-1.6-14.6s.4-1,.8-1.3h0c.3,0,.9-.4,1.1-.4.9,0,2.6,0,3.2.5s1.7,2.6,1.8,2.9c.9,3.1.7,8.5.3,12.9"/>
      <path id="STROKE_7fe40e0c-7923-49fd-9e94-95ea226189ac" class="st3" d="M706.6,416.9c.9,5.8.8,6.7.8,12.6"/>
      <path id="STROKE_d4074e73-ef38-4fa9-9dd7-5df616975711" class="st3" d="M724.4,416.9c1.2-1,3.5-1.2,4.6.2,2.6,4.3,1.6,10.1,1.8,14.9"/>
      <path id="STROKE_c9079fb9-39f6-48e5-9e4a-9dbabc532750" class="st3" d="M724.8,432.8c.7-4.8,1.1-11,0-14.5-1.1-3.4-1.2-2.9-2.1-3.3s-1.8-.3-2.3,0-.4.7-.5.9c-.3.6-1,2.1-1,2.5"/>
      <path id="STROKE_d22b0ec5-1444-430a-8778-c31aea631980" class="st3" d="M711.6,417.9c-.2-.7-1.1-2.5-1.7-2.9s-.9-.3-1.1-.3-1.2,0-1.4.4c-.8,1-.5,4.8-.5,4.8"/>
      <path id="STROKE_01867aa7-8702-46ee-bee8-44ba71a50f25" class="st3" d="M706.6,416.8c0-1.2-1-2.8-1.7-3.1s-1.8-.6-2.4-.4-.3.3-.4.4c-.2.3,0,1-.2,1.3-.2,1-.9,3.9-.9,3.9"/>
      <path id="STROKE_87c3cae3-5f30-41b1-9284-e36679b73052" class="st3" d="M651.3,426.9c.9-1.4,1.8-4.5,4.7-3.2.9.4,1.3,1.8,1.5,2.8,0,4.5-.4,8.7-1.5,13"/>
      <path id="STROKE_c21d4421-dfd8-4e58-90cc-dbc1a449a6bb" class="st3" d="M657.4,428.6s.4-3,1.2-3.4,1.6-.6,2.3,0c3.1,2.8.3,9.3-.2,12.8,0,.7-.2,1.4-.4,2.2"/>
      <path id="STROKE_efecd574-f3b6-4d34-a867-272393e27211" class="st3" d="M662.4,428.9c.2-1.3,1.7-4.1,2.9-4.6s1.4-.3,1.7,0c2.1,2-.3,15.2-.3,15.2"/>
      <path id="STROKE_503bd711-85b0-4651-a9e9-ded2910f7ff9" class="st3" d="M667.8,428.9c.2-2.3,2.3-5.4,3.8-6.7s.9-.6,1.1-.6c.5,0,1.3.5,1.6.9s.2.4.2.6c.3,3.8-1.6,10.4-3.3,15-.2.8-.4.7-.8,1.6"/>
      <path id="STROKE_a24ce647-7782-4691-919a-6e15b3e101dc" class="st3" d="M674.5,425.1s1-3.4,1.6-4.5,0-.2.2-.2c.2-.2.7-.5.9-.6.5-.2,1.4-.3,2,0,0,0,.4.2.5.4.6,1,0,2.9-.2,4.1"/>
      <path class="st3" d="M855.7,448.3l-51,9.4-26.8-8.8c-1.1-.2-.8-1.2-.8-2.1v-4.4c.4.2,19.8,5.7,28,9.4,7.3-1.1,31.8-6,42.6-8.3,3.2-.7,5.2-1,5.2-1,.5,0,1.6-.3,1.6-.3,0,.6.2,1,.3,1.6.3,1.3.7,2.7.8,3.9v.6h.1Z"/>
      <path class="st3" d="M854.7,442.2s-1.1.2-1.6.3c0,0-2,.4-5.2,1-10.8,2.2-35.3,7.1-42.6,8.3-8.3-3.7-27.7-9.2-28-9.4,8.5-1.3,17.4-3,26-4.9,2.7-.6,5.4-1.2,8-1.8,2.1-.5,3.7-.9,5.3-1.2,1.4-.4,2.9-.8,4.7-1.2,2-.5,2.9-.7,4.3.2,6.8,3.1,14.4,5.8,21.9,7.5,2.5.6,4.8,1,7.3,1.3h-.1Z"/>
      <path id="STROKE_999d15b7-2527-46a8-9442-71f231d8a53c" class="st3" d="M851.8,453.7c-2.1-1.3-4.8-2.4-7.2-3.3"/>
      <path id="STROKE_915f9a32-977e-4192-a9a0-8f6eec560dae" class="st3" d="M770.8,455.3c6.3-.9,12.5-2.2,18.7-2.7"/>
      <path class="st3" d="M861.3,463.1v11.9c-13.3,2.4-26.5,5.7-39.8,8.4-7.6,1.4-24.1,3.1-24.6,3.2,0,0-2.6-.7-3.2-.9-8.7-2.5-17.6-5.2-26-8.7-.4,0-1-.4-1.5-.5v-12.1c5.5,2.3,11.5,4.9,17.3,6.6,4.2,1.2,8.8,2,12.9,3.7,4.8-.4,10.2-.5,14.9-1.2,6.7-1,13.3-3.3,20.1-4.4,5.7-1.2,11.8-1.9,17.5-3.1,3.9-1,12.5-2.9,12.5-2.9h-.1Z"/>
      <path id="STROKE_8fd0dbed-98a4-4e30-a489-c028f2423921" class="st3" d="M848.1,459.8c4.2,1,9,1.6,13.1,3.2"/>
      <path id="STROKE_57bc0a77-0478-49d5-a825-85d9816da09b" class="st3" d="M796.2,474.8c.3,3.7.6,8.1.6,11.8"/>
      <path id="STROKE_2190b8b4-9705-402d-a368-b6a42f45ee65" class="st3" d="M766,464.5c1-.6,4-1.8,5.1-2.3"/>
      <path id="STROKE_f8324648-ea54-48c2-be63-b03b6648e659" class="st3" d="M802.7,0s-1.5,7.9-1,41.4"/>
      <path id="STROKE_e3f5dd16-3d9c-454f-bc5e-d2058111aa55" class="st3" d="M794,64.7c.3-7.5-2.4-28.4,11-21.4,4.6,4.4,1.7,16,1,21.8"/>
      <path id="STROKE_05d0d0c5-14b4-4d2f-986c-f3f9e4287b38" class="st3" d="M818,69.4c15.2,11.2,19.8,33.5,10.8,49.9-4.8,7.6-15.3,14.3-24.1,15.6-29.3,2.8-46.9-32-32.5-55.9,4.4-5.9,10.7-10.3,17.4-13.1,4.2-1.5,10.2-1.2,13.5-1s10.6,1.3,14.9,4.5h0Z"/>
      <path id="STROKE_b6ab27f0-d516-4736-a562-3ab9a2539d4d" class="st3" d="M174.8,549.8l-51.1-.3"/>
      <path id="STROKE_b691dfd5-5e14-4b4c-a1a5-01ba04dddcf7" class="st3" d="M123.7,549.5c1.3-74,1-147.3,0-221.2-1-26,.9-52.8.5-78.5-1-32.9-2-66.4-3.6-99.6"/>
      <path id="STROKE_e2f6cfb5-f1f6-47a0-b6a4-43115094a5de" class="st3" d="M123.7,549.5c-26.2,16.2-55,28.8-81.8,44.1"/>
      <path class="st3" d="M805,452c0,1.8.3,3.8-.6,5.5"/>
      <path class="st3" d="M800.6,462.3c.6,2.3,0,5.5-.4,7.6"/>
    </g>
    <path class="st1" d="M875.6,337.1c-3.6-7.4-11.2-12.5-20-12.5s-6.2.7-8.9,1.9c-1.4-2.6-3.4-4.8-5.7-6.7-3.8-3-8.6-4.8-13.8-4.8s-3.9.3-5.7.8c-3.3-8.1-11-13.8-20.5-13.8s-17.7,6-20.8,14.4c-2.8-1.2-2.4-1.9-9-1.9s-10.7,2.1-14.6,5.6c-.6.5-1,1-1.5,1.5h-4.9c-12.3,0-22.2,10-22.2,22.2s3.8,14.3,9.6,18.3v2.8c0,10.5,7.1,19.2,16.7,21.6.7,2.7,1.9,5.1,3.4,7.3,4,5.6,10.6,9.2,18.1,9.2s6.2-.7,8.9-1.9c1,1.7,2.3,3.2,3.7,4.6-.4.9-.7-.5-.7,2.9s2.5,6.3,5.8,6.7c.8,2.3,2.8,4,5.1,4.5.8,1,1.8,1.7,2.9,2.1.2,0,.5.2.8.2.3.6.7,1,1,1.5-.2.5-.2.7-.2,1.6s.2,1.8.5,2.6c-.3.8-.5,1.4-.5,2.5s.3,2,.7,2.9c-.4.9-.6-1.1-.6,2.7s0,1,.2,1.5c2.7-.6,5.4-1.2,8-1.8,2.1-.5,3.7-.9,5.3-1.2,0-.5-.3-.9-.5-1.3.4-.9.6-1.7.6-2.7s0-1.8-.5-2.6c.3-.8.5-.8.5-2.5s-.4-2.4-1-3.4c-.2-.4-.5-.8-.8-1.1.2-.5.2,1.5.2-1.6s-2.2-5.8-5-6.6c-.3-.6-.7-1.1-1.1-1.6,4.7-1.2,8.8-4,11.8-7.7,2.9,1.9,6.4,3.2,10.1,3.6,0,3.3,2.5,6.1,5.7,6.7.4,2.9,2.7,5.3,5.6,5.8.6,1,1.3,1.7,2.3,2.3h0c.9.6,1.8.9,2.9,1,0,.2.2.3.2.4-.2.5-.2.3-.2,1.5s.3,2.5.9,3.4c-.5,1-.8,2.2-.8,3.1s.2,1.8.6,2.7c-.4.8-.6,1.9-.6,2.7s0,1.5.4,2.3c-.3.8-.4-1.4-.4,2.1,2.5.6,4.8,1,7.3,1.3,0,.6.2,1,.3,1.6,1.6,0,3.4.3,5.3.4.5-1,.8-2,.8-3.1s0-1.5-.4-2.3c.3-.8.4-1.3.4-2.3s0-1.8-.5-2.7c.4-.8.6-1.5.6-2.7s-.3-2.4-.9-3.3c.5-1,.8-1.9.8-3.1s-.2-2.1-.7-3v-1.8c0-3.5-2.7-6.5-6.1-6.8-1-2-2.9-3.4-5-3.8-1-1.8-2.8-3-4.8-3.3,0-.6-.3-1.1-.5-1.6,4-2.3,7.2-5.7,9.1-10,.5-1,.9-1.9,1.1-2.9,7.8-3.4,13.2-11.3,13.2-20.3s-.2-3.3-.6-4.9l.5-.3c2.1-1.2,3.9-2.4,5.4-3.8,3.2-2.9,5.1-6.8,5.1-15.2s-.8-6.8-2.3-9.8h0ZM737.5,362.2h0ZM860.3,421.4v.2-.2h0c0-.2,0,0,0,0h0ZM754.7,321.8l-.2.2c-.3,0-.2,0,.2-.2Z"/>
    <path id="Door" class="st3" d="M174.7,549.8v1.7c-6.3,3.7-12.6,7.5-19,11.3-20.2,10.3-38.6,24-57.7,35.9-41.9,24.1-43.3,25-56.1,34.1,0,0-.6-329.3,1.6-493.8,0,0,84.1,11,125.3,15.4,2.4,27-1,54,0,81.2-.4,30,1.5,60,1,90,.6,33.3,3.3,66.1,3.7,99.4,0,41.4.6,83.6,1.2,124.8"/>
  </g>
  <g id="Face">
    <path id="STROKE_c4ab084e-b298-4243-bf50-5929c1d94600" class="st4" d="M780.7,338.2c-20.6-13-35.7,15.8-19,26.5,4.7,2.5,10.8,4.6,15.9,2,10.9-5.2,14.5-21.7,3.1-28.5Z"/>
    <path id="STROKE_8329b6f4-9c7a-4829-b578-0082285b7684" class="st4" d="M845.3,338.2c-16.1-14.6-36.6,10.3-21.5,24.8,6.7,6.5,20.2,7.4,25.1-1.7,4.3-8.3,4.9-17.5-3.5-23.1h0Z"/>
    <path id="STROKE_a606891e-5f5c-4ee5-8c9c-daa7b2003838" class="st2" d="M814.2,370.5c-1.7,5.5-9.3,5.1-13.8,4.1"/>
  </g>
  <path id="Bild" class="st3" d="M811.7,175.1c-42.5-.1-88-.5-130.2.6-1.4,32,2.5,65.3,0,97.3,31.5.6,200.2,1.5,237.3.9-4-32.5,0-98.8,0-98.8h-13.1s-63.7-.9-94,0h0Z"/>
  <path id="STROKE_2723813b-dec1-47cb-992f-cff34e48f481" class="st5" d="M61.9,372.5s56.5-66.3,69.9-83.4c.2,15.1,1.6,28.5,1.1,43.8,23.5.5,44.5-1.1,44.5-1.1l2,74.9s-20.7,2.8-44.5,1c.7,14.2,1.1,30,1.1,44.3l-74.1-79.7h0v.2h0Z"/>
</svg>