<?xml version="1.0" encoding="UTF-8"?>
<svg id="Ebene_1" xmlns="http://www.w3.org/2000/svg" version="1.1" viewBox="0 0 1600 900">
  <!-- Generator: Adobe Illustrator 29.1.0, SVG Export Plug-In . SVG Version: 2.1.0 Build 142)  -->
  <defs>
    <style>
      .st0, .st1, .st2 {
        fill: none;
      }

      .st1 {
        stroke-width: 3.2px;
      }

      .st1, .st2, .st3, .st4, .st5 {
        stroke: #000;
        stroke-linecap: round;
        stroke-linejoin: round;
      }

      .st2, .st3, .st4, .st5 {
        stroke-width: 3px;
      }

      .st3 {
        fill: #2323ff;
      }

      .st4 {
        fill: aqua;
      }

      .st5 {
        fill: #ff0;
      }
    </style>
  </defs>
  <g id="New_Layer_1">
    <path id="STROKE_431497de-9001-423a-a552-ab8ff0ccda43" class="st1" d="M488.3.8c11,14.9,63.8,78.8,77.6,96,21.9,25.9,44.6,49.8,64.9,77,6.6,8.4,10.1,13,16.8,20.6"/>
    <path id="STROKE_680e2007-6a32-49b4-93a5-899033f13c68" class="st2" d="M945.5,191.6c40.4-33.2,70.1-70.6,95.7-105.5C1063.6,57.5,1079.8,27.5,1111.7,0"/>
    <path id="STROKE_3e462730-f6e7-44cf-b3d4-6a5eb50b3e41" class="st2" d="M947.5,800.5c16.3,19.1,60.1,83.8,67.7,99.5"/>
    <path id="STROKE_e35a6a1c-f590-4f62-8732-7e624bfb9198" class="st2" d="M650.8,801.4c-18.4,33.1-37.4,66-57,98.6"/>
    <path id="STROKE_555ca850-e942-47d8-9b44-3893f0450e8f" class="st2" d="M947.5,800.5s-9.6.7-15.1,1c-16.4.7-33.4,1.5-49.9,1.1-32.2-.6-66,0-98.2-.4-34.4-.8-133.7.6-133.7.6,0,0,.9-106.8,1.2-160.1-.5-36-.6-72.3-.6-108.3-1.4-26.9-.5-54.5.5-81.4.6-85.9-4.1-258.6-4.1-258.6,0,0,65-.1,108.9-1.7,33-3.3,67.3-1.6,100.5-2.3,35.3-1.6,88.5,1.1,88.5,1.1,0,0,1.8,28.4,2.3,42.6-1.3,47-1.6,93.7-.8,140.8,2.8,86.1,0,172,2.3,258.1-.4,48.7-2.1,97.1-1.4,145.8-.3,12-.5,21.5-.5,21.5v.2h0Z"/>
    <path id="STROKE_6e20f9db-b4d5-44db-a1a2-418bbd67a69e" class="st2" d="M871.8,590.2c1.4,5.4,9.3,5.1,12,2.5h0c4-4,3.7-10.4-1.2-12.4-3.4-1.6-7.2-1.3-9.5,1.3"/>
    <path id="STROKE_e4c1e2fd-ebd4-4c33-87ba-3d45db8aa361" class="st2" d="M878.9,589.6c6.5-2.8-1.5-6.5-5.2-7-7.8-1-25.4-2.8-25.4,1.2,0,8.3,22.8,6.2,30.6,5.8s0,0,0,0h0Z"/>
    <path id="STROKE_d0633768-ce49-4471-ba42-43c3bf4d6fbf" class="st2" d="M683.9,801.4c-1.2-25.4-.3-91.1.4-116.5,1.3-26.2,3.6-52.5,2.7-78.8-2-30.9-2.9-62-3.3-92.9-1.7-24.3.5-48.7.4-73.1.6-23.3-.8-66.4-.8-66.4,19.4-.3,36.1-1.9,55.5-.6,20.6-1,40.9-.9,61.4.5,37.4,2.2,112.3-.4,112.3-.4-1.5,34.6,0,69.6-1,104.3,0,55.2,2.4,110.4,2.9,165.6,0,26.9-2.1,54.1-1.5,81,.5,25.9,1.8,52.1,0,78"/>
    <path id="STROKE_b8a62a33-bae4-4afb-9b1f-f862b08a09f3" class="st5" d="M776,259c-6.9,9.4-9.1,22.7-4.1,33.5,3.8,10,13.4,16.6,23.7,18.3,11.7,3.3,24-3.4,31.3-12.2,6.3-7.4,6.8-17.9,5.6-27.1-1.8-10.3-9.4-20.3-20-22.3-6.1-1.8-12.6-1.9-19.1-.4s-10.8,2.7-17.4,10.2h0Z"/>
    <path id="STROKE_e81e50d4-41f7-4de7-a9e4-af441fb7ab7d" class="st2" d="M800.5,123.8c.4,27.9.5,43.2-.9,71.1-.3,15.1,1.2,52.8,1.2,52.8"/>
    <path id="STROKE_c3775975-608a-448f-aeb5-0a8d44505228" class="st2" d="M811.5,118.4c3.4.7,7.9,3.3,6.4,7.5-6.8,7.3-19.7,5.1-28.7,3.8-4.5-.9-10.4-4.9-9.6-10,2.1-4.9,24-2.9,31.9-1.3h0Z"/>
  </g>
  <path id="Tür" class="st0" d="M683.9,801.4c-1.2-25.4-.3-91.1.4-116.5,1.3-26.2,3.6-52.5,2.7-78.8-2-30.9-2.9-62-3.3-92.9-1.7-24.3.5-48.7.4-73.1.6-23.3-.8-66.4-.8-66.4,19.4-.3,36.1-1.9,55.5-.6,20.6-1,40.9-.9,61.4.5,37.4,2.2,112.3-.4,112.3-.4-1.5,34.6,0,69.6-1,104.3,0,55.2,2.4,110.4,2.9,165.6,0,26.9-2.1,54.1-1.5,81,.5,25.9,1.8,52.1,0,78,0,0-13.8.9-30.3.5-32.2-.6-66,0-98.2-.4-34.4-.8-100.4-.9-100.4-.9h-.1Z"/>
  <path id="Bild_2" class="st3" d="M488,664.2c-12.4,8.6-26.9,13.7-40.8,20.6-12.9,6-33.3,17.3-45.2,24.7-11.2,6.9-27.5,14.6-39,20.3-9.4,5.5-22.2,14.8-29.8,21.1-5.3-98.9-2.7-200-3.3-299.1.3-26.2,3.3-55.2,3.3-81.8-.4-33.8.8-72.3-3.1-105.4,22.8,6.4,51.9,22.9,74.6,31.9,26.6,10.1,56.7,21.2,81.8,34.2,0,7.3.8,44.8.2,55.8-1.1,28.2-4.4,51.2-3.9,80-.3,32.1,2,53.1,3.9,84.1,1.6,36.3,2.1,78.3,1.3,113.7h0Z"/>
  <path id="Bild_1" class="st3" d="M1113,365c-1,38.2,4.6,67.9,4.1,105.8.3,32.1-2,53.1-3.9,84.1-1.6,36.3-2.1,78.3-1.3,113.7,26.1,15.1,60.3,28.5,85.9,45.3,11.2,6.9,27.5,14.6,39,20.3,9,4.9,22.9,15.9,30.3,20.8,4-98.9,2.6-199.8,2.8-298.9-.3-26.2-3.3-55.2-3.3-81.8.4-33.8-.8-72.3,3.1-105.4-20.9,6.9-53.4,23-74.6,31.9-26.5,10-56.8,21.2-81.8,34.2,0,0-.3,19.9-.4,30.1h.1Z"/>
  <path id="Pfeil" class="st4" d="M801.1,770.8s50.2,45.2,63.1,55.8c-11.8,0-22.1.7-33.9,0-.8,18.1,0,34.5,0,34.5h-58.1s-1.8-16.1,0-34.5c-11,.2-23.2.4-34.3,0l63.1-55.8h.1Z"/>
</svg>