<?xml version="1.0" encoding="UTF-8"?>
<svg id="Ebene_1" xmlns="http://www.w3.org/2000/svg" version="1.1" viewBox="0 0 1600 900">
  <!-- Generator: Adobe Illustrator 29.1.0, SVG Export Plug-In . SVG Version: 2.1.0 Build 142)  -->
  <defs>
    <style>
      .st0 {
        fill: none;
      }

      .st0, .st1, .st2, .st3 {
        stroke: #000;
        stroke-linecap: round;
        stroke-linejoin: round;
        stroke-width: 3px;
      }

      .st1, .st3 {
        fill: #2323ff;
      }

      .st2 {
        fill: #fff;
      }

      .st3 {
        display: none;
      }
    </style>
  </defs>
  <path id="Bild_2" class="st1" d="M1055,783.9s-98.9,2-131.4,0-109.2,0-145.6,0-94.5,1.8-125.6,0c-23.8-1.4-96,0-96,0-17.1-135.5-8.7-273.9-10.6-409.6,1-35.9-.4-73.5-.4-109.9-1.3-46.3,1-146.5,1-146.5h240.3s220.3-5.9,263.5,0c0,10,2.6,151.9.6,167-3.5,38.6-6.1,182.3,0,224.8,5.2,49.7,4.2,274.3,4.2,274.3h0Z"/>
  <path id="Bild_1" class="st3" d="M567.8,228.9c-3,79.5,13.7,141.4,12.2,220.3.9,66.8-6,110.6-11.6,175.1-4.8,75.6-6.3,163-3.9,236.8h463.5c11.9-205.9,7.8-236.1,8.4-442.5-.9-54.6.2-110.4.2-165.8,2.1-32.7-.8-86.3-.8-86.3,0,0-168,6.8-222.8,0-60.1-7.5-168.3-2.8-244.3,0,0,0-.9,41.4-1.2,62.7h.3v-.2h0Z"/>
  <g id="Zu">
    <path id="STROKE_d6b0a1ff-db12-466c-80fd-e210cd41de6b" class="st2" d="M403.9,116.1c-9.4-8.2-22.5-12.2-34.9-10.5-3.6.8-7.3,2.3-11,3.3-3.2,1.1-6.5,1.8-9,4.2-14.4,16.2-16,43.7,2.2,57.8,9.9,8.4,31.1,10.1,42.4,3.7,5.1-3.4,10.6-7.2,14-12.4,7.6-14.2,7.7-33.8-3.3-46.3l-.4.2h0Z"/>
    <path id="STROKE_159d6125-75b0-47ed-a944-7f380c305c94" class="st0" d="M396,121.1c-13.8,13.8-26.8,28.7-41.6,41.4"/>
    <path id="STROKE_c1231344-1495-4733-beee-34d3045628f5" class="st0" d="M354.6,121.1c12.5,14.9,27.2,28.1,41.3,41.3"/>
  </g>
</svg>