<?xml version="1.0" encoding="UTF-8"?>
<svg id="Ebene_1" xmlns="http://www.w3.org/2000/svg" version="1.1" viewBox="0 0 1600 900">
  <!-- Generator: Adobe Illustrator 29.1.0, SVG Export Plug-In . SVG Version: 2.1.0 Build 142)  -->
  <defs>
    <style>
      .st0, .st1 {
        fill: none;
      }

      .st1, .st2, .st3, .st4, .st5 {
        stroke: #000;
        stroke-linecap: round;
        stroke-linejoin: round;
        stroke-width: 3px;
      }

      .st2 {
        fill: #2323ff;
      }

      .st3, .st4 {
        fill: aqua;
      }

      .st4 {
        display: none;
      }

      .st5 {
        fill: #ff2c2c;
      }
    </style>
  </defs>
  <g id="Pen">
    <path id="STROKE_9908e3c1-d3fb-4bea-b216-01859f9cb9b8" class="st1" d="M757.4,553.9c0-40.7.3-84.6.6-125.4-.7-63.8-1.9-127,0-191.1.9-41.5-1.6-86.4,0-127.5,1.4-41.4-1.1-68.4,0-109.9"/>
    <path id="STROKE_1dc8e9c1-8ea5-4be9-ad18-47574454c534" class="st1" d="M560.5,630.4c5,1.8,16.1,6.6,16.1,6.6"/>
    <path id="STROKE_f0469c32-2348-476f-80cd-2f65f2f65740" class="st1" d="M428.2,700.1c-26.7,10.8-53.8,27.9-80,40-46,19.1-92.5,38.6-137.5,60-48.9,25.5-99,47.8-149.2,70.4C37.7,880.5,23.7,888.5,0,899.9"/>
    <path id="STROKE_92fb289f-b9c4-4c33-8741-0f675a8b05c1" class="st1" d="M843.9,555.6c-7,1.5-12.5,6.4-19,9.2l-7.8,3.6c-21.4-2.8-59.6-14.5-59.6-14.5-21.9,8.2-40.1,23.1-61.8,32.1-15.3,7.7-31.6,12.5-47.3,18.8-23.5,9.8-48.1,22.5-71.7,32.1,0,0-.8-51.1-.9-72.4.9-29.7,1.3-60.6,1.7-90.4.8-37.8-2.8-76.9-2.2-114.7-1.1-27.1,1.4-156.4,1.4-156.4-49-9.9-99.3-13.8-149.1-18.4,0,0-1.7,226.5-1.8,341.1,1.3,58.9-5.8,121.6,2.4,174.4"/>
    <path id="STROKE_1da68ce1-27f7-4e08-946c-f2c247f18373" class="st1" d="M427.5,184.7s-7.9-15.2-14.3-19"/>
    <path id="STROKE_af41aa5d-1d16-450b-8de0-ff07c94830f8" class="st1" d="M576.6,203.1c-5.7,1.4-17.2,4.9-17.2,4.9"/>
    <path id="STROKE_2c3afb03-cca9-4094-8579-f384235a444a" class="st1" d="M576.6,203.1c3-2.7,10.1-7.5,13.1-10.4"/>
    <path id="STROKE_83845483-ef5d-4118-b0bb-055b5fd2ca62" class="st1" d="M415,705.2s-4.6-48.3-3.7-73.2c2.1-37,2.2-74.4,1.5-111.4-.7-116.2.5-354.8.5-354.8,31.8,8.9,66.3,11.9,99,16.2,24.6,2.2,77.4,10.8,77.4,10.8-1.4,32.4,1.6,65.1.9,97.5-2.5,68.7-1,137.7.7,206.4.3,31.9-4,64-3.6,95.9-.3,11.2-.8,27.5,0,38.7"/>
    <path id="STROKE_649f41a7-a9d2-48fd-8488-da6764f6ea50" class="st1" d="M939.7,166.5c-.7,30.7-2.6,61.6-2.2,92.5-.5,38,1.1,76.3,0,114.4,0,46.1-2.4,92.5-3.8,138.6-1.5,20.2.9,39.7-1.3,59.2"/>
    <path id="STROKE_d6e6c9c2-bb0b-49c1-9ca7-d76d47cc456c" class="st1" d="M817.1,568.4c3.3-21.1.7-46.5,3.4-68.3,2.4-36.8-2.4-74.2-2.7-111-.3-28.8,3.6-56.6,3.7-85.6.6-47.9,1.4-95.4,1.3-143.1,0,0,93.4-5.6,139.1-7.2,24.2-1.4,49-4.2,73.2-4.7,0,0-1.8,63-1.8,93.3-1.8,45.6.4,94.2,0,139.7-3.2,73.9-5.4,227.7-5.4,227.7,47.2,9.6,96.6,19.5,143.6,29.8,48.9,7.1,98.4,18.8,147.3,26.7,54.3,8.7,109.2,19.1,163,30,30.4,5.9,89,11,118.4,21.2"/>
    <path id="STROKE_ff676a37-9b9d-4cd0-a8b7-678962f1ce2e" class="st1" d="M1033,161c-26.6,3.5-56,2.2-82.9,3.2-25.3,1.1-51.3,3.1-76.7,4.5-8.1,0-24.6,1.9-24.6,1.9,2.2,30.8-1.6,62-1.8,92.9-1.4,51.9-1.3,104,1.1,155.7,1.6,27.8-3.6,54-4.9,81.9-1.6,19.1,1.7,35.9.6,54.5,0,0,58,10.4,85.8,16.2,33.2,6.7,64.2,14.5,97.9,17.6"/>
    <path id="STROKE_45c6f715-55d6-4f27-8192-20b8da8863b1" class="st1" d="M848.9,170.6c-7-2.5-26.1-10.1-26.2-10.2"/>
    <path id="STROKE_73d54fb2-1523-4f3f-8244-108b7e2956f1" class="st1" d="M902.6,145.8c15.8,1,33-.1,48.6-2.2l-.3-25.3c-15.3.5-31.8.6-47,2.7l-1.3,24.8Z"/>
    <path id="STROKE_a6a175dc-9f1f-4964-bd17-1718775ab7e9" class="st5" d="M942.1,127.3c-10.4,0-21.3.9-31.6,1.8l1.2,10.5c9.8-.3,20.6-1.8,30.4-2v-10.3h0Z"/>
    <path id="STROKE_1d003408-9c0c-4dbb-b3e9-a8b838cb733e" class="st1" d="M427.5,196.3c12.4.5,32.9,2.1,45.3,3.1,28.5,1.3,58.3,4.9,86.6,8.6,0,0,.9,31.1.9,46.4-1.1,13.1,0,28.2-.6,41.4-.9,40.8.2,80.1-1.4,121.1-.3,40.3,1.2,79.3,1.8,119.4,0,30.8-.8,63.7.4,94.1,0,0-88.7,34.9-133.3,52.7"/>
    <path id="STROKE_bfa7e73a-288e-4e4c-b7af-4977489f613e" class="st1" d="M529.7,407.5c-4.4.6-8.5.3-12.7,1-6.6,1.9-1,7.8,3.4,7.8,7.8-.6,26.5,1.9,26.7-4.9s-12.8-3.7-17.4-3.9Z"/>
    <path id="STROKE_894815fb-3f7a-4589-af63-298470409ea1" class="st3" d="M1051.7,351.1c-3,1.5-1.4,3.6-1.6,5.6,0,2.5-.6,5.2-.7,7.6,0,2.5-.8,5.1-.6,7.6.5,4.2,17.8,3.3,21.5,2.7,4.3-5,2.2-13.1,3.1-17.4s3.7-7.1-4.3-7.1c-2.7-.1-15.5,0-17.3.8h0v.2h0Z"/>
    <path id="STROKE_241cba5b-1879-48cc-8169-67698a91fb44" class="st5" d="M1065.6,357.7c-1.2-1.2-9.5-4.1-9.6.8-.2,2.3-1.8,8.4,1,9.2,2.1.7,5.9.9,8.1.2,1.3-2.6,2.2-8.4.4-10.2h0Z"/>
  </g>
  <path id="Button" class="st0" d="M1051.7,351.1c-3,1.5-1.4,3.6-1.6,5.6,0,2.5-.6,5.2-.7,7.6,0,2.5-.8,5.1-.6,7.6.5,4.2,17.8,3.3,21.5,2.7,4.3-5,2.2-13.1,3.1-17.4s3.7-7.1-4.3-7.1c-2.7-.1-15.5,0-17.3.8h0v.2h0Z"/>
  <path id="Rot" class="st0" d="M1065.6,357.7c-1.2-1.2-9.5-4.1-9.6.8-.2,2.3-1.8,8.4,1,9.2,2.1.7,5.9.9,8.1.2,1.3-2.6,2.2-8.4.4-10.2h0Z"/>
  <path id="Bild" class="st2" d="M1418.5,125.2c-16,1.8-31.9,2.2-48.1,2.9-23.1,2.2-45.6,2.2-68.7,3.6-18.3,1.6-36.6,5.5-54.9,5.5-11,.7-34.8.7-34.8.7-.3,12.4-3.1,19.6-3.4,32.5-.7,20.3,1.6,38.9,1.8,59.5,2,45.7,3.4,92.1,1.5,137.7-.3,22.8,0,48.8,1.1,71.7.3,22-2.3,67.1-2.3,67.1,56.8,2.7,114.9,10.1,171.9,10.8,31.6.8,59.6,7.2,91.5,6.2,0,0-2.6-105.7-2.8-157.7.4-87.3,4.9-151.4.8-244.3,0,0-25.9.8-53.7,4v-.2h0Z"/>
  <path id="STROKE_2723813b-dec1-47cb-992f-cff34e48f481" class="st4" d="M1058.9,393s14.7,13.2,18.5,16.3c-3.5,0-6.5.2-9.9,0-.2,5.3,0,10.1,0,10.1h-17s-.5-4.7,0-10.1h-10.1l18.5-16.3h0Z"/>
</svg>