<?xml version="1.0" encoding="UTF-8"?>
<svg id="Ebene_1" xmlns="http://www.w3.org/2000/svg" version="1.1" viewBox="0 0 1600 900">
  <!-- Generator: Adobe Illustrator 29.1.0, SVG Export Plug-In . SVG Version: 2.1.0 Build 142)  -->
  <defs>
    <style>
      .st0, .st1, .st2, .st3 {
        fill: none;
      }

      .st1, .st4, .st2, .st3, .st5, .st6, .st7 {
        stroke-linecap: round;
        stroke-linejoin: round;
      }

      .st1, .st4, .st3, .st7 {
        stroke: #000;
      }

      .st1, .st2, .st5, .st6, .st7 {
        stroke-width: 3px;
      }

      .st8 {
        fill: #010101;
      }

      .st9 {
        opacity: .4;
      }

      .st9, .st10, .st11 {
        isolation: isolate;
      }

      .st4 {
        fill: #737373;
      }

      .st2, .st5, .st6 {
        stroke: #010101;
      }

      .st12 {
        fill: #4a0500;
      }

      .st13 {
        fill: #ffb6b6;
      }

      .st14 {
        fill: #f6ff00;
      }

      .st15 {
        fill: #ffb3e7;
      }

      .st16 {
        fill: #ffe2a3;
      }

      .st17 {
        fill: #ff91fc;
      }

      .st18 {
        fill: #f318ed;
      }

      .st19 {
        fill: #ff300e;
      }

      .st5, .st20 {
        fill: #fff;
      }

      .st10 {
        opacity: .3;
      }

      .st10, .st11 {
        fill: #00dfff;
      }

      .st11 {
        opacity: .5;
      }

      .st21 {
        fill: #030605;
      }

      .st22 {
        fill: #f6b4b7;
      }

      .st23 {
        fill: #00cb79;
      }

      .st24 {
        fill: #674509;
      }

      .st25 {
        fill: #ffa004;
      }

      .st7 {
        fill: #ff0;
      }

      .st26 {
        fill: #3cf6ed;
      }

      .st27 {
        fill: #ff5d6d;
      }

      .st28 {
        fill: #010017;
      }

      .st29 {
        fill: #f63e2a;
      }

      .st30 {
        fill: #1a26ff;
      }
    </style>
  </defs>
  <polygon class="st11" points="1600 174.7 860.1 151.6 847.4 81.7 741.6 80.5 740.2 160.7 585 160.5 544.7 133.7 0 117.9 0 0 1600 0 1600 174.7"/>
  <g id="Ebene_11">
    <g>
      <path class="st23" d="M1374.9,436.6c-3.3-83.5-1.4-173.1.3-257.5,0-5.1.2-10.2.3-15.2h0v-4.4c-33.1,0-64,.3-97.2.3-26.4.1-50.1-.2-76.6.7-37.7,1.1-73.1-.1-110.7-.8-29.2-.4-61,3.4-89.8.2-.3,31.1,0,70.6-.4,95.3.6,93.2-2.6,185.1.2,278.3,4.5,90-3.4,147.9.2,238.5,10.1,0,20.3-.2,27.1,0,10.8.4,30.2,0,42.9,0,34,0,66.3-.6,98.7-.8,1.5-45.7,0-143.9,0-143.9,21,.3,62,0,62,0,0,0-1.2,97,0,144.1,9.8,0,19.7.3,29.7.5,31.5.6,54.4,0,84.8,0h26.8c0-46.2-.6-64.2,0-109.5.4-74.5,4.5-151.1,1.6-225.6v-.2h0ZM1112.7,732.7h-59.8c1.2-30,0-91.7,0-91.7,20,1,39.5.3,59.8,0v91.7ZM1118.6,560.2s-55.2.4-75.9,0c0,0,.6-11.5,0-17.1h10.1c-.9-32.9,0-99.4,0-99.4,20-2.2,59.8,0,59.8,0,1.5,33,0,66.4,0,99.4h6s-.2,12.2,0,17.1ZM1118.4,372.6s-55.2.4-75.9,0c0,0,.6-11.5,0-17.1h10.1c-.9-32.9,0-99.4,0-99.4,20-2.2,59.8,0,59.8,0,1.5,33,0,66.4,0,99.4h6s-.2,12.2,0,17.1ZM1239,560.1s-55.2.4-75.9,0c0,0,.6-11.5,0-17.1h10c-.9-32.9,0-99.4,0-99.4,20-2.2,59.8,0,59.8,0,1.5,33,0,66.4,0,99.4h6.1s-.2,12.2,0,17.1ZM1238.8,372.5s-55.2.4-75.9,0c0,0,.6-11.5,0-17.1h10c-.9-32.9,0-99.4,0-99.4,20-2.2,59.8,0,59.8,0,1.5,33,0,66.4,0,99.4h6.1s-.2,12.2,0,17.1ZM1348.7,732.5h-59.8c1.2-30,0-91.7,0-91.7,20,1,39.5.3,59.8,0v91.7ZM1353.9,560s-55.2.4-75.9,0c0,0,.6-11.5,0-17.1h10.1c-.9-32.9,0-99.4,0-99.4,20-2.2,59.8,0,59.8,0,1.5,33,0,66.4,0,99.4h6s-.2,12.2,0,17.1ZM1353.7,372.4s-55.2.4-75.9,0c0,0,.6-11.5,0-17.1h10.1c-.9-32.9,0-99.4,0-99.4,20-2.2,59.8,0,59.8,0,1.5,33,0,66.4,0,99.4h6s-.2,12.2,0,17.1Z"/>
      <g>
        <path class="st10" d="M1112.7,641v91.7h-59.7c1.2-30,0-91.7,0-91.7,20,1,39.5.3,59.8,0h-.1Z"/>
        <path class="st10" d="M1348.7,640.8v91.7h-59.7c1.2-30,0-91.7,0-91.7,20,1,39.5.3,59.8,0h-.1Z"/>
        <path class="st10" d="M1112.6,543.1h-59.8c-.9-32.8,0-99.4,0-99.4,20-2.2,59.8,0,59.8,0,1.5,33,0,66.4,0,99.4Z"/>
        <path class="st29" d="M1118.6,560.2s-55.2.4-75.9,0c0,0,.6-11.5,0-17.1h75.9s-.2,12.1,0,17h0Z"/>
        <path class="st10" d="M1232.9,543h-59.8c-.9-32.8,0-99.4,0-99.4,20-2.2,59.8,0,59.8,0,1.5,33,0,66.4,0,99.4Z"/>
        <path class="st29" d="M1239,560.1s-55.2.4-75.9,0c0,0,.6-11.5,0-17.1h75.9s-.2,12.1,0,17h0Z"/>
        <path class="st10" d="M1347.9,542.9h-59.8c-.9-32.8,0-99.4,0-99.4,20-2.2,59.8,0,59.8,0,1.5,33,0,66.4,0,99.4Z"/>
        <path class="st29" d="M1353.9,560s-55.2.4-75.9,0c0,0,.6-11.5,0-17.1h75.9s-.2,12.1,0,17h0Z"/>
        <path class="st10" d="M1112.4,355.5h-59.8c-.9-32.8,0-99.4,0-99.4,20-2.2,59.8,0,59.8,0,1.5,33,0,66.4,0,99.4Z"/>
        <path class="st29" d="M1118.4,372.6s-55.2.4-75.9,0c0,0,.6-11.5,0-17.1h75.9s-.2,12.1,0,17h0Z"/>
        <path class="st10" d="M1232.7,355.4h-59.8c-.9-32.8,0-99.4,0-99.4,20-2.2,59.8,0,59.8,0,1.5,33,0,66.4,0,99.4Z"/>
        <path class="st29" d="M1238.8,372.5s-55.2.4-75.9,0c0,0,.6-11.5,0-17.1h75.9s-.2,12.1,0,17h0Z"/>
        <path class="st10" d="M1347.7,355.3h-59.8c-.9-32.8,0-99.4,0-99.4,20-2.2,59.8,0,59.8,0,1.5,33,0,66.4,0,99.4Z"/>
        <path class="st29" d="M1353.7,372.4s-55.2.4-75.9,0c0,0,.6-11.5,0-17.1h75.9s-.2,12.1,0,17h0Z"/>
        <path class="st25" d="M1375.6,159.5c-33.1,0-64,.3-97.2.3-26.4.1-50.1-.2-76.6.7-37.7,1.1-73.1-.1-110.7-.8-29.2-.4-61,3.4-89.8.2h0l19.7-39.1c51.7,2.2,103.3,1.1,155.7,0,60.5-1,178-.2,178-.2,7.1,13,13.9,26.6,20.8,39.2v-.2h0Z"/>
        <path class="st15" d="M1232.1,771.3c-21-.2-41.5-.2-62,0,1.5-45.7,0-143.9,0-143.9,21,.3,62,0,62,0,0,0-1.2,97,0,144.1h0v-.2Z"/>
      </g>
    </g>
    <g>
      <path class="st14" d="M584.5,418c3.8-70.5-1.3-139.6-.9-209.8.7-34.4,2.8-70.3.9-104.3,0,0-232.3,1.7-349.3,0h-.1v6.5h0c-.1,37.5-1.3,75.3,0,115,.5,31.7-1.5,61.7,0,93.3,1.1,34.3-1.3,69.1,0,103.4.9,47.4-.6,91.7,0,139.1.1,4.2.3,8.3.4,12.5,76.6,3.4,163.2-2.1,239.9-1.1,34.4,1.8,100.5.9,109.2.8v-29c1.5-41.9-2.3-84.4,0-126.4h0ZM512.9,149.8l16.4.2c1.1,9.9,0,19.4,0,29.5,0,0-23.2-.2-34.2,0,0-1.5.2-19.8-.4-29.9l18.3.2h-.1ZM416.8,149.8l16.3.2c1.1,9.9,0,19.4,0,29.5,0,0-23.2-.2-34.2,0,0-1.5.2-19.8-.4-29.9l18.4.2h0ZM317.8,149.8l16.4.2c1.1,9.9-.1,19.4-.1,29.5,0,0-23.2-.2-34.2,0,0-1.5.2-19.8-.4-29.9l18.3.2h0ZM348.6,471.2c.2,20.2,1,41.4,1,61.6,3.5,0,6.7,0,9.5.2v8.4c-25.7-.6-59.5,0-85.2,0v-8.4h9.5c.8-21.3.7-50.4,0-66-.7-15.5.7-31.5,0-46.8h-9.5c6.2-5.7,28.6-25.5,41.3-26.2s33.6,14.5,43.9,26.2h-9.9c1,16.6-1,34.4-.6,51.1h0ZM348.6,284.7c.2,20.2,1,41.5,1,61.7,3.5,0,6.7,0,9.5.2v8.4c-25.7-.6-59.5,0-85.2,0v-8.4s3.6,0,9.5-.1c.8-21.3.7-50.5,0-66.1-.7-15.1.7-31.7,0-46.8h-9.6c6.2-5.7,28.6-25.5,41.3-26.2s33.6,14.5,43.9,26.2h-9.8c.8,16.4-1,34.7-.7,51.1h.1ZM447.6,471.2c.2,20.2,1,41.4,1,61.6,3.5,0,6.6,0,9.4.2v8.4c-25.7-.6-59.5,0-85.2,0v-8.4h9.5c.8-21.3.6-50.5,0-66-.7-15.8.8-31.2,0-46.8h-9.5c6.2-5.7,28.6-25.5,41.3-26.2,12.7-.7,33.6,14.5,43.9,26.2h-9.8c1,16.6-1,34.4-.6,51.1h0ZM447.6,284.7c.2,20.2,1,41.5,1,61.7,3.5,0,6.6.1,9.4.2v8.4c-25.7-.6-59.5,0-85.2,0v-8.4h9.5c.8-21.3.7-50.5,0-66.1-.7-15.1.7-31.7,0-46.8h-9.6c6.2-5.7,28.6-25.5,41.3-26.2,12.7-.7,33.6,14.5,43.9,26.2h-9.7c.8,16.4-1,34.7-.7,51.1h.1ZM543.7,471.2c.2,20.2,1,41.4,1,61.6,3.5,0,6.7,0,9.5.2v8.4c-25.7-.6-59.5,0-85.2,0v-8.4h9.4c.8-21.3.7-50.5,0-66s.7-31.5,0-46.8h-9.4c6.2-5.7,28.6-25.5,41.3-26.2,12.7-.7,33.6,14.5,43.9,26.2h-9.9c1,16.6-1,34.4-.6,51.1h0ZM543.7,284.7c.2,20.2,1,41.5,1,61.7,3.5,0,6.7,0,9.5.2v8.4c-25.7-.6-59.5,0-85.2,0v-8.4h9.4c.8-21.3.7-50.5,0-66.1-.7-15.5.7-31.5,0-46.8h-9.4c6.2-5.7,28.6-25.5,41.3-26.2,12.7-.7,33.6,14.5,43.9,26.2h-9.8c.9,16.4-1,34.7-.7,51.1h0Z"/>
      <path class="st14" d="M584.5,688.4c-2.4-27.8-.7-56.3,0-84.1,0-7.4.2-14.9.2-22.4-10.2,0-101.8.2-149.9-1-33.3-.4-66.4,0-99.7-.4-30.1-.2-69.3-.3-99.4.2,1.6,62.7.9,128.6-.6,190.5h51.9c-.3-28.8-1.4-61.4,0-90.1.5-8.7,0-17.6.4-26.4.2-4.4.6-8.7,1.5-12.9,3.7-12.9,12.3-28.2,27.7-27.4,27.3-1.1,36.7,18.3,39.6,40.4,1.7,12.9,1.1,26.7.5,38,0,25.6-.2,53.2-.5,78.8,26.1.2,49.8.5,70.2.8,42,.7,98.4.8,158.1.6,0-27.7,1.3-57,0-84.6h0ZM505.2,675c-.3,14.1,0,42.9,0,42.9h-82.4c1.1-33.4-.7-80.6,0-100.3,0,0,27.4.2,42.9,0h1.9c12.4-.2,37.6,0,37.6,0,.7,18.8-.5,38.4,0,57.3h0Z"/>
      <path class="st18" d="M584.7,581.9c-10.2,0-101.8.2-149.9-1-33.3-.4-66.4,0-99.7-.4-30.1-.2-69.3-.3-99.4.2,0-2.3-.1-4.6-.2-7,76.6,3.4,163.2-2.1,239.9-1.1,34.4,1.8,100.5.9,109.2.8v8.5h0Z"/>
      <path class="st13" d="M356.2,654.8c-22.3.3-46.5,1.7-68.8,0-.4,8.8,0,17.7-.4,26.4-1.4,28.7-.3,61.4,0,90.1,24.2,0,47.5.2,69.2.3.3-25.6.6-53.2.5-78.8.6-11.3,1.1-25.1-.5-38Z"/>
      <path class="st13" d="M356.2,654.8c-22.3.3-46.5,1.7-68.8,0,.2-4.4.6-8.7,1.5-12.9,3.7-12.9,12.3-28.2,27.7-27.4,27.3-1.1,36.7,18.3,39.6,40.4h0Z"/>
      <g>
        <path class="st18" d="M359.1,233.6h-85.2c6.2-5.7,28.6-25.5,41.3-26.2s33.6,14.5,43.9,26.2Z"/>
        <path class="st13" d="M336.8,346.3c.2-27.6.7-56.9,0-84.4h-43.4v30.6c-.5,17.3.4,36.6,0,53.9h-10c.8-21.3.7-50.5,0-66.1-.7-15.1.7-31.7,0-46.8h65.8c.8,16.4-1,34.7-.7,51.1.2,20.2,1,41.5,1,61.7-4,0-8.3,0-12.8-.1h0Z"/>
        <path class="st18" d="M359.1,346.6v8.4c-25.7-.6-59.5,0-85.2,0v-8.4s3.6,0,9.5-.1h10c6.4,0,13.9,0,21.7-.1h21.7c4.5,0,8.8,0,12.8.1,3.5,0,6.7,0,9.5.2h0Z"/>
        <path class="st10" d="M336.8,346.3h-21.7c-7.8,0-15.3,0-21.7.1.4-17.3-.5-36.7,0-53.9v-30.6h43.4c.7,27.5.2,56.8,0,84.4h0Z"/>
        <path class="st10" d="M505.2,675c-.3,14.1,0,42.9,0,42.9h-82.4c1.1-33.4-.7-80.6,0-100.3,0,0,27.4.2,42.9,0h1.9c12.4-.2,37.6,0,37.6,0,.7,18.8-.5,38.4,0,57.3h0Z"/>
        <path class="st26" d="M584.5,103.9s-232.3,1.7-349.3,0c0,0,7.9-9.4,13.7-14,0,0,141.3-.4,210-.6,38.7-1.6,116.9.6,116.9.6,2.9,7,6,6.8,8.7,14h0Z"/>
        <path class="st10" d="M334.1,179.5s-23.2-.2-34.2,0c0-1.5.2-19.8-.4-29.9l18.3.2,16.4.2c1.1,9.9-.1,19.4-.1,29.5h0Z"/>
        <path class="st18" d="M458,233.6h-85.2c6.2-5.7,28.6-25.5,41.3-26.2,12.7-.7,33.6,14.5,43.9,26.2h0Z"/>
        <path class="st13" d="M435.8,346.3c.2-27.6.7-56.9,0-84.4h-43.4v30.6c-.5,17.3.4,36.6,0,53.9h-10.1c.8-21.3.7-50.5,0-66.1-.7-15.1.7-31.7,0-46.8h65.9c.8,16.4-1,34.7-.7,51.1.2,20.2,1,41.5,1,61.7-4,0-8.3,0-12.8-.1h.1Z"/>
        <path class="st18" d="M458,346.6v8.4c-25.7-.6-59.5,0-85.2,0v-8.4h19.6c6.4,0,13.9,0,21.7-.1h21.7c4.5,0,8.8,0,12.8.1,3.5,0,6.6.1,9.4.2v-.2Z"/>
        <path class="st10" d="M435.8,346.3h-21.7c-7.8,0-15.3,0-21.7.1.4-17.3-.5-36.7,0-53.9v-30.6h43.4c.7,27.5.2,56.8,0,84.4h0Z"/>
        <path class="st10" d="M433,179.5s-23.2-.2-34.2,0c0-1.5.2-19.8-.4-29.9l18.4.2,16.3.2c1.1,9.9,0,19.4,0,29.5h0Z"/>
        <path class="st18" d="M554.2,233.6h-85.2c6.2-5.7,28.6-25.5,41.3-26.2,12.7-.7,33.6,14.5,43.9,26.2Z"/>
        <path class="st13" d="M531.9,346.3c.2-27.6.7-56.9,0-84.4h-43.4v30.6c-.5,16.9.4,36.9,0,53.9h-10.1c.8-21.3.7-50.5,0-66.1-.7-15.5.7-31.5,0-46.8h65.9c.9,16.4-1,34.7-.7,51.1.2,20.2,1,41.5,1,61.7-4,0-8.3,0-12.8-.1h0Z"/>
        <path class="st18" d="M554.2,346.6v8.4c-25.7-.6-59.5,0-85.2,0v-8.4h19.5c6.4,0,13.9,0,21.7-.1h21.7c4.5,0,8.8,0,12.8.1,3.5,0,6.7,0,9.5.2v-.2Z"/>
        <path class="st10" d="M531.9,346.3h-21.7c-7.8,0-15.2,0-21.7.1.3-17.1-.5-37,0-53.9v-30.6h43.4c.7,27.5.2,56.8,0,84.4Z"/>
        <path class="st18" d="M359.1,420.1h-85.2c6.2-5.7,28.6-25.5,41.3-26.2s33.6,14.5,43.9,26.2Z"/>
        <path class="st13" d="M336.8,532.7c.2-27.6.7-56.9,0-84.4h-43.4v30.6c-.5,16.9.4,36.9,0,53.9h-10c.8-21.3.7-50.4,0-66-.7-15.5.7-31.5,0-46.8h65.8c1,16.6-1,34.4-.6,51.1.2,20.2,1,41.4,1,61.6h-12.8Z"/>
        <path class="st18" d="M359.1,533v8.4c-25.7-.6-59.5,0-85.2,0v-8.4h19.5c12.4,0,28.9-.2,43.4,0h12.8c3.5,0,6.7,0,9.5.2v-.2Z"/>
        <path class="st10" d="M336.8,532.7h-43.4c.3-17.1-.5-37,0-53.9v-30.6h43.4c.7,27.5.2,56.8,0,84.4h0Z"/>
        <path class="st18" d="M458,420.1h-85.2c6.2-5.7,28.6-25.5,41.3-26.2,12.7-.7,33.6,14.5,43.9,26.2h0Z"/>
        <path class="st22" d="M435.8,532.7c.2-27.6.7-56.9,0-84.4h-43.4v30.6c-.5,16.9.4,36.9,0,53.9h-10.1c.8-21.3.6-50.5,0-66-.7-15.8.8-31.2,0-46.8h65.9c1,16.6-1,34.4-.6,51.1.2,20.2,1,41.4,1,61.6h-12.8Z"/>
        <path class="st18" d="M458,533v8.4c-25.7-.6-59.5,0-85.2,0v-8.4h19.6c12.5,0,28.9-.2,43.4,0h12.8c3.5,0,6.6,0,9.4.2v-.2h0Z"/>
        <path class="st10" d="M435.8,532.7h-43.4c.3-17.1-.5-37,0-53.9v-30.6h43.4c.7,27.5.2,56.8,0,84.4h0Z"/>
        <path class="st18" d="M554.2,420.1h-85.2c6.2-5.7,28.6-25.5,41.3-26.2,12.7-.7,33.6,14.5,43.9,26.2Z"/>
        <path class="st13" d="M531.9,532.7c.2-27.6.7-56.9,0-84.4h-43.4v30.6c-.5,16.9.4,36.9,0,53.9h-10.1c.8-21.3.7-50.5,0-66s.7-31.5,0-46.8h65.9c1,16.6-1,34.4-.6,51.1.2,20.2,1,41.4,1,61.6h-12.8Z"/>
        <path class="st18" d="M554.2,533v8.4c-25.7-.6-59.5,0-85.2,0v-8.4h19.5c12.4,0,28.9-.2,43.4,0h12.8c3.5,0,6.7,0,9.5.2v-.2Z"/>
        <path class="st10" d="M531.9,532.7h-43.4c.3-17.1-.5-37,0-53.9v-30.6h43.4c.7,27.5.2,56.8,0,84.4h0Z"/>
        <path class="st10" d="M529.2,179.5s-23.2-.2-34.2,0c0-1.5.2-19.8-.4-29.9l18.3.2,16.4.2c1.1,9.9,0,19.4,0,29.5h-.1Z"/>
      </g>
    </g>
    <g id="Ebene_2">
      <g>
        <path class="st8" d="M712.4,112.5c-.3,1.5-.5,3-.7,4.5,0,0,0,9.8-.2,24.4-42.1.2-84.5.6-126.2,0,0-9.7,0-19.3-.4-28.8,19.9.2,40.6,1.5,60.4,0,19.8-.9,46.2,0,67.1,0h0Z"/>
        <path class="st8" d="M1001.8,141.3c-43.4,0-83.2.2-125.2.1,0-9.7-.4-18.7-1.2-26.6,0-.3-.2-1.2-.3-2.4,20.6-.4,46.9,1.6,67.6,0,21.4-.7,41.4-.4,41.4-.4l17.7,29.2h0Z"/>
        <path class="st28" d="M944.6,199.6v1.4c0,1.8,0,3.7-.2,5.5v3c0,1.7-.2,3.4-.2,5.1v9.6c-7.2,0-19.2-.2-31.3-.2s-14.5,0-20.6.2v-39.8h51.9c.2,1,.3,2.1.4,3.2s.2,2.2.3,3.3c.2,2.8.2,5.7.2,8.7h-.5Z"/>
        <path class="st0" d="M912.5,224.1c12,0,24.1.1,31.3.2h0c-11.5,0-35.7-.4-51.9.1h0c6.1-.2,13.4-.3,20.6-.3h0Z"/>
        <path class="st28" d="M944.4,358.6c-16.9,0-34.2.9-51.1.6-.6-18.1-.8-36.8-1.3-54.8,0-10.6-.5-32-.5-33.5,18.1-1.3,52.9-.2,52.9-.2v45.3c0,9.8,1,32.2,0,42.6h0Z"/>
        <path class="st0" d="M944.5,358.6h0c1-10.4,0-32.8,0-42.6v-45.3s-34.8-1.1-52.9.2h0c18.1-1.4,53-.3,53-.3v45.3c0,9.8,1,32.3,0,42.7h0Z"/>
        <path class="st20" d="M954.9,369.3s-49,.8-74.2,0v-10.5c4.2.2,8.3.4,12.5.5,17,.3,34.4-.6,51.3-.6s6.9,0,10.3.1c0,0-.3,6.9,0,10.6h.1Z"/>
        <path class="st20" d="M954.9,511s-49,.8-74.2,0v-10.5c4.1.2,8.3.4,12.5.5,17,.3,34.4-.6,51.4-.6s6.9,0,10.3,0c0,0-.3,6.9,0,10.6h0Z"/>
        <path class="st0" d="M689.6,500.3h0c1-10.4,0-32.8,0-42.6v-45.3s-34.8-1.1-52.9.2h0c18.1-1.4,53-.3,53-.3v45.3c0,9.8,1,32.3,0,42.7h0Z"/>
        <path class="st20" d="M699.9,511s-49,.8-74.2,0v-10.5c4.2.2,8.3.4,12.5.5,17,.3,34.4-.6,51.3-.6s6.9,0,10.3,0c0,0-.3,6.9,0,10.6h.1Z"/>
        <path class="st28" d="M689.5,718.3c-17,0-34.2.9-51.2.6-.6-18.1-.8-36.8-1.2-54.8,0-10.6-.5-31.9-.5-33.5,18.1-1.3,52.9,0,52.9,0v45.3c0,9.7,1,31.9,0,42.4Z"/>
        <path class="st0" d="M689.6,718.4h0v-.2h0c.9-10.5,0-32.7,0-42.4v-45.3s-34.8-1.3-52.9,0h0c18.1-1.4,53,0,53,0v45.3c0,9.8,1,32.2,0,42.6h0Z"/>
        <path class="st20" d="M699.9,729s-49,.8-74.2,0v-10.5c4.2.2,8.3.4,12.5.5,17,.3,34.4-.6,51.3-.6s6.9,0,10.3,0c0,0-.3,6.9,0,10.5h.1Z"/>
        <path class="st28" d="M946.3,708.2v.9h0v6.5c0,1,0,1.9-.2,2.7h0c-17,0-34.3.8-51.3.5-.6-18.1-.8-36.8-1.2-54.8v-33.4c18.1-1.3,53,0,53,0v51.1h0v2.6c0,3.6.2,7.6.2,11.7v12.2h-.5Z"/>
        <path class="st0" d="M945.9,630.6s-34.9-1.3-53,0h0c18.1-1.4,53,0,53,0h0Z"/>
        <path class="st0" d="M945.9,718.4h0Z"/>
        <path class="st20" d="M956.1,727.8v1.1h-24.5c-16,0-36.2,0-49.7-.3v-10.5c4.2.2,8.3.4,12.6.5,17,.3,34.4-.6,51.3-.6h10.3v.2h0v8.4c0,.2,0,0,0,0v.5h0v.6h0Z"/>
        <path class="st28" d="M689.5,359.1c-17,0-34.2.9-51.2.6-.6-18.1-.8-36.8-1.2-54.8,0-10.6-.5-32-.5-33.5,18.1-1.3,52.9-.2,52.9-.2v45.3c0,9.8,1,32.2,0,42.6Z"/>
        <path class="st0" d="M689.6,359.1h0c1-10.4,0-32.8,0-42.6v-45.3s-34.8-1.1-52.9.2h0c18.1-1.4,53-.3,53-.3v45.3c0,9.8,1,32.3,0,42.7h0Z"/>
        <path class="st20" d="M699.9,369.8s-49,.8-74.2,0v-10.5c4.2.2,8.3.4,12.5.5,17,.3,34.4-.6,51.3-.6s6.9,0,10.3.1c0,0-.3,6.9,0,10.6h.1Z"/>
        <path class="st28" d="M822.9,359.1c-17,0-34.2.9-51.2.6-.6-18.1-.7-36.8-1.2-54.8,0-10.6-.5-32-.5-33.5,18.1-1.3,52.9-.2,52.9-.2v45.3c0,9.8.9,32.2,0,42.6Z"/>
        <path class="st0" d="M823,359.1h0c.9-10.4,0-32.8,0-42.6v-45.3s-34.8-1.1-52.9.2h0c18.1-1.4,53-.3,53-.3v45.3c0,9.8.9,32.3,0,42.7h0Z"/>
        <path class="st20" d="M833.3,369.8s-49,.8-74.2,0v-10.5c4.2.2,8.3.4,12.5.5,17,.3,34.4-.6,51.3-.6s6.9,0,10.3.1c0,0-.3,6.9,0,10.6h.1Z"/>
        <path class="st0" d="M823,500.7h0c.9-10.4,0-32.8,0-42.6v-45.3s-34.8-1.1-52.9.2h0c18.1-1.4,53-.3,53-.3v45.3c0,9.8.9,32.3,0,42.7h0Z"/>
        <path class="st20" d="M833.3,511.4s-49,.8-74.2,0v-10.5c4.2.2,8.3.4,12.5.5,17,.3,34.4-.6,51.3-.6s6.9,0,10.3,0c0,0-.3,6.9,0,10.6h.1Z"/>
        <path class="st20" d="M711.4,160.5s-85.2,1.3-126.4,0c.2-6.5.3-13,.3-19.5,41.7.7,84.1.3,126.2,0,0-14.6.2-24.4.2-24.4.2-1.5.5-3,.7-4.5,11.7-61.2,84.4-82.4,134.5-52.2,12,8.1,20.4,19.7,24.3,32.9,1.8,6,3.2,15,3.8,19.3.2,1.2.3,2.1.3,2.4.9,7.9,1.2,16.9,1.2,26.6,42,0,81.8-.1,125.2-.1v19.4l.2.3h0c-39.7-.6-84.5.2-125.4.2-.5,20.1-1.4,41.6-1,60.7,1.7,51.6-.5,148-.5,148h-30.2s-.9-44.5-.9-61.7c.2-25.5,2.6-51,3.7-76.4.4-23.6.6-47.2,0-70.8,0-6.2-.3-12.4-.6-18.6-1.2-13.4-4.3-28.7-14.1-38.4-16-15.8-42.1-20-62.6-11.3-14.5,7.9-27.6,44.9-28.4,68.9l-30.4-.8h0Z"/>
        <path class="st20" d="M830,119.4h0l-3.6,3.1-2.7,2.2c-2.5-2.5-5.4-4.5-8.4-6-1.6-.8-3.2-1.4-4.8-2h-.3c-10.9-3.5-23.4-1.7-33.5,4.2h0c-2.4,1.4-4.6,3.1-6.6,4.8h0l-4.8-6.7c8.4-7.8,19.5-12.7,30.6-13.7h7.5c7.6.6,15,3.3,21.1,8.3,2,1.6,3.9,3.5,5.6,5.7h0Z"/>
        <path class="st28" d="M815.1,174.8h-38.6c-.5-15,1.4-33,.5-48.5,0-1.2-.2-2.3-.3-3.5,0-.6,0-1.2-.2-1.8h0c10.1-5.9,22.6-7.6,33.5-4.2h.3c1.6.5,3.2,1.2,4.7,2,2.5,17.2-.2,38.6,0,56h0Z"/>
        <path class="st0" d="M810.1,116.7c-10.9-3.5-23.4-1.7-33.5,4.2h0c10.1-5.9,22.6-7.7,33.6-4.2h0Z"/>
        <path class="st20" d="M823.8,174.8v8.3c-1.5-.1-3.1-.2-4.6-.3h-10c-13.1-.2-25.7.6-39.3.6h0v-8.3h54v-.3h-.1Z"/>
        <path class="st20" d="M827.5,773.9c-1.3,0-2.6,0-3.9-.2-4.3-.2-8.3-.5-11.7-.8-3.5-.3-7.7-.6-12.4-.7h-11.1c-7.8,0-16.3.2-24.5.4h-5.4c-.4-28.2-.2-60.8.2-88.9-.2-22.7-2.4-48.1,24-56.7,11.8-3.7,26.7-3,36,6,10.1,11.7,8.4,26.5,8.9,40.9,1.1,30.9,0,68.7,0,99.8v.2h0Z"/>
        <path class="st21" d="M935.7,772.4h-32.5c0-9,.4-24.6.4-24.6,9.3-.5,21.9-.5,31.5-.5,0,0,.3,17.3.5,25.1h0Z"/>
        <path class="st21" d="M679.5,773.5c-10.8,0-21.6.2-32.5.2,0-9,.4-25.9.4-25.9,9.3-.5,21.9-.5,31.5-.5,0,0,.3,18.4.5,26.2h0Z"/>
        <path class="st20" d="M950.3,224.4v7.3h-63.9v-7.2c1.7,0,3.5,0,5.5-.2,6.1-.1,13.4-.2,20.6-.2,12,0,24.1.1,31.3.2,4,0,6.5.1,6.5.1h0Z"/>
        <path class="st28" d="M689.1,224.3c-7.2,0-19.2-.2-31.3-.2s-14.5,0-20.6.2v-39.8h51.9c.3,2.1.5,4.3.7,6.5.7,10.9-.6,22.8-.7,33.3h0Z"/>
        <path class="st0" d="M689.1,224.3h0c-11.5,0-35.7-.4-51.9.1h0c6.1-.2,13.4-.3,20.6-.3,12,0,24.1.1,31.3.2h0Z"/>
        <path class="st20" d="M695.6,224.4v7.3h-63.9v-7.2c1.7,0,3.5,0,5.5-.2,6.1-.1,13.4-.2,20.6-.2,12,0,24.1.1,31.3.2,4,0,6.5.1,6.5.1h0Z"/>
        <path class="st9" d="M1000.4,700.9v-8.2c1-51.6,3.7-97.8.6-158.7v.3h0c-.3-10.6-.6-21.3-.7-31.9v-10.7c-1-78.6,1.3-156.7.9-235.8.3-22.1.6-53.4.7-81.3v-14h-6.5c-5.6,0-11.2-.1-16.9-.1h-3.4c-32.4,0-126.9.3-126.9.3,0-6.2-.3-12.4-.6-18.6-1.2-13.4-4.3-28.7-14.1-38.4-16-15.8-42.1-20-62.6-11.3-24.1,9.5-30.6,68.2-30.6,68.2,0,0-28.1,1.3-28.1.1-42,.2-85.2,1.3-126.4,0v1c0,4.5-.2,8.8-.4,13.2-.3,11.5-.7,22.7-.9,34.3-.4,70.2,4.7,139.3.9,209.8-.5,9-.7,18-.8,27v16.9c.2,16.3.8,32.7,1,49v21.8c0,3.9,0,7.8-.3,11.8,0,19.8.3,40,0,59.9-.7,27.8-2.4,56.3,0,84.1,1.3,27.6,0,56.9,0,84.6,20.6,0,41.5-.2,62.4-.3h0c0-8.4.4-23.8.4-25.7v-.2c9.3-.5,21.9-.5,31.5-.5,0,0,.3,18.4.5,26.2,23.7-.2,47-.4,69.2-.6,3.1,0,6.4-.2,9.8-.3-.4-28.2-.2-60.7.2-88.7v-23.4c0-.6,0-1.2.2-1.7,0-.6,0-1.2.2-1.7v-.9c1.8-13,7.4-24.3,23.2-29.4,11.8-3.7,26.7-3,36,6,5.4,6.3,7.4,13.4,8.2,21,0,.9.2,1.8.2,2.6v37.7c.3,26.2-.4,54.9-.4,79.5,15.9.6,35.5.3,50.5-1,7.9-.2,16.5-.4,25.1-.5h.2c0-8.2.3-21.7.4-24.2v-.4c9.3-.5,21.9-.5,31.5-.5,0,0,.3,17.3.5,25.1,14.7,0,28.3.3,38.8.5h26.5c-1-26.1-1.1-49.5-.7-71.6l.4-.3h.3ZM631.7,231.7v-7.2c1.7,0,3.5,0,5.5-.2v-39.9h51.9c.2,1.1.3,2.2.4,3.3,0,1.1.2,2.2.3,3.3.7,10.9-.6,22.8-.7,33.3h0c4,.1,6.5.2,6.5.2v7.2h-63.9ZM699.9,729.1h-38.3c-12.7,0-26.2,0-36-.3v-10.5c4.2.2,8.3.4,12.5.5-.6-18.1-.8-36.8-1.2-54.8,0-11-.5-33.6-.5-33.6h0c18.1-1.3,52.9,0,52.9,0v45.3c0,9.7,1,31.9,0,42.4h0v.3h10.3v8.4c0,.2,0,0,0,0v.5h0v1.3h0l.2.4h0ZM699.9,369.9h0c-.4-.1-2.1-.1-4.8-.1h-33.4c-12.7,0-26.2,0-36-.4v-10.5c4.2.2,8.3.4,12.5.5-.6-18.1-.8-36.8-1.2-54.8,0-11-.5-33.6-.5-33.6h0c18.1-1.3,52.9-.2,52.9-.2v45.3c0,9.8,1,32.2,0,42.6h0c2.1.1,3.8.1,5.2.1h5.1v10.5h0l.2.6ZM815.2,174.8h8.7v8.3h0c-1.5-.1-3.1-.2-4.6-.3h-10c-13.1-.2-25.7.6-39.3.6v-8.3h6.6c-.5-15,1.4-33,.5-48.5,0-1.2-.2-2.3-.3-3.5,0-.6,0-1.2-.2-1.8h0c-2.4,1.4-4.7,3.1-6.6,4.8h0l-4.8-6.7c6.1-5.6,13.5-9.8,21.4-12,.7-.2,1.4-.4,2-.5.3,0,.7-.2,1-.2s.7-.2,1-.2c.7,0,1.4-.3,2.1-.4.7,0,1.4-.2,2.1-.3h8.5c7.6.7,15,3.3,21.1,8.4,2,1.6,3.8,3.5,5.5,5.6h0l-3.6,3.1-2.7,2.2c-2.5-2.5-5.4-4.5-8.4-6,2.5,17.2-.2,38.6,0,56v-.3ZM833.3,369.9h0c-.4-.1-2.2-.1-4.8-.1h-33.2c-12.7,0-26.2,0-36-.4v-10.5c4.2.2,8.3.4,12.5.5-.6-18.1-.7-36.8-1.2-54.8,0-11-.5-33.6-.5-33.6h0c18.1-1.3,52.9-.2,52.9-.2v45.3c0,9.8.9,32.2,0,42.6h0c2.1.1,3.8.1,5.1.1h5.2v10.5h0v.6ZM886.4,231.7v-7.2c1.7,0,3.5,0,5.5-.2v-39.9h51.9c0,.6.2,1.1.2,1.7s0,1.1.2,1.6c0,1.1.2,2.2.3,3.3.2,2.8.2,5.7.2,8.7v1.4c0,1.8,0,3.7-.2,5.5v3c0,1.7-.2,3.4-.2,5.1v9.6h0c4,.1,6.5.2,6.5.2v7.2h-64.4ZM880.5,358.9h.2c4.2,0,8.3.3,12.5.4-.6-18.1-.8-36.8-1.3-54.8,0-11-.5-33.6-.5-33.6h0c18.1-1.3,52.9-.2,52.9-.2v45.3c0,9.8,1,32.2,0,42.6h0c2.1.1,3.8.1,5.1.1h5.1s-.3,6.8,0,10.5h0s-49,.8-74.2,0v-10.5l.2.2ZM956.2,718.7v8.3c0,.2,0,0,0,0v.5h0v1.3h-24.5c-16,0-36.2,0-49.7-.3v-10.5c4.2.2,8.3.4,12.6.5h0c-.6-18.2-.8-36.9-1.2-54.9v-33.4c18.1-1.3,53,0,53,0v51.1h0v2.6c0,3.6.2,7.6.2,11.7v13.1h0v6.5c0,1,0,1.9-.2,2.7v.2h10.3l-.4.5h0Z"/>
        <path class="st28" d="M944.5,500.3c-17,0-34.3.9-51.3.6-.5-17.8-.7-37.1-1.2-54.8,0-11-.5-33.6-.5-33.6,18.1-1.3,53-.2,53-.2v45.3c0,9.8,1,32.3,0,42.7h0Z"/>
        <path class="st28" d="M689.5,500.3c-17,0-34.2.9-51.2.6-.6-18.1-.8-36.8-1.2-54.8,0-10.6-.5-31.9-.5-33.5,18.1-1.3,52.9-.2,52.9-.2v45.3c0,9.8,1,32.2,0,42.6h0Z"/>
        <path class="st28" d="M824,501.8c-17,0-34.2.9-51.2.6-.6-18.1-.7-36.8-1.2-54.8,0-10.6-.5-32-.5-33.5,18.1-1.3,52.9-.2,52.9-.2v45.3c0,9.8.9,32.2,0,42.6h0Z"/>
      </g>
    </g>
    <g>
      <path class="st17" d="M1600,225v-45.1c-26.2,0-63.6-.1-101.8-.3h-19.4l-103.3-.3c-1.7,84.4-3.8,174-.5,257.5,2.8,74.5-1.3,151.1-1.8,225.6-.6,45.3,0,63.3,0,109.5,27.4.2,57.1.7,82.7,0,45.8-.8,98.6-1.5,144.2,0v-220.8c-7.5.2-54.8,1.4-79,0v-8.5h4.3c0-20.1.4-41.1.4-62.1s0-22.6-.5-33.7c-.3-8.3-.7-16.6-1.3-24.7h0c-4.7-3.4-14.5-11.5-14.5-11.5,14.9-6.4,48.5-21,48.5-21,12.1,6.4,32.9,15.2,42.2,19.1v-41c-7.5.2-54.8,1.4-79,0v-8.5h4.3c0-20.2.4-41.2.4-62.3s0-22.5-.5-33.6c-.3-8.4-.7-16.6-1.3-24.7h0c-4.7-3.4-14.5-11.5-14.5-11.5,14.9-6.4,48.5-21,48.5-21,12.1,6.4,32.9,15.2,42.2,19.1l-.3-.2h0ZM1405.3,724.2c.2-30.7.4-60.7,0-91.3h57.7l1,91.3h-58.7ZM1469.4,543.1c3,0,5.9,0,8.9-.3,0,0-.3,4.5,0,8.2,0,0-53.7,1.6-80,0v-8.5h4.3c0-20.2.4-41.2.4-62.2s0-22.5-.5-33.6c-.3-8.3-.7-16.6-1.4-24.7h0c-4.7-3.4-14.5-11.5-14.5-11.5,14.9-6.4,48.5-21,48.5-21,15.9,8.4,46.9,21,46.9,21-4.2,3-8.4,8.6-12.6,11.5,0,8.1,0,16.4-.2,24.7,0,11.2,0,22.4-.2,33.7,0,21.1,0,42.2.4,62.7h0ZM1469.4,238.4c0,8.1,0,16.4-.2,24.7,0,11.1,0,22.4-.2,33.7,0,21.1,0,42.3.4,62.8,3,0,5.9-.1,8.9-.3,0,0-.3,4.5,0,8.2,0,0-53.7,1.6-80,0v-8.5h4.3c0-20.2.4-41.2.4-62.3s0-22.5-.5-33.6c-.3-8.3-.7-16.6-1.4-24.7h0c-4.7-3.4-14.5-11.5-14.5-11.5,14.9-6.4,48.5-21,48.5-21,15.9,8.4,46.9,21,46.9,21-4.2,3-8.4,8.6-12.6,11.5h0ZM1523.7,632.9h57.7l1,91.3h-58.7c.2-30.7.4-60.7,0-91.3Z"/>
      <g>
        <path class="st10" d="M1478.8,179.6l-103.3-.3c26.1,0,64.2.1,103.3.3Z"/>
        <path class="st10" d="M1602,179.9h-2c-26.2,0-63.6-.1-101.8-.3l101.8.3h2Z"/>
        <path class="st10" d="M1601,163.3h-1c-57,.7-167.9,1.7-224.3.8h-.9.9l224.3-.8h1Z"/>
        <path class="st16" d="M1469.4,238.4c0,8.1,0,16.4-.2,24.7-20.3,0-46.3.2-66.7,0-.3-8.3-.7-16.6-1.4-24.7h68.3,0Z"/>
        <path class="st10" d="M1469.4,359.6c-22.3.5-44.4-.6-66.8-.6,0-20.2.4-41.2.4-62.3s0-22.5-.5-33.6c20.4.2,46.4,0,66.7,0,0,11.1,0,22.4-.2,33.7,0,21.1,0,42.3.4,62.8Z"/>
        <path class="st27" d="M1478.3,367.5s-53.7,1.6-80,0v-8.5h4.3c22.3,0,44.5,1.1,66.8.6,3,0,5.9-.1,8.9-.3,0,0-.3,4.5,0,8.2h0Z"/>
        <path id="STROKE_4f74d24c-f29a-43fa-8a18-a9dd637dc18a" class="st10" d="M1435.2,263.7c.3,15.1-1,28.6,0,43.5.8,18.2,0,34,0,51.7v-95.2Z"/>
        <path class="st10" d="M1464,724.2h-58.7c.2-30.7.4-60.7,0-91.3h57.7l1,91.3Z"/>
        <path class="st10" d="M1582.4,724.2h-58.7c.2-30.7.4-60.7,0-91.3h57.7l1,91.3Z"/>
        <path class="st27" d="M1482,226.9c-4.2,3-8.4,8.6-12.6,11.5h-68.3c-4.7-3.4-14.5-11.5-14.5-11.5,14.9-6.4,48.5-21,48.5-21,15.9,8.4,46.9,21,46.9,21Z"/>
        <path class="st16" d="M1469.4,422c0,8.1,0,16.4-.2,24.7-20.3.1-46.3.2-66.7,0-.3-8.3-.7-16.6-1.4-24.7h68.3,0Z"/>
        <path class="st10" d="M1469.4,543.1c-22.3.5-44.4-.6-66.8-.6,0-20.2.4-41.2.4-62.2s0-22.5-.5-33.6c20.4.2,46.4.1,66.7,0,0,11.2,0,22.4-.2,33.7,0,21.1,0,42.2.4,62.7Z"/>
        <path class="st27" d="M1478.3,551s-53.7,1.6-80,0v-8.5h4.3c22.3,0,44.5,1.1,66.8.6,3,0,5.9,0,8.9-.3,0,0-.3,4.5,0,8.2h0Z"/>
        <path id="STROKE_4f74d24c-f29a-43fa-8a18-a9dd637dc18a1" class="st16" d="M1435.2,447.2c.3,15.1-1,28.6,0,43.5.8,18.2,0,34,0,51.7v-95.2Z"/>
        <path class="st27" d="M1482,410.5c-4.2,3-8.4,8.6-12.6,11.5h-68.3c-4.7-3.4-14.5-11.5-14.5-11.5,14.9-6.4,48.5-21,48.5-21,15.9,8.4,46.9,21,46.9,21Z"/>
        <path class="st16" d="M1592.1,238.4c0,8.2,0,16.4-.2,24.7-20.2,0-46.6.2-66.7,0-.3-8.4-.7-16.6-1.3-24.7h68.2Z"/>
        <path class="st10" d="M1592.1,359.6c-22.3.5-44.4-.6-66.8-.6,0-20.2.4-41.2.4-62.3s0-22.5-.5-33.6c20.1.2,46.5,0,66.7,0,0,11.1,0,22.4-.2,33.6,0,21.1,0,42.3.4,62.8h0Z"/>
        <path class="st27" d="M1601,367.5h-1c-7.5.2-54.8,1.4-79,0v-8.5h4.3c22.3,0,44.5,1.1,66.8.6,2.6,0,5.3-.1,7.9-.2h1s-.3,4.5,0,8.2h0Z"/>
        <path id="STROKE_4f74d24c-f29a-43fa-8a18-a9dd637dc18a2" class="st10" d="M1557.9,263.7c.3,15.1-1,28.6,0,43.5.8,18.2,0,34,0,51.7v-95.2Z"/>
        <path class="st27" d="M1604.7,226.9c-1.6,1.1-3.1,2.6-4.7,4.2-2.6,2.6-5.3,5.5-7.9,7.3h-68.3c-4.7-3.4-14.5-11.5-14.5-11.5,14.9-6.4,48.5-21,48.5-21,12.1,6.4,32.9,15.2,42.2,19.1,2.9,1.2,4.7,1.9,4.7,1.9h0Z"/>
        <path class="st16" d="M1592.1,422c0,8.1,0,16.4-.2,24.7-20.3.1-46.3.2-66.7,0-.3-8.3-.7-16.6-1.3-24.7h68.2Z"/>
        <path class="st27" d="M1601,551h-1c-7.5.2-54.8,1.4-79,0v-8.5h4.3c22.3,0,44.5,1.1,66.8.6,2.6,0,5.3,0,7.9-.2h1s-.3,4.5,0,8.2h0Z"/>
        <path id="STROKE_4f74d24c-f29a-43fa-8a18-a9dd637dc18a3" class="st10" d="M1557.9,447.2c.3,15.1-1,28.6,0,43.5.8,18.2,0,34,0,51.7v-95.2Z"/>
        <path class="st10" d="M1592.1,543.1c-22.3.5-44.4-.6-66.8-.6,0-20.1.4-41.1.4-62.1s0-22.6-.5-33.7c20.4.2,46.4,0,66.7,0,0,11.2,0,22.4-.2,33.7,0,21.1,0,42.2.4,62.7Z"/>
        <path class="st27" d="M1604.7,410.5c-1.6,1.1-3.1,2.6-4.7,4.2-2.6,2.6-5.3,5.5-7.9,7.3h-68.3c-4.7-3.4-14.5-11.5-14.5-11.5,14.9-6.4,48.5-21,48.5-21,12.1,6.4,32.9,15.2,42.2,19.1,2.9,1.2,4.7,1.9,4.7,1.9h0Z"/>
      </g>
      <path class="st12" d="M1600,163.3v16.6l-101.8-.3h-19.4c-39.1-.1-77.3-.3-103.3-.3,0-5.1.2-10.2.3-15.2,56.4.9,167.3-.1,224.3-.8h0Z"/>
      <path class="st17" d="M1600,231.1v128.3c-2.6,0-5.3.2-7.9.2-.4-20.5-.4-41.7-.4-62.8s0-22.5.2-33.6c0-8.3,0-16.6.2-24.7,2.6-1.8,5.3-4.7,7.9-7.3h0Z"/>
      <path class="st17" d="M1600,414.7v128.2c-2.7,0-5.3.2-7.9.2-.4-20.5-.4-41.6-.4-62.7s0-22.5.2-33.7c0-8.3,0-16.6.2-24.7,2.6-1.8,5.3-4.7,7.9-7.3h0Z"/>
    </g>
    <g>
      <g>
        <path class="st30" d="M199.2,771.2h-64.4c-1.4-37.8-.3-121.1-.3-121.1,21.7.2,64.4-.8,64.4-.8-.5,26.2,1.2,52.6-.7,78.7-.3,11.7,1.6,31.1,1,43.1h0Z"/>
        <path class="st24" d="M235.1,110.4h0c-1.2,0-49.2.2-71.9,0-31.3-.2-63.1-.8-94.5,0-36,.7-34.1.3-68.7,0v-25.8l218.4.7c5.9,6.8,11.3,17.8,16.7,25.1h0Z"/>
      </g>
      <path class="st10" d="M196.5,537.6c-13.8.4-30.5.4-43.4-.2-6.5-.2-18.6,0-27.2,0,.8-8.8.3-30,0-38.7-1.2-21,.6-42.2,0-63.2h70.6c0,24.8-.3,68.3,0,102.1h0Z"/>
      <path class="st10" d="M86,537.6c-13.8.4-30.5.4-43.4-.2-6.5-.2-18.6,0-27.2,0,.8-8.8.3-30,0-38.7-1.2-21,.6-42.2,0-63.2h70.6c0,24.8-.3,68.3,0,102.1h0Z"/>
      <path class="st10" d="M86,351.1h-35.7c-10.8.2-23.2-.6-34.5-.3-.4-18.3-.6-38.6,0-57.1-.9-19.2-.2-38.2,0-57.4,0,0,46.9-2.5,70.2,0,1.1,20.3-.4,42.5-.3,62.9-.6,16.5.3,36,.3,51.9Z"/>
      <path class="st10" d="M196.5,351.1h-35.7c-10.8.2-23.2-.6-34.4-.3-.4-18.3-.6-38.6,0-57.1-.9-19.2-.2-38.2,0-57.4,2.4-.1,47.4-2.4,70.1,0,1.1,20.3-.4,42.5-.3,62.9-.6,16.5.3,36,.3,51.9Z"/>
      <path class="st10" d="M179.5,151.4c-.5,10.4-.2,21.3-.5,31.8l-32.1.4c.5-10.5,0-21.7-.7-32.2h33.3Z"/>
      <path class="st10" d="M69,150.2c-.5,10.5-.2,22.6-.5,33l-32.1.4c.5-10.5,0-22.9-.7-33.4h33.3Z"/>
      <path class="st30" d="M203,227.6l-6.5,8.7c-22.7-2.4-67.7-.1-70.1,0h0c-1.7-2.5-6.5-8.7-6.5-8.9,22.7-21.3,59.8-18.9,83.2.2h-.1Z"/>
      <path class="st30" d="M92.5,227.6l-6.5,8.7c-23.3-2.5-70.2,0-70.2,0-1.7-2.5-6.5-8.7-6.5-8.9,22.7-21.3,59.8-18.9,83.2.2Z"/>
      <path class="st30" d="M92.6,351.2v7.4c-26.3-1.4-56.9,1.5-83.2,0v-7.6c2.1-.2,4.2-.3,6.4-.3,11.3-.3,23.7.6,34.5.3h42.3s0,.2,0,.2Z"/>
      <path class="st30" d="M203.1,351.2v7.4c-26.3-1.4-56.9,1.5-83.2,0v-7.6c2.1-.2,4.3-.3,6.5-.3,11.2-.3,23.6.6,34.4.3h42.3v.2h0Z"/>
      <path class="st30" d="M202.9,537.4v8.6c-23.6.4-61.6,1.4-83.1,0v-8.6h33.3c12.8.6,29.6.5,43.4.2,2.2,0,4.4,0,6.4-.2Z"/>
      <path class="st30" d="M92.4,537.4v8.6c-23.6.4-61.6,1.4-83.1,0v-8.6h33.3c12.8.6,29.6.5,43.4.2,2.2,0,4.4,0,6.4-.2Z"/>
      <path class="st19" d="M235.7,580.7c0-2.3-.1-4.6-.2-7-.1-4.2-.2-8.4-.4-12.5-.6-47.4.9-91.7,0-139.1-1.3-34.3,1.1-69.1,0-103.4-1.5-31.6.5-61.6,0-93.3-1.3-39.7-.1-77.5,0-115-1.2,0-49.2.2-71.9,0-31.3-.2-63.1-.8-94.5,0-36,.7-34.1.3-68.7,0v661.5c41-.2,87.6-.5,134.8-.6-1.4-37.8-.3-121.1-.3-121.1,21.7.2,64.4-.8,64.4-.8-.5,26.2,1.2,52.6-.7,78.7-.3,11.7,1.6,31.1,1,43.1h35.9c1.4-61.9,2.2-127.8.6-190.5h0ZM69,150.2c-.5,10.5-.2,22.6-.5,33l-32.1.4c.5-10.5,0-22.9-.7-33.4h33.3ZM92.4,546c-23.6.4-61.6,1.4-83.1,0v-8.6h6.1c.8-8.8.3-30,0-38.7-1.2-21,.6-42.2,0-63.2h70.6c0,24.8-.3,68.3,0,102.1,2.2,0,4.4,0,6.4-.2v8.6h0ZM92.6,358.6c-26.3-1.4-56.9,1.5-83.2,0v-7.6c2.1-.2,4.2-.3,6.4-.3-.4-18.3-.6-38.6,0-57.1-.9-19.2-.2-38.2,0-57.4-1.7-2.5-6.5-8.7-6.5-8.9,22.7-21.3,59.8-18.9,83.2.2l-6.5,8.7c1.1,20.3-.4,42.5-.3,62.9-.6,16.5.3,36,.3,51.9h6.6v7.5h0ZM179.5,151.4c-.5,10.4-.2,21.3-.5,31.8l-32.1.4c.5-10.5,0-21.7-.7-32.2h33.3ZM202.9,546c-23.6.4-61.6,1.4-83.1,0v-8.6h6.1c.8-8.8.3-30,0-38.7-1.2-21,.6-42.2,0-63.2h70.6c0,24.8-.3,68.3,0,102.1,2.2,0,4.4,0,6.4-.2v8.6h0ZM203.1,358.6c-26.3-1.4-56.9,1.5-83.2,0v-7.6c2.1-.2,4.3-.3,6.5-.3-.4-18.3-.6-38.6,0-57.1-.9-19.2-.2-38.2,0-57.4h0c-1.7-2.5-6.5-8.7-6.5-8.9,22.7-21.3,59.8-18.9,83.2.2l-6.5,8.7c1.1,20.3-.4,42.5-.3,62.9-.6,16.5.3,36,.3,51.9h6.6v7.5h-.1Z"/>
    </g>
  </g>
  <g id="Ebene_21">
    <g id="Ebene_111">
      <path id="STROKE_c2a82459-f49e-4ca0-b18c-2dbf3e94bd42" class="st2" d="M235.1,104.9c0,39.6-1.4,79.5,0,121.5.5,31.7-1.5,61.7,0,93.3,1.1,34.3-1.3,69.1,0,103.4.9,47.4-.6,91.7,0,139.1,2.3,68.5,1.6,140.9,0,209.3"/>
      <path id="STROKE_9e30e739-a8bf-477b-bf1e-a00587f779aa" class="st2" d="M584.5,104.9c1.9,34-.2,69.9-.9,104.3-.4,70.2,4.7,139.3.9,209.8-2.3,42,1.5,84.5,0,126.4,0,19.8.3,40,0,59.9-.7,27.8-2.4,56.3,0,84.1,1.3,27.9,0,56.4,0,84.3"/>
      <path id="STROKE_1807cf41-4dba-4c47-a1a4-ba3d120427bd" class="st2" d="M1600,772.9c-46.1-1.5-97.7-.8-144.2,0-34.2,1-75.8-.3-109.5,0-30.4,0-53.3.6-84.8,0-65.7-1.6-124.9-.2-190.4,0-12.7,0-32.1.4-42.9,0-13.5-.5-40.3.3-53.7,0-24.1-.5-64.5-.9-96.6,0-20.6,1.8-49.6,1.6-66.1,0-14.6-1.4-42-.7-63.2,0-108.1,1-241.6,1.9-322.2.5-102.3-1.8-290.8-1.3-426.5-.5"/>
      <g>
        <path id="STROKE_a48a57aa-e051-4ac2-97bb-aad347b97e09" class="st2" d="M68.5,183.2c.3-10.4,0-21.5.5-32h-33.3c.7,10.5,1.2,21.9.7,32.4l32.1-.4h0Z"/>
        <path id="STROKE_d5be5d9f-a1ce-4de3-b0ea-d5d395cec6fd" class="st2" d="M86,237.3c-23.3-2.5-70.2,0-70.2,0-1.7-2.5-6.6-8.8-6.5-8.9,22.7-21.3,59.8-18.9,83.2.2l-6.5,8.7Z"/>
        <path id="STROKE_68f9a7c3-76a4-45ab-89c3-992ab7e461ff" class="st2" d="M15.8,237.3c-.2,19.2-.9,38.2,0,57.4-.6,18.6-.4,38,0,56.4"/>
        <path id="STROKE_edbcc855-1b9d-4122-996f-989072e55f83" class="st2" d="M86,237.3c1.1,20.3-.4,42.5-.3,62.9-.6,16.8.3,35.8.3,51.9"/>
        <path id="STROKE_efd90eed-bb24-45ac-b9d4-fd77e97992b6" class="st2" d="M92.5,352.1h-42.2c-12.9.3-28.1-1-40.9,0v7.6c26.3,1.4,56.9-1.5,83.2-.1v-7.4h0Z"/>
        <path id="STROKE_1c1c2c0a-e94c-43ff-8261-7c09be0456f2" class="st2" d="M16.5,258.1c22.3,1.6,57.9-.5,69.4,0"/>
        <path id="STROKE_b1ba1cc7-e1cc-4ca4-92c9-3d77eaa4b1f3" class="st2" d="M51.8,259.1c0,15.5-.8,61.7,0,92.5"/>
        <path id="STROKE_08fa4cc1-e506-41d7-b102-f37aff8033f5" class="st2" d="M86,538.5c-.3-33.9,0-77,0-102H15.4c.6,21-1.2,42.2,0,63.2.3,8.7.8,30.1,0,38.8"/>
        <path id="STROKE_9e1a2c7c-2ffb-4329-abbf-809e02860ff7" class="st2" d="M92.5,547c-23.6.4-61.7,1.4-83.2,0v-8.6c7.4,0,25-.2,33.3,0,14.9.7,35,.5,49.8,0v8.6h0Z"/>
        <path id="STROKE_3d39f5dc-e13d-49e3-b9c9-9cef88a3437a" class="st2" d="M51.8,436.5c-1.6,19.3-.6,40.1,0,59.5.4,14.2,0,42.4,0,42.4"/>
        <path id="STROKE_eedab201-0009-4da9-a35b-dcbe076776a61" class="st2" d="M179,183.2c.3-10.5,0-20.4.5-30.8h-33.3c.8,10.5,1.2,20.7.7,31.2l32.1-.4Z"/>
        <path id="STROKE_d5be5d9f-a1ce-4de3-b0ea-d5d395cec6fd1" class="st2" d="M196.5,237.3c-23.3-2.5-70.2,0-70.2,0-1.7-2.5-6.6-8.8-6.5-8.9,22.7-21.3,59.8-18.9,83.2.2l-6.5,8.7Z"/>
        <path id="STROKE_68f9a7c3-76a4-45ab-89c3-992ab7e461ff1" class="st2" d="M126.4,237.3c-.2,19.2-.9,38.2,0,57.4-.6,18.6-.4,38,0,56.4"/>
        <path id="STROKE_edbcc855-1b9d-4122-996f-989072e55f831" class="st2" d="M196.5,237.3c1.1,20.3-.4,42.5-.3,62.9-.6,16.8.3,35.8.3,51.9"/>
        <path id="STROKE_efd90eed-bb24-45ac-b9d4-fd77e97992b61" class="st2" d="M203,352.1h-42.2c-12.9.3-28.1-1-40.9,0v7.6c26.3,1.4,56.9-1.5,83.2-.1v-7.4h-.1Z"/>
        <path id="STROKE_1c1c2c0a-e94c-43ff-8261-7c09be0456f21" class="st2" d="M127.1,258.1c22.3,1.6,57.9-.5,69.4,0"/>
        <path id="STROKE_b1ba1cc7-e1cc-4ca4-92c9-3d77eaa4b1f31" class="st2" d="M162.3,259.1c0,15.5-.8,61.7,0,92.5"/>
        <path id="STROKE_08fa4cc1-e506-41d7-b102-f37aff8033f51" class="st2" d="M196.5,538.5c-.3-33.9,0-77,0-102h-70.6c.6,21-1.2,42.2,0,63.2.3,8.7.8,30.1,0,38.8"/>
        <path id="STROKE_9e1a2c7c-2ffb-4329-abbf-809e02860ff71" class="st2" d="M203,547c-23.6.4-61.7,1.4-83.2,0v-8.6c7.4,0,25-.2,33.3,0,14.9.7,35,.5,49.8,0v8.6h0Z"/>
        <path id="STROKE_3d39f5dc-e13d-49e3-b9c9-9cef88a3437a1" class="st2" d="M162.3,436.5c-1.6,19.3-.6,40.1,0,59.5.4,14.2,0,42.4,0,42.4"/>
        <path id="STROKE_7a94a258-f3b4-4638-aeae-3dfb7d1ffefb" class="st2" d="M134.8,771.5c-1.4-37.7-.3-120.3-.3-120.3,21.7.2,64.4-.8,64.4-.8-.5,26.2,1.2,52.6-.7,78.7-.3,12,1.7,31.2,1,43.1"/>
        <path id="STROKE_92a15781-da11-487e-b88e-950ceda7b0a7" class="st2" d="M0,85.6l218.4.7c5.9,6.8,11.3,17.8,16.7,25.1,0,0-48.9.2-71.9,0-31.3-.2-63.1-.8-94.5,0C32,112.1,36.7,111.7,0,111.4"/>
      </g>
      <path id="STROKE_b7c70048-db21-4e9e-92de-4197fed69b92" class="st2" d="M1375.8,160.7c-1.8,90-4.4,187.1-.9,277.1,2.8,74.5-1.3,151.1-1.8,225.6-.6,46,0,61.8,0,109.5"/>
      <g>
        <path id="STROKE_04200493-7af7-4f23-be2b-b513c1328e69" class="st2" d="M1376.4,180.3c56.5,0,166.6.6,223.6.6"/>
        <path id="STROKE_48251661-ced7-438b-bd0f-0bca748d5572" class="st2" d="M1375.8,165.1c56.4.9,167.2-.1,224.2-.8"/>
        <path id="STROKE_d6e5ae91-4100-4264-aeb9-84e6a695d71b" class="st2" d="M1401.2,239.4c3.1,39.3,1.3,81.1,1.4,120.5"/>
        <path id="STROKE_0a4b8540-d4d4-48e7-a843-29fadd6bd0f0" class="st2" d="M1469.4,239.4c-.3,39.7-.7,80.8,0,120.5"/>
        <path id="STROKE_f534b01c-1d6a-4640-b3e2-41cbc6ab2b7e" class="st2" d="M1398.3,368.5c26.3,1.6,80,0,80,0-.3-3.7,0-8.2,0-8.2-26.8,1.1-53.2-.5-80-.3v8.6h0Z"/>
        <path id="STROKE_27235b7e-079e-4f23-9d46-94a35c4947b2" class="st2" d="M1468.6,264.1c-20.6.1-45.2.2-65.8,0"/>
        <path id="STROKE_4f74d24c-f29a-43fa-8a18-a9dd637dc18a11" class="st2" d="M1435.2,264.7c.3,15.1-1,28.6,0,43.5.8,18.2,0,34,0,51.7"/>
        <path id="STROKE_6ac6c9ba-e5c0-4478-9fd0-1762c1ce7415" class="st2" d="M1469.2,297.8c-13.5-.5-57.7-.8-66.2,0"/>
        <path id="STROKE_1175de42-d731-40b5-8b4d-1f90a7f021c1" class="st2" d="M1434.1,633.9v91.3"/>
        <path id="STROKE_66276157-a4a1-4f66-b4a7-cb01edbb22e0" class="st2" d="M1405.3,725.2c.2-30.7.4-60.7,0-91.3h57.7l1,91.3h-57.7"/>
        <path id="STROKE_1175de42-d731-40b5-8b4d-1f90a7f021c11" class="st2" d="M1552.5,633.9v91.3"/>
        <path id="STROKE_66276157-a4a1-4f66-b4a7-cb01edbb22e01" class="st2" d="M1523.7,725.2c.2-30.7.4-60.7,0-91.3h57.7l1,91.3h-57.7"/>
        <path class="st2" d="M1469.4,239.4c4.2-2.9,8.4-8.5,12.6-11.5,0,0-31-12.6-46.9-21,0,0-33.6,14.6-48.5,21,0,0,9.8,8.1,14.5,11.5h68.3Z"/>
        <path id="STROKE_d6e5ae91-4100-4264-aeb9-84e6a695d71b1" class="st2" d="M1401.2,423c3.1,39.3,1.3,81.1,1.4,120.5"/>
        <path id="STROKE_0a4b8540-d4d4-48e7-a843-29fadd6bd0f01" class="st2" d="M1469.4,423c-.3,39.7-.7,80.8,0,120.5"/>
        <path id="STROKE_f534b01c-1d6a-4640-b3e2-41cbc6ab2b7e1" class="st2" d="M1398.3,552c26.3,1.6,80,0,80,0-.3-3.7,0-8.2,0-8.2-26.8,1.1-53.2-.5-80-.3v8.6h0Z"/>
        <path id="STROKE_27235b7e-079e-4f23-9d46-94a35c4947b21" class="st2" d="M1468.6,447.7c-20.6.1-45.2.2-65.8,0"/>
        <path id="STROKE_4f74d24c-f29a-43fa-8a18-a9dd637dc18a111" class="st2" d="M1435.2,448.2c.3,15.1-1,28.6,0,43.5.8,18.2,0,34,0,51.7"/>
        <path id="STROKE_6ac6c9ba-e5c0-4478-9fd0-1762c1ce74151" class="st2" d="M1469.2,481.4c-13.5-.5-57.7-.8-66.2,0"/>
        <path class="st2" d="M1469.4,423c4.2-2.9,8.4-8.5,12.6-11.5,0,0-31-12.6-46.9-21,0,0-33.6,14.6-48.5,21,0,0,9.8,8.1,14.5,11.5h68.3Z"/>
        <path id="STROKE_d6e5ae91-4100-4264-aeb9-84e6a695d71b2" class="st2" d="M1523.9,239.4c3.1,39.3,1.3,81.1,1.4,120.5"/>
        <path id="STROKE_0a4b8540-d4d4-48e7-a843-29fadd6bd0f02" class="st2" d="M1592.1,239.4c-.3,39.7-.7,80.8,0,120.5"/>
        <path id="STROKE_f534b01c-1d6a-4640-b3e2-41cbc6ab2b7e2" class="st2" d="M1521,368.5c26.3,1.6,80,0,80,0-.3-3.7,0-8.2,0-8.2-26.8,1.1-53.2-.5-80-.3v8.6h0Z"/>
        <path id="STROKE_27235b7e-079e-4f23-9d46-94a35c4947b22" class="st2" d="M1591.2,264.1c-20.6.1-45.2.2-65.8,0"/>
        <path id="STROKE_4f74d24c-f29a-43fa-8a18-a9dd637dc18a21" class="st2" d="M1557.9,264.7c.3,15.1-1,28.6,0,43.5.8,18.2,0,34,0,51.7"/>
        <path id="STROKE_6ac6c9ba-e5c0-4478-9fd0-1762c1ce74152" class="st2" d="M1591.9,297.8c-13.5-.5-57.7-.8-66.2,0"/>
        <path class="st2" d="M1592.1,239.4c4.2-2.9,8.4-8.5,12.6-11.5,0,0-31-12.6-46.9-21,0,0-33.6,14.6-48.5,21,0,0,9.8,8.1,14.5,11.5h68.3Z"/>
        <path id="STROKE_d6e5ae91-4100-4264-aeb9-84e6a695d71b3" class="st2" d="M1523.9,423c3.1,39.3,1.3,81.1,1.4,120.5"/>
        <path id="STROKE_0a4b8540-d4d4-48e7-a843-29fadd6bd0f03" class="st2" d="M1592.1,423c-.3,39.7-.7,80.8,0,120.5"/>
        <path id="STROKE_f534b01c-1d6a-4640-b3e2-41cbc6ab2b7e3" class="st2" d="M1521,552c26.3,1.6,80,0,80,0-.3-3.7,0-8.2,0-8.2-26.8,1.1-53.2-.5-80-.3v8.6h0Z"/>
        <path id="STROKE_27235b7e-079e-4f23-9d46-94a35c4947b23" class="st2" d="M1591.2,447.7c-20.6.1-45.2.2-65.8,0"/>
        <path id="STROKE_4f74d24c-f29a-43fa-8a18-a9dd637dc18a31" class="st2" d="M1557.9,448.2c.3,15.1-1,28.6,0,43.5.8,18.2,0,34,0,51.7"/>
        <path id="STROKE_6ac6c9ba-e5c0-4478-9fd0-1762c1ce74153" class="st2" d="M1591.9,481.4c-13.5-.5-57.7-.8-66.2,0"/>
        <path class="st2" d="M1592.1,423c4.2-2.9,8.4-8.5,12.6-11.5,0,0-31-12.6-46.9-21,0,0-33.6,14.6-48.5,21,0,0,9.8,8.1,14.5,11.5h68.3Z"/>
      </g>
      <g>
        <path id="STROKE_9ca5a4be-212d-4f12-9c2c-88d4bf9e5acd" class="st2" d="M1112.5,641.9v91.7h-59.8c1.2-30,0-91.7,0-91.7,20,1,39.5.3,59.8,0"/>
        <path id="STROKE_ac43fd21-1710-4e6a-8cfe-7652eeb95b7c" class="st2" d="M1112.5,674.2h-58.8"/>
        <path id="STROKE_896908af-8800-480c-9fb2-9564e68210e5" class="st2" d="M1082.8,674.7c0,19.3.6,58.9.6,58.9"/>
        <path id="STROKE_9ca5a4be-212d-4f12-9c2c-88d4bf9e5acd1" class="st2" d="M1348.5,641.9v91.7h-59.8c1.2-30,0-91.7,0-91.7,20,1,39.5.3,59.8,0"/>
        <path id="STROKE_ac43fd21-1710-4e6a-8cfe-7652eeb95b7c1" class="st2" d="M1348.5,674.2h-58.8"/>
        <path id="STROKE_896908af-8800-480c-9fb2-9564e68210e51" class="st2" d="M1318.8,674.7c0,19.3.6,58.9.6,58.9"/>
        <path id="STROKE_4d3eb8e5-fc88-49ec-a050-df2bd906e7e4" class="st2" d="M1112.5,544c0-33,1.5-66.4,0-99.4,0,0-39.8-2.2-59.8,0,0,0-.9,66.5,0,99.4"/>
        <path id="STROKE_c08650d0-e00d-4125-8a7a-3b63673bab08" class="st2" d="M1118.5,561.1c-.2-4.9,0-17.1,0-17.1h-75.9c.6,5.6,0,17.1,0,17.1,20.7.4,75.9,0,75.9,0Z"/>
        <path id="STROKE_8adeded3-d492-4d56-84bb-600fb847b50a" class="st2" d="M1083.4,444.6v98.9"/>
        <path id="STROKE_5c557611-feb7-4592-bce7-55e9b0c5df6a" class="st2" d="M1052.6,484.8c19.3,1,40.5-.8,59.8,0"/>
        <path id="STROKE_4d3eb8e5-fc88-49ec-a050-df2bd906e7e41" class="st2" d="M1232.8,544c0-33,1.5-66.4,0-99.4,0,0-39.8-2.2-59.8,0,0,0-.9,66.5,0,99.4"/>
        <path id="STROKE_c08650d0-e00d-4125-8a7a-3b63673bab081" class="st2" d="M1238.9,561.1c-.2-4.9,0-17.1,0-17.1h-75.9c.6,5.6,0,17.1,0,17.1,20.7.4,75.9,0,75.9,0Z"/>
        <path id="STROKE_8adeded3-d492-4d56-84bb-600fb847b50a1" class="st2" d="M1203.8,444.6v98.9"/>
        <path id="STROKE_5c557611-feb7-4592-bce7-55e9b0c5df6a1" class="st2" d="M1173,484.8c19.3,1,40.5-.8,59.8,0"/>
        <path id="STROKE_4d3eb8e5-fc88-49ec-a050-df2bd906e7e42" class="st2" d="M1347.8,544c0-33,1.5-66.4,0-99.4,0,0-39.8-2.2-59.8,0,0,0-.9,66.5,0,99.4"/>
        <path id="STROKE_c08650d0-e00d-4125-8a7a-3b63673bab082" class="st2" d="M1353.8,561.1c-.2-4.9,0-17.1,0-17.1h-75.9c.6,5.6,0,17.1,0,17.1,20.7.4,75.9,0,75.9,0Z"/>
        <path id="STROKE_8adeded3-d492-4d56-84bb-600fb847b50a2" class="st2" d="M1318.7,444.6v98.9"/>
        <path id="STROKE_5c557611-feb7-4592-bce7-55e9b0c5df6a2" class="st2" d="M1287.9,484.8c19.3,1,40.5-.8,59.8,0"/>
        <path id="STROKE_4d3eb8e5-fc88-49ec-a050-df2bd906e7e43" class="st2" d="M1112.5,356.4c0-33,1.5-66.4,0-99.4,0,0-39.8-2.2-59.8,0,0,0-.9,66.5,0,99.4"/>
        <path id="STROKE_c08650d0-e00d-4125-8a7a-3b63673bab083" class="st2" d="M1118.5,373.5c-.2-4.9,0-17.1,0-17.1h-75.9c.6,5.6,0,17.1,0,17.1,20.7.4,75.9,0,75.9,0Z"/>
        <path id="STROKE_8adeded3-d492-4d56-84bb-600fb847b50a3" class="st2" d="M1083.4,257v98.9"/>
        <path id="STROKE_5c557611-feb7-4592-bce7-55e9b0c5df6a3" class="st2" d="M1052.6,297.1c19.3,1,40.5-.8,59.8,0"/>
        <path id="STROKE_4d3eb8e5-fc88-49ec-a050-df2bd906e7e44" class="st2" d="M1232.8,356.4c0-33,1.5-66.4,0-99.4,0,0-39.8-2.2-59.8,0,0,0-.9,66.5,0,99.4"/>
        <path id="STROKE_c08650d0-e00d-4125-8a7a-3b63673bab084" class="st2" d="M1238.9,373.5c-.2-4.9,0-17.1,0-17.1h-75.9c.6,5.6,0,17.1,0,17.1,20.7.4,75.9,0,75.9,0Z"/>
        <path id="STROKE_8adeded3-d492-4d56-84bb-600fb847b50a4" class="st2" d="M1203.8,257v98.9"/>
        <path id="STROKE_5c557611-feb7-4592-bce7-55e9b0c5df6a4" class="st2" d="M1173,297.1c19.3,1,40.5-.8,59.8,0"/>
        <path id="STROKE_4d3eb8e5-fc88-49ec-a050-df2bd906e7e45" class="st2" d="M1347.8,356.4c0-33,1.5-66.4,0-99.4,0,0-39.8-2.2-59.8,0,0,0-.9,66.5,0,99.4"/>
        <path id="STROKE_c08650d0-e00d-4125-8a7a-3b63673bab085" class="st2" d="M1353.8,373.5c-.2-4.9,0-17.1,0-17.1h-75.9c.6,5.6,0,17.1,0,17.1,20.7.4,75.9,0,75.9,0Z"/>
        <path id="STROKE_8adeded3-d492-4d56-84bb-600fb847b50a5" class="st2" d="M1318.7,257v98.9"/>
        <path id="STROKE_5c557611-feb7-4592-bce7-55e9b0c5df6a5" class="st2" d="M1287.9,297.1c19.3,1,40.5-.8,59.8,0"/>
        <path id="STROKE_2ccf1ffe-7d5a-4422-89b8-49d289009589" class="st2" d="M1002.4,160.2c28.8,3.2,59.7,0,88.9.4,37.6.7,73,2,110.7.9,26.5-.8,50.2-.5,76.6-.6,33.5,0,63.7-.2,97.1-.2"/>
        <path id="STROKE_c4ebd9f9-3270-4355-9a4f-046328887c62" class="st2" d="M1375.8,160.7c-6.9-12.6-13.7-26.2-20.8-39.2,0,0-117.5-.9-178,0-52.4,1.2-104,2.2-155.7,0,0,0-12.3,28.6-18.8,38.6"/>
        <path class="st2" d="M1231.8,772.9c-1.3-46.9,0-144.6,0-144.6,0,0-41,.3-62,0,0,0,1.6,99.2,0,144.6"/>
      </g>
      <g>
        <path id="STROKE_aba8e155-8b65-4b37-8a7a-6160c7317e7c" class="st2" d="M359.1,234.6c-10.3-11.7-31.2-26.9-43.9-26.2s-35.1,20.5-41.3,26.2h85.2,0Z"/>
        <path id="STROKE_48444fb2-4bae-4002-84b2-c767191d714a" class="st2" d="M283.4,234.6c.8,15.6-.7,31,0,46.8s.8,44.6,0,66"/>
        <path id="STROKE_da427920-debb-4ea6-9f31-ed554d93a2e6" class="st2" d="M349.2,235.4c1,16.7-1,33.5-.6,50.3.2,20.3,1,40.7,1,61"/>
        <path id="STROKE_f1f445d5-22f8-4c8a-b27a-f9bd734e70b6" class="st2" d="M359.1,356c-25.7-.6-59.5,0-85.2,0v-8.4s59.7-.7,85.2,0v8.4h0Z"/>
        <path id="STROKE_1f8233a0-cea0-48de-8441-0d052c81a910" class="st2" d="M293.4,347.5c.4-17.3-.5-36.7,0-54v-30.6h43.4c.7,27.6.2,56.1,0,83.8"/>
        <path id="STROKE_820f0ab5-1374-4dd8-982f-1fd6909500a5" class="st2" d="M315.1,262.8c1,23.6,0,70,0,83.8"/>
        <path id="STROKE_fa506740-5a4f-4130-afc8-94ca1d03f300" class="st2" d="M293.4,286c13.6.7,29.7,0,43.4,0"/>
        <path id="STROKE_df7bf3cd-ea94-41b2-836a-3fee553eae4e" class="st2" d="M235.9,581.7c30.2-.5,68.8-.4,99.2-.2,33.3.5,66.4,0,99.7.4,50.9,1.3,149.8,1,149.8,1"/>
        <path id="STROKE_45cac901-14eb-4e0b-87c2-7915d98dd5ee" class="st2" d="M236.1,574.7c76.7,3.4,162.5-2.1,239.3-1.1,36.9,1.9,109.2.8,109.2.8"/>
        <path id="STROKE_d13fa0c2-8d54-40e7-8812-ccb4babf4578" class="st2" d="M505.2,718.9s-.3-28.8,0-42.9c-.5-18.9.7-38.5,0-57.3,0,0-25.2-.2-37.6,0-15.1.2-44.8,0-44.8,0-.7,19.7,1.1,66.9,0,100.3h82.4Z"/>
        <path id="STROKE_b2370c18-0de6-42d5-b64b-eae5f0f770ff" class="st2" d="M465.7,618.7c1.2,32.4-.6,76.4,0,100.3"/>
        <path id="STROKE_7ebb0629-5f13-42f8-85f0-06d15c42e90f" class="st2" d="M287,772.1c-.3-29-1.4-61,0-90,.7-13-.7-26.5,1.9-39.3,3.7-12.9,12.3-28.2,27.7-27.4,43.1-1.7,41.7,47.6,40.1,78.4.1,25.7-.2,51.5-.5,77.2"/>
        <path id="STROKE_73010f52-98c3-4673-9b6f-d8fc7b6a4d2d" class="st2" d="M355.9,655.8c-22.6.3-45.2,1.7-67.8,0"/>
        <path id="STROKE_16d8083b-1825-411e-bd87-367d738c0d11" class="st2" d="M322,656.6c-.2,6.5-.5,38.5,0,57.3.2,18.2.5,40.1,0,58.2"/>
        <path id="STROKE_5ae48095-9f67-45da-a6a3-8cca2564c18f" class="st6" d="M315.8,731.4c-1.7-3.6-7.5-2.1-5,1.9,1.6,2.1,6.4,1.2,5-1.9Z"/>
        <path class="st2" d="M235.1,104.9c117,1.7,349.4,0,349.4,0-2.7-7.2-5.8-7-8.7-14,0,0-78.2-2.2-116.9-.6-68.7.2-210,.6-210,.6-5.8,4.6-13.7,14-13.7,14h0Z"/>
        <path id="STROKE_28ed1cdb-8a37-4f1c-a512-6cc48d1e9f22" class="st2" d="M299.9,180.6s.2-19.5-.4-30l34.7.4c1.1,9.9-.1,19.4-.1,29.5,0,0-23.2-.2-34.2,0h0Z"/>
        <path id="STROKE_27f3c688-9eb4-4193-a889-bc6bb30206eb" class="st2" d="M317.8,150.8c0,9.9,0,19.5.2,29.5"/>
        <path id="STROKE_fe31b74b-8630-4658-85ac-0bf353a05a3f" class="st2" d="M300.3,167.9c10.4.3,23.5.4,33.9,0"/>
        <path id="STROKE_aba8e155-8b65-4b37-8a7a-6160c7317e7c1" class="st2" d="M458,234.6c-10.3-11.7-31.2-26.9-43.9-26.2s-35.1,20.5-41.3,26.2h85.2Z"/>
        <path id="STROKE_48444fb2-4bae-4002-84b2-c767191d714a1" class="st2" d="M382.3,234.6c.8,15.6-.7,31,0,46.8s.8,44.6,0,66"/>
        <path id="STROKE_da427920-debb-4ea6-9f31-ed554d93a2e61" class="st2" d="M448.2,235.4c1,16.7-1,33.5-.6,50.3.2,20.3,1,40.7,1,61"/>
        <path id="STROKE_f1f445d5-22f8-4c8a-b27a-f9bd734e70b61" class="st2" d="M458,356c-25.7-.6-59.5,0-85.2,0v-8.4s59.7-.7,85.2,0v8.4Z"/>
        <path id="STROKE_1f8233a0-cea0-48de-8441-0d052c81a9101" class="st2" d="M392.4,347.5c.4-17.3-.5-36.7,0-54v-30.6h43.4c.7,27.6.2,56.1,0,83.8"/>
        <path id="STROKE_820f0ab5-1374-4dd8-982f-1fd6909500a51" class="st2" d="M414.1,262.8c1,23.6,0,70,0,83.8"/>
        <path id="STROKE_fa506740-5a4f-4130-afc8-94ca1d03f3001" class="st2" d="M392.4,286c13.6.7,29.7,0,43.4,0"/>
        <path id="STROKE_28ed1cdb-8a37-4f1c-a512-6cc48d1e9f221" class="st2" d="M398.8,180.6s.2-19.5-.4-30l34.7.4c1.1,9.9-.1,19.4-.1,29.5,0,0-23.2-.2-34.2,0h0Z"/>
        <path id="STROKE_27f3c688-9eb4-4193-a889-bc6bb30206eb1" class="st2" d="M416.8,150.8c0,9.9,0,19.5.2,29.5"/>
        <path id="STROKE_fe31b74b-8630-4658-85ac-0bf353a05a3f1" class="st2" d="M399.2,167.9c10.4.3,23.5.4,33.9,0"/>
        <path id="STROKE_aba8e155-8b65-4b37-8a7a-6160c7317e7c2" class="st2" d="M554.2,234.6c-10.3-11.7-31.2-26.9-43.9-26.2s-35.1,20.5-41.3,26.2h85.2Z"/>
        <path id="STROKE_48444fb2-4bae-4002-84b2-c767191d714a2" class="st2" d="M478.4,234.6c.8,15.6-.7,31,0,46.8s.8,44.6,0,66"/>
        <path id="STROKE_da427920-debb-4ea6-9f31-ed554d93a2e62" class="st2" d="M544.3,235.4c1,16.7-1,33.5-.6,50.3.2,20.3,1,40.7,1,61"/>
        <path id="STROKE_f1f445d5-22f8-4c8a-b27a-f9bd734e70b62" class="st2" d="M554.2,356c-25.7-.6-59.5,0-85.2,0v-8.4s59.7-.7,85.2,0v8.4Z"/>
        <path id="STROKE_1f8233a0-cea0-48de-8441-0d052c81a9102" class="st2" d="M488.5,347.5c.4-17.3-.5-36.7,0-54v-30.6h43.4c.7,27.6.2,56.1,0,83.8"/>
        <path id="STROKE_820f0ab5-1374-4dd8-982f-1fd6909500a52" class="st2" d="M510.2,262.8c1,23.6,0,70,0,83.8"/>
        <path id="STROKE_fa506740-5a4f-4130-afc8-94ca1d03f3002" class="st2" d="M488.5,286c13.6.7,29.7,0,43.4,0"/>
        <path id="STROKE_aba8e155-8b65-4b37-8a7a-6160c7317e7c3" class="st2" d="M359.1,421.1c-10.3-11.7-31.2-26.9-43.9-26.2s-35.1,20.5-41.3,26.2h85.2,0Z"/>
        <path id="STROKE_48444fb2-4bae-4002-84b2-c767191d714a3" class="st2" d="M283.4,421.1c.8,15.6-.7,31,0,46.8s.8,44.6,0,66"/>
        <path id="STROKE_da427920-debb-4ea6-9f31-ed554d93a2e63" class="st2" d="M349.2,421.9c1,16.7-1,33.5-.6,50.3.2,20.3,1,40.7,1,61"/>
        <path id="STROKE_f1f445d5-22f8-4c8a-b27a-f9bd734e70b63" class="st2" d="M359.1,542.4c-25.7-.6-59.5,0-85.2,0v-8.4s59.7-.7,85.2,0v8.4h0Z"/>
        <path id="STROKE_1f8233a0-cea0-48de-8441-0d052c81a9103" class="st2" d="M293.4,533.9c.4-17.3-.5-36.7,0-54v-30.6h43.4c.7,27.6.2,56.1,0,83.8"/>
        <path id="STROKE_820f0ab5-1374-4dd8-982f-1fd6909500a53" class="st2" d="M315.1,449.3c1,23.6,0,70,0,83.8"/>
        <path id="STROKE_fa506740-5a4f-4130-afc8-94ca1d03f3003" class="st2" d="M293.4,472.4c13.6.7,29.7,0,43.4,0"/>
        <path id="STROKE_aba8e155-8b65-4b37-8a7a-6160c7317e7c4" class="st2" d="M458,421.1c-10.3-11.7-31.2-26.9-43.9-26.2s-35.1,20.5-41.3,26.2h85.2Z"/>
        <path id="STROKE_48444fb2-4bae-4002-84b2-c767191d714a4" class="st2" d="M382.3,421.1c.8,15.6-.7,31,0,46.8s.8,44.6,0,66"/>
        <path id="STROKE_da427920-debb-4ea6-9f31-ed554d93a2e64" class="st2" d="M448.2,421.9c1,16.7-1,33.5-.6,50.3.2,20.3,1,40.7,1,61"/>
        <path id="STROKE_f1f445d5-22f8-4c8a-b27a-f9bd734e70b64" class="st2" d="M458,542.4c-25.7-.6-59.5,0-85.2,0v-8.4s59.7-.7,85.2,0v8.4Z"/>
        <path id="STROKE_1f8233a0-cea0-48de-8441-0d052c81a9104" class="st2" d="M392.4,533.9c.4-17.3-.5-36.7,0-54v-30.6h43.4c.7,27.6.2,56.1,0,83.8"/>
        <path id="STROKE_820f0ab5-1374-4dd8-982f-1fd6909500a54" class="st2" d="M414.1,449.3c1,23.6,0,70,0,83.8"/>
        <path id="STROKE_fa506740-5a4f-4130-afc8-94ca1d03f3004" class="st2" d="M392.4,472.4c13.6.7,29.7,0,43.4,0"/>
        <path id="STROKE_aba8e155-8b65-4b37-8a7a-6160c7317e7c5" class="st2" d="M554.2,421.1c-10.3-11.7-31.2-26.9-43.9-26.2s-35.1,20.5-41.3,26.2h85.2Z"/>
        <path id="STROKE_48444fb2-4bae-4002-84b2-c767191d714a5" class="st2" d="M478.4,421.1c.8,15.6-.7,31,0,46.8s.8,44.6,0,66"/>
        <path id="STROKE_da427920-debb-4ea6-9f31-ed554d93a2e65" class="st2" d="M544.3,421.9c1,16.7-1,33.5-.6,50.3.2,20.3,1,40.7,1,61"/>
        <path id="STROKE_f1f445d5-22f8-4c8a-b27a-f9bd734e70b65" class="st2" d="M554.2,542.4c-25.7-.6-59.5,0-85.2,0v-8.4s59.7-.7,85.2,0v8.4Z"/>
        <path id="STROKE_1f8233a0-cea0-48de-8441-0d052c81a9105" class="st2" d="M488.5,533.9c.4-17.3-.5-36.7,0-54v-30.6h43.4c.7,27.6.2,56.1,0,83.8"/>
        <path id="STROKE_820f0ab5-1374-4dd8-982f-1fd6909500a55" class="st2" d="M510.2,449.3c1,23.6,0,70,0,83.8"/>
        <path id="STROKE_fa506740-5a4f-4130-afc8-94ca1d03f3005" class="st2" d="M488.5,472.4c13.6.7,29.7,0,43.4,0"/>
        <path id="STROKE_28ed1cdb-8a37-4f1c-a512-6cc48d1e9f222" class="st2" d="M495,180.6s.2-19.5-.4-30l34.7.4c1.1,9.9,0,19.4,0,29.5,0,0-23.2-.2-34.2,0h0Z"/>
        <path id="STROKE_27f3c688-9eb4-4193-a889-bc6bb30206eb2" class="st2" d="M512.9,150.8c0,9.9,0,19.5.2,29.5"/>
        <path id="STROKE_fe31b74b-8630-4658-85ac-0bf353a05a3f2" class="st2" d="M495.3,167.9c10.4.3,23.5.4,33.9,0"/>
      </g>
      <g>
        <path id="STROKE_7c3ea281-5b5c-467a-82ca-d549dc244730" class="st2" d="M585.3,112.4c20.3.2,39.6,1.5,59.9,0,20.2-.9,45.3,0,66.4,0"/>
        <path id="STROKE_f44619a3-0ec7-4e1e-81eb-aa98ddc4a5cc" class="st2" d="M876.1,112.4c20.8-.4,45.6,1.6,66.6,0,21.4-.7,41.4-.4,41.4-.4l17.7,29.3c-.6,32.2-.4,84.2-.7,114.7.5,93.2-2.8,185.1,0,278.3,4.4,90-3.5,147.9,0,238.6"/>
        <path id="STROKE_ef4972ca-16f0-42ff-8db9-1b22a87020a4" class="st2" d="M943.8,223.9c-.2-12.9,1.9-26.8,0-39.6h-51.9v40.1"/>
        <path id="STROKE_e57c4543-0610-46de-9cf1-bbd827b0d297" class="st2" d="M944.6,358.4c1-10,0-32.5,0-42.5v-45.3s-34.9-1.2-53,.2c0,0,.5,22.6.5,33.6.5,18.3.7,36.2,1.3,54.5"/>
        <path id="STROKE_d8476e61-867a-4162-8fc7-0e5d6f75bb51" class="st2" d="M919.1,270.6c.6,13.2,0,33.9,0,45.1s.4,28.6,0,42.7"/>
        <path id="STROKE_65af0637-2d3f-478e-8889-00c81fd29cb3" class="st2" d="M880.7,369.2c25.1.9,74.2,0,74.2,0-.3-3.6,0-10.6,0-10.6-24.3-.6-49.8,1.4-74.2,0v10.5h0Z"/>
        <path id="STROKE_e57c4543-0610-46de-9cf1-bbd827b0d2971" class="st2" d="M944.6,500c1-10,0-32.5,0-42.5v-45.3s-34.9-1.2-53,.2c0,0,.5,22.6.5,33.6.5,18.3.7,36.2,1.3,54.5"/>
        <path id="STROKE_d8476e61-867a-4162-8fc7-0e5d6f75bb511" class="st2" d="M919.1,412.2c.6,13.2,0,33.9,0,45.1s.4,28.6,0,42.7"/>
        <path id="STROKE_65af0637-2d3f-478e-8889-00c81fd29cb31" class="st5" d="M880.7,510.8c25.1.9,74.2,0,74.2,0-.3-3.6,0-10.6,0-10.6-24.3-.6-49.8,1.4-74.2,0v10.5h0Z"/>
        <path id="STROKE_e57c4543-0610-46de-9cf1-bbd827b0d2972" class="st2" d="M689.5,500c1-10,0-32.5,0-42.5v-45.3s-34.9-1.2-53,.2c0,0,.5,22.6.5,33.6.5,18.3.7,36.2,1.3,54.5"/>
        <path id="STROKE_d8476e61-867a-4162-8fc7-0e5d6f75bb512" class="st2" d="M664,412.2c.6,13.2,0,33.9,0,45.1s.4,28.6,0,42.7"/>
        <path id="STROKE_65af0637-2d3f-478e-8889-00c81fd29cb32" class="st5" d="M625.7,510.8c25.1.9,74.2,0,74.2,0-.3-3.6,0-10.6,0-10.6-24.3-.6-49.8,1.4-74.2,0v10.5h0Z"/>
        <path id="STROKE_e57c4543-0610-46de-9cf1-bbd827b0d2973" class="st2" d="M689.5,718c1-10,0-32.5,0-42.5v-45.3s-34.9-1.2-53,.2c0,0,.5,22.6.5,33.6.5,18.3.7,36.2,1.3,54.5"/>
        <path id="STROKE_d8476e61-867a-4162-8fc7-0e5d6f75bb513" class="st2" d="M664,630.2c.6,13.2,0,33.9,0,45.1s.4,28.6,0,42.7"/>
        <path id="STROKE_65af0637-2d3f-478e-8889-00c81fd29cb33" class="st2" d="M625.7,728.8c25.1.9,74.2,0,74.2,0-.3-3.6,0-10.6,0-10.6-24.3-.6-49.8,1.4-74.2,0v10.5h0Z"/>
        <path id="STROKE_e57c4543-0610-46de-9cf1-bbd827b0d2974" class="st2" d="M945.8,718c1-10,0-32.5,0-42.5v-45.3s-34.9-1.2-53,.2c0,0,.5,22.6.5,33.6.5,18.3.7,36.2,1.3,54.5"/>
        <path id="STROKE_d8476e61-867a-4162-8fc7-0e5d6f75bb514" class="st2" d="M920.3,630.2c.6,13.2,0,33.9,0,45.1s.4,28.6,0,42.7"/>
        <path id="STROKE_65af0637-2d3f-478e-8889-00c81fd29cb34" class="st2" d="M882,728.8c25.1.9,74.2,0,74.2,0-.3-3.6,0-10.6,0-10.6-24.3-.6-49.8,1.4-74.2,0v10.5h0Z"/>
        <path id="STROKE_e57c4543-0610-46de-9cf1-bbd827b0d2975" class="st2" d="M689.5,358.9c1-10,0-32.5,0-42.5v-45.3s-34.9-1.2-53,.2c0,0,.5,22.6.5,33.6.5,18.3.7,36.2,1.3,54.5"/>
        <path id="STROKE_d8476e61-867a-4162-8fc7-0e5d6f75bb515" class="st2" d="M664,271.1c.6,13.2,0,33.9,0,45.1s.4,28.6,0,42.7"/>
        <path id="STROKE_65af0637-2d3f-478e-8889-00c81fd29cb35" class="st2" d="M625.7,369.6c25.1.9,74.2,0,74.2,0-.3-3.6,0-10.6,0-10.6-24.3-.6-49.8,1.4-74.2,0v10.5h0Z"/>
        <path id="STROKE_e57c4543-0610-46de-9cf1-bbd827b0d2976" class="st2" d="M822.9,358.9c1-10,0-32.5,0-42.5v-45.3s-34.9-1.2-53,.2c0,0,.5,22.6.5,33.6.5,18.3.7,36.2,1.3,54.5"/>
        <path id="STROKE_d8476e61-867a-4162-8fc7-0e5d6f75bb516" class="st2" d="M797.4,271.1c.6,13.2,0,33.9,0,45.1s.4,28.6,0,42.7"/>
        <path id="STROKE_65af0637-2d3f-478e-8889-00c81fd29cb36" class="st2" d="M759.1,369.6c25.1.9,74.2,0,74.2,0-.3-3.6,0-10.6,0-10.6-24.3-.6-49.8,1.4-74.2,0v10.5h0Z"/>
        <path id="STROKE_e57c4543-0610-46de-9cf1-bbd827b0d2977" class="st2" d="M822.9,500.5c1-10,0-32.5,0-42.5v-45.3s-34.9-1.2-53,.2c0,0,.5,22.6.5,33.6.5,18.3.7,36.2,1.3,54.5"/>
        <path id="STROKE_65af0637-2d3f-478e-8889-00c81fd29cb37" class="st5" d="M759.1,511.3c25.1.9,74.2,0,74.2,0-.3-3.6,0-10.6,0-10.6-24.3-.6-49.8,1.4-74.2,0v10.5h0Z"/>
        <path id="STROKE_11daccca-973e-42a6-8088-f9788ca171fa" class="st2" d="M585.3,160.7c51.6,1.6,103.1-.4,154.9,0"/>
        <path id="STROKE_8d021211-aa20-455a-8b54-043f017dee0a" class="st2" d="M876.4,160.7c47.8.7,76-.8,125.4,0"/>
        <path id="STROKE_7e7f70c0-c582-4652-809e-eb7a782cc32f" class="st2" d="M585.7,141.3c51.9.8,106,0,158.2,0"/>
        <path id="STROKE_65fd4bb7-9963-435b-a2b1-4d8413c246dc" class="st2" d="M846.8,141.3c53.4.3,101.4,0,155,0"/>
        <path id="STROKE_8166a367-9d3a-48f6-8dd1-a2de3fc3eb29" class="st2" d="M875.5,160.9s3.1-17.9,0-46.1c-.2-1.5-1.8-13.9-4.1-21.7-3.9-13.2-12.3-24.7-24.3-32.9-51.3-31-126.4-8-135.3,56.7v43.6l30,.8s3.8-57.9,28.4-68.8c20.5-8.7,46.5-4.5,62.6,11.3,9.8,9.7,12.9,25,14.1,38.4l.5,18.5,28.1.2h0Z"/>
        <path id="STROKE_83b0378f-feeb-4390-8383-d53b16520c0c" class="st2" d="M765,119.1c18.1-16.7,48.5-20.2,64.9.3l-6.3,5.3c-14.7-14.4-39.1-12.2-53.9,1.1l-4.8-6.7h0Z"/>
        <path id="STROKE_d9f84ec7-6d2f-4c46-a5a3-4358ec78a37a" class="st2" d="M776.5,120.9c2,17.2-.6,35.8,0,53.1"/>
        <path id="STROKE_945d698a-719c-454d-ae72-69b14ea869c8" class="st2" d="M815.2,119.4c2.6,17.5-.2,37.6,0,55.3"/>
        <path id="STROKE_977dcf02-2ff4-4ce3-9dc0-c35a23b49fa7" class="st2" d="M823.8,183c-18.6-1.4-35.3,0-54,0v-8.3c19.1.2,38.1,0,54,0v8.3Z"/>
        <path id="STROKE_4757257c-ebb3-4571-88c8-ccf4efc35be9" class="st2" d="M758.5,771.9c-.5-28.5-.2-59.7,0-88.2-.2-22.7-2.4-48.1,24-56.7,11.8-3.7,26.7-3,36,6,10.1,11.7,8.4,26.5,8.9,40.9,1.1,31.4,0,68.1,0,99.4"/>
        <path id="STROKE_a1617108-8446-41f5-8a5b-be6830f7f9da" class="st2" d="M759.9,673.7c22.4-.2,45.1,0,67.5.3"/>
        <path id="STROKE_0faf152b-9e2d-4e57-ba5f-932680965139" class="st2" d="M797.2,629.9c21.3,3.1,28,21.8,26.4,38.3,0,0-19.1-.5-26.4,0v-38.3Z"/>
        <path id="STROKE_0faf152b-9e2d-4e57-ba5f-9326809651391" class="st2" d="M801.7,637.1c9.9,1.6,17.3,15.3,16.3,27,0,0-11.8-.3-16.3,0v-27Z"/>
        <path id="STROKE_c0deb956-b74d-49c1-b030-3bf5b734d3a4" class="st2" d="M790.5,668.2h-26.6c.9-15.6,4.6-32.6,26.6-38,0,0,.8,26.4,0,38Z"/>
        <path id="STROKE_c0deb956-b74d-49c1-b030-3bf5b734d3a41" class="st2" d="M786.1,664h-17.7c.6-10.8,7.4-23.8,17.7-26.3,0,0,.5,18.3,0,26.3Z"/>
        <path id="STROKE_82897ddd-29b3-4eae-815b-636dc842e080" class="st2" d="M794.1,674.7c.2,32.2-1.1,64.6-1.1,96.8"/>
        <path id="STROKE_fd41244e-7147-4f98-b3f1-e4453aa86926" class="st2" d="M823.6,772.9c-.4-30.1-1-64.1,0-94h-24.1c0,30.3-.9,62.9,0,93"/>
        <path id="STROKE_fd41244e-7147-4f98-b3f1-e4453aa869261" class="st2" d="M818.6,772.9c-.2-28.3-.6-60.3,0-88.4h-14.2c0,28.5-.5,59.2,0,87.5"/>
        <path id="STROKE_f2fe2cbe-2d48-41ba-abf8-526e7fcf0de9" class="st2" d="M763.9,772.2c-.9-28,0-65.4,0-93.3h24.4c0,15,1.5,63.3,0,92.7"/>
        <path id="STROKE_f2fe2cbe-2d48-41ba-abf8-526e7fcf0de91" class="st2" d="M768.7,772.4c-.6-26.4,0-61.6,0-87.9h15.1c0,14.1.9,59.7,0,87.4"/>
        <path id="STROKE_bfa85e7a-f114-4426-8ef0-cfa2d26cfbc1" class="st2" d="M903.3,772.4c0-8.8.4-24.6.4-24.6,9.3-.5,21.9-.5,31.5-.5,0,0,.4,16.9.5,24.5"/>
        <path id="STROKE_bfa85e7a-f114-4426-8ef0-cfa2d26cfbc11" class="st2" d="M647,772.4c0-8.8.4-24.6.4-24.6,9.3-.5,21.9-.5,31.5-.5,0,0,.4,16.9.5,24.5"/>
        <path class="st2" d="M886.4,224.5v7.1h63.9v-7.1s-43.3-.9-63.9,0Z"/>
        <path id="STROKE_ef4972ca-16f0-42ff-8db9-1b22a87020a41" class="st2" d="M689.1,223.9c-.2-12.9,1.9-26.8,0-39.6h-51.9v40.1"/>
        <path class="st2" d="M631.7,224.5v7.1h63.9v-7.1s-43.3-.9-63.9,0Z"/>
        <path class="st0" d="M848.2,637.7"/>
        <path id="STROKE_d8476e61-867a-4162-8fc7-0e5d6f75bb517" class="st2" d="M797.4,412.7c.6,13.2,0,33.9,0,45.1s.4,28.6,0,42.7"/>
      </g>
    </g>
    <g id="Pen">
      <path id="STROKE_e794faba-2c6c-40b1-aea2-463e0fad7daf" class="st7" d="M187.6,721.7c0-1.7-.2-3.1,0-4.8h-.4c0-.7-.6-1.3-1.2-1.7-1.3-.7-2.3.5-2.6,1.7h-.5c.4,2.9,0,5.8,0,8.8v6.8h.7c0,2.5,3.5,2,3.3,0h.6c.2-1.3.1-2.7.2-4.1,0-1.8.1-3.5,0-5.3"/>
      <path id="STROKE_5b0dff44-5819-402c-938b-7fc02ad3d1a2" class="st1" d="M184.2,720.9c-1.1-.5-1.1.9,0,.9"/>
      <path id="STROKE_44ecc3fc-27be-4992-9667-efc6ec1dfb3b" class="st7" d="M186.2,722.5c.8,0,1.5.6,2.4.7,1.1.2,1.9-.8,2.9-1,.8,0,1.3.9,2.2.7,1.7-.6-.2-2.4-1.2-2.5-.9,0-1.7.6-2.5,1-.6.3-1.3.3-1.9.3s-1.1-.3-1.5-.5"/>
      <path id="STROKE_c1cf3f78-023f-4609-8f18-def9f0841b79" class="st1" d="M185.4,721.3c-.6,0-.4.9.1.6.2-.2,0-.7-.3-.6h.2Z"/>
      <path id="STROKE_0dc345e6-1893-40fd-b1cf-7c48742b1ff1" class="st1" d="M185.5,720.4c-1.7-.4-1.9,2-.6,2.4.5,0,1.2,0,1.4-.6.3-.8,0-1.8-1-1.8h.2Z"/>
    </g>
  </g>
  <path id="STROKE_9ca5a4be-212d-4f12-9c2c-88d4bf9e5acd11" data-name="STROKE_9ca5a4be-212d-4f12-9c2c-88d4bf9e5acd1" class="st5" d="M715.7,537.2h156.8v69.4c-51.3-1.4-156.8,0-156.8,0,1.7-23.2.5-45.9,0-69.4"/>
  <g>
    <path d="M727.1,589.9l16.5-41.3h9.4l16.3,41.3h-11.6l-7.1-19.2c-.4-1.1-.7-2-1.1-3-.3-.9-.6-1.8-.9-2.7-.3-.9-.5-1.7-.8-2.7-.3-.9-.5-1.9-.7-3h1.9c-.2,1.1-.5,2.1-.7,3-.3.9-.5,1.8-.8,2.6s-.6,1.7-.9,2.6c-.3.9-.7,1.9-1.1,3l-7.1,19.2h-11.4v.2ZM735.1,583.1l3.5-8.3h19.1l3.2,8.3h-25.8Z"/>
    <path d="M773.5,589.9v-41.3h10.2l15,24.5h-8l15.2-24.5h9.9v41.3h-11.3v-11c0-3.5,0-6.7.3-9.6.2-2.8.5-5.6.9-8.4l1.3,3.5-10.6,16.3h-3.9l-10.3-16.3,1.3-3.5c.4,2.6.7,5.3.9,8.1s.3,6.1.3,9.9v11h-11.3,0Z"/>
    <path d="M835.1,589.9v-31.2h-12.5v-10.1h37.1v10.1h-12.9v31.2h-11.7,0Z"/>
  </g>
  <g id="Pen1" data-name="Pen">
    <path id="STROKE_e794faba-2c6c-40b1-aea2-463e0fad7daf1" data-name="STROKE_e794faba-2c6c-40b1-aea2-463e0fad7daf" class="st4" d="M810.7,729.5c0-1.2-.1-2.3,0-3.5h-.3c0-.5-.4-1-.9-1.2-1-.5-1.7.4-1.9,1.2h-.4c.3,2.1,0,4.3,0,6.5v5h.5c0,1.8,2.6,1.5,2.4,0h.4c.1-1,0-2,.1-3,0-1.3,0-2.6,0-3.9"/>
    <path id="STROKE_5b0dff44-5819-402c-938b-7fc02ad3d1a21" data-name="STROKE_5b0dff44-5819-402c-938b-7fc02ad3d1a2" class="st3" d="M808,728.9c-.8-.4-.9.7-.1.7"/>
    <path id="STROKE_44ecc3fc-27be-4992-9667-efc6ec1dfb3b1" data-name="STROKE_44ecc3fc-27be-4992-9667-efc6ec1dfb3b" class="st4" d="M809.6,730.1c.6,0,1.1.4,1.8.5.8.1,1.4-.6,2.1-.7.6,0,1,.7,1.6.5,1.2-.4-.1-1.8-.9-1.8-.7,0-1.2.4-1.8.7-.4.2-1,.2-1.4.2s-1-.3-1.2-.4"/>
    <path id="STROKE_c1cf3f78-023f-4609-8f18-def9f0841b791" data-name="STROKE_c1cf3f78-023f-4609-8f18-def9f0841b79" class="st3" d="M809.1,729.6c.2-.1,0-.5-.2-.4-.4.1,0,.7.2.4Z"/>
    <path id="STROKE_0dc345e6-1893-40fd-b1cf-7c48742b1ff11" data-name="STROKE_0dc345e6-1893-40fd-b1cf-7c48742b1ff1" class="st3" d="M809,728.5c-1.2-.3-1.3,1.5-.3,1.8.4,0,.9,0,1-.4.2-.6.2-1.1-.7-1.3Z"/>
  </g>
</svg>