<?xml version="1.0" encoding="UTF-8"?>
<svg id="Ebene_1" xmlns="http://www.w3.org/2000/svg" version="1.1" viewBox="0 0 1600 900">
  <!-- Generator: Adobe Illustrator 29.1.0, SVG Export Plug-In . SVG Version: 2.1.0 Build 142)  -->
  <defs>
    <style>
      .st0, .st1 {
        fill: none;
      }

      .st0, .st1, .st2 {
        stroke-linecap: round;
        stroke-linejoin: round;
        stroke-width: 3px;
      }

      .st0, .st2, .st3 {
        stroke: #000;
      }

      .st1 {
        stroke: #010101;
      }

      .st2 {
        fill: #00e8ff;
      }

      .st4 {
        fill: #ff4037;
      }

      .st5 {
        fill: #030605;
      }

      .st6 {
        fill: #ff9362;
      }

      .st7 {
        fill: #007eff;
      }

      .st3 {
        stroke-miterlimit: 10;
      }
    </style>
  </defs>
  <g>
    <path class="st7" d="M0,708.1c51.1-2.7,108.8-2.7,161.5-2.7,0,0,1.6,101.1,2.7,143.9,130.2-1.1,258.2-2.2,380.2-3.3,17-.5,35.2-1.1,53.8-1.6-2.2-154.9-1.1-334,1.1-488.4-1.1-124.7-13.2-264.3,131.9-311.5,64.8-20.3,146.7-16.5,197.8,33,55.5,64.3,46.1,145.6,48.9,224.7,6,169.8,0,377.4,0,548.3,87.4,3.3,195,1.6,277.4-5.5,44-1.1,91.2-2.2,139-2.7,0-49.4,2.2-135.1,2.2-135.1,51.1-2.7,120.3-2.7,173.1-2.7l2.7,137.9,27.7,2.2v-238.7s-322.7,0-322.7,0v-57.7l69.2,2.7-9.9-486.7,112.9-3.5,150.5,2.4V0H0v64.2l115-3.7,104.7,2.6,2,402.6-2,82,57.8-.7-.6,58.9L0,603.9v105.3M276.9,605.9"/>
    <path class="st6" d="M276.9,605.9s-138.4,2.4-276.9-2v-56.9c93.4,1.6,126.9-.3,219.7-.3s37.9,1,56.6,1.5c0,0-1.6,37.9,0,57.7h.6Z"/>
    <path class="st6" d="M1277.3,605.9v-57.7c23.1,1.1,45.6,2.2,69.2,2.7,110.6-3.3,234.8-3.3,253.5-2.7v57.7s-184.3,4.4-322.7,0Z"/>
    <path class="st4" d="M977.9,852.6c-7.1,0-14.3,0-21.4-1.1-23.6-1.1-45.6-2.7-64.3-4.4-19.2-1.6-42.3-3.3-68.1-3.8-11.5,0-23.1,0-35.2-.5h-25.8c-42.9,0-89.5,1.1-134.6,2.2-9.9,0-19.8,0-29.7.5-2.2-154.9-1.1-334,1.1-488.4-1.1-124.7-13.2-264.3,131.9-311.5,64.8-20.3,146.7-16.5,197.8,33,55.5,64.3,46.1,145.6,48.9,224.7,6,169.8,0,377.4,0,548.3l-.5,1.1h0Z"/>
    <path class="st5" d="M1572.3,842.3h-178.5c0-49.4,2.2-135.1,2.2-135.1,51.1-2.7,120.3-2.7,173.1-2.7,0,0,1.6,95,2.7,137.9h.5Z"/>
    <path class="st5" d="M164.8,850.4c-59.3,0-104.9,1.1-164.8,1.1v-142.3c51.1-2.7,108.8-2.7,161.5-2.7,0,0,1.6,101.1,2.7,143.9h.6Z"/>
  </g>
  <g>
    <path id="STROKE_e57c4543-0610-46de-9cf1-bbd827b0d2973" class="st1" d="M219.7,545.5c5.5-54.9,0-178.5,0-233.5.5-102.7,0-146.1,0-248.9,0,0-120.3-6.6-219.7,1.1"/>
    <path id="STROKE_e57c4543-0610-46de-9cf1-bbd827b0d29731" class="st1" d="M194.3,545.5c4.6-56.4,0-152.8,0-209.2.5-105.5,0-150,0-255.5,0,0-111.7-6.8-194.3,1.1"/>
    <path id="STROKE_e57c4543-0610-46de-9cf1-bbd827b0d29732" class="st1" d="M1600,80.8s-155.4-6.8-238,1.1c0,0,2.3,127.5,2.3,189.5,2.3,103.2,3.2,174.7,5.9,277.9"/>
    <path id="STROKE_d8476e61-867a-4162-8fc7-0e5d6f75bb513" class="st1" d="M79.7,78.2c3.3,72.5,0,171.2.5,232.7s2.2,159.1-.5,236.6"/>
    <path id="STROKE_65af0637-2d3f-478e-8889-00c81fd29cb33" class="st1" d="M0,604.8c137.9,4.9,276.9,0,276.9,0-1.6-19.8,0-58.2,0-58.2-133.5-3.3-142.8,7.7-276.9,0"/>
    <path id="STROKE_e57c4543-0610-46de-9cf1-bbd827b0d2974" class="st1" d="M1600,63.1s-163.9-6.6-263.4,1.1c0,0,2.7,124.2,2.7,184.6,2.7,100.5,3.8,198.9,7.1,299.4"/>
    <path id="STROKE_d8476e61-867a-4162-8fc7-0e5d6f75bb514" class="st1" d="M1487.7,63.1c3.3,72.5,0,186.2.5,247.8.5,61.5,2.2,157.1-.5,234.6"/>
    <path id="STROKE_65af0637-2d3f-478e-8889-00c81fd29cb34" class="st1" d="M1600,546.6c-133.5-3.3-188.7,7.7-322.7,0v58.2c137.9,4.9,322.7,0,322.7,0"/>
    <path id="STROKE_4757257c-ebb3-4571-88c8-ccf4efc35be9" class="st1" d="M598.8,843.6c-2.7-156.6-1.1-330,.5-486.6-1.1-124.7-13.2-264.3,131.9-311.5,64.8-20.3,146.7-16.5,197.8,33,55.5,64.3,46.1,145.6,48.9,224.7,6,172.5,0,374.1,0,546.1"/>
    <path id="STROKE_a1617108-8446-41f5-8a5b-be6830f7f9da" class="st1" d="M600.5,302.1c123.1-1.1,253.8,0,376.8,1.6"/>
    <path id="STROKE_0faf152b-9e2d-4e57-ba5f-932680965139" class="st1" d="M808.8,48.6c107.3-8,165,137,155.3,240.9,0,0-112.8-3-155.3,0V48.6Z"/>
    <path id="STROKE_0faf152b-9e2d-4e57-ba5f-9326809651391" class="st1" d="M829.7,78.4c80.1-6.6,123.1,111.8,115.9,196.5,0,0-84.1-2.5-115.9,0V78.4Z"/>
    <path id="STROKE_c0deb956-b74d-49c1-b030-3bf5b734d3a4" class="st1" d="M777.6,289.5h-160c5.2-98.6,19-217.5,160-240.9,0,0,4.6,167.1,0,240.9Z"/>
    <path id="STROKE_c0deb956-b74d-49c1-b030-3bf5b734d3a41" class="st1" d="M758.1,274.9h-122.8c4-80.6,14.6-177.7,122.8-196.8,0,0,3.5,136.5,0,196.8Z"/>
    <path id="STROKE_82897ddd-29b3-4eae-815b-636dc842e080" class="st1" d="M794.4,301.6c1.1,176.9-6,360.9-6,537.8"/>
    <path id="STROKE_fd41244e-7147-4f98-b3f1-e4453aa86926" class="st1" d="M965.2,851.1c-2.6-169.6-6.4-365.2,0-533.8h-153.8c0,170.8-5.7,354.5,0,524.1"/>
    <path id="STROKE_f2fe2cbe-2d48-41ba-abf8-526e7fcf0de9" class="st1" d="M620.1,843.2c-5.7-157.8,0-368.6,0-525.9h155.2c0,84.6,9.5,356.8,0,522.5"/>
    <path id="STROKE_f2fe2cbe-2d48-41ba-abf8-526e7fcf0de91" class="st1" d="M636.4,843.2c-4.4-159.4,0-349.5,0-508.3h118.8c0,85.4,7.3,338.9,0,506.3"/>
    <path id="STROKE_f2fe2cbe-2d48-41ba-abf8-526e7fcf0de92" class="st1" d="M828.1,843.2c-4.2-159.4,0-349.5,0-508.3h115.1c0,85.4,7.1,348,0,515.3"/>
    <path id="STROKE_bfa85e7a-f114-4426-8ef0-cfa2d26cfbc1" class="st1" d="M1394.3,842.3c-.5-48.3,2.2-133.1,2.2-133.1,51.1-2.7,120.3-2.7,173.1-2.7,0,0,2.2,94.8,2.7,136.6"/>
    <path id="STROKE_bfa85e7a-f114-4426-8ef0-cfa2d26cfbc11" class="st1" d="M0,709.2c51.1-2.7,108.8-2.7,161.5-2.7,0,0,2.2,101.1,2.7,142.8"/>
    <path class="st1" d="M194.3,80.8"/>
    <line class="st1" x1="1336.6" y1="64.2" x2="1362" y2="81.9"/>
    <path id="STROKE_1807cf41-4dba-4c47-a1a4-ba3d120427bd" class="st1" d="M1600,845.5c-63.9-5.3-272.8-3.4-430,1-100.9,8.8-242.8,5.8-323.6-2-71.5-6.9-205.6-1.4-309.4,2-196,1.8-537,4.7-537,4.7"/>
    <g>
      <path id="STROKE_fe8067e2-ff7f-476b-85ca-820c081faeef" class="st2" d="M917.7,527.3c0-3.5.9-9-3.2-10.4-6.1-.7-8.1-2.2-12.9-5.6-6-4-11.3-3-17.4.3-2.1,1.3-3.7,3.3-6.1,4.1-1.7.6-3.6.6-5.3,1.3-1.5.7-3.1,1.6-3.8,3.2-1.5,13.5-.8,47.6-1.4,50.8,0,2.4.7,5.3,2.3,7.2,2.6,2,6,1.8,9,3.3,3.7,1.6,6.7,4.4,10.7,5.4,3.4.6,7.7.3,10.8-1.2,3.2-2.6,7.4-4.3,11.1-6.1,8.8-1.5,5.9-5.6,5.9-12.4s.2-35.9.4-39.9h0Z"/>
      <path id="STROKE_83b89bb5-c97a-4978-8b5b-8c6188e0d7bf" d="M898.9,571.7c-3.6-.3-7.6.3-11.2,0l3.1-11.7c-3.8-.9-3.3-6.2.2-7.4,5.2-1.9,8.7,3.6,4.5,7.4,1.6,3.5,2.2,8.5,3.4,11.7Z"/>
      <path id="STROKE_21892804-7473-43f1-b334-ee133600dc6f" class="st3" d="M878.1,521.2c-4.1-2.7-7.6,3.4-3.8,6.1,4.4,2.3,8.1-3.2,3.8-6.1Z"/>
      <path id="STROKE_8e44438a-63e8-483c-ada8-f304817a770f" class="st3" d="M878.3,531.5c-3.5-2.9-7.8,2.7-4.4,5.6,1.3,1.1,3.5.8,4.8,0s1.3-2.9.7-4.2c-.3-.6-.8-.9-1.2-1.4h.1Z"/>
      <path id="STROKE_7d6b1481-7325-4e71-afd0-f58c83e234ed" class="st3" d="M887.7,529.5c-4.1-.8-5.7,5.6-1.6,6.6,4.7,1.2,6.1-5.4,1.6-6.6Z"/>
      <path id="STROKE_2cb55cc3-f657-4b46-a465-398ac8e582cb" class="st3" d="M888.1,519.2c-.9-.7-2.2-.2-3,.3-1.9.9-2.6,4-.9,5.4,1.7,1.3,4.4,1,5.5-.9,1.3-2,.2-3.7-1.6-4.8Z"/>
      <path id="STROKE_f42f6a34-e5ce-45b0-b94c-f06b6633d1c3" class="st3" d="M898.9,519c-4.4-1-6.7,4.9-2.3,6.8,4.9,2.2,7-5.4,2.3-6.8Z"/>
      <path id="STROKE_e98b1668-c006-4fe4-91fa-d87d99993a69" class="st3" d="M898.3,529c-1.2-.4-2.3.6-3.1,1.3-1.9,2-.4,5.2,2.3,5.4,2.7.6,4.3-1.9,3.9-4.3-.4-1.4-1.8-2.1-3.1-2.4h0Z"/>
      <path id="STROKE_263573b7-af75-4891-9917-38fa02fab05b" class="st3" d="M908.5,519.3c-4.9,0-5.9,7.2-.4,7.3,2.1.2,3.6-1.8,3.7-3.7,0-1.7-1.6-3.2-3.3-3.5h0Z"/>
      <path id="STROKE_9e3fe9a4-3858-4c19-bbc0-3c6edd923f83" class="st3" d="M908.4,529.5c-1.1-.4-2.1.7-2.8,1.4-2.1,2.3-.5,5.7,2.6,5.7,4.2-.3,4.7-6.5.3-7.1h0Z"/>
      <path id="STROKE_27262494-8ca9-49a8-b35a-2080088992dd" class="st3" d="M888,539.8c-4.5-.5-5.2,6.5-.6,6.8,2.2.3,4-1.7,3.8-3.8-.3-1.5-1.6-2.9-3.2-3Z"/>
      <path id="STROKE_47a52843-7927-4b2d-b3ca-1a1e2138bfcb" class="st3" d="M878.2,541.8c-5.3-1.2-6.5,6.6-.9,7,3.8,0,4.5-6.1.9-7Z"/>
      <path id="STROKE_c4de5077-096c-44ef-ab13-cc563d6e1168" class="st3" d="M898.6,539.3c-4.5-.5-5.2,6.5-.6,6.8,4.7.3,5.1-6.2.6-6.8Z"/>
      <path id="STROKE_697347d4-9398-442a-b1d4-87646ffcdc1d" class="st3" d="M908,540.7c-4.5-.5-5.2,6.5-.6,6.8,2.2.3,4-1.7,3.8-3.8-.3-1.5-1.6-2.9-3.2-3Z"/>
    </g>
  </g>
  <path id="Panel" class="st0" d="M917.7,527.3c0-3.5.9-9-3.2-10.4-6.1-.7-8.1-2.2-12.9-5.6-6-4-11.3-3-17.4.3-2.1,1.3-3.7,3.3-6.1,4.1-1.7.6-3.6.6-5.3,1.3-1.5.7-3.1,1.6-3.8,3.2-1.5,13.5-.8,47.6-1.4,50.8,0,2.4.7,5.3,2.3,7.2,2.6,2,6,1.8,9,3.3,3.7,1.6,6.7,4.4,10.7,5.4,3.4.6,7.7.3,10.8-1.2,3.2-2.6,7.4-4.3,11.1-6.1,8.8-1.5,5.9-5.6,5.9-12.4s.2-35.9.4-39.9h0Z"/>
</svg>