<?xml version="1.0" encoding="UTF-8"?>
<svg id="Ebene_1" xmlns="http://www.w3.org/2000/svg" version="1.1" viewBox="0 0 1600 900">
  <!-- Generator: Adobe Illustrator 29.1.0, SVG Export Plug-In . SVG Version: 2.1.0 Build 142)  -->
  <defs>
    <style>
      .st0 {
        fill: none;
        stroke: #010101;
      }

      .st0, .st1, .st2 {
        stroke-width: 3px;
      }

      .st0, .st2 {
        stroke-linecap: round;
        stroke-linejoin: round;
      }

      .st1 {
        fill: #fff;
        stroke-miterlimit: 10;
      }

      .st1, .st2 {
        stroke: #000;
      }

      .st2 {
        fill: #00e8ff;
      }

      .st3 {
        fill: #ff4037;
      }
    </style>
  </defs>
  <rect class="st3" width="1600" height="900"/>
  <path id="STROKE_fe8067e2-ff7f-476b-85ca-820c081faeef" class="st2" d="M1049.1,340.9c.9-30.2,8.2-77.9-27.6-90.8-53-6.2-70.3-19.4-112.5-49.2-52.4-34.9-98.6-25.9-151.1,2.6-18.2,11.3-32.3,29-53,36.1-14.7,5.6-31.6,5.5-46.2,11.4-13.3,6.2-27.2,14.2-33,28.2-12.9,117.6-6.7,414.5-12,441.9-.3,21.1,6.2,46.2,20,62.6,22.9,17.7,52.2,15.4,77.9,28.6,32.1,13.7,58.6,38.6,92.9,47.2,29.6,5.3,66.7,2.9,93.8-10.4,28.3-22.6,64-37.4,96.5-53,76.4-13.4,51.6-48.4,51-107.8,0-32.8,1.7-312,3.4-347.3h-.1Z"/>
  <path id="Ok" d="M885.5,727.2c-31.5-3-66.5,2.6-97.2,0l27.3-101.6c-33.5-8.1-28.6-54.2,1.4-64.1,45.5-16.7,75.7,31.2,39.2,64.1,14,30.8,19.3,73.9,29.4,101.6h-.1Z"/>
  <g id="Numbers">
    <path id="_x23_" class="st1" d="M964.5,457.8c-38.9-4.1-45.2,56.6-5.3,58.9,18.8,2.6,34.9-14.5,32.9-33-2.6-13.2-13.7-25.2-27.5-25.9h-.1Z"/>
    <path id="_x2A_" class="st1" d="M882.5,445.1c-38.9-4.1-45.2,56.6-5.3,58.9,40.5,2.8,44.5-54,5.3-58.9Z"/>
    <path id="_x30_" class="st1" d="M790.4,449.6c-38.9-4.1-45.2,56.6-5.3,58.9,18.8,2.6,34.9-14.5,32.9-33-2.6-13.3-13.7-25.2-27.6-25.9h0Z"/>
    <path id="_x39_" class="st1" d="M704.8,466.9c-46.2-10.2-56.4,57.1-7.7,61.2,33.1,1.2,38.8-53.3,7.7-61.2Z"/>
    <path id="_x38_" class="st1" d="M967.6,360.1c-9.8-3.2-17.8,6.4-24.6,12.2-18.5,19.6-4.3,49.9,22.2,50,36.4-2.5,40.7-56.8,2.4-62.2h0Z"/>
    <path id="_x37_" class="st1" d="M880.2,355.9c-10.4-3.9-19.8,4.9-26.6,11.7-16.2,17.6-3.3,45.2,19.7,47.2,23.4,5.4,37.4-16.5,33.6-37.7-3.3-11.8-15.7-18.3-26.7-21.2Z"/>
    <path id="_x36_" class="st1" d="M787.6,360.2c-35.6-7.3-49.5,49-13.6,57.3,40.9,10.2,53-47.4,13.6-57.3Z"/>
    <path id="_x35_" class="st1" d="M705.9,377.5c-30.7-25.6-68.2,23.7-37.9,48.9,11.4,9.7,30,6.5,42.2-.3,11.3-7.1,11.3-25.2,6.3-36.3-2.2-5.4-6.9-8.1-10.5-12.3h0Z"/>
    <path id="_x34_" class="st1" d="M968.6,271c-43-.9-51.3,62.8-3.9,63.3,17.9,1.3,31.3-15.9,32.2-32.6-.9-15.1-13.9-27.7-28.3-30.7Z"/>
    <path id="_x33_" class="st1" d="M884.9,268.6c-38.5-8.9-58.2,42.9-19.8,59,42.2,19.5,61-46.7,19.8-59Z"/>
    <path id="_x32_" class="st1" d="M791.5,270.3c-7.8-6.3-18.8-2.1-26.3,2.8-16.8,7.8-22.5,35-7.7,47.3,14.6,11.2,38.7,8.7,47.9-8.2,11.7-17.1,1.8-32.5-13.9-41.9Z"/>
    <path id="_x31_" class="st1" d="M704.5,287.5c-35.5-23.2-65.8,29.4-33.2,52.8,37.9,20.3,70.4-27.5,33.2-52.8Z"/>
  </g>
  <g>
    <path id="STROKE_fd41244e-7147-4f98-b3f1-e4453aa86926" class="st0" d="M123.7,0v900"/>
    <path id="STROKE_fd41244e-7147-4f98-b3f1-e4453aa869261" class="st0" d="M1462.1,900V0"/>
    <path id="STROKE_f2fe2cbe-2d48-41ba-abf8-526e7fcf0de92" class="st0" d="M1270.7,0v900"/>
    <path id="STROKE_f2fe2cbe-2d48-41ba-abf8-526e7fcf0de921" class="st0" d="M269,900V0"/>
  </g>
</svg>