<?xml version="1.0" encoding="UTF-8"?>
<svg id="Ebene_1" xmlns="http://www.w3.org/2000/svg" version="1.1" viewBox="0 0 1600 900">
  <!-- Generator: Adobe Illustrator 29.1.0, SVG Export Plug-In . SVG Version: 2.1.0 Build 142)  -->
  <defs>
    <style>
      .st0, .st1 {
        fill: none;
      }

      .st0, .st1, .st2, .st3 {
        stroke-linecap: round;
        stroke-linejoin: round;
        stroke-width: 3px;
      }

      .st0, .st2 {
        stroke: #000;
      }

      .st4 {
        isolation: isolate;
        opacity: .4;
      }

      .st1, .st3 {
        stroke: #010101;
      }

      .st5 {
        fill: #030605;
      }

      .st6 {
        fill: #fff;
      }

      .st2 {
        fill: #737373;
      }
    </style>
  </defs>
  <g>
    <path class="st4" d="M1449.5,60.7l-112.9,3.5v10.1l.2,6.9v5.8c0,0,0,2.5,0,2.5v7.7c0,4,.2,8.2.3,12.6l8.9,439.3v1.7l-69.2-2.7v57.7h322.7v238.7l-27.7-2.2h0v-1.3l-2.4-120v-5.6l-.2-11h-63.5c-10,0-20.1.2-30.2.3h-28.1c-1.7,0-3.4,0-5,0-2.3,0-4.6,0-6.9.2-2,0-3.9,0-5.9.2-11.7.4-22.9.8-33.4,1.4,0,0,0,3.7-.2,10v3.2c-.6,26-1.9,84.4-1.9,121.9-16.6.2-33,.4-49.3.7h-.5c-30.6.5-60.6,1.3-89.2,2-66.3,5.7-149,7.9-224.3,6.8h-.4c-17.9-.3-35.4-.7-52.1-1.3h-.6v-60.1c.2-29.7.5-60.2.8-91.2v-6.5c0-5.6,0-11.1.2-16.7.4-32.9.7-66.2,1-99.5,0-6.1,0-12.2,0-18.2v-5.9c0-5.9,0-11.8,0-17.7v-74.5c0-54.6-.9-107.9-2.6-157.9-2.4-66.7,4-135-27.3-193.4,0-.2-.3-.5-.4-.8-5.7-10.5-12.7-20.7-21.2-30.6-51.1-49.5-133-53.3-197.8-33-118.1,38.4-132,138-132.6,241v28.4c.2,14.1.4,28.1.5,42v.3h0c-2.2,154.4-3.3,333.4-1.1,488.1-18.6.5-36.8,1.1-53.8,1.6-122,1.1-250,2.2-380.2,3.3-1-37.1-2.3-118-2.6-138.9v-5c-52.7,0-110.4,0-161.5,2.7v-104.2l245.5,1.8,30.8.2h.6l.6-58.9h-.6l-1.7.2-55.5,3.5v-4.7c.1,0,.1-2.1.1-2.1l1.9-78.1-.3-56.4h0l-1.7-346.2-104.7-2.6-35.3,1.1L0,64.2V0h1600v63.1s-150.5-2.4-150.5-2.4Z"/>
    <path class="st6" d="M276.9,605.9s-31,.5-78.4.6c-52.7,0-125.6-.3-198.5-2.6v-56.9c3.5,0,6.8,0,10.1.2h0c70,1.1,105.8,0,165.2-.3,13.4,0,27.9,0,44.3,0h0c40.5,0,52.8.2,55.4.5,3.4.3-9.4.8,1.1,1,0,0-1.5,36.6,0,56.6v1.1h.8Z"/>
    <path class="st6" d="M1277.3,605.9v-57.7c23.1,1.1,45.6,2.2,69.2,2.7,110.6-3.3,234.8-3.3,253.5-2.7v57.7s-184.3,4.4-322.7,0Z"/>
    <path class="st6" d="M977.9,852.6c-7.1,0-14.3,0-21.4-1.1-23.6-1.1-45.6-2.7-64.3-4.4-19.2-1.6-42.3-3.3-68.1-3.8-11.5,0-23.1,0-35.2-.5h-25.8c-42.9,0-89.5,1.1-134.6,2.2-9.9,0-19.8,0-29.7.5-2.2-154.9-1.1-334,1.1-488.4-1.1-124.7-13.2-264.3,131.9-311.5,64.8-20.3,146.7-16.5,197.8,33,55.5,64.3,46.1,145.6,48.9,224.7,6,169.8,0,377.4,0,548.3l-.5,1.1h0Z"/>
    <path class="st5" d="M1572.3,842.3h-178.5c0-49.4,2.2-135.1,2.2-135.1,51.1-2.7,120.3-2.7,173.1-2.7,0,0,1.6,95,2.7,137.9h.5Z"/>
    <path class="st5" d="M164.8,850.4c-59.3,0-104.9,1.1-164.8,1.1v-142.3c51.1-2.7,108.8-2.7,161.5-2.7,0,0,1.6,101.1,2.7,143.9h.6Z"/>
  </g>
  <g>
    <path class="st3" d="M0,64.2l79.7-2.6,35.3-1.1,104.7,2.6c0,102.8.5,146.2,0,248.9,0,23.5,1,59.5,1.7,97.3h0l.3,56.4-1.8,78.1v2.1c-16.8,0-31.3.4-44.5.9-59.4.4-95.2,1.4-165.2.3h0c-3.3-.2-6.7-.4-10.1-.6"/>
    <path class="st1" d="M219.7,545.5c0-.5.1-1.1.2-1.6,3-31.7,2.5-84.7,1.6-134.5"/>
    <path class="st1" d="M0,64.2c99.4-7.7,219.7-1.1,219.7-1.1"/>
    <path class="st1" d="M10.2,547.2c81.8,4.3,115.1,1.3,165.2-.3"/>
    <path class="st1" d="M219.8,546c16.4,0,35.1,0,57.1.6v.4c-.2,4.3-1.5,39.2,0,57.8h-.7c-2.8,0-13.7.5-30.7.9-12.6.3-28.6.6-47,.9-52.8.7-125.8.8-198.5-1.7"/>
    <path id="STROKE_d8476e61-867a-4162-8fc7-0e5d6f75bb513" class="st1" d="M79.7,60.8c3.3,72.5,0,188.6.5,250.1.5,61.5,2.2,159.1-.5,236.6"/>
    <path class="st3" d="M1600,546.6c-108-2.7-164.8,4-253.5,2.6l-8.9-439.3c0-4.4-.2-8.7-.2-12.6v-16c0-2.5,0-4.9,0-6.9v-10.1l112.9-3.5,150.5,2.4v483.5h-.7Z"/>
    <path class="st1" d="M1337.5,109.9c.8,41.6,1.8,102.1,1.8,138.9,2.7,100.5,3.8,198.9,7.1,299.4"/>
    <path class="st1" d="M1336.6,64.2c99.5-7.7,263.4-1.1,263.4-1.1"/>
    <path class="st1" d="M1346.5,549.2c-20.9-.3-43.6-1.1-69.2-2.6v58.2c12.5.4,25.4.8,38.5,1.1,82.9,1.9,174.4.9,230.6,0,32.9-.5,53.6-1.1,53.6-1.1"/>
    <path id="STROKE_4757257c-ebb3-4571-88c8-ccf4efc35be9" class="st1" d="M598.8,843.6c-2.7-156.6-1.1-330,.5-486.6-1.1-124.7-13.2-264.3,131.9-311.5,64.8-20.3,146.7-16.5,197.8,33,55.5,64.3,46.1,145.6,48.9,224.7,6,172.5,0,374.1,0,546.1"/>
    <path id="STROKE_a1617108-8446-41f5-8a5b-be6830f7f9da" class="st1" d="M600.5,302.1c123.1-1.1,253.8,0,376.8,1.6"/>
    <path id="STROKE_0faf152b-9e2d-4e57-ba5f-932680965139" class="st1" d="M808.8,48.6c107.3-8,165,137,155.3,240.9,0,0-112.8-3-155.3,0V48.6Z"/>
    <path id="STROKE_0faf152b-9e2d-4e57-ba5f-9326809651391" class="st1" d="M829.7,78.4c80.1-6.6,123.1,111.8,115.9,196.5,0,0-84.1-2.5-115.9,0V78.4Z"/>
    <path id="STROKE_c0deb956-b74d-49c1-b030-3bf5b734d3a4" class="st1" d="M777.6,289.5h-160c5.2-98.6,19-217.5,160-240.9,0,0,4.6,167.1,0,240.9Z"/>
    <path id="STROKE_c0deb956-b74d-49c1-b030-3bf5b734d3a41" class="st1" d="M758.1,274.9h-122.8c4-80.6,14.6-177.7,122.8-196.8,0,0,3.5,136.5,0,196.8Z"/>
    <path id="STROKE_82897ddd-29b3-4eae-815b-636dc842e080" class="st1" d="M794.4,301.6c1.1,176.9-6,360.9-6,537.8"/>
    <path id="STROKE_fd41244e-7147-4f98-b3f1-e4453aa86926" class="st1" d="M965.2,851.1c-2.6-169.6-6.4-365.2,0-533.8h-153.8c0,170.8-5.7,354.5,0,524.1"/>
    <path id="STROKE_f2fe2cbe-2d48-41ba-abf8-526e7fcf0de9" class="st1" d="M620.1,843.2c-5.7-157.8,0-368.6,0-525.9h155.2c0,84.6,9.5,356.8,0,522.5"/>
    <path id="STROKE_f2fe2cbe-2d48-41ba-abf8-526e7fcf0de91" class="st1" d="M636.4,843.2c-4.4-159.4,0-349.5,0-508.3h118.8c0,85.4,7.3,338.9,0,506.3"/>
    <path id="STROKE_f2fe2cbe-2d48-41ba-abf8-526e7fcf0de92" class="st1" d="M828.1,843.2c-4.2-159.4,0-349.5,0-508.3h115.1c0,85.4,7.1,348,0,515.3"/>
    <path id="STROKE_bfa85e7a-f114-4426-8ef0-cfa2d26cfbc1" class="st1" d="M1394.3,842.3c-.5-48.3,2.2-133.1,2.2-133.1,51.1-2.7,120.3-2.7,173.1-2.7,0,0,2.2,94.8,2.7,136.6"/>
    <path id="STROKE_bfa85e7a-f114-4426-8ef0-cfa2d26cfbc11" class="st1" d="M0,709.2c51.1-2.7,108.8-2.7,161.5-2.7,0,0,2.2,101.1,2.7,142.8"/>
    <path id="STROKE_1807cf41-4dba-4c47-a1a4-ba3d120427bd" class="st1" d="M1600,845.5c-63.9-5.3-272.8-3.4-430,1-100.9,8.8-242.8,5.8-323.6-2-71.5-6.9-205.6-1.4-309.4,2-196,1.8-537,4.7-537,4.7"/>
  </g>
  <g id="Pen">
    <path id="STROKE_e794faba-2c6c-40b1-aea2-463e0fad7daf" class="st2" d="M893.5,553.4c0-9.5-1.1-17.3,0-26.7h-2.2c0-3.9-3.3-7.2-6.7-9.5-7.2-3.9-12.8,2.8-14.5,9.5h-2.8c2.2,16.1,0,32.3,0,49v37.9h3.9c0,13.9,19.5,11.1,18.4,0h3.3c1.1-7.2.6-15,1.1-22.8,0-10,.6-19.5,0-29.5"/>
    <path id="STROKE_5b0dff44-5819-402c-938b-7fc02ad3d1a2" class="st0" d="M873.6,549c-6.1-2.8-6.9,5.1-.8,5.1"/>
    <path id="STROKE_44ecc3fc-27be-4992-9667-efc6ec1dfb3b" class="st2" d="M885.7,557.9c4.5,0,8.3,3.3,13.4,3.9,6.1,1.1,10.6-4.5,16.1-5.6,4.5,0,7.2,5,12.2,3.9,9.5-3.3-1.1-13.4-6.7-13.9-5,0-9.5,3.3-13.9,5.6-3.3,1.7-7.2,1.7-10.6,1.7s-7.2-2.2-9.4-3.3"/>
    <path id="STROKE_c1cf3f78-023f-4609-8f18-def9f0841b79" class="st0" d="M881.9,554.5c1.2-1-.3-3.9-1.9-3.3-2.7,1.1-.7,5.3,1.9,3.3Z"/>
    <path id="STROKE_0dc345e6-1893-40fd-b1cf-7c48742b1ff1" class="st0" d="M881.1,546c-9.4-2.3-9.9,11.3-2.6,13.5,2.8,0,6.7,0,7.8-3.3,1.7-4.5,1.6-8.5-5.2-10.2Z"/>
  </g>
</svg>