<?xml version="1.0" encoding="UTF-8"?>
<svg id="Ebene_1" xmlns="http://www.w3.org/2000/svg" version="1.1" viewBox="0 0 1600 900">
  <!-- Generator: Adobe Illustrator 29.1.0, SVG Export Plug-In . SVG Version: 2.1.0 Build 142)  -->
  <defs>
    <style>
      .st0, .st1, .st2, .st3 {
        fill: none;
      }

      .st1, .st4, .st5, .st2, .st3, .st6, .st7 {
        stroke-linecap: round;
      }

      .st1, .st4, .st5, .st2, .st3, .st6, .st7, .st8 {
        stroke-width: 3px;
      }

      .st1, .st4, .st5, .st3, .st6, .st7 {
        stroke-linejoin: round;
      }

      .st1, .st5, .st8 {
        stroke: #000;
      }

      .st4 {
        fill: #f0e400;
      }

      .st4, .st6, .st7 {
        stroke: #010101;
      }

      .st9 {
        fill: #fff;
      }

      .st2, .st3 {
        stroke: #fff;
      }

      .st2, .st8 {
        stroke-miterlimit: 10;
      }

      .st7 {
        fill: #e52421;
      }
    </style>
  </defs>
  <rect class="st9" width="1600" height="900"/>
  <path class="st1" d="M1117.6,327.4c1.2-58.8,6.6-116.8,7.2-175.8,0-39.4-3.2-77.7-4.9-116.5-32.1-7-72.4,3.1-105.2,2.3-36.5.6-69.6-3.4-106.9-2.5-22.8,0-39,.6-60-.2-22.4-.8-39.5-5.4-62.8-5.8-30.3-1.7-43.2,3.5-74.1,3.9-34.4,1.4-65.3,0-98.6-1.5-23.4-.7-61.5,1.6-85.2,1.5-18.5,0-29.3.7-45.4,4.1,0,0-.6-.3-.6,2.7,0,22.7-2.3,45.8-3.7,68.4,0,39.7-.6,81.4-2.1,121.3,1.3,52,1.8,104.9,3,157.2.4,39,2.3,78.4,1.4,117.1-.2,20.7.6,52.2,1.3,72.7-.9,33.1-2.7,67-2.5,100.2,1.8,49.5,6.4,101.2,2.8,150.6,0,6.8-1.5,16.9-1.9,23.9,0,1.8-.2,3.8-.3,6.2,0,2.3,3.5,1.5,4,1.4,19.8-1.4,42.5,2,62.4,2.9,14.8,0,28.6,1.6,43.1,3.5,30.5,2.1,61.9,4.4,92.4,6.5,40.1-.2,81.4-2.8,121.7-2.9,78.3,1.8,157.1.5,235.3-.6,26.6-1.5,51.6-4.7,78-3.1,1.7,0,2.2-.6,2.2-3.5,0-11.5-.3-27.1,0-39.2,2.1-124.5,0-248.4,2-373-.4-41.4-5.6-81-2.8-121.9h.2ZM754.1,320.2c-1-4-.6-9.1-.6-13.4-.2-4.9-1.3-10.6-1-15.5,1.1-9-.2-19.2.2-28.1,10.8-.7,22.3-1.4,33.3-.2,13.7.4,28.4,0,42.2,0,30.6-.5,61.4-2,92.1-1.3,11.2.3,22.5.8,33.7,1.9.4,17.3.5,34.8,1.3,52.3,0,1.3-.2,4.7-.2,4.8-1.3.3-7,.2-8.9,0-8.7-.2-17.3-.6-26-1-6.8-.3-13.5-.6-20.4-.8-13.2,0-25.9,1.7-39.2,1.5-20.3,0-40.4-.6-60.7.1-15.3.4-30.8-1.6-45.8-.4h0Z"/>
  <path id="STROKE_35de620a-35bb-4634-aac9-87d6c1bf690a" class="st1" d="M552.1,404.6c-1.1-11.5.3-22.7.4-34.6-.7-20,1.7-40.1.9-60-1.7-22.3-.9-44.8-1.2-67.2-1.1-22.4-1.7-45.6-.8-67.9,7.3.4,15.6,1.6,23.1,1.7,9.6-1,18.6-3.3,28.5-3,13.1-.9,26.9.4,39.9.5,12.9-.8,27.1-.7,40,0,1.8,15.6-1,32.1-1.8,48-1.6,14.9.3,26.8,1,41.8,0,16.2,0,29.9.6,46-.3,18.7-1.3,38.2,1.3,56.7.5,13-2.4,26.3-1.4,39.3-14.9-.4-30.6,1.7-45.6.5-11.4.1-23.2,1.4-34.6.5-16.5-.8-33.8-3.2-50.2-2.2h-.1Z"/>
  <g>
    <path id="STROKE_62498702-d714-402d-98fb-bb28389b9080" class="st1" d="M589.6,185.1c-4.2-2.5-9.1.2-12.4,2.9-3.6,4.2-4.4,12,.5,15.5,5.8,4.6,15.6,2,16.9-5.7,1.5-5.2-.3-10.1-5-12.8h0Z"/>
    <path id="STROKE_c51e1bf6-5531-4dac-9aaa-10095c4901f1" class="st1" d="M581.7,190c1.7,3.7,3.9,6.6,6.1,10.1"/>
    <path id="STROKE_1d93c91f-947a-4b2d-87a9-b7be0b167060" class="st1" d="M589.4,191.7c-3.5,1.4-6.4,4.3-9.4,6.7"/>
  </g>
  <g>
    <path id="STROKE_62498702-d714-402d-98fb-bb28389b90801" class="st1" d="M647.2,379c-4.8.3-7.4,5.3-8.6,9.5-.6,5.5,3.2,12.3,9.2,12.5,7.4.5,14-7.2,10.7-14.3-1.7-5.1-6-8.1-11.4-7.7h0Z"/>
    <path id="STROKE_c51e1bf6-5531-4dac-9aaa-10095c4901f11" class="st1" d="M643.4,387.5c3.5,2.1,6.9,3.2,10.7,4.9"/>
    <path id="STROKE_1d93c91f-947a-4b2d-87a9-b7be0b1670601" class="st1" d="M650.8,384.5c-2.1,3.2-2.9,7.2-4,10.8"/>
  </g>
  <g>
    <path id="STROKE_62498702-d714-402d-98fb-bb28389b90802" class="st1" d="M716.9,186.9c-3.7,3.1-2.8,8.7-1.3,12.7,2.8,4.8,9.9,8.1,14.8,4.6,6.3-4,7-14.1,0-17.9-4.4-3.2-9.6-3-13.7.5h.2Z"/>
    <path id="STROKE_c51e1bf6-5531-4dac-9aaa-10095c4901f12" class="st1" d="M718.9,196c4.1-.4,7.5-1.5,11.6-2.4"/>
    <path id="STROKE_1d93c91f-947a-4b2d-87a9-b7be0b1670602" class="st1" d="M723.1,189.2c.2,3.8,2,7.5,3.2,11.1"/>
  </g>
  <g>
    <path id="STROKE_62498702-d714-402d-98fb-bb28389b90803" class="st1" d="M973.5,385.8c-1.2,4.7,2.7,8.7,6.2,11.2,5,2.3,12.7.9,14.8-4.7,2.9-6.9-2.4-15.6-10.2-14.7-5.4,0-9.6,3.1-10.9,8.3h.1Z"/>
    <path id="STROKE_c51e1bf6-5531-4dac-9aaa-10095c4901f13" class="st1" d="M980.4,392.1c3.1-2.7,5.3-5.5,8.1-8.6"/>
    <path id="STROKE_1d93c91f-947a-4b2d-87a9-b7be0b1670603" class="st1" d="M980,384.2c2.4,3,5.9,5,9,7.2"/>
  </g>
  <g>
    <path id="STROKE_62498702-d714-402d-98fb-bb28389b90804" class="st1" d="M866.5,513.6c1.3,4.7,6.7,6.2,11,6.5,5.5-.5,11.5-5.6,10.4-11.5-1-7.4-9.9-12.2-16.2-7.6-4.7,2.7-6.7,7.5-5.2,12.7h0Z"/>
    <path id="STROKE_c51e1bf6-5531-4dac-9aaa-10095c4901f14" class="st1" d="M875.6,515.6c1.3-3.9,1.8-7.4,2.7-11.5"/>
    <path id="STROKE_1d93c91f-947a-4b2d-87a9-b7be0b1670604" class="st1" d="M871.3,509c3.6,1.4,7.6,1.4,11.4,1.7"/>
  </g>
  <g>
    <path id="STROKE_62498702-d714-402d-98fb-bb28389b90805" class="st1" d="M711.9,520.1c4.7,1.1,8.7-2.8,11-6.5,2.2-5.1.7-12.7-5.1-14.7-6.9-2.7-15.5,2.7-14.5,10.5,0,5.4,3.3,9.5,8.6,10.7Z"/>
    <path id="STROKE_c51e1bf6-5531-4dac-9aaa-10095c4901f15" class="st1" d="M718,513.1c-2.7-3-5.6-5.1-8.8-7.9"/>
    <path id="STROKE_1d93c91f-947a-4b2d-87a9-b7be0b1670605" class="st1" d="M710.1,513.8c3-2.4,4.9-6,7-9.1"/>
  </g>
  <g>
    <path id="STROKE_62498702-d714-402d-98fb-bb28389b90806" class="st1" d="M588.2,518.6c4.7-1.2,6.3-6.6,6.7-10.9-.4-5.5-5.4-11.5-11.4-10.6-7.4.8-12.4,9.7-7.9,16.1,2.6,4.7,7.4,6.9,12.6,5.5h0Z"/>
    <path id="STROKE_c51e1bf6-5531-4dac-9aaa-10095c4901f16" class="st1" d="M590.3,509.5c-3.8-1.4-7.4-1.9-11.4-2.9"/>
    <path id="STROKE_1d93c91f-947a-4b2d-87a9-b7be0b1670606" class="st1" d="M583.6,513.8c1.5-3.5,1.5-7.6,1.9-11.4"/>
  </g>
  <g>
    <path id="STROKE_62498702-d714-402d-98fb-bb28389b90807" class="st1" d="M659.3,708.3c3.2-3.7,1.5-9-.6-12.8-3.5-4.3-11-6.5-15.4-2.3-5.6,4.9-4.8,15,2.6,17.7,4.8,2.5,10,1.5,13.5-2.6h0Z"/>
    <path id="STROKE_c51e1bf6-5531-4dac-9aaa-10095c4901f17" class="st1" d="M656,699.6c-3.9,1-7.2,2.6-11.1,4.1"/>
    <path id="STROKE_1d93c91f-947a-4b2d-87a9-b7be0b1670607" class="st1" d="M652.9,706.9c-.8-3.7-3.1-7.1-4.8-10.5"/>
  </g>
  <g>
    <path id="STROKE_62498702-d714-402d-98fb-bb28389b90808" class="st1" d="M778.9,691.6c-4.8-.5-8.2,3.9-10.1,7.8-1.6,5.3.9,12.7,6.9,14,7.2,1.8,15-4.6,13.1-12.2-.7-5.4-4.5-9-9.8-9.6h-.1Z"/>
    <path id="STROKE_c51e1bf6-5531-4dac-9aaa-10095c4901f18" class="st1" d="M773.7,699.3c3.1,2.7,6.2,4.4,9.7,6.7"/>
    <path id="STROKE_1d93c91f-947a-4b2d-87a9-b7be0b1670608" class="st1" d="M781.4,697.7c-2.6,2.8-4.1,6.6-5.8,9.9"/>
  </g>
  <g>
    <path id="STROKE_62498702-d714-402d-98fb-bb28389b90809" class="st1" d="M979.4,693.6c-4.4,2.1-5,7.6-4.5,11.9,1.5,5.3,7.5,10.3,13.2,8.3,7.1-2.2,10.4-11.8,4.7-17.2-3.4-4.2-8.5-5.4-13.4-3h0Z"/>
    <path id="STROKE_c51e1bf6-5531-4dac-9aaa-10095c4901f19" class="st1" d="M979,702.9c4,.6,7.6.5,11.8.7"/>
    <path id="STROKE_1d93c91f-947a-4b2d-87a9-b7be0b1670609" class="st1" d="M984.8,697.4c-.8,3.7,0,7.8.3,11.5"/>
  </g>
  <g>
    <path id="STROKE_3130f845-ded9-45eb-bfed-17106dcadc911" class="st4" d="M675.4,533.7c.3,4-1,7.8-1,11.7-17.6.3-35.6,1-53.2.4-.2-4.4-.2-10.6.6-15,13.6.4,27.2,1.6,40.8.6,4.2-.6,8.6.3,12.7.3v1.9h.1Z"/>
    <path id="STROKE_ec931091-db03-4a77-b4a3-6598c35818fc1" class="st1" d="M636.1,574.1c.9,13.7-1.7,27.6-.6,41.2,3.9,1.2,7.9-.2,12,0,4.4-.3,8.9.5,13.1-.8,1.2-13.4.9-27.2.5-40.6"/>
    <path id="STROKE_974287da-d3e1-4e36-bd2e-73f0102118661" class="st8" d="M645.4,549.9c-7.9.3-16,.2-23.9,0,0,3.6-.6,8.2-.2,11.7h2.3c0,3.2,0,8.1.4,11.3,16.3,1.5,33,0,49.3-.3-.3-3.2-.3-8.2-.6-11.5h3c-.4-3.4,0-7.4-.4-10.6,0,0-19.9,0-29.9-.6h0Z"/>
    <path id="STROKE_e863fc25-119a-436a-9524-f00d4e2fe5311" class="st1" d="M626.9,667.5c12.4-.8,25.3.4,37.7.5h0"/>
  </g>
  <g>
    <path id="STROKE_3130f845-ded9-45eb-bfed-17106dcadc912" class="st4" d="M613.3,533.7c.3,4-1,7.8-1,11.7-17.6.3-35.6,1-53.2.4-.2-4.4-.2-10.6.6-15,13.6.4,27.2,1.6,40.8.6,4.2-.6,8.6.3,12.7.3v1.9h.1Z"/>
    <path id="STROKE_ec931091-db03-4a77-b4a3-6598c35818fc2" class="st1" d="M574,574.1c.9,13.7-1.7,27.6-.6,41.2,3.9,1.2,7.9-.2,12,0,4.4-.3,8.9.5,13.1-.8,1.2-13.4.9-27.2.5-40.6"/>
    <path id="STROKE_974287da-d3e1-4e36-bd2e-73f0102118662" class="st8" d="M583.3,549.9c-7.9.3-16,.2-23.9,0,0,3.6-.6,8.2-.2,11.7h2.3c0,3.2,0,8.1.4,11.3,16.3,1.5,33,0,49.3-.3-.3-3.2-.3-8.2-.6-11.5h3c-.4-3.4,0-7.4-.4-10.6,0,0-19.9,0-29.9-.6h0Z"/>
    <path id="STROKE_e863fc25-119a-436a-9524-f00d4e2fe5312" class="st1" d="M564.8,667.5c12.4-.8,25.3.4,37.7.5h0"/>
  </g>
  <g>
    <path id="STROKE_3130f845-ded9-45eb-bfed-17106dcadc913" class="st7" d="M613.3,219.7c.3,4-1,7.8-1,11.7-17.6.3-35.6,1-53.2.4-.2-4.4-.2-10.6.6-15,13.6.4,27.2,1.6,40.8.6,4.2-.6,8.6.3,12.7.3v1.9h.1Z"/>
    <path id="STROKE_ec931091-db03-4a77-b4a3-6598c35818fc3" class="st1" d="M574,260.1c.9,13.7-1.7,27.6-.6,41.2,3.9,1.2,7.9-.2,12-.1,4.4-.3,8.9.5,13.1-.8,1.2-13.4.9-27.2.5-40.6"/>
    <path id="STROKE_974287da-d3e1-4e36-bd2e-73f0102118663" class="st8" d="M583.3,236c-7.9.3-16,.2-23.9,0,0,3.6-.6,8.2-.2,11.7h2.3c0,3.2,0,8.1.4,11.3,16.3,1.5,33,0,49.3-.3-.3-3.2-.3-8.2-.6-11.5h3c-.4-3.4,0-7.4-.4-10.6,0,0-19.9,0-29.9-.6h0Z"/>
    <path id="STROKE_e863fc25-119a-436a-9524-f00d4e2fe5313" class="st1" d="M564.8,353.5c12.4-.8,25.3.4,37.7.5h0"/>
  </g>
  <g>
    <path id="STROKE_3130f845-ded9-45eb-bfed-17106dcadc914" class="st7" d="M676.3,219.7c.3,4-1,7.8-1,11.7-17.6.3-35.6,1-53.2.4-.2-4.4-.2-10.6.6-15,13.6.4,27.2,1.6,40.8.6,4.2-.6,8.6.3,12.7.3v1.9h.1Z"/>
    <path id="STROKE_ec931091-db03-4a77-b4a3-6598c35818fc4" class="st1" d="M637,260.1c.9,13.7-1.7,27.6-.6,41.2,3.9,1.2,7.9-.2,12-.1,4.4-.3,8.9.5,13.1-.8,1.2-13.4.9-27.2.5-40.6"/>
    <path id="STROKE_974287da-d3e1-4e36-bd2e-73f0102118664" class="st8" d="M646.3,236c-7.9.3-16,.2-23.9,0,0,3.6-.6,8.2-.2,11.7h2.3c0,3.2,0,8.1.4,11.3,16.3,1.5,33,0,49.3-.3-.3-3.2-.3-8.2-.6-11.5h3c-.4-3.4,0-7.4-.4-10.6,0,0-19.9,0-29.9-.6h0Z"/>
    <path id="STROKE_e863fc25-119a-436a-9524-f00d4e2fe5314" class="st1" d="M627.8,353.5c12.4-.8,25.3.4,37.7.5h0"/>
  </g>
  <g>
    <path id="STROKE_3130f845-ded9-45eb-bfed-17106dcadc915" class="st4" d="M804.2,533.7c.3,4-1,7.8-1,11.7-17.6.3-35.6,1-53.2.4-.2-4.4-.2-10.6.6-15,13.6.4,27.2,1.6,40.8.6,4.2-.6,8.6.3,12.7.3v1.9h.1Z"/>
    <path id="STROKE_ec931091-db03-4a77-b4a3-6598c35818fc5" class="st1" d="M764.9,574.1c.9,13.7-1.7,27.6-.6,41.2,3.9,1.2,7.9-.2,12,0,4.4-.3,8.9.5,13.1-.8,1.2-13.4.9-27.2.5-40.6"/>
    <path id="STROKE_974287da-d3e1-4e36-bd2e-73f0102118665" class="st8" d="M774.2,549.9c-7.9.3-16,.2-23.9,0,0,3.6-.6,8.2-.2,11.7h2.3c0,3.2,0,8.1.4,11.3,16.3,1.5,33,0,49.3-.3-.3-3.2-.3-8.2-.6-11.5h3c-.4-3.4,0-7.4-.4-10.6,0,0-19.9,0-29.9-.6h0Z"/>
    <path id="STROKE_e863fc25-119a-436a-9524-f00d4e2fe5315" class="st1" d="M755.7,667.5c12.4-.8,25.3.4,37.7.5h0"/>
  </g>
  <g>
    <path id="STROKE_f6f14690-1255-4ae3-826b-1c15b07fdfb6" class="st1" d="M587.5,379c-3.8-.7-9.1,0-11.2,3.7-3.7,6.5-.4,17.2,7.9,17.2,8.3,1.2,13.2-7.3,10-14.5-1.1-3.3-3.2-5.9-6.8-6.4h0Z"/>
    <path id="STROKE_e71843d4-ad5b-45cf-ba03-4a466e33dd54" class="st1" d="M585.3,384.1c-.2,3.5,0,7.2-.7,10.7"/>
    <path id="STROKE_ea661a13-b10c-43d8-8c5d-b9016a04d3df" class="st1" d="M580.1,388.1c3.2.5,6.8,1,9.7,2.5"/>
  </g>
  <g>
    <path id="STROKE_f6f14690-1255-4ae3-826b-1c15b07fdfb61" class="st1" d="M719.4,381.7c-3.6,1.3-7.9,4.5-7.9,8.8,0,7.5,8.1,15.1,15.4,11,7.8-3.1,7.8-12.9,1.5-17.6-2.6-2.3-5.7-3.6-9-2.2h0Z"/>
    <path id="STROKE_e71843d4-ad5b-45cf-ba03-4a466e33dd541" class="st1" d="M720,387.1c1.6,3.1,3.5,6.4,4.7,9.6"/>
    <path id="STROKE_ea661a13-b10c-43d8-8c5d-b9016a04d3df1" class="st1" d="M717.5,393.2c3.1-1.2,6.4-2.5,9.7-2.6"/>
  </g>
  <g>
    <path id="STROKE_f6f14690-1255-4ae3-826b-1c15b07fdfb62" class="st1" d="M646.3,186c-3.6,1.3-7.9,4.5-7.9,8.8,0,7.5,8.1,15.1,15.4,11,7.8-3.1,7.8-12.9,1.5-17.6-2.6-2.3-5.7-3.6-9-2.2Z"/>
    <path id="STROKE_e71843d4-ad5b-45cf-ba03-4a466e33dd542" class="st1" d="M646.9,191.4c1.6,3.1,3.5,6.4,4.7,9.6"/>
    <path id="STROKE_ea661a13-b10c-43d8-8c5d-b9016a04d3df2" class="st1" d="M644.4,197.6c3.1-1.2,6.4-2.5,9.7-2.6"/>
  </g>
  <g>
    <path id="STROKE_f6f14690-1255-4ae3-826b-1c15b07fdfb63" class="st1" d="M994.8,502.8c-1.9-3.4-5.8-7-10-6.2-7.4,1.3-13.4,10.7-8.1,17.1,4.4,7.1,14.1,5.4,17.6-1.6,1.8-3,2.5-6.2.6-9.3h0Z"/>
    <path id="STROKE_e71843d4-ad5b-45cf-ba03-4a466e33dd543" class="st1" d="M989.6,504.3c-2.8,2.1-5.6,4.6-8.6,6.3"/>
    <path id="STROKE_ea661a13-b10c-43d8-8c5d-b9016a04d3df3" class="st1" d="M983.1,502.9c1.7,2.8,3.6,5.9,4.3,9.1"/>
  </g>
  <g>
    <path id="STROKE_f6f14690-1255-4ae3-826b-1c15b07fdfb64" class="st1" d="M865.3,704.9c0,3.9,1.5,9,5.5,10.4,7,2.6,17-2.5,15.6-10.7-.2-8.3-9.4-11.8-16-7.4-3.1,1.7-5.3,4.2-5.2,7.7h.1Z"/>
    <path id="STROKE_e71843d4-ad5b-45cf-ba03-4a466e33dd544" class="st1" d="M870.6,706.2c3.5-.4,7.2-1.1,10.7-1.1"/>
    <path id="STROKE_ea661a13-b10c-43d8-8c5d-b9016a04d3df4" class="st1" d="M875.5,710.6c0-3.3,0-6.9.8-10"/>
  </g>
  <g>
    <path id="STROKE_f6f14690-1255-4ae3-826b-1c15b07fdfb65" class="st1" d="M707.3,711.4c3.2,2.2,8.3,3.6,11.7,1,6-4.5,7.2-15.6-.4-19-7.1-4.3-15,1.5-14.9,9.4-.3,3.5.6,6.7,3.7,8.6h0Z"/>
    <path id="STROKE_e71843d4-ad5b-45cf-ba03-4a466e33dd545" class="st1" d="M711.2,707.6c1.5-3.1,3-6.6,4.9-9.5"/>
    <path id="STROKE_ea661a13-b10c-43d8-8c5d-b9016a04d3df5" class="st1" d="M717.6,705.9c-2.8-1.7-5.8-3.6-7.9-6.2"/>
  </g>
  <g>
    <path id="STROKE_f6f14690-1255-4ae3-826b-1c15b07fdfb66" class="st1" d="M577.9,713.1c3.8.8,9.1.3,11.3-3.3,4-6.3,1.1-17.1-7.3-17.5-8.2-1.5-13.4,6.8-10.5,14.2,1,3.4,3,6,6.5,6.6Z"/>
    <path id="STROKE_e71843d4-ad5b-45cf-ba03-4a466e33dd546" class="st1" d="M580.2,708.2c.3-3.5.4-7.2,1.1-10.7"/>
    <path id="STROKE_ea661a13-b10c-43d8-8c5d-b9016a04d3df6" class="st1" d="M585.5,704.3c-3.2-.6-6.7-1.3-9.6-2.9"/>
  </g>
  <g>
    <path id="STROKE_f6f14690-1255-4ae3-826b-1c15b07fdfb67" class="st1" d="M657.3,512.8c1.8-3.4,2.8-8.7,0-11.8-5-5.6-16.2-5.7-18.8,2.2-3.7,7.5,2.9,14.8,10.7,14,3.5,0,6.6-1.2,8.2-4.5h-.1Z"/>
    <path id="STROKE_e71843d4-ad5b-45cf-ba03-4a466e33dd547" class="st1" d="M653.2,509.3c-3.3-1.2-6.9-2.3-10-4"/>
    <path id="STROKE_ea661a13-b10c-43d8-8c5d-b9016a04d3df7" class="st1" d="M650.9,503c-1.5,2.9-3.1,6.1-5.4,8.5"/>
  </g>
  <g>
    <path id="STROKE_f6f14690-1255-4ae3-826b-1c15b07fdfb68" class="st1" d="M770.8,500.4c-2.5,3-4.5,7.9-2.3,11.5,3.8,6.4,14.7,8.8,18.9,1.6,5.1-6.6,0-15.1-7.7-15.9-3.4-.7-6.7,0-8.9,2.7h0Z"/>
    <path id="STROKE_e71843d4-ad5b-45cf-ba03-4a466e33dd548" class="st1" d="M774.1,504.7c2.9,1.9,6.2,3.7,9,5.9"/>
    <path id="STROKE_ea661a13-b10c-43d8-8c5d-b9016a04d3df8" class="st1" d="M775.1,511.2c2-2.6,4.2-5.4,7-7.2"/>
  </g>
  <g>
    <path id="STROKE_f6f14690-1255-4ae3-826b-1c15b07fdfb69" class="st1" d="M983.6,184.5c-3.8.6-8.6,3.1-9.2,7.3-1.3,7.4,5.4,16.3,13.3,13.5,8.2-1.7,9.9-11.4,4.5-17.1-2.2-2.8-5-4.5-8.5-3.7h0Z"/>
    <path id="STROKE_e71843d4-ad5b-45cf-ba03-4a466e33dd549" class="st1" d="M983.4,189.9c1,3.3,2.4,6.9,3,10.3"/>
    <path id="STROKE_ea661a13-b10c-43d8-8c5d-b9016a04d3df9" class="st1" d="M979.9,195.5c3.2-.6,6.7-1.3,10-.9"/>
  </g>
  <path id="STROKE_712e9443-a1d7-463f-b7f0-35dda6fafcd4" class="st1" d="M553.8,717.7c0-43.3,2.7-86.2,1.4-129.4-.3-21.1-1.2-42.7-2.2-63.8.3-11.9,1.4-22.5-.5-34.7,16.8-1.7,35.5.5,52.4-.3,31.1-1.2,62.4-.7,93.5,0,28.1-.7,56.3.3,84.4.2,5.5,1.1,24.7-2.8,27.3.2-3.3,29.4,1,58.6-1.1,88,0,47.1,4,94.7-.5,141.6-.2,3-1.7,2.8-4.1,3-20.5.7-41.6,2-62.1,1.6-41.2-.6-82.5-.3-123.6-3.3-21.6-.7-43.2.3-64.6-1.8l-.2-1.2h-.1Z"/>
  <path id="STROKE_f92c20e2-fa9d-4a7b-a681-69e33653725f" class="st1" d="M553.9,568.6c-8.1.2-15.7,1.1-23.8,1.2"/>
  <path id="STROKE_f92c20e2-fa9d-4a7b-a681-69e33653725f1" class="st1" d="M551.5,254.5c-5.5.2-14.4.7-20.2,1"/>
  <path id="STROKE_a33118df-99b4-4a07-8dc9-c1045556b143" class="st1" d="M553.7,582.1c-8.3-.7-13.4-.5-23.5-.4"/>
  <path id="STROKE_a33118df-99b4-4a07-8dc9-c1045556b1431" class="st1" d="M552.3,270.3c-5.8.5-13.2,0-19.5-.1"/>
  <path id="STROKE_8e3c2de7-6a70-43e3-b6f6-3c331184419f" class="st1" d="M554.5,621.4c-6.6,0-16.1-.3-22.7-.3"/>
  <path id="STROKE_8e3c2de7-6a70-43e3-b6f6-3c331184419f1" class="st1" d="M552.9,310.7c-6.7,0-12.8-1.4-20.1-1.1"/>
  <path id="STROKE_48f95d99-7ea3-4555-8e5f-409671334030" class="st1" d="M555.4,637.1c-7.4,0-14.6,0-22,.5"/>
  <path id="STROKE_f92c20e2-fa9d-4a7b-a681-69e33653725f2" class="st1" d="M1032.3,570.4c-7.9.5-15.8,1.1-23.6,1.3"/>
  <path id="STROKE_a33118df-99b4-4a07-8dc9-c1045556b1432" class="st1" d="M1033.1,583.3c-3.9,0-21.6,0-25.5.3"/>
  <path id="STROKE_8e3c2de7-6a70-43e3-b6f6-3c331184419f2" class="st1" d="M1033.9,623.1c-7.3,0-16.6-.4-23.9-.5"/>
  <path id="STROKE_48f95d99-7ea3-4555-8e5f-4096713340301" class="st1" d="M1034,638.8c-8.1-.2-17.5.5-25.5,1.3"/>
  <path id="STROKE_48f95d99-7ea3-4555-8e5f-4096713340302" class="st1" d="M553.1,327.7c-4.2-.5-14.9-1.5-19.7-1.9"/>
  <path id="STROKE_f92c20e2-fa9d-4a7b-a681-69e33653725f3" class="st1" d="M854.1,570c-12.1-.9-31.8,0-44.5.2"/>
  <path id="STROKE_a33118df-99b4-4a07-8dc9-c1045556b1433" class="st1" d="M853.3,585.1c-12.9.6-29.7,0-43.4-.7"/>
  <path id="STROKE_8e3c2de7-6a70-43e3-b6f6-3c331184419f3" class="st1" d="M854.4,625.5c-14.5,0-28.7-1.5-44.7-1.7"/>
  <path id="STROKE_48f95d99-7ea3-4555-8e5f-4096713340303" class="st1" d="M854.9,642.4c-9.6-.4-34-1.7-44.4-2.3"/>
  <path class="st1" d="M1008.8,232.9c.3-14.9.3-29.4-1-44.3-1.4-15.3,5.2-14-12.6-13.8-15.8.7-31.8.2-47.4,1.6-21.7,3-44.7,3.9-66.6,2.8-55.2-3.3-110.9,1.9-166.1-3.1-5.3-.5-9.8-.6-14.9-1-.9,0-.2,9.9-.3,11.3-.3,5.2-.4,11.1-.6,16.2,0,13.7,1.4,27.5.7,41.2.9,17.7-1.3,36.1-1.5,53.8.2,12,1.7,17.2,1.2,30.4-.9,14.7.2,22.7-.7,36.5-.6,13.8-2.3,28.5-.6,42.3,13.5,1,28.9-.5,42.7-.5,32.1,1.8,64.6-.1,96.7.5,55.7,1.4,112.4.9,168-.9.9-13.8.6-28.5.9-42.5,0-11.8,2.2-24.4,2.2-36.3.8-31.4.5-62.8,0-94.1h-.1ZM955,320.7c-1.3.3-7,.2-8.9,0-8.7-.2-17.3-.6-26-1-6.8-.3-13.5-.6-20.4-.8-13.2,0-25.9,1.7-39.2,1.5-20.3,0-40.4-.6-60.7.1-15.3.4-30.8-1.6-45.8-.4-1-4-.6-9.1-.6-13.4-.2-4.9-1.3-10.6-1-15.5,1.1-9-.2-19.2.2-28.1,10.8-.7,22.3-1.4,33.3-.2,13.7.4,28.4,0,42.2,0,30.6-.5,61.4-2,92.1-1.3,11.2.3,22.5.8,33.7,1.9.4,17.3.5,34.8,1.3,52.3,0,1.3-.2,4.7-.2,4.8h0Z"/>
  <path id="STROKE_92048ec0-74e8-4759-bbf8-4b0611bda8c7" class="st1" d="M988,371.3c2.2-6.1,1.4-12.5,1.9-19,.5-10.1,1.1-20.7.9-30.8,1.1-35.1.5-70.8-1.4-105.8-9.3-.7-21.2,1.2-31,1-15.3-.5-30.9.6-46.1.8-39.6-1.2-79.9-4.1-119.5-3.8-18-.3-39.3-1.7-57.3-.8-5.9.6-14.3-.9-20,.9-.8,22.8-.2,47.2-.6,70.2-2.1,28.7-3.7,56.3.8,84.8,42.4,1.5,85.1,3.9,127.6,3,27.5-1.1,55.5-2.2,82.8-1.2,21.2.2,40.3-1.5,61.7.7"/>
  <path id="STROKE_b9e38d28-7eae-404b-8480-b0a9216252bc" class="st1" d="M681.1,211.6c-20.3,2.5-41.4,1.1-61.9.9-22.5-.6-44.6-.2-67.1-1.8"/>
  <path id="STROKE_234ed26b-5b9b-484b-88a0-8e26bcc128ec" class="st1" d="M683.7,371.4c-19.7,1.6-40.2.2-60.1.4-23.1,1.6-46.6-1.3-69.6-2.5l.3.2"/>
  <path id="STROKE_289e8b0a-6d66-48cd-bcc6-b038a9d57bb9" class="st1" d="M618.1,174.9c.6,12.9-1.5,26.1-.8,39.1,1.1,23.7,0,47.3.6,70.9,1.1,28.6-.6,57.3,0,85.9"/>
  <path id="STROKE_68ac982c-620b-472f-939a-38f9fc6a5997" class="st1" d="M808.2,526.1c-54.7-1-109.7,2.3-164.3-1.1-18.1,0-37.2-1-55.3.2-11.6.3-24.2-1.4-35.7-2"/>
  <path id="STROKE_470b3318-890d-41ef-aedb-1b6e1a21b200" class="st1" d="M809.5,682.6c-26.4.2-53.3.7-79.6,0-25.1.2-50.7.9-75.7-1-33.1-.5-66.6.2-99.6-2.5"/>
  <path id="STROKE_4a710e45-f72b-4069-b3aa-dec906e2bcff" class="st1" d="M616.5,718.8c2-20.2.2-40.6,0-60.8,0-20.9.6-42.4,1-63.4,1.2-23.5-.7-47.2,0-70.8.4-11-.5-22.9,1.4-33.8"/>
  <path id="STROKE_5a2362a6-0cb3-4b12-b990-12c503a3e95e" class="st1" d="M677.7,722.4c2.3-37.2,6.8-74.7,1.8-111.9-1.2-40.2-.2-80.6,1.1-120.7"/>
  <path id="STROKE_e4a7730d-0e48-4169-9ddc-74ab2206cfd9" class="st1" d="M746.2,722.6c1.4-24,0-48.2-.6-72.1-.7-22.5.4-45.2.4-67.8-1.6-31.1-3.9-62-1.8-93.1"/>
  <path id="STROKE_df423f8a-eae8-4860-b9cb-2e469fa1678d" class="st1" d="M681.7,256.9c5.7-.3,12.3-.6,18-.4"/>
  <path id="STROKE_4155b206-53c7-4ba1-b10e-51d1de71cef5" class="st1" d="M682.8,271.5c5.6-.2,11,0,16.4,1"/>
  <path id="STROKE_03fb8120-f45c-44a5-a5fe-aa3c44e1a393" class="st1" d="M683.4,311.6c5.1-.4,9.4-.5,14.4-.8h.6"/>
  <path id="STROKE_cb365af0-5eac-42ea-8391-f13a07ed1e77" class="st1" d="M682.9,327.2c5.2,0,11.1.4,16.3,0"/>
  <path id="STROKE_e22f7701-92b5-44f3-8290-dd324d18451e" class="st1" d="M1011,256.3c6.9-.7,17-.2,23.9-.5"/>
  <path id="STROKE_f832ed01-8b09-4e57-9fab-174c7100ca1b" class="st1" d="M1010.1,272.6c7.7-.1,16.3-.5,24.9-.3"/>
  <path id="STROKE_03a17378-a287-4d9a-bbf3-62ad2e06d84d" class="st1" d="M1010.9,310.9c3.2,0,19.8-.5,23.4-.6"/>
  <path id="STROKE_91b44147-45d9-4f62-bd12-fb11ed874934" class="st1" d="M1009.6,327.9c6.6-.7,18.6-.5,25.3-.5"/>
  <path class="st1" d="M1033.1,667.5c1.1-14.6,1-29.5.6-44.5-.2-8.2-.5-16.4-.8-24.5v-15.3c0-35.6-.7-72.6-.5-107.8,1.8-43.2,1.9-87.1,2.8-130.2.5-50.5-.9-101.2,0-151.9.6-18.1-1.8-35.6-1.3-53,2-17.6,1-38.6,3.4-55.6-20.9.8-49-2.8-70.8-3.5-30.1-1.2-63.5-.3-92.9-2.6-16.4-.9-35,1.1-50.4,2.7-19.7.9-44.5,1.4-64.1,2.7-44.7.4-92.4,1.2-137,3-23.7-.5-48.3-1.6-72.6-1.2-6.8.9-13.4-1.5-15.6,2-10,60.7-6.3,120.9-2,181.8,1.2,25-1.2,52.7.2,77.6-1.4,77.9-5.1,156.5-3.5,234.5,1,29,4.8,57.8,5.1,87.1,0,40.7-2.2,81.4-1.5,122,0,3.5-1.4,14.6.6,14.8s7.3-.3,10.6-.2c19.8.2,41.3-.2,61.1,0,38.9,1.4,86,5.4,125.1,3.2,34.4.6,72.9-5.4,107.2-2.4,28.7,2.7,56.1.6,86.1.7,33.8,0,64.4,1.4,97.2-.5,3-.3,6.7-.5,11.2-.8,4.5-.2,3.3-1.9,3.3-4.1-1-18.7,1.5-37.4,1.4-56-1.8-25.2-1.8-52.5-3.1-77.8h.2v-.2h0ZM799.9,320.6c-15.3.4-30.8-1.6-45.8-.4-1-4-.6-9.1-.6-13.4-.2-4.9-1.3-10.6-1-15.5,1.1-9-.2-19.2.2-28.1,10.8-.7,22.3-1.4,33.3-.2,13.7.4,28.4,0,42.2,0,30.6-.5,61.4-2,92.1-1.3,11.2.3,22.5.8,33.7,1.9.4,17.3.5,34.8,1.3,52.3,0,1.3-.2,4.7-.2,4.8-1.3.3-7,.2-8.9,0-8.7-.2-17.3-.6-26-1-6.8-.3-13.5-.6-20.4-.8-13.2,0-25.9,1.7-39.2,1.5-20.3,0-40.4-.6-60.7.1h0Z"/>
  <path class="st6" d="M920.1,319.7c-6.8-.3-13.5-.6-20.4-.8-13.2,0-25.9,1.7-39.2,1.5-20.3,0-40.4-.6-60.7.1-15.3.4-30.8-1.6-45.8-.4-1-4-.6-9.1-.6-13.4-.2-4.9-1.3-10.6-1-15.5,1.1-9-.2-19.2.2-28.1,10.8-.7,22.3-1.4,33.3-.2,13.7.4,28.4,0,42.2,0,30.6-.5,61.4-2,92.1-1.3-1.7,18.4-.2,39.4,0,57.9v.2h0Z"/>
  <path id="STROKE_c82b70f8-cdbf-4d51-9883-810fe42f317b" class="st1" d="M583.4,406.5c1.3,27.3,4.1,54.8,4.3,82.2"/>
  <path id="STROKE_c82b70f8-cdbf-4d51-9883-810fe42f317b1" class="st1" d="M985.9,487.1c-.2-26.3-4-52.8-3.8-79.2"/>
  <path id="STROKE_0d934eb5-c92e-4862-9c83-8656be40701d" class="st1" d="M649.4,408.5c1.5,10.5-1.3,23.5-1.5,34.1-.3,14.7.2,29.7.2,44.3"/>
  <path id="STROKE_0d934eb5-c92e-4862-9c83-8656be40701d1" class="st1" d="M875.5,410.3c1.5,9.6-1.3,21.4-1.5,31.1-.2,16,0,31.6.3,47.6"/>
  <path id="STROKE_56cbe11b-eed5-458b-913a-2928e782d0f0" class="st1" d="M712.7,407.4c1,8.2.5,17.8-.8,26.1-1,17.8-1.7,37.7-2.2,55.3"/>
  <path id="STROKE_5045bfe5-4f70-445d-b699-b708293810dc" class="st1" d="M777.6,407.6c2.7,26.7,3.1,54.4,2.2,81.2"/>
  <path id="STROKE_3a946d0b-07b3-4904-8859-f398fcb2487b" class="st1" d="M585.2,721.4c1.9,11.3,1.1,24.7,1.4,36.3,1.1,15.3,1,31.2.7,46.4"/>
  <path id="STROKE_ca0df488-b3a9-4a03-a81a-c73a5e452fae" class="st1" d="M648.1,723.2c1,27.5,0,56.4,3,83.8"/>
  <path id="STROKE_94c33a9b-5898-49ef-8f46-4d30a50c058e" class="st1" d="M713.9,724c1.4,28.1-.5,57.2-3.1,84.8"/>
  <path id="STROKE_b6fc05a1-12b1-4d56-ab6b-a421335f37a1" class="st1" d="M1007.1,490c-3.2,35.9-.8,71.4.9,107.4.7,32.5.7,64.5-.8,96.9-2.1,35.8,9.5,21.6-42.9,26.8-16.9.7-33.3,0-50.1-.7-19.3.4-40.8,1.1-59.9-.6-.4-25,1.3-50.1,2.4-75.1-1.1-31.4-2.6-63.5-3.2-95-1.6-19.3-1.6-39.4-1.6-58.6,16-.7,32.6-2.4,48.7-1,13.9-.2,27.8-.7,41.6-1.1,17.5-.4,34.3-.5,52-1h11.1c1.5,0,2.1-.3,1.8,2.1h0Z"/>
  <path id="STROKE_9844656c-6093-4787-b0e1-907663eb2d60" class="st1" d="M1005.5,523.8c-29.1.3-58.8.6-87.8,2.1-21.6-.8-43.7-1.5-65.3,0"/>
  <path id="STROKE_9e899be4-9702-4c6d-bbd7-c3ce9e48fdda" class="st1" d="M1007.4,685.7c-28.7,1.8-55,0-84.1,1.7-24,.4-44-1.5-67.4-2.1"/>
  <path id="STROKE_21d88ea5-8309-496d-948e-abaa4b931b13" class="st1" d="M876.8,721.7c-1.6,5.6-2.2,11.8-4.2,17.3-6.7,16.6-24,22-40.7,20.3-6.9-.3-13.4-1-20.3-1.7-5.4-.5-10.9-.6-15.6-3.4-8.5-6.2-15.8-17.5-14.6-28.4.2-.3,1-2.9,3.6-2.7"/>
  <path id="STROKE_bd1aa693-ac41-4b2a-a5b9-94835aa17972" class="st1" d="M964.3,650.1c-22.5,17-52.6,10.6-72.4-7.4-9.1-9.5-15.3-23.2-16.8-36.2-.5-15.1,6.5-28,16.8-38.5,15.2-19.8,44.8-25.6,66.1-11.7,19.2,9.5,32.8,29.9,32.3,51.4-2.5,16.7-11.3,33.6-26,42.5h0Z"/>
  <path id="STROKE_d1a8c5ed-3491-4653-95b3-b3d6924cda57" class="st5" d="M907.5,602.6c8.1-6.7-2-16.8-9-9.3-5.2,5.9,3.2,13.5,9,9.3Z"/>
  <path id="STROKE_d1a8c5ed-3491-4653-95b3-b3d6924cda571" class="st5" d="M963,602.6c8.1-6.7-2-16.8-9-9.3-5.2,5.9,3.2,13.5,9,9.3Z"/>
  <path id="STROKE_d1a8c5ed-3491-4653-95b3-b3d6924cda572" class="st5" d="M935.1,622.6c8.1-6.7-2-16.8-9-9.3-5.2,5.9,3.2,13.5,9,9.3Z"/>
  <path id="STROKE_f47839eb-e386-4c80-92e9-d1d83740a181" class="st1" d="M937.9,225.6c-22.6,1.7-45.4,0-68-.3-26.6-1.2-53.5.2-80.1.7-6.5,1.4-35.2-3.6-35.1,3.8-.5,4.2-.2,9.7,4.9,10.4,28.7,3.6,58.7-1.9,87.6-.5,14.9.6,31.8,1,46.7,0,9-.4,19.1-2.3,28.2-1.6,8.8-.5,18.1,1.9,26.8,0,2-4.2.3-9.8-3.7-12.1-1.7-.7-6.4-.3-7.3-.3h0Z"/>
  <path id="STROKE_fd2ab848-4efe-46f6-83c2-c7f0c6527367" class="st1" d="M900.5,249.1c-19.2.4-38.6-2.3-58.3-1.7-21.2.4-40.9-.6-61.8.4-9.5-.3-18.2,1.7-27.7.7"/>
  <path id="STROKE_f7d87ea3-b300-425b-8194-f6918c9a843d" class="st1" d="M940.1,336.5c-36.3-4.6-73.3-3.5-109.9-2.3-25.8.4-51.9-1.4-77.5,1.1"/>
  <path id="STROKE_7f66bbce-a2d2-45ca-93c8-c9b1170bc963" class="st1" d="M846.5,346.7c-31.1.4-62.7.3-93.8,1.5"/>
  <path id="STROKE_ad7f8bde-22ff-45db-8ae4-7a2517d5700b" class="st1" d="M894.8,358.9c-28.1,3.4-56.9-2-85-2.5-19.3-2.2-37.8,2.1-57.2,0"/>
  <path class="st7" d="M955,320.7c-1.3.3-7,.2-8.9,0-8.7-.2-17.3-.6-26-1,0-18.5-1.6-39.5,0-57.9,11.2.3,22.5.8,33.7,1.9.4,17.3.5,34.8,1.3,52.3,0,1.3-.2,4.7-.2,4.8h.1Z"/>
  <path id="STROKE_5d61662e-5cc6-4e70-89f5-b32de6352d8f" class="st2" d="M785,260.8c1.9,13.8.4,24.3,0,37.7-.3,8.1,1,15.2.5,23.1"/>
  <path id="STROKE_fd7f6e31-12e0-4d26-92a6-eef9b539cf0f" class="st2" d="M818.8,261.4c-1.2,20.1.2,41,.8,61.1"/>
  <path id="STROKE_82a63fbc-9df4-4fc9-8ca3-29e355986ef8" class="st2" d="M774.1,281.2c-1.7-3-5.6-4.1-8.4-1.8-6.3,4.4-5.9,22.9,1.6,25.8,6.3,1.6,8.2-6.3,9-11.4,1.5-4.5-2.2-12.6-2.2-12.6h0Z"/>
  <path id="STROKE_2c12e62b-3442-4a02-a510-5c211d4db56c" class="st2" d="M809.2,284.8c-.3-7.3-9.3-8-12.6-2-3.8,4.9-3.6,21.2,4.2,21.8,4.3.5,6.3-3.2,7.3-6.8,1.4-4,1.7-9,1.1-12.9h0Z"/>
  <path id="STROKE_25fb4ea6-2089-48eb-8cf6-001490e8db20" class="st2" d="M843.9,284.7c-1.9-11.9-12.6-6.6-15.1,1.8-2.7,7.3-1.3,24.2,10,19.4,4.7-5.5,6.3-14.3,5.1-21.2h0Z"/>
  <path id="STROKE_609d08a8-1c00-4b47-b6cf-1a4cff85327a" class="st2" d="M852.3,259.8c-.6,21.3-.2,41.7.9,62.8"/>
  <path id="STROKE_6b77bc16-bd35-483b-88a1-610a7b449354" class="st2" d="M886.6,259.1c.3,11,0,22.5-.3,33.5.4,9.7.7,19.6.3,29.3"/>
  <path id="STROKE_04abcce1-3b51-417d-8707-0d7a2eb3272a" class="st2" d="M921.1,258.9c-1.9,21-.2,41.8-.2,62.8"/>
  <path id="STROKE_277b7840-b25a-4c23-9518-4387ad98c3d2" class="st2" d="M876.4,281.9c-8.8-11.2-14.4,9-12.7,16,1.7,9.1,9.5,9.6,11.7.3,1.5-5.2,3.6-11.1,1-16.3Z"/>
  <path id="STROKE_f074cc4e-25d9-409a-9909-690a84b5e508" class="st2" d="M908,279.3c-11.7-7.9-17,21.8-7.5,26,9.9,3.2,14.3-21.1,7.5-26Z"/>
  <path id="STROKE_59531bbb-46a1-4ed8-8211-c08c973fc408" class="st3" d="M931.5,291.6c1.9-6.8,10.8-4.3,12.2,1.3.2,4.1-4.4,7.5-8.2,7.2,6.8-.8,11.7,5.5,7.9,11.7-3.8,5-12.2,4.4-15.2-1.2"/>
  <g>
    <path id="STROKE_3130f845-ded9-45eb-bfed-17106dcadc91" class="st1" d="M742.3,533.7c.4,4-1.1,7.8-1.1,11.7-18.7.3-37.7,1-56.4.4-.2-4.4-.2-10.6.6-15,14.4.4,28.9,1.6,43.3.6,4.4-.6,9.1.3,13.5.3v1.9h.1Z"/>
    <path id="STROKE_ec931091-db03-4a77-b4a3-6598c35818fc" class="st1" d="M725.1,603c-.9-13.7,1.7-27.6.6-41.2-3.9-1.2-7.9.2-12,0-4.4.3-8.9-.5-13.1.8-1.2,13.4-.9,27.2-.5,40.6"/>
    <path id="STROKE_974287da-d3e1-4e36-bd2e-73f010211866" class="st8" d="M715.8,627.2c7.9-.3,16-.2,23.9,0,0-3.6.6-8.2.2-11.7h-2.3c0-3.2,0-8.1-.4-11.3-16.3-1.5-33,0-49.3.3.3,3.2.3,8.2.6,11.5h-3c.4,3.4,0,7.4.4,10.6,0,0,19.9,0,29.9.6h0Z"/>
    <path id="STROKE_e863fc25-119a-436a-9524-f00d4e2fe531" class="st1" d="M692,667.5c12.4-.8,25.3.4,37.7.5h0"/>
  </g>
  <g id="Button">
    <path class="st0" d="M700.1,604.2h0"/>
    <path class="st0" d="M725.1,604c0-.1,0-.3,0-.4"/>
    <path class="st0" d="M739.7,627.2c-7.9-.2-16-.3-23.9,0-10-.6-29.9-.6-29.9-.6-.4-3.2,0-7.2-.4-10.6h3c-.3-3.3-.3-8.3-.6-11.5,4,0,8.1-.2,12.2-.4-.4-13.4-.7-28.2.5-41.5,4.2-1.3,8.7-.5,13.1-.8,4.1.2,8.1-1.2,12,0,1.1,13.5-1.5,28.2-.6,41.8,4.1,0,8.1.2,12.1.6.4,3.2.4,8.1.4,11.3h2.3c.4,3.5-.2,8.1-.2,11.7Z"/>
  </g>
</svg>