<?xml version="1.0" encoding="UTF-8"?>
<svg id="Ebene_1" xmlns="http://www.w3.org/2000/svg" version="1.1" viewBox="0 0 1600 900">
  <!-- Generator: Adobe Illustrator 29.1.0, SVG Export Plug-In . SVG Version: 2.1.0 Build 142)  -->
  <defs>
    <style>
      .st0 {
        fill: none;
      }

      .st0, .st1, .st2, .st3, .st4, .st5 {
        stroke: #000;
        stroke-linecap: round;
        stroke-linejoin: round;
        stroke-width: 3px;
      }

      .st1 {
        fill: #2323ff;
      }

      .st2 {
        fill: #ff1;
      }

      .st3 {
        fill: #fff;
      }

      .st4 {
        fill: aqua;
      }

      .st5 {
        fill: #ff13f0;
      }
    </style>
  </defs>
  <g id="Pen">
    <path id="STROKE_6f084492-b119-4d75-9b62-9ce9ce0b18cf" class="st0" d="M1600,709.2c-32.7,2.9-557.8,8.3-557.8,8.3-64.4-.3-242-1.5-303.7,6.5-6,.2-72,2.9-72,2.9-142.4-1-478.5-1-664.6-1.5"/>
    <path id="STROKE_425da86f-c733-4192-af5c-128741f83df1" class="st0" d="M1600,733.9c-35.7,2.9-654.1,7.5-702.2,9.6-31.7,1.4-66.5,1.2-98.6,1.9-34.3.9-66.7,2.4-104.4,2.3,0,0-518.8.4-692.9,1.2"/>
    <path id="STROKE_95ea147e-ddc3-4086-b214-830815a43ea8" class="st0" d="M581.7.2c-.5,26-1.5,67.2-1.9,93.8"/>
    <path id="STROKE_74dd7352-350e-403e-a3fd-a8c9859e6c5c" class="st0" d="M964.7.2c.3,40.2,1,87.7,1.8,128.1"/>
    <path id="STROKE_84498026-d80d-4e34-8b77-b29f0be64972" class="st0" d="M630.4,152.3c-8.8-23.5-22.4-54.3-50.6-57.3-27.2,1.7-49.5,28.3-65.2,48.4,0,0,75.9,16.4,113.5,9.3l2.3-.4h0Z"/>
    <path id="STROKE_48518794-ca5f-4936-a97e-df5ca603e743" class="st0" d="M1011.6,176.9c-19,1.3-39.9,1.7-58.9,0-13.1-1.9-41.2-6.8-41.2-6.8,12.1-12.2,24.1-22.5,37.9-32.2,9.7-7.1,22.2-12,32.5-2.9,7.7,6.2,12.5,15.6,17.1,24,3.5,6,12.5,18.1,12.5,18.1h0v-.2h.1Z"/>
    <path id="STROKE_6dc59c92-4302-4155-a778-367804d3a53a" class="st2" d="M564.8,153.1c-2.1,2.5-4,5.9-2.8,9.2,1.1,2.9,5.3,4.5,8.3,3.7,2.2-.4,4-2.9,4.5-5,.2-.8.2-5.2.2-6.2"/>
    <path id="STROKE_a1dca3c7-4717-4803-af9c-98f25200447c" class="st0" d="M585.1,168.9c6.3,6,10.6,12.7,14.9,20.6"/>
    <path id="STROKE_b6c7ab67-1676-44c2-9500-6e6c1d9946c5" class="st0" d="M576.7,177.1c3.2,7,6.3,15.6,8,23.3"/>
    <path id="STROKE_7e4005f6-215f-4986-9b2e-cd8c39bd557e" class="st0" d="M563.7,176c-2.5,7.9-4.9,15.2-7.2,23.4"/>
    <path id="STROKE_75fe4d18-bfba-4d1d-b2cf-57a3631ea0dc" class="st0" d="M546,174.5c-7.1,7.2-10.9,11.4-19.5,18.3"/>
    <path id="STROKE_a74f418c-e7f6-4385-8649-6171eb41b554" class="st2" d="M956.3,178.8c-3.7,8.1.6,16.6,10,13.3,4.4-3.2,2.9-8.9,2.8-13.9"/>
    <path id="STROKE_67c99e31-a346-483c-a9d1-92d4a10ff36f" class="st0" d="M928.5,198.8c-7.7,4.2-11.8,8.2-15.7,15.9"/>
    <path id="STROKE_95d54387-362f-4116-b092-a501e3dcead1" class="st0" d="M946.2,207.8c-5.8,7.6-6.3,10.7-11.3,21.2"/>
    <path id="STROKE_d23ae6c2-02f2-41cb-a4d4-d274652f849b" class="st0" d="M966.6,213.4c-2.6,9-3,18.9-4.4,28.2"/>
    <path id="STROKE_39949b18-4b82-4534-9735-317497bab083" class="st0" d="M986.9,215.1c3.6,12.1,8.2,23.7,9.4,36.6"/>
    <path id="STROKE_04504a4f-5b75-4818-80a4-5139cbf473bd" class="st0" d="M993.3,208.3c9.2,7.5,11.6,17.6,15.9,28.8"/>
    <path id="STROKE_1408420e-5c86-42c3-83bd-9e1802297d1c" class="st0" d="M521.1,162.4c-6.2,6-15,14.5-21.2,21"/>
    <path id="STROKE_cec34bac-67c1-4b87-b49f-c041a249f897" class="st5" d="M1.8,900h718.6c3.2-11.8,9.2-40.1,12.3-54.1,1.7-7.7,3.4-12.9,3.2-18.2-53.6-2.9-114.7-3.3-168.5-4.6-45.2-1.6-91.3-4-138.6-6.6-70.7-4-357.9.4-426.9-.8"/>
  </g>
  <g id="New_Layer_1">
    <path id="STROKE_17589f0e-a0cc-4201-95cf-0efe8646a7dd" class="st3" d="M1063.4,664.6c1.1,32.1,2,58.5,2.9,91.5,0,0-2.7,1-7,1,.2-27.2-1.4-64.3-2.2-91.6"/>
    <path id="STROKE_6d0c8eea-5588-403c-b314-fdbcba07d322" class="st3" d="M1042.4,654.8c2.2-1.5,21.4-12.2,21.4-12.2,0,0,14.3-2.9,16.8-3.1,34.2-3.7,75.6-3.9,110.3-3.7,80.9,1,164.8,4.8,245.8,4.8-1.1,31.2-1,70.3-2.5,101.7-2.4,0-3.3.2-4.8.3-.9-33.6-.2-60.4,1.1-96.3"/>
    <path id="STROKE_e9f8412a-175b-4eb7-9843-5020170458df" class="st3" d="M1416.4,769.9c-1.4-29-.9-79.3-1.3-108.4-120.2-.5-245.9-7.7-365.2,4.4-1,32.8-2.1,75.8-2.9,108.7,0,0-3.1.4-6.7-.4.9-37.8.7-81.5,2.1-119.5,48,.5,99.7-1.8,147.7-2.5,63.8-.7,170.9.5,233.4-1.1.7,7.8.3,107.9.4,118.7h-7.5,0Z"/>
    <path id="STROKE_1d7d80b5-644e-4f25-8890-ab9038fa1bf4" class="st0" d="M693.5,353c-45.7-2.6-98.9-1.1-145.4-2-36.4,0-78.3-2.9-113.9-4.1,2.9,14.8,3.6,21.6,5.4,41.3,84.8-4.5,170,2.7,255.7,3.2,0,0-.8-24.7-1.8-38.5h0Z"/>
    <path id="STROKE_0e8e3ce7-6a29-4fed-8d2c-3ebd6484a91c" class="st0" d="M466,368c1-.6,1.8-1.6,2.2-2.7.2-2.4-2-5-4-6-4.2-1.7-12,0-11.8,5.5,1.3,5.6,9.7,6.8,13.6,3.1h0Z"/>
    <path id="STROKE_4cf5665a-eb81-402a-91fa-36c5815d87e0" class="st0" d="M511.9,362.4c-2.7.2-6.2,2.5-5.1,5.4,0,0,0,.3.2.4,0,0,.2.3.4.4,1.8,1.5,5.2.4,6.5-1.5,0-.6.6-.6.8-1.3,0-1-1.4-3.7-2.7-3.4h-.1Z"/>
    <path id="STROKE_9dc526e8-cead-4ceb-8b25-6ed1093791a9" class="st0" d="M561.7,367c-1.5-.5-3.2-.2-4.8.2-1.4.6-3.3,2.6-2.2,4.1,2.1,2.7,8.9-1.1,6.8-4.4h.2Z"/>
    <path id="STROKE_c3fd28c4-3778-4151-bb40-68855d6c26bb" class="st0" d="M602.2,367.9c-3.8.5-6.6,6.1-1.6,7.2,2.8.5,4.3-1.7,4.8-4,.3-1.3-2.3-2.9-3.3-3.2h0Z"/>
    <path id="STROKE_2bc2fb93-b1cf-4520-ac32-7434abaf882c" class="st0" d="M662,372.2c-4.3-4.1-12.6.8-7.4,5.7,3.6,3,10.8-1.5,7.4-5.7Z"/>
    <path id="STROKE_c2c92ffb-9e7d-4715-aba7-3ecc9a1f51f1" class="st3" d="M1436.4,641c-5.6,3.7-8.3,6-13.9,10.3"/>
  </g>
  <path id="STROKE_2723813b-dec1-47cb-992f-cff34e48f481" class="st4" d="M26.9,449.9s77.2-85.9,95.6-108.1c-.2,20.1,1.3,37.8,0,58.2,30.9,1.3,59,0,59,0v99.5s-27.7,3-59,0c.4,18.8.6,39.8,0,58.8l-95.6-108.1h0v-.2h0Z"/>
  <path id="STROKE_6ea0458b-5008-41e4-ab50-fffeb7ac591f11" class="st1" d="M1079.8,363.1c-.4,57.2-1.7,118.5,1.8,175.3,103,1.9,210.2-3.4,313.2,0,2-42.4,5-269.6,3-319.6-104.6,5.4-318,0-318,0v17.6s-3,85.8,0,126.6h0Z"/>
</svg>