<?xml version="1.0" encoding="UTF-8"?>
<svg id="Ebene_1" xmlns="http://www.w3.org/2000/svg" version="1.1" viewBox="0 0 1600 900">
  <!-- Generator: Adobe Illustrator 29.1.0, SVG Export Plug-In . SVG Version: 2.1.0 Build 142)  -->
  <defs>
    <style>
      .st0, .st1 {
        fill: none;
      }

      .st1, .st2, .st3, .st4, .st5 {
        stroke: #000;
        stroke-linecap: round;
        stroke-linejoin: round;
        stroke-width: 3px;
      }

      .st2 {
        fill: #2323ff;
      }

      .st3 {
        fill: #fff;
      }

      .st4 {
        fill: aqua;
      }

      .st5 {
        fill: #ff0;
      }
    </style>
  </defs>
  <path id="STROKE_c29813dc-d6c9-44a7-b7b0-9d586071a814" class="st5" d="M805.3,273.9c-2.6,3.1-.5,7.2-8.1,7.2-6.5.2-3.1-5.6-4.6-7.3"/>
  <path id="STROKE_c13a4ff2-4bad-455c-afee-ba9cbf6cf65e" class="st1" d="M646.1,216.2c11,113.9,4.3,233.4,3.5,348"/>
  <path id="STROKE_e3e7ea10-107c-4f23-8d9d-055a922945b7" class="st1" d="M950.1,211.9c-.9,65.3-1.3,154.6.5,217.8.6,27.2,1.7,60.8,1.4,88,0,15.2-2.4,32.3-2,49.7"/>
  <path id="STROKE_786aa971-934d-42d7-b357-08ae29b120d2" class="st1" d="M1101.9,1.7c-47.8,68.7-104.8,140.7-151.7,210.4-58.9,1.5-115.3,2.9-173.4,3.1-42.3-.4-88.1-1.5-130.6,1.3-28.9-40.1-59.9-80.8-89.7-122-18.5-23.7-45.6-76.2-58.2-92.8"/>
  <path id="STROKE_5e976470-1025-47b1-b8c7-20da5f5e2dc7" class="st1" d="M649.7,564.3c89.1,5.5,209.5.6,300.4,3.2,63.3,58.5,124.2,116.8,189.6,173.8,60.6,53.1,128.9,104.1,186.8,158.7"/>
  <path id="STROKE_77f6cb17-5423-4c68-9830-913ac270e016" class="st1" d="M649.7,564.3c-42.3,35.8-83.6,67.6-127.4,103.1-46.9,39.6-91.5,72.4-139.9,108.9-48.6,36.9-103.5,87.2-150.4,123.6"/>
  <path id="STROKE_0cd43c78-dbe3-4794-8f09-fa2f8e75ae2c" class="st1" d="M649.9,542.4c-28.8,23.3-65.4,46.9-96.9,66.9-144.6,91.8-346.9,209.8-496.2,290.7"/>
  <path id="STROKE_f71d2131-ded7-4f91-b527-7286226675b6" class="st1" d="M950.6,548.4c83.3,66.5,168.3,125.2,254.8,188.9,70.2,52.9,139.4,107.1,205.3,162.6"/>
  <path id="STROKE_046b8ac9-6249-47af-a2ab-44ad2dc5d15d" class="st2" d="M337.5,0c49.1,36.2,95.3,78,139.7,119.7,41.7,37.5,92.5,79.8,125.3,124.4,1.1,66.7,1.8,149.6,6.5,216.6-31.5,3.9-62.2,8.2-95.7,12.4-30.5,3.9-55,5.9-82.7,12.1-32.1,7.1-64.4,20.5-95.2,32.1.4-51.9,7.3-122.7,7.2-177.2.2-109.1-5-231.8-4.8-340.3h-.2v.2h0Z"/>
  <path id="STROKE_a10835ee-f6b0-43c4-81c6-c61fe8d88b86" class="st2" d="M1114.8,152.4c29.3-22.7,63.1-49.2,91.3-72.7-4.6,54.3,0,125.4.5,180.7.9,94.9,6.7,208.4,4.6,301.8,0,0-44.7-14.8-71.3-24.7-17.6-6.5-37.5-11.8-37.5-13.8.4-65.2.5-55.7,0-97.9-1.3-84.1.4-181.8,0-266.3,0,0,8.8-4.6,12.1-7.2h.3Z"/>
  <path id="STROKE_0115f3a1-805d-401d-889c-f7d5f8abaeb0" class="st1" d="M830.7,272.8c-1.3-5.5-5.5-23.2-10.9-28.4-7.9-11.4-24.5-15.4-36.1-7.6-12.1,8.7-15,21.6-19.9,36.7,0,0,26.6-.9,38.4-.8h28.5Z"/>
  <path id="STROKE_e6f83252-7640-4ae5-8205-8aad18b6456d" class="st1" d="M798.2,232.4c.4-25.9,2.9-52.7,2.7-78.3"/>
  <path id="STROKE_b7656743-a8ec-49cd-a197-7682d07a50de" class="st1" d="M813.8,287.4c9.2,9.5,15.2,15.8,30.1,31.4"/>
  <path id="STROKE_3cfab8a9-bbce-4ae2-893c-a9d2e5cdd93e" class="st1" d="M806.9,295.7c3.5,12.3,5.7,18.3,12.1,37.8"/>
  <path id="STROKE_3036f2d1-c37a-4c13-850c-01f947515fcd" class="st1" d="M790.6,293.5c0,1.2,0,21.9-.2,40.8"/>
  <path id="STROKE_6d5bad85-2ce2-4d7f-a177-7f1736691688" class="st1" d="M784.8,293.6c-.5,1.4-7,24.5-10.6,35.1"/>
  <path id="STROKE_c0544c52-a443-4e93-a09f-762708c7193a" class="st1" d="M770.5,293.2c-5.6,3.2-13.6,7.6-21.4,12.1"/>
  <path id="STROKE_1ded2900-067a-4159-8266-4dc2c9ac505f" class="st1" d="M897.9,566.3c-1.4-51.6-2.3-90.9-4.6-141.8-2.8-42-3.3-80.5-1.5-121.5-19-2.6-43.6-2.8-63.1-3.1-38.7-1.1-85.1-1.8-124.1-1.5-2.5,39.5-1.9,89-.8,129.6-.4,43.6.3,94.6,5.2,137.9"/>
  <path id="STROKE_6e0ac92e-a071-4ce7-a24c-1d06a7f02de2" class="st1" d="M798,300c-2,42.1-1.1,77.8.7,118.5,1.2,41.8,0,106.4,1.4,148.4"/>
  <path id="STROKE_69fd32a7-77e2-49a6-9f7f-b91abc2eff68" class="st1" d="M792.6,446.3c-3.5-3.9-7.8,2.7-4.7,5.6,3.7,4.4,8.5-3.2,4.7-5.6Z"/>
  <path id="STROKE_fbfcc2f0-70c3-4ba4-94d1-401eb994eafd" class="st1" d="M810.4,446.1c-2.8-3.4-8,1.5-5,4.7,3.6,4.1,8.6-1.9,5-4.7Z"/>
  <path id="STROKE_e98da82e-4739-4f7b-bf77-e2ae3cd6ad6a" class="st1" d="M776.3,447.7c3.4-1.7,18.9,0,9.4,4.1-3,.2-17.4.7-9.4-4.1Z"/>
  <path id="STROKE_9d27ee22-967b-4fd5-a97e-10215f0dbd73" class="st1" d="M809.6,448c9-5.8,21,4.8,3,2.7-1.2-.2-4.3-.8-3.1-2.3v-.4h0Z"/>
  <path id="STROKE_76f743f8-31ec-4d19-b028-611d66b3b06a" class="st3" d="M587.3,900c14-30.8,25-61,37.5-90.9,22.8-49.9,48.9-108.3,64.5-160.8,34,0,72.6-1.7,107.2-4.9,33.2-3.1,67.5-5.4,100.2,0,21.4,45.9,37.3,96.9,57.5,143.8,15.5,37.5,37.8,76.7,54.3,112.9"/>
  <path id="door" class="st0" d="M897.9,566.3c-1.4-51.6-2.3-90.9-4.6-141.8-2.8-42-3.3-80.5-1.5-121.5-19-2.6-43.6-2.8-63.1-3.1-38.7-1.1-85.1-1.8-124.1-1.5-2.5,39.5-1.9,89-.8,129.6-.4,43.6.3,94.6,5.2,137.9l188.9.4h0Z"/>
  <path id="STROKE_2723813b-dec1-47cb-992f-cff34e48f481" class="st4" d="M801,578.6s73.9,66.5,93.1,82.3c-17.3-.2-32.6,1.1-50.1,0-1.1,26.6,0,50.8,0,50.8h-85.6s-2.6-23.8,0-50.8c-16.2.4-34.3.6-50.6,0l93.1-82.3h.2-.1Z"/>
</svg>