<?xml version="1.0" encoding="UTF-8"?>
<svg id="Ebene_1" xmlns="http://www.w3.org/2000/svg" version="1.1" viewBox="0 0 1600 900">
  <!-- Generator: Adobe Illustrator 29.1.0, SVG Export Plug-In . SVG Version: 2.1.0 Build 142)  -->
  <defs>
    <style>
      .st0, .st1 {
        fill: none;
      }

      .st1, .st2, .st3 {
        stroke: #000;
        stroke-linecap: round;
        stroke-linejoin: round;
        stroke-width: 3px;
      }

      .st2 {
        fill: aqua;
      }

      .st3 {
        fill: #ff0;
      }
    </style>
  </defs>
  <path id="STROKE_b9cd919a-8e70-4837-adb9-f3770ba63a90" class="st3" d="M804.1,83.2c.7,4.7,0,11.3-6.2,10.1-4-1.4-4.7-6.9-4.5-10.6"/>
  <path id="STROKE_d6e3e746-084b-4678-9707-01664d69b2fc" class="st1" d="M678.1,475.9c2.1-20.1,3.4-60.3,3.4-60.3,41.9-.9,97-.8,138.8.8,40.2,1.8,82.8,4,122.9,3,.4,17.5,1.2,41,2.4,59.7"/>
  <path id="STROKE_ce36d6ad-7781-4f9b-95c3-752e78c405ab" class="st1" d="M621.9,608c60.9-2.5,120.8-5,181.6-2.9,37.7,1.3,75.4,4.2,113,5,26.6.9,60.6-2.2,86.5-2.5,1.6,14.2,3.8,35.9,5.2,50.1-67.6-3-136.6,0-204,1.7-59.6-.2-125.8-.3-184.4-3.5.6-16,2.1-47.9,2.1-47.9h0Z"/>
  <path id="STROKE_5f21c83b-3a21-4d82-895e-86bc6771d391" class="st1" d="M547.6,900c.6-25.4,2-54.7,2.4-79.5,97.5-1.4,196.8-6.7,294.4-7.5,74.9,1,151.5,7.2,226.4,5.7"/>
  <path id="STROKE_3b66818c-8b55-4630-b49b-fa764bf553cd" class="st1" d="M1070.8,818.7c1.8,21.9,7.2,57.7,5.6,79.3"/>
  <path id="STROKE_35af9f0b-8124-4c3c-8acb-269149aa5f16" class="st1" d="M580.5,798.7c72.3,2.6,145.3-2.1,217.7-2.7,83.1-1.1,169.2,3.8,252.2,2,.4-18.6-2.6-41.8-3.7-60.4-97.8,7.8-206.4.6-304-2.8-54.9,0-111.6,2.6-166.3,4.1.9,18.9,2.8,41,4.1,59.8h0Z"/>
  <path id="STROKE_26d49445-e5ff-40f4-8433-3759eb01aec2" class="st1" d="M599,673.8s-1,33.7-1.7,54c41.7,0,86.6-2.9,128.5-2.3,42.3.6,85.4,2.8,127.7,3.9,58.5,2.1,119.6-6.9,177.7-2.2-2.5-17.5-1.6-35.2-4.5-52.6-41.9,3.7-87.1.6-129.2-.3-40.8-.4-85.6.9-126.1,1.2-55.5.7-117.1-2-172.4-1.7"/>
  <path id="STROKE_3a363ed9-63ed-4e97-97f4-30da2e70b1f5" class="st1" d="M661.6,541.4c0-16.2-1.1-47-.3-63.2l5.4-.3c97.7-9.9,197.4.7,295.3,2.7,1.6,22.5,2.8,38.4,4.6,59.1"/>
  <path id="STROKE_348b5126-26f5-427f-ba21-cfac23aba5f9" class="st1" d="M922.3,359.4c3.2,18.3,1.7,40.9,4.1,59.9"/>
  <path id="STROKE_d48c5d54-c1f8-49e8-aebd-8c1792bf449d" class="st1" d="M549.5,820.5c2.7-3.9,28.7-20.2,31-21.8"/>
  <path id="STROKE_c63544b3-5702-4c0b-a587-ef3c22872d21" class="st1" d="M576.1,738.2c5.4-4.4,15.6-5.8,21.2-10.4"/>
  <path id="STROKE_120c09c0-2df8-4762-ae0b-8f91325a75f1" class="st1" d="M599,673.8c6.1-5.1,14.5-12.3,21-17.5"/>
  <path id="STROKE_373f88b9-b026-4a03-98f3-6dbf94b2c29e" class="st1" d="M640.1,606.9c1.3-22.3,2.2-39.4,4-60.7v-3.5c111.5-5.6,225.7-3,337.4-2.8,0,14.2,4.7,52.5,4.8,66.6"/>
  <path id="STROKE_76532f68-567f-471a-a8c9-5d553f0d7083" class="st1" d="M169.4,899c85.3-94.6,168.4-203.3,253.2-299.5,92.4-106,189.8-209.9,270.6-324.9.5,0,7.3,2.4,7.3,2.4-40.5,55.5-84,118.2-126.2,172.6-46,59.8-98.5,122.2-144.1,182.4-67.8,88.6-127.6,178.6-196.9,267"/>
  <path id="STROKE_33e01f80-1fa7-4873-9435-78f366cbae00" class="st1" d="M829.6,74.4c-5.6-23.2-33.7-37.1-49.4-14.5-3.6,5.2-8.4,14.7-6.8,20.8,2.8,3.3,26.5,1.1,30.5,1.7,9.8-.2,18-1.5,26.4-5.8l-.7-2.2h0Z"/>
  <path id="STROKE_5c27e49b-e53a-4b28-84a4-40f876a44e43" class="st1" d="M777.6,99.1c-5.7,4-11.9,7.4-18.3,12.3"/>
  <path id="STROKE_6e7281b7-e503-44db-9714-1eb2f9d5c659" class="st1" d="M781.2,111.2c-4.1,7.1-8.4,13.8-13.7,20.4"/>
  <path id="STROKE_9bc82786-1d68-4afa-9058-ccccabef8538" class="st1" d="M805.8,108.5c-1.4,5.5-3.7,13.3-4.3,19.1"/>
  <path id="STROKE_43f5c7a9-8690-4604-b5b5-c18cee3b257e" class="st1" d="M816.1,98.3c3.5,4.7,7.2,10.9,10.6,16"/>
  <path id="STROKE_f2e1e8ef-0f20-4f23-a197-3fce014710ae" class="st1" d="M799.5,47.3c-.2-13.7.4-32.3,0-45.3"/>
  <line class="st1" x1="1026.1" y1="673.2" x2="1008.2" y2="657.7"/>
  <line class="st1" x1="1050.4" y1="798" x2="1071.7" y2="818.1"/>
  <line class="st1" x1="1031.2" y1="727.2" x2="1046.7" y2="737.6"/>
  <path id="STROKE_6d92c28e-1da6-4682-a1e5-ca44083d1d53" class="st1" d="M675.9,313.6c8,10.8,4.7,23-3.3,23.3"/>
  <path id="STROKE_32821349-68c9-4f2c-a01b-a5291331581a" class="st1" d="M671.9,319.3c4.3,7.4,2.6,14.8-3.9,14.8"/>
  <path id="STROKE_3f63b194-8e67-46c3-94a0-f1c0f363c676" class="st1" d="M600.3,417.9c11.4,14.8,5.8,32.8-4.3,32.7"/>
  <path id="STROKE_483ae91d-1a4a-4df2-9235-5b0f0c21dae2" class="st1" d="M595.1,424.7c7.8,11.1,1.3,19.1-5.5,18"/>
  <path id="STROKE_8bf122ca-3818-4296-b8ec-dce3dd4a09dc" class="st1" d="M504,539.5c8.6,6.3,12.6,24,5.1,29.2-3.1,1.7-6.5,1.4-9.8,2.9"/>
  <path id="STROKE_9ae38300-baa1-4606-a641-ce28927bf2c9" class="st1" d="M497.9,545.9c7.4,1.2,10.3,13.1,5,17-3.2,1.9-7.5,3.1-11.2,3"/>
  <path id="STROKE_1491f421-58db-4deb-a371-741653c6e397" class="st1" d="M497.4,563.4c-3.9-6.9-13.1,0-9.9,6.4,2.2,4.6,8.3,10.9,13.7,8.1,2-1.2,2.4-3.5,1.2-5.4"/>
  <path id="STROKE_8bf122ca-3818-4296-b8ec-dce3dd4a09dc1" class="st1" d="M369.3,717c10.5,6.2,13.3,30.1,4.4,36.2-3.7,2-10.7,3.4-15.2,3.4"/>
  <path id="STROKE_9ae38300-baa1-4606-a641-ce28927bf2c91" class="st1" d="M362.2,725c8.7,1.4,10.5,16.8,4.2,21.4-3.8,2.2-7.2,4.6-11.6,4.5"/>
  <path id="STROKE_1491f421-58db-4deb-a371-741653c6e3971" class="st1" d="M361.6,747.1c-4.6-8.1-17.1,0-13.3,7.4,2.6,5.4,9.8,12.8,16.1,9.5,2.4-1.4,3.6-5.2,2.2-7.4"/>
  <path id="STROKE_8605a178-53d5-46ee-ab1f-4af4ada548da" class="st1" d="M594.3,440.5c-8.3-5.1-13.1,5.4-7.3,11.5,2.9,3.1,7.7,5,11.7,3.1,1.5-.6,3.5-2.4,2.4-4.1"/>
  <path id="STROKE_a881d670-a452-4a62-a22b-3a0588d5d5c2" class="st1" d="M671.9,330.8c-4-2.8-10.8,2.8-7.4,7,2.5,4.3,13.7,7.3,12.4-.5"/>
  <path id="STROKE_6703a319-eeec-492b-a9b3-0917b01a3fcf" class="st1" d="M697.3,413.7c-.3-20.4-1.5-37-1.9-57.4,77.8-2.9,149.3,5.6,226.9,3.1-.9-66.7-2-136.8,2.7-203.9,2.3-51.5,0-155.5,0-155.5"/>
  <path id="STROKE_92da983c-124c-460b-9af5-d5a7f59fa0f3" class="st1" d="M695.4,357c-.5-21.8.2-50.1,0-72"/>
  <path id="STROKE_09722c18-5406-422c-bccf-86f140eb4c24" class="st1" d="M695.4,274.2c0-69.4,2.2-205.6,0-273.5"/>
  <path id="Door" class="st0" d="M695.4,1.4c2.2,67.9,0,204.1,0,273.5v10.8c.2,21.9,1,71.3,1,71.3,77.8-2.9,148.3,5.6,225.9,3.1-.9-66.7-2-136.8,2.7-203.9,2.3-51.5,0-155.5,0-155.5l-229.6.7h0Z"/>
  <path id="STROKE_1d7d80b5-644e-4f25-8890-ab9038fa1bf4" class="st1" d="M899.5,141.2c-27.7-1.6-60-.7-88.2-1.2-22.1,0-47.5-1.7-69.1-2.5,1.7,9,2.2,13.1,3.3,25.1,51.4-2.7,103.1,1.6,155.1,2,0,0-.5-15-1.1-23.3h0Z"/>
  <path id="STROKE_0e8e3ce7-6a29-4fed-8d2c-3ebd6484a91c" class="st1" d="M761.5,150.3c.6-.3,1.1-1,1.3-1.6,0-1.4-1.2-3.1-2.4-3.6-2.5-1-7.3,0-7.1,3.3.8,3.4,5.9,4.2,8.2,1.9h0Z"/>
  <path id="STROKE_4cf5665a-eb81-402a-91fa-36c5815d87e0" class="st1" d="M789.3,146.9c-1.6.1-3.7,1.5-3.1,3.3,0,0,0,.2,0,.2,0,0,0,.2.2.2,1.1.9,3.2.2,3.9-.9,0-.3.3-.3.5-.8,0-.6-.9-2.2-1.6-2.1h0Z"/>
  <path id="STROKE_9dc526e8-cead-4ceb-8b25-6ed1093791a9" class="st1" d="M819.5,149.6c-.9-.3-2-.1-2.9.1-.9.3-2,1.6-1.3,2.5,1.3,1.6,5.4-.7,4.2-2.7h0Z"/>
  <path id="STROKE_c3fd28c4-3778-4151-bb40-68855d6c26bb" class="st1" d="M844.1,150.2c-2.3.3-4,3.7-1,4.4,1.7.3,2.6-1,2.9-2.4.2-.8-1.4-1.8-2-2h0Z"/>
  <path id="STROKE_2bc2fb93-b1cf-4520-ac32-7434abaf882c" class="st1" d="M880.4,152.8c-2.6-2.5-7.7.5-4.5,3.5,2.2,1.8,6.6-.9,4.5-3.5Z"/>
  <path id="STROKE_2723813b-dec1-47cb-992f-cff34e48f481" class="st2" d="M819.7,489s39.7,35.7,50,44.2c-9.3-.1-17.5.6-26.9,0-.6,14.3,0,27.3,0,27.3h-46s-1.4-12.8,0-27.3c-8.7.2-18.4.3-27.2,0l50-44.2h0Z"/>
</svg>