<?xml version="1.0" encoding="UTF-8"?>
<svg id="Ebene_1" xmlns="http://www.w3.org/2000/svg" version="1.1" viewBox="0 0 1600 900">
  <!-- Generator: Adobe Illustrator 29.1.0, SVG Export Plug-In . SVG Version: 2.1.0 Build 142)  -->
  <defs>
    <style>
      .st0, .st1 {
        fill: none;
      }

      .st2 {
        fill: aqua;
      }

      .st2, .st1 {
        stroke: #fff;
        stroke-linecap: round;
        stroke-linejoin: round;
        stroke-width: 3px;
      }
    </style>
  </defs>
  <rect width="1600" height="900"/>
  <path id="STROKE_fb477123-1509-47c2-b40f-5d73e577f383" class="st1" d="M556.8,817.9c9.7-26.8,22.8-82.5,22.8-82.5,94,4.2,188.6-2.4,282.8-.4,44.5,1,139,0,139,0,8.4,21.9,17.9,57.2,20.6,80.6"/>
  <path id="STROKE_481506be-05e9-4dff-a4ee-3075b954fed8" class="st1" d="M870.2,350.4c88.1,42.5,180.5,88,267.9,132.2,63.7,30.6,406.7,175.9,461.9,220.6"/>
  <path id="STROKE_7c12e188-14b4-4845-8cc4-4ca1016e5d03" class="st1" d="M887.4,337c-1.8,3.1.7,7,2.7,8.9,2.9,2.8,5.5,5.3,10.5,5.3"/>
  <path id="STROKE_350c56e5-a02d-409a-a0b9-bd75f38939e7" class="st1" d="M893.6,338.4c2.1,5.5,5,8.5,10.5,9.4"/>
  <path id="STROKE_6d92c28e-1da6-4682-a1e5-ca44083d1d53" class="st1" d="M948.2,348.9c1.2,8.3.7,20.2,11.2,20.6"/>
  <path id="STROKE_32821349-68c9-4f2c-a01b-a5291331581a" class="st1" d="M955.2,350c.5,7.3,1.7,15.8,10.2,15.8"/>
  <path id="STROKE_55df37a9-d6ac-49ef-9e3b-8fcc3a0dc20e" class="st1" d="M865.2,333.5c-1.3,5.7,5.6,10.3,10.9,11.1"/>
  <path id="STROKE_90923529-8cac-47ae-8d32-ef14780744ec" class="st1" d="M871.8,335.1c.7,2.6,2.6,5,5.6,4.9"/>
  <path id="STROKE_3f63b194-8e67-46c3-94a0-f1c0f363c676" class="st1" d="M1060.6,373.4c-1,8.2,2.6,20.8,12.7,20.7"/>
  <path id="STROKE_483ae91d-1a4a-4df2-9235-5b0f0c21dae2" class="st1" d="M1068.9,375.1c-4,7.2,4.5,13.6,11.3,12.5"/>
  <path id="STROKE_8bf122ca-3818-4296-b8ec-dce3dd4a09dc" class="st1" d="M1226.9,411c-6.7,5.8-8.2,18.4-.7,23.6,3.1,1.7,6.5,1.4,9.8,2.9"/>
  <path id="STROKE_9ae38300-baa1-4606-a641-ce28927bf2c9" class="st1" d="M1235.3,412.9c-7.4,1.2-8.2,12-2.9,15.9,3.2,1.9,7.5,3.1,11.2,3"/>
  <path id="STROKE_1491f421-58db-4deb-a371-741653c6e397" class="st1" d="M1237.9,429.3c3.9-6.9,13.1.1,9.9,6.4-2.2,4.6-8.3,10.9-13.7,8.1-2-1.2-2.4-3.5-1.2-5.4"/>
  <path id="STROKE_8bf122ca-3818-4296-b8ec-dce3dd4a09dc1" class="st1" d="M1463.4,458.2c-6.7,5.8-7.4,19.9,0,25.1,3.1,1.7,9.1,2.9,12.9,2.9"/>
  <path id="STROKE_9ae38300-baa1-4606-a641-ce28927bf2c91" class="st1" d="M1473.3,459.4c-7.4,1.2-8.9,14.2-3.6,18.1,3.2,1.9,6.1,3.9,9.8,3.8"/>
  <path id="STROKE_1491f421-58db-4deb-a371-741653c6e3971" class="st1" d="M1473.8,478.2c3.9-6.9,14.5,0,11.3,6.3-2.2,4.6-8.3,10.9-13.7,8.1-2-1.2-3.1-4.4-1.9-6.3"/>
  <path id="STROKE_8605a178-53d5-46ee-ab1f-4af4ada548da" class="st1" d="M1075.3,384.5c8.3-5.1,13.1,5.4,7.3,11.5-2.9,3.1-7.7,5-11.7,3.1-1.5-.6-3.5-2.4-2.4-4.1"/>
  <path id="STROKE_a881d670-a452-4a62-a22b-3a0588d5d5c2" class="st1" d="M960.3,361.5c5.2-3.7,14.1,3.7,9.7,9.2-3.3,5.6-18,9.6-16.2-.6"/>
  <path id="STROKE_1e80cc33-4298-4f6b-bd3e-2788f15fcf1c" class="st1" d="M900.5,344.7c5.9-2.2,12.7,3.8,6.6,8.7-3.2,3.1-12.6,4.5-11-2.1"/>
  <path id="STROKE_edd99b7a-e130-4166-911f-276a3c03ea92" class="st1" d="M875.5,339.7c2.6-1.9,5.7,1.5,4,4-.9,1.8-4.6,3.2-5.8,1.2"/>
  <path id="STROKE_523031ea-6483-4fe8-9510-e64fccc14524" class="st1" d="M887.4,0c-4,90.4-7.4,229.5-14.1,319.8"/>
  <path id="STROKE_2525fd9b-5d81-4839-aebc-01ac31e66231" class="st1" d="M723.5,418.6c-.5,14.2-2,30.5-2.7,44.7"/>
  <path id="STROKE_d1fa8a22-20f4-4ea2-951a-503169d63026" class="st1" d="M866.2,417.9c-1.4,15,1.3,31.7,1.1,46.7"/>
  <path id="STROKE_e43a1acf-4bd8-4626-a123-aae935b4829a" class="st1" d="M719.2,474.8c-.4-3.7-.4-4.8-.8-9.1l152,1.4s-.2,7.1-.3,9.4"/>
  <path id="STROKE_fe928f47-974f-48d3-87fc-a6344403c3f2" class="st1" d="M685.3,548.3c.3-5.2.6-16.9.6-16.9,40.1,2.5,80.2-1.5,120.4-1,31.8,0,94.3-.8,94.3-.8.5,4.8.6,10.5,1,15.3"/>
  <path id="STROKE_bd7eff41-943e-4470-8bbd-a106d01e5ab8" class="st1" d="M694.2,531.5c.2-5.5.3-9.9.5-15.3"/>
  <path id="STROKE_3a81d294-13e4-40d6-8e3b-d76d3bbdf474" class="st1" d="M695.5,516.1c66.1.9,197.6.4,197.6.4.2,4.2.2,8.7,0,12.9"/>
  <path id="STROKE_cc0b749e-0271-497e-9445-3fa533812b5b" class="st1" d="M702.6,514.4c.2-5.2.6-8.5.8-13,0,0,122.7.5,183.1,1,0,0,.4,8.9.3,14"/>
  <path id="STROKE_18c1a715-c33d-4754-8d84-434b69bd0407" class="st1" d="M708.7,501.5c0-3.5-.7-8.4-.9-11.8,0,0,53,.3,79.3.2,31.6-.4,62.8-.7,94.4.5,0,0,.3,5.3.7,10.6"/>
  <path id="STROKE_066a07a5-71b1-4988-932c-9d6b6b6e6d90" class="st1" d="M714.5,489c-.5-3.8-1.4-8.8-2-12.6,0,0,107.7,4.1,160.8.7,0,0,1.5,6.9,2.3,10.6"/>
  <path id="STROKE_05eb9d57-b24a-4e87-b093-f53b2d7dc694" class="st1" d="M849.2,293.1c3.4,6.1,13,1,10.6-4.8-2.6-6.3-14.7-5-10.6,4.8Z"/>
  <path id="STROKE_dc04ed15-f2f7-4eeb-a533-fcbfdc252e2f" class="st1" d="M705,83.7c31.3.3,63.1-2.3,94.4-2.2,28.4-.4,56.1,3.6,84.5.7"/>
  <path id="STROKE_911260d3-5e2f-4eaa-8ebc-26b80c863f67" class="st1" d="M674.6,571.5c1.6-7.2,3.2-20.7,3.2-20.7,78.1-.6,232.3-3.9,232.3-3.9,1.3,7.9,1.5,13,2.8,20.7"/>
  <path id="STROKE_9961307c-b28b-4b8e-b327-dc2bbba70153" class="st1" d="M663.8,596.9c.8-10.2,4.1-23.7,4.1-23.7,84.7-3.2,253.6-4.6,253.6-4.6,1.6,11.1,3.3,16.4,4.9,26.7"/>
  <path id="STROKE_a4bd7cb2-2556-429f-adf1-e6c452022765" class="st1" d="M644.9,631.1c2-11.6,2.9-21,3.3-33.2,0,0,93.3,3.1,140.2,2.9,48.6-2,96.9-1.7,145.4-5.1,0,0,3.8,21.1,5.2,32.5"/>
  <path id="STROKE_4db53e5a-16b0-4648-8243-83d49ed6b478" class="st1" d="M622.3,679c1.6-17.1,5.3-46.8,5.3-46.8,109,.9,326.1-2.7,326.1-2.7,1.9,13.6,3.8,27,5,41.2"/>
  <path id="STROKE_6cf5cf82-1504-4b72-858d-dda6324a075b" class="st1" d="M593.1,735.8c3.3-16.7,8.4-54.3,8.4-54.3,56.9-1.4,114.4-6.3,171.4-4.4,67.2-.9,200.5-6.9,200.5-6.9,3.7,18.9,6.8,45,9.5,64"/>
  <path id="STROKE_25368585-19e7-47ce-878d-05598d9a06e2" class="st1" d="M1066.4,900c-10.7-37.4-33.6-84.6-33.6-84.6-40.2,5.1-80.7,3.3-120.9,3.5-43.3.2-88.4.9-131.9-.4-81.9-1-165.5,3.7-247.3-1.1,0,0-7.8,49.3-20.5,82.6"/>
  <path class="st1" d="M1600,486.3c-37.2-16.4-417.1-82-456-93.1-92.8-25.6-187.7-44.6-282.5-61.5,0,0-2.2-.2-3.1-.7-5.3-2.8.4-11.7,5.9-10.1l2.6.3c95,13.6,188.8,22.3,283.9,34.7,23.5,2.9,48.6,5.2,71.9,9.4,21.9,3.4,355.2,45.6,377.3,47.9"/>
  <path id="STROKE_96fe6e8b-787c-4005-b11c-54df8ba9d030" class="st1" d="M700,0c2.4,36.2,2.2,56.2,3.7,91.4,2.5,61.9,9.9,123.2,11.3,185.1,1.1,22.7,4.6,45.9,5.3,68.5.6,22.2,3.3,73.6,3.3,73.6,23.9,1.6,48.1-.9,72.1-.9,23.4.1,70.6.2,70.6.2,0-24.1,2.3-50.6,3.7-74.8"/>
  <path id="STROKE_d5813cce-0fbb-482a-8c12-1c00a8775541" class="st1" d="M734.2,418.3c-8.5-68.9-10.9-138.6-12.5-207.9-1.5-37.9-5-116.4-5-116.4,20.4,0,40.7-2.1,61-1.8,33,.7,98.8.8,98.8.8-4,74.8-9.6,152.4-11.7,227.3"/>
  <path id="STROKE_919ee66e-bcc8-43e8-92c5-ddfde608f6b7" class="st1" d="M863.2,332.8c-2.1,27.7-.6,56.7-4.2,84.3"/>
  <path id="Door" class="st0" d="M863.2,333c-2.1,27.7-.6,56.7-4.2,84.3,0,0-39.9.7-63.3.6-24,0-61.5.6-61.5.6-8.5-68.9-10.9-138.6-12.5-207.9-1.5-37.9-5-116.4-5-116.4,20.4,0,40.7-2.1,61-1.8,33,.7,98.8.8,98.8.8-4,74.8-9.6,152.4-11.7,227.3l-1.6,12.5Z"/>
  <path id="STROKE_2723813b-dec1-47cb-992f-cff34e48f481" class="st2" d="M797,534.7s33.9,30.5,42.7,37.7c-8-.1-14.9.5-22.9,0-.5,12.3,0,23.3,0,23.3h-39.3s-1.2-10.9,0-23.3c-7.4.2-15.7.2-23.2,0l42.7-37.7h0Z"/>
</svg>