<?xml version="1.0" encoding="UTF-8"?>
<svg id="Ebene_1" xmlns="http://www.w3.org/2000/svg" version="1.1" viewBox="0 0 1600 900">
  <!-- Generator: Adobe Illustrator 29.1.0, SVG Export Plug-In . SVG Version: 2.1.0 Build 142)  -->
  <defs>
    <style>
      .st0, .st1 {
        fill: none;
      }

      .st1, .st2, .st3, .st4, .st5 {
        stroke: #000;
        stroke-linecap: round;
        stroke-linejoin: round;
        stroke-width: 3px;
      }

      .st2 {
        fill: #00c23e;
      }

      .st3 {
        fill: #f0f;
        stroke-opacity: .7;
      }

      .st4 {
        fill: aqua;
      }

      .st5 {
        fill: #ff0;
      }
    </style>
  </defs>
  <g id="Pen">
    <path id="STROKE_1d8e28cb-b568-4272-8194-d3212b8d963c" class="st5" d="M805.9,247.3c1.6,4.2,2.7,6.3,2.6,10.5.3,6.1-5.3,12.3-11.5,10.7-7.8-2.4-9-13.7-5.5-20.1"/>
    <path id="STROKE_6c9c7404-d29c-4910-9c88-666190371048" class="st5" d="M803.9,334.6c-1.3,3.5-2.2,6.2-5.1,8.3-.9.6-2,.8-3.1.7-1,.2-2-.4-2.8-.8-1.5-.9-2.2-2.6-2.7-4.2v-4.2"/>
    <path id="STROKE_2ceb2a1f-15ce-40ef-b551-7405748289e4" class="st1" d="M687.4,597.9c-10.2,10.1-21.5,20.8-32.5,31.7"/>
    <path id="STROKE_732901be-4f27-4845-84fa-93f89d3b165c" class="st1" d="M589.5,699.5c-60.8,66.5-125.9,133.8-187.9,199.3"/>
    <path id="STROKE_89ce50e8-125f-45cb-8ddb-e85d62b2d91a" class="st1" d="M686.2,586.2c-15,13.1-18.6,14-32.2,26.6"/>
    <path id="STROKE_bf6fbfab-8e91-42fc-b6db-a29e29816fc3" class="st1" d="M588.1,676.3c-13.2,13.4-29.2,27.8-42.5,40-24.5,22.4-50.3,48.8-74.4,71.5-39.9,37.3-83.8,72.8-123,111"/>
    <path id="STROKE_7be66836-7305-409e-bfc0-ac9d104582cc" class="st1" d="M586.9,143.7c-25.9-47.1-47.1-96.7-70.1-143.5"/>
    <path id="STROKE_7f243793-02fc-488f-a03b-3f38841ed466" class="st1" d="M999.2,134.5c15.6-24.1,30.3-48.3,46.9-72.1,14.5-20.7,30.4-40.4,43-62.2"/>
    <path id="STROKE_0f607105-4132-4b3e-9a9c-ade2ee99ca7b" class="st1" d="M586.9,143.7c100.7-1.1,310.8-6.5,412.3-9.2,4.4,48.5,3.2,99.8,2.1,148.3-.5,55.6-3.3,112.8-4.7,168.3-.8,39.6.8,83.8.7,123-1,42.2-4.2,85.5-.3,127.8"/>
    <path id="STROKE_e31c417d-340d-421e-b31c-1e165864e812" class="st1" d="M946.5,699.9c2.1-43.8-1-91.3.6-135.6.5-16.8,0-32.3-.8-48.9-.6-23.5,0-53.2,0-76.1-.5-42.5,6-84.7-4.7-126.1-12.8-49-52.9-87.3-101.6-100.5"/>
    <path id="STROKE_166eb928-9c07-4fa5-b5be-3e8c7907dc65" class="st1" d="M767.4,209.1c-35.9,10.8-75.7,26.3-97.7,58.4-31,52.8-28.6,118-27.3,177.5,2.5,42.5.7,88.1.2,130.8.8,42.1,4.6,84.4,4.7,126.3"/>
    <path id="STROKE_59bf2928-4fe7-4367-b9c1-2d38539cec85" class="st1" d="M938,686.2c-1-41.8,4.5-84.4.2-126.1-3.3-33.9,2.7-70.3,2.2-104.4-4.7-45.8,1.2-95.1-8.9-140.1-10-42.4-44.3-74-85.3-86.8"/>
    <path id="STROKE_104a63be-233c-41ce-8274-355625cb2795" class="st1" d="M758.5,224.4c-42.3,12-79.7,44.6-94.7,86.3-12.9,36.2-11.4,78-12.7,116.1-.8,36.9-2.5,78.2-.8,115.1,3.1,48.3,4.7,98,7.4,146.2"/>
    <path id="STROKE_56a4f15e-ec74-4688-9e34-d2c5724a8ebf" class="st1" d="M657.2,688.7c-3.7,4.8-6.2,7.9-9.9,13.4"/>
    <path id="STROKE_3b14555a-e870-4ba9-b10b-81a81a082a59" class="st1" d="M645.3,675.1c-13.8.3-43.1,0-56.6,1.2"/>
    <path id="STROKE_acecab5a-2318-4ed3-afc2-e55455cbdab7" class="st1" d="M647.3,702c-19.3-1.8-37.9-2.9-57.8-2.6"/>
    <path id="STROKE_541d32de-622d-46d6-9a25-d3bed7739ec7" class="st1" d="M586.9,143.7c6.8,74.5-5.1,150.5-3.7,225.3,2.3,40.8.5,82.2.5,122.8.2,26.9,3.9,54.7,3.5,81.5-.2,8.6-1.1,18-.9,26.6.4,6.9,1.3,16.3,1,23.2-.3,9.9-1.6,21.1-1.2,31,.7,15.4,3,28.8,3.7,44.4"/>
    <path id="STROKE_c850e266-afb1-4a17-90f4-d6c95ed50968" class="st1" d="M948,675.7c15,1.3,30.7,2.6,45.8,3.8"/>
    <path id="STROKE_023981e4-8f96-4145-ae48-3a76154dc00c" class="st1" d="M947.4,701.7c8,0,41.6.8,49.2-.3"/>
    <path id="STROKE_c8d119f9-1911-4c47-8b27-2dac8d0a98fe" class="st1" d="M938,686.4c2.5,5.5,6.3,10.3,9.6,15.3"/>
    <path class="st1" d="M996.6,701.8c31,26.3,54,55.8,83.5,83.3,39,34.9,71.7,76.6,107.2,114.7"/>
    <path class="st1" d="M907.1,268.6l-9,19.8-4.8,310.4c14.8,13.6,30.8,27.5,44.8,42.3"/>
    <path id="STROKE_e95a63c7-d81a-4291-8db4-f390cb4e66bb" class="st1" d="M995.1,679.5c31.2,30,67.4,58.6,99.4,87.8,47.7,42.9,96.8,88.2,143.3,132.3"/>
    <path id="STROKE_e95a63c7-d81a-4291-8db4-f390cb4e66bb1" class="st1" d="M892.5,584.7c14.3,14.4,30.9,30.6,45.8,44.7"/>
    <path id="STROKE_fed9da79-c429-4fa7-895d-ec077d18bd6b" class="st1" d="M688.1,586c14.8.9,30.1,1.5,45.3.6"/>
    <path id="STROKE_3f0772bf-8043-4330-9386-c8dbc6369042" class="st1" d="M847.2,583.8c8.9.3,35.9.5,45.1.4"/>
    <path id="STROKE_8c56e41c-2b0a-41c6-98e6-97ba901d8e33" class="st1" d="M818.5,508.3c1.2,2.2,3.9,4.4,6.6,4,3.5,0,6.4-2.7,7.5-5.8.3-1.3.6-3,0-4.2-.8-2.5-2-4.6-4.5-5.9,0,0-1.8-.8-2.4-.9s-2.4,0-3.1.2c-1.4.5-3.3,2.3-4.3,3.8-.2.6-.6,1.5-.8,2.2"/>
    <path id="STROKE_b05763d7-8fe4-49b8-b9b6-25fca01e2b35" class="st1" d="M804.8,502.1c-.3,0-1.1.4-1.4.6-.6.5-1.6,1.7-1.4,2.8.4,1.1,2.7,2.1,3.8,2.3,4.2.9,13.2,1.2,17-.7s.8-.8,1-1.2c.2-.5.2-2-.2-2.3-.5-.6-2.3-1.4-3.6-1.5-4.5-.4-12.7-.5-15.2,0h0Z"/>
    <path id="STROKE_f4c727ab-9a9f-4495-b723-f84b10f79bc1" class="st1" d="M800.9,24.3c-3.9,52.1-1.6,109.8-2.4,162"/>
    <path id="STROKE_4080ba46-1286-4f2e-9857-9e96346adad5" class="st1" d="M769.1,250.1c27-4,54.5-4.9,81.5-1.8-1-30.6-30-73.7-64.5-57.4-19.8,12.5-31.8,36.7-31.4,59.9,0,1.3,14.5-.7,14.5-.7h0Z"/>
    <path id="STROKE_23ae8ef3-7f73-4b98-887e-fce04e8aaca3" class="st1" d="M800.2,268.9v22.9"/>
    <path id="STROKE_bef74964-423a-4971-bc51-95e232538015" class="st1" d="M766.1,333.2c7.1-21.6,29.2-59.4,52.3-31,7.3,9.4,14.8,23.4,15.8,35.1-22.5-2.4-45.4-4.1-67.9-4h-.2,0Z"/>
    <path id="STROKE_dbc6816b-a160-4d5c-9b5a-6550b22fb29b" class="st2" d="M403.7,601.9c39.4-13.9,56.9-20.7,100-37.2-4.7-94.3.6-195.9-1.2-290.5-1.3-52-8-105.7-4-157.2C461.4,83.3,426.3,42.1,399.2-.2c-.2,40.6,1.5,81.1,2.3,121-.4,71.2-.4,149.8.4,220.6-.8,85.7-4.1,173-2,259.2,0,0,1.3,2,3.6,1.1v-.2h0l.3.4h-.1,0Z"/>
    <path id="STROKE_d8ec0935-397c-4413-a8ac-1e676fa6df29" class="st1" d="M687.3,598c66.6,5.1,139.7-1.8,206.2,1.9"/>
    <path id="STROKE_519b7bbd-6557-4ab5-bece-ad5df7b21bba" class="st1" d="M734.2,600.1c-1.1-71.9,3.5-162.1-1.6-233.8,19.8-4.5,40.9-1.6,61.2-.6,17.9,1.6,35.7,1.1,53.4-1.4-.7,50.8-1.6,105.1.8,155.8,1.5,25.3-1.5,52.3-2.2,77.4"/>
    <path class="st1" d="M605.6,143.7"/>
    <polyline class="st1" points="687.4 597.9 686.8 293.7 677.7 283.9"/>
    <line class="st1" x1="898.1" y1="288.3" x2="686.8" y2="293.7"/>
    <path id="STROKE_76f743f8-31ec-4d19-b028-611d66b3b06a" class="st3" d="M597.9,901c14-13.4,25-26.6,37.5-39.7,22.8-21.8,48.9-47.3,64.5-70.2,34,0,72.6-.7,107.2-2.1,33.2-1.4,67.5-2.4,100.2,0,21.4,20,37.3,42.3,57.5,62.8,15.5,16.4,37.8,33.5,54.3,49.3"/>
  </g>
  <path id="STROKE_519b7bbd-6557-4ab5-bece-ad5df7b21bba1" class="st0" d="M845.8,598.5c.7-25.1,3.7-53.1,2.2-78.4-2.4-50.7-1.5-105-.8-155.8-17.7,2.5-35.5,3-53.4,1.4-20.3-1-41.4-3.9-61.2.6,5.1,71.7.5,161.9,1.6,233.8l111.6-1.6h0Z"/>
  <path id="STROKE_2723813b-dec1-47cb-992f-cff34e48f481" class="st4" d="M799.7,618.9s40.7,34.7,51.2,42.9c-9.3.1-17.5,1-26.9.7-.3,14.4.7,27.3.7,27.3l-46,1.2s-1.7-12.7-.6-27.3c-8.7.4-18.4.7-27.2.7l48.9-45.5h0Z"/>
</svg>