<?xml version="1.0" encoding="UTF-8"?>
<svg id="Ebene_1" xmlns="http://www.w3.org/2000/svg" version="1.1" viewBox="0 0 1600 900">
  <!-- Generator: Adobe Illustrator 29.1.0, SVG Export Plug-In . SVG Version: 2.1.0 Build 142)  -->
  <defs>
    <style>
      .st0 {
        fill: none;
      }

      .st0, .st1 {
        stroke: #000;
        stroke-linecap: round;
        stroke-linejoin: round;
        stroke-width: 3px;
      }

      .st1 {
        fill: #ff13f0;
      }
    </style>
  </defs>
  <path id="STROKE_70cb5474-efe9-44cb-b045-c4f8a5a2b36a" class="st0" d="M1224,189.7c12.2,2,26.8,4,39,6.9-.9,28.5,1.9,58.8,2.4,87.2.2,33.5-1.9,66.4-2.8,100.2,1.1,121.9-2.5,243.7,1.6,365.5-59.5-21.6-126.2-29.1-190.8-32.3-94.9-4.9-188.6,16.7-273.3,54.9"/>
  <path id="STROKE_ab9ac514-3ea2-4193-8296-7afe31d24e23" class="st0" d="M1263.4,216.3c7.5.7,12.6,1.7,20,2.6-2.2,34.8-1.2,70-1.1,104.9-.6,26.6-2.3,53.4-1.7,80.1-.7,27.7,1.6,56.3,2.1,84-.4,26.3-2.6,53.3-1.2,79.7,0,65.3,1.5,130.8.9,196,0,1.7.3,8.4.5,10.7.2,2.4-3.2,0-3.2,0-28.8-9.1-57.5-17.2-87.3-23.9-39.7-9.5-79-13.3-119.6-18.7-24.5-2.6-44,1-68.4,1.6-47.2,1.3-94.2,6.1-138.6,20.9-22.3,5.8-46.4,11.5-66.6,22.3"/>
  <path class="st0" d="M1283.7,231.4c9.4,2.6,20.3,4.5,29.6,6.9v9.8"/>
  <path class="st1" d="M1335.6,589.1c.7,35.7-2.6,72.5-3.2,108.3-1,42.2.4,87.8-.6,129.7-45.3-10.1-92-14.8-138.2-20.8-74.4-10.6-149.5-18.5-224.9-16.6-21.2,0-43.6-2.5-64.8-.8-12.8.9-28.9.3-41.1,3-2.6,20-24.2,20.6-41.8,19.9-15.8-.3-31.7-1.2-47.5-.9-21.3,1.5-32.9-.3-37.3-21.5-40.4,1.3-80.4,0-121.1,1.3-54.8,1.5-108.7,5.1-163.1,10-56.1,4.2-112.5,12.4-167.6,22.8-2.6-.2-17.2,4.3-17.3,2.4,0-1.5-.2-4.4-.2-6.4-.1-28.1.2-56.5.2-84.6-1.3-56.6.3-113.3-.4-169.8-1.9-105.4-1.2-211.8-1.1-317.1,6.3-.4,13-1,20.3-.9.3,78,2.6,156.9,4.8,235,.5,39.6-1.3,80.3-.8,120,0,62.1,4.3,126.6-2.6,188.5,29.4-11.7,60.6-21.2,92.5-26.2,32.9-5.9,65.3-12.1,98.7-15.5,49.2-5.2,99-11.5,148.6-8.9,59.2,3.9,121.2,16.4,173.2,43,25.4-8.9,60-23.5,87.7-28.4,24.7-4.8,49.9-6.5,75.1-8.2,22.3-1.4,44.2-3.4,66.5-3.1,23.8,0,48,0,71.6,2.9,16.8,2.4,31.2,5.7,48.5,8.2,24.8,3.8,48.7,5.1,73.1,11.2,29.3,7.1,56.4,15.5,84.3,25.5,5.1,1.5,3.7-15.4,4.5-18.1.2-19.9,0-41.1,0-60.9-.3-25.5.6-51.1,0-77.1-.8-25.6-3.2-49.2-2.1-74.7,2.5-62.1,6.2-124.2,6.6-186.4-.5-41.8-4.5-83.6-3.1-125.5,4.1,0,16.6,0,19.3-.2,3,113.6,1.9,227.9,2.6,341.6l.6-.3h0Z"/>
  <path class="st0" d="M310.9,227.3h0c-10,5.2-16.2,7.9-24.6,13.2-.2,0-.5,5.1-.4,6.3"/>
  <path id="STROKE_7f13ccd1-6562-4dfc-8f22-4de21fab54f6" class="st0" d="M799.8,766c-18.3-7.3-38-18.6-56.4-26.2-35-13.9-71.8-25.3-108.9-33.6-82.9-17-171.4-18.1-253.8,1.6-1.4.4-5.4,1.8-5.4,1.2,0-4.8.3-11.1.6-16.3,1.4-34.3.4-67.9.7-102.4,0-67.7-4.1-134.6-5.8-202.2-1.3-77.3,1.2-154.8,4.4-231.8,57.6-6.5,116.8-8.1,174.7-3.7,67.3,3.6,135,20.2,190.7,55.8,17.5,10.6,31.5,26,40.7,43.1,1.3,2.3,9.6,12.4,10.8,14.4,1.1,2.1,8,14.5,8,14.5,13-17.5,21.7-33.2,36.8-49.2,26.5-27.4,61.8-46.6,99.2-59.1,39.1-12.9,80.1-17,121.7-19.1,54.7-3.5,110.4-1.3,164.7.7,4,32.6-1.1,65.2.3,97.9.7,22.3,2.8,46.2,2.5,68.6-.9,30.1-2,61.8-1.6,91.8-1.2,98.9,3.5,198.6,1.4,297.4-32.9-6.4-67.5-8.1-101-9.9-36.1-3.1-73-6.4-109.3-3.7-33.9,2.7-67.4,12.7-99.7,21.8-37.8,11.4-82,28.4-114.7,48"/>
  <path id="STROKE_0b844fa4-9f53-478c-bbb2-ef0dbaa0a091" class="st0" d="M799.8,776.8c-38.1-17.4-80.2-28-122.2-34.9-59.4-11.1-121-10.1-181-4-31.8,3.5-63.3,6.7-94.5,13.9-30.3,6.4-59.7,17-88.7,26.4,1.1-70.6-3.6-141.3-2.3-211.9-.6-114,2.8-229-.2-342.8,12.4-4.5,22.3-7.1,35.6-11.2"/>
  <path id="STROKE_f62ad0a3-1d72-453f-92ef-50bd0578c9a9" class="st0" d="M799.8,773.4c-25.7-14-53.6-28.5-82.5-36.3-30.1-7.3-63.1-11.9-94.2-15.7-43.8-4.5-86-6.5-129.8-2.6-50.1,4.7-98.6,15.6-146.9,28-1.6-22.9-.3-50.2-1-73.8-2.4-62.1-2.3-124.9-2.3-187,1.9-55.4,3.8-111.2,2.3-166.7-.4-40.3,2.6-82.6.6-122.3,8.6-2.6,18.4-5,27.7-6.3"/>
  <path id="STROKE_1265e4fb-4e9f-495b-86f4-992e53a68fb0" class="st0" d="M799.9,282.2c.6,99.5.5,199.4.7,299.1-.4,67.2,1.4,134.5-1.5,201.6"/>
</svg>