<?xml version="1.0" encoding="UTF-8"?>
<svg id="Ebene_1" xmlns="http://www.w3.org/2000/svg" version="1.1" viewBox="0 0 1600 900">
  <!-- Generator: Adobe Illustrator 29.1.0, SVG Export Plug-In . SVG Version: 2.1.0 Build 142)  -->
  <defs>
    <style>
      .st0 {
        fill: none;
      }

      .st0, .st1 {
        stroke: #000;
        stroke-linecap: round;
        stroke-linejoin: round;
        stroke-width: 3px;
      }

      .st1 {
        fill: #ff13f0;
      }
    </style>
  </defs>
  <path id="STROKE_70cb5474-efe9-44cb-b045-c4f8a5a2b36a" class="st0" d="M1224,125.3c12.2,2.2,26.8,4.4,39,7.6-.9,31.4,1.9,64.7,2.4,96,.2,36.9-1.9,73.1-2.8,110.3,1.1,134.2-2.5,268.3,1.6,402.4-59.5-23.8-126.2-32-190.8-35.6-94.9-5.4-188.6,18.4-273.3,60.4"/>
  <path id="STROKE_ab9ac514-3ea2-4193-8296-7afe31d24e23" class="st0" d="M1263.4,154.6c7.5.8,12.6,1.9,20,2.9-2.2,38.3-1.2,77.1-1.1,115.5-.6,29.3-2.3,58.8-1.7,88.2-.7,30.5,1.6,62,2.1,92.5-.4,29-2.6,58.7-1.2,87.8,0,71.9,1.5,144,.9,215.8,0,1.9.3,9.3.5,11.8.2,2.6-3.2,0-3.2,0-28.8-10-57.5-18.9-87.3-26.3-39.7-10.5-79-14.6-119.6-20.6-24.5-2.9-44,1.1-68.4,1.8-47.2,1.4-94.2,6.7-138.6,23-22.3,6.4-46.4,12.7-66.6,24.5"/>
  <path class="st0" d="M1283.7,171.2c9.4,2.9,20.3,5,29.6,7.6v10.8"/>
  <path class="st1" d="M1335.6,565c.7,39.3-2.6,79.8-3.2,119.2-1,46.5.4,96.7-.6,142.8-45.3-11.1-92-16.3-138.2-22.9-74.4-11.7-149.5-20.4-224.9-18.3-21.2,0-43.6-2.7-64.8-.9-12.8,1-28.9.3-41.1,3.3-2.6,22-24.2,22.7-41.8,21.9-15.8-.3-31.7-1.3-47.5-1-21.3,1.7-32.9-.3-37.3-23.7-40.4,1.4-80.4,0-121.1,1.4-54.8,1.7-108.7,5.6-163.1,11-56.1,4.6-112.5,13.6-167.6,25.1-2.6-.2-17.2,4.7-17.3,2.6,0-1.7-.2-4.8-.2-7.1-.1-30.9.2-62.2.2-93.1-1.3-62.3.3-124.7-.4-187-1.9-116.1-1.2-233.2-1.1-349.2,6.3-.4,13-1.1,20.3-1,.3,85.9,2.6,172.8,4.8,258.7.5,43.6-1.3,88.4-.8,132.1,0,68.4,4.3,139.4-2.6,207.6,29.4-12.9,60.6-23.3,92.5-28.9,32.9-6.5,65.3-13.3,98.7-17.1,49.2-5.7,99-12.7,148.6-9.8,59.2,4.3,121.2,18.1,173.2,47.3,25.4-9.8,60-25.9,87.7-31.3,24.7-5.3,49.9-7.2,75.1-9,22.3-1.5,44.2-3.7,66.5-3.4,23.8,0,48,0,71.6,3.2,16.8,2.6,31.2,6.3,48.5,9,24.8,4.2,48.7,5.6,73.1,12.3,29.3,7.8,56.4,17.1,84.3,28.1,5.1,1.6,3.7-17,4.5-19.9.2-21.9,0-45.2,0-67.1-.3-28.1.6-56.3,0-84.9-.8-28.2-3.2-54.2-2.1-82.2,2.5-68.4,6.2-136.8,6.6-205.2-.5-46-4.5-92.1-3.1-138.2,4.1,0,16.6,0,19.3-.2,3,125.1,1.9,250.9,2.6,376.1l.6-.3h0Z"/>
  <path class="st0" d="M310.9,166.7h0c-10,5.7-16.2,8.7-24.6,14.5-.2-.1-.5,5.6-.4,6.9"/>
  <path id="STROKE_7f13ccd1-6562-4dfc-8f22-4de21fab54f6" class="st0" d="M799.8,759.8c-18.3-8-38-20.5-56.4-28.8-35-15.3-71.8-27.9-108.9-37-82.9-18.7-171.4-19.9-253.8,1.8-1.4.4-5.4,2-5.4,1.3,0-5.3.3-12.2.6-17.9,1.4-37.8.4-74.8.7-112.8,0-74.5-4.1-148.2-5.8-222.6-1.3-85.1,1.2-170.4,4.4-255.2,57.6-7.2,116.8-8.9,174.7-4.1,67.3,4,135,22.2,190.7,61.4,17.5,11.7,31.5,28.6,40.7,47.5,1.3,2.5,9.6,13.7,10.8,15.9,1.1,2.3,8,16,8,16,13-19.3,21.7-36.6,36.8-54.2,26.5-30.2,61.8-51.3,99.2-65.1,39.1-14.2,80.1-18.7,121.7-21,54.7-3.8,110.4-1.4,164.7.8,4,35.9-1.1,71.8.3,107.8.7,24.6,2.8,50.9,2.5,75.5-.9,33.1-2,68-1.6,101.1-1.2,108.9,3.5,218.7,1.4,327.5-32.9-7.1-67.5-8.9-101-10.9-36.1-3.4-73-7.1-109.3-4.1-33.9,3-67.4,14-99.7,24-37.8,12.6-82,31.3-114.7,52.9"/>
  <path id="STROKE_0b844fa4-9f53-478c-bbb2-ef0dbaa0a091" class="st0" d="M799.8,771.7c-38.1-19.2-80.2-30.8-122.2-38.4-59.4-12.2-121-11.1-181-4.4-31.8,3.9-63.3,7.4-94.5,15.3-30.3,7.1-59.7,18.7-88.7,29.1,1.1-77.7-3.6-155.6-2.3-233.3-.6-125.5,2.8-252.1-.2-377.5,12.4-5,22.3-7.8,35.6-12.3"/>
  <path id="STROKE_f62ad0a3-1d72-453f-92ef-50bd0578c9a9" class="st0" d="M799.8,768c-25.7-15.4-53.6-31.4-82.5-40-30.1-8-63.1-13.1-94.2-17.3-43.8-4.9-86-7.2-129.8-2.9-50.1,5.2-98.6,17.2-146.9,30.8-1.6-25.2-.3-55.3-1-81.3-2.4-68.4-2.3-137.5-2.3-205.9,1.9-61,3.8-122.4,2.3-183.5-.4-44.4,2.6-90.9.6-134.7,8.6-2.9,18.4-5.5,27.7-6.9"/>
  <path id="STROKE_1265e4fb-4e9f-495b-86f4-992e53a68fb0" class="st0" d="M799.9,227.1c.6,109.6.5,219.6.7,329.3-.4,74,1.4,148.1-1.5,222"/>
</svg>