<?xml version="1.0" encoding="UTF-8"?>
<svg id="Ebene_1" xmlns="http://www.w3.org/2000/svg" version="1.1" viewBox="0 0 1600 900">
  <!-- Generator: Adobe Illustrator 29.1.0, SVG Export Plug-In . SVG Version: 2.1.0 Build 142)  -->
  <defs>
    <style>
      .st0 {
        fill: none;
      }

      .st0, .st1, .st2, .st3, .st4, .st5 {
        stroke-linecap: round;
        stroke-linejoin: round;
      }

      .st0, .st1, .st2, .st3, .st4, .st6 {
        stroke: #000;
      }

      .st0, .st2, .st3, .st4, .st6 {
        stroke-width: 3px;
      }

      .st1, .st5 {
        stroke-width: 4px;
      }

      .st2 {
        fill: #fdc01e;
      }

      .st4 {
        fill: #4baaaa;
      }

      .st5 {
        stroke: #fff;
      }

      .st6 {
        stroke-miterlimit: 10;
      }
    </style>
  </defs>
  <path id="STROKE_d257b3ae-5cf3-47c5-824c-48417580bdb2" class="st4" d="M348.2,225.2c-9.7-.3-19.3-.5-28.6,0-6.5,0-26.2-1-26.3,1.6s-.2,5.4-.4,8.3c-1.6,34.8-5,72.1-3.9,107.2,1.4,40.8,4.6,94.5,4.5,135.4,0,56.1,2.9,114.4,2.6,170.5.2,45,2,91.6,5.3,136.3,1.5,23.5,1,44.2,6.2,67.8,15.2,4.8,29.7,2.4,45.8,3.4,25,.7,47.2,3.2,72.3,1.8,41.1-3.5,39.9,4.7,70.3-25.6,16.4-16.2,32.8-32.5,46.8-50.8,7.3-33.6,10.1-69.6,10.6-104.3-.3-38.1-2.1-76.6-2.5-114.6,0-31.3,2.2-63.2,0-94.6-4.6-68.7-2.1-137.9-9.8-206.4-11-6.6-22.6-16.4-34.5-22.1-17.1-7.6-35.6-14.4-54.4-14.4,0,0-69.3,2.1-103.7.3l-.3.2h0Z"/>
  <path id="STROKE_24ff8104-0c1c-409e-8412-f291cf459aca" class="st0" d="M366.2,0s12.8,10.4,64.1,42c45.5,30.5,88.9,64.1,137.6,89.2"/>
  <path id="STROKE_69648c7b-1f99-41d9-9756-3ccd35b458e1" class="st0" d="M567.9,131.2c.3,54.9,4.8,107.5,5,162.9-.2,23,.3,42.1,1,63.6-.6,30.1-2.9,64.1-2.4,94.1"/>
  <path id="STROKE_584f09bb-faee-44f3-acef-d196af663e60" class="st0" d="M567.9,131.2c108.3,0,216.8-6.4,325.1-4.4,52,1.4,103.4-.8,155.1,4"/>
  <path id="STROKE_1398c8e5-74d7-4340-97a2-ac70de1e6fad" class="st0" d="M1048,130.8c36.7-22.3,63.7-48.9,99.3-74.6C1209.6,8.7,1228.3,0,1228.3,0"/>
  <path id="STROKE_5d41e3ed-5401-4ed9-a828-7baa835cd556" class="st0" d="M571.2,452.6c-6.2,5-13.8,9.2-20.2,14.4"/>
  <path id="STROKE_0b07157a-1aa8-44a5-a9cc-b35e5b461845" class="st0" d="M455.7,226c2.3,26.9,2.2,53.5,4.4,81,1.8,20.9,4.2,36.5,4.9,56.9,2.5,40.9,0,82.4,1.9,123.3,2.8,64.4,10,129.6,8.4,194-2.7,57.1-1,116.6-8.9,173.2"/>
  <path id="STROKE_e438c691-b25d-44f8-af13-3e1512e92411" class="st0" d="M548.8,448.2c-14.8,7.1-29.6,13.4-45.9,16.9-12.8,3.2-25,4.8-35.8,12.5"/>
  <path id="STROKE_a9ca535c-c414-4acf-bfae-c9c840553b1c" class="st0" d="M540.5,420.9c.3-9-.5-19.5-1.3-28.5-.6-5.3,0-13.3-2.9-17.7-4.7,2.6-5.5,53.5,1,52.4,1.9-.7,3.4-4.2,3.1-6.3h.1Z"/>
  <path id="STROKE_0c41948c-69a6-4055-b199-0aeaac91404f" class="st0" d="M542.9,597.6c2.1-13.9.7-29.4,1-43.4-.7-13.1,2.7-27.9-1.9-40.5-4.2-6.6-6.4,23.7-7,26.5-1.3,5.8-7,77.6,8,57.2v.2h0Z"/>
  <path id="STROKE_a188d664-cbf2-479c-a8f3-7a680b97c079" class="st0" d="M544.9,769.9c-13.8,17.5-30.3,33.9-46.5,49.3-9.1,8.2-19,18.7-29.3,25.1-54,3.4-108.9-.3-162.8-2.5"/>
  <path id="STROKE_493f21b8-b01f-46eb-b4fc-358aae799781" class="st0" d="M620.8,491c-22,18.8-45.4,32-69.3,48"/>
  <path id="STROKE_c6602ae4-44b3-4738-a16e-8b1e115a576e" class="st0" d="M624.7,647.1c-23.7,28.2-48.1,57.1-72.2,85,0,.2-1.1,1.4-1.7,2"/>
  <path id="STROKE_155b1ade-0caf-4685-a390-1a74d09eeed8" class="st0" d="M623.4,640.8c-13.5,15.2-29.7,32.8-44.3,47.2-9.2,7.9-17.6,15.4-26.4,24"/>
  <path id="STROKE_b24e84d0-0f94-42bd-a746-75c61ea2acf5" class="st0" d="M580.7,521.4c0,32.3-.4,64.8.6,97.3.9,22.5,2.9,44.1,1,66.3"/>
  <path id="STROKE_971acc4a-b36a-41f2-b63a-2082bc56feeb" class="st0" d="M622.1,490.6c76.7,0,153.7-1.4,230.4,1,33.5,0,66.5.4,99.8.2,15.4,0,30.8-1.6,46.3,0"/>
  <path id="STROKE_39e55a2d-6330-4e0c-a371-faeb3e5d5018" class="st0" d="M623.4,513.7c79.9,1,165.2.2,245.4,2.6"/>
  <path id="STROKE_13c38961-4bf5-445d-b21a-ed225f46ab6f" class="st0" d="M872.2,515c41.8-3.7,83.1-1.1,124.8,1.3"/>
  <path id="STROKE_31a3584f-9932-4dba-ab4a-28e8f845e37f" class="st0" d="M721.1,491c-.5,22.7,4.8,45.9,3.3,68.6-1,18.8-2.3,37.9-2.6,56.9,0,9.5-3,23,0,31.9"/>
  <path id="STROKE_50546bcd-7982-4bd1-891d-9cfc525bb8a1" class="st0" d="M871,480.9c-1.9,55.4-1.7,115-1.3,170.4"/>
  <path id="STROKE_a4a9c650-acfe-4914-b0ce-93b97be252df" class="st0" d="M999.5,485.7c-4,55.1-2.8,109.9-5,164.8"/>
  <path id="STROKE_ff7c6ada-2eda-48c2-9cd9-58fce4b78e40" class="st0" d="M622.5,559.2h101.8"/>
  <path id="STROKE_678ccf56-6959-4de1-802f-158fb094e547" class="st0" d="M870.6,558.1c42.9,1.3,82.7-4.3,124.4-.2"/>
  <path id="STROKE_38bfb0cd-aec1-43f0-9120-84503d1a2664" class="st3" d="M668,506.4h0c1.3,1.3,1.9.4,3.6,0s2.2-3.2,1.2-5-.4-1-.9-1c-4.2-.4-7.1,1.7-4.1,5.9h.2Z"/>
  <path id="STROKE_c30ccf7d-d1f7-4270-88c3-c433c52a1f2b" class="st3" d="M666.8,531l.2.4.4.4s.4,0,.6.4c1,.2,3.3,1,4.3-.4,1.2-.8,2.1-3.8,1-4.9-1.2-1-4.5,0-5.6.7-.7.7-1.3,2.8-.9,3.5h0Z"/>
  <path id="STROKE_12bfedc1-2f7b-4e05-966f-920bad130723" class="st0" d="M621,483.1c80.8-3.9,163.2-1.7,244.2-2.3,21.3.4,43.7,2.7,65,3.1,23.3.2,45.5-.5,69.4.7,28.4,19.9,53.7,45.6,81.9,66.5,37.1,29.6,78.6,59.2,116.8,86.7,25.8-4.4,54.9-6.5,81-9.8,24.3-3.3,60.5-10.3,83.8-13.6"/>
  <path id="STROKE_b23772c9-d4a3-454a-bf8d-0bd4c38fced1" class="st0" d="M1041.4,519.4c0,56.9.5,116.4-4.9,173.1"/>
  <path id="STROKE_d8ca0c2e-abf0-468b-b67c-d8e7ded2cbef" class="st0" d="M1091.7,559.3c-4.8,49.1-8.6,126.9-12.5,177.5"/>
  <path id="STROKE_13e8cd93-4d59-4e55-b886-287031d6d2f8" class="st0" d="M1198.7,638.1c1.5,36.8-.3,79.8-1.9,116.3-.3,35.7.2,72.3-.7,107.4"/>
  <path id="STROKE_28955283-2983-408e-b38b-de0d0147a1d4" class="st0" d="M1160.3,519.5c68.1,28.7,139,60.7,203.5,95.6-2.9,72.8-6.8,147.9-1.8,220.7"/>
  <path id="STROKE_5a63647a-bbc5-42be-9c9e-e993947c23f1" class="st0" d="M1045,461.4c27.1,16.3,58,33.3,87.6,45"/>
  <path id="STROKE_5a43e13e-1269-4a34-a1ac-fe7f915da23a" class="st0" d="M834.2,498.9c-.8.8-1.5,3.3-1,4.5,1.2,2.2,5,2.1,6.4,1.2s1.7-1.8,1.9-2.6.3-2,0-2.6c-.5-1-2.7-2.2-3.8-2.2s-2.8,1-3.5,1.7h0Z"/>
  <path id="STROKE_5a43e13e-1269-4a34-a1ac-fe7f915da23a1" class="st0" d="M801.1,504.4c.8.8,3.3,1.5,4.5,1,2.2-1.2,2.1-5,1.2-6.4s-1.8-1.7-2.6-1.9-2-.3-2.6,0c-1,.5-2.2,2.7-2.2,3.8s1,2.8,1.7,3.5h0Z"/>
  <path id="STROKE_5a43e13e-1269-4a34-a1ac-fe7f915da23a2" class="st0" d="M776.8,503.7c.8-.8,1.5-3.3,1-4.5-1.2-2.2-5-2.1-6.4-1.2s-1.7,1.8-1.9,2.6-.3,2,0,2.6c.5,1,2.7,2.2,3.8,2.2s2.8-1,3.5-1.7h0Z"/>
  <path id="STROKE_5a43e13e-1269-4a34-a1ac-fe7f915da23a3" class="st0" d="M746.6,498.2c-.8-.8-3.3-1.5-4.5-1-2.2,1.2-2.1,5-1.2,6.4s1.8,1.7,2.6,1.9,2,.3,2.6,0c1-.5,2.2-2.7,2.2-3.8s-1-2.8-1.7-3.5h0Z"/>
  <path id="STROKE_2ba217ce-ab79-46cf-9d98-cdb07b63cd7f" class="st3" d="M735.9,521.3c5.1,6.1,10.4,7.9,18.7,8.4,12.4.9,22.7,1.3,34.9,1.1,13.3,0,27.2.4,40.5-.4,5.7-.4,12.2-.3,17.1-3.3,1.2-.9,2.4-2.5,3.3-3.8-20.6-.6-41.9.5-62.6.4-17.2,0-34.8-1.6-51.9-2.5h0Z"/>
  <path id="STROKE_d9266c11-944b-417c-8615-f102cabdad84" class="st0" d="M625.1,646.8c8.4-.9,19.4,1,27.9,1.3,12.6,0,28.2-.4,41.1-.7,21.5-.6,41.7,2.7,63.2,3.9,64,1.9,128.1.4,192,0,14.9.2,30.6-2.9,45.3.2,16.8,13.7,34.6,33.7,50,49.7,27.9,28.6,57.1,58.7,85.1,87.5,22.5,24.1,43.2,49.9,66.3,73,34.2-5.5,71.9-12.3,106.2-18.1,19.9-2.5,40.2-3.9,59.8-7.8"/>
  <path id="STROKE_6cc289a8-3867-4b7e-8c39-027b0e6072f7" class="st0" d="M721.9,611.4c29.8,3.7,62.5,4.6,92.5,5.3,17.7-.7,37.9,1.5,55.2-1.5"/>
  <path id="STROKE_c10f3854-93ca-4191-82c3-4320a82eb8a6" class="st3" d="M743,601c7.1,5.4,17.1,3.9,25.6,5.6,15.1,1.8,30.8,3.1,46,3.1,13,.4,28.2,3.9,39.9-3.1,8-7.4,1.9-26.2,2.1-36.5-1.6-8.3,1.6-22.2-4.9-27.8-11.7-5.4-27.3-2.6-40-3.3-22.1-1.1-44.8-1.6-66.7-1.6-1.1.2-2.5.7-3.4,1.4-4.7,4.8-3.7,14.3-4.9,21.3h0s-2.5,30.3,6.3,40.9h0Z"/>
  <path id="STROKE_bca29521-6533-416c-9bf6-d70d23d1e263" class="st0" d="M1167.9,541.4c-13.3,1.8-26.5,1-39.8,2.7-11.1.7-22.2,4.5-33.2,3.3-7.3-1.2-13.5-7.1-19.2-11.7-6.2-5-14-9.5-19.3-15.4-7.9-10.2,22-13.6,27.9-15.2,25-5.2,34.8-.2,56.6,11.8,6.3,3.5,13.2,7.7,19.4,11,3.9,2.6,10.7,4.9,12.3,9.7.3,1.1-.6,2-1.4,2.6,0,0-1.4,1-3.1,1.1h-.2Z"/>
  <path id="STROKE_9383ba1d-f758-4ca3-91a5-9f57c92464fd" class="st0" d="M1152.7,508.8c2.7-2.6,4.4-3.8,7.8-2.9,1.6.5,2.9,2.3,3.4,3.5,2.8,13.7-16.9,15.4-11.2-.6h0Z"/>
  <path id="STROKE_9383ba1d-f758-4ca3-91a5-9f57c92464fd1" class="st0" d="M1143,501.7c-2.4-2.4-4-3.5-7-2.7-1.4.4-2.6,2.1-3.1,3.2-2.5,12.5,12.8,14.8,10.1-.5h0Z"/>
  <path id="STROKE_c50c92f3-4268-4f17-bfdd-248f0095bfcc" class="st0" d="M1150.7,522.1c-.2-13.3,3.2-34.3-2.9-49.7-4-8.5-16-9.4-21.8-2.4-4.8,5.7-5.4,14.4-4.5,21.6h6.3c0-5.7,0-12.5,4.6-16.4,2.9-1.9,6.3-.6,8.5,1.9,8.6,11.5,2.9,28.4,3.4,41.8"/>
  <path id="STROKE_95166e3d-c18b-4999-abe6-f5985976e423" class="st0" d="M713.7,189.4c3.1,50.3.3,103.5,2.9,153.9"/>
  <path id="STROKE_b4043a41-4b4d-419c-8f5d-c4b9065d31aa" class="st0" d="M896.7,187.2c-6.3,51-3.3,103.6,0,154.9"/>
  <path id="STROKE_3f31ffd5-6da7-4c28-9ae0-23105d1d989b" class="st0" d="M1122.1,116.6c-.5,20.2-2.5,39.4-2.6,59.4-.2,21.1,2.2,43.1,3.9,64,2.9,39.5,2.4,80,2.7,119.6"/>
  <path id="STROKE_12a3f3b3-83fa-4f18-aefe-95a8c3046164" class="st0" d="M1063.9,151.8c.6,40,1.1,80.1-1,120.2,0,24.9.5,49.7-1.1,74.5"/>
  <path id="STROKE_ecacd974-96a9-4ae6-8ca9-edc9e697e1df" class="st0" d="M1211.1,64.8c-44.9,24.5-84.5,48.1-127.5,74.4-24.2,14.5-49.7,28.6-72.1,44.5-28.1,4.1-60.1.8-88.5,1.1-45.7,2.7-99.2,5.1-146,5.6-37.5.8-73.3-2.7-111.2-2.6-25.7,0-53.4-1.3-78.1,3.1-1.2,27,1,47.2.9,73-1.2,25.7-2.4,53.7.5,79.4,51.1.6,102.6-.9,153.8.4,46.7,0,94.8-1.5,141.4-1,8.1.2,16.7-1.1,24.1-2.5,22.4-1.9,46.5-2.6,69-2.3,9.9-.2,26.7-.2,35.9-1,15.8,4.8,33.9,7,50.2,10.4,46.1,10,100.1,22.2,146,31.5,49.1,2.7,102.6,6.7,151.6,4.3-1.1-42.1,4.5-84.8,3.3-126.9-3.8-60.7-1.3-124-3.1-184.7-49.1-1.6-99-1.9-147.5-8l-2.4,1.3h-.3Z"/>
  <path id="STROKE_c92cf5b6-6ecb-4033-99cc-b9594f699e21" class="st0" d="M1011.5,184.9c2.8,50.5-1.8,101.4,1.3,151.9"/>
  <path id="STROKE_025636b8-8845-4b0f-99ca-681f2afd68b4" class="st0" d="M723.7,480.3c6.7-8.7,13.4-19.3,20.8-27.4"/>
  <path id="STROKE_8bb782ac-eb15-4156-8225-367851ee3fa8" class="st0" d="M871,480.9c-3-7.9-7-16.5-12.4-23.2"/>
  <path id="STROKE_9d22ff23-7c3e-4bb2-8a77-62b600557298" class="st0" d="M570.4,453.5c19.7-.2,43.7.6,63.5,0,16.6-1.8,35.6-2.9,52.3-2.4,44.7-.2,90.4,4.1,135.1,5.5,43.5,1.5,87.8-1.7,131.4-1,30.3.2,62.3,8.1,92.5,5.5"/>
  <path id="STROKE_5e2e54dc-b8d6-479c-bdcf-264f0e7882a8" class="st0" d="M1045,461.4c1.1-39.7.5-77.7,1.4-117"/>
  <path id="STROKE_8975784a-af3c-49a6-883a-7816c4ac1fae" class="st0" d="M1047.6,130.8c-.8,14.4-1.3,18.3-1.6,29.8"/>
  <path id="STROKE_a8dca2c7-5147-4a8c-b27c-5c4d806b8f23" class="st0" d="M751,462.6c0-.4-.6-.9.2-1.1,3.5-3.8,66,.3,32.5,2.7h0s-23.7,1.9-32.7-1.6Z"/>
  <path id="STROKE_5b89f1bc-76e7-4f7d-90e4-f6a201ad7520" class="st0" d="M794.6,472.4c-6.7-2-42.6-1.9-48.5.9,5.2,3.5,42.5,1.6,48.5-.9Z"/>
  <path id="STROKE_1493a066-6b16-4b1f-9cc4-8a3739e39c0a" class="st0" d="M846.3,461.8c-10.5-.2-25.6,0-35,2.1,3.4,3.4,63.9,1.1,35-2.1Z"/>
  <path id="STROKE_cf8d5e95-39cd-4191-ae7f-f669f3c41215" class="st0" d="M810,474.2c4.8,5.2,41.7,2.2,47.5-1-.6-2.4-21.3-2-23.8-2.2h0s-17.1.4-23.7,3.2Z"/>
  <path id="STROKE_a7bda898-7a98-49bb-90e4-f9a7d44b1a46" class="st0" d="M804,191.6c1.8,24.6-2.9,52.1-2.9,76.8-.7,24.6,3,49.4,2.4,73.9"/>
  <path id="STROKE_c51cc558-8a63-4daf-9e30-54a802ea8d62" class="st0" d="M1126.3,573c16.6,14.9,36.9,25.8,54.9,39,16.6,14.4,33.6,16.8,54.7,12.3,22.8-3.2,45.7-8.8,68.9-8.6,41-1,15.6-11-4.1-20.3-27.4-13.6-55.3-28.3-84.4-37.8-17.2-4.3-34.1,2.6-51.5,3.1-10.6,1.3-21.7,1.7-32,2.1-6.5.5-15.3,4.1-6.3,10.3h-.2Z"/>
  <path id="STROKE_4f4d949b-4983-4ff9-8557-722b9bd3b748" class="st0" d="M1208.6,563.5c-21.8,4.6-45,4.7-66.9,8.5"/>
  <path id="STROKE_2866061a-1ac5-4ec8-a371-37e64903a89c" class="st0" d="M1221.1,569.5c-23.5,4.1-48.2,6.1-71.7,9.8"/>
  <path id="STROKE_022de472-5c75-4ca6-96d5-2a3b6c173c30" class="st0" d="M1232.8,576.2c-25.3,6.9-47.9,5.4-74.1,12.3"/>
  <path id="STROKE_c84b2b09-1ac3-4cb8-8c07-c78f27355a8a" class="st0" d="M1250.7,581.4c-25.5,7.1-53,9.5-78.4,16.8"/>
  <path id="STROKE_1c2b3427-4df9-4350-94eb-8cbd1a777e8a" class="st0" d="M1260.3,587.3c-24.6,8.9-51.4,13.5-77.2,17.6"/>
  <path id="STROKE_a3f94d4f-1402-4025-90f6-b2d200249272" class="st0" d="M1273.3,595.7c-11.5,4-25.6,6-37.6,7.9-15.5,3.8-29.9,6.1-45.9,8.8"/>
  <path id="STROKE_aac34a33-8be2-4d74-8ab1-63dbf6410028" class="st0" d="M1290,602.3c-27.7,7.1-57.1,9.8-85.2,14.5"/>
  <path id="STROKE_ba24dae5-217b-4c7b-9443-8d352b7f7de9" class="st0" d="M307.5,852.9c-20.7,15.7-37.6,31.4-56.8,47.1"/>
  <path id="STROKE_a9d804fa-0fa3-4d39-8a88-7e2b164d8b01" class="st0" d="M1362.2,835.9c33.2,42.4,19.2,23.8,54.8,64.1"/>
  <path id="STROKE_11abf62a-3f25-4fd3-b4ce-af60b1c3348e" class="st0" d="M1213.3,63.9c-.6,26.4-2.7,53.9-2.4,80.4-.5,25.9,1.7,52.5,1.4,78.4-1.4,51.4,1.7,103.8-3.8,155.1"/>
  <path class="st0" d="M551.9,529.3c10.2-8.4,21.4-14.5,31.8-22.5,11.8-7,25.7-16.9,37.2-23.7.2,26.5,1.4,53.7,1,80.1,0,27.4-.8,55.7,2.7,83"/>
  <path id="STROKE_c30ccf7d-d1f7-4270-88c3-c433c52a1f2b1" class="st3" d="M667.4,570.6l-.3.3-.3.5s0,.4-.2.8c.2,1,0,3.5,1.8,3.9,1.1,1,4.3.8,5.1-.7.5-1.5-1.3-4.3-2.5-5.2-.9-.4-3.1-.4-3.6.4h0Z"/>
  <path class="st6" d="M692.1,294c-5.7.3-4.3,8.2,1.3,6.8,3.3-1.3,2.3-6.9-1.3-6.8Z"/>
  <path class="st1" d="M785.7,295.1c-4.8,0-3.4,6.6,1.2,5.8,4.5-1,2.9-6.4-1.2-5.8Z"/>
  <path class="st6" d="M815.6,294.9c-3-.5-3.2,3.4-2.9,5.6,4.6,6.3,11.5-6.6,2.9-5.6Z"/>
  <path class="st6" d="M992.5,294.2c-5,2.3-1.3,8.7,3.3,6,2.9-2.4.6-7.4-3.3-6Z"/>
  <path class="st6" d="M1048.8,299.6c.4,1.4,3.7,2.7,5.2,2.9,2.9,0,2.9-6.6.5-7.5s-6.6,1.8-5.7,4.6Z"/>
  <path class="st6" d="M1072,294.9c-3.9,0-3.1,6.3-1,8.1,6.7,3.7,6.7-7.6,1-8.1Z"/>
  <path class="st6" d="M1136.6,299.1c-1.2.6-1.9,4-1.4,5.2s3.9,2.3,5.5,1.6c3.6-3.7-2.3-7.7-4.1-6.8h0Z"/>
  <path class="st0" d="M932.8,500.6c-1.6,1.1,0,3.1,1.6,2.3,1.3-1.3,0-3.2-1.6-2.3Z"/>
  <path class="st3" d="M935.5,525.2c4.4,3,0,8.5-4.1,5.9-2.9-3.2,0-7.8,4.1-5.9Z"/>
  <path class="st3" d="M930.8,574.8c-1.5,2.7,1.4,3.5,3.6,3.2,7.4-1.9.2-12.3-3.6-3.2Z"/>
  <path class="st3" d="M1028.5,534c-3.8.7-2,7.1,1.4,7.1,5.8,0,3.4-8.6-1.4-7.1Z"/>
  <path class="st3" d="M1081.6,572.4c-3.5-.7-5.3,4.4-3.2,6.7,1.5,1,4.1.4,5.4-.8,1.5-2.1,1.1-6.3-2.2-6h0Z"/>
  <path class="st3" d="M1185.1,649.2c-4.4,3,2.2,7.5,4.8,3.9,2.7-3.3-2.1-6.1-4.8-3.9Z"/>
  <path class="st3" d="M592.3,533.9c-8.4-.2,2.4,11.3,3.9,4.6.6-2.7-1-4.9-3.9-4.6Z"/>
  <path class="st3" d="M570.1,544.4c-4.7-1-3.4,9.2.8,9.1,5.6-.2,3.7-8.3-.8-9.1Z"/>
  <g>
    <g id="Pen">
      <path id="STROKE_9ab8ce2b-e6b5-47b3-be58-a1990f77dbed" class="st2" d="M1009.1,413.4c24.2,22.4,3.4,62-28.4,56.2-20.2,23-2.1,62.3-16.5,57.3-4.6-5.8-1.6-19.5-1.9-26.9-1.9-11.2,2.7-20.5,8.9-29.7-6.1,4.2-15.9,7-22.9,3.8-11.5,13.8-7.4,32.5-7.9,49.1,0,4.2-6.5,6.3-7.8,1.7-2-11.1-.7-22.9-1-34.2,0-7.2,5.3-12.8,7.9-19.2-13.5-5.7-20.9-22.5-17.5-36.6-23.1-22.3,3.4-61.3,32.9-53.1,19.2-21.9,62,4.2,52,30.8l2.2.8h0Z"/>
    </g>
    <path id="STROKE_258c9859-67f1-43a8-9462-32ddfdd3de1c" class="st5" d="M926.7,401.7c18-14.7,38.3,10.3,22.1,24.4-17.7,12.5-35-10.5-22.1-24.4Z"/>
    <path id="STROKE_258c9859-67f1-43a8-9462-32ddfdd3de1c1" class="st5" d="M973.8,403.4c18-14.7,38.3,10.3,22.1,24.4-17.7,12.5-35-10.5-22.1-24.4Z"/>
    <path id="STROKE_3299031d-4c62-4f85-94d0-447bd115ea62" class="st0" d="M967.5,436.2c-4.2,2.8-8.7,3.3-12.8-.2"/>
  </g>
</svg>