<?xml version="1.0" encoding="UTF-8"?>
<svg id="Ebene_1" xmlns="http://www.w3.org/2000/svg" version="1.1" viewBox="0 0 1600 900">
  <!-- Generator: Adobe Illustrator 29.1.0, SVG Export Plug-In . SVG Version: 2.1.0 Build 142)  -->
  <defs>
    <style>
      .st0, .st1, .st2, .st3, .st4, .st5, .st6, .st7, .st8, .st9, .st10, .st11 {
        stroke-linecap: round;
        stroke-linejoin: round;
        stroke-width: 3px;
      }

      .st0, .st1, .st2, .st3, .st4, .st5, .st6, .st7, .st8, .st9, .st10, .st11, .st12 {
        stroke: #000;
      }

      .st0, .st7, .st12 {
        fill: none;
      }

      .st1 {
        fill: blue;
      }

      .st2 {
        fill: #e8cf8d;
      }

      .st3 {
        fill: #816265;
      }

      .st4 {
        fill: #8e6008;
      }

      .st13 {
        stroke: #fff;
      }

      .st13, .st12 {
        stroke-miterlimit: 10;
        stroke-width: 4px;
      }

      .st5 {
        fill: #90401c;
      }

      .st6 {
        fill: #ed0000;
      }

      .st7 {
        isolation: isolate;
      }

      .st8 {
        fill: #6b3010;
      }

      .st14 {
        display: none;
      }

      .st9 {
        fill: #b27953;
      }

      .st10 {
        fill: #412c00;
      }

      .st11 {
        fill: #5f4100;
      }
    </style>
  </defs>
  <g id="Ebene_11">
    <g id="Ebene_111">
      <path id="STROKE_fec165c5-3ab2-440e-afe7-46d02c87363a" class="st0" d="M1238.7,386c6.1-39.4-19.3-46.1-26.2-5.4-6,27.8,22.6,37.9,26.2,5.4Z"/>
      <path id="STROKE_02cb6759-1aa6-45e6-b4a1-28fb9deb831b" d="M1154.5,389.1c0-22.8-34.5-22.3-34.5-1.3s34.5,26.1,34.5,1.3Z"/>
      <path id="STROKE_bef97578-119e-48b3-8481-539c729b5e1a" class="st0" d="M1264.5,392c5.9,36.6,0,78,0,114.7-1.5,39.1,9,106-49.5,101.9-191.1,0-381.8-2.5-573,2.5-81.6,4.3-162.8-6.4-244.2-.5-53.4-.9-166.6,34.1-160.4-53-6-56.9-4.6-115.2-2.6-172.5h0c15.9-164.5-76-197.2,142.6-191.5,212.1,6,424.6-12.3,636.8-5.4,52.5,6.9,220.4-27.2,243.3,23.6,13.8,40,9.8,112.2,6.6,153.5"/>
      <path id="STROKE_bef97578-119e-48b3-8481-539c729b5e1a11" class="st7" d="M326.9,387.5c1.1-21.1,2.9-42.9.8-64-2.9-24.3-12.5-55.4,2-76.9,16.4-16.1,41.2-9.6,62.2-10.8,55.6-3.7,108,2.8,164.1-.5,104.1-1.4,207.2-7.8,311.1-5.5,61.5-.8,124.2,2,185.7-2.3,34.1,3.8,105.5-12.8,120.6,24.3,12.9,38.7-.3,80.2,4.5,119.6.7,39.4,2.8,79.7,0,119.4,3.6,68.5-9.6,81.3-78.9,75.7-145.2-.8-290.2-1.5-435.4,2-70,3.3-139.9-5.3-209.8,0-42.9,1.1-131.9,24.4-124.7-45.1-5.2-44.6-3.5-90.5-2-135.5v-.3h-.2,0Z"/>
      <path id="STROKE_de12b590-56ba-48cf-ac6a-9c6426a20fb6" class="st0" d="M1422.4,89.4c-135,2.5-302.4-1.5-403.2-1.6-254.8-.2-679.9,9.2-1019.2,1.6"/>
      <path id="STROKE_9155e4e5-5bcd-4103-ae4f-aff0b18562ff" class="st0" d="M1551.7,22.1c-509.2,3-1036.4,5.7-1551.7.2"/>
      <path id="STROKE_b7e4a3de-6cdf-45a0-bc86-f67551bc34c1" class="st0" d="M1331.5,137.5c59.5-26.7,114.9-64.7,173.5-93.7,31.5-14.9,63.3-29,94.9-43.8"/>
      <path id="STROKE_c7f4bbc7-6c0b-4721-964c-9ba2e2d46acc" class="st0" d="M1425,469.2c1.9,137.1,15.5,299.5,9.3,430.8"/>
      <path id="STROKE_c7f4bbc7-6c0b-4721-964c-9ba2e2d46acc1" class="st0" d="M1426,307c-.6,41.6-1.4,81.7-1.2,121.1v3.6"/>
      <path id="STROKE_c7f4bbc7-6c0b-4721-964c-9ba2e2d46acc2" class="st0" d="M1422.4,89.4c4.6,58.4,4.7,118.8,4,181"/>
      <path id="STROKE_72cc0256-a0a9-43f2-becf-7be783c4eb09" class="st0" d="M1557.8,900c4.8-134-6.3-269.9-5.4-404.2,2-139.9,8.3-334.2-.8-473.7"/>
      <path id="STROKE_898f2283-c02d-4a29-9d6c-afedb56f7762" class="st0" d="M1333.1,249.8c88.9-13.9,178.1-30.1,266.9-47.7"/>
      <path id="STROKE_f1724be1-0d45-4211-bc40-0169ca0d621a" class="st0" d="M1408.3,367.5c63.9-2.8,127.9-6.9,191.7-10.4"/>
      <path id="STROKE_0c1ee065-848f-4595-8c66-f4af7ee6911f" class="st0" d="M1331,525.7c89.4-.2,179.3-.7,269,2.9"/>
      <path id="STROKE_04166282-530e-4a94-b114-7619833c3afe" class="st0" d="M1332.3,677.1c89.2,3.8,178.5,9.6,267.7,15.1"/>
      <path id="STROKE_72f2a20f-827a-4d6b-ad7b-965842054e6a" class="st0" d="M1324.8,803.3c15.5,4.8,154.9,17,275.2,24.4"/>
      <path id="STROKE_9b95e468-1637-4a66-9ba7-b40a0aaad4de" class="st0" d="M1330.7,394.5c-.7,93-1,185.9,1.5,278.7v4c-25.9-2.8-53.9-5.8-80-5.7-237.8,1.5-476.6-5.6-714.3-9.6-180.4,2.5-357.5,11.8-537.9,20.2"/>
      <path id="STROKE_9b95e468-1637-4a66-9ba7-b40a0aaad4de1" class="st0" d="M0,138.2c444.7.6,887.3-7.2,1331.5-.6.6,71.2,0,142.5-.5,213.9"/>
      <path id="STROKE_d3da25c4-8c74-4d5d-b742-91a92519f043" class="st0" d="M171.4,137.1c10.1,172.2,1,346.5,2.8,518.9,1.2,81.4,7.1,162.6,10,244"/>
      <path id="STROKE_4806b481-4603-4ef0-8897-d509cea23248" class="st0" d="M65,139.1c5,253.5,4.5,507.4,7.7,760.9"/>
      <path id="STROKE_f84da9a9-a6fa-4569-909e-bf255d6724e5" class="st0" d="M175.7,292.3c-60.5,5.3-114.9,7.9-175.7,9.1"/>
      <path id="STROKE_81713b50-c5ee-4a17-9f06-ceeb64611479" class="st0" d="M174.6,514c-60.1-1.6-114-2.8-174.6-3.8"/>
      <path id="STROKE_727c1acb-5e37-4804-b140-7a35ca847b90" class="st0" d="M171.4,137.1C150.3,72.8,149.1,63.4,125.1,0"/>
      <path id="STROKE_ab7a907e-9bc4-4d8b-a37e-c79d783056cb" class="st0" d="M308.3,137.5c-13.6-60.5-26.4-91.8-39.2-137.5"/>
      <path id="STROKE_4b7bb841-362c-4fb3-9e0f-335f0ec167ec" class="st0" d="M451.3,136.9c-6.8-62.1-17.1-90.7-26-136.9"/>
      <path id="STROKE_d3220e45-6bf0-42e3-8a7a-ae74d32cdb2a" class="st0" d="M577.4,135.7c-8.2-61.8-10-89-10.9-135.7"/>
      <path id="STROKE_1aced2f1-c9fc-4d57-95d7-131dd1104e2a" class="st0" d="M707.5,135.6c-1.1-56.5-1.2-91.8-.9-135.6"/>
      <path id="STROKE_317896d5-389f-4e64-8517-b7e1ce848bc6" class="st0" d="M857,133.2c6.6-43.8,8.3-88.5,11-133.2"/>
      <path id="STROKE_bc7af6a1-5b43-4a55-a9f7-35bcdbaf9f15" class="st0" d="M990,133.1c12.5-44.1,22.6-88.7,34.1-133.1"/>
      <path id="STROKE_5b7b5259-0319-4f21-be3f-06c855f438d3" class="st0" d="M1117.3,135.3c18.6-45.7,42.5-91.5,65.5-135.3"/>
      <path id="STROKE_90c8e36e-d082-4ef8-8099-a69ca5487dfc" class="st0" d="M1219.6,135.4c38.5-43.9,77.3-90.9,114.8-135.4"/>
      <path id="STROKE_b4929c06-dd05-40a8-9fbd-b4594bdc4a31" class="st0" d="M1332.3,677.1c-6.1,80.6-12.8,143.4-8.1,222.9"/>
      <path id="STROKE_95c3c7d3-9926-4171-9f73-11eb28f419eb" class="st0" d="M1324.8,803.3c-138.9,5-278.2,8.8-417.4,1.5-303.3,4.7-603.9,14.8-907.4,20.5"/>
      <path id="STROKE_3c133ce4-ab8a-4fbf-b9dd-18aa5110b521" class="st0" d="M290.6,671.3c6.3,76.2,7,152.4,4.8,228.7"/>
      <path id="STROKE_d5ffe253-a613-47be-82ab-29e56ad4d394" class="st0" d="M443.1,663.9c-8.3,78.2-4.8,157.2-3.9,236.1"/>
      <path id="STROKE_cf4e31d1-ae37-494b-85ad-84ef18b35dfe" class="st0" d="M579.1,661.1c-1.4,79.4-3.6,159.2-2.9,238.9"/>
      <path id="STROKE_78400507-a4c0-40ee-8e36-4b4077535e62" class="st0" d="M700.9,665.2c-6.5,78.3-10.5,156.6-10.9,234.8"/>
      <path id="STROKE_fc456b60-9e7a-49d6-b24a-d7a825e92660" class="st0" d="M840.3,667.9c-3.3,77.1,4.1,154.8,6.5,232.1"/>
      <path id="STROKE_726d9e06-b20b-437d-bc88-6e2cb572d5e1" class="st0" d="M994.1,672.1c.3,75.8-.4,151.9-1.9,227.9"/>
      <path id="STROKE_57fcffa5-69b6-4600-89d9-73992b0c477b" class="st0" d="M1103.4,671.4c-2.6,75.9-3.7,152.3-5.1,228.6"/>
      <path id="STROKE_eee29166-b967-4103-ba9f-d34900a62be9" class="st0" d="M1207.3,671.2c-5.6,76.4-.8,152.6-.2,228.8"/>
      <path class="st0" d="M250.5,212.9c17.7,15.3,67.8,14.9,74.7,38.7"/>
      <path class="st0" d="M1235.6,204.7c-29.5,8.3-31.1,15.5-63,35.5"/>
      <path class="st0" d="M1235.6,585.4c-15.2-5.9-57-18.6-68.3-30.4"/>
      <path class="st0" d="M260.5,595c23.7-11.7,45.5-27.3,64.2-45.9"/>
      <g>
        <path d="M1205.3,807.1c-35.1.9-70.2,1.5-105.3,1.7.9-46,1.9-91.9,3.4-137.5,34.7.2,69.3.3,103.9.2-3.2,44.6-2.9,90.1-2,135.5h0Z"/>
        <path d="M1324.4,803.3c-.5,14.2-.8,82.5-.9,96.7h-115c-.3-12.9-2.9-79.9-3.2-92.9,39.7-1,79.4-2.3,119.1-3.8Z"/>
        <path d="M1100,808.8c-.2,12.4-.5,78.8-.7,91.2h-106.2c.2-12.7.3-79.4.5-92,35.5.8,70.9,1,106.4.8Z"/>
        <path d="M993.6,808c-28.7-.7-57.5-1.7-86.2-3.2-21.6.3-43.2.7-64.8,1.1-2.3-46.4-4.2-92.6-2.5-138.2,51.3,1,102.7,1.9,154,2.5,0,45.4,0,91.5-.5,137.8h0Z"/>
        <path d="M846.6,900h-155.9c.3-12.4.7-78.7,1.1-91.1,50.2-1.1,100.5-2.1,150.7-3,.7,13.4,3.4,80.7,4,94.1h.1Z"/>
        <path d="M700.6,664.9c-3.9,47.7-6.9,95.8-8.7,144-38.5.8-77,1.8-115.5,2.7.6-49.8,1.8-99.5,2.7-149.1,40.5.7,81,1.5,121.5,2.4Z"/>
        <path d="M576.4,811.6c0,11.5-.2,76.9-.3,88.4h-137.8c-.2-10.3-.3-74.7-.5-85,46.2-1.2,92.3-2.3,138.5-3.4h0Z"/>
        <path d="M437.9,815c-47.1,1.2-94.2,2.4-141.3,3.5,0-50.3-1.8-100.4-5.7-149.8,50.5-2,101.1-3.7,151.7-5-4.9,49.6-5.2,100.3-4.6,151.3h0Z"/>
        <path d="M296.5,818.6c0,9.1-1,72.3-1.1,81.4h-110.5c-.4-8.2-3.8-70.4-4.2-78.6,38.6-.9,77.2-1.8,115.8-2.8h0Z"/>
        <path d="M180.7,821.4c-36.3.8-72.6,1.7-108.9,2.4-.5-48.4-.9-96.8-1.2-145.2,34.6-1.6,69.3-3.3,103.9-4.9,1.1,49.3,3.7,98.5,6.2,147.7Z"/>
        <path d="M72.1,900H0v-74.8c23.9-.5,47.9-.9,71.8-1.4,0,7.4,0,68.8.2,76.2h0Z"/>
        <path d="M70.6,678.5c-23.5,1.1-47.1,2.2-70.6,3.3v-171.6c23.2.4,46.4.8,69.5,1.3.4,55.7.7,111.3,1.1,167Z"/>
        <path d="M174.6,514c-34.9-.9-69.9-1.7-105.1-2.4-.5-70.8-1.1-141.7-2-212.4,36.3-1.5,72.5-3.7,108.6-6.9.6,73.8-.7,147.8-1.6,221.7h.1Z"/>
        <path d="M67.5,299.2c-22.5.9-45,1.6-67.5,2v-163h65c1.1,53.6,1.9,107.3,2.5,161Z"/>
      </g>
    </g>
    <g id="Ebene_2">
      <g id="New_Layer_2">
        <path id="STROKE_2271a059-6f59-411d-ac99-779897f1825f" class="st0" d="M1367.9,394.8c3.9,12.3,10.4,22.4,21.8,19.3,17.5-6.6,18.4-25.2,17.9-41.9-.5-14.9-2.6-29.6-8.9-43.1-17.6-34.1-31.6-7.2-35.7,17.3"/>
        <path id="STROKE_575f5eef-f032-4d06-82ad-896790df1443" class="st0" d="M1391.9,382.3c-21.7,2.6-44.5,1.1-66.3,2.7-25.5,1.8-52.1,8-77.8,5.5"/>
        <path id="STROKE_13f2b56c-a356-4df1-bade-b4df0a008bc8" class="st0" d="M1391.8,351.8c-15.7.7-32.5,3.8-48.2,6.4-11,1.4-96.5,8.6-96.5,8.6"/>
        <path id="STROKE_df2378fc-e35b-44d2-88e8-0d60efdfa4b4" class="st6" d="M1491.5,425.5c16.8-1.1,20.2,20.7,15.9,32.9-2.2,8.9-5.8,13.6-15.4,13-23.5-2.3-44.8-2.8-69.1-2.2-4-1.1-4.1-8.8-5.2-12.1-2.1-8.5-1.6-18,3.7-25.3,23-2.2,47.1-2.9,70-6.3h0Z"/>
        <path id="STROKE_579473ba-30bd-4cf9-bb26-1fcd298795d9" class="st1" d="M1495.5,266.1c18.6-.8,19.9,22.1,15,34.7-.9,3.5-3,7.2-6.4,8.7-3.1,1.3-7.1,1.3-10.3.9-22.5-1.7-50.8-3.4-72.9-4.1-4.3-10.1-7.3-23.2-.9-33.1,24.4-3.8,51-3.1,75.5-7.1h0Z"/>
        <path id="STROKE_5b6c23c8-5bfd-4d59-a153-c55628862ffc" class="st0" d="M1247.1,366.8c15.9-2.5,133.5-22.9,133.5-22.9l11.2,7.9.2,30.5-12.5,11.9s-101.6.4-131.5-3.7c0,0-1.2-16.8-.8-23.7h0Z"/>
      </g>
      <path class="st0" d="M1390.7,351.5"/>
    </g>
  </g>
  <g class="st14">
    <g>
      <path id="STROKE_dcce0a45-2ede-447c-8c66-84e4ed44ec3c" class="st2" d="M942.7,430.4c-19.4,4.3-37.2,24.1-30.2,45.2,4.4,17.6,14.3,37.6,31.6,45.1,17.1,4.4-14.1-28.6,22.8-16.3,6.7,2.3,14.1,4.6,21.1,4.2,29.9-1.6,11.8-57-5.6-70.8-11-8.8-26.7-10.3-39.7-7.4h0Z"/>
      <path id="STROKE_4b2be17b-45b0-475b-ba10-ed5f0e5c1540" class="st13" d="M962.1,452.4c1.5,5.9,15,10.6,16.9,7.7,5.4-8.6-21.7-26.2-16.9-7.7Z"/>
      <path id="STROKE_f6044e34-2bd0-4c82-aac9-54ec5d00ba8e" class="st13" d="M923.8,477.1c1.6,3.6,7.6,9.8,12.9,9s-3.3-23.7-11.7-20.7c-3.1,1.1-2.4,9-1.2,11.7Z"/>
      <path id="STROKE_b06ee991-6ac9-4670-b449-3485c7a73c92" class="st12" d="M954.5,472.9c-6.5,9,8.6,6,6.3-1.5-1.6-1.7-5,0-6.3,1.5Z"/>
    </g>
    <g>
      <path id="STROKE_17b0a2da-c078-45f3-8dfd-b72d3da2dbd3" class="st3" d="M746.9,448.7c-19.5-17.4-41.4-4.1-55.2,16.3-14.6,21.5-10.3,37.1,9.2,53.3,11.7,9.7,29.3,15.5,42.3,6.9,12.7-8.3,20.8-24.9,21.5-40.1.5-9.7-4.6-18.5-10.2-26s-5.2-8.3-7.6-10.4Z"/>
      <path id="STROKE_4b2be17b-45b0-475b-ba10-ed5f0e5c15401" class="st13" d="M741.2,479c1,13.5,12.1,18.3,16.3,8.8s-17.8-27.8-16.3-8.8Z"/>
      <path id="STROKE_f6044e34-2bd0-4c82-aac9-54ec5d00ba8e1" class="st13" d="M699.2,470.7c-3.4,1.9-9.4,8.7-7.7,13.8,3.4,10.2,27.7-.5,19.4-13.8-1.8-2.8-9.2-1.4-11.7,0Z"/>
      <path id="STROKE_b06ee991-6ac9-4670-b449-3485c7a73c921" class="st12" d="M715.2,502.8c4,29.9,29.8-6.6,9.4-13.9s-9.6,8.6-9.4,13.9Z"/>
    </g>
    <g>
      <path id="STROKE_6fbaa210-4ed3-478c-975d-5894e785594e" class="st8" d="M430.2,442.3c-5.2-17.4-35.1-18.6-47.2-5.6-4.7,5.6-5.9,14.9-7,21.9-1,6.5-6.6,13.9-8.4,20-3.2,10.1,2.1,20.2,10.9,26.1s18.9,10,30.3,6.8c28.2-7.9,30.8-16.4,24.3-42.8-1.4-12.3-1-20-2.9-26.4h0Z"/>
      <path id="STROKE_4b2be17b-45b0-475b-ba10-ed5f0e5c15402" class="st13" d="M414.6,450.3c-8,1.7-4.2,21.5,5.5,17.7,9.4-3.7,13.2-21.7-5.5-17.7Z"/>
      <path id="STROKE_f6044e34-2bd0-4c82-aac9-54ec5d00ba8e2" class="st13" d="M382.1,455.8c-.8,2.8-1.1,9.6,2.3,12.2,6.7,5.3,20.4-14,4.3-17s-6,2.8-6.6,4.8h0Z"/>
      <path id="STROKE_b06ee991-6ac9-4670-b449-3485c7a73c922" class="st12" d="M405.2,471c-19.3,7,2.9,11.1,5.3,3.7s-3.4-4.4-5.3-3.7Z"/>
    </g>
    <g>
      <path id="STROKE_5a310105-99a7-4073-9dc9-4fd7134f58fd" class="st5" d="M435.6,309.8c3.6-8-6.5-13.5-7.1-24.5-.3-10.5,4.1-21.4-8.2-27.3-14.8-7.1-29.6,4.4-40.1,14s-6.3,19.3-7.3,29.8c-.7,7-4.9,13.1-5.9,19.9-.9,10.3,9.4,27.1,21.2,22.3,5.5-3.2,7.2-8.8,11.5-13.5,8.3-9.2,23.7,9,31.6-5,1.4-2.6.9-5.5,1.5-8.2s2-5.3,2.9-7.5h-.1Z"/>
      <path id="STROKE_4b2be17b-45b0-475b-ba10-ed5f0e5c15403" class="st13" d="M409.4,283.7c-4.5,4.2-2.5,17,8,11.6s5.9-24.7-8-11.6Z"/>
      <path id="STROKE_f6044e34-2bd0-4c82-aac9-54ec5d00ba8e3" class="st13" d="M386.6,290.7c10.4,2.5,14.8-13.2,6.2-15.3s-16.5,12.8-6.2,15.3Z"/>
      <path id="STROKE_b06ee991-6ac9-4670-b449-3485c7a73c923" class="st12" d="M400.8,314c1.3-19-11.1,1.4-2.5,8.3s1.9-4.9,2.5-8.3Z"/>
    </g>
    <g>
      <path id="STROKE_7945d4cf-821f-4b55-a917-dfef639b628d" class="st9" d="M609.7,275.5c-5.3,6.4-12.6,10.9-13.6,19.1-1.7,12.7-3.8,30.1,7.2,39.8,6.4,5.6,11.3,10.2,19.3,13.9,9.7,4.5,29.4,7.1,32-4.4s18.7-15.6,25.1-29.1-5.2-28.7-18.7-36.2c-4.9-2.7-7.9-6.3-12.7-8.5s-15.8-5.1-16.4-5.1c-6.1-.3-16.9,4.1-22.2,10.5h0Z"/>
      <path id="STROKE_4b2be17b-45b0-475b-ba10-ed5f0e5c15404" class="st13" d="M640.8,282.3c-1.7,5.9,2.5,33.8,10.6,27.2s-5.2-45.5-10.6-27.2Z"/>
      <path id="STROKE_f6044e34-2bd0-4c82-aac9-54ec5d00ba8e4" class="st13" d="M607.1,291.1c-.4,9,8.8,31.6,14,33.3,10.2,3.3,1.8-40.9-7-42.7s-6.9,6.5-7,9.4h0Z"/>
      <path id="STROKE_b06ee991-6ac9-4670-b449-3485c7a73c924" class="st12" d="M633.3,327.1c-6.7,4.9,4.8,8.1,7.3,2.1.2-.5.3-1.1.2-1.6-.6-3.9-2.1-18-5.7-2.8s-1.2,1.9-1.8,2.3Z"/>
    </g>
    <g>
      <path id="STROKE_3b0901dd-3ade-48c2-9a3f-24fdd330834c" class="st10" d="M570.6,386.3c-3.4-5.5-11.5-4.4-17-5.4-8.3-1.5-16.6-4.5-24.6-6.9s-20.8.3-15.8,12c2.2,5.2,5.3,7.9,8.2,13.7,4.8,9.4,8.8,19.6,6.7,29.6-.9,3.9-3.9,6.8-5.8,10.5-3.8,7.3-2.5,14.4,6.6,16.2s8.5-5.8,15.7-8.5,21.9,1.9,28.1-4.8-.5-17.5.7-25.9,3.4-20.5-2.7-30.5h-.1Z"/>
      <path id="STROKE_4b2be17b-45b0-475b-ba10-ed5f0e5c15405" class="st13" d="M553.9,405.3c2.3,5.7,21.7-.9,15.9-9.6s-19,1.9-15.9,9.6Z"/>
      <path id="STROKE_f6044e34-2bd0-4c82-aac9-54ec5d00ba8e5" class="st13" d="M523.3,390.1c-2.9,6.6,16.7,15.1,18.2,6.4s-16-11.3-18.2-6.4Z"/>
      <path id="STROKE_b06ee991-6ac9-4670-b449-3485c7a73c925" class="st12" d="M539,412.8c-8.3,11.3,10,9,13.6,2.4s-8.3-9.8-13.6-2.4Z"/>
    </g>
    <g>
      <path id="STROKE_9da1ce7f-5d53-4d3e-a65c-a091e10ef3c7" class="st11" d="M849,293c-19-13.3-36.3,9.7-38.5,26.8s4.6,13.8,1.3,21c-4.7,10.3-15.6,45.7,5.6,35.9,20.8-9.6,28.9,2.5,43.9-8s13.7-20.5,12.7-33.9c-1.3-17.2-10.7-31.9-24.9-41.8h0Z"/>
      <path id="STROKE_b06ee991-6ac9-4670-b449-3485c7a73c926" class="st12" d="M836.5,337.3c.9,7.1,19.7,5.7,13.8-1.3s-15-7.8-13.8,1.3Z"/>
      <path id="STROKE_4b2be17b-45b0-475b-ba10-ed5f0e5c15406" class="st13" d="M844,306.1c-1,4.5,3.1,17.9,9.1,13.5,5.8-4.2-6-27.7-9.1-13.5Z"/>
      <path id="STROKE_f6044e34-2bd0-4c82-aac9-54ec5d00ba8e6" class="st13" d="M820.6,318.7c.4,3.2,3.3,9.5,7.2,9.3,7.8-.4,2.6-19.9-3.9-18.7-2.4.5-3.5,7-3.3,9.4h0Z"/>
    </g>
    <g>
      <path id="STROKE_e46a0bce-c9d2-4783-8bd9-e5d3e5152da9" class="st4" d="M1054.3,257.3c-9.2,4.2-7,21.1-18.9,20-19-1.7-25.8.4-29.8,19.8-2.5,15.3-2.7,31.2,4.4,45.2,6.9,13.6,24.1,17.6,38,14.3,19.9-6.1,35.3-24.3,41-44,3.7-11.3-2.9-21.4-6.2-31.7-2.2-5.6,2.8-11.2-2.2-15.8s-17.2-12.1-26.3-7.8Z"/>
      <path id="STROKE_4b2be17b-45b0-475b-ba10-ed5f0e5c15407" class="st13" d="M1069.5,281c-4.8,3.7-10.8,19.1-.4,18.5,10.1-.5,15.5-30.2.4-18.5Z"/>
      <path id="STROKE_f6044e34-2bd0-4c82-aac9-54ec5d00ba8e7" class="st13" d="M1052.4,269.1c-2.3,3.2-6.3,11.1-3.2,15.4,6.3,8.7,20.4-12.4,14.4-19s-9.5,1.2-11.2,3.6h0Z"/>
      <path id="STROKE_b06ee991-6ac9-4670-b449-3485c7a73c927" class="st12" d="M1041,295.6c-21.1,13.6,15,19.3,15.1,1.9-2.2-4.7-11.1-3.9-15.1-1.9Z"/>
    </g>
  </g>
</svg>