<?xml version="1.0" encoding="UTF-8"?>
<svg id="Ebene_1" xmlns="http://www.w3.org/2000/svg" version="1.1" viewBox="0 0 1600 900">
  <!-- Generator: Adobe Illustrator 29.1.0, SVG Export Plug-In . SVG Version: 2.1.0 Build 142)  -->
  <defs>
    <style>
      .st0, .st1 {
        fill: none;
      }

      .st0, .st1, .st2 {
        stroke-linecap: round;
        stroke-linejoin: round;
        stroke-width: 3px;
      }

      .st0, .st2 {
        stroke: #000;
      }

      .st1 {
        stroke: #0000ec;
      }

      .st2 {
        fill: aqua;
      }

      .st3 {
        fill: #00d156;
      }

      .st4 {
        display: none;
      }
    </style>
  </defs>
  <g id="Pen">
    <path id="STROKE_ad9f5875-c9ea-4391-bf84-2706fc161996" class="st0" d="M302.7,853.1c6-130.3,9.4-270.6,4.6-401.2-5.5-132.5-9.9-276.7-.4-407.2-24.6-10.2-90.8-35.3-115.9-44.7"/>
    <path id="STROKE_fd21c0c3-555d-485b-a3d6-d007f1f1c3d8" class="st0" d="M1279.5,48.2c36-12.3,90.9-35.3,130.4-48.2"/>
    <path id="STROKE_7fe9eb89-092b-48d2-94fe-2cba4a5ab790" class="st0" d="M306.7,44.7c90.9-1.4,185.6,3.9,277.2,3.5,76.1-1.1,152.3-7.6,228-9.4,70.8-2.5,147.5,3.6,218,6.1,75.8,2.4,176.7,1.8,250.4,3.2,11.7,108.4,11,196,9.5,309.4-1.1,94.5,0,162.9-.9,252.1,0,60.8-8.8,186.1-10.9,242.2"/>
    <path id="STROKE_3fcf6a6e-49c4-4672-8d5d-a23c1ad486d0" class="st0" d="M242.2,900c20.4-14.1,41.6-31.3,60.8-46.8,71.8-.3,148.9,2.9,220.8,1.9,37.1-.7,83.6-5.3,120.9-6.1,54.8-.9,103.8-1.2,159.4-.4,98.6,1,195.1,8.8,293.3,10.7,60.6.8,119.7,2,180.5-7.2,15.1,10.2,43.9,35.2,60,47.8"/>
    <path id="STROKE_2831002d-69e2-49a8-bf50-070c75630a15" class="st0" d="M930.6,851c.4-49.9.6-98.4,0-148.2-.7-42.2-1.7-90.5.8-132.5-.4-24.5,1-51.3,3-75.7,1-21.7-.7-45.6-1.4-67.3-.8-19.6,3.1-39.6,2.6-59.1-1.4-33.6,1.7-68.2-2.7-101.7-82.7,3.2-177.6-3.4-259.4-1.3,1.8,99.6-3.8,196.2-2.6,295.6.9,39.9-2.7,78.9-3.5,118.8-.6,55.4,0,112-.3,167.2"/>
    <path id="STROKE_72aa970b-ae88-4cf1-bd84-f3dab087fe18" class="st0" d="M958,853.1c1.3-45.4,2.3-91.5,1.9-137-2.6-51.7-3.8-103.4-3.5-155.3,1-51,1.9-102,1.9-152.9,1.8-54.7,5-110.9,1.7-165.6-58.8-5.7-118.6-7.4-177.7-6.8-43.5-.4-90.1-.2-133,4.9-1,27.4-.9,50.7-2.2,77.8-1.1,25.3-4.1,50.4-4.2,75.3-1,150.6,1.9,304.1-1.5,454.8"/>
    <path id="STROKE_1ef026be-1d0a-4c28-918c-95232dd714b5" class="st0" d="M899.1,543.7c1.7-3,4.2-6,7.2-7.7,13.3-5.5,22.1,7.7,16.1,19.4-2.8,6-11.4,8.8-17.4,5.8-3.4-1.5-2.5-1.2-4.4-4.1"/>
    <path id="STROKE_bbd07221-e6ed-4c8a-b810-3aa9f6b75b71" class="st0" d="M893.9,544.5h-16.7c-3.4,0-7.8-.4-10.8,1.2-2.4,1-4.7,4.3-3.2,7,4.8,6.7,16.9,3,24.2,3.1s20.3,2.5,24.3-2.1-3.7-7.8-5.4-8.2c-3-.6-8.7-.5-12.4-.9h0Z"/>
  </g>
  <path id="STROKE_6cca4579-13fc-419f-801b-a4e0b0ed5ea8" class="st0" d="M302.8,247.6c-19.2-1.1-33.8-1.3-52.9-3.2-21.7-3-43-2-64.8-3.6-28.6-2.4-57.2-6.3-85.5-10-35.4-5.8-63.8-5.4-99.6-8.6"/>
  <path id="STROKE_fe48c90c-762a-4062-a3bb-582bc1429a23" class="st0" d="M249.9,244.9c-1.7,118.5-.8,237.2,0,355.8.8,96.5.2,193.3,4.4,289.7"/>
  <path id="STROKE_33537aa6-0981-45ab-a750-ee189c46adf3" class="st0" d="M108.4,232.5c.4,75.4.9,152,2,227.4-.3,83-2.4,165.9-3.8,248.9-.9,45.4-2,91-1.9,136.6-.7,30.4,1.4,54.6,1.4,54.6"/>
  <path id="STROKE_624eccce-baf3-4ccb-abf9-0b700f860a9b" class="st0" d="M182.9,240.7c-4.6,21.5-1.5,46.7-2.3,68.6.4,36.5.9,73.6,1.4,110.1-.2,163.2,5.1,317.3,4.1,480.6"/>
  <path id="STROKE_c2b49f17-cf71-4bc3-a055-cc30deac8587" class="st0" d="M26.1,224.5c.5,245.2,5.5,429.2,6.8,675.5"/>
  <path id="STROKE_5011afb1-64e6-4606-9f0a-3c4d5e988000" class="st0" d="M302,282.7c-101.2-5.6-184.5-6.9-302-11.1"/>
  <path id="STROKE_91319263-af7e-4a22-aef6-5fcaa575d3b2" class="st0" d="M305.1,373.9c-133.6,1.3-168.8-.6-305.4-1.4"/>
  <path id="STROKE_f9fc76f6-f7ad-40e1-ad6f-d21ffee6bbe3" class="st0" d="M306.9,419.8c-124.6,5.8-182.3,3.4-307.2,7.7"/>
  <path id="STROKE_4f008920-c3ba-43c7-ba79-e24452cd127e" class="st0" d="M306.7,473.6c-133.6,4.8-166.4,7.1-306.5,12.9"/>
  <path id="STROKE_4af3320c-150d-4058-96b9-328034e4ba50" class="st0" d="M307.7,534.7c-123.3,7.4-182.5,12.4-307.5,20.2"/>
  <path id="STROKE_bbcf273a-1068-4d93-94ba-3b28461c0176" class="st0" d="M308,588.9c-26.3,4-52.6,7.7-78,11.6-95.5,14-133.4,19.8-228.6,34.3"/>
  <path id="STROKE_98bf8251-2283-4742-be7f-7f726ab186e7" class="st0" d="M0,740.5c131-29,179.3-37.3,309.5-68.1"/>
  <path id="STROKE_e51eed66-bf8b-479b-b9be-c23de5b7138b" class="st0" d="M307.9,737.4c-109.2,34.9-182.6,57.9-307.9,95.7"/>
  <path id="STROKE_6b59e04a-9527-4a04-9c2e-2bf9da5a4e3c" class="st0" d="M305.1,797.5c-24.7,10.6-49.3,21.5-73.5,33.1-58,27.2-119.8,46.5-179.4,69.4"/>
  <path id="STROKE_914e7dfc-fba4-41d3-a5ff-5280d34e5f3e" class="st0" d="M-.3,329.8c124.3.6,180.1.2,304.5,1.3"/>
  <path id="STROKE_6cca4579-13fc-419f-801b-a4e0b0ed5ea81" class="st0" d="M1291.2,257.2c19.2-1.1,32.8-1.3,51.9-3.2,21.7-3,43-2,64.8-3.6,28.6-2.4,57.2-6.3,85.5-10,35.4-5.8,70.8-5.4,106.6-8.6"/>
  <path id="STROKE_fe48c90c-762a-4062-a3bb-582bc1429a231" class="st0" d="M1343.1,254.5c1.7,118.5.8,237.2,0,355.8-.8,96.5-.2,193.3-4.4,289.7"/>
  <path id="STROKE_33537aa6-0981-45ab-a750-ee189c46adf31" class="st0" d="M1484.6,241.5c-.4,74.4-.9,149.9-2,224.3.3,81.9,2.4,163.6,3.8,245.5.9,44.8,2,89.8,1.9,134.7.7,30-1.4,53.9-1.4,53.9"/>
  <path id="STROKE_624eccce-baf3-4ccb-abf9-0b700f860a9b1" class="st0" d="M1410.1,250.4c4.6,21.2,1.5,46,2.3,67.6-.4,36-.9,72.5-1.4,108.5.2,160.8-5.1,312.7-4.1,473.6"/>
  <path id="STROKE_c2b49f17-cf71-4bc3-a055-cc30deac85871" class="st0" d="M1566.9,234c-.5,241.7-5.5,423.2-6.8,666"/>
  <path id="STROKE_5011afb1-64e6-4606-9f0a-3c4d5e9880001" class="st0" d="M1291,292.4c101.2-5.6,191.4-6.9,309-11.1"/>
  <path id="STROKE_91319263-af7e-4a22-aef6-5fcaa575d3b21" class="st0" d="M1290,383.5c133.6,1.3,173.4-.6,310-1.4"/>
  <path id="STROKE_f9fc76f6-f7ad-40e1-ad6f-d21ffee6bbe31" class="st0" d="M1289.1,429.5c124.6,5.8,186,3.4,310.9,7.7"/>
  <path id="STROKE_4f008920-c3ba-43c7-ba79-e24452cd127e1" class="st0" d="M1289.4,483.2c133.6,4.8,170.5,7.1,310.6,12.9"/>
  <path id="STROKE_4af3320c-150d-4058-96b9-328034e4ba501" class="st0" d="M1289.4,544.3c123.3,7.4,185.7,12.4,310.6,20.2"/>
  <path id="STROKE_bbcf273a-1068-4d93-94ba-3b28461c01761" class="st0" d="M1290,598.6c26.3,4,47.6,7.7,73,11.6,95.5,14,141.9,19.8,237,34.3"/>
  <path id="STROKE_98bf8251-2283-4742-be7f-7f726ab186e71" class="st0" d="M1600,750.1c-131-29-183.2-37.3-313.5-68.1"/>
  <path id="STROKE_e51eed66-bf8b-479b-b9be-c23de5b7138b1" class="st0" d="M1285.1,747c109.2,34.9,189.6,57.9,314.9,95.7"/>
  <path id="STROKE_6b59e04a-9527-4a04-9c2e-2bf9da5a4e3c1" class="st0" d="M1280.6,799c22.7,10.4,45.3,21.3,67.6,32.9,53.3,27.1,110.4,45.6,165.3,68.1"/>
  <path id="STROKE_914e7dfc-fba4-41d3-a5ff-5280d34e5f3e1" class="st0" d="M1600,339.4c-124.3.6-184.7.2-309.1,1.3"/>
  <path d="M930.5,900c-21.4.5-42.7,0-64.1,0,.5-28,1.2-22.8,2.1-50.6,21.1,0,42.2,3.2,63.2,3.1-1.9,27.1-1.2,47.5-1.2,47.5Z"/>
  <path d="M791.7,900h-91.9s-2.6-23.7-1.5-51.4c31.2.6,62.5,1.2,93.7,1.5,0,27.6-.3,49.9-.3,49.9Z"/>
  <path d="M641.5,850.1c-2.4,29-5.3,49.9-5.3,49.9h-75.3s3.2-15.9,6.6-45.4c22.4-3,49.3-5.1,73.9-4.5h0Z"/>
  <path d="M1077,859.1c0,29.7,3.7,40.9,3.7,40.9h-70.3s-3.4-13.7-7.4-43.4c22.4-3,49.3,1.9,73.9,2.5h.1Z"/>
  <path d="M471.8,900h-89s5.5-13.4,15.5-44.2c30.7-1.2,61.5.7,92.3,0-9.3,18.4-18.9,44.2-18.9,44.2h.1Z"/>
  <path d="M1161.5,900s-7.4-8.8-17.5-40.2c30.7-1.2,86.9-2.4,86.9-2.4l28.6,42.6h-98Z"/>
  <path d="M311.5,900h-69.3l59.1-46,63.2-1-53.1,47h.1Z"/>
  <g class="st4">
    <path class="st3" d="M570.2,579.2c-1.7,61.7-4.5,123.6-2.1,185.3,0,0-59.7-2.7-88-1.8-35.1,0-70.8.9-105.8,2.4v-5.5c-3.4-.8-10-.5-10-.5.4-16-1.8-34.2-1.3-50,.4-14.6,1.5-79.3,1.5-96.5-1.2-29.9.4-119.2-.7-135.1,0-.3,7.4,0,7.4-.2l-.5-6.7-7.7-.6c3.9-15.8,31.2-10.6,43.3-10.9,17.1.7,37.7,1.9,54.8,2.5,21,.8,42.1,0,62.9-.3,11,1.1,41.8-5,43.8,7,4.6,26.8,2.6,74.1,2.4,110.9Z"/>
    <path id="STROKE_60e0e3f0-1d88-4f8e-8fa7-8358834d2320" class="st0" d="M370.5,468c4.2,50,1.8,98.9,3.8,148.6-.2,49.1,0,148.5,0,148.5,35-1.4,70.7-2.3,105.8-2.4,28.3-.8,88,1.8,88,1.8-2.4-61.7.5-123.7,2.1-185.4.2-36.9,2.2-84.1-2.4-110.9s-32.8-6-43.8-7.1c-20.9.3-42,1.1-62.9.3-17-.6-37.7-1.8-54.8-2.5-12.1.3-38.2-4.3-42.8,9.7"/>
    <path id="STROKE_20cce1dc-d8b9-49dc-ae0d-1da107f404ef" class="st0" d="M363.7,478.6c1.3,13.1-.5,103.5.8,134,0,17.2-1,81.8-1.5,96.5-.4,15.8,1.7,34,1.3,50,0,0,6.6-.4,10,.5"/>
    <path id="STROKE_b9b1b06d-cbc0-4f7b-a7d7-6668cdc47e79" class="st0" d="M369.5,470.4c-9.2-.8-18.7-1.2-27.9-.7-3.9,0-9.8,3.4-4.2,6.5,3.6,1.3,7.5.7,11.3,1.1,7.5.6,22.5-.1,22.5-.1"/>
    <path id="STROKE_79aa0eaa-1521-45c7-ab5a-aa3b2af77a58" class="st0" d="M350.1,468.9c-4.9-12.5-23.5-5.3-20.3,7.1,1.8,9.6,17,11.4,20.3,2"/>
    <path id="STROKE_acfa6c3b-8456-457b-88cd-b635a0904e7d" class="st0" d="M568.4,471.1s1.9.2,8.1,0c3.8.1,20,.2,10.8,5.7s-18.2,1-18.2,1"/>
    <path id="STROKE_39e4fabe-0d49-4882-b66f-a958a52acfa2" class="st0" d="M578,470.4c4.5-12.1,20.8-9.6,21.3,3.1-.3,12.7-16.9,16.7-21.3,5.4"/>
    <path id="STROKE_60e0e3f0-1d88-4f8e-8fa7-8358834d23201" class="st0" d="M375.4,730.5c35-1.4,69.7-.3,104.8-.4,28.3-.8,87-.2,87-.2"/>
    <path id="STROKE_60e0e3f0-1d88-4f8e-8fa7-8358834d23202" class="st0" d="M374.4,716.1c35-1.4,70.7-.3,105.8-.4,28.3-.8,86-.2,86-.2"/>
    <path id="STROKE_60e0e3f0-1d88-4f8e-8fa7-8358834d23203" class="st1" d="M370.5,433.4"/>
    <path class="st0" d="M373.4,697h-9.6"/>
    <path class="st0" d="M363.8,704.8c3.1,0,6.2,0,9.3-.3"/>
  </g>
  <g class="st4">
    <path class="st3" d="M1018.6,579.2c1.7,61.7,4.5,123.6,2.1,185.3,0,0,59.7-2.7,88-1.8,35.1,0,70.8.9,105.8,2.4v-5.5c3.4-.8,10-.5,10-.5-.4-16,1.8-34.2,1.3-50-.4-14.6-1.5-79.3-1.5-96.5,1.2-29.9-.4-119.2.7-135.1,0-.3-7.4,0-7.4-.2l.5-6.7,7.7-.6c-3.9-15.8-31.2-10.6-43.3-10.9-17.1.7-37.7,1.9-54.8,2.5-21,.8-42.1,0-62.9-.3-11,1.1-41.8-5-43.8,7-4.6,26.8-2.6,74.1-2.4,110.9h0Z"/>
    <path id="STROKE_60e0e3f0-1d88-4f8e-8fa7-8358834d23204" class="st0" d="M1218.3,468c-4.2,50-1.8,98.9-3.8,148.6.2,49.1,0,148.5,0,148.5-35-1.4-70.7-2.3-105.8-2.4-28.3-.8-88,1.8-88,1.8,2.4-61.7-.5-123.7-2.1-185.4-.2-36.9-2.2-84.1,2.4-110.9,2-12,32.8-6,43.8-7.1,20.9.3,42,1.1,62.9.3,17-.6,37.7-1.8,54.8-2.5,12.1.3,38.2-4.3,42.8,9.7"/>
    <path id="STROKE_20cce1dc-d8b9-49dc-ae0d-1da107f404ef1" class="st0" d="M1225.1,478.6c-1.3,13.1.5,103.5-.8,134,0,17.2,1,81.8,1.5,96.5.4,15.8-1.7,34-1.3,50,0,0-6.6-.4-10,.5"/>
    <path id="STROKE_b9b1b06d-cbc0-4f7b-a7d7-6668cdc47e791" class="st0" d="M1219.3,470.4c9.2-.8,18.7-1.2,27.9-.7,3.9,0,9.8,3.4,4.2,6.5-3.6,1.3-7.5.7-11.3,1.1-7.5.6-22.5-.1-22.5-.1"/>
    <path id="STROKE_79aa0eaa-1521-45c7-ab5a-aa3b2af77a581" class="st0" d="M1238.7,468.9c4.9-12.5,23.5-5.3,20.3,7.1-1.8,9.6-17,11.4-20.3,2"/>
    <path id="STROKE_acfa6c3b-8456-457b-88cd-b635a0904e7d1" class="st0" d="M1020.4,471.1s-1.9.2-8.1,0c-3.8.1-20,.2-10.8,5.7s18.2,1,18.2,1"/>
    <path id="STROKE_39e4fabe-0d49-4882-b66f-a958a52acfa21" class="st0" d="M1010.9,470.4c-4.5-12.1-20.8-9.6-21.3,3.1.3,12.7,16.9,16.7,21.3,5.4"/>
    <path id="STROKE_60e0e3f0-1d88-4f8e-8fa7-8358834d23205" class="st0" d="M1213.4,730.5c-35-1.4-69.7-.3-104.8-.4-28.3-.8-87-.2-87-.2"/>
    <path id="STROKE_60e0e3f0-1d88-4f8e-8fa7-8358834d23206" class="st0" d="M1214.4,716.1c-35-1.4-70.7-.3-105.8-.4-28.3-.8-86-.2-86-.2"/>
    <path id="STROKE_60e0e3f0-1d88-4f8e-8fa7-8358834d23207" class="st1" d="M1218.3,433.4"/>
    <path class="st0" d="M1215.4,697h9.6"/>
    <path class="st0" d="M1225,704.8c-3.1,0-6.2,0-9.3-.3"/>
  </g>
  <path id="STROKE_2723813b-dec1-47cb-992f-cff34e48f481" class="st2" d="M797.9,750.1s71.7,65.7,90.2,80.2c-16.4,0-30.8.5-47.4,0-.5,25.4,1.2,44.8,1.2,44.8h-81.1s-3-19-1.1-44.8c-15.3.7-32.4,0-47.9,0l86.2-80.2h-.2Z"/>
</svg>