<?xml version="1.0" encoding="UTF-8"?>
<svg id="Ebene_1" xmlns="http://www.w3.org/2000/svg" version="1.1" viewBox="0 0 1600 900">
  <!-- Generator: Adobe Illustrator 29.1.0, SVG Export Plug-In . SVG Version: 2.1.0 Build 142)  -->
  <defs>
    <style>
      .st0, .st1 {
        fill: none;
      }

      .st1, .st2, .st3, .st4 {
        stroke: #000;
        stroke-linecap: round;
        stroke-linejoin: round;
        stroke-width: 3px;
      }

      .st2 {
        fill: blue;
      }

      .st3 {
        fill: red;
      }

      .st4 {
        fill: aqua;
      }
    </style>
  </defs>
  <g>
    <path id="STROKE_5fc4450d-4de1-43b7-8bfb-6d056cdc9b27" class="st3" d="M817.3,768c-4.8-11-28.2-33.5,9.5-33.5s13.5,28.8,12.8,35.1"/>
    <path id="STROKE_5fc4450d-4de1-43b7-8bfb-6d056cdc9b271" class="st2" d="M923.2,769.3c-4.8-11-16.4-33.5,9.5-33.5s13.5,26.8,12.8,33.1"/>
    <g id="New_Layer_1">
      <path id="STROKE_b236854a-ce3c-4fd9-890e-47f16cb75a40" class="st1" d="M220,0c-3.5,211.5-6.3,524-.9,735.7"/>
      <path id="STROKE_f9409651-ccd2-4c15-870c-057225c0a157" class="st1" d="M133.2,0c4,294.2-.3,605.7-1.7,900"/>
      <path id="STROKE_146d0f7d-9795-4b17-97ab-82cbe5fabff8" class="st1" d="M40.9,0c-1.6,212.6-3.2,528.8-5.4,741.5,4.2,106.1-5.3,52.2-4.4,158.5"/>
      <path id="STROKE_1263b18d-5f9c-4fc8-b738-6f664dcb8af8" class="st1" d="M534.6,0c1.6,148.9-3.9,355.8-3.2,504.7,1.7,234.4,9.3,160.8,11.2,395.3"/>
      <path id="STROKE_db36851b-931e-4738-8669-7eb17859cfb7" class="st1" d="M420,0c1.1,228.8.7,509.2-1,738"/>
      <path id="STROKE_54f57320-0945-4929-bc88-2b3bf37b8037" class="st1" d="M321.4,0c-.5,218.6-3.2,513.7-5.2,732.4"/>
      <path id="STROKE_3fd7bf38-b9c5-41da-b538-dadd7f93dd66" class="st1" d="M773.9,624c0,45.1.2,93,.3,143.8"/>
      <path id="STROKE_3fd7bf38-b9c5-41da-b538-dadd7f93dd661" class="st1" d="M771.2,0c.5,20.2.9,59.3,1.3,129.3"/>
      <path id="STROKE_56c62ca3-9db8-4ffe-99aa-7f6dc7d192e8" class="st1" d="M648.5,0c2.5,236.7,1.4,563.4,0,800.1"/>
      <path id="STROKE_1d2832cf-e811-446b-b947-e9f621bcf63a" class="st1" d="M984.5,627.1c0,76.6.3,131.4.4,140"/>
      <path id="STROKE_1d2832cf-e811-446b-b947-e9f621bcf63a1" class="st1" d="M983.4,0c0,7.6.2,48,.3,107.9"/>
      <path id="STROKE_8b42ae9a-410d-4f77-b399-8dbbdab335f8" class="st1" d="M873.7,629.3v69"/>
      <path id="STROKE_8b42ae9a-410d-4f77-b399-8dbbdab335f81" class="st1" d="M873.4,0v83.4"/>
      <path id="STROKE_fe48c90c-762a-4062-a3bb-582bc1429a23" class="st1" d="M1219.2,0c3.6,257.2,1.7,642.7.2,900"/>
      <path id="STROKE_17edde05-21e3-44ad-b7a0-1d7e4d8884a1" class="st1" d="M1107.3,0c-1.4,271.8-3.5,626.7-7,898.5"/>
      <path id="STROKE_33537aa6-0981-45ab-a750-ee189c46adf3" class="st1" d="M1525.3,126.2c-.8,108.3-1.8,207.5-3.5,326.7.7,180,5.1,267.2,8.3,447.1"/>
      <path id="STROKE_624eccce-baf3-4ccb-abf9-0b700f860a9b" class="st1" d="M1369.3,126.2c-1,79.2-2,159.6-3.1,238.8.4,354.1-11.1,180.8-8.8,535"/>
      <path id="STROKE_5011afb1-64e6-4606-9f0a-3c4d5e988000" class="st1" d="M0,34c1087.9,6.3,517,7.2,1312.4,9.8"/>
      <path id="STROKE_91319263-af7e-4a22-aef6-5fcaa575d3b2" class="st1" d="M1050.1,243h549.9"/>
      <path id="STROKE_91319263-af7e-4a22-aef6-5fcaa575d3b21" class="st1" d="M0,243h712.7"/>
      <path id="STROKE_939359ff-cc02-4fc6-bde8-8f0f4d84f5c0" class="st1" d="M1056.5,354.3h543.5"/>
      <path id="STROKE_939359ff-cc02-4fc6-bde8-8f0f4d84f5c01" class="st1" d="M0,354.3h700.1"/>
      <path id="STROKE_596d6c57-492b-4762-89f9-d47d2d6d1704" class="st1" d="M1063.6,494.8h536.4"/>
      <path id="STROKE_596d6c57-492b-4762-89f9-d47d2d6d17041" class="st1" d="M0,494.8h702"/>
      <path id="STROKE_38803969-e46e-4b01-a55b-1c3025af7fe2" class="st1" d="M0,647.2c1148,1,450.8,1.2,1600,2.7"/>
      <path id="STROKE_bbcf273a-1068-4d93-94ba-3b28461c0176" class="st1" d="M1081.4,801c145.5-.3,295.3-.5,518.6-.9"/>
      <path id="STROKE_bbcf273a-1068-4d93-94ba-3b28461c01761" class="st1" d="M461.3,802.1c70.5,0,122.7-.2,184.9-.4"/>
      <path id="STROKE_bbcf273a-1068-4d93-94ba-3b28461c01762" class="st1" d="M0,802.8c59.8,0,111.6-.2,163.9-.3"/>
      <path id="STROKE_914e7dfc-fba4-41d3-a5ff-5280d34e5f3e" class="st1" d="M750.7,150.5H0"/>
      <path id="STROKE_914e7dfc-fba4-41d3-a5ff-5280d34e5f3e1" class="st1" d="M1600,150.5h-579.3"/>
    </g>
    <path id="STROKE_11a7c337-df65-48a2-ab2e-49deef292f28" class="st1" d="M287.8,731.4c35.4,2.7,110.6-2.5,150.9,11.3s24.4,42.3,13.7,49.1c-22.3,17.2-215.9,1.5-254,4.2-15.6,1-50.9-.8-31.1-23.9,19.7-17.6,16.8-25.4,41.6-34.1,17.2-4.9,78.9-6.6,78.9-6.6h0Z"/>
    <path id="STROKE_8a0899a0-dba0-4a63-ad8c-85a762dde033" class="st1" d="M161.5,783.5c4.8,38.4,8.3,77.7,12.8,116.5"/>
    <path id="STROKE_e6fd4393-b577-4bda-a6fe-0bfd825bb271" class="st1" d="M462.1,780.2c0,30.9-7.1,90.3-6.9,119.8"/>
    <path id="STROKE_9234214b-9bc2-421b-83c9-4020e3402c8b" class="st1" d="M320.4,757.5c-3.2-6.1-19-6.8-21.7,1.9-1.1,4.7.8,8.1,4.8,10.8,15.5,10.9,21.1-4.7,16.9-12.7h0Z"/>
    <path id="STROKE_ff8db680-f57d-4f99-b4e5-1625d60be079" class="st1" d="M1062.4,770.3s34.6,55.8,37.9,67.5"/>
    <path id="STROKE_c9e2fbb0-0d85-448a-99c8-9d17ae5a63db" class="st1" d="M1061.1,770.3c-30.3-.3-188.2,0-188.2,0-51.5-1.2-171.4,0-171.4,0,0,0-35.1,17.2-45.8,24.4-13.9,9.4-34.2,28.4-54.6,42.2"/>
    <path id="STROKE_be956472-59eb-4981-846d-654497917905" class="st1" d="M1073.3,900c17.5-23,23.8-35.1,27-62.2,0,0-164.4-3.7-227.3-3.7h0c-48.9.7-97.9-2.1-146.8-1-41.5,3.4-125.2,3.8-125.2,3.8,7.4,23.3,9.3,41.5,24.5,63.1"/>
    <path id="STROKE_7cceb918-46bd-47e5-980d-ae752eca1dbb" class="st1" d="M1055.6,779.1c-25.5-1.2-47.4-1.2-72.9,0-40.1-.3-78.2,3.7-118.3,3.9-20,.4-37.7-.2-57.7-.4-21.4-.3-76.4-2.8-97.7-4.4l-72.6,47.9c30,2.2,91.6-2.5,121.7-3.2,29.1-.3,58,3,87.1,2.3,45.8.8,190.4,2.8,236.3,1.5l-25.9-47.6h0Z"/>
    <path id="STROKE_a6814975-73ac-4c3b-b60a-6cf7185f3545" class="st1" d="M854.3,769.8c4.6-13.5,6.5-47.9,8.6-67.9,0,0,2.9,5.2,3.1,23.9l18.5.3c1.6-11.5,1.8-24.2,1.8-24.2,4.6,7.6,3.1,56.7,13.5,67.7"/>
    <path id="STROKE_6f7498b7-4dde-4b3b-9333-ecd80ac6f2a4" class="st1" d="M886.3,701.9c-20-8.1-23.4,0-23.4,0"/>
    <path id="STROKE_9462847c-5c20-42f4-86fe-bf5c9cd73c59" class="st4" d="M700.8,624c-2.2-22.2.5-63.3,1.2-85.5-.3-40.8.8-81.4-1.6-122.2-1.6-50-.9-100.8,8.6-150.1,5.4-36.8,10.5-75.3,33-106.2,49.5-60.8,141.6-97.8,217.3-66.9,49.1,24.1,79.1,75.4,88.1,128.5,7.7,43.5,2,85.1,8.8,128.2,5.2,50.3,6.2,99,9.7,150,2.8,44.6,7,86.7-4.9,129.5-39.6-5.4-77.3-4.5-116.8-7.1-32.6-1-66.5,6.4-99.1,4-20.7.8-43.5-3.5-64.1-5.3-25.2-.3-55.5,4.1-80.3,3h0Z"/>
  </g>
  <path id="STROKE_9462847c-5c20-42f4-86fe-bf5c9cd73c591" class="st0" d="M700.8,627.1c-2.2-22.3.5-63.7,1.2-86-.3-41,.8-81.9-1.6-122.9-1.6-50.3-.9-101.4,8.6-150.9,5.4-37,10.5-75.7,33-106.8,49.5-61.2,141.6-98.4,217.3-67.3,49.1,24.2,79.1,75.8,88.1,129.2,7.7,43.7,2,85.6,8.8,128.9,5.2,50.6,6.2,99.5,9.7,150.8,2.8,44.9,7,87.2-4.9,130.3-39.6-5.4-77.3-4.6-116.8-7.2-32.6-1-66.5,6.4-99.1,4.1-20.7.8-43.5-3.5-64.1-5.3-25.2-.3-55.5,4.2-80.3,3h0Z"/>
  <rect class="st0" width="1600" height="900"/>
</svg>