<?xml version="1.0" encoding="UTF-8"?>
<svg id="Ebene_1" xmlns="http://www.w3.org/2000/svg" version="1.1" viewBox="0 0 1600 900">
  <!-- Generator: Adobe Illustrator 29.1.0, SVG Export Plug-In . SVG Version: 2.1.0 Build 142)  -->
  <defs>
    <style>
      .st0, .st1, .st2 {
        fill: none;
      }

      .st1, .st3, .st4, .st5, .st6, .st7, .st8, .st9, .st2 {
        stroke-linecap: round;
      }

      .st1, .st3, .st4, .st5, .st6, .st8, .st9 {
        stroke-width: 3px;
      }

      .st1, .st3, .st4, .st5, .st6, .st8, .st9, .st2 {
        stroke: #000;
        stroke-linejoin: round;
      }

      .st4 {
        fill: #2323ff;
      }

      .st5 {
        fill: #a598f7;
      }

      .st6 {
        fill: blue;
      }

      .st7 {
        stroke: #fff;
        stroke-miterlimit: 10;
        stroke-width: 4px;
      }

      .st8 {
        fill: red;
      }

      .st9 {
        fill: #fff;
      }

      .st2 {
        stroke-width: 1.9px;
      }
    </style>
  </defs>
  <g id="Ebene_11">
    <g id="New_Layer_1">
      <path id="STROKE_3a47c8be-0e13-47bd-ad72-61958a08a76f" class="st1" d="M0,140.5c53.7,5.7,41.6,5.5,95.7,9.1,87.2,7.6,173.6,17.6,260.2,29.6,54,7.4,106.2,9.1,160.9,13.2,43.1,3.6,81.7,9.2,124.2,13.1"/>
      <path id="STROKE_bb88ef87-0820-4baf-b1e4-83a9f87e88e9" class="st1" d="M642.9,0c0,9,0,17.9-.3,26.9-.8,36.8-3.1,74.9-2.9,111.8.4,26.8,1.6,52.2,1.4,78.9-.6,53.6-1.4,107.7-2.2,161.4,0,10.2-2.8,80.6-1.1,103.4"/>
      <path id="STROKE_6cca4579-13fc-419f-801b-a4e0b0ed5ea8" class="st1" d="M641,205.5c119.5-16,241.6-22,361.8-32.7,64.3-5.9,128-9,191.5-21.1,19.9-3.6,40.6-2.5,60.7-2.9,19.2-1.1,37.8-7.3,56.9-9.2,21.7-3,43-2,64.8-3.6,28.6-2.4,57.2-6.3,85.5-10,35.4-5.8,71.9-5.4,107.7-8.6,10.9-.9,20.7-2,30.1-3.2"/>
      <path id="STROKE_ac641b8a-5481-4827-a144-2efe99dbbdaf" class="st1" d="M606.5,202.2c-5.2,96.5-5,189-3.3,285.7"/>
      <path id="STROKE_7f61c336-551a-41a7-8f93-0ae1a1ae9cf2" class="st1" d="M565.9,197.5c-1.5,53.3-2.1,103.1-1.7,156.4,1.8,47,3.5,93.2,3.3,140.4"/>
      <path id="STROKE_a3964e8e-09ef-4d3c-8e4c-72ad6957f964" class="st1" d="M525.2,193.6c-3.4,62.2-4.4,124.5-4.4,186.8.2,41.3,0,81.5,3.7,122.6"/>
      <path id="STROKE_80376ece-4247-4cd3-b76c-4c3e3e982f82" class="st1" d="M483.4,190.9c-3.9,106.7-.5,213.4,3.4,320"/>
      <path id="STROKE_92d4da13-b470-41fa-9cff-3dec1e490383" class="st1" d="M443.1,189.4c-3.4,63.8-4.5,128.2-4.3,192.1,0,46,.2,91.1,5.1,137.4"/>
      <path id="STROKE_07d17e58-1b3f-438d-aa7e-1864ee146f81" class="st1" d="M393.5,184.4c-1.5,54.9-2.3,114.4-1.6,169.3,3,60.7,3.6,113.5.3,174.7"/>
      <path id="STROKE_1b486964-54ba-46d8-a78b-4081609d51ef" class="st1" d="M339.5,176.9c-1.4,57.9-2.7,116-1.3,174,3.1,64.4,2.8,119.4,3.2,184.9"/>
      <path id="STROKE_02db04cb-50ec-4694-b2d0-fa75bac198f6" class="st1" d="M289.3,170.4c-6.8,124.8-4.2,249.3-1.9,374.5"/>
      <path id="STROKE_1bb1ffed-0be0-4fb4-93e3-4f878e3f84b9" class="st1" d="M233.2,163.7c-2.1,74.6-3.1,156.1.6,230.7,1.4,57.6-3,100.9-3.4,160.9"/>
      <path id="STROKE_1ce65af4-ce4a-4acf-873b-17489e805175" class="st1" d="M182.9,159.6c-3,87.1-2,173.8,1.7,260.9,4.2,77.8-2.1,154,3.6,233.3"/>
      <path id="STROKE_f80da464-1033-4f73-a3a5-facad4a0c317" class="st1" d="M128.3,153.2c-6,172.6-1.7,340.3,5.3,513.6"/>
      <path id="STROKE_da57e25a-6ed6-47b5-9344-7450d5ca69d2" class="st1" d="M76.8,148.3c-9.4,176.4-1.1,357.5,2.7,534"/>
      <path id="STROKE_b579a607-6c84-4555-b6f5-f8b22c20f83d" class="st1" d="M20.5,143.7c-4.9,89.4-4.7,178.9-3.8,268.5.4,89.8.2,192.6.2,282.7"/>
      <path id="STROKE_90f5a5ee-f4a4-41be-ab0f-58458b4727a9" class="st1" d="M720.8,196.6c-2.5,98.6,3.9,201.5,3.2,300.2"/>
      <path id="STROKE_3b410413-a0b3-4fcd-a04d-7a6dc05e5138" class="st1" d="M679.7,482.6v7.4"/>
      <path id="STROKE_3b410413-a0b3-4fcd-a04d-7a6dc05e51381" class="st1" d="M679.6,201.4c1.6,30.9-1.3,64.9-.8,95.9.2,55,.8,108.4.9,163.1"/>
      <path id="STROKE_b236854a-ce3c-4fd9-890e-47f16cb75a40" class="st1" d="M851.3,185.6c-1.6,97.5-2.9,194.8-.4,292.3"/>
      <path id="STROKE_f9409651-ccd2-4c15-870c-057225c0a157" class="st1" d="M811.3,188.4c1.8,135.6-.2,273.3-.8,409"/>
      <path id="STROKE_146d0f7d-9795-4b17-97ab-82cbe5fabff8" class="st1" d="M768.8,192.3c-.8,98-1.5,197.8-2.5,295.8,1.9,48.9-2.4,97.6-2.1,146.6"/>
      <path id="STROKE_1263b18d-5f9c-4fc8-b738-6f664dcb8af8" class="st1" d="M996.4,174.2c.7,68.6-1.8,136.1-1.5,204.7.8,108.1,4.3,216.2,5.2,324.3"/>
      <path id="STROKE_db36851b-931e-4738-8669-7eb17859cfb7" class="st1" d="M943.5,177.8c.5,105.5.3,212.2-.5,317.7"/>
      <path id="STROKE_54f57320-0945-4929-bc88-2b3bf37b8037" class="st1" d="M898.1,182.5c-.2,100.8-1.5,201.7-2.4,302.4"/>
      <path id="STROKE_6dc10831-26c2-4a8e-97c2-2a46d3dc3ac8" class="st1" d="M1103.7,164.2c-.3,16.5,0,27.8,0,44.1"/>
      <path id="STROKE_e2efd71e-28db-45a9-8ac1-58a4261910f5" class="st1" d="M1102.6,428.4c.2,13.8.3,27.8.6,41.4"/>
      <path id="STROKE_2ac2c99c-6d36-4a80-a830-7c9c91f0136a" class="st1" d="M1103.4,485.1c0,5.1.2,11.9.3,16.7"/>
      <path id="STROKE_3fd7bf38-b9c5-41da-b538-dadd7f93dd66" class="st1" d="M1105.4,596c1.2,46.8,1.3,92,3,138.7"/>
      <path id="STROKE_56c62ca3-9db8-4ffe-99aa-7f6dc7d192e8" class="st1" d="M1048.9,169.5c1.2,109.1.6,216.5,0,325.6"/>
      <path id="STROKE_85d46034-e36c-4553-b4b5-c263099e9409" class="st1" d="M1048.3,579.9c-.6,45.7.2,92-1.7,137.7"/>
      <path id="STROKE_1d2832cf-e811-446b-b947-e9f621bcf63a" class="st1" d="M1203.3,151.1c.2,15.6.5,30.1.7,45.2"/>
      <path id="STROKE_f557dbf1-335a-4cab-bff9-f76833918ad5" class="st1" d="M1203.5,435.3c-.2,28.4-.3,54.5-.5,82.3"/>
      <path id="STROKE_51a50210-19ba-46aa-9efa-b7d4bfbd9311" class="st1" d="M1202.5,585.1c-.4,56.8-.7,114.2-1.3,171.4"/>
      <path id="STROKE_8b42ae9a-410d-4f77-b399-8dbbdab335f8" class="st1" d="M1152.3,159c.3,10,.5,16,.6,25.5"/>
      <path id="STROKE_7ec9f221-3538-4358-afd8-e3713e5e77fc" class="st1" d="M1150.9,432.2c-.3,20.1-.5,41-.8,60.9"/>
      <path id="STROKE_f0b6a099-6da5-4927-9a2f-0ff0fca22a2c" class="st1" d="M1148.7,598.7c-.6,48.7-1.3,97.1-1.9,145.8"/>
      <path id="STROKE_fe48c90c-762a-4062-a3bb-582bc1429a23" class="st1" d="M1311.9,140.1c1.7,118.5.8,237.2,0,355.8-.8,96.5-.2,193.3-4.4,289.7"/>
      <path id="STROKE_17edde05-21e3-44ad-b7a0-1d7e4d8884a1" class="st1" d="M1260.4,149.1c-.6,125.3-1.6,249.2-3.2,374.5-1,82.4-1.5,164.6-5.9,246.9"/>
      <path id="STROKE_33537aa6-0981-45ab-a750-ee189c46adf3" class="st1" d="M1453.4,127.7c-.4,75.4-.9,152-2,227.4.3,83,2.4,165.9,3.8,248.9.9,45.4,2,91,1.9,136.6.7,30.4-1.4,89.1-1.4,89.1"/>
      <path id="STROKE_624eccce-baf3-4ccb-abf9-0b700f860a9b" class="st1" d="M1378.9,135.9c4.6,21.5,1.5,46.7,2.3,68.6-.4,36.5-.9,73.6-1.4,110.1.2,163.2-5.1,327.4-4.1,490.7"/>
      <path id="STROKE_2509cdd6-1b15-4dc6-83be-f4759d8f29f1" class="st1" d="M1590.6,115.8c0,97.4-2.9,192.5-1.2,289.8,2,155.3,8.3,312.6,1.4,467.9"/>
      <path id="STROKE_c2b49f17-cf71-4bc3-a055-cc30deac8587" class="st1" d="M1535.7,119.7c-.5,245.2-5.5,486.3-6.8,732.6"/>
      <path id="STROKE_ff37f188-354a-4533-8264-ce461d216687" class="st1" d="M765.9,634c5.5.4,7,.6,11.6,1.5"/>
      <path id="STROKE_dea05a7a-2d03-4f03-927f-90d06ece2157" class="st1" d="M957.8,690.2c57.9,18.1,114.6,36,173.2,51.5,28.8,6.9,57.9,12.2,86.6,19.6,27.7,7.2,54.6,17,82.3,24.3,40,10.1,79.7,21.4,118.9,34.4,30.4,8.5,60.9,17,90.9,27,30.3,9.3,59.9,21.5,90.3,30.5"/>
      <path id="STROKE_85dbd4a5-0b84-4c88-b551-d0d6367cc57b" class="st1" d="M0,594.4c111.1-18.7,209-34.5,319.8-54.8,23.3-3.9,46.3-7,69.6-10.5,25.2-4.8,49.5-9.6,75.1-13,29.1-4.4,56.6-11.8,85.2-18,29.4-5.9,59.1-8.7,88.7-13.4"/>
      <path id="STROKE_d02c8390-e896-4c04-aef7-a18513c777f6" class="st1" d="M640.4,234.8c133.3-12,266.9-23.4,400.2-36,35.6-2.1,73.9-10.6,109.3-13.3"/>
      <path id="STROKE_5011afb1-64e6-4606-9f0a-3c4d5e988000" class="st1" d="M1167.1,184c149-11.1,281.7-11.7,432.9-17.1"/>
      <path id="STROKE_bc1ed51c-8d19-4bd3-bef1-ef3442d2d2a9" class="st1" d="M640.2,305.2c143.8-5.8,287.8-10.7,431.6-17.2"/>
      <path id="STROKE_91319263-af7e-4a22-aef6-5fcaa575d3b2" class="st1" d="M1234.7,278.5c133.4-6.9,229-11,365.3-20.2"/>
      <path id="STROKE_939359ff-cc02-4fc6-bde8-8f0f4d84f5c0" class="st1" d="M639.6,346.1c144.3-4.1,288.8-8.7,433-11.9"/>
      <path id="STROKE_f9fc76f6-f7ad-40e1-ad6f-d21ffee6bbe3" class="st1" d="M1239.8,329.3c124.6-5.7,235.4-13.5,360.2-20.7"/>
      <path id="STROKE_596d6c57-492b-4762-89f9-d47d2d6d1704" class="st1" d="M639.1,384.6c143.9-1.1,289.2-4.4,433.1-7.2"/>
      <path id="STROKE_4f008920-c3ba-43c7-ba79-e24452cd127e" class="st1" d="M1241,374.2c133.7-.7,218.8.2,359,.2"/>
      <path id="STROKE_38803969-e46e-4b01-a55b-1c3025af7fe2" class="st1" d="M638,418.1c144.1,3.3,290.3,3.9,434.5,8.7"/>
      <path id="STROKE_4af3320c-150d-4058-96b9-328034e4ba50" class="st1" d="M1240.9,434.2c123.5,4,234,7.4,359.1,11.7"/>
      <path id="STROKE_b294464b-6292-412b-98f1-ba8bb717a70b" class="st1" d="M637.5,444.1c89.2,6.5,173.1,13.1,262.1,20.1,66.3,5.8,133,9.1,198.6,19"/>
      <path id="STROKE_55345d8e-c6ab-4be7-9253-e9eca2f3d186" class="st1" d="M1107.6,485.1c.6,0,15.7,2,16.4,2.1"/>
      <path id="STROKE_bbcf273a-1068-4d93-94ba-3b28461c0176" class="st1" d="M1146.8,490.7c59.1,7.3,123.9,9,184.2,12.4,96.4,4.7,172.9,6.8,269,12"/>
      <path id="STROKE_98bf8251-2283-4742-be7f-7f726ab186e7" class="st1" d="M1600,591.6c-130.7-8.9-241.1-12.9-371.3-23.5"/>
      <path id="STROKE_172c9f3f-1dda-44d6-a83c-0f727a337ff4" class="st1" d="M1000,537.1c-17.6-2.5-29.8-4-46.8-6.5"/>
      <path id="STROKE_058116ad-e0b4-42dd-95e1-51a6aaffc5ae" class="st1" d="M826.9,512.4c-40.2-5.9-159.2-23.4-188.5-27.7"/>
      <path id="STROKE_7412c1a9-6d02-4432-8a86-29a17eaa5da1" class="st1" d="M767.5,551.3c22.1,3.1,42.6,6.1,64.3,9.2"/>
      <path id="STROKE_e51eed66-bf8b-479b-b9be-c23de5b7138b" class="st1" d="M947.6,577.3c45.2,6.8,91,13.4,135.8,22.8,36.1,7.8,71.7,18.4,108.4,22.8,147,16.7,260.9,25,408.2,39.5"/>
      <path id="STROKE_1ad0cfb9-b5a8-4416-986d-6a4f0586109c" class="st1" d="M766.3,583.7c17.3,3.2,36.9,6.9,53.7,10.9"/>
      <path id="STROKE_6b59e04a-9527-4a04-9c2e-2bf9da5a4e3c" class="st1" d="M947.7,624.5c65.1,14.9,129.9,30.5,195.3,43.8,55.7,9.5,111.7,17.6,166.8,30.3,42.2,9.4,85.8,13.1,128.4,19.5,63.6,9.8,98.3,17,161.8,27.6"/>
      <path id="STROKE_914e7dfc-fba4-41d3-a5ff-5280d34e5f3e" class="st1" d="M1600,215.7c-124,8.2-243.2,15.2-367.3,23.9"/>
      <path id="STROKE_edad0914-1d6a-4f43-b0a1-ac9a74f2773e" class="st1" d="M1079.5,247c-34.4,2.3-69,8.3-103.6,8.5-48.7,1.1-97.3,5.2-146,6.2-34.2,0-68.9,3.8-103.1,4.9-28.7,1.1-57.4-.6-86,1.4"/>
      <path id="STROKE_151f4a31-33e6-4ce3-9f2c-5bfd08a9d113" class="st1" d="M0,250.8c225.3,5.6,415.4,4.2,640.7,17.3"/>
      <path id="STROKE_e17baa02-de5c-46a4-94e6-6fe58fb026d9" class="st1" d="M0,318.5c160.3-9.4,280.5-16.5,441.2-16.5,63.5-1.9,134.4-1.5,198.6,3.2"/>
      <path id="STROKE_d84190cc-0ed9-4d7d-86fd-05383467057f" class="st1" d="M0,374.7c146.3-8.8,258.8-21.1,405.2-26.6,77.9-2.8,154.3-6.5,233.1-2.2"/>
      <path id="STROKE_db998c0b-cffd-425f-92e6-07f59c79cf69" class="st1" d="M0,534.4c126.6-16,219-24.5,345-44.4,53.3-7.8,106.5-17,159.6-26.5,39.9-7.9,91.5-17.1,132.8-19.4"/>
      <path id="STROKE_ce4cc5e1-c209-42b5-877c-03f374ea7afa" class="st1" d="M0,435.2c88.1-4.4,147.9-11.2,235.7-19.3,46.7-3.7,94.1-5.4,140.9-9,88.8-7.9,170.5-20,260.9-22.5"/>
      <path id="STROKE_4300ca11-2e62-495c-9813-281996ea3385" class="st1" d="M0,485c223-20.9,414.4-41.9,638-66.9"/>
      <path id="STROKE_88b4acf9-c3c5-481c-966c-cbbca083ab2d" class="st1" d="M0,195.9c227.1,12.9,414,13.6,640.9,38.9"/>
      <path id="STROKE_8627d86f-f19a-4ff9-8359-0129795de96f" class="st1" d="M228.9,599.5c-45.3,15.7-92.2,19.9-139.7,26.1-33.1,5.6-56.9,9.6-89.2,17.5"/>
      <path id="STROKE_60a36a24-de6c-4536-a462-3f1285f7bbfd" class="st1" d="M0,700.2c32-7.8,64-12.9,95.6-22.4,44-13.7,91.4-24.1,136.7-32.1"/>
    </g>
    <g id="New_Layer_2">
      <path id="STROKE_5fc4450d-4de1-43b7-8bfb-6d056cdc9b27" class="st8" d="M1110.6,504.1c-1.4-5.4-7.5-15,1.2-16.1,6.3-.5,15.1,4.2,13.7,11.6-.7,2.7-2.3,3.6-3.1,6.4"/>
      <path id="STROKE_23cbab99-1562-4519-9899-efe5e9b5b54a" class="st6" d="M684.4,432.8c4.1-1.1,15.3-2,15.3-2,5.6.8,6.8,9.3.9,10.7,0,0-10.3-.8-14.8.5"/>
      <path id="STROKE_e04ecbdf-343c-4717-8989-fa7d12f7d035" class="st8" d="M652.5,442.4c3,0,14.4-2.9,14.4-2.9,2.2-2.5,2.3-7.6-.9-9.2,0,0-12,.4-16.2.5"/>
      <path id="STROKE_e0bc8869-ea47-4c1f-9873-cf093802965b" class="st1" d="M230.4,555.2c41.8,28.9,89.3,52.7,134,76.5"/>
      <path id="STROKE_ea55a0f0-3ffe-4eab-8fe3-09468f2c88e3" class="st1" d="M230.4,557.5c1.2,30.9.4,57.4,2,88.2"/>
      <path id="STROKE_f4c9fc41-6725-4b89-b0de-51a9c2a10963" class="st1" d="M232.4,645.7c20.2,19.8,37,38.9,59,56.2,22.9,18.3,49.4,37,71.4,56.4"/>
      <path id="STROKE_61040c99-1a2d-475e-9f8b-6657a6fc41d4" class="st1" d="M362.7,758.3c56-18.7,110.6-32.7,167.1-48.6,20.7-6.8,39.8-19.4,61.8-21.9,35.3-5.2,68.9-16.1,101.8-30.1,23.4-9.6,47.5-15.1,71.1-23.2"/>
      <path id="STROKE_276da91f-ebda-41ff-8c26-067b99100d46" class="st1" d="M364.4,631.8s16.4-6.6,26.7-10.3c31.7-11.9,65.8-16.6,97.5-28.5,27.4-6.7,53.7-18.4,81.1-25.6,38.9-11.5,77.5-22.2,115.4-36.6,17.7-6.3,36.2-7.8,53.5-15.4,8.3-3.8,19-9.6,28-11.8"/>
      <path id="STROKE_904e4ef2-1178-4413-9dae-534a39302608" class="st1" d="M364.4,631.8c-2,19.6-3.6,42-3.3,61.7.7,22.2,1.1,42.6,1.7,64.9"/>
      <path id="STROKE_11a7c337-df65-48a2-ab2e-49deef292f28" class="st1" d="M886.5,482.5c15.4,5.6,57.9,6.9,65.8,21-1.7,5.1-11,4.6-15.5,6.2-5.6,1.2-10.4,3-16,4.8-12,4.9-18.8,2.5-30.6-.5-17-4.2-34-10.4-51.2-13.9-7.1-1.5-22.5-6.7-10.9-14.4,10.9-5.4,23.7-7.7,35.8-8.4,8.3,0,22.8,5.2,22.8,5.2h-.2,0Z"/>
      <path id="STROKE_8a0899a0-dba0-4a63-ad8c-85a762dde033" class="st1" d="M826.1,496.1c2.8,22.4,4.6,45.3,7.7,67.7,1.1,8.5-.7,18.5,4.3,25.9"/>
      <path id="STROKE_e6fd4393-b577-4bda-a6fe-0bfd825bb271" class="st1" d="M914.7,517c4.2,12.7,3.6,25.6,3.7,39.2.8,19.8-2.8,42.3-8.6,60.9"/>
      <path id="STROKE_2b1f8676-fb63-435e-b11d-d74da2c954cf" class="st1" d="M909.8,618.6c3.5,19.2,6.1,37.9,7.3,57.5,1,11.7,2.3,21.1,0,32.5"/>
      <path id="STROKE_4ede9769-7037-4a45-afdd-c8c30d055d20" class="st1" d="M895.2,610.2c11.1,7.4-16.9,21.9-22.9,24.5-20.3,10-43.8,12.9-66.2,12.2-12.6-2.1-30.6-6.7-33.3-21.3-5.1-22.7,42.2-27.3,57.4-33.3,12.5-4.7,23.4.5,34.9,5.5,0,0,19.6,7.4,30,12.4h0Z"/>
      <path id="STROKE_9234214b-9bc2-421b-83c9-4020e3402c8b" class="st1" d="M888,493.6c-1.5-2.8-8.7-3.1-10,.9-.5,2.2.4,3.7,2.2,5,7.2,5,9.7-2.2,7.8-5.9Z"/>
      <path id="STROKE_4fba13a5-87c9-46a5-b80e-4d9c5806b993" class="st1" d="M776.8,636.1c.8,20.3,9.7,29.4,28.3,36.2,23.8,8.1,50.4,3.9,73.1-5.6,30.5-19,20.1-39.1,31.1-41.6"/>
      <path id="STROKE_8dac3776-ce8a-40c4-b9a8-5d226a9fc711" class="st1" d="M778.5,647.8c28.1,17.1,63.6,10.5,92.6,0,13-3.9,23.2-13.5,34.7-20.3"/>
      <path id="STROKE_0b98ce81-5d50-41fd-a630-ebf6cca6044f" class="st1" d="M952.3,503.5c4.2,15.9-2.4,35.9-3.4,52.1-1.7,13.9-1.8,27.3-5.4,40.7-3.2,15.6-45.9,23.4-50.4,25.3"/>
      <path id="STROKE_86650ec9-43a3-4ba8-a125-1f0e069f49da" class="st1" d="M940.1,602.4c4.8,10,7.2,24.2,10.7,34.7,4.8,16.5,12.6,34.9,7.2,52-8.7,14.5-29.2,14.2-43.1,21.1,0,0-26.3,11.1-37.2,14.4-7.5,3.3-14.2,7.8-21.7,10.8-10.7,4.4-18.7,15.6-30.8,16.4-10.8-.2-19.9-7.5-29.7-11.4-4.7-3.2-24-5.1-20.8-12.6l.5-.6c9.9-6.2,15.2-15.6,14.1-27.3-1.1-10.8-1.1-26.5-1.9-37.4"/>
      <path id="STROKE_3edeaf6a-f23b-4ebf-bbb5-3356d71b4111" class="st1" d="M826,677.3c-.5,23.1,0,48.9,7.8,70.9"/>
      <path id="STROKE_7f3cfcc2-b4d8-4c0d-9b4d-e7704963d14a" class="st1" d="M894.9,653c-2.6,13.9-7.9,29.6-.5,42.9,3,5.8,8.2,14,22.4,11.9"/>
      <path id="STROKE_ff8db680-f57d-4f99-b4e5-1625d60be079" class="st1" d="M1132.4,598.1c12.5-1.5,23.2-.2,35.5-2.4,7-1.1,15.5-4.5,22.3-6.7,31.1-8.9,52.8-27.4,46.2-59.5,0,0-42.5,15.4-64.2,21.2"/>
      <path id="STROKE_c9e2fbb0-0d85-448a-99c8-9d17ae5a63db" class="st6" d="M1151.1,509.9c-.4-6-8.3-17.6,3.3-16.6,17.9,1.1,21.2,6.4,8.5,18.6"/>
      <path id="STROKE_17a74da4-f954-4478-8358-23961ad7439d" class="st1" d="M998.5,516.4c10.3-4.8,24.9-11,35.7-14.5,10.2-4.4,7.9-4.6,19.4-6.4,0,0,136.8,21.4,150.6,23.7,9.9,1.7,22.8,5.2,31.7,10"/>
      <path id="STROKE_be956472-59eb-4981-846d-654497917905" class="st1" d="M1100.5,535.2c-18.3-3.2-36.5-8-54.9-11-15.8-1.4-47.1-7.2-47.1-7.2,1.4,11.2.2,23.6,7.2,33.2,17.3,20.8,44.7,30.4,69.9,37.7,26.8,7.8,59.7,18.9,84.2,0,7.9-9.2,13.6-24.6,13.9-36.8,0,0-49.7-11.3-73.3-15.8h.1Z"/>
      <path id="STROKE_7cceb918-46bd-47e5-980d-ae752eca1dbb" class="st1" d="M1211.7,529.2c-11.5-2.4-22.9-4-34.5-5.3-18.2-3-36.5-6.8-54.8-9.6-9.1-1.2-17.8-3.9-26.9-5.4-9.7-1.7-19.5-2.1-29.1-4.3l-36.5,10.5c13.5,3.2,27.4,5,41.1,6.9,13.3,2,26.2,5.5,39.5,7.3,20.8,3.7,40.9,10.9,61.9,13.5l39.3-13.5h0Z"/>
      <path id="STROKE_9462847c-5c20-42f4-86fe-bf5c9cd73c59" class="st9" d="M1073,426.6c-1-10.3.2-20.6.6-30.9,0-18.9.4-37.8-.7-56.7-.7-23.2-.4-46.7,4-69.6,2.5-17,4.9-34.9,15.2-49.2,22.8-28.2,65.3-45.3,100.2-31,22.6,11.2,36.5,35,40.6,59.6,3.6,20.1.9,39.4,4.1,59.4,2.4,23.3,2.8,45.8,4.5,69.5,1.3,20.7,3.2,40.2-2.2,60.1-18.3-2.5-35.6-4.7-53.9-5.9-15-.5-30.7-.2-45.7-1.2-9.6.4-20.1-2.1-29.6-2.9-11.6-.1-25.6-.6-37-1.2h0Z"/>
      <path id="STROKE_a6814975-73ac-4c3b-b60a-6cf7185f3545" class="st1" d="M1134.2,507.7c-5.8-8.6-4.9-16.3-12.1-24.2-4.1-6.2-14-6.8-15.2,1.8l-9-1.5c3.8-27.6,25.1-14.5,39.2-3.1,4.5,3.7,7.8,9,12.2,12.8"/>
      <path id="STROKE_6f7498b7-4dde-4b3b-9333-ecd80ac6f2a4" class="st1" d="M1149.3,509.6c-8.9-7.2-15.6-18.2-22.4-27.2-4.4-6.5-11.1-10.3-19.1-9.7"/>
      <path id="STROKE_8b0638b7-5071-4068-a121-092b9a9ce677" class="st1" d="M646.3,473.1c3.2-2.5,6.4-3.8,10.3-4.8,4.5-1.7,12.8-4.2,12.8-4.2,9.9-1.1,14.3,4,11.4,13.6"/>
      <path id="STROKE_84c207c3-ae05-4799-bed9-0323f7eec784" class="st1" d="M680.8,477.7c-7,.3-14.7-.2-21.6,1.1-3.2,1.3-5.2,2.8-8.8,2.2-4.7.1-5.1-2.3-4.3-6.3l.2-1.4c1.4,0,4,.3,5.5.3v.3c1,2.3,1.1,4.1,1.3,6.7"/>
      <path id="STROKE_f2852056-b0fb-43db-a2b4-d2e8d89d1849" class="st1" d="M651.7,473.4c9.2-.8,19.9-7,29.3-4.7"/>
      <path id="STROKE_f41dc71a-7ced-4df1-9dbf-e837d618b5fd" class="st1" d="M670.8,463.5c6.1-4.4,14.7-3.2,18.4,3.7,4.9,11.4-4.9,20.5-15.2,11.5"/>
      <path id="STROKE_0b8255e8-4c25-4919-86d4-9d4bdc9ec7a1" class="st8" d="M647,434.2c.9-3.8,3.9-4.1,6.9-2.2,2.5,2.1,2.6,7,.6,9.4-4.6,3.3-8.9-1.3-7.5-7.3h0Z"/>
      <path id="STROKE_920d319d-f401-4e2a-9d76-1d3376df34de" class="st6" d="M686.9,433.2c-5.2-2.6-8,5.6-4,8.4,5.4,2.3,8.8-4.2,4.6-7.9l-.6-.5Z"/>
      <path id="STROKE_1a1cfccd-bcc7-494d-8692-32df95bde4ac" class="st1" d="M653.2,513.4c.5,3.9,2.9,7.8,6.7,9.3,11.5,4.3,13.4-10.7,5.7-16.4s-13.9-.6-12.4,7.1Z"/>
      <path id="STROKE_49bd9b55-e5f2-4ed3-9c13-c774b8a45b9d" class="st1" d="M345.6,601.9c3.5,4.6,6.5,10.5,11.7,13.7,9.6,7.5,33.8-4,45-6.9,18-4.5,35.2-10.5,53-15.6,10.5-4.5,20.8-7.5,32.1-9.8,13.5-4,27.4-8.4,41.1-11.7,16.9-4.9,33.3-11.1,50.2-16.1,13.7-2.7,27.1-6.1,40.5-10.1,11.1-2.6,21.2-7.3,32-10.6,12-3.1,23.2-7.8,34.8-12.2,13-3.9,26.4-4.2,39-10.5,7.4-11.7-13.1-9.3-19.7-10.3-11.1-1.1-22.5-1.1-33.3-3.9-7.3-2-14.7-3.2-22.2-3.6-5-.5-10.4-2.2-15.4-1.9-13.6,1.6-26.4,8.2-39.8,11-16.1,5.3-32.8,6.5-49.3,10.1-19.2,6-38.8,9.6-58.6,12.9-19.6,2.2-38.8,7.2-58.2,10.9-19.9,3.8-40,5.9-59.9,9.2-23.8,3.2-47.7,5.6-70.9,12-4.2.9-12.3,4.9-8.2,9.3,4.8,3.9,11.9,8.7,17.9,10.8,0,0,26,9.9,38.1,23.3h.1Z"/>
    </g>
  </g>
  <g id="Ebene_2">
    <path class="st5" d="M665.5,575.1c.2,14.1-8.1,26.5-9,40.4-.4,5.9-.3,11.9,1,17.6.6,4.8,2.9,10.5.5,15.1-4.1,3.7-7.2-6.4-7.3-9.5-.9-4.8-.9-9.7-2.1-14.5-3.7-8.8-7.7-17.6-7.1-27.5-1.3-17.7,4.7-45-15.9-53.1-5.9,1.6-11.8,3.3-17.7,5,9,4.9,10,15.9,13.5,24.5,6.1,15.5,4.2,26.4-2.5,41.2-3,8.9-4,18.5-3.1,27.8,0,6.2,2.6,13.4-.2,19.2-7.3,1.5-7.9-6.4-10.7-11-4.1-8.8-6.6-18.5-4.4-28.1,5.1-16.7,1.8-56.5-11.1-69-1.8.4-3.6.8-5.4,1.2,19,21.6-2.4,56.3-1.2,81.8-.2,10.6,4.4,21.5,5.3,32,.2,12.4-9.2,9.2-12.4.3-3.4-22.5.8-46.1.7-68.8,0-13.5,1.7-32.9-13.1-39.3-4.4,1.5-8.8,2.9-13.2,4.4,7.6,8.7,11.1,21.5,10.1,33.2-.5,8.8-4.3,16.6-5.8,25.1-2.2,12.5,4.4,24.7,6.3,36.6.4,5.6,4.3,29.1-7.2,23.1-10.9-12.3,1.8-33.3-8.6-46.3-3.4-5-9.2-7.3-10.8-13.3-4.2-16.4,11.5-39.3-5.5-51.6-11.2,2.7-22.6,6.2-33.8,9.5,8.9,4.8,13.9,15.7,13.2,25.8-.5,8.8-5.7,17.2-7.2,25.8-1.5,7.8.3,16,6,21.8,3.6,4.6,10.5,8.7,13,14,3.1,10.9-4.8,26.4-15.9,29.2-3-7.2,6.6-14.2,7.3-21.4,5-17.7-20.2-16.1-28.5-25.1-8.2-9.3,1.3-22.8,5.6-31.9,8-13,10.2-26.9-6.6-33.4-8.9-.8-17.9,4.5-26.4,7.4-17.8,5.1-35,11.1-53,15.6-22.2,6.6-43.5,19.7-56.7-6.8h0c-5.5-6.2-14-11.5-21.6-15.6-1.9-10.1-18.1-12.7-25-19.7-13.4-15.7-8.5-45.6,4.4-60.6,18.8-23.6,48.5-29.9,77.2-32.7,47.2-6.2,97.9-13.1,132.7-6.9,34.8,6.2,63.4,6,76.9,20.6s12.9,32.5,31.5,35.5c12.6,2.3,23.9,5.8,35.5,10.6-3.5,1.1-7.2,1.9-10.6,3.2,9.3,11.7,19.9,22.7,18.9,38.8v-.2h0Z"/>
    <path class="st1" d="M323.9,586.3v.7l.8.5"/>
    <line class="st1" x1="657.3" y1="533.1" x2="657.2" y2="533.1"/>
    <path class="st1" d="M584.1,554.4c-.9-1-1.9-1.9-2.9-2.9"/>
    <path class="st1" d="M551.8,560.6c3.5-1.1,7.9-1.7,11.6-.3"/>
    <path class="st1" d="M490.7,579.5c1.2.5,3.2,1.2,4.1,1.6"/>
    <path class="st1" d="M461.1,588.1c5.6-1.9,11.7-3.5,17.8-2.9"/>
    <path class="st1" d="M542,562.1c2.9-.9,6,.6,8.2,2.6"/>
    <path class="st1" d="M520.6,570.5c1-.2,7.1.2,8.1,1.1"/>
    <path class="st1" d="M605.4,547c.9.6,1.6,1.1,2.4,1.7"/>
    <path class="st1" d="M587.2,550.9c.7.8,1.5,1.4,2.3,2.4"/>
    <path class="st1" d="M636.6,535c3.1-1.3,7.4-.7,10,1.3"/>
    <path class="st1" d="M625.5,543.7c-.4-.2-.8-.4-1.3-.6"/>
    <path id="STROKE_8ccff32f-4e58-4b73-b056-0a1d2d05225e" class="st1" d="M413.2,541.8c-4.6,7.5-13,5.5-19.4,1.3"/>
    <g>
      <path id="STROKE_0e1884c4-3386-468a-9623-164377cd5c16" class="st7" d="M371.7,541.5c5.4-9.4,1.4-23.8-7.4-29.6-10.2-6.5-27.2-3.3-33.2,7.7-13,30.1,22.9,50.1,40.6,21.9Z"/>
      <path id="STROKE_7f70717c-76e1-4d64-b2c0-ab83968c73ee" class="st7" d="M512.4,522.1c11.8-33.2-31.7-42.9-42.8-17.2-8.3,28.4,28.3,42,42.8,17.2Z"/>
    </g>
  </g>
  <g id="New_Layer_5">
    <path d="M784.7,660.3c-16.2,5.6-32.6,11-48.9,16.4-15-6.8-29.9-13.3-42.7-17.8.2,0,.4-.2.6-.3,15.9-6.5,32.2-11.2,48.4-16,13.3,5.4,27.2,10.8,41.5,16.3.3.5.7,1,1.1,1.5h0Z"/>
    <path d="M789.6,700.7c-8-3.2-16.7-7.1-25.8-11.2,8.2-2.8,16.5-5.5,24.8-8.1.2,6.8.5,13.7,1.1,19.3h0Z"/>
    <path d="M958.5,720.7c-19,7.3-37.2,13.9-55.7,20.4-10.7-3.9-21.7-7.8-32.7-11.7,2.6-1.4,5.2-2.7,7.9-3.9,10.9-3.3,37.2-14.4,37.2-14.4,2.2-1.1,4.5-2,6.9-2.8,9,3,17.8,6,26.4,8.9,3.3,1.2,6.7,2.3,10,3.5h0Z"/>
    <path d="M788.9,710.7c-1.8,7.2-6.5,13.1-13.4,17.4l-.5.6v.2c-5.6-2.6-11.2-5.3-16.8-8,10.3-3.4,20.5-6.8,30.7-10.3h0Z"/>
    <path d="M1032.1,795.1c-19.7,7.1-39.6,14.6-59.6,21.7-10.8-4.8-21.4-9.6-31.8-14.3,17.8-6.4,35.5-12.9,52.9-19.2,2.1-.7,4.1-1.4,6.1-2.2,10.8,4.7,21.6,9.3,32.4,14Z"/>
    <path d="M845.4,760.8c-7.2,2.4-14.5,4.9-22,7.4-6.2,2.1-12.5,4.1-18.7,6.2-14.4-6.9-28.6-14.2-42.9-21.8,11.9-3.6,23.9-7.1,35.6-10.6,9.2,4,17.8,10.5,28,10.7h1.2c6.2,2.8,12.4,5.5,18.7,8.2h.1Z"/>
    <path d="M400.4,784c-13,4.2-26.1,8.4-39.1,12.5-10-8.7-20-17.3-29.9-25.8,10.4-4,21-7.8,31.8-11.5,10.8,7.8,23.8,16.2,37.3,24.8h0Z"/>
    <path d="M261.1,705.2c-19.2,6.8-38.5,13.7-57.7,20.6-13.3-10.3-26.5-20.7-39.2-31.3,18.1-6.5,36.2-12.7,54.6-18.1,15.4,9.8,31.9,19.9,42.2,28.8h0Z"/>
    <path d="M331.3,770.7c-16.2,6.1-32,12.5-47.7,18.9-13.1-11.3-27-22.4-41-33.5,9.2-3.5,18.4-7,27.7-10.4,7.9-2.9,15.9-5.6,23.9-8.3,7,6.8,14.1,13.4,21,19.6,5.3,4.5,10.7,9.1,16.1,13.7Z"/>
    <path d="M351.1,850.3c-9.8,2.9-19.5,5.8-29.1,8.9-8.6,2.8-19.6,6.7-31.7,11-7.2-6.8-14.3-13.5-20.8-19.6,20.1-6.4,40.2-12.9,60.3-19.5,7,6.3,14.2,12.7,21.4,19.2h0Z"/>
    <path d="M56.4,732.5c-15.8,5-31.5,9.6-47.5,14-2.9-2.6-5.8-5.2-8.6-7.8v-37.6c6-1.5,12-2.8,18-4.1,11.7,12.5,24.6,24.2,38.2,35.5h0Z"/>
    <path d="M164.2,694.4c-16.9,6.1-33.8,12.4-50.8,18.7-.2,0-.3,0-.5.2-11.5-9.9-22.7-19.9-33.2-30h0c5.4-1.4,10.7-2.9,16.1-4.5,12.5-3.9,25.2-7.5,38.1-10.9h0c9.6,9,19.7,17.8,30.2,26.6h.1Z"/>
    <path d="M150.3,744.5c-18.5,6.5-37.1,12.9-55.6,19-12.8-10.3-25.8-20.5-38.3-31.1,18.8-6,37.6-12.4,56.5-19.3,12.2,10.5,24.7,20.9,37.3,31.3h0Z"/>
    <path d="M131.6,794.5c-16.5,5.3-33,10.5-49.5,15.4-12.1-10.2-24.1-20.5-36.2-30.9,15.2-4.5,30.4-9,45.2-14.2,1.2-.4,2.4-.8,3.6-1.2,11.1,9,22.1,18,32.5,27.2,1.5,1.2,2.9,2.5,4.4,3.7Z"/>
    <path d="M127.3,849.8c-4.3,1.3-8.5,2.6-12.9,3.9-21.2,6-42.3,12.9-63.7,19.2-15.6-13-31.4-27.2-45.9-41.9,26-6.3,51.7-13.5,77.3-21.1,5.1,4.3,10.1,8.6,15.2,12.9,8.2,7.5,18.8,16.9,30,27.1h0Z"/>
    <path d="M242.6,756.1c-16.9,6.5-33.8,12.9-51.2,18.6-1.1.4-2.2.7-3.2,1.1-12.4-10.4-25.2-20.8-37.9-31.3,17.7-6.2,35.4-12.5,53.1-18.8,13.1,10.2,26.3,20.3,39.2,30.4h0Z"/>
    <path d="M229.7,812c-18.3,7.5-36.8,14.9-55.6,21.9-13.5-13.4-27.4-26.6-42.4-39.4,18.9-6.1,37.7-12.3,56.5-18.7,8.8,7.4,17.5,14.8,25.8,22.1,5.2,4.4,10.4,9.2,15.7,14.1h0Z"/>
    <path d="M309.6,813.1c-19.5,6.5-39,13.1-58.5,19.7-7-7-14.3-14-21.5-20.8,18-7.4,35.9-15,54-22.4,4.6,4,9.1,7.9,13.5,12,4,3.7,8.2,7.6,12.5,11.5Z"/>
    <path d="M381.7,814.3c-17.3,5.6-34.6,11.3-52,16.9-6.9-6.2-13.7-12.2-20.1-18.1,5.7-1.9,11.4-3.8,17.1-5.6,11.5-3.6,23.1-7.2,34.6-10.9,6.8,5.9,13.6,11.8,20.4,17.7h0Z"/>
    <path d="M511.6,747.8c-15.9,5.2-31.8,10.4-47.8,15.6-11.1-8.3-22.1-16.7-32.8-25.2,15.3-4.4,30.6-8.7,45.9-12.9,11.3,7.4,22.9,14.9,34.6,22.5h0Z"/>
    <path d="M604.2,718.1c-6.3,1.9-12.6,3.9-18.8,5.8-9.4,3-18.7,6-28.1,9.1-11.2-6.9-22.2-13.9-32.8-20.8,1.9-.5,3.7-1,5.6-1.6,12.4-4.1,24.2-10.2,36.3-15,12.5,7.7,25.1,15.2,37.8,22.5Z"/>
    <path d="M694.9,689.8c-12.3,3.9-24.6,7.8-36.9,11.6-11.8-7-23.6-14.4-36.3-18.5,12.8-3.1,25.5-6.8,38-11.2,11.7,6.1,23.5,12.1,35.3,18h0Z"/>
    <path d="M686.2,716.5c-17.6,6.2-35.1,12.4-52.5,18.3-9.8-5.5-19.7-11-29.4-16.7,17.9-5.5,35.8-11.1,53.8-16.7,5.7,3.4,11.5,6.7,17.4,9.5,3.5,1.9,7.2,3.7,10.8,5.6h0Z"/>
    <path d="M586.3,750.7c-15.8,5.1-31.7,10-47.7,14.8-9.1-5.9-18.1-11.8-27.1-17.7,15.2-5,30.5-9.9,45.7-14.8,9.5,5.9,19.2,11.8,29,17.7h.1Z"/>
    <path d="M192.4,852.5c-14.5,4.8-28.9,9.4-43.5,13.9-1,.3-1.9.7-2.9,1-6.1-6-12.5-11.9-18.7-17.6,16-4.9,31.5-10.3,46.7-15.9,6.2,6.2,12.3,12.4,18.4,18.6Z"/>
    <path d="M487.3,780.8c-11.4,3.4-22.8,6.8-34.2,10.3-9.2,3-18.4,5.9-27.6,8.9-8.3-5.4-16.8-10.8-25.1-16,21.1-6.8,42.3-13.7,63.4-20.6,7.8,5.8,15.7,11.7,23.5,17.4h0Z"/>
    <path d="M565.9,783.4c-17.3,5.6-34.7,11.1-52,16.7-8.8-6.4-17.7-12.8-26.6-19.3,17.1-5.1,34.2-10.2,51.3-15.3,9.1,5.9,18.2,11.9,27.2,17.9h0Z"/>
    <path d="M664.5,751.6c-16.5,5.4-33,10.7-49.6,16-9.6-5.7-19.2-11.3-28.6-17,10.3-3.3,20.5-6.7,30.8-10.3,5.5-1.8,11-3.7,16.6-5.6,10.2,5.7,20.5,11.3,30.8,16.8h0Z"/>
    <path d="M763.8,689.5c-13.7,4.6-27.5,9.4-41.2,14.2-9.2-4.6-18.4-9.2-27.6-13.8,13.6-4.3,27.3-8.7,40.8-13.1,9.4,4.3,18.9,8.7,28,12.8h0Z"/>
    <path d="M758.2,721c-12.2,4-24.4,8.1-36.6,12.1-11.9-5.4-23.8-10.9-35.3-16.6,12.1-4.3,24.2-8.6,36.4-12.8,11.8,5.8,23.7,11.6,35.6,17.3h-.1Z"/>
    <path d="M646.4,786c-17.6,5-35.1,10.2-52.5,16-9.3-6.2-18.6-12.5-28.1-18.7,16.3-5.2,32.7-10.5,49-15.8,10.4,6.1,20.9,12.3,31.5,18.4h0Z"/>
    <path d="M761.8,752.6c-19.4,5.8-38.8,11.7-57.7,17.3-1.2.3-2.3.7-3.5,1-12.1-6.4-24.2-12.8-36.2-19.2,19-6.2,38.1-12.3,57-18.6,11.8,5.4,23.5,10.8,34.4,16.4,2,1,3.9,2.1,5.9,3.1h0Z"/>
    <path d="M1046.8,718.5c-16.7,5.3-31.8,10.9-46.6,16.5-13.9-4.7-27.8-9.5-41.6-14.3,13.4-5.1,27.1-10.6,41.6-16.5,15.6,4.8,31.1,9.6,46.7,14.3h0Z"/>
    <path d="M941.5,756.4c-.3,0-.7.2-1,.3-20.2,6.1-40.5,12.2-60.8,18.5h-.2c-11.4-4.7-22.8-9.5-34-14.3,20-6.8,38.8-13.2,57.4-19.7,6.2,2.3,12.3,4.6,18.3,6.9,6.8,2.8,13.6,5.6,20.4,8.4h-.1Z"/>
    <path d="M1059.6,755c-19.1,8.8-37.4,17.9-59.9,26.2-19.4-8.4-38.7-16.7-58.2-24.8,21.2-6.8,39.8-14.1,58.6-21.3,19.8,6.7,39.6,13.4,59.4,19.9h.1Z"/>
    <path d="M1134.9,779.6c-24,9.2-47,18.8-71.8,28.7h0c-10.4-4.3-20.7-8.8-31-13.2,2.6-1,5.3-1.9,7.9-2.8,21.8-7.6,39.4-16.3,57.3-24.9h0c12.5,4.1,25.1,8.2,37.6,12.2Z"/>
    <path d="M46,779c-15.3,4.5-30.6,8.9-45.7,13.8v-44c2.9-.8,5.8-1.5,8.6-2.3,12.2,10.9,24.6,21.8,37.1,32.5Z"/>
    <path d="M74.6,893.2c-10.2,3.2-20.3,5.9-29.8,7.7H.3v-14.8c17-3.6,33.8-8.2,50.5-13.2.4.3.8.7,1.2,1,7.6,6.3,15,12.9,22.6,19.2h0Z"/>
    <path d="M269.5,850.7c-20.1,6.5-40.3,12.9-60.5,19.2-5.6-5.8-11.1-11.6-16.6-17.3,19.6-6.5,39.2-13.1,58.8-19.7,3.8,3.7,7.5,7.5,11.2,11,2.3,2.2,4.7,4.5,7.1,6.8Z"/>
    <path d="M162.4,884.3c-16.9,5.7-32.9,11.5-49.3,16.6h-28.9c-3.3-2.5-6.5-5.1-9.7-7.7,24.8-7.7,50.3-18.3,71.4-25.7,5.8,5.6,11.3,11.3,16.4,16.9h.1Z"/>
    <path d="M230.3,891.9c-9.7,3.4-18.8,6.5-26.5,9h-27.3c-4-5.3-8.7-10.9-13.9-16.6,1.2-.4,2.3-.8,3.5-1.2,14.4-4.4,28.7-8.8,43.1-13.3,7,7.3,14.1,14.7,21.2,22.1h-.1Z"/>
    <path d="M317,895.9c-5.1,1.6-10.3,3.1-15.3,4.5l-.5.5h-62.1c-2.9-2.9-5.8-5.9-8.6-8.8v-.2c19.1-6.7,40.8-14.8,59.9-21.6h0c9,8.5,18,17.1,26,25,.2.2.4.4.6.6Z"/>
    <path d="M431.6,857c-17.8,6.2-35.5,12.4-53.2,18.3-8.8-8.2-18-16.6-27.3-25,18-5.3,36.2-10.4,54.2-15.7,8.7,7.5,17.5,15,26.3,22.4Z"/>
    <path d="M404.6,900.9h-82.6c-1.6-1.6-3.3-3.3-5.1-5-.2-.2-.4-.4-.6-.6,20.3-6.1,41.1-12.9,62.1-20l.5.5c9.2,8.6,17.9,17,25.7,25.1Z"/>
    <path d="M454.2,819.4c-2.9,1-5.9,1.9-8.8,2.9-13.2,4.3-26.6,8.4-40.1,12.4-7.9-6.8-15.7-13.6-23.6-20.4,14.6-4.7,29.2-9.5,43.8-14.2,10.1,6.5,19.9,13,28.7,19.4h0Z"/>
    <path d="M517.7,869.9c-15.7,6.4-31.8,13.2-47.3,19.2-13-10.5-26-21.2-38.8-32,16.4-5.7,32.8-11.5,49.1-17.2,12.3,10,24.5,20.4,37.1,30.1h-.1Z"/>
    <path d="M485.3,900.9h-50.2c10.9-2.9,22.9-7.1,35.2-11.8,5,4,9.9,8,14.9,11.8h.1Z"/>
    <path d="M540.7,819.3c-19.8,6.6-39.8,13.5-60,20.5-5-4.1-10.1-8.1-15.2-12.1-3.5-2.7-7.2-5.5-11.2-8.4,19.9-6.5,39.8-12.9,59.7-19.3,9,6.5,17.9,12.9,26.8,19.2h0Z"/>
    <path d="M633.8,829.3c-18.1,5.9-36.2,11.8-54.3,17.8-11.9-8.7-23.5-17-34.3-24.5-1.5-1.1-3.1-2.2-4.6-3.3,15.1-5,30-9.8,44.6-14.3,2.9-1,5.8-2,8.7-3,12.6,8.5,25,16.9,37.1,25.3.9.7,1.9,1.3,2.8,2Z"/>
    <path d="M606.2,867.3c-20.2,7.6-42.6,14.6-63.2,21.1-9.5-5.9-16.4-11.6-25.3-18.4,16.5-6.8,32.5-13.2,46.7-17.7,5-1.7,10.1-3.4,15.1-5.1,8.9,6.5,17.8,13.2,26.7,20.1h0Z"/>
    <path d="M704.3,878.3c-21.1,5.7-44.8,11.8-64.5,16.7-10.5-9.3-22-18.6-33.7-27.7,7.1-2.7,14.2-5.3,21.4-7.8,11.1-3.6,22.2-7.2,33.4-10.8,12.5,8.9,25.1,17.6,38.9,26.6,1.5.9,2.9,1.9,4.4,3h0Z"/>
    <path d="M562.1,900.9h-59.3c5.5-1.5,36.8-11.5,40.2-12.6.9.5,12.6,8.1,19.1,12.6Z"/>
    <path d="M646.6,900.9h-31.6c6.9-1.6,15.5-3.7,25-6,2.3,2,4.5,4,6.7,6h-.1Z"/>
    <path d="M830.7,838.7c-20.5,6.3-40.8,12.7-61.1,19.5-16.1-9.7-32.5-19.5-49.1-29.1,18.5-6.2,37-12.5,55.5-18.8,3.9,2.1,7.9,4.1,11.8,6.2,14.5,7.3,28.8,14.8,42.9,22.3h0Z"/>
    <path d="M940.6,802.5c-12.9,4.6-25.9,9.2-38.9,13.7-11.1-5.6-21.7-10.3-31.5-13.8-11.3-4.3-22.4-8.7-33.3-13.4,14.2-4.8,28.5-9.4,42.8-13.8,19.1,8.6,39.6,17.8,60.9,27.4h0Z"/>
    <path d="M734.3,900.9h-27.5c5.7-2.2,11.8-4.4,18.2-6.6,3.2,2.4,6.3,4.7,9.3,6.6Z"/>
    <path d="M891,871.3c-22.1,7.9-44.1,15.4-65.2,22.2-10.4-6.8-21.1-13.6-32-20.4,1.9-.6,3.8-1.1,5.5-1.7,19.6-5.8,38.9-12,58.2-18.3,11.2,6.1,22.3,12.1,33.5,18.2Z"/>
    <path d="M837.1,900.9h-35.5c7.9-2.3,16-4.8,24.2-7.4,3.8,2.5,7.5,5,11.3,7.4Z"/>
    <path d="M947,900.9h-45.5c8.4-3.6,16.8-7.1,25.3-10.5,6.7,3.5,13.4,7,20.2,10.5Z"/>
    <path d="M989.2,866.1c-21,7.8-41.9,15.9-62.4,24.3-12-6.3-23.9-12.7-35.7-19.1,22.2-7.9,44.5-16.1,66.1-24,10.7,6.3,21.4,12.7,32,18.9h0Z"/>
    <path d="M1104,825c-21,7.4-42.2,14.8-63.3,22.3-12.5-5.6-25-11.2-37.5-16.8,6.7-2.4,13.3-4.7,19.7-7,14.2-5.1,27.5-10.2,40.2-15.3h0c13.5,5.7,27.1,11.3,40.8,16.7h0Z"/>
    <path d="M1057.8,900.9h-79.4c11.4-4.3,28.7-10.8,43.8-16.4,12.4,6.5,24.3,12.1,35.6,16.4Z"/>
    <path d="M1374.3,806.8c-27.9,10.3-48,18.9-70.8,27.2-22.5-7.4-45-14.6-67.6-21.9,21.2-8.6,43.1-17,68.5-24.5,23.4,6,46.8,12.4,70,19.3h0Z"/>
    <path d="M1387.1,862.2c-9.1,4.1-19.1,8.1-30.9,12.1-19.9,7.3-40.4,12.8-58.2,24.1-27.6-8.7-58.5-20.3-88.6-32.1,20.9-7.8,39.8-14.6,52.8-18.8,15.7-4.6,28.9-9,41.3-13.5,11.7,3.8,23.4,7.7,35.1,11.5,16.3,5.1,32.4,10.7,48.6,16.6h-.1Z"/>
    <path d="M1209.4,866.3c-21.7,8.1-45.6,17.3-67.5,25.9h0c-19.5-8.6-40.1-17.7-61.1-27.1,16.9-5.2,33.4-10.2,51.5-15.5,6.9-1.9,13.6-3.9,20-5.9h0c18,7.1,37.3,14.9,57.1,22.6Z"/>
    <path d="M1161.5,900.9h-41.3c6.9-2.8,14.2-5.7,21.7-8.6h0c6.7,2.9,13.2,5.8,19.6,8.6h0Z"/>
    <path d="M1527.8,853.7c-23.1,7.7-49.7,21.2-74.9,33.6-21.9-8.5-43.8-17.1-65.7-25.2,22.3-9.9,39.8-20.1,67.8-31.1h0c18.4,5.3,36.8,10.8,55,16.9,6,1.8,11.9,3.8,17.8,5.8h0Z"/>
    <path d="M1488.4,900.9h-64.1c9.1-4.1,18.7-8.8,28.5-13.6,11.8,4.6,23.7,9.2,35.6,13.6Z"/>
    <path d="M1600.3,878.4v22.5h-47.8c12.3-7.4,18.9-14.4,37.3-25.7h0c3.5,1.1,7,2.2,10.5,3.2Z"/>
    <path d="M1235.9,812.1c-27,10.9-52.9,22-83.5,31.7h0c-6.9-2.7-13.7-5.4-20.1-7.8-9.5-3.6-18.9-7.2-28.2-10.9,27.6-9.7,55-19.3,81.9-29h0c16.7,5.3,33.3,10.7,50,16.1h-.1Z"/>
    <path d="M1080.8,865.2c-9.2,2.8-18.6,5.7-28.5,8.6-4.4,1.3-16.4,5.7-30,10.7-10.8-5.6-21.9-11.9-33.1-18.4,17.1-6.4,34.3-12.6,51.5-18.8,13.5,6,26.9,12,40.1,17.9Z"/>
    <path d="M1003.2,830.6c-14.8,5.3-30.2,10.9-46,16.7-9.5-5.6-18.9-11.1-28.1-16.3,14.5-4.2,29-9.1,43.4-14.2,10.2,4.6,20.5,9.2,30.8,13.8h-.1Z"/>
    <path d="M793.9,873.1c-18.3,5.5-45.2,13.1-69,21.2-6.9-5.3-13.9-11.3-20.6-16.1,19.7-5.3,37.2-10.4,47.3-14,6-2.1,11.9-4.1,17.9-6.2,8.2,5,16.3,9.9,24.3,14.9v.2h0Z"/>
    <path d="M929.1,830.9c-1.8.5-3.6,1-5.4,1.5-22.3,6.5-44.2,13.6-66.1,20.6-8.9-4.8-17.9-9.6-26.9-14.4,8.3-2.6,16.7-5.1,25-7.6,15.3-4.6,30.6-9.6,46-14.9,8.9,4.5,18,9.5,27.4,14.7h0Z"/>
    <path d="M720.5,829c-19.8,6.6-39.7,13.2-59.5,19.7-8.9-6.3-17.8-12.8-27.2-19.3,18.7-6.1,37.4-12.1,56.2-18.1h0c10.2,5.9,20.4,11.8,30.5,17.8h0Z"/>
    <path d="M744.6,793.8c-18.2,5.8-36.4,11.6-54.6,17.5h0c-14.5-8.4-29.1-16.8-43.6-25.2,18-5.1,36.1-10.1,54.2-15.2,14.6,7.7,29.2,15.3,43.9,23h0Z"/>
    <path d="M836.9,789c-6.7,2.2-13.4,4.6-20,6.9-13.6,4.8-27.2,9.6-40.9,14.3-10.5-5.5-21-10.9-31.4-16.4,20.1-6.4,40.1-12.9,60.1-19.5,10.6,5.1,21.3,10,32.1,14.6h.1Z"/>
  </g>
  <path class="st0" d="M322.1,900.9h-20.9l.5-.5c5.1-1.5,10.2-3,15.3-4.5,1.8,1.7,3.5,3.4,5.1,5Z"/>
  <path d="M1145.7,745.9c-18.1,6.8-33.3,14.1-48.4,21.4h0c-12.6-4.1-25.1-8.2-37.7-12.4,14.6-6.7,29.8-13.2,47.6-18.9,8,2.2,16,4.4,24.1,6.5,4.8,1.2,9.6,2.2,14.4,3.3h0Z"/>
  <path d="M1250.8,771.7c-21.2,8.2-42.8,16.3-64.9,24.3h0c-17-5.5-34-10.9-51-16.4,20.3-7.7,41.4-15,65.1-21.7,6,1.4,12,2.8,17.9,4.4,11,2.9,22,6.1,32.8,9.5h0Z"/>
  <path class="st3" d="M324,727.7c-9.8,3.3-19.8,6.4-29.7,9.7-10.6-10.3-21.2-20.9-31.3-30.6-.6-.5-1.2-1.1-1.9-1.7,7.8-2.8,15.6-5.5,23.4-8.2,2.3,2,4.7,3.9,7.2,5.9,10.3,8.2,21.3,16.5,32.2,24.9h0Z"/>
  <path class="st3" d="M253.4,667.4c-11.6,2.6-23.1,5.6-34.5,8.9-11.6-7.4-22.6-14.7-30-21.3,14.7-3.1,29.4-5.9,43.9-8.4,7.2,7,13.9,14,20.6,20.8Z"/>
  <g id="New_Layer_51">
    <path id="STROKE_246f3796-9bfa-4487-ae88-2735d40a47a8" class="st2" d="M919.6,707.5c9.7,3.3,19.4,6.5,28.9,9.7,128.4,45.2,260.8,85.5,390,128.3,50.5,15.8,99.9,36.8,149.9,55.4"/>
    <path id="STROKE_246f3796-9bfa-4487-ae88-2735d40a47a81" class="st2" d="M742.1,642.6c13.2,5.4,26.7,10.8,40.4,16.1"/>
    <path id="STROKE_36098f95-6819-4b5f-8c1e-315edf760d1c" class="st2" d="M870.1,729.4c17.4,6.1,34.5,12.2,50.9,18.5,70.3,28.5,138.4,60.7,211.1,87.9,51,19.6,119.5,48.8,173.6,64.9"/>
    <path id="STROKE_36098f95-6819-4b5f-8c1e-315edf760d1c1" class="st2" d="M693.1,658.9c29.2,9.3,66.4,29.6,96.5,41.8"/>
    <path id="STROKE_21450058-e51c-45e9-a284-e8ed65c096c9" class="st2" d="M826.7,752.6c17.2,7.6,34.7,15,52.8,22.4,83.9,37.7,195.8,88,282,125.8"/>
    <path id="STROKE_21450058-e51c-45e9-a284-e8ed65c096c91" class="st2" d="M659.7,671.8c39.3,20.4,77,39.3,115.2,57.3"/>
    <path id="STROKE_99991d10-d4f9-4743-b422-e38b03998751" class="st2" d="M621.7,682.9c18.9,6.1,35.6,19.4,53.7,28,25.7,13.7,55,25.4,80.6,38.6,37.2,20,74,37.8,114.2,52.9,54.2,19,130.2,76.6,187.6,98.5"/>
    <path id="STROKE_22633cf9-5261-428d-897d-939bcef2c3e1" class="st2" d="M566.4,695.6c73.9,46,143.9,80,221.4,120.8,54.8,27.6,105.6,57.1,159.5,84.7"/>
    <path id="STROKE_8882d307-ece0-492f-8d66-28a69967ecf9" class="st2" d="M524.5,712.2c95.9,62.7,216.5,124.4,312.6,188.7"/>
    <path id="STROKE_50b8cb13-2b3d-40a5-b041-f69b0c90aa6b" class="st2" d="M476.9,725.3c51.3,33.4,103.8,67.1,154.1,102,23.5,16.6,44.2,31.9,68.9,48,10.9,6.8,23,18.5,34.3,25.6"/>
    <path id="STROKE_a8cc82a7-719b-4e74-a3f4-47aad466e9c0" class="st2" d="M431,738.2c37.7,30,75.1,56.3,114.2,84.4,34.8,24.6,70.2,47.9,101.3,78.3"/>
    <path id="STROKE_7044a25e-5589-48bc-8ec6-b1f3ee6260ab" class="st2" d="M363.1,759.2c29.2,20.9,74,46.4,102.3,68.5,27.7,21.2,66.6,55.1,96.7,73.2"/>
    <path class="st2" d="M485.3,900.9c-5-3.9-9.9-7.8-14.9-11.8-13-10.5-26-21.2-38.8-32.1-8.8-7.4-17.5-14.9-26.3-22.4-7.9-6.8-15.7-13.6-23.6-20.4-6.8-5.9-13.6-11.8-20.4-17.7-10-8.7-20-17.3-29.9-25.8"/>
    <path class="st2" d="M283.7,789.6c4.6,3.9,9.1,7.9,13.5,11.9,4,3.7,8.2,7.6,12.5,11.5,6.5,5.9,13.2,11.9,20.1,18.1,7,6.3,14.2,12.7,21.4,19.2,9.3,8.3,18.5,16.7,27.3,25,9.4,8.8,18.2,17.4,26.2,25.6h.1"/>
    <path class="st2" d="M322.1,900.9c-.2-.2-5.5-5.4-5.7-5.6-8-7.8-17.1-16.4-26-24.9h0c-7.2-6.8-14.3-13.5-20.8-19.7-2.5-2.4-4.9-4.6-7.2-6.8-3.6-3.6-7.4-7.3-11.2-11-7-7-14.3-14-21.5-20.8"/>
    <path class="st2" d="M174,833.9c6.2,6.2,12.3,12.4,18.4,18.6,5.6,5.7,11.1,11.5,16.7,17.3,7,7.3,14.1,14.7,21.2,22.1,2.9,3,5.8,6,8.8,9"/>
    <path class="st2" d="M127.3,849.8c6.2,5.7,12.5,11.6,18.7,17.6,5.8,5.6,11.3,11.3,16.4,16.9,5.2,5.7,10,11.3,13.9,16.6"/>
    <path class="st2" d="M74.6,893.2c3.2,2.6,6.4,5.2,9.6,7.7"/>
    <path class="st2" d="M363.1,759.2c-10.8,3.7-21.3,7.5-31.8,11.5l-37.1-33.3s-32.3-30.2-34.2-31.9c-6.8-6.3-42-28.5-42-28.5,0,0-30.7-21.6-30.8-21.7"/>
    <path class="st2" d="M134,667.8l30.2,26.6,39.2,31.3,39.2,30.4,41.1,33.5c-18.1,7.4-36,15-54,22.4l-41.5-36.2-37.9-31.3"/>
    <path class="st2" d="M18.3,697l38.2,35.5,38.3,31.1,36.9,30.9,42.4,39.4c-15.2,5.6-30.8,11-46.7,15.9l-45.2-40-36.2-30.9-37.1-32.5-8.6-7.8"/>
    <path class="st2" d="M74.6,893.2c-3.8.7-26.2,7.3-29.8,7.7"/>
    <path class="st2" d="M.3,826.5l4.6,4.5,45.9,41.9,23.8,20.2c24.8-7.7,50.3-18.3,71.4-25.7,1-.4,2-.7,2.9-1,14.5-4.5,29-9.2,43.5-13.9,19.6-6.5,39.2-13.1,58.8-19.7,19.5-6.6,38.9-13.2,58.5-19.7,5.7-1.9,11.4-3.8,17.1-5.6,11.5-3.6,23.1-7.2,34.6-10.9,13.1-4.1,26.1-8.3,39.1-12.5,21.1-6.8,42.3-13.7,63.4-20.6,15.9-5.2,31.9-10.4,47.8-15.6,15.2-5,30.5-9.9,45.7-14.8,9.4-3,18.8-6.1,28.1-9.1,6.3-1.9,12.5-3.9,18.8-5.8,17.9-5.5,35.8-11.1,53.8-16.7,12.3-3.8,24.6-7.7,36.9-11.6,13.6-4.3,27.3-8.7,40.8-13.1,16.4-5.4,32.7-10.8,48.9-16.4.5-.2.9-.3,1.4-.5"/>
    <path id="STROKE_5bb51eaf-13c3-4877-8ac4-08d34ca5d5d0" class="st2" d="M788.5,681.3c-61.4,19.2-110.4,38.7-171.4,59-54.1,18.8-109.2,34-164,50.8-95.9,30.8-190.8,62.6-287.1,92-29.5,9.8-25.6,10-52.8,17.8"/>
    <path id="STROKE_86201ffd-8aac-4011-8282-00ebd10d0c2d" class="st2" d="M788.9,710.7c-118.1,39.8-225,73-343.5,111.5-40.4,13.3-82.9,24-123.5,37-31,10.1-87.1,32.3-118.3,41.6"/>
    <path class="st2" d="M301.2,900.9c20.3-6.2,56.9-18,77.8-25.1,17.6-6,35.3-12.2,53-18.5,16.3-5.8,32.7-11.6,48.9-17.3h0c20.1-7.1,40.1-14.1,59.8-20.7,9.2-3.1,18.3-6.1,27.4-8.9.2,0,.4,0,.6-.2,2.7-.8,5.3-1.7,8-2.5,2.9-.9,5.7-1.8,8.6-2.6,2.9-1,5.8-2,8.7-3,2.2-.7,4.4-1.5,6.5-2.2,6-2,12-3.8,18-5.7.6-.2,1.1-.3,1.6-.5,2.2-.7,4.4-1.3,6.6-2,6.6-2,13.2-3.9,19.7-5.7,2.3-.6,4.5-1.3,6.8-1.9,6.5-1.9,13.1-3.7,19.6-5.5,7-1.9,14-3.9,21-5.9,2.3-.6,4.5-1.3,6.8-1.9,1.2-.3,2.3-.6,3.5-1,2.5-.7,4.9-1.5,7.4-2.2,4.3-1.3,8.7-2.6,13-3.9.3,0,.7-.2,1-.3,4.5-1.3,9-2.7,13.4-4,2.3-.7,4.7-1.4,7-2.1,2.4-.7,4.7-1.4,7.1-2.1,2.9-.9,5.8-1.7,8.7-2.6h0c6.5-1.9,13.1-3.9,19.6-5.8,5.4-1.6,10.7-3.2,16.1-4.8"/>
    <path id="STROKE_a398b723-0949-4c10-9884-79f3cd99bd97" class="st2" d="M1000.4,704.1c-63,25.9-112.6,42.3-177,64.1-86,28.5-173.2,55.1-259,84-38.4,12.2-90.3,38.1-129.3,48.7"/>
    <path id="STROKE_fdbb3988-bd24-4961-9938-5b7cb80e174b" class="st2" d="M1046.9,718.5c-38.4,12.1-68,25.9-106.4,38.2-41.2,12.5-83.1,24.7-123.6,39.2-62.6,22.1-126.1,43.3-189.3,63.6-31,10.8-93.1,32.4-124.7,41.4"/>
    <path id="STROKE_c815a4f3-5c01-4851-9909-214fc3ef3779" class="st2" d="M1108.7,735.6c-44.1,13.8-71.4,32.6-115.2,47.7-45.1,16.3-91.8,33.8-137.8,47.7-34.9,10.6-69.6,21.2-104.1,33.3-28.5,10-107.1,30-136.7,36.6"/>
    <path id="STROKE_4de6cc3c-e5eb-49a2-811a-3281dd2792a1" class="st2" d="M1147.1,745.4c-40.4,14.9-66.5,32.7-107.1,46.9-38.1,13.5-77.2,29.2-116.3,40.2-41.9,12.2-82.5,26.5-124.3,38.9-28.2,8.6-70.4,21.5-92.6,29.5"/>
    <path id="STROKE_79bd9632-e14f-4127-97f0-b752dc5fba07" class="st2" d="M1201.5,757.4c-67,18.8-113.1,42.5-178.6,66.2-66.8,23.2-151,56.5-221.2,77.3"/>
    <path id="STROKE_dc7c54ab-0ddc-4fdc-af08-ede76e13d5ba" class="st2" d="M1251.6,771.4c-111.1,43.3-236.5,81.2-350.1,129.5"/>
    <path id="STROKE_4affdbb2-5d8c-46c8-b049-e40451129d2f" class="st2" d="M1307.9,786.5c-66.5,19.2-97.6,40.5-164.5,59-28,8.2-52.1,15.9-80,24.1-11.4,3.5-73.6,27-84.8,31.2"/>
    <path id="STROKE_54e89a1e-047d-47b1-bb8b-ffadce104dda" class="st2" d="M1376,806.2c-44.2,16.2-68.8,28.2-113.9,41.3-30.9,10.2-95.5,34.7-141.9,53.4"/>
    <path id="STROKE_d00c842d-a94e-4df8-985e-35fcce49766d" class="st2" d="M1456,830.6c-40.3,15.8-58.8,29.6-99.8,43.7-21.3,7.8-43.3,13.6-62,26.6"/>
    <path id="STROKE_469babfe-c455-4092-8d4b-ba985e5189c1" class="st2" d="M1529.2,853.2c-32.3,10.5-71.9,32.9-104.8,47.7"/>
    <path id="STROKE_aa04f7ac-baa4-43fe-a894-e130dbdea64c" class="st2" d="M1591.1,874.4c-19.4,11.8-26,18.9-38.6,26.5"/>
    <path id="STROKE_7547e8f8-10ce-474f-8f8e-391a83570daf1" class="st2" d="M253.5,645.8"/>
    <path id="STROKE_49d642ff-88e3-4f21-83c0-9fe1b9bfe53d" class="st2" d="M376.7,763.8"/>
    <path id="STROKE_49d642ff-88e3-4f21-83c0-9fe1b9bfe53d1" class="st2" d="M231.4,641.9"/>
    <path id="STROKE_b434cbd2-d19a-4a76-a7b4-753fd30dc311" class="st2" d="M790.1,636"/>
    <path id="STROKE_b434cbd2-d19a-4a76-a7b4-753fd30dc3111" class="st2" d="M374.2,765.4"/>
  </g>
  <polyline class="st2" points=".3 748.8 8.9 746.5 56.4 732.5 113 713.2 164.2 694.4 219 677.3 253.4 668.7"/>
  <polyline class="st2" points=".3 792.8 46 779 94.7 763.6 147.6 745.5 201.3 726.4 258.6 705 281.3 695.9"/>
  <polyline class="st2" points=".3 886.1 50.8 872.9 127.3 849.8"/>
  <polyline class="st2" points="174 833.9 229.7 812 283.7 789.6 331.3 770.7"/>
  <path class="st2" d="M978.6,900.8"/>
  <g id="New_Layer_8">
    <path id="STROKE_f6f2a90e-0179-424d-8bad-72eb9375a814" class="st4" d="M867.1,320.5c-1.3,1.8-2.2,3.4-2.7,4.7-.5,1.3-1,2.7-1.4,4.1s-.8,3.2-1.2,5.3c-.4,2.1-.7,4-1,5.7s-.5,3.4-.6,5.1c-.2,1.8-.2,3.5-.2,5.2s0,3.3.2,4.8c0,1.5,0,2.9,0,4.3s0,3.5.2,6.4c0,2.9.2,5.2.3,7s.3,4,.8,6.6c.4,2.6,1.1,5.2,1.9,7.7.8,2.6,1.6,4.5,2.3,5.9s1.8,3.1,3.2,5.1c1.5,2,2.4,3.3,2.7,3.7.3.4.6.7.7.8,0,.1.6.7,1.4,1.5.9.9,1.8,1.7,2.7,2.5,1,.8,1.8,1.4,2.4,1.8.7.5,1.3.9,2.1,1.4.7.5,1.3.9,1.8,1.1.5.3,1.2.7,2.1,1.3.9.6,2.2,1.1,3.8,1.6s3,.9,4.2,1.1,2,.3,2.4.3,1.2,0,2.2-.1c1.1,0,2.1-.2,3.1-.3,1-.2,2.3-.6,4-1.2,1.6-.6,2.9-1.2,3.9-1.6,1-.5,1.9-1,2.9-1.6.9-.6,2-1.3,3.2-2.1,1.2-.8,2.3-1.6,3.2-2.3.9-.7,1.7-1.2,2.3-1.7,1.2-1,2.1-1.8,2.7-2.4.6-.6,1.2-1.4,1.8-2.2.6-.8,1.2-1.6,1.6-2.4.5-.8.9-1.6,1.4-2.5.4-.9.8-1.6,1.1-2.2s.6-1.3.9-2.1c.3-.8.7-2.2,1.1-4.1.4-2,.7-3.6,1-5.1.3-1.4.4-2.3.5-2.7,0-.4.2-1,.3-1.9.2-.9.4-2.2.7-3.8s.5-3.1.8-4.6c.2-1.4.4-3.1.6-5,.2-1.9.3-3.5.3-5v-4c0-1.2,0-2.7-.2-4.3,0-1.6-.2-3.5-.5-5.7-.2-2.2-.4-3.9-.6-5.1-.2-1.2-.4-2.7-.8-4.6-.4-1.9-.7-3.7-1.2-5.3-.4-1.6-1-3.4-1.7-5.2-.7-1.8-1.7-3.9-2.9-6.2-1.2-2.3-2.4-4.2-3.6-5.8-1.1-1.5-2-2.6-2.7-3.2-.6-.6-1.2-1.2-1.8-1.6-.5-.4-1.2-.9-1.9-1.3s-1.7-1-3-1.6-2.4-1.1-3.5-1.6c-1.1-.4-2.1-.8-3.2-1.2-1.1-.4-2.4-.7-3.8-1-1.5-.3-2.5-.5-3.1-.6-.6,0-1.3-.2-2.1-.3-.8-.1-1.9-.1-3.1-.1h-1.9s-.4,0-.9.1c-.6.1-1.4.3-2.4.6-1,.3-1.8.6-2.2.7l-2.4,1.2c-1.2.6-1.9,1-2.1,1.1-.2.1-.5.3-.9.6-.4.3-.9.7-1.5,1-.6.4-1.2.9-2.1,1.6-.8.7-1.5,1.2-1.9,1.6-.5.4-8.2,9.8-9.5,11.7l-.3.4Z"/>
  </g>
</svg>