<?xml version="1.0" encoding="UTF-8"?>
<svg id="Ebene_1" xmlns="http://www.w3.org/2000/svg" version="1.1" viewBox="0 0 1600 900">
  <!-- Generator: Adobe Illustrator 29.1.0, SVG Export Plug-In . SVG Version: 2.1.0 Build 142)  -->
  <defs>
    <style>
      .st0, .st1, .st2 {
        fill: none;
      }

      .st1, .st3, .st4, .st2, .st5, .st6, .st7 {
        stroke: #000;
        stroke-linecap: round;
        stroke-linejoin: round;
      }

      .st1, .st4, .st5, .st7 {
        stroke-width: 3px;
      }

      .st3, .st8 {
        fill: #fff;
      }

      .st4 {
        fill: #2323ff;
      }

      .st5 {
        fill: aqua;
      }

      .st6 {
        fill: #ff0;
      }

      .st7 {
        fill: green;
      }
    </style>
  </defs>
  <g>
    <path id="STROKE_6031ec8b-01cc-4e4b-8d24-2be38e2d8f56" class="st2" d="M645.4,372.5c10.1,6,20.6,11.9,30.9,17.7,15.6,9.8,30.9,19.6,46.6,29.3,4.6,2.9,15.7,8,16.9,9.5"/>
    <path class="st8" d="M930.7,545.8c-.3.3-.6.6-.9,1.2-7.4-5.9-12.6-9.4-19.8-13.4-4-2.2-7.5-5-10.8-7.6,0,0-.2,0-.3-.2h0v-.2c-5.3-4.2-8.9-6.2-14.1-9.1-2.3-1.3-4.4-2.8-6.4-4.4-.6-.5-1.1-.9-1.7-1.3h0v-.2c-4.1-3.2-7.5-4.1-11.4-6.3-1.7-.9-3.3-2.1-4.8-3.3s-.9-.7-1.4-1.1c.7-1,2.4-1.3,3.7-1.2,1.6,0,3.2,0,4.7.2,4.4.8,5.2-1.8,5.7-5.6.3-2.8,1.4-8.2,1.4-8.2,2.8.6,6.4,1.5,9.9,2.4,6.6,1.7,12.9,3.5,12.9,3.5,10.5,2.2,30,7.6,30,7.6"/>
    <path class="st6" d="M792.2,457.4c0,.1.3.3.4.5,0,.3,0,.5-.2.7s-.3.3-.5.3h-.4c-.2-.1-.4-.5-.5-.7"/>
    <path id="STROKE_da41113a-9994-4f39-842c-dda22ac45b0e" class="st2" d="M739.7,428.9h8.7c4.5-.3,9-.8,13.5-.7,6.3,0,12.5,1.2,18.8,1.1,7.9-.6,16,.2,23.9,0,8.5.1,17.4,0,25.9-.3,5.6-.4,14.6-.8,20.2-.1"/>
    <path id="STROKE_5b5ad666-49bc-40df-8f70-1cd42237293e" class="st2" d="M850.7,428.9c.2,11.1.7,18.9,1.2,30.1,0,14.3-.3,25.2-1.2,39.4"/>
    <path id="STROKE_31aba2ec-5a91-4a64-9b31-7144774a86de" class="st2" d="M847.9,498.5c2.6.1.6,0,2.8,0"/>
    <path id="STROKE_31aba2ec-5a91-4a64-9b31-7144774a86de1" class="st2" d="M739.7,498.5c13.5-.7,23.1.2,36.7,0"/>
    <path id="STROKE_1ed6a108-c9b3-4dbf-be97-7987f2c2c2ab" class="st2" d="M739.7,428.9c0,4.2.6,9.2.6,13.5,0,11.8.2,23.7.2,35.5s-.8,14-.8,20.6"/>
    <path id="STROKE_7c0ef958-405c-4e67-acef-c816253e69f41" class="st2" d="M662.3,548.2c-3.4,2.1-13.2,6.4-16.5,8.6"/>
    <path id="STROKE_7c0ef958-405c-4e67-acef-c816253e69f42" class="st2" d="M739.7,498.5c-.5.3-1,.7-1.5,1"/>
    <path id="STROKE_4f2358d6-7f7a-4e00-8ae1-6ebb16d7fda61" class="st2" d="M933.4,549c2.7,1.6,5.5,3.2,8.4,4.9,2.4,1.5,4.7,3.1,7.1,4.6"/>
    <path id="STROKE_4f2358d6-7f7a-4e00-8ae1-6ebb16d7fda62" class="st2" d="M901.3,528.3l24.8,16.3c1.3.8,2.3,1.6,3.5,2.3"/>
    <path id="STROKE_4f2358d6-7f7a-4e00-8ae1-6ebb16d7fda63" class="st2" d="M878.3,513.7l14,8.8,5.9,3.7"/>
    <path id="STROKE_4f2358d6-7f7a-4e00-8ae1-6ebb16d7fda64" class="st2" d="M860.2,504.2c.2,0,.3.2.5.3,4.3,2.7,8.8,5.1,13.4,7.5"/>
    <path id="STROKE_4f2358d6-7f7a-4e00-8ae1-6ebb16d7fda65" class="st2" d="M850.7,498.5c3.1,2.3,4.9,3.2,7.7,4.7"/>
    <path id="STROKE_aa5bbd3e-b2d1-4ccf-b134-896ec2b31f7d" class="st2" d="M850.7,428.9c11.8-6.7,24.1-13.1,36.1-19.6,13.9-7.5,27.6-15.4,41.3-23.3,6.2-4,12.4-7.8,18.7-11.6"/>
    <path id="STROKE_6fd54d03-8f42-4b8f-9218-79b73dab31e1" class="st2" d="M947.6,544.7c-5.6.5-11.5-.8-16.9.9-2.8,1.9-1.7,13.8-1.5,15.2h0c.2,2,.6,4.1.6,6.1-.4,13.9-2.5,13.3,12.2,13.3s3.4.4,7.1.3"/>
    <path id="STROKE_963e31de-6e59-4607-94f0-7db70527b855" class="st2" d="M948.1,548.6h-5.4c-12.1,0-10.5-2-10.5,10.3,0,0,.5,6.9.6,11.5h0c.2,2-.6,4.1,0,6,1.5.4,3.3,0,4.9,0s4.1.5,6.1.5h4.8"/>
    <path id="STROKE_085025f6-cf36-49b5-a206-b96ff1b42cbb" class="st2" d="M898.1,527.6s.3,3.4,0,5.7c0,3.3,0,6.8.2,10.2.3,2.3-.4,5.4,1.2,7.1,1.8,1,3.9.4,5.9.5,2.9.3,5.8,0,8.7,0,3.6.2,10.9-.3,14.5-.9"/>
    <path id="STROKE_37788aa1-5559-498d-bf0e-20b509d081bc" class="st2" d="M901.2,527.4c0,3.7,0,8.9.2,12.6.2,1.5-.5,6.7,1.1,6.9,2.4.6,5.1,0,7.6.4,3.1.5,6.1.5,9.3,0,2.5-.2,7.6.5,10,0"/>
    <path id="STROKE_40ad105f-4574-4dd8-a3ee-a79b12b845d0" class="st2" d="M948.1,503.7c-7.6-1.9-15.6-3.9-21.3-5.1,0,0-1.9,9.8-2.6,14.9-.9,6.9-2.3,11.7-10.4,10.2-2.8-.4-5.7-.3-8.6-.4-3.1-.3-7.5.6-7.2,4.3"/>
    <path id="STROKE_99ccc830-d7d5-497d-997c-f5d2aa283fa8" class="st2" d="M944.9,502.9c-.6,1.6-.3,3.7-.5,5.4-.2,3-.8,7.3-1.3,10.1-.9,4.2-.9,9.7-4.2,12.9-2.7,2.7-10,.8-13.8,1.2-5.3,0-6.4,0-10.9,2.8"/>
    <path id="STROKE_c113f0ad-fb59-4f24-8aae-b740d1b92a58" class="st2" d="M745.3,498.2c-.6-5.4,0-9.4,0-15s-.2-12-.2-18.2c.5-6.8,0-22.6,0-22.6,0,0,11.7,0,14.7-.2,3.1,0,5.4-.4,8.3.2,1.6.1,2.3,0,2.3,0,0,0-.5,24.6,0,35.7.2,5.4-.3,15.2-.3,20.4"/>
    <g id="New_Layer_2">
      <path id="STROKE_52e74859-bf54-442f-83d7-8f3dd16ac7ef" class="st3" d="M846.6,476.3c.7,5.9.8,12.3,1,18.2v5.6c-7.9.4-16.1,0-24.1.5-6,.2-12-.5-18-.4-5.9.3-11.8.6-17.7.5-3.7.1-11.5.1-11.5.1.2-2.4,0-5.3-.2-7.7v-16.7"/>
      <path id="STROKE_5372e7a3-0ded-4138-b6f1-5e9070784710" class="st2" d="M846.6,500.2v3.9c-12.6.2-25.1.1-37.7,0-10.4.9-21.1.1-31.5-.1v-3.3"/>
      <path id="STROKE_79f92865-255f-4edb-93a8-5fce795786aa" class="st3" d="M847.7,476.2c-8.7,0-17.4.2-26.1.3-7.4-.2-14.9-.4-22.3-.6-5.1,0-10.2-.3-15.3,0-2.2.1-4.1.3-6.3.3s-2.3.2-2.8-.2v-1.7s3.3,0,4.4-.2c6.6-.4,13.2-.2,19.8.1,7.9.6,15.8.2,23.6.3,8.3.8,16.7.3,25.1.3v1.6h0v-.2h-.1Z"/>
      <path id="STROKE_75849cb9-08d7-445a-93e2-e994cebfa5c0" class="st2" d="M779.7,473.7c0-.5,0-2,.3-2.4,1.4-.4,3.2-.7,4.6,0,0,.4.2,1.9,0,2.3"/>
      <path id="STROKE_52f6dbc3-dc0a-4002-813f-223e4b1b5681" class="st2" d="M789.3,459.6c-1.6-.6-.6-3,.2-3.9,1.1-1.3,3.6-1.6,4.4,0l-4.6,3.8h0Z"/>
      <path id="STROKE_15ae7b3f-09cc-49cf-ae03-1f33b930f6f6" class="st2" d="M782.2,470.5c-.2-3-1.2-6-1.8-9,0,0,3.4-3,5.1-4.3,1.1-.8,3.3-2.8,3.3-2.8.3.3.8.6.9,1"/>
      <path id="STROKE_6b6f122e-84b0-418e-a777-46d284f9ae2d" class="st2" d="M817.9,474.2c.5-1.6,1.9-1.5,3.3-1.4,1.8.1,3.5-.1,5.3,0,2.2.1,4.5,0,6.8,0s2.7.5,2.5,1.8"/>
      <path id="STROKE_e2a572ef-6978-40dc-8591-99a96d2a420c" class="st3" d="M824.1,470c-2,.2-4.5-.3-6.4-.2-1.5.1-2.6.4-2.6-1.6s.3-4.4,0-6.7c0-1.7-.3-3.5,0-5.1.8-.7,2-.1,3-.1h6.8c3.2,0,6.6.1,9.8-.3,3.8-.8,2,2.1,2.4,4.4,0,2.1-.3,4.1,0,6.2.3,3-.4,3.5-3.3,3.2-1.8-.3-3.7.5-5.5,0"/>
      <path id="STROKE_b134ffd5-ccd5-446c-bd41-d6838d56b0b3" class="st2" d="M828.2,472.5c0-1.7,0-3.6.2-5.3,0-.8.4-2.6-.9-2.3h-1.8c-.8,0-1.7-.1-1.8.9-.2,1.1,0,2.2.2,3.3.2,1,0,3.5,0,3.5"/>
      <path id="STROKE_c01fe5b7-76da-4587-9536-75e3c49acb29" class="st2" d="M791.4,441.7c0,3.3,2.3,5.5,5.3,6.4,1.8.5,3.7-.3,5.2-1.4,1.4-1.2,2.8-3,2.7-5,0-2.8-1.7-5.7-5.1-6.4s-8.2.5-8.1,6.3h0Z"/>
      <path id="STROKE_eb3e85c3-ca00-467f-8e6f-70ad4128918f" class="st2" d="M795.5,440c.8.6,2.3,1.9,2.3,1.9,0,0,2.4-2.6,3.2-3.8"/>
      <path id="STROKE_f07b3fc5-e985-4b1b-a157-670c7bb52bed" class="st2" d="M800.7,436.6c-.2.3-.3.4-.5.7"/>
      <path id="STROKE_6d91ab95-d84b-4264-bbf7-de89578ff132" class="st2" d="M797.9,435.9v.9"/>
      <path id="STROKE_12c208cf-09f7-4ffd-9b3a-f2a1562ed51f" class="st2" d="M795.4,437.3c0-.2-.2-.4-.3-.6"/>
      <path id="STROKE_9d996067-4e7a-41fe-a860-ba2b8c627645" class="st2" d="M792.9,438.7c.3,0,.5.3.8.4"/>
      <path id="STROKE_80198ada-1dab-45a6-9115-2e29de9b95aa" class="st2" d="M793.3,441.6c-.3,0-.4,0-.8.1"/>
      <path id="STROKE_0fd449c8-98ff-440f-b4a0-8ec03ab732d1" class="st2" d="M793.9,444c0,.1-.4.3-.5.4"/>
      <path id="STROKE_90aa59b6-db82-4226-8018-2eeb8bbe32ae" class="st2" d="M795.6,445.4c0,.3-.3.6-.4.9"/>
      <path id="STROKE_5cb63e86-6953-4388-a8eb-c1fb8668a941" class="st2" d="M797.9,446.4v.9"/>
      <path id="STROKE_2a168a94-3fbf-4afc-8917-b70f856af43a" class="st2" d="M800.3,445.6c.2.2.3.3.5.6"/>
      <path id="STROKE_abeb68b2-0a4b-4a01-aa9a-a25b42f1800c" class="st2" d="M802.2,444c.3,0,.4,0,.7.2"/>
      <path id="STROKE_786b653a-0391-4f17-8780-61b0a9d3c1d3" class="st2" d="M802.6,441.5h.9"/>
      <path id="STROKE_c93d9802-33ca-4e13-87b0-df84a674cf39" class="st2" d="M802.9,438.7c-.3,0-.4.2-.7.3"/>
    </g>
    <path class="st2" d="M898.9,525.5c3.4,2.7,7,5.5,11.1,7.8,7.2,4,12.5,7.5,19.9,13.4"/>
    <g>
      <path id="STROKE_37788aa1-5559-498d-bf0e-20b509d081bc1" class="st3" d="M898.1,526.6c-1.7.5-4.8-.3-6.7,0-2.2.3-4.5.3-6.7,0-1.8-.3-3.8.2-5.5-.3-1.2-.2-.6-3.9-.8-5.1,0-2.7,0-6.6-.2-9.3l-1.9-1.5s-.4,0-.3,2.6v10.7c.2,1.7-.3,3.9.8,5.2,1.3.7,2.8.3,4.3.3,2.1.2,4.2,0,6.4,0s7.9-.3,10.5-.6"/>
      <path id="STROKE_40ad105f-4574-4dd8-a3ee-a79b12b845d01" class="st2" d="M926.9,498.6s-19.4-5.4-30-7.6c0,0-1.4,7.1-1.9,10.9-.7,5-1.7,8.5-7.6,7.5-2.1-.3-4.2-.3-6.2-.3-1.6-.2-3.8,0-4.8,1.2"/>
      <path id="STROKE_99ccc830-d7d5-497d-997c-f5d2aa283fa81" class="st2" d="M910,494.1c-.4,1.2-.2,2.7-.3,4,0,2.2-.6,5.3-1,7.4-.7,3.1-.7,7.1-3.1,9.4-1.9,2-7.3.6-10,.9-3.9,0-4.7,0-8,2.1"/>
      <path class="st2" d="M876.5,510.6c2.5,2,5.1,4,8.1,5.7,5.3,2.9,8.8,5,14.2,9.2"/>
    </g>
    <g>
      <path id="STROKE_085025f6-cf36-49b5-a206-b96ff1b42cbb2" class="st2" d="M858.4,501s.2,1.9,0,3.2v5.6c0,1.2-.2,3,.6,3.9,1,.5,2.1.2,3.2.3,1.6.2,3.2,0,4.8,0s6.7-.2,8.7-.5"/>
      <path id="STROKE_37788aa1-5559-498d-bf0e-20b509d081bc2" class="st2" d="M860.1,500.8v7c0,.8-.3,3.7.6,3.8,1.3.3,2.8,0,4.2.2,1.7.3,3.4.3,5.1,0,1.4-.1,4.6.3,5.9,0"/>
      <path id="STROKE_40ad105f-4574-4dd8-a3ee-a79b12b845d02" class="st2" d="M896.9,490.9s-14.8-4.2-22.8-5.9c0,0-1.1,5.4-1.4,8.2-.5,3.8-1.2,6.4-5.7,5.6-1.5-.3-3.1-.2-4.7-.2-1.7-.2-4.1.3-4,2.3"/>
      <path id="STROKE_99ccc830-d7d5-497d-997c-f5d2aa283fa82" class="st2" d="M884,487.5c-.3.9-.2,2-.3,3,0,1.6-.5,4-.7,5.6-.5,2.3-.5,5.3-2.3,7.1-1.5,1.5-5.5.5-7.6.7-2.9,0-3.3,0-5.8,1.5"/>
      <path class="st2" d="M858.8,499.8c1.9,1.5,3.9,3,6.1,4.3,4,2.2,7.6,3.2,11.6,6.4"/>
      <path class="st2" d="M870.8,498.6c3.1,1.5,5.8,3.7,9.1,4.6.6.2,1.2.3,1.9.4.9.3,1.7.7,2.5,1.1,2.7,1.4,8,4.1,8,4.1,4.1,2,7.9,5,12.3,6.2.8.2,15.9,8.1,15.9,8.1,5.6,2.7,10.8,6.8,16.9,8.5,1.1.3,2.3.5,3.4.8,1.6.5,6.2,2.9,6.2,2.9"/>
    </g>
    <path class="st2" d="M892.2,508.7"/>
    <g>
      <path id="STROKE_6fd54d03-8f42-4b8f-9218-79b73dab31e11" class="st2" d="M645.4,544h3.7c5.6.5,11.5-.8,16.9.9,2.8,1.9,1.7,13.8,1.5,15.2h0c-.2,2-.6,4.1-.6,6.1.4,13.9,2.5,13.3-12.2,13.3s-4.4.4-8.1.3"/>
      <path id="STROKE_963e31de-6e59-4607-94f0-7db70527b8551" class="st2" d="M645.5,548h8.5c12.1,0,10.5-2,10.5,10.3,0,0-.5,6.9-.6,11.5h0c-.2,2,.6,4.1,0,6-1.5.4-3.3,0-4.9,0s-4.1.5-6.1.5c-3.9-.2-3.2-.2-7.1,0"/>
      <path id="STROKE_085025f6-cf36-49b5-a206-b96ff1b42cbb3" class="st2" d="M698.5,527s-.3,3.4,0,5.7c0,3.3,0,6.8-.2,10.2-.3,2.3.4,5.4-1.2,7.1-1.8,1-3.9.4-5.9.5-2.9.3-5.8,0-8.7,0-3.6.2-10.9-.3-14.5-.9"/>
      <path id="STROKE_37788aa1-5559-498d-bf0e-20b509d081bc3" class="st2" d="M695.4,526.8c0,3.7,0,8.9-.2,12.6-.2,1.5.5,6.7-1.1,6.9-2.4.6-5.1,0-7.6.4-3.1.5-6.1.5-9.3,0-2.5-.2-7.6.5-10,0"/>
      <path id="STROKE_40ad105f-4574-4dd8-a3ee-a79b12b845d03" class="st2" d="M645.8,503.8c8.4-2.2,17.6-4.5,24-5.8,0,0,1.9,9.8,2.6,14.9.9,6.9,2.3,11.7,10.4,10.2,2.8-.4,5.7-.3,8.6-.4,3.1-.3,7.5.6,7.2,4.3"/>
      <path id="STROKE_99ccc830-d7d5-497d-997c-f5d2aa283fa83" class="st2" d="M651.8,502.4c.6,1.6.3,3.7.5,5.4.2,3,.8,7.3,1.3,10.1.9,4.2.9,9.7,4.2,12.9,2.7,2.7,10,.8,13.8,1.2,5.3,0,6.4,0,10.9,2.8"/>
      <path class="st2" d="M697.8,525c-3.4,2.7-7,5.5-11.1,7.8-7.2,4-12.5,7.5-19.9,13.4"/>
      <g>
        <path id="STROKE_085025f6-cf36-49b5-a206-b96ff1b42cbb4" class="st2" d="M720.7,511.5s-.2,2.5,0,4.2v7.4c-.2,1.7.3,3.9-.8,5.2-1.3.7-2.8.3-4.3.3-2.1.2-4.2,0-6.4,0s-7.9-.3-10.5-.6"/>
        <path id="STROKE_37788aa1-5559-498d-bf0e-20b509d081bc4" class="st2" d="M718.5,511.3c0,2.7,0,6.6-.2,9.3,0,1.1.4,4.8-.8,5.1-1.7.5-3.7,0-5.5.3-2.2.3-4.5.4-6.7,0-1.8-.2-4.9.5-6.7,0"/>
        <path id="STROKE_40ad105f-4574-4dd8-a3ee-a79b12b845d04" class="st2" d="M669.8,498s19.4-5.4,30-7.6c0,0,1.4,7.1,1.9,10.9.7,5,1.7,8.5,7.6,7.5,2.1-.3,4.2-.3,6.2-.3,2.2-.3,5.5.5,5.3,3.1"/>
        <path id="STROKE_99ccc830-d7d5-497d-997c-f5d2aa283fa84" class="st2" d="M686.6,493.5c.4,1.2.2,2.7.3,4,0,2.2.6,5.3,1,7.4.7,3.1.7,7.1,3.1,9.4,1.9,2,7.3.6,10,.9,3.9,0,4.7,0,8,2.1"/>
        <path class="st2" d="M720.1,510c-2.5,2-5.1,4-8.1,5.7-5.3,2.9-8.8,5-14.2,9.2"/>
      </g>
      <g>
        <path id="STROKE_085025f6-cf36-49b5-a206-b96ff1b42cbb5" class="st2" d="M738.3,500.4s-.2,1.9,0,3.2v5.6c0,1.2.2,3-.6,3.9-1,.5-2.1.2-3.2.3-1.6.2-3.2,0-4.8,0s-6.7-.2-8.7-.5"/>
        <path id="STROKE_37788aa1-5559-498d-bf0e-20b509d081bc5" class="st2" d="M736.6,500.3v7c0,.8.3,3.7-.6,3.8-1.3.3-2.8,0-4.2.2-1.7.3-3.4.3-5.1,0-1.4-.1-4.6.3-5.9,0"/>
        <path id="STROKE_40ad105f-4574-4dd8-a3ee-a79b12b845d05" class="st2" d="M699.8,490.4s14.8-4.2,22.8-5.9c0,0,1.1,5.4,1.4,8.2.5,3.8,1.2,6.4,5.7,5.6,1.5-.3,3.1-.2,4.7-.2,1.7-.2,4.1.3,4,2.3"/>
        <path id="STROKE_99ccc830-d7d5-497d-997c-f5d2aa283fa85" class="st2" d="M712.6,486.9c.3.9.2,2,.3,3,0,1.6.5,4,.7,5.6.5,2.3.5,5.3,2.3,7.1,1.5,1.5,5.5.5,7.6.7,2.9,0,3.3,0,5.8,1.5"/>
        <path class="st2" d="M737.9,499.3c-1.9,1.5-3.9,3-6.1,4.3-4,2.2-7.6,3.2-11.6,6.4"/>
        <path class="st2" d="M631.7,544.1"/>
        <path class="st2" d="M725.9,498c-3.1,1.5-5.8,3.7-9.1,4.6-.6.2-1.2.3-1.9.4-.9.3-1.7.7-2.5,1.1-2.7,1.4-8,4.1-8,4.1-4.1,2-7.8,5-12.3,6.2-.8.2-15.9,8.1-15.9,8.1-5.6,2.7-10.8,6.8-16.9,8.5-1.1.3-2.3.5-3.4.8-1.6.5-8.8,4.3-10.3,5.1"/>
      </g>
      <path class="st2" d="M704.5,508.2"/>
    </g>
  </g>
  <g id="Ebene_11">
    <path id="STROKE_013db70b-df31-4fdb-b11b-c7fddbe5fe91" class="st1" d="M1032.7,730.2c32.3,57.4,72.8,110,101.9,169.2"/>
    <path id="STROKE_235e3a1d-2595-4fe5-b798-2b67b94fd407" class="st1" d="M1031.1,138.4c55.8-49.6,87.4-84.8,139.3-138.4"/>
    <path id="STROKE_a9689fb8-dd6d-4fcd-9289-e4cdeb8006bd" class="st1" d="M1033.5,477.9c-1.5-83.5,0-166.3-2-249.6-.3-29,.4-61-.5-89.8-8.2,0-18.9,0-27.8.5-60.3,5.9-120.3-1.4-180.7-1.2-79,2.7-158.1,2.8-237.1,2.5h-17.5c-7.1-7.6-17.2-18.3-25.2-26.3C502.6,75.6,465.7,34.5,422.1.2"/>
    <path id="STROKE_cde62bb0-55ac-44a6-9f93-9252f62fda7f" class="st1" d="M568.1,730.2c-40,54.9-75,118.4-117.4,171.6"/>
    <path class="st1" d="M568.1,490.3c3.4,60.1.9,118.5,0,178.8-.3,18.5-.5,42.4,0,61,13.5.3,18.9-.3,32,0,136.2-1.6,270.5,4.1,407.6.7,8.5-.2,17.7-.3,25-.7-1.3-16.8-4-34.4-3.3-51.4.8-63.4,4.8-125.8,4.1-189.4"/>
    <path class="st1" d="M568.1,140.1c-3.2,111,.2,225.8,0,336.9"/>
    <path id="STROKE_5be79f4e-8b2a-4b3c-9b24-9b235c40329e" class="st1" d="M1031.1,191.7c-154.1,6.5-310.1,3.9-464.2-.4"/>
    <path id="STROKE_b55820a3-2133-4ccb-ac8d-f2d818da5eaa" class="st7" d="M769.6,151.6c1,4.2,0,26.2,0,26.2,18.2.5,39.3.6,58.3,0v-26.2s-8.2-.6-18.9,0c-11.5-.3-39.4,0-39.4,0h0Z"/>
    <path id="STROKE_6a05da35-884d-40e2-8a5a-d7b0a6b9b219" class="st1" d="M645.9,193.5c1.1,178-3,356,2.7,534.1"/>
    <path id="STROKE_34ff54d9-ec34-4ac2-b4f9-e627f4736ff6" class="st1" d="M949.5,196.2c1.2,77.2-2.4,154-4,231.3,1.6,101.8,5.8,201.8,1.5,303.6"/>
    <path id="STROKE_d3800e56-9d10-4000-95f6-895428339d74" class="st1" d="M411,0c-6.5,55.6-2.2,114.1-1.1,169.8.3,64.5,1.6,133.1,4,197.7-8.1,177.1,5,355.3-3,532.5"/>
    <path id="STROKE_72a9b6ff-219c-48a7-870d-0730a757a552" class="st1" d="M1191.6,0c-4.6,143.3,5.9,279.6,0,423.1,1,158.8-.8,477.6-.8,477.6"/>
    <path id="STROKE_adcae411-31f2-4c74-b9ae-872f813b3a6d" class="st1" d="M411.1,505.9c54.1-5.5,109.2-10.7,163.1-17.9,6.2,0,2.8-3.1,2.4-7-.7-2.1-.2-4.1-3.2-3.1-53.9,4.3-108.1,9.9-162.3,11.7"/>
    <path id="STROKE_a638b487-3fe9-4932-91ab-188fbfe9d3d1" class="st1" d="M1190.2,487.9c-42.7-2.9-87.3-3.8-130-6.9-11.5-1-23.8-2.5-35.2-3.1,0,2.9.4,8,.3,10.6,55.1,3.2,110.7,7.5,165.3,15.8"/>
    <path id="STROKE_3d5c9387-bf2b-4f3e-8762-dff0c353bbe8" class="st1" d="M634.2,715.3c3-33.2,0-66.7,0-100-12.1-1-25.4.8-37.6,0-6.9.4-22,0-22,0,0,0-3,69,0,99.9h59.6Z"/>
    <path id="STROKE_8415b829-b5f6-4ae1-8704-1d41fbd04cb6" class="st1" d="M582,245.2c15.3.4,32.5.4,47.9,0-.2-12.1,0-36.6,0-36.6h-47.9s-.8,15,0,36.6h0Z"/>
    <path id="STROKE_c0412c42-0fa8-4df8-b1f1-f4dbf5506879" class="st1" d="M966.4,208.3v36.9s33,.5,47.7,0c.6-10.6-.2-36.7-.2-36.7,0,0-6.2-.4-10.3,0-12.4,1.9-37.3-.2-37.3-.2h0Z"/>
    <path id="STROKE_1325fbc5-9560-402c-8454-c524e566e8f8" class="st1" d="M1022.3,715.3c-19.4,4.1-44.7-.7-64.5,0-4-33.2,3.2-66.7,0-100,19.8,1.3,44.7-.9,64.5,0v100Z"/>
    <g>
      <path id="STROKE_2cf7b7ea-02ea-4e4b-9067-375ab24d574b" class="st1" d="M987.5,339.6c0-5.9-10.4-6.6-10.4,1.1s10.4,6.2,10.4-1.1Z"/>
      <path id="STROKE_6bbfe406-a6fc-4f14-98bb-cbe6b804fa28" class="st1" d="M1002.4,346.5c2.7,0,6.1-3.1,6-6.3s-3.8-6.3-5.7-6.3h-20s-7.4-.6-7.4,5.9,3.1,6.6,7.5,6.7c6.9.3,15.7,0,19.5,0h.1Z"/>
      <path id="STROKE_2cf7b7ea-02ea-4e4b-9067-375ab24d574b1" class="st1" d="M987.5,359.4c0-5.9-10.4-6.6-10.4,1.1s10.4,6.2,10.4-1.1Z"/>
      <path id="STROKE_6bbfe406-a6fc-4f14-98bb-cbe6b804fa281" class="st1" d="M1002.4,366.4c2.7,0,6.1-3.1,6-6.3s-3.8-6.3-5.7-6.3h-20s-7.4-.6-7.4,5.9,3.1,6.6,7.5,6.7c6.9.3,15.7,0,19.5,0h.1Z"/>
      <path id="STROKE_2cf7b7ea-02ea-4e4b-9067-375ab24d574b2" class="st1" d="M987.5,380.9c0-5.9-10.4-6.6-10.4,1.1s10.4,6.2,10.4-1.1Z"/>
      <path id="STROKE_6bbfe406-a6fc-4f14-98bb-cbe6b804fa282" class="st1" d="M1002.4,387.9c2.7,0,6.1-3.1,6-6.3s-3.8-6.3-5.7-6.3h-20s-7.4-.6-7.4,5.9,3.1,6.6,7.5,6.7c6.9.3,15.7,0,19.5,0h.1Z"/>
      <path id="STROKE_2cf7b7ea-02ea-4e4b-9067-375ab24d574b3" class="st1" d="M987.5,404.1c0-5.9-10.4-6.6-10.4,1.1s10.4,6.2,10.4-1.1Z"/>
      <path id="STROKE_6bbfe406-a6fc-4f14-98bb-cbe6b804fa283" class="st1" d="M1002.4,411.1c2.7,0,6.1-3.1,6-6.3s-3.8-6.3-5.7-6.3h-20s-7.4-.6-7.4,5.9,3.1,6.6,7.5,6.7c6.9.3,15.7,0,19.5,0h.1Z"/>
      <path id="STROKE_2cf7b7ea-02ea-4e4b-9067-375ab24d574b4" class="st1" d="M987.5,423.3c0-5.9-10.4-6.6-10.4,1.1s10.4,6.2,10.4-1.1Z"/>
      <path id="STROKE_6bbfe406-a6fc-4f14-98bb-cbe6b804fa284" class="st1" d="M1002.4,430.3c2.7,0,6.1-3.1,6-6.3s-3.8-6.3-5.7-6.3h-20s-7.4-.6-7.4,5.9,3.1,6.6,7.5,6.7c6.9.3,15.7,0,19.5,0h.1Z"/>
      <path id="STROKE_2cf7b7ea-02ea-4e4b-9067-375ab24d574b5" class="st1" d="M987.5,444c0-5.9-10.4-6.6-10.4,1.1s10.4,6.2,10.4-1.1Z"/>
      <path id="STROKE_6bbfe406-a6fc-4f14-98bb-cbe6b804fa285" class="st1" d="M1002.4,450.9c2.7,0,6.1-3.1,6-6.3s-3.8-6.3-5.7-6.3h-20s-7.4-.6-7.4,5.9,3.1,6.6,7.5,6.7c6.9.3,15.7,0,19.5,0h.1Z"/>
      <path id="STROKE_3d5c9387-bf2b-4f3e-8762-dff0c353bbe81" class="st1" d="M1020.2,463.4c3-46.4,0-93.4,0-139.8-12.1-1.4-25.4,1.1-37.6.2-6.9.5-22-.2-22-.2,0,0-3,96.5,0,139.8h59.6Z"/>
    </g>
    <path id="Tür" class="st0" d="M947,731.1c4.3-101.8,0-201.8-1.5-303.6,1.6-77.3,5.2-154.1,4-231.3l-303.6-2.7c1.1,178-3,356,2.7,534.1l298.4,3.5Z"/>
  </g>
  <path id="STROKE_2723813b-dec1-47cb-992f-cff34e48f481" class="st5" d="M800,768.2s39.7,35.7,50,44.2c-9.3,0-17.5.6-26.9,0-.6,14.3,0,27.3,0,27.3h-46s-1.4-12.8,0-27.3c-8.7.2-18.4.3-27.2,0l50-44.2h.1Z"/>
  <path id="STROKE_1e45909e-9ae6-4ca2-97f0-774b4da437b2" class="st4" d="M527.8,397.3c.5-66.7,3.6-137.1,4.1-203.5-16-8.5-38.1-14.5-55.3-20.5-9.5-3.6-17.4-9.4-26.6-13.2,1.1,51.9,1.1,114.4,3,166.8-.6,22.7-2.6,49.4-1.8,72,24.7,1.3,51.6.4,76.6-1.5h0Z"/>
</svg>