<?xml version="1.0" encoding="UTF-8"?>
<svg id="Ebene_1" xmlns="http://www.w3.org/2000/svg" version="1.1" viewBox="0 0 1600 900">
  <!-- Generator: Adobe Illustrator 29.1.0, SVG Export Plug-In . SVG Version: 2.1.0 Build 142)  -->
  <defs>
    <style>
      .st0, .st1, .st2, .st3 {
        fill: none;
      }

      .st1, .st4, .st5, .st6, .st7, .st8, .st9, .st10, .st2, .st11, .st12, .st13, .st14, .st15, .st16, .st17, .st18, .st19, .st20, .st3, .st21, .st22, .st23 {
        stroke-linecap: round;
      }

      .st1, .st4, .st5, .st6, .st8, .st10, .st2, .st11, .st13, .st14, .st15, .st16, .st17, .st18, .st19, .st21, .st23 {
        stroke-linejoin: round;
      }

      .st1, .st4, .st5, .st7, .st8, .st9, .st10, .st2, .st11, .st12, .st13, .st14, .st15, .st16, .st18, .st19, .st20, .st3, .st21, .st24, .st23 {
        stroke: #000;
      }

      .st1, .st25, .st19, .st3, .st21 {
        stroke-width: 3px;
      }

      .st4, .st26 {
        fill: #fff;
      }

      .st5 {
        fill: #aab688;
      }

      .st6 {
        fill: blue;
        stroke: #6fff00;
      }

      .st7, .st9, .st12, .st25, .st20, .st3, .st22, .st24 {
        stroke-miterlimit: 10;
      }

      .st7, .st10 {
        fill: #9cb6ff;
      }

      .st8 {
        fill: #c4006d;
      }

      .st9 {
        fill: #9337e1;
      }

      .st11 {
        fill: #ffaeef;
      }

      .st14 {
        fill: #c8b63d;
      }

      .st15 {
        fill: #a598f7;
      }

      .st16 {
        fill: #fdc01e;
      }

      .st17, .st25, .st22 {
        stroke: #fff;
      }

      .st18 {
        fill: #ff0;
      }

      .st19 {
        fill: #fff706;
      }

      .st20 {
        fill: aqua;
      }

      .st21 {
        fill: green;
      }

      .st24 {
        fill: #ffb682;
      }

      .st23 {
        fill: #ff6f00;
      }
    </style>
  </defs>
  <g>
    <path id="STROKE_e386c48b-9a7b-47b9-b6f7-951242b4e1b1" class="st20" d="M806.6,471c0,.8,0,4.9.2,5.8,0,1.1,2.1.6,2.2-.4v-5.5c1.1-.2,4.8-.8,4.8-2.4,0-3.2.2-6.4,0-9.6.2-3.5-3.2-2.7-5.4-2.6-3.8,0-7.6.3-11.4,0-1.3-.1-2.1,1.8-1.9,3.4,0,3.3-.4,6.6.3,9.9.2.8,4.2.9,4.7,1.1v2.4c0,1.3-.8,3.7.4,3.9,1.1,0,1.9.3,2-.8v-5.4s3.3.1,4,.2h.1Z"/>
    <path id="STROKE_9b207411-db7d-4e67-80ba-275c20c465df" class="st22" d="M801.4,459.9c-1.1-1.1-3.5-1-4.2.7s-.5,2.4.4,3.3,3.4,1.3,4.3-.1.2-3.2-.5-3.9Z"/>
    <path id="STROKE_f9f28f23-493b-4293-bfee-74ea4d67b20f" class="st22" d="M809,459.6c-1.2,0-2.4,1.3-2.6,2.4,0,1.5,1.1,3.1,2.7,3.1,3.8-.4,3.9-5.3,0-5.5h-.1Z"/>
    <path id="STROKE_4d2051d1-299d-4e24-b5f2-268e7dd12528" class="st7" d="M805.7,467.5c-.8.3-1.8.1-2.6-.2"/>
  </g>
  <g>
    <g>
      <path id="STROKE_5ff50c22-5db1-42e7-9562-6ec8203b32f7" class="st8" d="M874.6,515.7c-1,2.5-1.1,5.3,0,7.8.7,1.4,2,2.7,3.4,3.4,1.3.7,2.6,1.4,4.1,1.5,2.2.4,3.9,0,5.7-1.3,2.5-1.4,4.2-4.1,4.7-6.9.3-3.4-1.5-6.9-4.5-8.6-1.3-.8-2.7-1.9-4.4-1.4s-3.5.6-6.1,2.1c0,0-.4.2-.5.3-.8.6-1.8,2.1-2.4,3.2h0Z"/>
      <g>
        <path id="STROKE_55fc9322-bb7f-4c7d-b1a9-02fda6e397e9" d="M880.2,524.3c1.4,1,2.9-1.3.9-2.6s-1.9,2.1-.9,2.6Z"/>
        <path id="STROKE_8d44d0fe-2a00-480e-a684-97e3aa31ffee" class="st22" d="M885,519.5c-1.5-.7-2.7,1.3-1.1,2.1,1.6.8,2.6-1.4,1.1-2.1Z"/>
        <path id="STROKE_8d44d0fe-2a00-480e-a684-97e3aa31ffee1" class="st22" d="M880,516.9c-1.5-.7-2.7,1.3-1.1,2.1s2.6-1.4,1.1-2.1Z"/>
      </g>
    </g>
    <g>
      <path id="STROKE_6031ec8b-01cc-4e4b-8d24-2be38e2d8f56" class="st2" d="M645.4,372.5c10.1,6,20.6,11.9,30.9,17.7,15.6,9.8,30.9,19.6,46.6,29.3,4.6,2.9,15.7,8,16.9,9.5"/>
      <g>
        <path id="STROKE_fd284d13-50bc-42fc-8bbe-fb9fb5744b335" class="st9" d="M916.1,531.5c0,.5.4.9.5,1.4,0,.4.3.8.4,1.2l1.5,5h0c-.3.4-.7.7-1,1-.4.3-1,.6-1.4.9-1.2,1-2.5,1.6-3.9,1.8h-3.3c-1.1,0-2.2-.7-3.2-1.2-1-.4-2-1.2-2.9-1.8-.3-.3-.8-.5-1-.9,0-.3,2.3-9,2.3-9l.9-.3s.2-5,.3-5.6c0,0,0-.3.3-.4h.7c.4,0,0,5.1.2,5.4h.9v-4.9s0-.3.3-.3h.6c.2,0,.3.4.3.6v4.7h.9v-5.1c0-.2,0-.3.2-.3s.6-.3.8-.2.2.4.3.6v4.8h1v-5.2h0c.2,0,.6-.2.8-.2s.2,0,.3.2,0,.2,0,.3v4.8h1v-5.1h.8c.2,0,0,0,0,0,0,0,.2.2.2.3v5.2l.6.3s.5,1.9.7,2.2h-.2v-.2h.1Z"/>
        <path id="STROKE_a86008a8-9918-471c-95f9-648a296448a45" class="st12" d="M909,533.5s.3-.6.2-.9-.3-.9-.3-1c0,0,0-.4-.5,0,0,0-.3.6-.2.9s.3.9.3,1c0,0,0,.4.5,0Z"/>
        <path id="STROKE_7819c8f3-7a07-4eb6-bb83-ff6bafd390ce5" class="st22" d="M913.9,538.5c.3-2.2-3.3-3.2-4.1-1.1,0,.7,0,1.7.3,2.2.9,1.2,3.4.9,3.8-1.1h0Z"/>
        <path id="STROKE_7819c8f3-7a07-4eb6-bb83-ff6bafd390ce51" class="st22" d="M903.7,536.4c-.5.8,0,3.4,1.9,3.4s2.6-3.8.4-4.2c-.7,0-2,.3-2.3.8h0Z"/>
      </g>
      <path class="st26" d="M970.6,509.7c0,6.1-1.6,12-1.4,18.2h0c-.7,5.5,1.7,13.7-4.2,16.9"/>
      <path class="st26" d="M930.7,545.8c-.3.3-.6.6-.9,1.2-7.4-5.9-12.6-9.4-19.8-13.4-4-2.2-7.5-5-10.8-7.6,0,0-.2,0-.3-.2h0v-.2c-5.3-4.2-8.9-6.2-14.1-9.1-2.3-1.3-4.4-2.8-6.4-4.4-.6-.5-1.1-.9-1.7-1.3h0v-.2c-4.1-3.2-7.5-4.1-11.4-6.3-1.7-.9-3.3-2.1-4.8-3.3s-.9-.7-1.4-1.1c.7-1,2.4-1.3,3.7-1.2,1.6,0,3.2,0,4.7.2,4.4.8,5.2-1.8,5.7-5.6.3-2.8,1.4-8.2,1.4-8.2,2.8.6,6.4,1.5,9.9,2.4,6.6,1.7,12.9,3.5,12.9,3.5,10.5,2.2,30,7.6,30,7.6"/>
      <path class="st18" d="M792.2,457.4c0,.1.3.3.4.5,0,.3,0,.5-.2.7s-.3.3-.5.3h-.4c-.2-.1-.4-.5-.5-.7"/>
      <path id="STROKE_da41113a-9994-4f39-842c-dda22ac45b0e" class="st2" d="M739.7,428.9h8.7c4.5-.3,9-.8,13.5-.7,6.3,0,12.5,1.2,18.8,1.1,7.9-.6,16,.2,23.9,0,8.5.1,17.4,0,25.9-.3,5.6-.4,14.6-.8,20.2-.1"/>
      <path id="STROKE_5b5ad666-49bc-40df-8f70-1cd42237293e" class="st2" d="M850.7,428.9c.2,11.1.7,18.9,1.2,30.1,0,14.3-.3,25.2-1.2,39.4"/>
      <path id="STROKE_31aba2ec-5a91-4a64-9b31-7144774a86de" class="st2" d="M847.9,498.5c2.6.1.6,0,2.8,0"/>
      <path id="STROKE_31aba2ec-5a91-4a64-9b31-7144774a86de1" class="st2" d="M739.7,498.5c13.5-.7,23.1.2,36.7,0"/>
      <path id="STROKE_1ed6a108-c9b3-4dbf-be97-7987f2c2c2ab" class="st2" d="M739.7,428.9c0,4.2.6,9.2.6,13.5,0,11.8.2,23.7.2,35.5s-.8,14-.8,20.6"/>
      <path id="STROKE_7c0ef958-405c-4e67-acef-c816253e69f41" class="st2" d="M662.3,548.2c-3.4,2.1-10.4,4.7-13.7,6.9"/>
      <path id="STROKE_7c0ef958-405c-4e67-acef-c816253e69f42" class="st2" d="M739.7,498.5c-.5.3-1,.7-1.5,1"/>
      <path id="STROKE_4f2358d6-7f7a-4e00-8ae1-6ebb16d7fda61" class="st2" d="M933.4,549c2.7,1.6,5.5,3.2,8.4,4.9,2.4,1.5,4.7,3.1,7.1,4.6"/>
      <path id="STROKE_4f2358d6-7f7a-4e00-8ae1-6ebb16d7fda62" class="st2" d="M901.3,528.3l24.8,16.3c1.3.8,2.3,1.6,3.5,2.3"/>
      <path id="STROKE_4f2358d6-7f7a-4e00-8ae1-6ebb16d7fda63" class="st2" d="M892.3,522.5l5.9,3.7"/>
      <path id="STROKE_4f2358d6-7f7a-4e00-8ae1-6ebb16d7fda64" class="st2" d="M860.2,504.2c.2,0,.3.2.5.3,4.3,2.7,8.8,5.1,13.4,7.5"/>
      <path id="STROKE_4f2358d6-7f7a-4e00-8ae1-6ebb16d7fda65" class="st2" d="M850.7,498.5c3.1,2.3,4.9,3.2,7.7,4.7"/>
      <path id="STROKE_aa5bbd3e-b2d1-4ccf-b134-896ec2b31f7d" class="st2" d="M850.7,428.9c11.8-6.7,24.1-13.1,36.1-19.6,13.9-7.5,27.6-15.4,41.3-23.3,6.2-4,12.4-7.8,18.7-11.6"/>
      <path id="STROKE_6fd54d03-8f42-4b8f-9218-79b73dab31e1" class="st2" d="M947.6,544.7c-5.6.5-11.5-.8-16.9.9-2.8,1.9-1.7,13.8-1.5,15.2h0c.2,2,.6,4.1.6,6.1-.4,13.9-2.5,13.3,12.2,13.3s3.4.4,7.1.3"/>
      <path id="STROKE_963e31de-6e59-4607-94f0-7db70527b855" class="st2" d="M948.1,548.6h-5.4c-12.1,0-10.5-2-10.5,10.3,0,0,.5,6.9.6,11.5h0c.2,2-.6,4.1,0,6,1.5.4,3.3,0,4.9,0s4.1.5,6.1.5h4.8"/>
      <path id="STROKE_085025f6-cf36-49b5-a206-b96ff1b42cbb" class="st2" d="M898.1,527.6s.3,3.4,0,5.7c0,3.3,0,6.8.2,10.2.3,2.3-.4,5.4,1.2,7.1,1.8,1,3.9.4,5.9.5,2.9.3,5.8,0,8.7,0,3.6.2,10.9-.3,14.5-.9"/>
      <path id="STROKE_37788aa1-5559-498d-bf0e-20b509d081bc" class="st2" d="M901.2,527.4c0,3.7,0,8.9.2,12.6.2,1.5-.5,6.7,1.1,6.9,2.4.6,5.1,0,7.6.4,3.1.5,6.1.5,9.3,0,2.5-.2,7.6.5,10,0"/>
      <path id="STROKE_40ad105f-4574-4dd8-a3ee-a79b12b845d0" class="st2" d="M948.1,503.7c-7.6-1.9-15.6-3.9-21.3-5.1,0,0-1.9,9.8-2.6,14.9-.9,6.9-2.3,11.7-10.4,10.2-2.8-.4-5.7-.3-8.6-.4-3.1-.3-7.5.6-7.2,4.3"/>
      <path id="STROKE_99ccc830-d7d5-497d-997c-f5d2aa283fa8" class="st2" d="M944.9,502.9c-.6,1.6-.3,3.7-.5,5.4-.2,3-.8,7.3-1.3,10.1-.9,4.2-.9,9.7-4.2,12.9-2.7,2.7-10,.8-13.8,1.2-5.3,0-6.4,0-10.9,2.8"/>
      <path id="STROKE_c113f0ad-fb59-4f24-8aae-b740d1b92a58" class="st2" d="M745.3,498.2c-.6-5.4,0-9.4,0-15s-.2-12-.2-18.2c.5-6.8,0-22.6,0-22.6,0,0,11.7,0,14.7-.2,3.1,0,5.4-.4,8.3.2,1.6.1,2.3,0,2.3,0,0,0-.5,24.6,0,35.7.2,5.4-.3,15.2-.3,20.4"/>
      <g id="New_Layer_2">
        <path id="STROKE_52e74859-bf54-442f-83d7-8f3dd16ac7ef" class="st4" d="M846.6,476.3c.7,5.9.8,12.3,1,18.2v5.6c-7.9.4-16.1,0-24.1.5-6,.2-12-.5-18-.4-5.9.3-11.8.6-17.7.5-3.7.1-11.5.1-11.5.1.2-2.4,0-5.3-.2-7.7v-16.7"/>
        <path id="STROKE_5372e7a3-0ded-4138-b6f1-5e9070784710" class="st2" d="M846.6,500.2v3.9c-12.6.2-25.1.1-37.7,0-10.4.9-21.1.1-31.5-.1v-3.3"/>
        <path id="STROKE_79f92865-255f-4edb-93a8-5fce795786aa" class="st4" d="M847.7,476.2c-8.7,0-17.4.2-26.1.3-7.4-.2-14.9-.4-22.3-.6-5.1,0-10.2-.3-15.3,0-2.2.1-4.1.3-6.3.3s-2.3.2-2.8-.2v-1.7s3.3,0,4.4-.2c6.6-.4,13.2-.2,19.8.1,7.9.6,15.8.2,23.6.3,8.3.8,16.7.3,25.1.3v1.6h0v-.2h-.1Z"/>
        <path id="STROKE_75849cb9-08d7-445a-93e2-e994cebfa5c0" class="st2" d="M779.7,473.7c0-.5,0-2,.3-2.4,1.4-.4,3.2-.7,4.6,0,0,.4.2,1.9,0,2.3"/>
        <path id="STROKE_52f6dbc3-dc0a-4002-813f-223e4b1b5681" class="st2" d="M789.3,459.6c-1.6-.6-.6-3,.2-3.9,1.1-1.3,3.6-1.6,4.4,0l-4.6,3.8h0Z"/>
        <path id="STROKE_15ae7b3f-09cc-49cf-ae03-1f33b930f6f6" class="st2" d="M782.2,470.5c-.2-3-1.2-6-1.8-9,0,0,3.4-3,5.1-4.3,1.1-.8,3.3-2.8,3.3-2.8.3.3.8.6.9,1"/>
        <path id="STROKE_6b6f122e-84b0-418e-a777-46d284f9ae2d" class="st2" d="M817.9,474.2c.5-1.6,1.9-1.5,3.3-1.4,1.8.1,3.5-.1,5.3,0,2.2.1,4.5,0,6.8,0s2.7.5,2.5,1.8"/>
        <path id="STROKE_e2a572ef-6978-40dc-8591-99a96d2a420c" class="st4" d="M824.1,470c-2,.2-4.5-.3-6.4-.2-1.5.1-2.6.4-2.6-1.6s.3-4.4,0-6.7c0-1.7-.3-3.5,0-5.1.8-.7,2-.1,3-.1h6.8c3.2,0,6.6.1,9.8-.3,3.8-.8,2,2.1,2.4,4.4,0,2.1-.3,4.1,0,6.2.3,3-.4,3.5-3.3,3.2-1.8-.3-3.7.5-5.5,0"/>
        <path id="STROKE_b134ffd5-ccd5-446c-bd41-d6838d56b0b3" class="st2" d="M828.2,472.5c0-1.7,0-3.6.2-5.3,0-.8.4-2.6-.9-2.3h-1.8c-.8,0-1.7-.1-1.8.9-.2,1.1,0,2.2.2,3.3.2,1,0,3.5,0,3.5"/>
        <path id="STROKE_c01fe5b7-76da-4587-9536-75e3c49acb29" class="st2" d="M791.4,441.7c0,3.3,2.3,5.5,5.3,6.4,1.8.5,3.7-.3,5.2-1.4,1.4-1.2,2.8-3,2.7-5,0-2.8-1.7-5.7-5.1-6.4s-8.2.5-8.1,6.3h0Z"/>
        <path id="STROKE_eb3e85c3-ca00-467f-8e6f-70ad4128918f" class="st2" d="M795.5,440c.8.6,2.3,1.9,2.3,1.9,0,0,2.4-2.6,3.2-3.8"/>
        <path id="STROKE_f07b3fc5-e985-4b1b-a157-670c7bb52bed" class="st2" d="M800.7,436.6c-.2.3-.3.4-.5.7"/>
        <path id="STROKE_6d91ab95-d84b-4264-bbf7-de89578ff132" class="st2" d="M797.9,435.9v.9"/>
        <path id="STROKE_12c208cf-09f7-4ffd-9b3a-f2a1562ed51f" class="st2" d="M795.4,437.3c0-.2-.2-.4-.3-.6"/>
        <path id="STROKE_9d996067-4e7a-41fe-a860-ba2b8c627645" class="st2" d="M792.9,438.7c.3,0,.5.3.8.4"/>
        <path id="STROKE_80198ada-1dab-45a6-9115-2e29de9b95aa" class="st2" d="M793.3,441.6c-.3,0-.4,0-.8.1"/>
        <path id="STROKE_0fd449c8-98ff-440f-b4a0-8ec03ab732d1" class="st2" d="M793.9,444c0,.1-.4.3-.5.4"/>
        <path id="STROKE_90aa59b6-db82-4226-8018-2eeb8bbe32ae" class="st2" d="M795.6,445.4c0,.3-.3.6-.4.9"/>
        <path id="STROKE_5cb63e86-6953-4388-a8eb-c1fb8668a941" class="st2" d="M797.9,446.4v.9"/>
        <path id="STROKE_2a168a94-3fbf-4afc-8917-b70f856af43a" class="st2" d="M800.3,445.6c.2.2.3.3.5.6"/>
        <path id="STROKE_abeb68b2-0a4b-4a01-aa9a-a25b42f1800c" class="st2" d="M802.2,444c.3,0,.4,0,.7.2"/>
        <path id="STROKE_786b653a-0391-4f17-8780-61b0a9d3c1d3" class="st2" d="M802.6,441.5h.9"/>
        <path id="STROKE_c93d9802-33ca-4e13-87b0-df84a674cf39" class="st2" d="M802.9,438.7c-.3,0-.4.2-.7.3"/>
      </g>
      <path class="st2" d="M898.9,525.5c3.4,2.7,7,5.5,11.1,7.8,7.2,4,12.5,7.5,19.9,13.4"/>
      <g>
        <path id="STROKE_37788aa1-5559-498d-bf0e-20b509d081bc1" class="st4" d="M898.1,526.6c-1.7.5-4.8-.3-6.7,0-2.2.3-4.5.3-6.7,0-1.8-.3-3.8.2-5.5-.3-1.2-.2-.6-3.9-.8-5.1,0-2.7,0-6.6-.2-9.3l-1.9-1.5s-.4,0-.3,2.6v10.7c.2,1.7-.3,3.9.8,5.2,1.3.7,2.8.3,4.3.3,2.1.2,4.2,0,6.4,0s7.9-.3,10.5-.6"/>
        <path id="STROKE_40ad105f-4574-4dd8-a3ee-a79b12b845d01" class="st2" d="M926.9,498.6s-19.4-5.4-30-7.6c0,0-1.4,7.1-1.9,10.9-.7,5-1.7,8.5-7.6,7.5-2.1-.3-4.2-.3-6.2-.3-1.6-.2-3.8,0-4.8,1.2"/>
        <path id="STROKE_99ccc830-d7d5-497d-997c-f5d2aa283fa81" class="st2" d="M910,494.1c-.4,1.2-.2,2.7-.3,4,0,2.2-.6,5.3-1,7.4-.7,3.1-.7,7.1-3.1,9.4-1.9,2-7.3.6-10,.9-3.9,0-4.7,0-8,2.1"/>
        <path class="st2" d="M876.5,510.6c2.5,2,5.1,4,8.1,5.7,5.3,2.9,8.8,5,14.2,9.2"/>
      </g>
      <g>
        <path id="STROKE_085025f6-cf36-49b5-a206-b96ff1b42cbb2" class="st2" d="M858.4,501s.2,1.9,0,3.2v5.6c0,1.2-.2,3,.6,3.9,1,.5,2.1.2,3.2.3,1.6.2,3.2,0,4.8,0s6.7-.2,8.7-.5"/>
        <path id="STROKE_37788aa1-5559-498d-bf0e-20b509d081bc2" class="st2" d="M860.1,500.8v7c0,.8-.3,3.7.6,3.8,1.3.3,2.8,0,4.2.2,1.7.3,3.4.3,5.1,0,1.4-.1,4.6.3,5.9,0"/>
        <path id="STROKE_40ad105f-4574-4dd8-a3ee-a79b12b845d02" class="st2" d="M896.9,490.9s-14.8-4.2-22.8-5.9c0,0-1.1,5.4-1.4,8.2-.5,3.8-1.2,6.4-5.7,5.6-1.5-.3-3.1-.2-4.7-.2-1.7-.2-4.1.3-4,2.3"/>
        <path id="STROKE_99ccc830-d7d5-497d-997c-f5d2aa283fa82" class="st2" d="M884,487.5c-.3.9-.2,2-.3,3,0,1.6-.5,4-.7,5.6-.5,2.3-.5,5.3-2.3,7.1-1.5,1.5-5.5.5-7.6.7-2.9,0-3.3,0-5.8,1.5"/>
        <path class="st2" d="M858.8,499.8c1.9,1.5,3.9,3,6.1,4.3,4,2.2,7.6,3.2,11.6,6.4"/>
        <path class="st2" d="M870.8,498.6c3.1,1.5,5.8,3.7,9.1,4.6.6.2,1.2.3,1.9.4.9.3,1.7.7,2.5,1.1,2.7,1.4,8,4.1,8,4.1,4.1,2,7.9,5,12.3,6.2.8.2,15.9,8.1,15.9,8.1,5.6,2.7,10.8,6.8,16.9,8.5,1.1.3,2.3.5,3.4.8,1.6.5,3.1,1.2,4.6,2"/>
      </g>
      <path class="st2" d="M892.2,508.7"/>
      <g>
        <path id="STROKE_6fd54d03-8f42-4b8f-9218-79b73dab31e11" class="st2" d="M645.4,544h3.7c5.6.5,11.5-.8,16.9.9,2.8,1.9,1.7,13.8,1.5,15.2h0c-.2,2-.6,4.1-.6,6.1.4,13.9,2.5,13.3-12.2,13.3s-4.4.4-8.1.3"/>
        <path id="STROKE_963e31de-6e59-4607-94f0-7db70527b8551" class="st2" d="M645.5,548h8.5c12.1,0,10.5-2,10.5,10.3,0,0-.5,6.9-.6,11.5h0c-.2,2,.6,4.1,0,6-1.5.4-3.3,0-4.9,0s-4.1.5-6.1.5c-3.9-.2-3.2-.2-7.1,0"/>
        <path id="STROKE_085025f6-cf36-49b5-a206-b96ff1b42cbb3" class="st2" d="M698.5,527s-.3,3.4,0,5.7c0,3.3,0,6.8-.2,10.2-.3,2.3.4,5.4-1.2,7.1-1.8,1-3.9.4-5.9.5-2.9.3-5.8,0-8.7,0-3.6.2-10.9-.3-14.5-.9"/>
        <path id="STROKE_37788aa1-5559-498d-bf0e-20b509d081bc3" class="st2" d="M695.4,526.8c0,3.7,0,8.9-.2,12.6-.2,1.5.5,6.7-1.1,6.9-2.4.6-5.1,0-7.6.4-3.1.5-6.1.5-9.3,0-2.5-.2-7.6.5-10,0"/>
        <path id="STROKE_40ad105f-4574-4dd8-a3ee-a79b12b845d03" class="st2" d="M645.8,503.8c8.4-2.2,17.6-4.5,24-5.8,0,0,1.9,9.8,2.6,14.9.9,6.9,2.3,11.7,10.4,10.2,2.8-.4,5.7-.3,8.6-.4,3.1-.3,7.5.6,7.2,4.3"/>
        <path id="STROKE_99ccc830-d7d5-497d-997c-f5d2aa283fa83" class="st2" d="M651.8,502.4c.6,1.6.3,3.7.5,5.4.2,3,.8,7.3,1.3,10.1.9,4.2.9,9.7,4.2,12.9,2.7,2.7,10,.8,13.8,1.2,5.3,0,6.4,0,10.9,2.8"/>
        <path class="st2" d="M697.8,525c-3.4,2.7-7,5.5-11.1,7.8-7.2,4-12.5,7.5-19.9,13.4"/>
        <g>
          <path id="STROKE_085025f6-cf36-49b5-a206-b96ff1b42cbb4" class="st2" d="M720.7,511.5s-.2,2.5,0,4.2v7.4c-.2,1.7.3,3.9-.8,5.2-1.3.7-2.8.3-4.3.3-2.1.2-4.2,0-6.4,0s-7.9-.3-10.5-.6"/>
          <path id="STROKE_37788aa1-5559-498d-bf0e-20b509d081bc4" class="st2" d="M718.5,511.3c0,2.7,0,6.6-.2,9.3,0,1.1.4,4.8-.8,5.1-1.7.5-3.7,0-5.5.3-2.2.3-4.5.4-6.7,0-1.8-.2-4.9.5-6.7,0"/>
          <path id="STROKE_40ad105f-4574-4dd8-a3ee-a79b12b845d04" class="st2" d="M669.8,498s19.4-5.4,30-7.6c0,0,1.4,7.1,1.9,10.9.7,5,1.7,8.5,7.6,7.5,2.1-.3,4.2-.3,6.2-.3,2.2-.3,5.5.5,5.3,3.1"/>
          <path id="STROKE_99ccc830-d7d5-497d-997c-f5d2aa283fa84" class="st2" d="M686.6,493.5c.4,1.2.2,2.7.3,4,0,2.2.6,5.3,1,7.4.7,3.1.7,7.1,3.1,9.4,1.9,2,7.3.6,10,.9,3.9,0,4.7,0,8,2.1"/>
          <path class="st2" d="M720.1,510c-2.5,2-5.1,4-8.1,5.7-5.3,2.9-8.8,5-14.2,9.2"/>
        </g>
        <g>
          <path id="STROKE_085025f6-cf36-49b5-a206-b96ff1b42cbb5" class="st2" d="M738.3,500.4s-.2,1.9,0,3.2v5.6c0,1.2.2,3-.6,3.9-1,.5-2.1.2-3.2.3-1.6.2-3.2,0-4.8,0s-6.7-.2-8.7-.5"/>
          <path id="STROKE_37788aa1-5559-498d-bf0e-20b509d081bc5" class="st2" d="M736.6,500.3v7c0,.8.3,3.7-.6,3.8-1.3.3-2.8,0-4.2.2-1.7.3-3.4.3-5.1,0-1.4-.1-4.6.3-5.9,0"/>
          <path id="STROKE_40ad105f-4574-4dd8-a3ee-a79b12b845d05" class="st2" d="M699.8,490.4s14.8-4.2,22.8-5.9c0,0,1.1,5.4,1.4,8.2.5,3.8,1.2,6.4,5.7,5.6,1.5-.3,3.1-.2,4.7-.2,1.7-.2,4.1.3,4,2.3"/>
          <path id="STROKE_99ccc830-d7d5-497d-997c-f5d2aa283fa85" class="st2" d="M712.6,486.9c.3.9.2,2,.3,3,0,1.6.5,4,.7,5.6.5,2.3.5,5.3,2.3,7.1,1.5,1.5,5.5.5,7.6.7,2.9,0,3.3,0,5.8,1.5"/>
          <path class="st2" d="M737.9,499.3c-1.9,1.5-3.9,3-6.1,4.3-4,2.2-7.6,3.2-11.6,6.4"/>
          <path class="st2" d="M631.7,544.1"/>
          <path class="st2" d="M725.9,498c-3.1,1.5-5.8,3.7-9.1,4.6-.6.2-1.2.3-1.9.4-.9.3-1.7.7-2.5,1.1-2.7,1.4-8,4.1-8,4.1-4.1,2-7.8,5-12.3,6.2-.8.2-15.9,8.1-15.9,8.1-5.6,2.7-10.8,6.8-16.9,8.5-1.1.3-2.3.5-3.4.8-1.6.5-3.1,1.2-4.6,2"/>
        </g>
        <path class="st2" d="M704.5,508.2"/>
      </g>
    </g>
    <g>
      <g id="New_Layer_21">
        <path id="STROKE_efa9bafb-3683-4f0b-a30c-3de88a8ebcaa" class="st23" d="M713.2,503.3c-.8,2.6-.3,4.2,1.6,6.2.6.6,1.3,1,1.5,1.9.4,1.4,0,3-.3,4.4.7-1.2,1.5-2.3,1.3-4-.2-2.1-1.7-3.1-1-5.5.8,2.7,3.5,4.3,2.3,7.6-.5,1.5-1,2.8-.4,4.4,0,0,.7-1.6.8-1.8.3-.6.6-.9.8-1.6.8-2.3,0-4.8-.6-7v-1s1.6,2.3,2.2,3.5c.9,1.7.4,3.7.3,5.5,0,.9.3,1.9.4,2.8v.6c1.2-2.4,1.4-5.7.8-8.3,0-.5-.5-1.1-.6-1.6,0-.4-.4-1.4-.4-1.8,0-1.8-.2-1.2.9-.3,2.5,1.8,1.9,3.3,1.9,5.9s.6,2.6.3,4.3c.3-1.9,1.2-4.2.9-6.1-.3-1-.6-2.1-.8-3.1,0-.7-.3-1.4-.6-2.1s-.6-2.7-.6-2.7c-.4-1.6-.7-6.6,1-6.6s1.5,5.5,1.9,7c1,3.3,2.7,10,5.4,11.7s6.6,1.4,7.6,1.5,2.1,0,2.2-.9c0-.5-.3-1-.6-1.1-.8-.3-3,0-4-.2s-2.5-.8-4-1c-1.8-1.5-3.7-7.8-4.4-12.7-.3-1.9-2.1-5.2-2.8-6.7-1.5-2-2.7-.8-2.3-4,.4-2.8.7-6.3-3.3-5.8-1.4,0-2.8,0-4.1.3-1.2.3-2.5,1.1-2.6,2.4,0,1.6.5,3.2.9,4.7.2.5.2,1.1.3,1.7,0,.2,0,.1-.2.2-1.8-.1-3.7.8-5,1.9-.3.2-1.1.2-1.4,0-.6-.4-5-3.7-5.5-6.2-1.1-2.7-4.6-3.6-7.1-2.4-1,.5-2,1.3-2.8,2-.5.5-1.4.9-1.9,1.4-1.7,1.5-.6,2.6,1.3,2.1,2.3-.9,4.1-3.6,6.8-3.4,1.9.3,2.1,3.2,3,4.2s4.6,6.3,7.4,5.2c1.2-.5,2.7-.9,3.8-1.6,3.7-2.6,1.3,1.9.7,3.5-.5,1.2-1,2.9-1,2.9h0v-.3h0Z"/>
      </g>
      <path id="STROKE_0e1884c4-3386-468a-9623-164377cd5c16" class="st22" d="M717.8,488.9c.3-.5,0-1.3-.4-1.6-.6-.4-1.5-.2-1.8.4-.7,1.6,1.2,2.7,2.2,1.2h0Z"/>
      <path id="STROKE_7f70717c-76e1-4d64-b2c0-ab83968c73ee" class="st22" d="M722.8,487.7c.6-1.8-1.7-2.3-2.3-.9-.5,1.5,1.5,2.3,2.3.9Z"/>
      <path class="st12" d="M718.6,490.5c-.4,0-.9,0-1.2.2,0,0-.5.3,0,1s.6.6,1.5.6,1.8.3,1.9,0,.5-1.1,0-1.3-1.5-.4-2.3-.5h0Z"/>
    </g>
    <g>
      <path id="STROKE_fd284d13-50bc-42fc-8bbe-fb9fb5744b331" class="st9" d="M707,502.4c.3-.2.6-.4.9-.6.7-.6,1.6-1.1,2.5-1.2s1.6,0,2.1,0,1.4.5,2,.7,1.2.7,1.8,1.2c.2.2.5.3.7.6l-1.4,5.5-.4.3s0,3.2-.2,3.5c0,0,0,.2-.2.3s0,0,0,0h-.3c-.3,0,0-3.2,0-3.4h-.6v3.1s0,.2-.2.2,0,0,0,0h-.3s-.2-.3-.2-.4v-3h-.6v3.4s-.3.2-.5,0-.2-.3-.2-.3v-3.1h-.6v3.3s-.3.2-.5,0,0,0-.2,0,0,0,0-.2v-3h-.6v3.3h-.7v-3.4l-.3-.2-2.8-6s.6-.5.8-.6h0Z"/>
      <path id="STROKE_a86008a8-9918-471c-95f9-648a296448a41" class="st12" d="M712,507.2c.4.2.6-2.3-.3-2.1-.3.1-.3.6-.2.8,0,.5.2,1.1.5,1.3h0Z"/>
      <path id="STROKE_585e831d-3539-4d43-ba70-2e4e5c4b74981" class="st22" d="M713.8,502.5c-1.6.6-.8,2.9.9,2.6,1.9-.7.6-3.1-.9-2.6Z"/>
      <path id="STROKE_7819c8f3-7a07-4eb6-bb83-ff6bafd390ce1" class="st22" d="M709.9,503.4c-.6-.4-1.9-.2-2.1,1-.2,1.4,2.3,2.2,2.6.7s.3-1.2-.5-1.7h0Z"/>
    </g>
    <g>
      <path id="STROKE_00373ba1-bbc9-49cb-83fc-8f32786eba22" class="st24" d="M688.7,508.4c-3.2,3.9,9.3,6.7,7.2,11.4-.3,1.2-1.1,2.3-1.2,3.6,0,1.5-.6,3-1.7,4.1-.7.7-1.7.9-2.7,1.2-1.8.8-3.8-.2-5.3-1.1-4.6-6.6-6.3-8.6-8.6-14.3-.7-7.7,2.3-11,7.1-16.4,2.1-2.7,4.6-6.2,8.4-6,7.1-.4,11.2,6.2,12.3,12.5,1.3,4.2,7.6,7.8,8.2,12.2.5,2.1,0,4.2,0,6.2.3,2.1.2,4.3-.9,6.2-2.3,3.9-8.6,3.7-10.2-.7-1-7.5-2.6-15.4-6.8-22.3-1.5-2.1-3.2-2-3.9.7-.3,1-1.1,2-1.9,2.6h0Z"/>
      <path id="STROKE_271450b7-eb74-4e5f-b54e-d9b80491fb90" class="st12" d="M693.4,501.2c0,1.2,1.8,1.2,1.4-.2v-.3c0-1.2-1.9-1.2-1.5.2v.3h0Z"/>
      <path id="STROKE_261bd53e-b5f4-4373-92b1-3cafcaeb6add" class="st22" d="M697.3,496.9c-1.6-.7-2.7,1.9-1.1,2.4,1.7.5,2.8-1.7,1.1-2.4Z"/>
      <path id="STROKE_3e212aee-5104-4842-8a93-814509743cba" class="st22" d="M691.7,496.2c-1.3-1.5-3,.6-2,1.9,1.4,1.1,2.9-.5,2-1.9Z"/>
    </g>
    <g>
      <g id="New_Layer_7">
        <path id="STROKE_463343da-bf41-42fb-8396-f0ae27bbffb2" class="st15" d="M877.9,493.9c0-1.4-.5-2.4-1-3.5-.3-.8-.6-1.7-1.1-2.5-2.1-3.1-5.5-4.7-9.2-4.4-1.3,0-2.4.5-3.6.7-1.4.3-2.8.6-3.9,1.5-2.6,1.6-4.8,4.5-4.2,7.7.6,5.9,3.2,7.5-.7,13.2-.8,1.1-1.9,2.2-1.9,3.6s.3.5.6.3c.6-.5.6-1.5,1.1-2.1.6-.8,1.6-1.4,2.1-2.3.7-1.6,1-3.5,2-5,.6-1.1,2.1-1.9,1.4,0-.3.8-.9,1.7-1.2,2.6-.3,1.1-.6,2.4-1,3.5s-1.9,2.3-1.1,3.5c1.2.6,1.5-2.1,2.1-2.8.9-1.7,1.8-3.4,1.9-5.3,0-.9.5-3.8,1.8-2.9.3,1-.2,2.1-.2,3.2-.3,1.2-.4,2.5-.6,3.7-.2.9-.9,1.6-.9,2.5s0,1.6.6,2c1.4,0,.3-1.1.4-1.8.3-1.2.9-2.3,1-3.5.2-1.3,1-6.8,2.7-6.6.5,0,.6.7.4,1.1-.2.6-.8,1-.9,1.6,0,.5.3,1,.3,1.6,0,1,0,2.1-.8,2.9-.4.5-.8.7-.8,1.3,0,1.1.2,2.3.6,3.3.8,1.1,1.5.1,1-.9-.2-.9-1.1-1.9,0-2.6s1.9-1.7,1.5-3c-.3-1.4-.3-2.9.6-4.1.3-.4.4-1,.7-1.3.5-.5,1.2-.3,1,.5,0,1.7-.2,3.5-.5,5.1v2.5c-.2.7,1.6-.6,2-3.8,0-1.4-.6-3,.2-4.2.8-.5,1.5,0,1.4.9,0,.8-.7,1.7-.6,2.6,0,1.3,2.3,4.5,2.5,3,0-1.2,0-2.1-.2-3.2-.3-1.2-1.6-4,.4-4.2,1.2.2.4,3,.5,4-.2,1.3,0,2.6.2,3.9,0,1.1,1.2,2.7,1.2,1.9,0-2.5-.6-5.1,0-7.6.2-.7,0-1.7.5-2.3.5-.5,1.1,0,1.2.5.3,1.8-.8,3.7-.6,5.5,0,1.5,1.1,1.3,1.2-.4,1-3.6.2-3.5-.2-6.8,0-1.2.5-1.7.5-3h-.4Z"/>
      </g>
      <path id="STROKE_8ccff32f-4e58-4b73-b056-0a1d2d05225e" class="st13" d="M863,493.9c.5.8,1.7.7,2.2-.1,0,0,.4-1-.7-1s-2.1.2-1.5,1.2h0Z"/>
      <path id="STROKE_0e1884c4-3386-468a-9623-164377cd5c161" class="st22" d="M860.5,493.7c.9-1.2.2-2.7-.8-3.4-1.2-.7-3.1-.4-3.8.9-1.5,3.5,2.9,4.8,4.6,2.5Z"/>
      <path id="STROKE_7f70717c-76e1-4d64-b2c0-ab83968c73ee1" class="st22" d="M874.4,493.7c1.4-3.8-3.6-4.9-4.9-2-1,3.3,3.2,4.8,4.9,2Z"/>
    </g>
    <g>
      <path class="st6" d="M866.3,499.2c0,.3-.2.5-.3.7-.3,1.4.3,2.8,1.4,3.6,0,.9.5,1.7,1.2,2.3v.3c-.3,0-.6.1-.8.3-.3,0-.7.1-.9.4-.5,0-1.1.3-1.2.8s0,.2,0,.3-.2.3-.3.5,0,.3,0,.5-.2.3-.3.5,0,.3,0,.4h0c0,.1,0,.3-.2.4s0,.3,0,.4v.3c0,.6.3,1.2.8,1.3s1.2-.3,1.3-.8,0-.3,0-.4v-.7h0c0-.1,0-.3.2-.4s0-.3,0-.5.2-.3.3-.5,0-.2,0-.3h0c.3,0,.7-.2.9-.4.5,0,.9-.3,1.1-.7.5,0,1-.3,1.1-.8.6,0,1.2,0,1.7-.3.3.7.9,1.2,1.6,1.6,0,0-.2.1-.3.2-.5,0-.9.4-1,.8s0,.2,0,.3c-.2.2-.3.4-.4.6s0,.3,0,.4,0,.3-.2.4,0,.3,0,.4-.2.3-.2.4c0,.6.3,1.2.8,1.3s1.2-.3,1.3-.8,0-.3,0-.4.2-.3.2-.4v-.4c0-.1,0-.3.2-.4s0-.2,0-.3c0,0,.2-.1.2-.2.3,0,.5-.1.6-.3.4,0,.7-.2.9-.5.5,0,1-.3,1.1-.8s0-.3,0-.5c.3-.2.5-.3.7-.6.4.3.8.5,1.3.6,1.6.3,3.2-.5,3.9-1.9,1.6,0,3-1.2,3.3-2.8.3-1.6,0-.3,0-.4,1-.4,1.9-1.3,2.1-2.5.4-1.9-.8-3.8-2.7-4.2s-.5,0-.7,0c-.5-.8-1.3-1.5-2.3-1.7s-1-.1-1.5,0c-.2-1.4-1.3-2.6-2.8-2.9s-2.8.3-3.7,1.5c-.3-.1-.6-.3-.8-.3-1.3-.3-2.6.2-3.4,1.2-.4-.3-.8-.5-1.3-.6-1.9-.4-3.8.8-4.2,2.7s.2,2.5,1,3.3h0c0,.1.3,0,.3,0h0Z"/>
      <path id="STROKE_a606891e-5f5c-4ee5-8c9c-daa7b2003838" class="st13" d="M873.6,502.7c0,.9,1.3,1.1,2,1.1l.3-.2c.6-.7,0-1.7-.6-2.2-1.7-1.5-1.7.7-1.6,1.3h-.1Z"/>
      <path id="STROKE_c4ab084e-b298-4243-bf50-5929c1d94600" class="st22" d="M881.6,501.6c-.8.3-1.8.3-2.5-.2-1.5-1.2-1.7-4,.4-4.5,3-.7,5,3.6,2.1,4.7Z"/>
      <path id="STROKE_8329b6f4-9c7a-4829-b578-0082285b7684" class="st22" d="M868.8,496.6c3-1.7,5.3,2.8,2.5,4.6-1.2.8-3.3.5-3.8-1.1-.4-1.4-.2-2.9,1.3-3.5h0Z"/>
    </g>
    <g>
      <path id="STROKE_72cc54be-af4a-4b7b-827c-fbc532cb380b" class="st14" d="M889.6,522.8c0,.5-.2,4.5-.6,4.7-.2,0-.7.2-.9,0-.7-.3-1-4.8-.9-5.5,0-2.6,2.5-1.1,2.3-3.6,0-.3-.2-.6-.5-.8h0c-.2,0-.5-.2-.7,0-.7.4-1.3,1.1-2.1,1.4h-1.3c-.3-.3-.3-1,0-1.4,0-.3.5-.8.7-1.1.4-.5,1.3-1.4.8-2-.7-.3-1.7,0-2.4.3-.5,0-1.2.3-1.8,0,0,0-.3,0-.3-.3,0,0-.2-.3-.3-.4,0-.3,0-.7.3-1,.3-.8,3.5-2.2,2.5-3.1h0c-1.1-.6-4.4.6-3.9-1.6.7-1.5,2.6-.8,3.7-1.7,1.2-1.3-1.7-1.6-2.3-2.3-.7-.6-1-1.7,0-2.2.4-.3,1.2-.3,1.6-.2h.2c.6.2,1.5.5,2.1.3h0c.4-1.1-1.6-2.2-1.8-3.4v-1.2c0-.2.3-.3.6-.2h.8c1,.2,1.7,1.2,2.8,1.3.3,0,.5-.1.6-.3v-.8c-.2-.3-.4-.7-.6-1,0-.2-.2-.4-.3-.6v-1.3c0-.5.6-1,1.2-.9,1.1,0,1.7,2,2.8,2.4h.4s.2-.1.2-.3c.2-1.2.2-2.7.8-3.9l.3-.3c1.6-.5,2,2.1,2.3,3.2h0c.5,1.1,1.1,1.1,1.3-.1.2-.8.9-1.6,1.3-2.3.2-.3.4-.5.7-.6h.8c.3.2.4.4.5.7.3,1.2-.5,2.7.4,3.7.5,0,.9-.7,1.2-1,1.1-1.5,3.7-2.7,3.3.3-.2.8-.9,1.4-1,2.2v.5c.2.2.4.4.6.3,1-.1,1.5-1.2,2.5-1.4,1.4-.5,2.1,1.2,1.4,2.3-.4,1-2.4,1.3-2,2.6.2.5.8.7,1.3.6.4,0,.9-.1,1.3-.3.3,0,.8-.2,1.1,0,.4.2.6.6.6,1,0,1.3-1.6,1.5-2.5,1.8-.6.2-1.3,1.2-.6,1.6,1,.8,2.6.2,3.4,1.2.3.4.3,1.1,0,1.5-1,.8-2.5.2-3.6.5-.2,0-.6.5-.7.6,0,1.5,2.2,1.8,2.9,2.9,0,1.2-.5,1.7-1.6,1.5h-.5c-.4,0-1-.3-1.4-.5-3-.5-.5,2.2,0,3.3v1.1c0,.4-.3.4-.4.5h0c-.4,0-1.1,0-1.5-.3-.5-.2-.9-.6-1.2-.9-.4-.3-.8-1.1-1.4-.8-.7.5-.4,1.9-.5,2.6,0,0-3.3,3.7-3.7,5.2-.4,1.6.3,3.2.3,3.2,0,.5,0,.9-.5,1.2h0c-.3.3-.7.3-1,.2h-.2c-1.2-.9-.8-3.7-.9-5.1,0-1,1.7-2.3,1.8-3.3,0-.7,0-1.6-.4-2.2h-4.7s-2.6,3.2-2.7,3.5h0Z"/>
      <path id="STROKE_316d4fec-0d6a-4ee4-90fc-03d0b3faf70f" class="st13" d="M893.8,515.7c1.2.8,3.1,0,3.3-1.5,0-1.7-1.4-3.7-2-5.2,0,0-2.7,4.8-1.3,6.8h0Z"/>
      <path id="STROKE_0410ac66-0648-43b5-8baa-836226ac1cf2" class="st22" d="M894.8,506c-.5,1.1-1.9,3.1-3.5,3.5-1.1.1-2.4.2-3.3-.4-1.6-.8-2.4-3.2-2.4-4.4s.7-3.4,3.3-4.2,7.4,2.1,5.9,5.5Z"/>
      <path id="STROKE_d1fa847f-232b-4055-b82d-4da4aac0eb80" class="st22" d="M898.4,501.1c-3.9,3.1-1.5,9.4,3.5,8.5,1.6-.3,2.9-1.5,3.6-2.9.7-1.5.5-3.6-.7-4.7-.8-.8-2-1.5-3.2-1.8-1.1,0-2.4,0-3.2.9h0Z"/>
    </g>
    <g>
      <path id="STROKE_fd284d13-50bc-42fc-8bbe-fb9fb5744b333" class="st9" d="M656.1,520.3c0-.5-.4-.9-.5-1.4,0-.4-.3-.8-.4-1.2,0,0,0-.4-.2-.5,0-.4-1.3-4.5-1.3-4.5,0,0,1-.8,1.2-1.1.4-.3,1-.6,1.4-.9,1.2-1,2.5-1.6,3.9-1.8h3.3c1.1.1,2.2.7,3.2,1.2,1,.4,2,1.2,2.9,1.8.3.3.8.5,1,.9,0,.3,0,.5-.2.7-.4.7-2.5,8.2-2.5,8.2l-.7.6v5.3s0,.3-.3.4h-.7c-.4,0,0-5.1-.2-5.4h-.9v4.9s0,.3-.3.3h-.6c-.2,0-.3-.4-.3-.6v-4.7h-.9v5.1s0,.2-.2.3c-.2.2-.5.2-.8.2s-.2-.4-.3-.6v-4.8h-1v5.2h0c0,.3-.6.4-.8.3,0,0-.2,0-.3-.2v-5.1h-1v5.1h0v.2c-.2,0-.5.2-.7,0h0s-.2-.2-.2-.3v-5.2l-.6-.3s-.5-1.9-.7-2.2h-.3Z"/>
      <path id="STROKE_a86008a8-9918-471c-95f9-648a296448a43" class="st12" d="M662.7,516.9c-.2-.2-.6-.5-.8-.5,0,0,0-.3-.5,0s0,.3,0,.5c0,0,.3.7.5,1s.6.5.8.5c0,0,0,.2.3,0s0-.4,0-.4h0s-.3-.7-.5-1h.2Z"/>
      <path id="STROKE_585e831d-3539-4d43-ba70-2e4e5c4b74983" class="st22" d="M666.5,511.6c-.3,0-1,.3-1.2.5-.4.4-.8,1.8-.5,2.3s1.9,1.5,2.7,1.4,1.9-1.8,1.2-2.9c0,0-.2-.4-.3-.5-.5-.4-1.4-.8-2-.8h0Z"/>
      <path id="STROKE_7819c8f3-7a07-4eb6-bb83-ff6bafd390ce3" class="st22" d="M659.1,512.4c-1.5-1.3-3.3-.7-3.7,1.2-.3,2.2,3.3,3.3,4.1,1.1,0-.7.3-1.9-.4-2.3h0Z"/>
    </g>
    <g>
      <path id="STROKE_d2b1c2ce-b6cf-47ff-9af1-c0fe6a95904e" class="st10" d="M905.5,531.5c0,1.5-.4,5.9,2.1,5.6h0c1.6-.7,1.3-4.3,1.3-5.8s3.1-2.7,3.1-2.7c0,0,.7,0,.9.2,1.2.3,2.6,0,3.8,0h.9c-.2,1.5-3.5,4-3.5,5.6s-.3,3.2,1.1,3.7h1.2c1.4-.6.9-2.4,1.1-3.7,0-2.1,2.3-3.7,3.2-4.7s1.5-2.6,1.5-2.8l1.7-1.7c.7-.8,1.4-1.5,2-2.5,1-2.2,2.4-4.4,2.2-6.8,0-2.8-1.6-5.5-3.3-7.7-2.9-3.1-7.5-5.2-11.7-4.4-3.9.3-6.9,3.9-8.6,7.2-1,2.3-1.5,4.9-1.5,7.5s.6,3,1.3,4.3c1.1,1.5,2.4,3,4.1,4v.7s-3.2,2.8-3.2,4.1h.3Z"/>
      <path id="STROKE_9dce4f96-e5ee-4000-9617-31179f99f9c9" class="st13" d="M914,520.4c0,.5.4,1.1.8,1.4,1.4.7,2.1,0,2.2-1.5v-.3c0-.5-.4-1.1-.8-1.4-1.4-.7-2.1,0-2.2,1.5v.3h0Z"/>
      <path id="STROKE_8d0d0662-7a88-4cf3-a073-a478b1813288" class="st17" d="M924.4,515.2c-.7-.8-2.1-1.2-3.2-.8-.9.5-2,1.1-2.1,2.2-.5,2.3,1.5,4.4,3.8,3.7,1-.2,1.8-1.2,2.1-2.2s0-2-.6-2.9h0Z"/>
      <path id="STROKE_27e9f89f-2814-4414-88a6-065fa93ea2f2" class="st17" d="M911.6,515.1c-1.8-2.3-4.8-.6-5.2,2.1,0,.8.3,1.7.9,2.3.8.7,1.9,1,3,.9s.7,0,1-.3c.7-.5,1.2-1.4,1.4-2.1,0-1.1-.6-2.3-1.1-2.9h0Z"/>
    </g>
    <g>
      <g id="Pen">
        <path id="STROKE_9ab8ce2b-e6b5-47b3-be58-a1990f77dbed" class="st16" d="M667.9,516.3c-6.4,6-.9,16.5,7.6,14.9,5.4,6.1.6,16.6,4.4,15.2,1.2-1.5.4-5.2.5-7.1.5-3-.7-5.5-2.4-7.9,1.6,1.1,4.2,1.9,6.1,1,3.1,3.7,2,8.6,2.1,13.1,0,1.1,1.7,1.7,2.1.5.5-3,.2-6.1.3-9.1,0-1.9-1.4-3.4-2.1-5.1,3.6-1.5,5.6-6,4.6-9.7,6.1-5.9-.9-16.3-8.8-14.1-5.1-5.8-16.5,1.1-13.8,8.2l-.6.2h0Z"/>
      </g>
      <path id="STROKE_258c9859-67f1-43a8-9462-32ddfdd3de1c" class="st17" d="M689.8,513.2c-4.8-3.9-10.2,2.7-5.9,6.5,4.7,3.3,9.3-2.8,5.9-6.5Z"/>
      <path id="STROKE_258c9859-67f1-43a8-9462-32ddfdd3de1c1" class="st17" d="M677.3,513.6c-4.8-3.9-10.2,2.7-5.9,6.5,4.7,3.3,9.3-2.8,5.9-6.5Z"/>
      <path id="STROKE_3299031d-4c62-4f85-94d0-447bd115ea62" class="st13" d="M681.1,523.6c.7-1.2.8-2.3-.2-3.4h-.8c-.7,1.3-.8,2.4.2,3.5h.8Z"/>
    </g>
    <g>
      <path id="STROKE_efb78509-4c76-414b-befd-62359a42beb8" class="st11" d="M947.9,514.3c-4.2-3-10.3-3.5-15-1.3-3.2,1.5-4.8,4.8-6.1,7.9h0c-.2.8-.4,1.6-.5,2.4v1.5c-.7,3.2-1.4,6.4-1.2,9.7.3,3.5,3.2,7.9,7.1,8,1.5-.4,2.6-2,3.8-2.9.4.6.8,1.5,1.4,1.9,3.6,2.2,4.3,0,6.9-2.1h0c.2.2.5.7.7.9s2,1.3,2.7,1.7"/>
      <path id="STROKE_cf9f190d-9656-437d-b696-dedd2efccfe6" class="st13" d="M937.7,532.1c0-.8.5-2,1.5-1.7,0,0,.2,0,.3.2.4.4.7,1,.8,1.5v.2c0,.8-.5,2-1.5,1.7,0,0-.2,0-.3-.2-.4-.4-.7-1-.8-1.5v-.2Z"/>
      <path id="STROKE_baf23dd3-caa2-4512-9fb8-1c79c1035e4e" class="st17" d="M942.4,527.8c.5-1.3,3.3-1.4,4,0,.7,1.1.8,2.7-.2,3.7s-2.3.9-3.2.3c-1.2-.8-1-3.1-.6-4Z"/>
      <path id="STROKE_214e9254-614f-4342-b841-c23d4596f877" class="st17" d="M931.7,527.4c1.1-1.2,2.8-.9,3.7.3,1.2,1.4.6,3.6-1,4.4-3.1.8-4.7-2.3-2.7-4.6h0Z"/>
    </g>
    <g>
      <path class="st5" d="M644.9,543.8c2.1.3,4.3,0,6.1-.7,4.8-2.1,6.7-.3,9.7-.3s6.4.5,4.8-1.5c-1.6-.7-3.5-.2-5.2-.3-2.5,0-5.1,0-7.6-.2.2-.5.7-1.2,1-1.7h8.2c1.2,0,4.5.6,3.9-1.4-1.3-1.1-3.2-.3-4.7-.3-2.3.2-4.8.2-7.1,0v-2.6c1.7,0,3.6,0,5.3.2,1.1,0,7.8.9,6.6-1.2-1.6-.7-3.6-.5-5.3-.5h-6.4c0-2.3.4-5,.6-7.3h9.8c.5,0,1.4-.2,1.4-.8s-.4-.7-.8-.8c-3.3,0-6.9.3-10.2,0v-1.4c1.5,0,3.3,0,4.9.2h5.1c1.9-.3.9-1.8-.6-1.7-3.1,0-6.3.3-9.3.2v-2.3c1.5,0,3.2-.2,4.7-.2s6.8,1.1,6-1.1c-.5-1.2-4.3-.5-5.5-.6-1.6,0-3.6,0-5.1-.2,0-.8.5-2.2.6-3,.2-1.1-.2-2.4-.2-3.5,2.2-.4,9.1.9,10.2-.5.8-1.9-3.5-1.2-4.5-1.3-1.9,0-4.1.1-6,.2-.3-1,.6-2.4.2-3.4,3.7.2,6,.2,9.7,0,.7,0,1-.7.6-1.3,0-.1,0-.2-.3-.2-4.1-.5-6.2.1-10.4-.1-.7-.5,0-1.9,0-1.9,0,0,4.9.3,9.2.3,1.2.2,3-1.1,1.1-1.8-2.7-.6-5.5-.2-8.2-.5,0,0-2.6,0-2.9-.6-1.2-2.3.6-7,0-10.5-1-4.1-5.1-6.9-9.3-6.7"/>
      <path id="STROKE_f94f754f-33a8-4f95-91ab-9ada959bf062" class="st12" d="M646.8,491.5c.2-.7.9-1.6,1.7-1,.3.3.7.7.7,1.1v.2c-.2.7-.9,1.6-1.7,1-.3-.3-.7-.7-.7-1.1v-.2Z"/>
      <path id="STROKE_57f05e90-c9d5-44c1-918d-3a76c8b861cd" class="st22" d="M649,487.5c1.4-2.1,4.2,0,2.8,2-1.5,1.7-3.9,0-2.8-2Z"/>
    </g>
    <g>
      <path id="STROKE_fd284d13-50bc-42fc-8bbe-fb9fb5744b332" class="st9" d="M665.6,486s.6-.8.7-1.1c.3-.3.6-.6.9-.9.7-.9,1.6-1.7,2.7-2.1.2,0,2.3-.6,2.6-.6.9-.1,1.7.2,2.6.3.8.1,1.7.5,2.5.9.3.2.7.2,1,.5,0,.2-.2,7.2-.2,7.2l-.3.5s.8,3.9.8,4.3v.3h-.3c-.3.1-1-3.7-1.1-4l-.7.2.9,3.7v.3h0s-.3.1-.4.1c-.2,0-.3-.3-.3-.5l-.8-3.6-.7.2.9,3.9v.3c0,.2-.4.2-.6.3,0,0-.2-.3-.3-.4l-.9-3.7c-.2,0-.6,0-.8.2l.9,3.8v.2c0,.2-.4.4-.6.3,0,0-.2,0-.2-.1,0,0,0-.2-.2-.2l-.9-3.7s-.6.1-.7.2l.9,3.7v.3h0s-.3.2-.5.1h0s-.2-.1-.2-.2v-.2c0-.6-.8-3.2-1-3.8h-.5c0-.1-.9.4-1.1.2l-4.1-6.9h0Z"/>
      <path id="STROKE_a86008a8-9918-471c-95f9-648a296448a42" class="st12" d="M673.2,490.2v-.8c0-.2,0-.5-.4-.7,0,0-.3-.3-.4.1v.8c0,.2,0,.5.4.7.2.4.4-.1.4-.1Z"/>
      <path id="STROKE_585e831d-3539-4d43-ba70-2e4e5c4b74982" class="st22" d="M673.5,487.5c.3.5,1.6,1,2.3.7.9-.6,1-2.3,0-2.8s-1.5-.4-1.9-.1-.6.5-.6.7c0,.4,0,1.2.2,1.5h0Z"/>
      <path id="STROKE_7819c8f3-7a07-4eb6-bb83-ff6bafd390ce2" class="st22" d="M667.8,487.4c0,1.7,3.1,1.8,3.3,0,0-.5-.3-1.4-.7-1.7-.7-.4-2.6-.3-2.6,1.7h0Z"/>
    </g>
    <g>
      <path id="STROKE_fd284d13-50bc-42fc-8bbe-fb9fb5744b334" class="st9" d="M645.1,548.4s.2,0,.2.2v4.8h.9v-4.8h0v-.2c.2,0,.5-.2.6,0h0l.2.2v4.9l.5.3.6,2.1h0c0,.4.3.8.5,1.3,0,.4.3.8.4,1.2,0,0,0,.3.2.5,0,.4.3.8.4,1.2.3.8.5,1.8.8,2.6v.5h0v.2c-.3.3-.7.6-.9.8-.4.3-.9.6-1.3.8-1.1.9-2.3,1.5-3.7,1.7"/>
      <path id="STROKE_7819c8f3-7a07-4eb6-bb83-ff6bafd390ce4" class="st22" d="M645.3,562c1.4,1.2,3.2.7,3.5-1.2.2-2-3.1-3.1-3.9-1,0,.6-.2,1.8.4,2.2h0Z"/>
    </g>
  </g>
  <g id="Ebene_11">
    <path id="STROKE_013db70b-df31-4fdb-b11b-c7fddbe5fe91" class="st1" d="M1032.7,730.2c32.3,57.4,72.8,110,101.9,169.2"/>
    <path id="STROKE_235e3a1d-2595-4fe5-b798-2b67b94fd407" class="st1" d="M1031.1,138.4c55.8-49.6,87.4-84.8,139.3-138.4"/>
    <path id="STROKE_a9689fb8-dd6d-4fcd-9289-e4cdeb8006bd" class="st1" d="M1033.5,477.9c-1.5-83.5,0-166.3-2-249.6-.3-29,.4-61-.5-89.8-8.2,0-18.9,0-27.8.5-60.3,5.9-120.3-1.4-180.7-1.2-79,2.7-158.1,2.8-237.1,2.5h-17.5c-7.1-7.6-17.2-18.3-25.2-26.3C502.6,75.6,465.7,34.5,422.1.2"/>
    <path id="STROKE_cde62bb0-55ac-44a6-9f93-9252f62fda7f" class="st1" d="M568.1,730.2c-40,54.9-75,118.4-117.4,171.6"/>
    <path class="st1" d="M568.1,490.3c3.4,60.1.9,118.5,0,178.8-.3,18.5-.5,42.4,0,61,13.5.3,18.9-.3,32,0,136.2-1.6,270.5,4.1,407.6.7,8.5-.2,17.7-.3,25-.7-1.3-16.8-4-34.4-3.3-51.4.8-63.4,4.8-125.8,4.1-189.4"/>
    <path class="st1" d="M568.1,140.1c-3.2,111,.2,225.8,0,336.9"/>
    <path id="STROKE_5be79f4e-8b2a-4b3c-9b24-9b235c40329e" class="st1" d="M1031.1,191.7c-154.1,6.5-310.1,3.9-464.2-.4"/>
    <path id="STROKE_b55820a3-2133-4ccb-ac8d-f2d818da5eaa" class="st21" d="M769.6,151.6c1,4.2,0,26.2,0,26.2,18.2.5,39.3.6,58.3,0v-26.2s-8.2-.6-18.9,0c-11.5-.3-39.4,0-39.4,0h0Z"/>
    <path id="STROKE_6a05da35-884d-40e2-8a5a-d7b0a6b9b219" class="st1" d="M645.9,193.5c1.1,178-3,356,2.7,534.1"/>
    <path id="STROKE_34ff54d9-ec34-4ac2-b4f9-e627f4736ff6" class="st1" d="M949.5,196.2c1.2,77.2-2.4,154-4,231.3,1.6,101.8,5.8,201.8,1.5,303.6"/>
    <path id="STROKE_d3800e56-9d10-4000-95f6-895428339d74" class="st1" d="M411,0c-6.5,55.6-2.2,114.1-1.1,169.8.3,64.5,1.6,133.1,4,197.7-8.1,177.1,5,355.3-3,532.5"/>
    <path id="STROKE_72a9b6ff-219c-48a7-870d-0730a757a552" class="st1" d="M1191.6,0c-4.6,143.3,5.9,279.6,0,423.1,1,158.8-.8,477.6-.8,477.6"/>
    <path id="STROKE_adcae411-31f2-4c74-b9ae-872f813b3a6d" class="st1" d="M411.1,505.9c54.1-5.5,109.2-10.7,163.1-17.9,6.2,0,2.8-3.1,2.4-7-.7-2.1-.2-4.1-3.2-3.1-53.9,4.3-108.1,9.9-162.3,11.7"/>
    <path id="STROKE_a638b487-3fe9-4932-91ab-188fbfe9d3d1" class="st1" d="M1190.2,487.9c-42.7-2.9-87.3-3.8-130-6.9-11.5-1-23.8-2.5-35.2-3.1,0,2.9.4,8,.3,10.6,55.1,3.2,110.7,7.5,165.3,15.8"/>
    <path id="STROKE_3d5c9387-bf2b-4f3e-8762-dff0c353bbe8" class="st1" d="M634.2,715.3c3-33.2,0-66.7,0-100-12.1-1-25.4.8-37.6,0-6.9.4-22,0-22,0,0,0-3,69,0,99.9h59.6Z"/>
    <path id="STROKE_8415b829-b5f6-4ae1-8704-1d41fbd04cb6" class="st1" d="M582,245.2c15.3.4,32.5.4,47.9,0-.2-12.1,0-36.6,0-36.6h-47.9s-.8,15,0,36.6h0Z"/>
    <path id="STROKE_c0412c42-0fa8-4df8-b1f1-f4dbf5506879" class="st1" d="M966.4,208.3v36.9s33,.5,47.7,0c.6-10.6-.2-36.7-.2-36.7,0,0-6.2-.4-10.3,0-12.4,1.9-37.3-.2-37.3-.2h0Z"/>
    <path id="STROKE_1325fbc5-9560-402c-8454-c524e566e8f8" class="st1" d="M1022.3,715.3c-19.4,4.1-44.7-.7-64.5,0-4-33.2,3.2-66.7,0-100,19.8,1.3,44.7-.9,64.5,0v100Z"/>
    <g>
      <path id="STROKE_2cf7b7ea-02ea-4e4b-9067-375ab24d574b" class="st1" d="M987.5,339.6c0-5.9-10.4-6.6-10.4,1.1s10.4,6.2,10.4-1.1Z"/>
      <path id="STROKE_6bbfe406-a6fc-4f14-98bb-cbe6b804fa28" class="st1" d="M1002.4,346.5c2.7,0,6.1-3.1,6-6.3s-3.8-6.3-5.7-6.3h-20s-7.4-.6-7.4,5.9,3.1,6.6,7.5,6.7c6.9.3,15.7,0,19.5,0h.1Z"/>
      <path id="STROKE_2cf7b7ea-02ea-4e4b-9067-375ab24d574b1" class="st1" d="M987.5,359.4c0-5.9-10.4-6.6-10.4,1.1s10.4,6.2,10.4-1.1Z"/>
      <path id="STROKE_6bbfe406-a6fc-4f14-98bb-cbe6b804fa281" class="st1" d="M1002.4,366.4c2.7,0,6.1-3.1,6-6.3s-3.8-6.3-5.7-6.3h-20s-7.4-.6-7.4,5.9,3.1,6.6,7.5,6.7c6.9.3,15.7,0,19.5,0h.1Z"/>
      <path id="STROKE_2cf7b7ea-02ea-4e4b-9067-375ab24d574b2" class="st1" d="M987.5,380.9c0-5.9-10.4-6.6-10.4,1.1s10.4,6.2,10.4-1.1Z"/>
      <path id="STROKE_6bbfe406-a6fc-4f14-98bb-cbe6b804fa282" class="st1" d="M1002.4,387.9c2.7,0,6.1-3.1,6-6.3s-3.8-6.3-5.7-6.3h-20s-7.4-.6-7.4,5.9,3.1,6.6,7.5,6.7c6.9.3,15.7,0,19.5,0h.1Z"/>
      <path id="STROKE_2cf7b7ea-02ea-4e4b-9067-375ab24d574b3" class="st1" d="M987.5,404.1c0-5.9-10.4-6.6-10.4,1.1s10.4,6.2,10.4-1.1Z"/>
      <path id="STROKE_6bbfe406-a6fc-4f14-98bb-cbe6b804fa283" class="st1" d="M1002.4,411.1c2.7,0,6.1-3.1,6-6.3s-3.8-6.3-5.7-6.3h-20s-7.4-.6-7.4,5.9,3.1,6.6,7.5,6.7c6.9.3,15.7,0,19.5,0h.1Z"/>
      <path id="STROKE_2cf7b7ea-02ea-4e4b-9067-375ab24d574b4" class="st1" d="M987.5,423.3c0-5.9-10.4-6.6-10.4,1.1s10.4,6.2,10.4-1.1Z"/>
      <path id="STROKE_6bbfe406-a6fc-4f14-98bb-cbe6b804fa284" class="st1" d="M1002.4,430.3c2.7,0,6.1-3.1,6-6.3s-3.8-6.3-5.7-6.3h-20s-7.4-.6-7.4,5.9,3.1,6.6,7.5,6.7c6.9.3,15.7,0,19.5,0h.1Z"/>
      <path id="STROKE_2cf7b7ea-02ea-4e4b-9067-375ab24d574b5" class="st1" d="M987.5,444c0-5.9-10.4-6.6-10.4,1.1s10.4,6.2,10.4-1.1Z"/>
      <path id="STROKE_6bbfe406-a6fc-4f14-98bb-cbe6b804fa285" class="st1" d="M1002.4,450.9c2.7,0,6.1-3.1,6-6.3s-3.8-6.3-5.7-6.3h-20s-7.4-.6-7.4,5.9,3.1,6.6,7.5,6.7c6.9.3,15.7,0,19.5,0h.1Z"/>
      <path id="STROKE_3d5c9387-bf2b-4f3e-8762-dff0c353bbe81" class="st1" d="M1020.2,463.4c3-46.4,0-93.4,0-139.8-12.1-1.4-25.4,1.1-37.6.2-6.9.5-22-.2-22-.2,0,0-3,96.5,0,139.8h59.6Z"/>
    </g>
    <path id="Tür" class="st0" d="M947,731.1c4.3-101.8,0-201.8-1.5-303.6,1.6-77.3,5.2-154.1,4-231.3l-303.6-2.7c1.1,178-3,356,2.7,534.1l298.4,3.5Z"/>
  </g>
  <g id="Info">
    <path id="K" class="st19" d="M726.1,610.3c-11.5-44.2,20.1-82.9,72.8-85.4,51.3-2.4,91.6,48.5,72.7,94-7,20.3-32,31.5-29.9,54.7v16.6c.6,14.3-2.3,28.5-2.3,42.8s2,17.2-1.6,25c-1.6,3.3-4.9,3.3-6.6,0-3.3-7-2-15.6-2.3-23.6v-26.8s-3.9-.6-4.7-.6h-3.9s1,25.8,0,38.9c0,5.7,0,16.6-6.4,15-8.4-3.9-2.3-45.1-3.7-55.3-2-.6-6.4,0-8.4,0,1.2,7.6-1,17-1.2,24.6,0,8.4,1.6,17,0,25.2-1.2,7-7,8-8.4.6-3.1-15.4,0-33.6-1-49.2-1-.6-5.7-.2-7,0-1.6,15.4-.6,31.5-1.2,46.9-1,7.6-8.6,8-10,0-1.2-16,.3-32.6-1-48.5-1-11.9-6.4-33.4-13.5-41.8-22-25.7-26.2-29.3-32.5-53.1Z"/>
    <path id="M" class="st3" d="M813.2,636.6c-6.4,5.7-10.7,4.9-18.2-1.6"/>
    <path id="A" class="st25" d="M775.3,593.4c-3.3-4.9-13.5-9.3-21.5-7-13.3,4.7-19.7,22-9,32.2,8.4,8.6,25.2,8.6,31.1-2.7,3.9-6.6,2.7-18-.6-22.5h0Z"/>
    <path id="A1" data-name="A" class="st25" d="M824.9,616.5c6.4,7.4,19.3,7,26.6,1.6,7-7,11.9-18.8,4.3-27.7-18-20.5-47.5,3.9-30.9,25.8v.2Z"/>
  </g>
</svg>