<?xml version="1.0" encoding="UTF-8"?>
<svg id="Ebene_1" xmlns="http://www.w3.org/2000/svg" version="1.1" viewBox="0 0 1600 900">
  <!-- Generator: Adobe Illustrator 29.1.0, SVG Export Plug-In . SVG Version: 2.1.0 Build 142)  -->
  <defs>
    <style>
      .st0 {
        stroke: #000;
      }

      .st0, .st1, .st2 {
        fill: none;
        stroke-linecap: round;
        stroke-linejoin: round;
      }

      .st0, .st2 {
        stroke-width: 3px;
      }

      .st1 {
        stroke-width: 1.9px;
      }

      .st1, .st2 {
        stroke: #fff;
      }
    </style>
  </defs>
  <path id="LIne" class="st0" d="M1038.6,900c-5.3-303.4-3.7-597.9-5.1-900"/>
  <path id="Line" class="st0" d="M576.6,0c-5.2,210.9-12.3,421.8-16.6,633.4,1.4,89.1,3.2,177.9,5.1,266.6"/>
  <path id="Box" class="st0" d="M966.1,828.7c16.4-252.3-.7-507.5,0-760.2-65.9-7.8-324.3,0-324.3,0,0,0-16.5,524.7,0,760l324.3.2Z"/>
  <path id="Button_1" class="st0" d="M783.4,155.4c0-32.2-56.7-35.8-56.7,6.2s56.7,33.6,56.7-6.2Z"/>
  <path id="Label_1" class="st0" d="M864.5,193.2c14.8,0,33.1-16.7,32.8-34.2-.3-16.6-20.5-34.4-31-34.3h-108.6s-40.3-3.5-40.3,31.8,16.7,35.8,40.8,36.7c37.4,1.4,85.3,0,106.3,0Z"/>
  <path id="Button_2" class="st0" d="M783.4,263.4c0-32.2-56.7-35.8-56.7,6.2s56.7,33.6,56.7-6.2Z"/>
  <path id="Label_2" class="st0" d="M864.5,301.2c14.8,0,33.1-16.7,32.8-34.2-.3-16.6-20.5-34.4-31-34.3h-108.6s-40.3-3.5-40.3,31.8,16.7,35.8,40.8,36.7c37.4,1.4,85.3,0,106.3,0Z"/>
  <path id="Button_3" class="st0" d="M783.4,380.3c0-32.2-56.7-35.8-56.7,6.2s56.7,33.6,56.7-6.2Z"/>
  <path id="Label_3" class="st0" d="M864.5,418.1c14.8,0,33.1-16.7,32.8-34.2-.3-16.6-20.5-34.4-31-34.3h-108.6s-40.3-3.5-40.3,31.8,16.7,35.8,40.8,36.7c37.4,1.4,85.3,0,106.3,0Z"/>
  <path id="Button4" class="st0" d="M783.4,506.3c0-32.2-56.7-35.8-56.7,6.2s56.7,33.6,56.7-6.2Z"/>
  <path id="Label_4" class="st0" d="M864.5,544.1c14.8,0,33.1-16.7,32.8-34.2-.3-16.6-20.5-34.4-31-34.3h-108.6s-40.3-3.5-40.3,31.8,16.7,35.8,40.8,36.7c37.4,1.4,85.3,0,106.3,0Z"/>
  <path id="Button_5" class="st0" d="M783.4,610.6c0-32.2-56.7-35.8-56.7,6.2s56.7,33.6,56.7-6.2Z"/>
  <path id="Label_5" class="st0" d="M864.5,648.5c14.8,0,33.1-16.7,32.8-34.2-.3-16.6-20.5-34.4-31-34.3h-108.6s-40.3-3.5-40.3,31.8,16.7,35.8,40.8,36.7c37.4,1.4,85.3,0,106.3,0Z"/>
  <path id="Button_6" class="st0" d="M783.4,723.1c0-32.2-56.7-35.8-56.7,6.2s56.7,33.6,56.7-6.2Z"/>
  <path id="Label_6" class="st0" d="M864.5,760.9c14.8,0,33.1-16.7,32.8-34.2-.3-16.6-20.5-34.4-31-34.3h-108.6s-40.3-3.5-40.3,31.8,16.7,35.8,40.8,36.7c37.4,1.4,85.3,0,106.3,0Z"/>
  <g>
    <path id="STROKE_a6e7f16f-1d34-4b58-b368-3f2791157b64" class="st0" d="M286.9,343.1c-20.1.6-40.3,0-60.4,1.2"/>
    <path id="STROKE_a6e7f16f-1d34-4b58-b368-3f2791157b641" class="st0" d="M256.3,313.5c-.4,19.8.6,40.7,1,60.4"/>
  </g>
  <g id="Enter">
    <path id="STROKE_6e6cf8a7-6b26-4ef4-847f-82c3bfcb1c11" d="M137.9,544.6c1.7,23.4-.4,47.3.4,70.7,1.7,11.4-8.1,39.9,7.7,42,68.8,1.4,137.8-.8,206.5,2.1,26,2.9,26-10.7,24.6-32.5-4.1-67-1-135-3.5-201.7-8.7-11-53.3-1.9-68.4-3.7-16.9,2.7-51.7-5.2-63.4,3.1-8.9,141.8,35.8,104.6-97.1,111.2-6.6.6-8.9.6-7,8.7h.2Z"/>
    <path class="st2" d="M321,607.2c-5-3.7-11.8-6.8-16.7-10.7,4.8-4.1,10.7-7.4,16.5-11.2"/>
    <path id="STROKE_a6e7f16f-1d34-4b58-b368-3f2791157b642" class="st2" d="M354.7,526c-.4,22.9.6,46.9.8,69.7-16.7.2-33.5,0-50.4.8"/>
  </g>
  <g id="Tab">
    <path id="STROKE_28ab2aa8-7a8f-418b-8bd9-56777522f045" d="M137.7,147.4c2.1,39.7-6,79.8,1,119.2,4.6,17.4,43.2,8.1,57.3,9.5,42.2-1.2,84.1,2.1,126.1-.8,32.5-3.1,61.4,11.8,53.9-35.6-6-117,29.6-118.8-63.7-116.4-50.6-1.4-100.6,1.4-150.9,1-22.7-2.9-24.8,1-23.6,23.2h0Z"/>
    <path id="STROKE_e73e8f14-050e-49b9-a495-0944f9ddbd95" class="st1" d="M157.8,225.5c18-.4,36.2,0,54.2.4"/>
    <path id="STROKE_cf34fad5-5b8b-466f-84c6-97501202f2bd" class="st1" d="M192.3,212.2c7.2,4.5,14.9,9.5,20.9,14.1-6.4,5-14.5,8.5-20.9,13.6"/>
    <path id="STROKE_90ab8764-bb4e-40f9-959c-368563a000b2" class="st1" d="M220,203.8c1,14.1-.4,29.3,0,43.4"/>
  </g>
</svg>