<?xml version="1.0" encoding="UTF-8"?>
<svg id="Ebene_1" xmlns="http://www.w3.org/2000/svg" version="1.1" viewBox="0 0 1600 900">
  <!-- Generator: Adobe Illustrator 29.1.0, SVG Export Plug-In . SVG Version: 2.1.0 Build 142)  -->
  <defs>
    <style>
      .st0 {
        fill: none;
      }

      .st0, .st1, .st2 {
        stroke: #000;
        stroke-linecap: round;
        stroke-linejoin: round;
        stroke-width: 3px;
      }

      .st1 {
        fill: #fff;
      }

      .st3 {
        fill: #4baaaa;
      }

      .st2 {
        fill: #ff2c2c;
      }
    </style>
  </defs>
  <path id="Knöpfe" class="st3" d="M1020.2,463.4c3-46.4,0-93.4,0-139.8-12.1-1.4-25.4,1.1-37.6.2-6.9.5-22-.2-22-.2,0,0-3,96.5,0,139.8h59.6Z"/>
  <path id="STROKE_013db70b-df31-4fdb-b11b-c7fddbe5fe91" class="st0" d="M1032.7,730.2c32.3,57.4,72.8,110,101.9,169.2"/>
  <path id="STROKE_235e3a1d-2595-4fe5-b798-2b67b94fd407" class="st0" d="M1031.1,138.4c55.8-49.6,87.4-84.8,139.3-138.4"/>
  <path id="STROKE_a9689fb8-dd6d-4fcd-9289-e4cdeb8006bd" class="st0" d="M1033.5,477.9c-1.5-83.5,0-166.3-2-249.6-.3-29,.4-61-.5-89.8-8.2,0-18.9,0-27.8.5-60.3,5.9-120.3-1.4-180.7-1.2-79,2.7-158.1,2.8-237.1,2.5h-17.5c-7.1-7.6-17.2-18.3-25.2-26.3C502.6,75.6,465.7,34.5,422.1.2"/>
  <path id="STROKE_cde62bb0-55ac-44a6-9f93-9252f62fda7f" class="st0" d="M568.1,730.2c-40,54.9-75,118.4-117.4,171.6"/>
  <path class="st0" d="M568.1,490.3c3.4,60.1.9,118.5,0,178.8-.3,18.5-.5,42.4,0,61,13.5.3,18.9-.3,32,0,136.2-1.6,270.5,4.1,407.6.7,8.5-.2,17.7-.3,25-.7-1.3-16.8-4-34.4-3.3-51.4.8-63.4,4.8-125.8,4.1-189.4"/>
  <path class="st0" d="M568.1,140.1c-3.2,111,.2,225.8,0,336.9"/>
  <path id="STROKE_5be79f4e-8b2a-4b3c-9b24-9b235c40329e" class="st0" d="M1031.1,191.7c-154.1,6.5-310.1,3.9-464.2-.4"/>
  <path id="STROKE_b55820a3-2133-4ccb-ac8d-f2d818da5eaa" class="st2" d="M769.6,151.6c1,4.2,0,26.2,0,26.2,18.2.5,39.3.6,58.3,0v-26.2s-8.2-.6-18.9,0c-11.5-.3-39.4,0-39.4,0h0Z"/>
  <path id="STROKE_6a05da35-884d-40e2-8a5a-d7b0a6b9b219" class="st0" d="M645.9,193.5c1.1,178-3,356,2.7,534.1"/>
  <path id="STROKE_1d37e737-f145-401e-9ead-e8f699ad6ce5" class="st0" d="M798.9,196.8c6.7,177.6-1.6,355.5,2.1,533.3"/>
  <path id="STROKE_34ff54d9-ec34-4ac2-b4f9-e627f4736ff6" class="st0" d="M949.5,196.2c1.2,77.2-2.4,154-4,231.3,1.6,101.8,5.8,201.8,1.5,303.6"/>
  <path id="STROKE_d3800e56-9d10-4000-95f6-895428339d74" class="st0" d="M411,0c-6.5,55.6-2.2,114.1-1.1,169.8.3,64.5,1.6,133.1,4,197.7-8.1,177.1,5,355.3-3,532.5"/>
  <path id="STROKE_72a9b6ff-219c-48a7-870d-0730a757a552" class="st0" d="M1191.6,0c-4.6,143.3,5.9,279.6,0,423.1,1,158.8-.8,477.6-.8,477.6"/>
  <path id="STROKE_adcae411-31f2-4c74-b9ae-872f813b3a6d" class="st0" d="M411.1,505.9c54.1-5.5,109.2-10.7,163.1-17.9,6.2,0,2.8-3.1,2.4-7-.7-2.1-.2-4.1-3.2-3.1-53.9,4.3-108.1,9.9-162.3,11.7"/>
  <path id="STROKE_a638b487-3fe9-4932-91ab-188fbfe9d3d1" class="st0" d="M1190.2,487.9c-42.7-2.9-87.3-3.8-130-6.9-11.5-1-23.8-2.5-35.2-3.1,0,2.9.4,8,.3,10.6,55.1,3.2,110.7,7.5,165.3,15.8"/>
  <path id="STROKE_3d5c9387-bf2b-4f3e-8762-dff0c353bbe8" class="st0" d="M634.2,715.3c3-33.2,0-66.7,0-100-12.1-1-25.4.8-37.6,0-6.9.4-22,0-22,0,0,0-3,69,0,99.9h59.6Z"/>
  <path id="STROKE_8415b829-b5f6-4ae1-8704-1d41fbd04cb6" class="st0" d="M582,245.2c15.3.4,32.5.4,47.9,0-.2-12.1,0-36.6,0-36.6h-47.9s-.8,15,0,36.6h0Z"/>
  <path id="STROKE_c0412c42-0fa8-4df8-b1f1-f4dbf5506879" class="st0" d="M966.4,208.3v36.9s33,.5,47.7,0c.6-10.6-.2-36.7-.2-36.7,0,0-6.2-.4-10.3,0-12.4,1.9-37.3-.2-37.3-.2h0Z"/>
  <path id="STROKE_1325fbc5-9560-402c-8454-c524e566e8f8" class="st0" d="M1022.3,715.3c-19.4,4.1-44.7-.7-64.5,0-4-33.2,3.2-66.7,0-100,19.8,1.3,44.7-.9,64.5,0v100Z"/>
  <g>
    <path id="STROKE_6bbfe406-a6fc-4f14-98bb-cbe6b804fa28" class="st1" d="M1002.4,346.5c2.7,0,6.1-3.1,6-6.3s-3.8-6.3-5.7-6.3h-20s-7.4-.6-7.4,5.9,3.1,6.6,7.5,6.7c6.9.3,15.7,0,19.5,0h.1Z"/>
    <path id="STROKE_6bbfe406-a6fc-4f14-98bb-cbe6b804fa281" class="st1" d="M1002.4,366.4c2.7,0,6.1-3.1,6-6.3s-3.8-6.3-5.7-6.3h-20s-7.4-.6-7.4,5.9,3.1,6.6,7.5,6.7c6.9.3,15.7,0,19.5,0h.1Z"/>
    <path id="STROKE_6bbfe406-a6fc-4f14-98bb-cbe6b804fa282" class="st1" d="M1002.4,387.9c2.7,0,6.1-3.1,6-6.3s-3.8-6.3-5.7-6.3h-20s-7.4-.6-7.4,5.9,3.1,6.6,7.5,6.7c6.9.3,15.7,0,19.5,0h.1Z"/>
    <path id="STROKE_6bbfe406-a6fc-4f14-98bb-cbe6b804fa283" class="st1" d="M1002.4,411.1c2.7,0,6.1-3.1,6-6.3s-3.8-6.3-5.7-6.3h-20s-7.4-.6-7.4,5.9,3.1,6.6,7.5,6.7c6.9.3,15.7,0,19.5,0h.1Z"/>
    <path id="STROKE_6bbfe406-a6fc-4f14-98bb-cbe6b804fa284" class="st1" d="M1002.4,430.3c2.7,0,6.1-3.1,6-6.3s-3.8-6.3-5.7-6.3h-20s-7.4-.6-7.4,5.9,3.1,6.6,7.5,6.7c6.9.3,15.7,0,19.5,0h.1Z"/>
    <path id="STROKE_6bbfe406-a6fc-4f14-98bb-cbe6b804fa285" class="st1" d="M1002.4,450.9c2.7,0,6.1-3.1,6-6.3s-3.8-6.3-5.7-6.3h-20s-7.4-.6-7.4,5.9,3.1,6.6,7.5,6.7c6.9.3,15.7,0,19.5,0h.1Z"/>
    <path id="STROKE_2cf7b7ea-02ea-4e4b-9067-375ab24d574b" class="st0" d="M987.5,339.6c0-5.9-10.4-6.6-10.4,1.1s10.4,6.2,10.4-1.1Z"/>
    <path id="STROKE_2cf7b7ea-02ea-4e4b-9067-375ab24d574b1" class="st0" d="M987.5,359.4c0-5.9-10.4-6.6-10.4,1.1s10.4,6.2,10.4-1.1Z"/>
    <path id="STROKE_2cf7b7ea-02ea-4e4b-9067-375ab24d574b2" class="st0" d="M987.5,380.9c0-5.9-10.4-6.6-10.4,1.1s10.4,6.2,10.4-1.1Z"/>
    <path id="STROKE_2cf7b7ea-02ea-4e4b-9067-375ab24d574b3" class="st0" d="M987.5,404.1c0-5.9-10.4-6.6-10.4,1.1s10.4,6.2,10.4-1.1Z"/>
    <path id="STROKE_2cf7b7ea-02ea-4e4b-9067-375ab24d574b4" class="st0" d="M987.5,423.3c0-5.9-10.4-6.6-10.4,1.1s10.4,6.2,10.4-1.1Z"/>
    <path id="STROKE_2cf7b7ea-02ea-4e4b-9067-375ab24d574b5" class="st0" d="M987.5,444c0-5.9-10.4-6.6-10.4,1.1s10.4,6.2,10.4-1.1Z"/>
    <path id="STROKE_3d5c9387-bf2b-4f3e-8762-dff0c353bbe81" class="st0" d="M1020.2,463.4c3-46.4,0-93.4,0-139.8-12.1-1.4-25.4,1.1-37.6.2-6.9.5-22-.2-22-.2,0,0-3,96.5,0,139.8h59.6Z"/>
  </g>
</svg>