<?xml version="1.0" encoding="UTF-8"?>
<svg id="Ebene_1" xmlns="http://www.w3.org/2000/svg" version="1.1" viewBox="0 0 1600 900">
  <!-- Generator: Adobe Illustrator 29.1.0, SVG Export Plug-In . SVG Version: 2.1.0 Build 142)  -->
  <defs>
    <style>
      .st0 {
        fill: none;
      }

      .st0, .st1, .st2, .st3, .st4, .st5 {
        stroke-linecap: round;
      }

      .st0, .st2, .st3 {
        stroke-linejoin: round;
      }

      .st0, .st2, .st3, .st4, .st5 {
        stroke: #000;
        stroke-width: 3px;
      }

      .st1 {
        stroke: #fff;
        stroke-width: 4px;
      }

      .st1, .st4, .st5 {
        stroke-miterlimit: 10;
      }

      .st2 {
        fill: #fff;
      }

      .st3 {
        fill: #ff0;
      }

      .st4 {
        fill: #9cb6ff;
      }

      .st5 {
        fill: aqua;
      }
    </style>
  </defs>
  <g>
    <path id="STROKE_1a4666a2-1e1c-41fd-a28a-8ac5051e2083" class="st5" d="M859.9,621.6c0,6.4,1.4,13.3,0,19.6-.8,3.3-3.9,5.8-7.5,4.7-11.6-5-5.5-167.3-7.2-177.8.8-12.2-3-23.8-7.5-35.1-5.5-13.8-10.5-27.9-13.8-42.3-7.5-15.2-15.2-34.6-1.7-48.9,10.8-11.6,26.3-18.5,38.7-28.2,15.2-11.9,32.4-24.9,53.6-18.5,23,5,38.4,23.8,56.7,36.2,18.3,10.5,28.2,26.5,19.6,45.6-6.1,24.9-17.1,48.4-25.4,72.7-3.3,16.3,0,170.1-1.4,186.4,0,7.7-10,15.5-15.2,6.4-4.1-16.3.6-172,0-188.6-3.3-1.1-8-1.4-11.6,0,0,11.3.8,160.9,0,172.3,1.1,7.7,1.7,25.2-12.2,19.4-2.8-5-1.7-11.9-2.2-17.1-1.9-12.4-.6-162.3-1.4-174.8-2.8,0-8.6-.8-11.3,0,.8,10.2,1.9,158.4,1.4,168.7,0,7.5,2.5,16.9-2.5,23.2-4.7,5-12.2-1.1-12.7-6.1-1.7-16,1.7-170.3-1.4-185.8-3-.8-7.2-.8-10.5,0v7.5c2.2,10.8,1.7,159.6,1.9,170.3,0,5.5,0,12.7-6.6,14.9-12.4,5.3-8.6-19.1-9.4-25.2,0-10,0-157.1-.6-166.7h-9.1s-.6,158.2-1.4,167.3h.7Z"/>
    <path id="STROKE_4d2051d1-299d-4e24-b5f2-268e7dd12528" class="st4" d="M923.2,428.6c-8,2.5-18.3,1.1-26.3-2.2"/>
    <path id="STROKE_249357a8-d5b2-4a6e-a9aa-def5bb1110a4" class="st1" d="M887.6,360.8c-5-10.9-19.9-16.3-31.2-13-19.4,6.6-28.5,34.8-13,49.5,12.2,12.4,36.5,12.7,45.1-3.9,5.8-9.7,6.4-16.9-.8-32.6h0Z"/>
    <path id="STROKE_ee0626fb-a331-4af6-a301-08ded530f309" class="st1" d="M963.3,360.3c-24.6-31.8-69.1,6.4-45.1,37.9,9.1,10.8,27.9,10,38.7,2.2,10-10.2,16.6-26.5,6.4-40.1h0Z"/>
  </g>
  <g>
    <path id="STROKE_6031ec8b-01cc-4e4b-8d24-2be38e2d8f56" class="st0" d="M116.4,0c50.4,26.8,114,57,122.7,67.7"/>
    <path class="st3" d="M754.8,347.6c.8,1.1,3.3,3.3,3.9,4.7.8,2.5,0,5.3-1.9,7.2s-3,2.8-4.4,3-3,0-4.1,0c-1.9-1.1-3.6-4.4-4.7-7.2"/>
    <path id="STROKE_da41113a-9994-4f39-842c-dda22ac45b0e" class="st0" d="M238.9,67.7c31-.6,54.5,0,85.2-.8,44-2.5,88.5-8,133-6.6,61.9.8,122.8,11.3,185,10.8,78-6.1,157.1,1.9,235,0,83.5,1.4,170.9.6,254.1-2.5,55-3.9,143.5-8.3,198.3-1.4"/>
    <path id="STROKE_5b5ad666-49bc-40df-8f70-1cd42237293e" class="st0" d="M1329.4,67.7c2.2,108.9,6.9,185.5,11.3,295.6.8,140.2-3.3,248-11.3,387.7"/>
    <path id="STROKE_31aba2ec-5a91-4a64-9b31-7144774a86de" class="st0" d="M1301.8,751c25.7,1.4,5.5.6,27.9,0"/>
    <path id="STROKE_31aba2ec-5a91-4a64-9b31-7144774a86de1" class="st0" d="M238.9,751c132.5-6.9,227,1.9,360.3,0"/>
    <path id="STROKE_1ed6a108-c9b3-4dbf-be97-7987f2c2c2ab" class="st0" d="M238.9,67.7c-.6,41.5,5.5,90.4,5.8,132.5,0,115.6,1.7,233.1,2.2,348.4-.8,65.8-7.7,137.7-7.7,202.7"/>
    <path id="STROKE_4f2358d6-7f7a-4e00-8ae1-6ebb16d7fda65" class="st0" d="M1329.4,751c30.1,22.4,48.1,31.2,75.8,45.9,0,0,150,79.6,194.8,103.1"/>
    <path id="STROKE_aa5bbd3e-b2d1-4ccf-b134-896ec2b31f7d" class="st0" d="M1329.4,67.7c40.4-22.8,81.4-45.4,122.7-67.7"/>
    <path id="STROKE_c113f0ad-fb59-4f24-8aae-b740d1b92a58" class="st0" d="M293.9,748.5c-5.8-52.8,0-92.1,0-147.4-1.1-61.7-2.2-117.8-1.9-178.6,4.4-67.2-1.1-222.3-1.1-222.3,0,0,114.8,0,144.6-2.2,30.4.8,53.1-4.1,81.8,2.2,15.8,1.4,22.7,0,22.7,0,0,0-5,242.2.8,350.6,1.7,52.8-2.8,149-3,200.2"/>
    <g id="New_Layer_2">
      <path id="STROKE_52e74859-bf54-442f-83d7-8f3dd16ac7ef" class="st2" d="M1289.4,529.8c7.2,58.1,8.3,123.6,10,181.9l.8,55.3c-78.3,3.9-158.7.8-237.3,4.7-58.9,2.2-118.3-4.4-177-4.1-57.8,2.8-116.1,5.8-173.9,4.7-36.2,1.1-112.8,1.4-112.8,1.4,1.7-24.1-1.1-51.7-1.7-75.5.8-25.2,1.4-52,.8-77.4-.6-16.9-.6-32.9-1.1-49.8v-43.9l231.3-5.9,460.8,8.7h0Z"/>
      <path id="STROKE_5372e7a3-0ded-4138-b6f1-5e9070784710" class="st0" d="M1289.6,768.2c-1.4,8.6,0,15.2-.6,23,0,7.2,1.4,15.5,1.4,15.5-123.9,1.9-246.4,1.4-370.5.8-102.6,8.6-207.4,1.4-309.4-1.1,0,0,.8-18.5,0-32.6"/>
      <path id="STROKE_79f92865-255f-4edb-93a8-5fce795786aa" class="st2" d="M1300.4,532.3c-85.4-.8-171.2,1.9-256.9,2.5-73-2.2-146.6-3.9-219.6-5.8-50.3-.6-100.1-2.8-150.1-.8-21.3,1.1-40.6,2.8-61.7,3.3-5.8,0-22.4,2.2-27.7-2.2v-5.3c0-1.9-.8-12.2-.8-12.2,0,0,32.9,0,42.9-2.2,65-3.6,130-1.9,194.9,1.1,77.4,5.8,154.9,1.9,232.3,3.3,81.8,8,164.5,2.8,246.4,2.5l.6,16h0l-.3-.3h0Z"/>
      <path id="STROKE_75849cb9-08d7-445a-93e2-e994cebfa5c0" class="st0" d="M632.1,507.7c.6-4.7,0-19.4,2.5-23.8,13.8-3.9,31.8-7.2,45.6-.6,1.1,4.1,1.9,18.8,1.1,22.7"/>
      <path id="STROKE_52f6dbc3-dc0a-4002-813f-223e4b1b5681" class="st0" d="M726.1,369.4c-15.8-6.1-6.1-29.3,2.2-38.2,10.5-12.7,35.1-16,43.1.8l-45.3,37.3h0Z"/>
      <path id="STROKE_15ae7b3f-09cc-49cf-ae03-1f33b930f6f6" class="st0" d="M656.3,479.6c-1.9-29.9-12.4-62.3-17.6-91.6,0,0,33.2-29.3,50-42,10.5-8,32.4-27.7,32.4-27.7,2.5,2.5,7.5,6.4,9.1,9.4"/>
      <path id="STROKE_6b6f122e-84b0-418e-a777-46d284f9ae2d" class="st0" d="M1007,512.9c4.4-16,19.1-14.7,32.4-13.8,18,1.1,34.3-1.4,51.7,0,21.8,1.1,44.5,0,66.4,0s26.5,4.7,24.3,17.7"/>
      <path id="STROKE_e2a572ef-6978-40dc-8591-99a96d2a420c" class="st2" d="M1068.1,471.5c-19.4,1.7-44-2.5-63.3-1.7-14.4,1.1-26,3.6-25.2-15.8,1.4-22.1,2.5-43.7,1.1-66.1,0-16.9-3.3-34.3,0-50.6,7.7-6.6,19.6-1.4,29-1.1,22.4.8,44.5-.6,66.9-.8,31.8.8,64.4,1.4,96-2.5,37.3-7.5,19.6,20.2,23.5,42.9,1.4,20.7-2.5,39.8.6,60.6,3.3,29.3-3.9,34.6-32.1,31.2-17.7-2.5-36.2,4.7-54.2.6"/>
      <path id="STROKE_b134ffd5-ccd5-446c-bd41-d6838d56b0b3" class="st0" d="M1108.8,496.1c0-16.6.6-35.7,1.7-52,0-8,3.9-25.2-9.1-23h-17.7c-7.5,0-16.9-1.1-17.7,8.6-2.2,10.8,1.1,21.8,2.2,32.4,1.7,10,1.4,34.8,1.4,34.8"/>
      <path id="STROKE_c01fe5b7-76da-4587-9536-75e3c49acb29" class="st0" d="M746.5,193c-.8,32.1,23,54.5,52.5,62.5,17.7,5.3,36.8-2.8,51.2-13.3,14.1-12.2,27.1-29.6,26.3-49.2-.8-27.1-16.6-55.6-50-62.5-33.5-6.9-80.7,4.7-79.9,62.2h0v.3h0Z"/>
      <path id="STROKE_eb3e85c3-ca00-467f-8e6f-70ad4128918f" class="st0" d="M786.9,176.4c7.7,5.5,22.4,19.1,22.4,19.1,0,0,23.2-26,31.2-37.6"/>
      <path id="STROKE_f07b3fc5-e985-4b1b-a157-670c7bb52bed" class="st0" d="M838.1,143.2c-1.7,2.5-2.5,3.9-4.7,6.6"/>
      <path id="STROKE_6d91ab95-d84b-4264-bbf7-de89578ff132" class="st0" d="M810.1,136.6c0,2.8,0,5.8.6,8.8"/>
      <path id="STROKE_12c208cf-09f7-4ffd-9b3a-f2a1562ed51f" class="st0" d="M786.1,149.6c-1.1-2.2-2.2-3.9-3.3-6.1"/>
      <path id="STROKE_9d996067-4e7a-41fe-a860-ba2b8c627645" class="st0" d="M761.8,164c2.5.8,5.3,2.5,7.5,3.6"/>
      <path id="STROKE_80198ada-1dab-45a6-9115-2e29de9b95aa" class="st0" d="M765.3,192.7c-3,0-4.1.6-7.7,1.1"/>
      <path id="STROKE_0fd449c8-98ff-440f-b4a0-8ec03ab732d1" class="st0" d="M771.2,215.4c-1.1,1.4-3.6,2.5-4.7,4.1"/>
      <path id="STROKE_90aa59b6-db82-4226-8018-2eeb8bbe32ae" class="st0" d="M787.7,229.5c-.8,2.5-2.5,6.1-3.6,9.1"/>
      <path id="STROKE_5cb63e86-6953-4388-a8eb-c1fb8668a941" class="st0" d="M810.7,239.2c0,2.8-.6,6.4-1.1,9.1"/>
      <path id="STROKE_2a168a94-3fbf-4afc-8917-b70f856af43a" class="st0" d="M833.6,232c2.2,2.2,3,3.3,4.7,6.1"/>
      <path id="STROKE_abeb68b2-0a4b-4a01-aa9a-a25b42f1800c" class="st0" d="M852.7,216c2.5.8,4.1.8,6.6,2.2"/>
      <path id="STROKE_786b653a-0391-4f17-8780-61b0a9d3c1d3" class="st0" d="M856.3,191.1c2.8,0,5.8.6,8.6,0"/>
      <path id="STROKE_c93d9802-33ca-4e13-87b0-df84a674cf39" class="st0" d="M859.4,164.2c-2.5.8-4.1,1.9-6.9,2.5"/>
    </g>
    <path class="st0" d="M238.9,751c-5,3.3-10,6.9-14.9,10,0,0-41.2,28.2-63.3,40.4-39,21.6-120.8,66.9-160.6,98.7"/>
  </g>
</svg>