<?xml version="1.0" encoding="UTF-8"?>
<svg id="Ebene_1" xmlns="http://www.w3.org/2000/svg" version="1.1" viewBox="0 0 1600 900">
  <!-- Generator: Adobe Illustrator 29.1.0, SVG Export Plug-In . SVG Version: 2.1.0 Build 142)  -->
  <defs>
    <style>
      .st0, .st1, .st2, .st3, .st4, .st5 {
        stroke-linecap: round;
      }

      .st0, .st2, .st3 {
        stroke-linejoin: round;
      }

      .st0, .st2, .st3, .st4, .st5 {
        stroke: #000;
      }

      .st0, .st2, .st3, .st5 {
        stroke-width: 3px;
      }

      .st0, .st4 {
        fill: none;
      }

      .st1 {
        stroke: #fff;
        stroke-width: 6px;
      }

      .st1, .st4, .st5 {
        stroke-miterlimit: 10;
      }

      .st6 {
        isolation: isolate;
      }

      .st2, .st7 {
        fill: #fff;
      }

      .st8 {
        fill: #007b00;
      }

      .st3 {
        fill: #ff0;
      }

      .st4 {
        stroke-width: 4px;
      }

      .st5 {
        fill: aqua;
      }
    </style>
  </defs>
  <g>
    <path id="STROKE_e386c48b-9a7b-47b9-b6f7-951242b4e1b1" class="st5" d="M860.6,475.7c9,.6,30.8-1.1,38.1.6.6,7.8,1.4,28.8,1.7,37.5l22.1.2c.3-18.2.8-20.9,0-38.8,10.9-1.7,48.1-8.4,48.7-23.8.6-12.6.8-26.3.8-38.9.8-19-.3-38.3-1.4-57.4-.6-15.4-3.6-22.1-14.6-26.3-13.2-2.2-27.1-.8-40.3,0-16.8,0-33.9-.3-50.4,1.4-21.3,0-42.9.4-64.1-1.1s-21.1,17.5-19.6,34.4c1.1,12.3,0,25.2-.8,37.5-.3,20.4-.6,42,3.9,61.8,2.2,7.8,42.5,9,47.6,11.5-.6,7-.6,16.5-.6,24.1,0,12.9-1.2,12.9-1.2,12.9l25.3.8s1.1-26.6,1.4-36.4h3.4,0Z"/>
    <path id="STROKE_9b207411-db7d-4e67-80ba-275c20c465df" class="st1" d="M847.2,363.5c-11.8-10-35-9.8-42.3,6.7s-5,24.6,4.5,33.6,33.9,12.6,42.8-1.1c9-13.7,3.5-32-5-39.2Z"/>
    <path id="STROKE_f9f28f23-493b-4293-bfee-74ea4d67b20f" class="st1" d="M923.6,360.7c-12.3-.3-24.3,12.6-26.3,24.3-.8,14.8,11.5,31.6,27.1,31.3,38.3-4.2,39.2-53.4-.8-55.7h0Z"/>
    <path id="STROKE_4d2051d1-299d-4e24-b5f2-268e7dd12528" class="st4" d="M889.7,440.2c-8.1,2.5-18.5,1.1-26.6-2.2"/>
  </g>
  <g>
    <path id="STROKE_6031ec8b-01cc-4e4b-8d24-2be38e2d8f56" class="st0" d="M116.4,0c50.4,26.8,114,57,122.7,67.7"/>
    <path class="st3" d="M754.8,347.6c.8,1.1,3.3,3.3,3.9,4.7.8,2.5,0,5.3-1.9,7.2s-3,2.8-4.4,3-3,0-4.1,0c-1.9-1.1-3.6-4.4-4.7-7.2"/>
    <path id="STROKE_da41113a-9994-4f39-842c-dda22ac45b0e" class="st0" d="M238.9,67.7c31-.6,54.5,0,85.2-.8,44-2.5,88.5-8,133-6.6,61.9.8,122.8,11.3,185,10.8,78-6.1,157.1,1.9,235,0,83.5,1.4,170.9.6,254.1-2.5,55-3.9,143.5-8.3,198.3-1.4"/>
    <path id="STROKE_5b5ad666-49bc-40df-8f70-1cd42237293e" class="st0" d="M1329.4,67.7c2.2,108.9,6.9,185.5,11.3,295.6.8,140.2-3.3,248-11.3,387.7"/>
    <path id="STROKE_31aba2ec-5a91-4a64-9b31-7144774a86de" class="st0" d="M1301.8,751c25.7,1.4,5.5.6,27.9,0"/>
    <path id="STROKE_31aba2ec-5a91-4a64-9b31-7144774a86de1" class="st0" d="M238.9,751c132.5-6.9,227,1.9,360.3,0"/>
    <path id="STROKE_1ed6a108-c9b3-4dbf-be97-7987f2c2c2ab" class="st0" d="M238.9,67.7c-.6,41.5,5.5,90.4,5.8,132.5,0,115.6,1.7,233.1,2.2,348.4-.8,65.8-7.7,137.7-7.7,202.7"/>
    <path id="STROKE_4f2358d6-7f7a-4e00-8ae1-6ebb16d7fda65" class="st0" d="M1329.4,751c30.1,22.4,48.1,31.2,75.8,45.9,0,0,150,79.6,194.8,103.1"/>
    <path id="STROKE_aa5bbd3e-b2d1-4ccf-b134-896ec2b31f7d" class="st0" d="M1329.4,67.7c40.4-22.8,81.4-45.4,122.7-67.7"/>
    <path id="STROKE_c113f0ad-fb59-4f24-8aae-b740d1b92a58" class="st0" d="M293.9,748.5c-5.8-52.8,0-92.1,0-147.4-1.1-61.7-2.2-117.8-1.9-178.6,4.4-67.2-1.1-222.3-1.1-222.3,0,0,114.8,0,144.6-2.2,30.4.8,53.1-4.1,81.8,2.2,15.8,1.4,22.7,0,22.7,0,0,0-5,242.2.8,350.6,1.7,52.8-2.8,149-3,200.2"/>
    <g id="New_Layer_2">
      <path id="STROKE_52e74859-bf54-442f-83d7-8f3dd16ac7ef" class="st2" d="M1289.4,529.8c7.2,58.1,8.3,123.6,10,181.9l.8,55.3c-78.3,3.9-158.7.8-237.3,4.7-58.9,2.2-118.3-4.4-177-4.1-57.8,2.8-116.1,5.8-173.9,4.7-36.2,1.1-112.8,1.4-112.8,1.4,1.7-24.1-1.1-51.7-1.7-75.5.8-25.2,1.4-52,.8-77.4-.6-16.9-.6-32.9-1.1-49.8v-43.9l231.3-5.9,460.8,8.7h0Z"/>
      <path id="STROKE_5372e7a3-0ded-4138-b6f1-5e9070784710" class="st0" d="M1289.6,768.2c-1.4,8.6,0,15.2-.6,23,0,7.2,1.4,15.5,1.4,15.5-123.9,1.9-246.4,1.4-370.5.8-102.6,8.6-207.4,1.4-309.4-1.1,0,0,.8-18.5,0-32.6"/>
      <path id="STROKE_79f92865-255f-4edb-93a8-5fce795786aa" class="st2" d="M1300.4,532.3c-85.4-.8-171.2,1.9-256.9,2.5-73-2.2-146.6-3.9-219.6-5.8-50.3-.6-100.1-2.8-150.1-.8-21.3,1.1-40.6,2.8-61.7,3.3-5.8,0-22.4,2.2-27.7-2.2v-5.3c0-1.9-.8-12.2-.8-12.2,0,0,32.9,0,42.9-2.2,65-3.6,130-1.9,194.9,1.1,77.4,5.8,154.9,1.9,232.3,3.3,81.8,8,164.5,2.8,246.4,2.5l.6,16h0l-.3-.3h0Z"/>
      <path id="STROKE_75849cb9-08d7-445a-93e2-e994cebfa5c0" class="st0" d="M632.1,507.7c.6-4.7,0-19.4,2.5-23.8,13.8-3.9,31.8-7.2,45.6-.6,1.1,4.1,1.9,18.8,1.1,22.7"/>
      <path id="STROKE_52f6dbc3-dc0a-4002-813f-223e4b1b5681" class="st0" d="M726.1,369.4c-15.8-6.1-6.1-29.3,2.2-38.2,10.5-12.7,35.1-16,43.1.8l-45.3,37.3h0Z"/>
      <path id="STROKE_15ae7b3f-09cc-49cf-ae03-1f33b930f6f6" class="st0" d="M656.3,479.6c-1.9-29.9-12.4-62.3-17.6-91.6,0,0,33.2-29.3,50-42,10.5-8,32.4-27.7,32.4-27.7,2.5,2.5,7.5,6.4,9.1,9.4"/>
      <path id="STROKE_6b6f122e-84b0-418e-a777-46d284f9ae2d" class="st0" d="M1007,512.9c4.4-16,19.1-14.7,32.4-13.8,18,1.1,34.3-1.4,51.7,0,21.8,1.1,44.5,0,66.4,0s26.5,4.7,24.3,17.7"/>
      <path id="STROKE_e2a572ef-6978-40dc-8591-99a96d2a420c" class="st2" d="M1068.1,471.5c-19.4,1.7-44-2.5-63.3-1.7-14.4,1.1-26,3.6-25.2-15.8,1.4-22.1,2.5-43.7,1.1-66.1,0-16.9-3.3-34.3,0-50.6,7.7-6.6,19.6-1.4,29-1.1,22.4.8,44.5-.6,66.9-.8,31.8.8,64.4,1.4,96-2.5,37.3-7.5,19.6,20.2,23.5,42.9,1.4,20.7-2.5,39.8.6,60.6,3.3,29.3-3.9,34.6-32.1,31.2-17.7-2.5-36.2,4.7-54.2.6"/>
      <path id="STROKE_b134ffd5-ccd5-446c-bd41-d6838d56b0b3" class="st0" d="M1108.8,496.1c0-16.6.6-35.7,1.7-52,0-8,3.9-25.2-9.1-23h-17.7c-7.5,0-16.9-1.1-17.7,8.6-2.2,10.8,1.1,21.8,2.2,32.4,1.7,10,1.4,34.8,1.4,34.8"/>
      <path id="STROKE_c01fe5b7-76da-4587-9536-75e3c49acb29" class="st0" d="M746.5,193c-.8,32.1,23,54.5,52.5,62.5,17.7,5.3,36.8-2.8,51.2-13.3,14.1-12.2,27.1-29.6,26.3-49.2-.8-27.1-16.6-55.6-50-62.5-33.5-6.9-80.7,4.7-79.9,62.2h0v.3h0Z"/>
      <path id="STROKE_f07b3fc5-e985-4b1b-a157-670c7bb52bed" class="st0" d="M838.1,143.2c-1.7,2.5-2.5,3.9-4.7,6.6"/>
      <path id="STROKE_6d91ab95-d84b-4264-bbf7-de89578ff132" class="st0" d="M810.1,136.6c0,2.8,0,5.8.6,8.8"/>
      <path id="STROKE_12c208cf-09f7-4ffd-9b3a-f2a1562ed51f" class="st0" d="M786.1,149.6c-1.1-2.2-2.2-3.9-3.3-6.1"/>
      <path id="STROKE_9d996067-4e7a-41fe-a860-ba2b8c627645" class="st0" d="M761.8,164c2.5.8,5.3,2.5,7.5,3.6"/>
      <path id="STROKE_80198ada-1dab-45a6-9115-2e29de9b95aa" class="st0" d="M765.3,192.7c-3,0-4.1.6-7.7,1.1"/>
      <path id="STROKE_0fd449c8-98ff-440f-b4a0-8ec03ab732d1" class="st0" d="M771.2,215.4c-1.1,1.4-3.6,2.5-4.7,4.1"/>
      <path id="STROKE_90aa59b6-db82-4226-8018-2eeb8bbe32ae" class="st0" d="M787.7,229.5c-.8,2.5-2.5,6.1-3.6,9.1"/>
      <path id="STROKE_5cb63e86-6953-4388-a8eb-c1fb8668a941" class="st0" d="M810.7,239.2c0,2.8-.6,6.4-1.1,9.1"/>
      <path id="STROKE_2a168a94-3fbf-4afc-8917-b70f856af43a" class="st0" d="M833.6,232c2.2,2.2,3,3.3,4.7,6.1"/>
      <path id="STROKE_abeb68b2-0a4b-4a01-aa9a-a25b42f1800c" class="st0" d="M852.7,216c2.5.8,4.1.8,6.6,2.2"/>
      <path id="STROKE_786b653a-0391-4f17-8780-61b0a9d3c1d3" class="st0" d="M856.3,191.1c2.8,0,5.8.6,8.6,0"/>
      <path id="STROKE_c93d9802-33ca-4e13-87b0-df84a674cf39" class="st0" d="M859.4,164.2c-2.5.8-4.1,1.9-6.9,2.5"/>
    </g>
    <path class="st0" d="M238.9,751c-5,3.3-10,6.9-14.9,10,0,0-41.2,28.2-63.3,40.4-39,21.6-120.8,66.9-160.6,98.7"/>
  </g>
  <g>
    <path d="M357.8,299.8v-37.2h16.2c2.5,0,4.6.4,6.3,1.1,1.7.7,3,1.8,3.9,3.2.9,1.4,1.3,3,1.3,4.9s-.5,3.9-1.6,5.3-2.6,2.4-4.6,2.9v-1.1c1.6.4,3.1,1,4.3,1.9,1.2.9,2.2,2,2.8,3.3.7,1.3,1,2.8,1,4.5s-.3,3.5-.9,4.9-1.5,2.6-2.7,3.5-2.5,1.6-4.1,2.1-3.3.7-5.3.7h-16.7.1ZM365.4,277.7h7.6c1,0,1.8-.2,2.5-.5.7-.4,1.2-.8,1.6-1.4s.6-1.3.6-2.1c0-1.3-.4-2.3-1.3-3s-2.1-1.1-3.9-1.1h-7.1v8.2h0ZM365.4,292.9h8.7c1.1,0,2.1-.2,2.9-.5s1.4-.9,1.8-1.6.6-1.5.6-2.5-.2-1.7-.7-2.3c-.5-.6-1.1-1.1-1.9-1.5-.8-.3-1.8-.5-3-.5h-8.5v8.9h.1Z"/>
    <path d="M403.3,300.4c-2.1,0-3.8-.5-5.3-1.4s-2.6-2.2-3.4-3.9c-.8-1.7-1.2-3.7-1.2-6.1v-17.3h7.6v16.1c0,1.3.2,2.4.6,3.3s1,1.7,1.8,2.2,1.7.7,2.9.7,1.6-.1,2.3-.4c.7-.3,1.3-.6,1.8-1.1s.9-1.1,1.2-1.8c.3-.7.4-1.4.4-2.2v-16.9h7.6v28.1h-7.2l-.3-5.8,1.4-.6c-.4,1.3-1.1,2.5-2.1,3.6s-2.2,1.9-3.6,2.5-2.9.9-4.5.9h0ZM400.5,266.1c-1.3,0-2.4-.4-3.2-1.1-.8-.7-1.1-1.8-1.1-3.1s.4-2.2,1.2-3c.8-.8,1.8-1.1,3.1-1.1s2.4.4,3.2,1.1c.7.7,1.1,1.7,1.1,3.1s-.4,2.3-1.1,3-1.8,1.2-3.2,1.2h0ZM412.7,266.1c-1.4,0-2.4-.4-3.2-1.1-.7-.7-1.1-1.8-1.1-3.1s.4-2.2,1.2-3c.8-.8,1.8-1.1,3.1-1.1s2.4.4,3.2,1.1c.7.7,1.1,1.7,1.1,3.1s-.4,2.3-1.2,3c-.8.8-1.8,1.2-3.1,1.2h0Z"/>
    <path d="M427.1,299.8v-28.1h7.3l.3,9-1.3-1.9c.4-1.5,1.1-2.8,2.1-4s2.1-2.1,3.4-2.8c1.3-.7,2.7-1,4.1-1s1.2,0,1.8.2c.6.1,1,.2,1.4.4l-2,8.3c-.4-.2-.9-.4-1.5-.6s-1.2-.2-1.9-.2-1.6.2-2.4.5c-.7.3-1.4.7-1.9,1.3-.5.6-.9,1.2-1.2,1.9-.3.7-.5,1.6-.5,2.4v14.6h-7.7,0Z"/>
    <path d="M462.3,300.4c-2.9,0-5.4-.6-7.7-1.9-2.3-1.3-4-3-5.3-5.2s-1.9-4.7-1.9-7.6.6-5.4,1.9-7.6,3.1-3.9,5.3-5.2c2.3-1.3,4.8-1.9,7.7-1.9s5.4.6,7.6,1.9c2.3,1.3,4,3,5.3,5.2s1.9,4.7,1.9,7.6-.6,5.4-1.9,7.6-3,3.9-5.3,5.2c-2.3,1.3-4.8,1.9-7.6,1.9ZM462.3,293.8c1.4,0,2.6-.3,3.7-1s2-1.6,2.6-2.9c.6-1.2.9-2.6.9-4.1s-.3-3-.9-4.2-1.5-2.2-2.6-2.9-2.3-1-3.7-1-2.7.4-3.8,1.1c-1.1.7-2,1.7-2.6,2.9-.6,1.2-.9,2.6-.9,4.1s.3,2.9.9,4.1,1.5,2.2,2.6,2.9c1.1.7,2.4,1,3.8,1Z"/>
    <path d="M380.5,345.1v-30.2l2,3.6-7.8,3.8-1.5-7.1,10.4-5.2h4.8v35.2h-7.9ZM374,347.7v-7.2h21.1v7.2h-21.1Z"/>
    <path d="M416.6,347.7v-30.1l3.7.2-13.1,16-.9-1.3h24.1v6.7h-28l-3.3-6.3,18.8-22.7h6.4v37.4h-7.7Z"/>
    <path d="M447.9,347.7c-1.9,0-3.6-.3-5.3-1-1.6-.7-3.1-1.6-4.3-2.8s-2.2-2.6-2.9-4.3c-.7-1.6-1-3.4-1-5.2s.1-2.4.4-3.6.7-2.5,1.2-3.8,1.2-2.7,1.9-4.1c.7-1.4,1.6-2.9,2.5-4.4l5.1-8.6h7.4l.2.5-6.8,10.9c-1,1.6-1.8,3.1-2.5,4.5s-1.4,2.8-1.9,4.1c-.6,1.3-1.1,2.6-1.5,4l-1.5-4.3c.5-1.2,1.1-2.3,1.9-3.3s1.7-1.8,2.7-2.5,2-1.2,3.1-1.6,2.2-.6,3.2-.6c2.1,0,4,.6,5.8,1.7s3.2,2.6,4.2,4.4,1.6,3.9,1.6,6.1-.6,5-1.7,7.1c-1.2,2.1-2.7,3.7-4.8,4.9-2,1.2-4.3,1.8-7,1.8h0ZM448,340.9c1.2,0,2.3-.3,3.2-.8.9-.5,1.7-1.3,2.2-2.3s.8-2.1.8-3.4-.3-2.1-.8-3.1-1.3-1.8-2.2-2.4c-.9-.6-2-.9-3.1-.9s-2.3.3-3.3.9-1.7,1.4-2.3,2.3c-.6,1-.8,2-.8,3.1s.3,2.4.8,3.4,1.3,1.8,2.3,2.3c1,.6,2.1.9,3.3.9h-.1Z"/>
  </g>
  <g>
    <rect class="st8" x="324.1" y="381" width="183.9" height="48.9"/>
    <g class="st6">
      <g class="st6">
        <g class="st6">
          <g class="st6">
            <path class="st7" d="M347.6,415c-1.6,0-3-.3-4.4-.8-1.3-.5-2.5-1.3-3.4-2.2-1-1-1.7-2.1-2.2-3.4s-.8-2.7-.8-4.2.3-2.9.8-4.2c.5-1.3,1.3-2.4,2.3-3.3,1-.9,2.1-1.7,3.5-2.2,1.3-.5,2.8-.8,4.4-.8s2.1.1,3.1.4c1,.3,1.9.7,2.7,1.2s1.5,1.1,2.1,1.8l-2.7,2.9c-.5-.5-1-.9-1.6-1.2-.5-.3-1.1-.6-1.7-.8-.6-.2-1.2-.3-1.9-.3-.9,0-1.8.2-2.5.5-.8.3-1.5.8-2,1.4s-1,1.3-1.4,2.1-.5,1.7-.5,2.6.2,1.8.5,2.6.8,1.5,1.4,2.1c.6.6,1.3,1.1,2.1,1.4.8.3,1.7.5,2.6.5s1.3,0,1.9-.3,1.1-.5,1.5-.8c.4-.4.8-.8,1-1.3s.4-1,.4-1.6v-.7l.6.8h-5.9v-3.7h9.5c0,.2,0,.5,0,.8s0,.6,0,.9c0,.3,0,.5,0,.7,0,1.3-.2,2.5-.7,3.7-.5,1.1-1.1,2.1-2,2.9s-1.9,1.4-3,1.9-2.4.7-3.8.7Z"/>
            <path class="st7" d="M360.9,414.7v-20.5h13.9v3.9h-9.6v12.8h9.8v3.9h-14.1ZM363,406.1v-3.8h10.4v3.8h-10.4Z"/>
            <path class="st7" d="M388.6,415c-1.5,0-2.9-.3-4.2-.8-1.3-.5-2.4-1.3-3.3-2.2-.9-.9-1.7-2.1-2.2-3.4-.5-1.3-.8-2.7-.8-4.2s.3-3,.8-4.2c.5-1.3,1.2-2.4,2.2-3.4.9-.9,2.1-1.7,3.3-2.2,1.3-.5,2.7-.8,4.2-.8s2.9.3,4.2.8c1.3.5,2.4,1.3,3.3,2.2.9,1,1.7,2.1,2.2,3.4.5,1.3.8,2.7.8,4.2s-.3,2.9-.8,4.2c-.5,1.3-1.2,2.4-2.2,3.4-.9,1-2.1,1.7-3.3,2.2-1.3.5-2.6.8-4.1.8ZM388.6,410.8c.9,0,1.7-.2,2.4-.5.7-.3,1.3-.8,1.9-1.3.5-.6.9-1.3,1.2-2,.3-.8.5-1.6.5-2.6s-.2-1.8-.5-2.6c-.3-.8-.7-1.5-1.2-2-.5-.6-1.2-1-1.9-1.3s-1.5-.5-2.4-.5-1.7.2-2.4.5-1.4.8-1.9,1.3c-.5.6-1,1.3-1.2,2s-.4,1.6-.4,2.6.1,1.8.4,2.6.7,1.5,1.2,2c.5.6,1.2,1,1.9,1.3.7.3,1.5.5,2.4.5ZM385.3,392.6c-.8,0-1.4-.2-1.8-.6s-.6-1-.6-1.7.2-1.2.6-1.6c.4-.4,1-.7,1.8-.7s1.4.2,1.8.6.6,1,.6,1.7-.2,1.2-.6,1.6-1,.7-1.8.7ZM392,392.6c-.8,0-1.4-.2-1.8-.6-.4-.4-.6-1-.6-1.7s.2-1.2.6-1.6c.4-.4,1-.7,1.8-.7s1.4.2,1.8.6c.4.4.6,1,.6,1.7s-.2,1.2-.6,1.6-1,.7-1.8.7Z"/>
            <path class="st7" d="M403,414.7v-20.5h4.4v20.5h-4.4ZM405.1,398.1v-4h11.8v4h-11.8ZM405.1,406.6v-3.8h10.6v3.8h-10.6Z"/>
            <path class="st7" d="M421,414.7v-20.5h4.4v20.5h-4.4ZM423,398.1v-4h11.8v4h-11.8ZM423,406.6v-3.8h10.6v3.8h-10.6Z"/>
            <path class="st7" d="M439,414.7v-20.5h3.9l11.3,15.3h-.8c0-.6-.1-1.2-.2-1.8s-.1-1.2-.2-1.8c0-.6,0-1.2-.1-1.8s0-1.3,0-2c0-.7,0-1.5,0-2.3v-5.6h4.3v20.5h-4l-11.6-15.5h1.1c0,1,.2,1.9.2,2.6s.1,1.3.2,1.9,0,1,.1,1.4c0,.4,0,.8,0,1.1,0,.4,0,.7,0,1.1v7.4h-4.3Z"/>
            <path class="st7" d="M462.5,414.7v-20.5h13.9v3.9h-9.6v12.8h9.8v3.9h-14.1ZM464.5,406.1v-3.8h10.4v3.8h-10.4Z"/>
            <path class="st7" d="M485.3,414.7v-16.6h-6v-4h16.5v4h-6.2v16.6h-4.4Z"/>
          </g>
        </g>
      </g>
    </g>
  </g>
  <path id="STROKE_eb3e85c3-ca00-467f-8e6f-70ad4128918f" class="st0" d="M832.4,218.8l-23.1-28.9-31.5,39.6"/>
</svg>