<?xml version="1.0" encoding="UTF-8"?>
<svg id="Ebene_1" xmlns="http://www.w3.org/2000/svg" version="1.1" viewBox="0 0 1600 900">
  <!-- Generator: Adobe Illustrator 29.1.0, SVG Export Plug-In . SVG Version: 2.1.0 Build 142)  -->
  <defs>
    <style>
      .st0 {
        fill: none;
      }

      .st0, .st1 {
        stroke: #000;
        stroke-linecap: round;
        stroke-linejoin: round;
        stroke-width: 3px;
      }

      .st1, .st2 {
        fill: #fff;
      }
    </style>
  </defs>
  <g>
    <path id="STROKE_6031ec8b-01cc-4e4b-8d24-2be38e2d8f56" class="st0" d="M-8.4-4c24.7,14.5,50.3,26,74.9,40.9,26.5,15,50.6,33.4,78.1,46.6,20.6,10,39.2,22.3,59.1,33.7,19.7,10.8,39.6,22,58.1,34.7,35.9,21.4,73.2,42.3,109.7,62.8,55.4,34.7,109.8,69.8,165.6,104,16.4,10.3,55.9,28.5,60.1,33.7"/>
    <path class="st2" d="M1412.8,704.6c-2.5,19.7,6.1,48.7-15.1,60-20.7-.5-41-.6-61.7,0-19.8,1.7-40.7-2.9-60,3.1-1.2.9-2.3,2.3-3.1,4.1-26.4-20.8-44.9-33.3-70.5-47.6-14.1-7.8-26.6-17.6-38.5-27-.3-.3-.7-.5-.9-.8l-.3-.2c-.2,0-.3-.2-.5-.4-19-15-31.5-22.1-50-32.5-8.2-4.5-15.7-10-22.8-15.5-2-1.6-4-3.1-6-4.6l-.5-.4-.2-.2c-14.5-11.4-26.5-14.5-40.6-22.4-5.9-3.3-11.7-7.6-17.1-11.7-1.7-1.3-3.3-2.6-4.9-3.8,2.5-3.6,8.5-4.5,13.1-4.1,5.6,0,11.2,0,16.6.8,15.8,2.8,18.4-6.5,20.2-20,1.2-10,5-29.1,5-29.1,9.8,2.1,22.7,5.3,35.2,8.5,23.4,6.1,45.7,12.4,45.7,12.4,37.4,7.8,106.5,27.1,106.5,27.1,51.3,10.8,155.3,39.2,155.3,39.2.5,21.8-5.7,42.8-4.9,64.8v.3h0Z"/>
    <path class="st0" d="M783.7,453.6c.3.4,1.2,1.2,1.4,1.7.3.9,0,1.9-.7,2.6s-1.1,1-1.6,1.1-1.1,0-1.5,0c-.7-.4-1.3-1.6-1.7-2.6"/>
    <path id="STROKE_da41113a-9994-4f39-842c-dda22ac45b0e" class="st0" d="M597.1,352.4c11.2-.2,19.7,0,30.8-.3,15.9-.9,32-2.9,48.1-2.4,22.4.3,44.4,4.1,66.9,3.9,28.2-2.2,56.8.7,85,0,30.2.5,61.8.2,91.9-.9,19.9-1.4,51.9-3,71.7-.5"/>
    <path id="STROKE_5b5ad666-49bc-40df-8f70-1cd42237293e" class="st0" d="M991.5,352.4c.8,39.4,2.5,67.1,4.1,106.9.3,50.7-1.2,89.7-4.1,140.2"/>
    <path id="STROKE_31aba2ec-5a91-4a64-9b31-7144774a86de" class="st0" d="M981.5,599.5c9.3.5,2,.2,10.1,0"/>
    <path id="STROKE_31aba2ec-5a91-4a64-9b31-7144774a86de1" class="st0" d="M597.1,599.5c47.9-2.5,82.1.7,130.3,0"/>
    <path id="STROKE_1ed6a108-c9b3-4dbf-be97-7987f2c2c2ab" class="st0" d="M597.1,352.4c-.2,15,2,32.7,2.1,47.9,0,41.8.6,84.3.8,126-.3,23.8-2.8,49.8-2.8,73.3"/>
    <path id="STROKE_7c0ef958-405c-4e67-acef-c816253e69f4" class="st0" d="M175.5,869.8c-11.3,7.7-34.7,23.7-44.9,30.2"/>
    <path id="STROKE_7c0ef958-405c-4e67-acef-c816253e69f41" class="st0" d="M313.9,775c-12,7.4-23.8,14.8-35.6,22.5-26.3,18.5-57.2,40.6-87.5,61.6"/>
    <path id="STROKE_7c0ef958-405c-4e67-acef-c816253e69f42" class="st0" d="M597.1,599.5c-1.8,1.2-3.6,2.5-5.4,3.6"/>
    <path id="STROKE_4f2358d6-7f7a-4e00-8ae1-6ebb16d7fda6" class="st0" d="M1435.1,870.5c2.6,1.4,4.2,2.3,6.7,3.7,12.5,7.8,26.1,17.5,37.7,25.8"/>
    <path id="STROKE_4f2358d6-7f7a-4e00-8ae1-6ebb16d7fda61" class="st0" d="M1285.3,779c9.7,5.7,19.5,11.3,30,17.3,34.9,22.7,68.8,44,104.9,65.2"/>
    <path id="STROKE_4f2358d6-7f7a-4e00-8ae1-6ebb16d7fda62" class="st0" d="M1171.3,705.7l88.3,57.9c4.5,2.8,8,5.7,12.3,8.2"/>
    <polyline class="st0" points="1089.3 654.9 1138.7 684.2 1160.1 698.3"/>
    <path id="STROKE_4f2358d6-7f7a-4e00-8ae1-6ebb16d7fda64" class="st0" d="M1025.4,619.8c.7.3,1.2.7,1.9,1,15.2,9.5,31.4,18,47.6,26.5"/>
    <path id="STROKE_4f2358d6-7f7a-4e00-8ae1-6ebb16d7fda65" class="st0" d="M991.5,599.5c10.9,8.1,17.4,11.3,27.4,16.6"/>
    <path id="STROKE_aa5bbd3e-b2d1-4ccf-b134-896ec2b31f7d" class="st0" d="M991.5,352.4c42-23.7,85.7-46.6,128.4-69.6,49.5-26.8,98-54.6,146.7-82.7,63.5-40.8,130-78,194.1-117.7,26.6-13.7,53-28.4,79.1-43.4,17-9.9,53.5-31.1,68.7-42.9"/>
    <path id="STROKE_6fd54d03-8f42-4b8f-9218-79b73dab31e1" class="st0" d="M1270.4,820.9c.8,7.2,2,14.4,2.1,21.7-1.4,49.5-9,47.2,43.4,47.2,13.2.2,26.4,1.4,39.5,1.2,17.1,2.2,35.7,2.4,52.9.2,22.6-4.5,27.3-1.4,26.5-27.2.6-29.2-3.9-58.6-3.5-87.9,0-6.4-3.6-9.3-9.6-10.9-8.4-3-15-1.3-24.2-1.3-20.7-.4-41-.6-61.6,0-19.8,1.7-40.7-2.9-60,3.1-10.1,6.9-5.9,48.9-5.5,53.9h0Z"/>
    <path id="STROKE_963e31de-6e59-4607-94f0-7db70527b855" class="st0" d="M1283.6,854.9c.6,7.3-2,14.7.4,21.6,5.5,1.5,11.9-.4,17.5,0,7.1.4,14.7,1.7,21.8,1.9,13.7-.6,28.3-.7,42,0,16.9.3,35-1,51.8-2.1,5-.2,3.1-6.7,3.2-10.1-.4-8.7-1.1-16.5-1.2-25.4.2-16.5,1.8-32.2.8-48.8-.4-4.8.7-5.1-1.6-10-11.6-3.3-24.4-3.9-36.6-4-20.9-.6-42.4,0-63.3-.3-43.1.4-37.4-7.1-37.2,36.5,0,0,1.7,24.6,2.3,40.8h0Z"/>
    <path id="STROKE_085025f6-cf36-49b5-a206-b96ff1b42cbb" class="st0" d="M1160.1,703.1s.9,12.2.3,20.4c0,11.9.5,24.2.7,36.1.9,8.1-1.4,19.2,4.2,25.4,6.5,3.5,13.9,1.4,20.8,1.7,10.4,1.1,20.7.3,31,.2,12.7.7,38.7-1.1,51.4-3.1"/>
    <path id="STROKE_37788aa1-5559-498d-bf0e-20b509d081bc" class="st0" d="M1171,702.4c.4,13.2.5,31.6.8,44.9.7,5.4-1.9,23.7,3.8,24.6,8.6,2.3,18.3-.2,27,1.3,10.9,1.7,21.8,1.9,32.9.4,9-.8,27,1.7,35.7-.4"/>
    <path id="STROKE_40ad105f-4574-4dd8-a3ee-a79b12b845d0" class="st0" d="M1397.4,763.9c21.2-11.3,12.7-40.3,15.1-60-.8-22,5.3-43.1,4.9-64.8,0,0-104-28.4-155.3-39.2,0,0-6.9,34.8-9.2,53.1-3.2,24.5-8,41.5-36.9,36.3-10-1.5-20.2-1.2-30.4-1.4-10.9-1.1-26.6,2.2-25.7,15.2"/>
    <path id="STROKE_99ccc830-d7d5-497d-997c-f5d2aa283fa8" class="st0" d="M1326.3,615.4c-2.1,5.8-1,13-1.6,19.3-.7,10.5-2.9,25.8-4.7,36-3.3,15.1-3.3,34.5-15.1,45.9-9.5,9.6-35.5,3-49,4.4-18.9-.5-22.8,0-38.9,10.1"/>
    <path id="STROKE_c113f0ad-fb59-4f24-8aae-b740d1b92a58" class="st0" d="M617,598.6c-2.1-19.1,0-33.3,0-53.3-.4-22.3-.8-42.6-.7-64.6,1.6-24.3-.4-80.4-.4-80.4,0,0,41.5,0,52.3-.8,11,.3,19.2-1.5,29.6.8,5.7.5,8.2,0,8.2,0,0,0-1.8,87.6.3,126.8.6,19.1-1,53.9-1.1,72.4"/>
    <g id="New_Layer_2">
      <path id="STROKE_52e74859-bf54-442f-83d7-8f3dd16ac7ef" class="st1" d="M977,520.6c2.6,21,3,43.6,3.6,64.7l.3,20c-28.3,1.4-57.4.3-85.8,1.7-21.3.8-42.8-1.6-64-1.5-20.9,1-42,2.1-62.9,1.7-13.1.4-40.8.5-40.8.5.6-8.7-.4-18.7-.6-27.3.3-9.1.5-18.8.3-28-.2-6.1-.2-11.9-.4-18v-13"/>
      <path id="STROKE_5372e7a3-0ded-4138-b6f1-5e9070784710" class="st0" d="M977.1,605.7c-.5,3.1,0,5.5-.2,8.3,0,2.6.5,5.6.5,5.6-44.8.7-89.1.5-134,.3-37.1,3.1-75,.5-111.9-.4,0,0,.3-6.7,0-11.8"/>
      <path id="STROKE_79f92865-255f-4edb-93a8-5fce795786aa" class="st1" d="M981,520.4c-30.9-.3-61.9.7-92.9.9-26.4-.8-53-1.4-79.4-2.1-18.2-.2-36.2-1-54.3-.3-7.7.4-14.7,1-22.3,1.2-2.1,0-8.1.8-10-.8v-1.9c0-.7-.3-4.4-.3-4.4,0,0,11.9,0,15.5-.8,23.5-1.3,47-.7,70.5.4,28,2.1,56,.7,84,1.2,29.6,2.9,59.5,1,89.1.9l.2,5.8h0Z"/>
      <path id="STROKE_75849cb9-08d7-445a-93e2-e994cebfa5c0" class="st0" d="M739.3,511.5c.2-1.7,0-7,.9-8.6,5-1.4,11.5-2.6,16.5-.2.4,1.5.7,6.8.4,8.2"/>
      <path id="STROKE_52f6dbc3-dc0a-4002-813f-223e4b1b5681" class="st0" d="M773.3,461.5c-5.7-2.2-2.2-10.6.8-13.8,3.8-4.6,12.7-5.8,15.6.3l-16.4,13.5h0Z"/>
      <path id="STROKE_15ae7b3f-09cc-49cf-ae03-1f33b930f6f6" class="st0" d="M748,500.2c-.7-10.8-4.4-21.4-6.3-32,0,0,12-10.6,18.1-15.2,3.8-2.9,11.7-10,11.7-10,.9.9,2.7,2.3,3.3,3.4"/>
      <path id="STROKE_6b6f122e-84b0-418e-a777-46d284f9ae2d" class="st0" d="M874.9,513.4c1.6-5.8,6.9-5.3,11.7-5,6.5.4,12.4-.5,18.7,0,7.9.4,16.1,0,24,0s9.6,1.7,8.8,6.4"/>
      <path id="STROKE_e2a572ef-6978-40dc-8591-99a96d2a420c" class="st1" d="M897,498.4c-7,.6-15.9-.9-22.9-.6-5.2.4-9.4,1.3-9.1-5.7.5-8,.9-15.8.4-23.9,0-6.1-1.2-12.4,0-18.3,2.8-2.4,7.1-.5,10.5-.4,8.1.3,16.1-.2,24.2-.3,11.5.3,23.3.5,34.7-.9,13.5-2.7,7.1,7.3,8.5,15.5.5,7.5-.9,14.4.2,21.9,1.2,10.6-1.4,12.5-11.6,11.3-6.4-.9-13.1,1.7-19.6.2"/>
      <path id="STROKE_b134ffd5-ccd5-446c-bd41-d6838d56b0b3" class="st0" d="M911.7,507.3c0-6,.2-12.9.6-18.8,0-2.9,1.4-9.1-3.3-8.3h-6.4c-2.7,0-6.1-.4-6.4,3.1-.8,3.9.4,7.9.8,11.7.6,3.6.5,12.6.5,12.6"/>
      <path id="STROKE_c01fe5b7-76da-4587-9536-75e3c49acb29" class="st0" d="M780.7,397.7c-.3,11.6,8.3,19.7,19,22.6,6.4,1.9,13.3-1,18.5-4.8,5.1-4.4,9.8-10.7,9.5-17.8-.3-9.8-6-20.1-18.1-22.6s-29.2,1.7-28.9,22.5h0Z"/>
      <path id="STROKE_eb3e85c3-ca00-467f-8e6f-70ad4128918f" class="st0" d="M810.2,403.3l-6.7-8.5,3.2-12.7"/>
      <path id="STROKE_f07b3fc5-e985-4b1b-a157-670c7bb52bed" class="st0" d="M813.8,379.7c-.6.9-.9,1.4-1.7,2.4"/>
      <path id="STROKE_6d91ab95-d84b-4264-bbf7-de89578ff132" class="st0" d="M803.7,377.3c0,1,0,2.1.2,3.2"/>
      <path id="STROKE_12c208cf-09f7-4ffd-9b3a-f2a1562ed51f" class="st0" d="M795,382c-.4-.8-.8-1.4-1.2-2.2"/>
      <path id="STROKE_9d996067-4e7a-41fe-a860-ba2b8c627645" class="st0" d="M786.2,387.2c.9.3,1.9.9,2.7,1.3"/>
      <path id="STROKE_80198ada-1dab-45a6-9115-2e29de9b95aa" class="st0" d="M787.5,397.6c-1.1,0-1.5.2-2.8.4"/>
      <path id="STROKE_0fd449c8-98ff-440f-b4a0-8ec03ab732d1" class="st0" d="M789.6,405.8c-.4.5-1.3.9-1.7,1.5"/>
      <path id="STROKE_90aa59b6-db82-4226-8018-2eeb8bbe32ae" class="st0" d="M795.6,410.9c-.3.9-.9,2.2-1.3,3.3"/>
      <path id="STROKE_5cb63e86-6953-4388-a8eb-c1fb8668a941" class="st0" d="M803.9,414.4c0,1-.2,2.3-.4,3.3"/>
      <path id="STROKE_2a168a94-3fbf-4afc-8917-b70f856af43a" class="st0" d="M812.2,411.8c.8.8,1.1,1.2,1.7,2.2"/>
      <path id="STROKE_abeb68b2-0a4b-4a01-aa9a-a25b42f1800c" class="st0" d="M819.1,406c.9.3,1.5.3,2.4.8"/>
      <path id="STROKE_786b653a-0391-4f17-8780-61b0a9d3c1d3" class="st0" d="M820.4,397c1,0,2.1.2,3.1,0"/>
      <path id="STROKE_c93d9802-33ca-4e13-87b0-df84a674cf39" class="st0" d="M821.5,387.3c-.9.3-1.5.7-2.5.9"/>
    </g>
    <path class="st0" d="M1162.8,695.8c12.2,9.6,25,19.6,39.5,27.7,25.6,14.3,44.3,26.8,70.6,47.7"/>
    <g>
      <path id="STROKE_085025f6-cf36-49b5-a206-b96ff1b42cbb1" class="st0" d="M1081.4,647.9s.7,8.9.2,14.9c0,8.7.4,17.6.5,26.4.7,6-1,14,3,18.5,4.7,2.6,10.1,1,15.2,1.2,7.6.8,15,.2,22.6.2,9.3.5,28.2-.9,37.4-2.3"/>
      <path id="STROKE_37788aa1-5559-498d-bf0e-20b509d081bc1" class="st0" d="M1089.3,647.2c.3,9.6.4,23.3.6,32.9.5,4-1.4,17.2,2.7,18,6.2,1.7,13.2-.2,19.7.9,7.9,1.2,16,1.3,23.9.3,6.5-.6,17.5,1.9,23.7.3"/>
      <path id="STROKE_40ad105f-4574-4dd8-a3ee-a79b12b845d01" class="st0" d="M1262.2,600s-69.1-19.3-106.5-27.1c0,0-5,25.3-6.7,38.6-2.4,17.9-5.9,30.3-26.9,26.5-7.3-1.1-14.8-.9-22.1-1-7.9-.9-19.4,1.6-18.7,11.1"/>
      <path id="STROKE_99ccc830-d7d5-497d-997c-f5d2aa283fa81" class="st0" d="M1202.4,584.1c-1.5,4.2-.8,9.5-1.1,14.1-.5,7.7-2.2,18.8-3.5,26.2-2.4,11.1-2.5,25.2-11.1,33.4-6.9,7-25.8,2.3-35.7,3.2-13.8-.3-16.6,0-28.3,7.4"/>
      <path class="st0" d="M1083.3,642.6c8.9,7,18.3,14.3,28.7,20.1,11.1,6.2,20,11.2,29.4,17.4s13.2,9.2,21.1,15.4"/>
    </g>
    <g>
      <path id="STROKE_085025f6-cf36-49b5-a206-b96ff1b42cbb2" class="st0" d="M1018.8,608.5s.6,6.7,0,11.3c0,6.5.3,13.3.4,19.9.5,4.4-.8,10.5,2.3,14,3.6,1.9,7.6.8,11.4.9,5.7.6,11.3.2,17,0,7,.4,23.9-.7,30.8-1.7"/>
      <path id="STROKE_37788aa1-5559-498d-bf0e-20b509d081bc2" class="st0" d="M1024.8,607.9c.2,7.3.3,17.5.4,24.8.4,2.9-1,13.1,2.1,13.5,4.7,1.2,10,0,14.8.8,6,.9,12,1,18.1.2,4.9-.4,16.2.9,21-.2"/>
      <path id="STROKE_40ad105f-4574-4dd8-a3ee-a79b12b845d02" class="st0" d="M1155.7,572.8s-52.7-14.9-80.9-20.9c0,0-3.8,19.1-5,29.1-1.8,13.4-4.4,22.8-20.2,20-5.5-.9-11.1-.7-16.6-.8-6-.7-14.6,1.2-14.1,8.3"/>
      <path id="STROKE_99ccc830-d7d5-497d-997c-f5d2aa283fa82" class="st0" d="M1110,560.4c-1.1,3.1-.6,7.1-.9,10.6-.4,5.8-1.6,14.2-2.6,19.8-1.8,8.3-1.8,18.9-8.3,25.2-5.2,5.3-19.5,1.7-27,2.4-10.4-.3-11.7-.2-20.5,5.4"/>
      <path class="st0" d="M1020.3,604.4c6.7,5.2,13.7,10.8,21.7,15.2,14.1,7.8,26.9,11.4,41.3,22.9"/>
      <path class="st0" d="M1062.8,599.9c10.9,5.4,20.5,13,32.2,16.2,2.2.6,4.4.9,6.6,1.5,3.1.9,6.1,2.4,8.9,3.9,9.6,4.9,28.3,14.6,28.3,14.6,14.5,7.1,27.9,17.7,43.6,21.9,2.9.8,56.6,28.8,56.6,28.8,19.9,9.7,38.3,24.2,59.9,30.2,4,1.1,8.1,1.6,12.1,2.7,5.7,1.6,11,4.4,16.2,7,17.4,9,34.8,18.1,52.3,27,6.1,3.1,12.2,6.3,18,10.1"/>
    </g>
    <path class="st0" d="M1138.9,636"/>
    <g>
      <path id="STROKE_6fd54d03-8f42-4b8f-9218-79b73dab31e11" class="st0" d="M340.4,818.9c-.8,7.2-2,14.4-2.1,21.7,1.4,49.5,9,47.2-43.4,47.2-13.2.2-26.4,1.4-39.5,1.2-17.1,2.2-35.7,2.4-52.9.2-22.6-4.5-27.3-1.4-26.5-27.2-.6-29.2,3.9-58.6,3.5-87.9,0-6.4,3.6-9.3,9.6-10.9,8.4-3,15-1.3,24.2-1.3,20.7-.4,41-.6,61.6,0,19.8,1.7,40.7-2.9,60,3.1,10.1,6.9,5.9,48.9,5.5,53.9h0Z"/>
      <path id="STROKE_963e31de-6e59-4607-94f0-7db70527b8551" class="st0" d="M327.1,852.9c-.6,7.3,2,14.7-.4,21.6-5.5,1.5-11.9-.4-17.5,0-7.1.4-14.7,1.7-21.8,1.9-13.7-.6-28.3-.7-42,0-16.9.3-35-1-51.8-2.1-5-.2-3.1-6.7-3.2-10.1.4-8.7,1.1-16.5,1.2-25.4-.2-16.5-1.8-32.2-.8-48.8.4-4.8-.7-5.1,1.6-10,11.6-3.3,24.4-3.9,36.6-4,20.9-.6,42.4,0,63.3-.3,43.1.4,37.4-7.1,37.2,36.5,0,0-1.7,24.6-2.3,40.8h-.1Z"/>
      <path id="STROKE_085025f6-cf36-49b5-a206-b96ff1b42cbb3" class="st0" d="M450.6,701s-.9,12.2-.3,20.4c0,11.9-.5,24.2-.7,36.1-.9,8.1,1.4,19.2-4.2,25.4-6.5,3.5-13.9,1.4-20.8,1.7-10.4,1.1-20.7.3-31,.2-12.7.7-38.7-1.1-51.4-3.1"/>
      <path id="STROKE_37788aa1-5559-498d-bf0e-20b509d081bc3" class="st0" d="M439.7,700.3c-.4,13.2-.5,31.6-.8,44.9-.7,5.4,1.9,23.7-3.8,24.6-8.6,2.3-18.3-.2-27,1.3-10.9,1.7-21.8,1.9-32.9.4-9-.8-27,1.7-35.7-.4"/>
      <path id="STROKE_40ad105f-4574-4dd8-a3ee-a79b12b845d03" class="st0" d="M213.3,761.9c-21.2-11.3-12.7-40.3-15.1-60,.8-22-5.3-43.1-4.9-64.8,0,0,104-28.4,155.3-39.2,0,0,6.9,34.8,9.2,53.1,3.2,24.5,8,41.5,36.9,36.3,10-1.5,20.2-1.2,30.4-1.4,10.9-1.1,26.6,2.2,25.7,15.2"/>
      <path id="STROKE_99ccc830-d7d5-497d-997c-f5d2aa283fa83" class="st0" d="M284.5,613.4c2.1,5.8,1,13,1.6,19.3.7,10.5,2.9,25.8,4.7,36,3.3,15.1,3.3,34.5,15.1,45.9,9.5,9.6,35.5,3,49,4.4,18.9-.5,22.8,0,38.9,10.1"/>
      <path class="st0" d="M448,693.7c-12.2,9.6-25,19.6-39.5,27.7-25.6,14.3-44.3,26.8-70.6,47.7"/>
      <g>
        <path id="STROKE_085025f6-cf36-49b5-a206-b96ff1b42cbb4" class="st0" d="M529.4,645.9s-.7,8.9-.2,14.9c0,8.7-.4,17.6-.5,26.4-.7,6,1,14-3,18.5-4.7,2.6-10.1,1-15.2,1.2-7.6.8-15,.2-22.6.2-9.3.5-28.2-.9-37.4-2.3"/>
        <path id="STROKE_37788aa1-5559-498d-bf0e-20b509d081bc4" class="st0" d="M521.5,645.2c-.3,9.6-.4,23.3-.6,32.9-.5,4,1.4,17.2-2.7,18-6.2,1.7-13.2-.2-19.7.9-7.9,1.2-16,1.3-23.9.3-6.5-.6-17.5,1.9-23.7.3"/>
        <path id="STROKE_40ad105f-4574-4dd8-a3ee-a79b12b845d04" class="st0" d="M348.6,597.9s69.1-19.3,106.5-27.1c0,0,5,25.3,6.7,38.6,2.4,17.9,5.9,30.3,26.9,26.5,7.3-1.1,14.8-.9,22.1-1,7.9-.9,19.4,1.6,18.7,11.1"/>
        <path id="STROKE_99ccc830-d7d5-497d-997c-f5d2aa283fa84" class="st0" d="M408.3,582c1.5,4.2.8,9.5,1.1,14.1.5,7.7,2.2,18.8,3.5,26.2,2.4,11.1,2.5,25.2,11.1,33.4,6.9,7,25.8,2.3,35.7,3.2,13.8-.3,16.6,0,28.3,7.4"/>
        <path class="st0" d="M527.4,640.6c-8.9,7-18.3,14.3-28.7,20.1-18.7,10.4-31.2,17.6-50.5,32.8"/>
      </g>
      <g>
        <path id="STROKE_085025f6-cf36-49b5-a206-b96ff1b42cbb5" class="st0" d="M591.9,606.4s-.6,6.7,0,11.3c0,6.5-.3,13.3-.4,19.9-.5,4.4.8,10.5-2.3,14-3.6,1.9-7.6.8-11.4.9-5.7.6-11.3.2-17,0-7,.4-23.9-.7-30.8-1.7"/>
        <path id="STROKE_37788aa1-5559-498d-bf0e-20b509d081bc5" class="st0" d="M585.9,606c-.2,7.3-.3,17.5-.4,24.8-.4,2.9,1,13.1-2.1,13.5-4.7,1.2-10,0-14.8.8-6,.9-12,1-18.1.2-4.9-.4-16.2.9-21-.2"/>
        <path id="STROKE_40ad105f-4574-4dd8-a3ee-a79b12b845d05" class="st0" d="M455.1,570.8s52.7-14.9,80.9-20.9c0,0,3.8,19.1,5,29.1,1.8,13.4,4.4,22.8,20.2,20,5.5-.9,11.1-.7,16.6-.8,6-.7,14.6,1.2,14.1,8.3"/>
        <path id="STROKE_99ccc830-d7d5-497d-997c-f5d2aa283fa85" class="st0" d="M500.6,558.4c1.1,3.1.6,7.1.9,10.6.4,5.8,1.6,14.2,2.6,19.8,1.8,8.3,1.8,18.9,8.3,25.2,5.2,5.3,19.5,1.7,27,2.4,10.4-.3,11.7-.2,20.5,5.4"/>
        <path class="st0" d="M590.5,602.5c-6.7,5.2-13.7,10.8-21.7,15.2-14.1,7.8-26.9,11.4-41.3,22.9"/>
        <path class="st0" d="M547.9,597.9c-10.9,5.4-20.5,13-32.2,16.2-2.2.6-4.4.9-6.6,1.5-3.1.9-6.1,2.4-8.9,3.9-9.6,4.9-28.3,14.6-28.3,14.6-14.5,7.1-27.9,17.7-43.6,21.9-2.9.8-56.6,28.8-56.6,28.8-19.9,9.7-38.3,24.2-59.9,30.2-4,1.1-8.1,1.6-12.1,2.7-5.7,1.6-11,4.4-16.2,7-17.4,9-34.8,18.1-52.3,27-6.1,3.1-12.2,6.3-18,10.1"/>
      </g>
      <path class="st0" d="M471.8,634"/>
    </g>
  </g>
  <path id="STROKE_37788aa1-5559-498d-bf0e-20b509d081bc11" class="st1" d="M1159.9,699.6c-6.2,1.6-17.2-.9-23.7-.3-7.9,1-16,.9-23.9-.3-6.5-1.1-13.5.8-19.7-.9-4.1-.8-2.2-14-2.7-18-.2-9.6-.3-23.3-.6-32.9l-6.7-5.5s-1.4-.3-1,9.4.3,8,0,11.7c0,8.7.4,17.6.5,26.4.7,6-1,14,3,18.5,4.7,2.6,10.1,1,15.2,1.2,7.6.8,15,.2,22.6.2,9.3.5,28.2-.9,37.4-2.3"/>
  <g>
    <path d="M639.1,437.6v-14h6.1c.9,0,1.7.1,2.4.4.6.3,1.1.7,1.5,1.2.3.5.5,1.1.5,1.9s-.2,1.5-.6,2c-.4.5-1,.9-1.7,1.1v-.4c.6.1,1.1.4,1.6.7.5.3.8.7,1.1,1.2s.4,1.1.4,1.7,0,1.3-.3,1.8-.6,1-1,1.3-1,.6-1.6.8-1.3.3-2,.3h-6.4ZM642,429.3h2.8c.4,0,.7,0,.9-.2.3-.1.5-.3.6-.5s.2-.5.2-.8c0-.5-.2-.9-.5-1.1-.3-.3-.8-.4-1.5-.4h-2.7v3.1h.2ZM642,435h3.3c.4,0,.8,0,1.1-.2.3-.1.5-.3.7-.6.2-.3.2-.6.2-.9s0-.6-.3-.9-.4-.4-.7-.5-.7-.2-1.1-.2h-3.2v3.3h0Z"/>
    <path d="M656.2,437.8c-.8,0-1.4-.2-2-.5s-1-.8-1.3-1.5-.5-1.4-.5-2.3v-6.5h2.8v6.1c0,.5,0,.9.2,1.2.2.4.4.6.7.8.3.2.7.3,1.1.3s.6,0,.8-.1c.3-.1.5-.2.7-.4.2-.2.3-.4.5-.7,0-.3.2-.5.2-.8v-6.3h2.8v10.6h-2.7v-2.2c0,0,.4-.2.4-.2-.2.5-.4.9-.8,1.3-.4.4-.8.7-1.3.9-.5.2-1.1.3-1.7.3h0ZM655.2,424.9c-.5,0-.9-.1-1.2-.4s-.4-.7-.4-1.2,0-.8.4-1.1c.3-.3.7-.4,1.2-.4s.9.1,1.2.4.4.7.4,1.2,0,.8-.4,1.1c-.3.3-.7.4-1.2.4ZM659.8,424.9c-.5,0-.9-.1-1.2-.4s-.4-.7-.4-1.2,0-.8.4-1.1c.3-.3.7-.4,1.2-.4s.9.1,1.2.4.4.7.4,1.2,0,.8-.4,1.1c-.3.3-.7.4-1.2.4Z"/>
    <path d="M665.2,437.6v-10.6h2.7v3.4l-.4-.7c.2-.5.4-1,.8-1.5.4-.4.8-.8,1.3-1,.5-.3,1-.4,1.5-.4h.7c.2,0,.4,0,.5.1l-.8,3.1c0,0-.3-.1-.6-.2h-.7c-.2,0-.6,0-.9.2s-.5.3-.7.5-.4.4-.5.7c0,.3-.2.6-.2.9v5.5h-2.9.2Z"/>
    <path d="M678.4,437.8c-1.1,0-2-.2-2.9-.7-.8-.5-1.5-1.1-2-2-.5-.8-.7-1.8-.7-2.8s.2-2,.7-2.8,1.2-1.5,2-1.9c.8-.5,1.8-.7,2.9-.7s2,.2,2.9.7,1.5,1.1,2,1.9.7,1.8.7,2.8-.2,2-.7,2.8-1.1,1.5-2,2-1.8.7-2.9.7ZM678.4,435.3c.5,0,1-.1,1.4-.4s.7-.6,1-1.1.3-1,.3-1.5,0-1.1-.3-1.6-.6-.8-1-1.1c-.4-.3-.9-.4-1.4-.4s-1,.1-1.4.4-.7.6-1,1.1c-.2.5-.4,1-.3,1.6,0,.6,0,1.1.3,1.5.2.5.6.8,1,1.1.4.3.9.4,1.4.4Z"/>
    <path d="M647.7,454.6v-11.4l.7,1.3-2.9,1.4-.6-2.7,3.9-2h1.8v13.2h-3v.2ZM645.2,455.6v-2.7h7.9v2.7h-7.9Z"/>
    <path d="M661.2,455.6v-11.3h1.4l-4.9,6.1-.3-.5h9.1v2.5h-10.5l-1.2-2.4,7.1-8.5h2.4v14.1h-3.1Z"/>
    <path d="M673,455.6c-.7,0-1.4-.1-2-.4s-1.2-.6-1.6-1.1-.8-1-1.1-1.6-.4-1.3-.4-2,0-.9,0-1.4.2-.9.4-1.4.4-1,.7-1.5.6-1.1.9-1.7l1.9-3.2h2.8v.2l-2.5,4.1c-.4.6-.7,1.1-1,1.7-.3.5-.5,1-.7,1.5s-.4,1-.6,1.5l-.6-1.6c.2-.5.4-.9.7-1.2.3-.4.6-.7,1-.9.4-.3.8-.5,1.2-.6s.8-.2,1.2-.2c.8,0,1.5.2,2.2.6s1.2,1,1.6,1.7c.4.7.6,1.5.6,2.3s-.2,1.9-.6,2.7c-.4.8-1,1.4-1.8,1.8-.8.5-1.6.7-2.6.7h.2ZM673,453.1c.5,0,.9-.1,1.2-.3.4-.2.6-.5.8-.9s.3-.8.3-1.3,0-.8-.3-1.2c-.2-.4-.5-.7-.8-.9-.3-.2-.7-.3-1.2-.3s-.9.1-1.2.3c-.4.2-.7.5-.9.9s-.3.8-.3,1.2,0,.9.3,1.3.5.7.9.9c.4.2.8.3,1.2.3Z"/>
  </g>
</svg>