<?xml version="1.0" encoding="UTF-8"?>
<svg id="Ebene_1" xmlns="http://www.w3.org/2000/svg" version="1.1" viewBox="0 0 1600 900">
  <!-- Generator: Adobe Illustrator 29.1.0, SVG Export Plug-In . SVG Version: 2.1.0 Build 142)  -->
  <defs>
    <style>
      .st0, .st1, .st2 {
        fill: none;
      }

      .st1 {
        stroke: #000;
      }

      .st1, .st3, .st4, .st5, .st2 {
        stroke-linecap: round;
        stroke-linejoin: round;
        stroke-width: 3px;
      }

      .st3 {
        fill: #2323ff;
      }

      .st3, .st4, .st5, .st2 {
        stroke: #fff;
      }

      .st4 {
        display: none;
        fill: aqua;
      }
    </style>
  </defs>
  <rect width="1600" height="900"/>
  <g>
    <path class="st5" d="M913,366.9c-.2,15.9-1.8,38.3-1.2,54.5-.8,11.5-.7,23.4.7,34.9,0,76.2-5.4,174.8.7,251.1-26-1.8-53.4-8.3-79.2-12.5-36.3-6.3-73.3-12.5-109.5-19.2-2.3-21.9-.2-58.7.4-80.4,0-46.5-2.5-126.9-1.6-174.3-2.1-38,0-78.9-1.7-116.9.4-23.2,2-54.9,1.4-78.5,38.5-3,75.9-9.9,114.5-14.8,18.3-2.3,33.3-5.9,51.2-7.5,8.1-.8,15.3.2,23.7-.7-.9,52.2.3,112.2.5,164.7l-.3-.4h.4,0Z"/>
    <path class="st1" d="M913.3,707.4h0"/>
    <path id="STROKE_d7fbfe0d-3a59-4302-a0b0-200b0232a3561" class="st5" d="M747.2,371.3c-.2,10.2-.4,20.4-.4,30.5.2,13.1,1.7,29.6.9,42.5,33,.9,66.8,1.6,99.8,2.8,9.3.3,26.4,1,35.4,1.3,0,0,.2-10.9.3-15.3,1.1-19.6.4-42.1,1.9-61.7-.7-29,.3-77.1-1.2-106.1-45.2,3-90.9,6.6-136,9.9,0,0-.5,65.1-.7,96.1h0Z"/>
    <path class="st5" d="M913.2,707.4c-29.2.9-64.6,0-93.8-.4-20.4-.7-110.5.7-130.4-1.1-3.4-134.5-4.8-366-.9-502.1,46.5-.5,108,1.4,154.4-1,9.5,0,22.1,0,31.5-.8,11-.1,27.3.9,38.4.6,0,0-48.8,5.8-74.6,9.8-38.6,4.9-75.9,11.7-114.5,14.8.6,23.8-.9,55.2-1.4,78.5,1.6,38-.5,78.9,1.7,116.9-.9,47.7,1.5,127.5,1.6,174.3-.4,21.7-2.8,58.7-.4,80.4,58,10.3,116.9,21,175.1,30.4,4,.5,13.3-.3,13.3-.3h0Z"/>
    <path id="STROKE_449085a3-b107-493a-bdc2-797f28cf272f1" class="st5" d="M741.7,458.1c-2.9-1.2-6.6-2.4-9.6-.5-4.4,3-5.3,10.2-.7,13.4,8.9,5.1,19.1-5.2,10.3-12.9h0Z"/>
    <path id="STROKE_6ea0458b-5008-41e4-ab50-fffeb7ac591f1" class="st5" d="M756.2,282.4c-1.3,20.6-1.1,43.7,0,64.4,0,29.1-.6,60.3.7,89.2,38.2,1,78.1,1.8,116.3,3.5.8-21.6.5-45.7,1.9-67.3-.5-25.3,0-73.4-.8-98.8-38.9,2.7-118.1,9-118.1,9h0Z"/>
    <path id="STROKE_da4c62eb-30c4-40e0-bb5f-35de3a0e25541" class="st5" d="M748.6,643.7c44.8,8.6,89.8,15.3,134.8,23.9-1.9-45.1,0-132.7,1-177.1-44.8-3.8-136.2-7.4-136.2-7.4,0,0,3.1,108.9.4,160.6h0Z"/>
    <path id="STROKE_00bbe95c-f2c3-4e4a-b94a-4b53b839852a1" class="st5" d="M875.8,497.8c-1.9,33.4-1.1,122.7-2.1,157.3-38.9-6.1-79.2-14-118.1-20.1.9-22.4,1.8-55.5,1-78.2-.4-19.2-1-65.5-1-65.5,0,0,80.3,3.8,120.2,6.5h0Z"/>
    <path class="st2" d="M689,705.9s-412.2,1.2-456.5,3.1-176.5-1.1-232.5-3.1"/>
    <path class="st2" d="M1600,707.3s-57.7,3.7-90.4,2.3-200.6,3.6-247.3,0l-348.1-1.8"/>
    <path id="Door" class="st0" d="M913.6,457.4c-1.4-11.5-1.5-23.4-.7-34.9-.6-16.2,1-38.6,1.2-54.5h0v.4l-.3-.4h.3c-.2-52.4-1.7-113.4-.8-165.5-.8,0-28.7-.5-39.2-.4-9.4.9-22,.8-31.5.8-46.4,2.4-107.9.5-154.4,1-3.9,136.1-2.5,367.6.9,502.1,19.9,1.9,110,.4,130.4,1.1,24.8.3,54.2,1,80.4.7h5.5c2.7,0,8.7.2,9,.3-6.1-76.3-.7-174.3-.7-250.5v-.2h-.1Z"/>
  </g>
  <path id="Pfeil" class="st4" d="M800,761s62,55.8,78,68.9c-14.6-.2-27.3.9-41.9,0-1,22.4,0,42.6,0,42.6h-71.8s-2.2-19.9,0-42.6c-13.6.3-28.7.4-42.4,0l78-68.9h.1Z"/>
  <path id="Bild" class="st3" d="M245.2,324.5c-.2,42.5-.9,88,1,130.2,55.8,1.4,113.9-2.5,169.7,0,1.1-31.5,2.7-200.2,1.6-237.3-56.7,4-172.3,0-172.3,0v13.1s-1.6,63.7,0,94Z"/>
</svg>