<?xml version="1.0" encoding="UTF-8"?>
<svg id="Ebene_1" xmlns="http://www.w3.org/2000/svg" version="1.1" viewBox="0 0 1600 900">
  <!-- Generator: Adobe Illustrator 29.1.0, SVG Export Plug-In . SVG Version: 2.1.0 Build 142)  -->
  <defs>
    <style>
      .st0 {
        fill: none;
      }

      .st0, .st1, .st2 {
        stroke: #000;
        stroke-linecap: round;
        stroke-linejoin: round;
        stroke-width: 3px;
      }

      .st1 {
        fill: #2323ff;
      }

      .st2 {
        fill: #fff;
      }
    </style>
  </defs>
  <path id="Bild_2" class="st1" d="M816.3,135.7s230.1,6.7,408.5,0c3.6,80.4,5.9,544.7,21.2,625.4-102.7,4.7-181.7-5.1-290.9,0-99.4,4.7-189-7.5-279.3,0-104.7,8.6-321.8-1.7-321.8-1.7,1.3-62.6,23.8-147.9,23.5-213.7.7-131.5-16.3-410.3-16.3-410.3l455.1.2h0Z"/>
  <path id="Bild_1" class="st1" d="M575.5,84.9c198.6-4.7,326,2.3,515.2,1.6,2.2,87.3,16.6,587.3,5.2,728.8,0,0-291.7-.7-388.9,0-51.1.4-204.5,3-204.5,0,2.2-98.8,2.7-142.7,0-206.7-7.1-127.4,2.2-395.7,0-523.7,0,0,54.9.4,73.1,0h0Z"/>
  <g id="Zu">
    <path id="STROKE_d6b0a1ff-db12-466c-80fd-e210cd41de6b" class="st2" d="M403.9,116.1c-9.4-8.2-22.5-12.2-34.9-10.5-3.6.8-7.3,2.3-11,3.3-3.2,1.1-6.5,1.8-9,4.2-14.4,16.2-16,43.7,2.2,57.8,9.9,8.4,31.1,10.1,42.4,3.7,5.1-3.4,10.6-7.2,14-12.4,7.6-14.2,7.7-33.8-3.3-46.3l-.4.2h0Z"/>
    <path id="STROKE_159d6125-75b0-47ed-a944-7f380c305c94" class="st0" d="M396,121.1c-13.8,13.8-26.8,28.7-41.6,41.4"/>
    <path id="STROKE_c1231344-1495-4733-beee-34d3045628f5" class="st0" d="M354.6,121.1c12.5,14.9,27.2,28.1,41.3,41.3"/>
  </g>
</svg>