<?xml version="1.0" encoding="UTF-8"?>
<svg id="Ebene_1" xmlns="http://www.w3.org/2000/svg" version="1.1" viewBox="0 0 1600 900">
  <!-- Generator: Adobe Illustrator 29.1.0, SVG Export Plug-In . SVG Version: 2.1.0 Build 142)  -->
  <defs>
    <style>
      .st0 {
        stroke-width: 4px;
      }

      .st0, .st1, .st2 {
        fill: none;
      }

      .st0, .st1, .st2, .st3, .st4, .st5, .st6, .st7, .st8, .st9 {
        stroke: #000;
        stroke-linecap: round;
        stroke-linejoin: round;
      }

      .st1 {
        stroke-width: 2.8px;
      }

      .st2, .st3, .st4, .st5, .st6, .st7, .st8, .st9 {
        stroke-width: 3px;
      }

      .st4 {
        fill: #2323ff;
      }

      .st5 {
        fill: #9cb6ff;
      }

      .st6 {
        fill: #fff;
      }

      .st7 {
        fill: #9337e1;
      }

      .st8 {
        fill: #c8b63d;
      }

      .st9 {
        fill: #c4006d;
      }
    </style>
  </defs>
  <g>
    <path id="STROKE_fd284d13-50bc-42fc-8bbe-fb9fb5744b331" class="st7" d="M1291.8,110.1c.5,1.7,7.5,23.6,8.9,26.9v1.8c-.2.3-.4.5-.5.5,0,0-.2.2-.3.3,0,.1-.2.2-.2.2-1,1-2.7,2.2-3.6,3.2-1.6,1.1-3.6,2.3-5.2,3.4-4.3,3.6-9.3,5.9-14.8,6.8-1.1,0-11.5.3-12.6,0-4.2-.5-8.1-2.7-11.9-4.4-3.8-1.6-7.5-4.3-10.8-6.9-1.2-1.1-3.2-1.8-3.9-3.4,0-.9.4-1.8.7-2.6,1.4-2.9,8.6-30.6,8.6-30.6l2.6-1.6s.6-18.9.9-21.1c-.2-.5.5-1.3.9-1.5s.3-.2.4-.2c.4,0,1.3-.3,1.7-.2s.3,0,.4.2l.2.2c1.4.2.5,19,.7,20.1h3.4v-18.4c.2-.5.5-.9,1-1.3s.3-.3.4-.3c.4-.2,1.3-.2,1.9-.2.7.5,1,1.6.9,2.4v17.6h3.3v-19.1c0-.7.4-1,.7-1.1.7-.3,2-.9,3-.6s1,1.5,1.1,2.1c.6,4.5,0,18.2,0,18.2.9.2,2.9.3,3.8,0v-18.7c0-.2,0-.3.2-.6s0-.2.2-.4c.6-.6,2.1-1,3-.6s.8.5.9.7.3.8.5,1.2v18c.7,0,3,.2,3.6-.2v-18.4c0-.3,0-.4.2-.7s.2-.3.2-.4,0-.2.2-.2.4,0,.5-.2c.6-.3,1.7-.3,2.6,0s1.6.4,1.7.4-.4,17.6-.2,20.2l2.1,1.2s2,7.1,2.6,8.2h0Z"/>
    <path id="STROKE_a86008a8-9918-471c-95f9-648a296448a41" class="st2" d="M1268.3,118.7c-.6,0-2.9.5-3.8,1s-2.2,2.3-2.4,2.8"/>
    <path class="st2" d="M1260.8,135.2c0-.6-.2-1.1-.6-1.5s-.9-.6-1.5-.9c-2.1-.9-4.2-1.7-6.5-1.8s-4.7.7-6.1,2.5"/>
    <path class="st2" d="M1275.1,135.1c.8-1.3,2.3-2.2,3.8-2.6s3.1-.6,4.7-.7c1,0,2-.1,2.9,0s1.9.7,2.4,1.6"/>
  </g>
  <g id="New_Layer_1">
    <path id="STROKE_8c553ff9-037d-4790-b86e-606d863fe7d0" class="st2" d="M0,0c10.9,7.1,48.2,34.6,61.5,42.9,20.1,11.4,36.7,27.7,56.7,38.7"/>
    <path id="STROKE_ed84abac-212b-4a30-98fa-37cb8a2dc80f" class="st2" d="M1445.3,88.8c18.8-14.5,39.6-20.2,59.3-32.4,32-19.7,61-40.6,95.4-56.4"/>
    <path id="STROKE_7c49e137-6a1a-4c37-aac8-4c852dfadeaf" class="st2" d="M1447,750.4c23.3,14.7,47.8,29.8,72.1,42.9,28.4,17.4,51.1,35.6,80.8,50.9"/>
    <path id="STROKE_3242319c-1480-42c6-94ac-a91bdb5c806b" class="st2" d="M122.8,753c-7.4,8.8-18.4,17.1-27,25.4-18.5,17.3-41.9,39.5-61.6,55.6-24.2,19.8-9.9,7.9-34.2,27.6"/>
    <path id="STROKE_c9d3514b-7a91-4fd4-9800-9413db3eefef" class="st2" d="M286.6,137.9c2,26.4,3.7,53.2,3.9,79.8.5,8.1,1.8,16.3.2,24.4"/>
    <path id="STROKE_c05f4ea8-c0b8-4f72-9aa1-08a8e07308e2" class="st2" d="M290.7,231.5c-8.1,13.1-11.9,28.6-17.8,42.8-6.3,15.5-13,30.9-18.8,46.7-4.5,14.2-8.4,26.5-13.9,40.5-6.8,18.4-16.5,34.3-23.9,52.5-15.7,35.3-29.8,71.1-43.6,107"/>
    <path id="STROKE_f0d99de7-2701-4ad7-b165-ff4e24a0f5a9" class="st2" d="M290.1,221.6c-6.5,12.9-13.8,26.4-18.6,40.1-5.7,16.8-12.9,32.9-19.9,49.2-6.1,14.3-12.1,28.2-18.1,42.4-5.5,13.3-10.1,29-16.4,42-13.2,32.1-29.4,62.9-43.1,94.9"/>
    <path id="STROKE_40c71c34-63ec-4c56-91e7-bbb2e68414bb" class="st2" d="M507.3,752.7c.5-38.8,2.9-78,3.5-116.9.4-29.9-2.1-59.7-1.7-89.7,1-13.2,0-27.9.2-41.3,0-11.4,2.1-26.4,1.8-37.8-2.3-51.4-1-102.7-3.5-154.3-1-27,3.4-53.9,5.4-80.5,1.1-26.9,1.8-53.8.7-80.8v-12.2c0-.4.4-1.1-3.3-1.1-16.4-.4-34.6,1-51.1.4-16.1-1-23.2-1.8-41.2-2-38.3-1-72.2,1.2-109.9,0-21.1-.3-43,2.3-64.1,4.1-23.6,1.2-47.3,1-70.8,1.4-1.2,48.1-4.2,96.6-4.2,144.7-.7,14.7,0,28.6.7,43.5.5,20.2.2,39.1,1.9,59-.3,25.3.8,50.7,1.9,76-1,98.6-4.8,190.1-6.9,290.4"/>
    <path id="STROKE_264af84e-19b4-4058-ae09-c71acdcbb11d" class="st2" d="M1213.9,755.1c14.1,0,6.8-.3,24.2-.7"/>
    <path id="STROKE_4c28d092-bb48-477f-9f2a-3a40ae44aa9f" class="st2" d="M908.5,753.4c13.9-.3,27.9.8,41.9.3"/>
    <path id="STROKE_4c28d092-bb48-477f-9f2a-3a40ae44aa9f1" class="st2" d="M737.9,751.3c22.8-.3,43.9-1.9,66.1.9"/>
    <path id="STROKE_4c28d092-bb48-477f-9f2a-3a40ae44aa9f2" class="st2" d="M580.1,754.1c51,1.3,101,.5,151.8-2.7"/>
    <path id="STROKE_4c28d092-bb48-477f-9f2a-3a40ae44aa9f3" class="st2" d="M114.6,124c-.3,36.7,3.4,74.3,3.6,111.1-2.2,30.2-.7,59.4-1.2,89.7-2,33.6,1.2,66.6,1.7,100.2,1.9,65.3,5.7,130,6.6,195.3,1.6,46.2,3.5,86.9-2.4,133.6,93.3,6,187.3,1.6,280.6.8,29.8,1.5,60.7.3,90.5-1.6,27.3.4,52.9,1.2,80.5,1.1"/>
    <path id="STROKE_4c28d092-bb48-477f-9f2a-3a40ae44aa9f4" class="st2" d="M116,104.2c0,2.9-.6,8-1,11.4"/>
    <path id="STROKE_4c28d092-bb48-477f-9f2a-3a40ae44aa9f5" class="st2" d="M1309.5,79.8c-52.3-3.3-103.9,2.4-156.6-1-35.9-2-70.8-1-106.7.9-41.3,1-81.2.2-122.4,2.1-47.8,3.2-96-.9-143.7-1.8-27.7-.3-50.2,3.4-78.7,2.6-26.7-.7-49-3.8-74.7-4.8-24.1-1-50.2,1.9-74.1,1.9-27.7-.5-58.8.8-86.6,0-27.1-1-55.6-4.4-82.7-4.5-66.5-2.3-133.9,1.8-200.1,7.4-20.7,2.2-44.7-2.9-65-.8.3,2.5-.3,8-.3,10.6"/>
    <path id="STROKE_4c28d092-bb48-477f-9f2a-3a40ae44aa9f6" class="st2" d="M1411.1,751.3c11.3-.2,35.9,0,35.9-.9s.2-2.3.3-4.4c1.2-27.3,1.8-54,.4-81.5-2.4-58.7-1.6-117.3-1.8-176,.6-42.5,2.7-84.7.8-127.3-2.7-50.7-6.5-100.7-6.3-151.4,0-18.7-1.2-36.5-1.1-55,1-16.6,3-33.1,4.3-49.9-.5-4.1,3.9-18-.3-17.5-27.1-6-66.7-5-94.7-6.4"/>
    <path id="STROKE_eba96272-c74b-45b3-b43c-0e7e7af6b572" class="st2" d="M285.6,243.7c34.2-2.8,69.2-2.3,103.5-3.7,41.1-.9,82.1-2.9,123.2-4.6"/>
    <path id="STROKE_022c79f7-8823-4308-baf7-b64de9e335b5" class="st2" d="M273.8,272.8c9.1-1.7,18.9-.7,28.2-1.2,12.6-.2,25.5-1.7,38-1.6,56-4.4,112.6-6.1,168.7-2.5"/>
    <path id="STROKE_ba9390f3-ce87-46ea-9f97-e569f00e5d01" class="st2" d="M262.6,303.7c37.2-2.7,74.6,0,111.9-1.8,24-.4,47.6-3,71.7-2.8,18.9,0,37.7,2.3,56.6,1.5h4.5"/>
    <path id="STROKE_874cb47e-3362-4436-9b25-50ab107e3f07" class="st2" d="M248,341.6c13.5,0,27.9-1,41.4-1.1,20,1.4,40.2.2,60.3,0,52.5-2,105.3.4,157.8-.6"/>
    <path id="STROKE_26a8cb7b-f218-4019-801f-823d00d14b1e" class="st2" d="M262.4,334.4c34.6,0,69.2-1.2,103.8-1.9,47.1.8,94.4.9,141.4,2.3"/>
    <path id="STROKE_c38c06ef-b498-4de9-8a39-955bc602e4d1" class="st2" d="M273.3,273.5c.5,9.6,1.2,19.3,1.9,28.8"/>
    <path id="STROKE_d9f29316-f173-4cda-811f-55f884aa832c" class="st2" d="M284.7,244.9c0,8.5,1.7,17.5,1.2,26"/>
    <path id="STROKE_e26f2742-3ec7-4f8f-8045-2205114ec46e" class="st2" d="M261.3,303.8c.8,10.6-.4,18.7,1,29.8"/>
    <path id="STROKE_466a436d-178e-4b32-a3a7-35bbd40b67a2" class="st2" d="M247.4,342l-.5,1c1.4,9.5-.3,21.2,1.4,30.5"/>
    <path id="STROKE_fc4ac224-06b0-4631-93ee-d90bcf60992b" class="st2" d="M230.2,384.5c1.2,5.4.2,12,.4,17.7-.2,7.2.8,14.2,0,21.2"/>
    <path id="STROKE_acecb85a-bdec-4885-9100-918f963b3906" class="st2" d="M230.4,383.7c21.4-.7,43-1.3,64.4-1.3,25.6,1.1,51.5,3,77.1,3.5,45.6-1,91.6-3.8,137.3-1.2"/>
    <path id="STROKE_5355f02f-4169-4982-b0d0-3f2b40c30ccd" class="st2" d="M232.5,383.6c5.5-3.6,10.6-6,16.1-9.5"/>
    <path id="STROKE_7b7988be-6a26-47b0-a6ec-349b0e0d21ef" class="st2" d="M248.4,374c5.8-1,13,.2,18.9.3,9,.9,18.3-.3,27.3-.2,27.7,1.3,55.6,1.5,83.3,1.9,43.5.8,87.4-2.5,130.8-.9"/>
    <path id="STROKE_083b0e81-c18c-418b-bd5f-8bad45f8fb7b" class="st2" d="M249.1,341.1c4.8-2.8,8.7-4.8,14.1-6.3"/>
    <path id="STROKE_ec039d1a-9276-4742-9b73-b65e98ae8c17" class="st2" d="M231,423.5c13.1,2.9,27.5,0,40.9,1.1,37.9,3.3,76.2,1,114.3,1.3,24.4-.2,49.2,1.7,73.7,3.2,16.3.5,32.9-.3,49.1.5"/>
    <path id="STROKE_b116410a-9ee9-45ea-9a7f-1fb225812efb" class="st2" d="M206.9,438.5c15.7-1.3,31.7,0,47.4-1.6,17,.5,34.3,1,51.4,1.9,28.6.8,57.3,0,86,.8,24.5,1.1,49.4,2.8,74,1.9,14.5-1.1,28.8-3,43.3-1.2"/>
    <path id="STROKE_8a69b2ae-0547-4d82-8224-fca14b2a920f" class="st2" d="M185.6,490.1c4.7-4.9,10.7-8.5,15.4-13.3.2-.5.6-1.5,2.8-1.6,20.7-.2,41.6,0,62.3-.5,81-5.1,162.1,2.2,243,2.6"/>
    <path id="STROKE_d3159b47-a2a0-4b03-be43-09bf1c104688" class="st2" d="M185.1,488.8c51.5.4,103.1-3.3,154.7-2.9,37.9-1,76,.7,114,1.7,18.7,1,37.6,0,56.2,2.5"/>
    <path id="STROKE_895260da-583a-4a1a-af3a-17d7432d0d29" class="st2" d="M205.6,438.8c-1,11.8-2,23.3-2.6,35.1"/>
    <path id="STROKE_c665853f-030e-4c05-8900-049ea47a15ae" class="st2" d="M205.8,437.7c7.2-5.8,15.1-11,24-13.8"/>
    <path id="STROKE_13f282d2-71e9-4e40-8347-df685da8d999" class="st2" d="M185.5,489.2c0,13.3-.5,29.9,0,43.3"/>
    <path id="STROKE_0cc12a2c-ebf8-4211-8cc7-77afb3a91ea9" class="st2" d="M186.9,531.3c24,1.2,48.5,2.2,72.5,3.1,24.8.3,49.7-2.2,74.5-2,38,1.8,76.2,1.6,114.3,1.2,20.4.3,40.9,2.4,61.2,2.2"/>
    <path id="STROKE_e8cb3dc6-293b-451c-9b06-2fe66717b32a" class="st2" d="M174.3,548.2c54.3.7,109,1.6,163.4.9,56.7,0,113.6-2.7,170.1,1.9,0,0,.2.2.6.4"/>
    <path id="STROKE_0a6b39f0-aa80-4da7-a333-42b6f2b96988" class="st2" d="M171.3,588.5c29.6,2.2,59.7,3.2,89.5,2.2,24.9-.3,49,1.1,74,2.2,36.6-1.4,72.8-2.9,109.3-.7,22.1.6,44.2-1,66.1,1.6"/>
    <path id="STROKE_f9497aa9-f2e3-4fc8-983a-cd0f93191d5f" class="st2" d="M170.6,608.9c112.9,3,226.1,2.7,339.2,3.4"/>
    <path id="STROKE_4501f29a-731e-480c-b323-53da908124d8" class="st2" d="M186.3,531.1l-13.9,20.2"/>
    <path id="STROKE_3d928495-c7ba-4a19-811a-dc7e4a80bca1" class="st2" d="M170.7,656.2c21.5-.5,44.2,1.9,65.8,3.1,31.8,0,64.9.3,96.9,0,58.6,1,118.1,2.1,176.6-.9"/>
    <path id="STROKE_3b8298d2-0663-40c5-8597-61d6ae257035" class="st2" d="M169,677.5c32.3,1,63.7.2,96.3-.3,25.8,1.6,48-.8,73.7-.3,56.8.6,113.3,1.7,170.1,1"/>
    <path id="STROKE_ce4dc672-fd33-4c2b-9938-543b1d9b3d8c" class="st2" d="M168.8,732.2c69.7-3.2,140.3,0,210.1,1.8,30.5.4,62.5-.9,92.9-.9,11.4-.6,24.6-1.4,36,.2"/>
  </g>
  <g id="New_Layer_3">
    <path id="STROKE_3a977773-c5c9-46c4-ae6f-f3c3c878acdb" class="st2" d="M1228.1,304c27.9-1.6,56.4,1.5,84.3,1,35.3-.8,71.2-1,106.4.8.6,15.3-3.4,30.6-3.9,45.9-2.6,27.8-4.1,56.6-4.6,84.5,1.3,35.8.9,71.9,0,107.9-1.3,22.7,1,44.6,0,67.1,2.1,33,1.8,67.3-.7,100.2.5,16.5,2.5,31.9,1,48.4-.5,12.5-.6,24.7-4.6,36.4-30.8,3.6-61.4.4-92.6.8-23.7.2-46.5-2.3-69.6-.2-1.3.2-5.2.5-5.3-.7,0-9.2-1-18.9-.8-28-.2-11.2,1.7-22.1.3-33.4-2.6-16.9-2.5-35.4-2.9-52.5-2.9-21.2-1.9-41.1-4-62.7-2-26.6.2-53.5,0-80-.3-19.4,2.6-41,.5-60.6-1.4-39.4-7-80.8-7.1-120,2.1-17.7-.3-37.5,3.6-54.8h0Z"/>
    <path id="STROKE_f0c3d385-103d-4924-8ce1-9d635548e9fb" class="st2" d="M1226.2,336.6c29.2-2.2,60.9-2.1,90.3-1.3,33.4-1.4,65.7-1,99.1-1"/>
    <path id="STROKE_75be4d89-65c0-4b0a-93cb-73a14b8ad07f" class="st2" d="M1301.1,565.5c0,3.4.4,7.4,0,10.8-.5,3.2.7,4.2,4,4.6,14.4,1.3,29.1.9,43.5,0,9.2.5,5.5-2.9,5.6-9.7,0-6.8-3.5-5.6-8.8-6-14.1-1-28.4,1-42.4-.3l-.2-.4"/>
    <path id="STROKE_9a9bd212-e92a-4395-ab21-dd5cf4c73afd" class="st2" d="M1302.6,713.2c-1,12.2,6.3,7,14.5,8.1,6.6.8,12.9-1.1,19.5-1.2,5.5-.3,11.2,1,16.3-1.2.8-5.7-1-12.7-.5-18.6,1.3-12.5,1.3-25.4.3-37.9-1.1-18.9.9-38.4-2.6-56.9-11.2-1.5-23-.3-34.1,1.3-6.1,1.1-12.9-.7-18.6,2.3,0,0,4.8,68.5,5.2,104.1h0Z"/>
    <path id="STROKE_8bde91b2-b94f-415c-8475-39507ebbc6a1" class="st2" d="M1342.2,631.5c-6.4-21.9-39.4-7.9-30.3,12,9.8,18.7,33.1,7.9,30.3-11.4v-.6Z"/>
    <path id="STROKE_3664f3fd-a2ba-4180-b3ff-76de4803d56f" class="st2" d="M1340.2,674.8c-2.8-16.4-22-13.8-26.4.3-4.6,11.1,9.4,23.4,20.1,18.4,9.9-4.2,6.3-18.7,6.3-18.7Z"/>
    <path id="STROKE_b95897c5-ef91-4d8c-b1eb-cb300c43a3f2" class="st2" d="M1332.2,706.9c1.1-6-9.4-3-6.6,2.1,2.1,5.6,6.3-.4,6.6-2.1Z"/>
    <path id="STROKE_06ee74ba-f35b-4391-aab9-4e78e6f44ce2" class="st2" d="M1332.4,632.9c.3.5,1.7.9,2.3.9.9,0,2.4-4-1.4-3.6s-1.2,2.1-.9,2.7h0Z"/>
    <path id="STROKE_7d41eda2-8f27-47e6-ba2a-8f7952017e41" class="st2" d="M1333.5,675.8c1.2-1.2-2.5-3.8-3-1.4-.2,1.7,2.4,2,3,1.4Z"/>
    <path class="st6" d="M1347.4,192c-15.4-.4-33.5-.6-49-.5.2-13.7.4-27.4,1-41,.7-23.5-1.1-47.1-2-70.7-.2-5.4-.4-10.7-.4-16.1,0,0,19.4-3.6,25.9-3.5,16.7.4,25.3,3.5,25.3,3.5.9,42.7.2,85.5-.8,128.3Z"/>
    <path class="st2" d="M1347.4,192c-.2,7.3-.4,14.5-.5,21.8,1.1,18.9,2.9,37,2.9,55.8-.5,8.2-.4,16.4-.8,24.6,0,3-1,6.9.2,9.7"/>
    <path class="st2" d="M1299.2,303.9c-2-9.9-.9-21.2-1.7-31.2,0-15.7-.3-31.5.5-47.3.2-11.2.3-22.5.4-33.9"/>
    <path id="STROKE_27d389e0-3a45-4898-a6a7-c672d033e62a" class="st2" d="M1348.6,293.1c-16.8,0-33.5.4-50.3.4"/>
    <path id="STROKE_179debd2-05fc-4b46-99d6-3f869b042afa" class="st2" d="M1346.3,201.7c-8.1,1.4-16.2.4-24.4.5-7.9,0-14.7.5-22.5.2"/>
    <path id="STROKE_4382e9de-fd9a-47d1-aa37-59401380aae8" class="st6" d="M1212.3,789.6c.6-25,1.5-50.1,1.8-75.1,1.1-27.5,2.1-54.3,1.1-81.7-.7-13,1.4-24.3,2-37.3.7-11.7-1.3-23-1.3-34.7.3-11.2-.2-21.4,1.2-32.6,0-9.5,4.3-20.6-.3-29-31.8-3.7-64.5-3-96.6-1.7-14.8-.9-29.7-.7-44.5-.3-15.2-.7-30.3-2-45.5-.6-21.4,1.3-43.3.6-64.4-.4-6.4,0-13.2-1.1-19.1,1.3-1.6,2.7-1.3,9.8-1,12.9,3.7,38.1,6.7,77.5,6.3,115.8-1.4,54.2-4.4,109.8,1.3,163.7,1.1,7.7,10.9,6.1,16.6,7.2,17.2,2.8,35.5,1.7,52.8.4,24.5-2.3,49.4-2.9,74.1-4.2,13.8-.6,26.5-1.6,40.1-1.8,17.4.4,35.7,2.5,53.1,3.2,6,.4,12.2,1,18.3.8,2.2-.8,3.2-1.7,4-5.8v-.2h0Z"/>
    <path id="STROKE_5ff50c22-5db1-42e7-9562-6ec8203b32f7" class="st9" d="M1140.8,631.6c-3.6-7.4-8.7-16.1-14.4-22.1-13.4-11.7-30.9-19.2-48.9-17.6-10.6,1-21.3,6.2-29.1,13.4-7.5,6.3-14.4,13.4-18.8,22.2-7.6,13-8.5,24.2-5.1,38.8,2.9,18.9,16.5,35.7,33.1,45,20.8,10,46.7,6,64.3-8.6,8.1-6.3,18.8-14.5,17-26l-.7-.5s-1-.7-3-1.8c-2.4-7-1-14.5-1.3-21.9-.2-5.9-2.4-20.2,7.7-16.8,0,0-.4-3.5-.7-4.3h0v.2h0Z"/>
    <path id="STROKE_06d48606-9361-4326-b530-e2e8af3ffb93" class="st2" d="M1108.5,572.4c-14.7-5.2-29-2.4-43.7,0-21.9,4.4-40.9,19.1-53.5,37.3-7.1,11.3-12.5,41-10.1,54.3,2,10.2,5.3,20.8,8.9,30.3,2.6,4.8,8,12.7,11.7,16.8,8.2,9.2,16.8,19.7,29.3,23.1,31,9.5,70.9,7.6,93.2-18.8,25.5-27.9,33.2-66.3,14.3-100-5.4-10.6-13.3-19.5-21.7-27.9-8.7-8.6-15.8-12.2-28.3-15h-.1Z"/>
    <path id="STROKE_e7536888-f37e-4311-93b9-7351a5392e9f" class="st2" d="M946.5,513c17.2-.5,36.1,1.3,53.5,2,17.2-.7,32.3.9,49.6.2,30.7-2.6,60.6-2.5,91.3-3,25.6-.7,51.1-3.3,76.6-2.6"/>
    <path id="STROKE_0696621f-ec93-492e-a1a9-0f9250406b8b" class="st2" d="M1039.6,527.2c.3,8.1-5.7,27.9,6.9,27.7,10.6.9,21,.9,31.5.7,11.6-.6,24.6.6,36-2,4.1-4.8,3-12.4,3.3-18.3,0-2.3.5-4.9-.9-6.9-7.7-2.6-16.6-1.3-24.7-2.2-17.3-.9-35.2-.2-52.2,1h0Z"/>
    <path class="st2" d="M1138.3,535.2c-9.6-2.4-12.7,10.5-3.5,12.9,8.1.8,10.6-9.4,3.5-12.9Z"/>
    <path id="STROKE_08c149c0-42c1-4717-b39f-421a90c0ef51" class="st2" d="M1176.9,531.4c-10-2.1-23.1,3.7-19.2,15.6,1.9,5.7,6.2,11.5,12.2,13.2,7.5,2.3,17.5-3.8,17.6-12-.2-6.9-3.2-14.9-10.6-16.8h0Z"/>
    <path class="st3" d="M888.2,458.4c0,15,1,30.1-1.3,45.1-1,10.2.2,20.3.2,30.5h0c-1.7.2-3.4.3-5.2.4-.3-7.9-.8-15.8,0-23.8,2.3-15,1.3-30.1,1.3-45.1,1.3-18.8,3.8-37.8,3.1-56.6-.4-6.6,1.5-13.6-.4-20.1,0,0-28-1.3-43.8-1.8-14.5-.9-29.5-2.9-44-3.8-10.7-.9-21.9-.8-32.5-1.1,0-.3.4-.5.8-.4,10.7-.3,22-1.1,32.8-.8,14.5,0,29.6,1.1,44.1,1.2,15.8-.5,32-1.7,47.7-.4,1.9,6.5,0,13.5.4,20.1.7,18.8-1.8,37.8-3.1,56.6h0Z"/>
    <path class="st2" d="M765.5,382.1c-.4,1.1.4,4,0,5,1.6,21.4,2.2,44,2.2,65.5,1.3,27.7,1.9,55.5,2.9,83.2"/>
    <path class="st2" d="M881.9,534.4v6.7s-33.8-2.6-53.1-3.4c-19.3-.6-39,.6-58.2-2"/>
    <path id="STROKE_d9153862-9620-4533-88ec-2728417d3e2a" class="st2" d="M829.9,419.6c7.2,17.2,15.3,34.6,24.3,51-15.3-.9-30.8-.2-46.1-.4-1-.2-4.7,1-3.5-1.1,4-7.4,8.1-16.2,11.3-24,3.1-7.7,5.5-15.7,10.2-22.5.9-1.4,1.8-3,2.7-4.5,0-.2,1,1.4,1,1.6h0Z"/>
    <path id="STROKE_5bc36723-505f-492d-b1eb-053ee8a27a02" class="st2" d="M830.6,439.8c-1.3,3.9-4.5,9.1-4,13.3,1.7.5,3.5-1,5,0-.3,3.8-3.2,6.9-4.8,10.2"/>
    <path id="STROKE_2189e957-195f-44ba-9b71-61ea24d54d3b" class="st2" d="M825.8,459c0,.2.5,5.2.6,5.3l5.8-1.5"/>
    <path id="STROKE_f8633d03-7551-4b60-b39a-c038c1de3e93" class="st6" d="M799,649c1.3,50,.4,100.3,8.2,150,23.6,5.1,48.5,1.6,72.5.7,5.8-.2,14.5-.6,19.8-.9,1.9-.7,7.3,1.2,6-2.1.7-50,2-96.1,4.8-146.8"/>
    <path id="STROKE_a914fff8-6b7e-4398-bc40-fb0ebeb481e0" class="st2" d="M840.9,381.3c3-19.2,1.4-38.2,1-57.6,0-27-2.9-53.7-3.4-80.6.3-10.1-.2-20.5-.2-30.6.5-9,1.7-18.2,1.2-27.3-1.2-15.8-1.4-31.7-2.4-47.5-.4-8.7.9-17.6,0-26.1-1.3-6.7-9.6-5-14.6-5.7-17.3-2.4-35.8-2.6-53.2-2.5-30.6-1-60.5,0-91.4-.3-12.7.2-20.2,0-32.3.4-10.8.7-19.4,2.8-30.3,2.4-29.3-.6-56.5-1.2-85.8-1.7-26.5,1-51.2,2-77.6,2.1-22.4.3-45.5-1.8-68-2.9-19-.3-37.6-.7-56.7-1.3-44.8-.6-88.9-.4-133.7,2.1-33.3,1.5-61.1,0-96.5-.6,0,0-.8-4-.8-5.9s.8-5.2.8-5.2c42.4,4.7,85.6,1.7,128.2,3.3,20.5-1.2,41.2,0,61.8-.4,24.2-1.5,48.4-1.4,72.6.4,19.5.3,39.1-2.6,58.6-.3,27.1,2.3,54.4,1.3,81.5,2.6,23,.5,45.7-2.5,68.7-2.2,25.6.5,51.2,2,76.8,1.1,20,0,40.4.8,60.6.5,28.1-1.8,56.5-.8,84.6-1.8,14.5-.2,29.4.5,43.8,2.6,3.6.2,7.7,2.1,9.7,5.2,3.1,4.7.3,13.3,1,19.3.8,11.8-.4,23.8-1,35.5-.9,11.4,1.8,24.7,2,36.1,1.1,30.5,1.5,61.7.5,92.2,0,16.4,1.6,32.6,3.9,48.8-.2,15.2-.4,30.8-2.5,45.9"/>
    <path id="STROKE_8a0b2b62-cce6-4465-82fe-317a0f1a5e15" class="st2" d="M808.7,379.7c1.6-56-5.4-112.2-8.8-168-1.4-19.4,1.2-39.3-1.2-58.6-.7-6.1,1.7-14.4-.4-19.7-3.5-6.8-13.3-4.1-19.8-5-17.2-1.8-36.1-3.4-53.3-1.5-38.9,1.4-78.5,2-117.4,1.4-43-1.9-86.5-2.6-129.5-4.4-29.7,0-59.1,4.6-88.9,2.9-55-2.6-111.4-2.8-166.7-5.3-41.9,1.6-84.8,3.4-126.5,1.6,0,0-1.6-3.2-1.6-4.3s1.6-3,1.6-3c28.4,1,55.4,3.6,83.5,2,24.8-1.9,49.6-4.9,74.4-3,26.2,2,52.3.7,78.7,1.1,16.8.7,32.3.9,48.8.2,17.5.2,36.1,1.9,53.6,1.9,54.7-2.1,109.2-2.9,163.9,0,30,1.8,59.2,1,89.2.4,25.2,0,50.6,3.4,75.6,4.3,6.8-.3,20.4,0,26.6-.3,6.5-.8,14.9,3.2,15.8,10.1-.7,8.9.6,18.2,1.3,27.2.3,15.6,2.6,29.5,2.9,45.4,1,58.5,5.8,116.3,4.8,174.8"/>
    <path id="STROKE_de0bf9e4-e773-4f6b-be2f-8f72a3e785ac" class="st2" d="M709.5,376.3c33.9-1.6,35.9,8.7,34.3,39.7,1,31.8-1.6,63.6-1,95.4,2.2,30.5-.8,61.1,1.9,91.5,1,10.3-.5,20.4-.3,30.8,0,17.5,1.6,35.2-.5,52.7-.8,15.1-6.7,22.3-22.4,22.6-13.1,0-26.2.3-39.4-.8-14.6-1.5-28.7.3-43.3,1.3-9.6.8-19-1-28.5,0-12.4,1.2-26.3.9-37.4-5.4-6.2-6.4-5.3-17-5.7-25.3,0-32.6.6-65.3,1.9-97.9,1-22.5-2.2-44.9-2.1-67.3.8-17.2.3-34.4.7-51.7,0-15.1,1.4-30.3,0-45.3-4.2-48.1,17.5-41.2,55.1-40.9,29,1,57.6-1.4,86.6.7v-.2h.1Z"/>
    <path id="STROKE_ad90a449-a176-41f2-803f-5d5c9d50f3d6" class="st2" d="M710,380c32.9-1.5,30.4,13.5,29.8,40.4,1,32.8-2.5,65.7-.5,98.5.9,28.7-.7,57.6,1.7,86.2-1.2,15.6-.6,31.4,0,47-.3,11.1-1.2,22.2-1.9,33.4,0,17.8-9.9,20.8-25.8,18.9-8.7-.5-17.6,0-26.2-.2-28.3-2.1-56.7,1.6-85-.2-33.6,1.7-31.1-8.7-30.4-37.5.3-34.5,1.4-69.2,2.1-103.7.2-20.3-3-40.8-1.9-61.1,1-13.4-.2-26.8.5-40.3,0-14.4,1.3-28.8,0-43.1-4-45.7,16.6-39.1,52.5-38.9,28.4.8,56.8-1,85.2.6h0Z"/>
    <path id="STROKE_29159eb1-dd23-42db-a3e7-e197df0e0ad6" class="st1" d="M733.5,701c-.2-9,.5-18.1.7-27,0-6.9-1.1-14-1.2-20.9,0-25.8.4-51.5-.9-77.3,1.1-59.9,2.5-119.3-.8-179.4"/>
    <path id="STROKE_29159eb1-dd23-42db-a3e7-e197df0e0ad61" class="st1" d="M579.9,707.9c.2,13.8-.4,27.4-.5,41.1-.2,11.9,1.3,22.2,15.7,22.6,33.5,1.6,66.8-1.3,100.3.6,10.9-2,29,5.6,35-6.7,3-7,1.9-14.5,2.9-22.1.8-12.1,1.6-24.2.5-36.4"/>
    <path id="STROKE_29159eb1-dd23-42db-a3e7-e197df0e0ad62" class="st1" d="M576,698.1c.7-20.1.9-40.2,1.3-60.2,0-18.5-2.4-36.8-2-55.3,1-25.9.2-51.7,1.3-77.7-2.1-35.1-1-70.3-.5-105.4l5,.4c-1.5,17-.6,34.1-.8,51.1-.3,16.4-1.1,32.9,0,49.2.9,12.7-.7,25.2-.4,37.9-.6,12.1.7,24-.4,36-1,19.5,1.7,38.9,1.7,58.3-.3,22.9-1,45.8-1.5,68.8"/>
    <path id="STROKE_29159eb1-dd23-42db-a3e7-e197df0e0ad63" class="st1" d="M737.2,704.6c0,20.8,2.8,42.7-3,62.9-6.1,12.2-22,8.4-33.1,9.2-18.3-.5-36.2-2.8-54.4,0-9.1,1-18.2.2-27.3,0-8.5.5-16.9,1.8-25.3-.3-14.4-2.2-17.6-6.4-18.4-20.7-.7-16.5,0-33.3,0-49.8"/>
    <path id="STROKE_29159eb1-dd23-42db-a3e7-e197df0e0ad64" class="st1" d="M736,396.9c2.2,59.4.8,119.3-.4,178.6,1.2,28,1,56.1,1,84.1.7,12.1,1.9,24,.8,36.1"/>
    <path id="STROKE_d30e94b3-a05a-4860-b790-e0500fa02acc" class="st2" d="M580.1,552c3.7-14.9,28.7-8.2,40.2-8.7,14.5,1.1,28.6.6,43.3.3,18.7.6,37.5-2.6,56-1.6,12.7,1.9,11.3,6.6,12.7,17.1"/>
    <path id="STROKE_42c520a9-a7f5-4180-ba87-bc37aa2907a9" class="st2" d="M580.5,529.5l-.2-2.9c-.4,12.3,8.3,14.2,18.6,13.2,8.4-.3,18.3,0,26.7-1.1,7.2-.8,13.6-2.2,20.9-1.3,24.4,0,48.8,4.8,73.1,1.4,10.4-1,11.6-2.8,13.6-12.7"/>
    <path id="STROKE_50d36223-2032-47f0-99ca-2554adbd0d4b" class="st2" d="M716.5,381.6c-1.7,44.8,0,89.8-1.2,134.7,0,7.6,1.4,15.4-1,22.8"/>
    <path id="STROKE_1c7a4601-ebf9-41e1-937b-9a741ad86d3f" class="st2" d="M699.5,381.1c.3,23-.8,45.7.2,68.6-.6,29.8-1.2,59.8-.5,89.6"/>
    <path id="STROKE_b8d4ff3d-8ba5-4564-b595-cbee550f427d" class="st2" d="M682.6,379.7c-.5,25.5,1.8,51.2,2,76.7-.5,27.1-2.4,54.4-1.9,81.4"/>
    <path id="STROKE_9a1bfac3-ff75-4931-878c-6151cdddd23b" class="st2" d="M665.2,379.7l.2.4c-1.7,22.3-2.2,45-.9,67.4,0,29.8,1.9,59.9,1.2,89.6"/>
    <path id="STROKE_5494c523-c8a1-4938-a5a0-cc9b73930d3a" class="st2" d="M649,381c.7,51.3-1.8,102.9.2,154.3v.4"/>
    <path id="STROKE_6596b68b-d87d-4296-9025-ccb4b669d374" class="st2" d="M631,380.3c-1.4,26.7.9,53.5,1.3,80.3,0,25.5-1.1,51-1,76.4"/>
    <path id="STROKE_43ac4954-d2c9-43a9-ab36-8c1ec68c562d" class="st2" d="M614.3,380.4c-2.3,17,1,34.8,1.2,52-.7,35.3-1,70.7-1.2,106"/>
    <path id="STROKE_ca2a23e5-a395-4781-b045-863043fdb253" class="st2" d="M596.5,379.8c2.1,7.5-1.2,16.1-.5,23.9.6,16.8,2.3,33.6,1,50.5-.5,14.9-1.3,30.1-1.1,45.1.2,13,1.8,26.7,0,39.6"/>
    <path id="STROKE_a8bd08f8-18ef-489e-af64-b6cbd62b9ba0" class="st2" d="M597,543.2c0,10.9-1.9,22.1-1.2,33,.2,19.1,2,38,1,57.1-.7,23.3,1.6,46.9-2.3,69.8"/>
    <path id="STROKE_d5e75f17-985b-491e-bf83-e9e86cd76513" class="st2" d="M615.1,544.3c2,25.3,1,50.9.5,76.3-.4,27.7-.3,55.8-3,83.2"/>
    <path id="STROKE_7911cf61-f498-41d4-a0f4-bf179cb60598" class="st2" d="M631.2,544.3c2.1,8.7,1.4,18.1.7,27-.9,15.7-1.4,32.1-1.6,47.9-.3,19,.4,38.1,1.3,57.2.5,9.8,1.9,17.4.2,26.7"/>
    <path id="STROKE_74798db5-23bc-45a0-92a1-8a4f213e6494" class="st2" d="M650,544.6c.3,23.1-1.2,45.2-.5,68.4,1.4,30.3,3.2,59.8,1,90"/>
    <path id="STROKE_269dbfb2-e76a-4f47-b233-793ad2d26d4e" class="st2" d="M665.9,544.9c1.9,26.6-.7,53.6,1.1,80.3.2,25.8,3.2,51.9,1.7,77.6"/>
    <path id="STROKE_47497512-2077-44f2-a085-b0d1f4cd0f2f" class="st2" d="M683.3,544.3c1,52.8.4,106.3,1.1,159"/>
    <path id="STROKE_9295d3d9-d83b-40d2-b6b6-a45aab30c777" class="st2" d="M700.5,543.2c1.6,16.3.7,33.5,0,49.9,0,14.4.2,29.4-.3,43.7-.2,22,3,45.2.8,66.9"/>
    <path id="STROKE_6235ec56-e243-46f1-8041-7171e2419051" class="st2" d="M716,542.4c0,32.9-.9,66.2-.5,99,.2,21.1,1.7,41.3.7,62.5"/>
    <path id="STROKE_26530382-0edf-4f34-a3b2-7b910b351197" class="st2" d="M731.6,650c-17,1.3-34.2-1.2-51.4-1-32.5-.4-65.3-.8-97.7-1.2"/>
    <path id="STROKE_be08884b-882e-4605-8ec3-5568de22d3c5" class="st2" d="M731.5,630.8c-8.6,1.8-15.9,1-25,1.1-13.9.4-27.5,1-41.2,1.3-27.6-1.5-55.7-1.8-83.3-2.9"/>
    <path id="STROKE_0bdb6f02-ec94-426e-af2c-9ee65b427d7c" class="st2" d="M733,615.9c-31.8,3.1-64.6,1.8-96.8.6-18.1-1-36.9-.3-54.7-2.7"/>
    <path id="STROKE_3651cd8f-c43f-4f10-95d6-04282864e445" class="st2" d="M732.3,599.2c-22.6,3.3-45.2.4-68.1.4-18.3.4-36.4-1.5-54.8-2-9.8-.5-19.3.3-28.7-2.2"/>
    <path id="STROKE_8dafad4a-33d0-4985-b9bc-e45f910040df" class="st2" d="M732.5,581.9c-8.9-1.2-22,0-31,0-18.9-1-37.5.5-56.7-.2-22.1,0-42.5,1.5-64.4-1.5"/>
    <path id="STROKE_1b1a2df8-f70d-4bcd-955c-ffe0870f8bbd" class="st2" d="M731.3,565.1c-28.8-2.8-58-2.5-86.8,0-21.3.5-42.8.7-64.1-.4"/>
    <path id="STROKE_80d27fad-d93b-4824-b321-88985115669d" class="st2" d="M732.8,517.3c-6.7,1.5-14.5.2-21.3.2-12,.3-24.2.3-36.4.6-31.4,2-62.6-1.1-93.9-2.6"/>
    <path id="STROKE_48016fa1-58a0-4d68-ac63-d8c84d2403dd" class="st2" d="M732.4,500.8c-50.1-1.3-100.6.5-150.6-2.7"/>
    <path id="STROKE_0d9949b8-8b11-44dd-9216-2ffd4dfb86a5" class="st2" d="M732.9,484.6c-20,1.1-41.2.7-61.2,1.4-18.9,1.4-37.5,2-56.3.8-11.4-1-23.7-.5-34.8-3.3"/>
    <path id="STROKE_133f50ff-106e-45e3-b935-3e13fe4abc35" class="st2" d="M732.5,467.6c-28.2.4-56.7.7-85.1.7-22.2,1.3-44.5,1.3-66.7-.5"/>
    <path id="STROKE_90b06caa-65f7-432a-9c4f-0baa40772955" class="st2" d="M730.9,450.1c-7.7,2.5-14.4.5-22.3.6-13-.2-23.5-.9-36.7-1-30.3,0-59.8,3.4-90,2.3"/>
    <path id="STROKE_d570ccaf-31ee-40ac-bb2b-fcecaa54fb3e" class="st2" d="M732.1,434.8c-30.9.5-61.9.3-92.8.8-19.3.4-39.4-2.4-58.6-2.4"/>
    <path id="STROKE_282d33d1-4bc1-4d73-b292-b4f159636b96" class="st2" d="M736.1,396.7c-1.2,0-2.9-.2-4.1-.4"/>
    <path id="STROKE_3e73d529-bc96-4861-8259-e1e32bbae1e3" class="st6" d="M795.3,626.7c-2.8,4.3-1,16.1.8,20.7,4.7,2.6,8.2,1.8,13.4,2.3,18.4,1.6,36.7,0,55.1.5,9.7,1,24.1.7,33.7.3,5.2-.9,15.8,2.3,16.5-5,.4-5.5,2.4-13.2-2.2-17.3-12.3-3.6-24.3-3.4-37.4-4.3-17.1-1.3-31.2-2-48.2-2.2-12.1-.7-21.2-.5-31.8,5h.1Z"/>
    <path class="st2" d="M765.5,382.1h-.2"/>
  </g>
  <g>
    <path id="STROKE_fd284d13-50bc-42fc-8bbe-fb9fb5744b332" class="st7" d="M1222.1,110.1c.5,1.7,1.4,3.4,1.9,5.2.4,1.5,1,3.2,1.5,4.7.2.5.3,1.4.6,1.8.5,1.6,1,3.3,1.7,4.8,1,3.4,3.2,12.2,3.2,12.2-.2.3-3.7,3.2-4.6,4.2-1.6,1.1-3.6,2.3-5.2,3.4-4.3,3.6-9.3,5.9-14.8,6.8-1.1,0-11.5.3-12.6,0-4.2-.5-8.1-2.7-11.9-4.4-3.8-1.6-7.5-4.3-10.8-6.9-1.2-1.1-3.2-1.8-3.9-3.4,0-.9,2.7-8.9,3.9-11.8.3-.9.9-2.2,1.3-3.1,1.8-4.2,5-17.9,5-17.9l1.7-2s.6-18.9.9-21.1c-.2-.5.5-1.2.9-1.5,0,0,.2,0,.4-.2.4-.2,1.2-.2,1.7-.2,0,0,.4,0,.4.2l.2.2c1.4.2.5,19,.7,20.1h3.4v-18.4c.2-.5.5-.9,1-1.3,0,0,.2,0,.4-.3.5-.3,1.3-.2,1.9-.2.7.5,1,1.6.9,2.4v17.6h3.3v-19.1c0-.7,0-.6.7-1.1.8-.7,2-.6,3-.6.6.4.7,1.4,1.1,2.1v18.2c.9.2,2.9.3,3.8,0v-18.7c0-.2,0-.4.2-.6,0-.2,0-.3.2-.4.3-.8,2.3-1.3,3-.6.3,0,.7.5.9.7.2.4.3.8.5,1.2v18c.7,0,3,.2,3.6-.2v-18.4c0-.3,0-.5.2-.7,0-.2.2-.3.2-.4l.2-.2c.2,0,0,0,.5-.2.7,0,1.9-.6,2.6,0,.2,0,.3.2.4.2s.6.8.7.9c0,.2.5.7.2.8,0,3,0,16.1.2,18.7l2.1,1.2s2,7.1,2.6,8.2h0Z"/>
    <path id="STROKE_a86008a8-9918-471c-95f9-648a296448a42" class="st5" d="M1204.2,114.4c-.9-.9-2.4-1.6-3.6-1.9-1.2-.2-2.4-.6-3.8.2"/>
  </g>
  <g>
    <path id="STROKE_fd284d13-50bc-42fc-8bbe-fb9fb5744b333" class="st7" d="M1151.4,108.2c.5,1.7,1.4,3.4,1.9,5.2.4,1.5,1,3.2,1.5,4.7.2.5.3,1.4.6,1.8.5,1.6,4.9,17,4.9,17-.2.3-3.7,3.2-4.6,4.2-1.6,1.1-3.6,2.3-5.2,3.4-4.3,3.6-9.3,5.9-14.8,6.8-1.1,0-11.5.3-12.6,0-4.2-.5-8.1-2.7-11.9-4.4-3.8-1.6-7.5-4.3-10.8-6.9-1.2-1.1-3.2-1.8-3.9-3.4,0-.9.4-1.8.7-2.6,1.4-2.8,9.3-31,9.3-31l2.6-2.3s0-17.8.2-20c-.2-.5.5-1.2.9-1.5,0,0,.2,0,.4-.2.4-.2,1.2-.2,1.7-.2,0,0,.4,0,.4.2l.2.2c1.4.2.5,19,.7,20.1h3.4v-18.4c.2-.5.5-.9,1-1.3,0,0,.2,0,.4-.3.5-.3,1.3-.2,1.9-.2.7.5,1,1.6.9,2.4v17.6h3.3v-19.1c0-.7,0-.6.7-1.1.8-.7,2-.6,3-.6.6.4.7,1.4,1.1,2.1v18.2c.9.2,2.9.3,3.8,0v-18.7c0-.2,0-.4.2-.6,0-.2,0-.3.2-.4.3-.8,2.3-1.3,3-.6.3,0,.7.5.9.7.2.4.3.8.5,1.2v18c.7,0,3,.2,3.6-.2v-18.4c0-.3,0-.5.2-.7,0-.2.2-.3.2-.4l.2-.2c.2,0,0,0,.5-.2.7,0,1.9-.6,2.6,0,.2,0,.3.2.4.2s.6.8.7.9c0,.2.5.7.2.8,0,3,0,16.1.2,18.7l2.1,1.2s2,7.1,2.6,8.2h0Z"/>
    <path id="STROKE_a86008a8-9918-471c-95f9-648a296448a43" class="st5" d="M1131.1,121.6s-1.2-2.8-1.8-3.6-2.2-1.7-3-2"/>
  </g>
  <g>
    <path id="STROKE_fd284d13-50bc-42fc-8bbe-fb9fb5744b334" class="st7" d="M1082.6,109.2c.5,1.7,1.4,3.4,1.9,5.2.4,1.5,1,3.2,1.5,4.7.2.5.3,1.4.6,1.8.5,1.6,1,3.3,1.7,4.8,1,3.4,1.8,7.1,3.2,10.4v1.8c-.2.3-.4.5-.5.5,0,0-.2.2-.3.3,0,.1-.2.2-.2.2-1,1-2.7,2.2-3.6,3.2-1.6,1.1-3.6,2.3-5.2,3.4-4.3,3.6-9.3,5.9-14.8,6.8-1.1,0-11.5.3-12.6,0-4.2-.5-8.1-2.7-11.9-4.4-3.8-1.6-7.5-4.3-10.8-6.9-1.2-1.1-3.2-1.8-3.9-3.4,0-.9.4-1.8.7-2.6,1.4-2.9,2-6.3,3.2-9.2.3-.9.9-2.2,1.3-3.1,1.8-4.2,6.3-19.5,6.7-19.9,1.7-1.7.6-18.9.9-21.1-.2-.5.5-1.2.9-1.5,0,0,.2,0,.4-.2.4-.2,1.2-.2,1.7-.2,0,0,.4,0,.4.2l.2.2c1.4.2.5,19,.7,20.1h3.4v-18.4c.2-.5.5-.9,1-1.3,0,0,.2,0,.4-.3.5-.3,1.3-.2,1.9-.2.7.5,1,1.6.9,2.4v17.6h3.3v-19.1c0-.7,0-.6.7-1.1.8-.7,2-.6,3-.6.6.4.7,1.4,1.1,2.1v18.2c.9.2,2.9.3,3.8,0v-18.7c0-.2,0-.4.2-.6,0-.2,0-.3.2-.4.3-.8,2.3-1.3,3-.6.3,0,.7.5.9.7.2.4.3.8.5,1.2v18c.7,0,3,.2,3.6-.2v-18.4c0-.3,0-.5.2-.7,0-.2.2-.3.2-.4l.2-.2c.2,0,0,0,.5-.2.7,0,1.9-.6,2.6,0,.2,0,.3.2.4.2s.6.8.7.9c0,.2.5.7.2.8,0,3,0,16.1.2,18.7l2.1,1.2s2,7.1,2.6,8.2h0Z"/>
    <path id="STROKE_a86008a8-9918-471c-95f9-648a296448a44" class="st5" d="M1062.1,114.8c-.7-.7-2.2-1.5-3.1-1.7s-2.8-.4-4.4.4"/>
    <path class="st2" d="M1081.4,130.9c-2.9-1.9-6.9-1.7-9.6.5"/>
    <path class="st2" d="M1054.6,130.3c-.2-.9-1-1.7-1.8-2s-1.9-.4-2.8-.5c-1.8-.1-3.9-.1-5.1,1.3"/>
    <path class="st2" d="M1149.4,131.8c-2.9-1.9-6.9-1.7-9.6.5"/>
    <path class="st2" d="M1116.4,131.8s-2-1.7-2.8-2-1.9-.4-2.8-.5c-1.8-.1-5.1,1.3-5.1,1.3"/>
  </g>
  <g>
    <path id="STROKE_55fc9322-bb7f-4c7d-b1a9-02fda6e397e9" d="M1057.4,616c-4.2,1.9,9.5,12.5,11.7,9.4s-.7-3.5-1.1-3.9-7.3-7.1-10.6-5.5Z"/>
    <path class="st0" d="M1114.8,624.5c-1.5-.9-3.5-.5-4.9.5s-2.5,2.4-3.4,3.8c-4.4,6.4-8.7,13.8-7.5,21.5"/>
    <path class="st0" d="M1085.5,658.7c-4.8-.3-9.9-.4-14.1,1.9-3.6,2-6.1,5.5-7.5,9.4s-1.9,7.9-2.4,12"/>
  </g>
  <g id="Wesen">
    <path id="STROKE_72cc54be-af4a-4b7b-827c-fbc532cb380b" class="st8" d="M580.7,778.2c.3,1.4.4,33.9,0,35.1,0,2-.7,3.8-2.3,4.8-.7.4-2.7.7-3.4.2-2.7-1.3-3.6-4.9-3.5-7.6-.2-9.7.4-27.2-.2-36.6-.2-1.2-.8-2.3-1.7-3.1,0,0-.2,0-.2-.2l-.3-.2c-.6-.2-1.9-.4-2.5,0-2.7,1.6-5,4.2-8,5.3-1.3.2-3.7.5-4.9-.3-.2,0-.4-.2-.5-.4-1.2-1-1.1-3.8-.5-5.2.2-1.1,2-3.1,2.5-4.1,1.4-1.8,4.8-5.3,2.9-7.5-2.6-1.2-6.3.5-8.9,1.2-2,.5-4.7,1-6.8.4-.5,0-.9-.5-1.3-.9-.3-.2-.7-1.2-.9-1.6,0-1.3,0-2.8.9-3.8,1.1-3.1,13.3-8.4,9.3-11.7,0,0-.2,0-.3-.2-4.2-2.4-16.7,2.4-14.7-6,2.6-5.8,9.9-3,13.9-6.3,4.5-4.9-6.2-6.1-8.5-8.8-2.7-2.2-3.9-6.2-.5-8.4,1.6-.9,4.3-1.3,6-.7.2,0,.5,0,.8.2,2.1.7,5.5,1.9,7.7,1h.2s0-.2.3-.4c1.5-3.6-6-8-6.8-12.3-.3-.7-.2-1.8-.2-2.5s0-1.6.5-1.8c.5-.6,1.2-.9,2.1-.8.8,0,2.1-.2,2.9.2,3.8.7,6.6,4.6,10.5,4.9.9,0,1.7-.4,2.2-1.1.3-.8.5-2.2,0-3.1-.6-1.3-1.5-2.5-2.2-3.8-.4-.8-.8-1.4-1-2.3-.3-1.5-.4-3.7.2-5,.4-1.9,2.3-3.7,4.4-3.5,4.2,0,6.3,7.5,10.5,8.9.4,0,1,.2,1.4-.2.4,0,.6-.5.6-.9.6-4.6.7-10.3,2.9-14.5l.9-.9c6.1-2,7.5,7.8,8.7,11.9,0,.2,0,.3.2.4,1.9,3.7,4.1,3.6,5-.6.8-2.9,3.3-5.9,4.9-8.6.8-1.1,1.4-1.8,2.7-2.2.7,0,1.9-.2,2.5.2.2,0,.4.2.5.3,0,0,.2,0,.2.2.9.8,1.5,1.6,1.9,2.6,1,4.4-1.8,10.3,1.4,14,1.7,0,3.5-2.6,4.5-3.7,4.2-5.8,14.1-10,12.6,1.2-.6,2.9-3.5,5.4-3.6,8.4,0,.8-.3,1.4.2,2,.6.6,1.5,1.4,2.4,1.1,3.7-.4,5.6-4.6,9.3-5.2,5.3-1.8,7.7,4.5,5.4,8.5-1.5,3.8-9,4.8-7.5,9.6.7,1.8,3.1,2.5,4.9,2.4,1.5-.3,3.5-.4,5-.9,1.3-.2,3-.6,4.2,0,1.5.6,2.4,2.2,2.2,3.8.4,4.9-6,5.7-9.5,6.9-2.4.7-5,4.3-2.1,6,3.8,3,9.8.8,12.9,4.5,1,1.5,1,4.1-.4,5.5-3.6,3.1-9.4.8-13.6,1.8-.8,0-2.2,1.7-2.6,2.3,0,5.7,8.3,6.7,10.9,10.8.4,4.4-1.7,6.6-6.1,5.5-.3,0-1.6-.4-1.8-.5-1.5-.4-3.9-1.3-5.4-1.8-11.1-2-2,8.3,0,12.5.4,1.1.3,2.8.3,4s-1,1.5-1.4,1.9c0,0-.3,0-.4.2-1.5,0-4.1-.4-5.5-1.3-1.7-.6-3.3-2.1-4.5-3.3-1.4-1.3-3-4.2-5.2-3.1-2.8,1.8-1.5,7.1-1.8,9.9v31.8c0,1.9-.5,3.4-1.7,4.6l-.3.3c-1.1.7-2.6,1-3.8.5-.3,0-.6-.2-.7-.3-4.6-3.4-3.2-13.9-3.5-19.2-.4-3.9-1.5-8.5-1.3-12.5.2-2.6-.3-6.1-1.4-8.3-4.1-.2-14.4-.5-18.4,0-1.4,0-4,.5-4,.5h.2,0Z"/>
    <path id="STROKE_316d4fec-0d6a-4ee4-90fc-03d0b3faf70f" d="M590.1,756.2c2.1,3.5,4.9,7.2,9.5,6.5,2.4-1.5,2.3-5.6,0-7.2-3-1.3-7.7-.5-10.9-.7,0,0,1.1.8,1.5,1.3h0Z"/>
    <path class="st2" d="M567.7,723.8c7.2,2,14.8,2.4,22.2,1.2"/>
    <path class="st2" d="M607.1,727.1c6.8,2.9,14.5,3.5,21.6,1.6"/>
  </g>
  <path id="Bild" class="st4" d="M1066.5,355.4c30.4.1,62.9.6,93-.7,1-39.9-1.8-81.4,0-121.3-22.5-.8-143.1-1.9-169.6-1.1,2.9,40.5,0,123.1,0,123.1h9.4s45.5,1.1,67.2,0h0Z"/>
  <path class="st2" d="M1187.7,133.1c-.8-.6-1.6-1.2-2.4-1.7-1.9-1-4.1-1.1-6.1-.4"/>
  <path class="st2" d="M1208.2,131.3c.1-.3.5-.4.8-.4,1.8-.3,3.6-.6,5.4-.2s3.5,1.7,3.7,3.5"/>
</svg>