<?xml version="1.0" encoding="UTF-8"?>
<svg id="Ebene_1" xmlns="http://www.w3.org/2000/svg" version="1.1" viewBox="0 0 1600 900">
  <!-- Generator: Adobe Illustrator 29.1.0, SVG Export Plug-In . SVG Version: 2.1.0 Build 142)  -->
  <defs>
    <style>
      .st0 {
        fill: none;
      }

      .st0, .st1, .st2 {
        stroke: #000;
        stroke-linecap: round;
        stroke-linejoin: round;
        stroke-width: 3px;
      }

      .st1 {
        fill: #2323ff;
      }

      .st2 {
        fill: #fff;
      }
    </style>
  </defs>
  <path id="Bild" class="st1" d="M764.6,711.3c129.3.4,267.5,2.6,395.5-3,4.3-169.7-7.7-346.2,0-515.8-95.7-3.4-608.5-8.1-721.2-4.7,12.3,172.2,0,523.5,0,523.5h40s193.5,4.7,285.8,0h0Z"/>
  <g id="Zu">
    <path id="STROKE_d6b0a1ff-db12-466c-80fd-e210cd41de6b" class="st2" d="M403.9,116.1c-9.4-8.2-22.5-12.2-34.9-10.5-3.6.8-7.3,2.3-11,3.3-3.2,1.1-6.5,1.8-9,4.2-14.4,16.2-16,43.7,2.2,57.8,9.9,8.4,31.1,10.1,42.4,3.7,5.1-3.4,10.6-7.2,14-12.4,7.6-14.2,7.7-33.8-3.3-46.3l-.4.2h0Z"/>
    <path id="STROKE_159d6125-75b0-47ed-a944-7f380c305c94" class="st0" d="M396,121.1c-13.8,13.8-26.8,28.7-41.6,41.4"/>
    <path id="STROKE_c1231344-1495-4733-beee-34d3045628f5" class="st0" d="M354.6,121.1c12.5,14.9,27.2,28.1,41.3,41.3"/>
  </g>
</svg>