<?xml version="1.0" encoding="UTF-8"?>
<svg id="Ebene_1" xmlns="http://www.w3.org/2000/svg" version="1.1" viewBox="0 0 1600 900">
  <!-- Generator: Adobe Illustrator 29.1.0, SVG Export Plug-In . SVG Version: 2.1.0 Build 142)  -->
  <defs>
    <style>
      .st0 {
        fill: none;
      }

      .st0, .st1 {
        stroke: #000;
        stroke-linecap: round;
        stroke-linejoin: round;
        stroke-width: 3px;
      }

      .st1 {
        fill: #fff;
      }
    </style>
  </defs>
  <path id="Infofenster" class="st1" d="M1073.8,896.6c-48.9,6.7-429.1-10.3-456.3-10.3s-243.3-5.4-243.3-5.4c0,0-.5-181.1-.3-182.5-.3.2-2.9-44.1-4.1-66.2-.5-12.8.6-60.7.9-71.1-.2-29.5,1.1-178.1.5-194.2-.7-13.7-.5-22-1.3-34.6-2.8-27.3-1.7-130.9-2.2-140.6-1.2-21.2-3.4-39.9-2.2-61.2,1-14.6,5-29,6.4-42.9.7-8.5.8-25.8.3-34.4,54.8.5,114.2-3.5,169.2-5.7,19.6,0,108.1,1.1,130.1,1.4,96.8-2.6,196.1,2.4,292.9,1.3,94.1,3.2,195.4-1.1,289.6.5.4,8.9-1.8,21.4-1.5,30.7,2.4,36.7,5.6,73.7,9.6,110.3-.3,20.3-.2,46.3-.2,66.5-.4,10.6-2.3,21.3-.7,32,.7,48.2-2.9,98.4-1.9,146.8-.4,15.1-2,30.8-.9,45.9-1.3,27.4-3.2,54.6-3.8,82.1-2,46.1,5.9,285.3,5.9,331.6,0,0-137.8-6.7-186.7,0Z"/>
  <g id="Zu">
    <path id="STROKE_d6b0a1ff-db12-466c-80fd-e210cd41de6b" class="st1" d="M403.9,25.9c-9.4-8.2-22.5-12.2-34.9-10.5-3.6.8-7.3,2.3-11,3.3-3.2,1.1-6.5,1.8-9,4.2-14.4,16.2-16,43.7,2.2,57.8,9.9,8.4,31.1,10.1,42.4,3.7,5.1-3.4,10.6-7.2,14-12.4,7.6-14.2,7.7-33.8-3.3-46.3l-.4.2Z"/>
    <path id="STROKE_159d6125-75b0-47ed-a944-7f380c305c94" class="st0" d="M396,30.9c-13.8,13.8-26.8,28.7-41.6,41.4"/>
    <path id="STROKE_c1231344-1495-4733-beee-34d3045628f5" class="st0" d="M354.6,30.9c12.5,14.9,27.2,28.1,41.3,41.3"/>
  </g>
</svg>