<?xml version="1.0" encoding="UTF-8"?>
<svg id="Ebene_1" xmlns="http://www.w3.org/2000/svg" version="1.1" viewBox="0 0 1600 900">
  <!-- Generator: Adobe Illustrator 29.1.0, SVG Export Plug-In . SVG Version: 2.1.0 Build 142)  -->
  <defs>
    <style>
      .st0, .st1, .st2, .st3, .st4 {
        stroke-width: 3px;
      }

      .st0, .st1, .st3 {
        stroke-linejoin: round;
      }

      .st0, .st1, .st3, .st4 {
        stroke: #000;
        stroke-linecap: round;
      }

      .st0, .st4 {
        fill: none;
      }

      .st1, .st5 {
        fill: #fff;
      }

      .st2 {
        stroke: #fff;
      }

      .st2, .st4 {
        stroke-miterlimit: 10;
      }

      .st3 {
        fill: #fff706;
      }
    </style>
  </defs>
  <path id="Infofenster" class="st1" d="M1073.8,896.6c-48.9,6.7-429.1-10.3-456.3-10.3s-243.3-5.4-243.3-5.4c0,0-.5-181.1-.3-182.5-.3.2-2.9-44.1-4.1-66.2-.5-12.8.6-60.7.9-71.1-.2-29.5,1.1-178.1.5-194.2-.7-13.7-.5-22-1.3-34.6-2.8-27.3-1.7-130.9-2.2-140.6-1.2-21.2-3.4-39.9-2.2-61.2,1-14.6,5-29,6.4-42.9.7-8.5.8-25.8.3-34.4,54.8.5,114.2-3.5,169.2-5.7,19.6,0,108.1,1.1,130.1,1.4,96.8-2.6,196.1,2.4,292.9,1.3,94.1,3.2,195.4-1.1,289.6.5.4,8.9-1.8,21.4-1.5,30.7,2.4,36.7,5.6,73.7,9.6,110.3-.3,20.3-.2,46.3-.2,66.5-.4,10.6-2.3,21.3-.7,32,.7,48.2-2.9,98.4-1.9,146.8-.4,15.1-2,30.8-.9,45.9-1.3,27.4-3.2,54.6-3.8,82.1-2,46.1,5.9,285.3,5.9,331.6,0,0-137.8-6.7-186.7,0Z"/>
  <g id="Levels">
    <rect class="st5" x="165.9" y="682.9" width="147" height="113.4" rx="11" ry="11"/>
    <g id="Menu">
      <path id="STROKE_d868d8a4-0b5a-4174-a061-e7bfc69a620d" class="st0" d="M301.8,703.3c-40.1,1.4-82.9-1-123.2.6"/>
      <path id="STROKE_974b7d1d-60ce-423a-a400-c1439f62492c" class="st0" d="M301.8,738.2c-46.1,3.8-81.9,1.4-123.2,0"/>
      <path id="STROKE_04e833cc-cccd-4777-8919-02afb8a6a27c" class="st0" d="M301.8,776c-41.5,0-81.7-3.8-123.2,0"/>
    </g>
  </g>
  <g id="Hilfe">
    <path id="STROKE_3f485dde-0ac0-4b89-bd08-cd08fc109b90" class="st1" d="M184.8,450.8c-9.8,20.8-4.2,77.9,30.5,84.9,34.1,6.8,58.9,3.8,76.9-29.9,8.2-19.2,7-35.9-1.8-52.7-9-17.4-16.6-31.9-41.7-33.5-25.2-1.6-54.1,10.6-63.9,31.3Z"/>
    <path id="STROKE_b5410e41-4fbf-4d34-a1c8-5baf72e8241f" class="st0" d="M220.2,461.7c0-33.9,45.1-37.7,45.1-2.2s-21.8,11.4-26.4,27c-1.4,5.2-.8,16.6-.8,16.6"/>
    <path id="STROKE_333e5889-c0f2-4a77-bfc1-ae78f710a934" d="M243.7,514.6c-7.2-7.2-17.4,4.8-9.4,12.8s15.8-6.2,9.4-12.8Z"/>
  </g>
  <g id="Info">
    <path id="STROKE_47561b8a-aeee-4f2b-9c89-9b6dce8518a51" class="st3" d="M190.2,234.5c-13.6-21-21-26.2-28.6-48.9-15.2-38.5,27.2-79.7,67.1-81.9,48.9-10.4,89.2,47.3,70.9,91.6-6.8,19.8-31.1,30.7-29.2,53.3v16.2c.6,14-2.2,27.8-2.2,41.7s2,16.8-1.6,24.4c-1.6,3.2-4.8,3.2-6.4,0-3.2-6.8-2-15.2-2.2-23v-26.2s-3.8-.6-4.6-.6c-1.2,0-3.2.6-3.8,0,0,12.4,1,25.2,0,37.9,0,5.6,0,16.2-6.2,14.6-8.2-3.8-2.2-42.7-3.6-52.7-2-.6-6.2-1.2-8.2-1.2,1.2,7.4-1,16.6-1.2,24,0,8.2,1.6,16.6,0,24.6-1.2,6.8-6.8,7.8-8.2.6-3-15,0-31.7-1-46.9-1-.6-5.6-1.2-6.8-1-1.6,15-.6,30.7-1.2,45.7-1,7.4-8.4,7.8-9.8,0-1.2-15.6-1.2-31.7-1-47.3,0,0-6.4-35.5-12.4-44.9h0v.4-.4h0Z"/>
    <g id="Info1">
      <g>
        <path id="STROKE_4d2051d1-299d-4e24-b5f2-268e7dd12528" class="st4" d="M242.7,212.5c-6.2,5.6-10.4,4.8-17.8-1.6"/>
        <path id="STROKE_249357a8-d5b2-4a6e-a9aa-def5bb1110a4" class="st2" d="M213.6,164.2c-3.2-4.8-13.2-11-21-8.8-13,4.6-19.2,23.4-8.8,33.3,8.2,8.4,24.6,8.4,30.3-2.6,3.8-6.4,2.6-17.6-.6-22h0Z"/>
        <path id="STROKE_ee0626fb-a331-4af6-a301-08ded530f309" class="st2" d="M254.1,193c6.2,7.2,18.8,6.8,26,1.6,6.8-6.8,11.6-18.4,4.2-27-17.6-20-46.3,3.8-30.1,25.2h0v.2Z"/>
      </g>
    </g>
  </g>
</svg>