<?xml version="1.0" encoding="UTF-8"?>
<svg id="Ebene_1" xmlns="http://www.w3.org/2000/svg" version="1.1" viewBox="0 0 1600 900">
  <!-- Generator: Adobe Illustrator 29.1.0, SVG Export Plug-In . SVG Version: 2.1.0 Build 142)  -->
  <defs>
    <style>
      .st0, .st1, .st2, .st3, .st4 {
        stroke-width: 3px;
      }

      .st0, .st1, .st3 {
        stroke-linejoin: round;
      }

      .st0, .st1, .st3, .st4 {
        stroke: #000;
        stroke-linecap: round;
      }

      .st0, .st4 {
        fill: none;
      }

      .st1, .st5 {
        fill: #fff;
      }

      .st2 {
        stroke: #fff;
      }

      .st2, .st4 {
        stroke-miterlimit: 10;
      }

      .st3 {
        fill: #fff706;
      }
    </style>
  </defs>
  <path id="Infofenster" class="st1" d="M1073.8,896.6c-48.9,6.7-429.1-10.3-456.3-10.3s-243.3-5.4-243.3-5.4c0,0-.5-181.1-.3-182.5-.3.2-2.9-44.1-4.1-66.2-.5-12.8.6-60.7.9-71.1-.2-29.5,1.1-178.1.5-194.2-.7-13.7-.5-22-1.3-34.6-2.8-27.3-1.7-130.9-2.2-140.6-1.2-21.2-3.4-39.9-2.2-61.2,1-14.6,5-29,6.4-42.9.7-8.5.8-25.8.3-34.4,54.8.5,114.2-3.5,169.2-5.7,19.6,0,108.1,1.1,130.1,1.4,96.8-2.6,196.1,2.4,292.9,1.3,94.1,3.2,195.4-1.1,289.6.5.4,8.9-1.8,21.4-1.5,30.7,2.4,36.7,5.6,73.7,9.6,110.3-.3,20.3-.2,46.3-.2,66.5-.4,10.6-2.3,21.3-.7,32,.7,48.2-2.9,98.4-1.9,146.8-.4,15.1-2,30.8-.9,45.9-1.3,27.4-3.2,54.6-3.8,82.1-2,46.1,5.9,285.3,5.9,331.6,0,0-137.8-6.7-186.7,0Z"/>
  <g id="Levels">
    <rect class="st5" x="430.2" y="658.3" width="73.6" height="56.8" rx="5.5" ry="5.5"/>
    <g id="Menu">
      <path id="STROKE_d868d8a4-0b5a-4174-a061-e7bfc69a620d" class="st0" d="M498.3,668.5c-20.1.7-41.5-.5-61.7.3"/>
      <path id="STROKE_974b7d1d-60ce-423a-a400-c1439f62492c" class="st0" d="M498.3,686c-23.1,1.9-41,.7-61.7,0"/>
      <path id="STROKE_04e833cc-cccd-4777-8919-02afb8a6a27c" class="st0" d="M498.3,704.9c-20.8,0-40.9-1.9-61.7,0"/>
    </g>
  </g>
  <g id="Hilfe">
    <path id="STROKE_3f485dde-0ac0-4b89-bd08-cd08fc109b90" class="st0" d="M439.7,579.6c-4.9,10.4-2.1,39,15.3,42.5,17.1,3.4,29.5,1.9,38.5-15,4.1-9.6,3.5-18-.9-26.4-4.5-8.7-8.3-16-20.9-16.8s-27.1,5.3-32,15.7Z"/>
    <path id="STROKE_b5410e41-4fbf-4d34-a1c8-5baf72e8241f" class="st0" d="M457.4,585.1c0-17,22.6-18.9,22.6-1.1s-10.9,5.7-13.2,13.5c-.7,2.6-.4,8.3-.4,8.3"/>
    <path id="STROKE_333e5889-c0f2-4a77-bfc1-ae78f710a934" d="M469.2,611.6c-3.6-3.6-8.7,2.4-4.7,6.4s7.9-3.1,4.7-6.4Z"/>
  </g>
  <g id="Info">
    <path id="STROKE_47561b8a-aeee-4f2b-9c89-9b6dce8518a51" class="st3" d="M442.4,433.7c-6.8-10.5-10.5-13.1-14.3-24.5-7.6-19.3,13.6-39.9,33.6-41,24.5-5.2,44.7,23.7,35.5,45.9-3.4,9.9-15.6,15.4-14.6,26.7v8.1c.3,7-1.1,13.9-1.1,20.9s1,8.4-.8,12.2c-.8,1.6-2.4,1.6-3.2,0-1.6-3.4-1-7.6-1.1-11.5v-13.1s-1.9-.3-2.3-.3c-.6,0-1.6.3-1.9,0,0,6.2.5,12.6,0,19,0,2.8,0,8.1-3.1,7.3-4.1-1.9-1.1-21.4-1.8-26.4-1-.3-3.1-.6-4.1-.6.6,3.7-.5,8.3-.6,12,0,4.1.8,8.3,0,12.3-.6,3.4-3.4,3.9-4.1.3-1.5-7.5,0-15.9-.5-23.5-.5-.3-2.8-.6-3.4-.5-.8,7.5-.3,15.4-.6,22.9-.5,3.7-4.2,3.9-4.9,0-.6-7.8-.6-15.9-.5-23.7,0,0-3.2-17.8-6.2-22.5h0v.2-.2Z"/>
    <g id="Info1">
      <g>
        <path id="STROKE_4d2051d1-299d-4e24-b5f2-268e7dd12528" class="st4" d="M468.7,422.7c-3.1,2.8-5.2,2.4-8.9-.8"/>
        <path id="STROKE_249357a8-d5b2-4a6e-a9aa-def5bb1110a4" class="st2" d="M454.1,398.5c-1.6-2.4-6.6-5.5-10.5-4.4-6.5,2.3-9.6,11.7-4.4,16.7,4.1,4.2,12.3,4.2,15.2-1.3,1.9-3.2,1.3-8.8-.3-11h0Z"/>
        <path id="STROKE_ee0626fb-a331-4af6-a301-08ded530f309" class="st2" d="M474.4,412.9c3.1,3.6,9.4,3.4,13,.8,3.4-3.4,5.8-9.2,2.1-13.5-8.8-10-23.2,1.9-15.1,12.6h0Z"/>
      </g>
    </g>
  </g>
</svg>