<?xml version="1.0" encoding="UTF-8"?>
<svg id="Ebene_1" xmlns="http://www.w3.org/2000/svg" version="1.1" viewBox="0 0 1600 900">
  <!-- Generator: Adobe Illustrator 29.1.0, SVG Export Plug-In . SVG Version: 2.1.0 Build 142)  -->
  <defs>
    <style>
      .st0, .st1, .st2, .st3, .st4, .st5, .st6, .st7, .st8, .st9, .st10, .st11, .st12, .st13, .st14, .st15, .st16, .st17, .st18, .st19 {
        stroke-linecap: round;
      }

      .st0, .st1, .st2, .st3, .st4, .st5, .st9, .st10, .st20, .st11, .st12, .st13, .st14, .st15, .st16, .st18, .st19 {
        stroke-width: 3px;
      }

      .st0, .st1, .st2, .st3, .st4, .st8, .st9, .st10, .st11, .st12, .st13, .st14 {
        stroke-linejoin: round;
      }

      .st0, .st1, .st2, .st3, .st10, .st11, .st12, .st14, .st15, .st16, .st17, .st18, .st19 {
        stroke: #000;
      }

      .st0, .st4, .st15, .st17 {
        fill: none;
      }

      .st21 {
        fill: #030;
      }

      .st1 {
        fill: #ff6f00;
      }

      .st2 {
        fill: #fdc01e;
      }

      .st3 {
        fill: #a598f7;
      }

      .st4, .st9, .st13 {
        stroke: lime;
      }

      .st5, .st6, .st7, .st8, .st20 {
        stroke: #fff;
      }

      .st5, .st6, .st7, .st20, .st15, .st16, .st17, .st18, .st19 {
        stroke-miterlimit: 10;
      }

      .st6 {
        stroke-width: 6px;
      }

      .st7, .st8, .st17 {
        stroke-width: 4px;
      }

      .st22 {
        fill: #fff;
      }

      .st9 {
        fill: #003200;
      }

      .st10 {
        fill: #9337e1;
      }

      .st11 {
        fill: #c8b63d;
      }

      .st12 {
        fill: #fff706;
      }

      .st14 {
        fill: #c4006d;
      }

      .st16 {
        fill: #aaf488;
      }

      .st18 {
        fill: #9cb6ff;
      }

      .st19 {
        fill: aqua;
      }
    </style>
  </defs>
  <rect class="st21" width="1600" height="900"/>
  <g>
    <path id="STROKE_1a4666a2-1e1c-41fd-a28a-8ac5051e2083" class="st19" d="M-71.6,517.3c-6,0-12.6,1.3-18.7,0-3.2-.8-5.5-3.7-4.5-7.1,4.7-11,159-5.3,169-6.8,11.6.8,22.6-2.9,33.4-7.1,13.1-5.3,26.5-10,40.2-13.1,14.5-7.1,32.9-14.5,46.5-1.6,11,10.3,17.6,25,26.8,36.8,11.3,14.5,23.7,30.8,17.6,51-4.7,21.8-22.6,36.5-34.4,53.9-10,17.3-25.2,26.8-43.4,18.7-23.7-5.8-46-16.3-69.1-24.2-15.5-3.2-161.7,0-177.2-1.3-7.4,0-14.7-9.5-6-14.5,15.5-3.9,163.5.5,179.3,0,1.1-3.2,1.3-7.6,0-11-10.8,0-153,.8-163.8,0-7.4,1.1-23.9,1.6-18.4-11.6,4.7-2.6,11.3-1.6,16.3-2.1,11.8-1.8,154.3-.5,166.1-1.3,0-2.6.8-8.1,0-10.8-9.7.8-150.6,1.8-160.3,1.3-7.1,0-16,2.4-22.1-2.4-4.7-4.5,1.1-11.6,5.8-12.1,15.2-1.6,161.9,1.6,176.6-1.3.8-2.9.8-6.8,0-10h-7.1c-10.3,2.1-151.7,1.6-161.9,1.8-5.3,0-12.1,0-14.2-6.3-5-11.8,18.1-8.1,23.9-8.9,9.5,0,149.3,0,158.5-.5v-8.7s-150.4-.5-159-1.3h0v.5h0Z"/>
    <path id="STROKE_4d2051d1-299d-4e24-b5f2-268e7dd12528" class="st18" d="M111.9,577.5c-2.4-7.6-1.1-17.3,2.1-25"/>
    <path id="STROKE_249357a8-d5b2-4a6e-a9aa-def5bb1110a4" class="st7" d="M176.3,543.6c10.3-5,15.5-18.9,12.4-29.7-6.3-18.4-33.1-27.1-47.1-12.4-11.8,11.6-12.1,34.7,3.7,42.8,9.2,5.5,22.3,6.6,30.8-.8h.3-.1Z"/>
    <path id="STROKE_ee0626fb-a331-4af6-a301-08ded530f309" class="st7" d="M176.8,615.6c30.2-23.4-6-65.7-36-42.8-10.3,8.7-9.5,26.5-2.1,36.8,9.7,9.5,25.2,15.8,38.1,6h0Z"/>
  </g>
  <g id="Wesen">
    <path id="STROKE_72cc54be-af4a-4b7b-827c-fbc532cb380b" class="st11" d="M1563.8,602.6c2.9-.6,70.4-.8,72.9,0,4.2,0,7.9,1.5,10,4.8.8,1.5,1.5,5.6.4,7.1-2.7,5.6-10.2,7.5-15.8,7.3-20.1.4-56.5-.8-76,.4-2.5.4-4.8,1.7-6.4,3.5,0,0,0,.4-.4.4l-.4.6c-.4,1.2-.8,3.9,0,5.2,3.3,5.6,8.7,10.4,11,16.6.4,2.7,1,7.7-.6,10.2,0,.4-.4.8-.8,1-2.1,2.5-7.9,2.3-10.8,1-2.3-.4-6.4-4.2-8.5-5.2-3.7-2.9-11-10-15.6-6-2.5,5.4,1,13.1,2.5,18.5,1,4.2,2.1,9.8.8,14.1,0,1-1,1.9-1.9,2.7-.4.6-2.5,1.5-3.3,1.9-2.7,0-5.8,0-7.9-1.9-6.4-2.3-17.4-27.6-24.3-19.3,0,0,0,.4-.4.6-5,8.7,5,34.7-12.5,30.5-12-5.4-6.2-20.6-13.1-28.9-10.2-9.3-12.7,12.9-18.3,17.6-4.6,5.6-12.9,8.1-17.4,1-1.9-3.3-2.7-8.9-1.5-12.5,0-.4,0-1,.4-1.7,1.5-4.4,3.9-11.4,2.1-16v-.4s-.4,0-.8-.6c-7.5-3.1-16.6,12.5-25.5,14.1-1.5.6-3.7.4-5.2.4s-3.3,0-3.7-1c-1.2-1-1.9-2.5-1.7-4.4,0-1.7-.4-4.4.4-6,1.5-7.9,9.5-13.7,10.2-21.8,0-1.9-.8-3.5-2.3-4.6-1.7-.6-4.6-1-6.4,0-2.7,1.2-5.2,3.1-7.9,4.6-1.7.8-2.9,1.7-4.8,2.1-3.1.6-7.7.8-10.4-.4-3.9-.8-7.7-4.8-7.3-9.1,0-8.7,15.6-13.1,18.5-21.8,0-.8.4-2.1-.4-2.9,0-.8-1-1.2-1.9-1.2-9.5-1.2-21.4-1.5-30.1-6l-1.9-1.9c-4.2-12.7,16.2-15.6,24.7-18.1.4,0,.6,0,.8-.4,7.7-3.9,7.5-8.5-1.2-10.4-6-1.7-12.2-6.9-17.9-10.2-2.3-1.7-3.7-2.9-4.6-5.6,0-1.5-.4-3.9.4-5.2,0-.4.4-.8.6-1,0,0,0-.4.4-.4,1.7-1.9,3.3-3.1,5.4-3.9,9.1-2.1,21.4,3.7,29.1-2.9,0-3.5-5.4-7.3-7.7-9.3-12-8.7-20.8-29.3,2.5-26.2,6,1.2,11.2,7.3,17.4,7.5,1.7,0,2.9.6,4.2-.4,1.2-1.2,2.9-3.1,2.3-5-.8-7.7-9.5-11.6-10.8-19.3-3.7-11,9.3-16,17.6-11.2,7.9,3.1,10,18.7,19.9,15.6,3.7-1.5,5.2-6.4,5-10.2-.6-3.1-.8-7.3-1.9-10.4-.4-2.7-1.2-6.2,0-8.7,1.2-3.1,4.6-5,7.9-4.6,10.2-.8,11.8,12.5,14.3,19.7,1.5,5,8.9,10.4,12.5,4.4,6.2-7.9,1.7-20.3,9.3-26.8,3.1-2.1,8.5-2.1,11.4.8,6.4,7.5,1.7,19.5,3.7,28.2,0,1.7,3.5,4.6,4.8,5.4,11.8,0,13.9-17.2,22.4-22.6,9.1-.8,13.7,3.5,11.4,12.7,0,.6-.8,3.3-1,3.7-.8,3.1-2.7,8.1-3.7,11.2-4.2,23,17.2,4.2,25.9,0,2.3-.8,5.8-.6,8.3-.6s3.1,2.1,3.9,2.9c0,0,0,.6.4.8,0,3.1-.8,8.5-2.7,11.4-1.2,3.5-4.4,6.9-6.9,9.3-2.7,2.9-8.7,6.2-6.4,10.8,3.7,5.8,14.7,3.1,20.6,3.7h66c3.9,0,7.1,1,9.5,3.5l.6.6c1.5,2.3,2.1,5.4,1,7.9,0,.6-.4,1.2-.6,1.5-7.1,9.5-28.9,6.6-39.9,7.3-8.1.8-17.6,3.1-25.9,2.7-5.4-.4-12.7.6-17.2,2.9-.4,8.5-1,29.9,0,38.2,0,2.9,1,8.3,1,8.3v-.4h-.2l.4.2Z"/>
    <path id="STROKE_316d4fec-0d6a-4ee4-90fc-03d0b3faf70f" d="M1518.1,583.1c7.3-4.4,14.9-10.2,13.5-19.7-3.1-5-11.6-4.8-14.9,0-2.7,6.2-1,16-1.5,22.6,0,0,1.7-2.3,2.7-3.1h0l.2.2h0Z"/>
    <path id="STROKE_0410ac66-0648-43b5-8baa-836226ac1cf2" class="st8" d="M1414.3,629.2c-10-28.2,14.5-52.1,43.2-44.8.6,0,1.5,0,2.3.6,14.1,1.7,22,14.7,24.9,27.4.8,8.5,1.5,18.7-3.1,26.2-6.2,12.5-24.5,19.1-34,18.5s-26.8-5.6-32.6-26.2c-5.8-20.6-.6-1.7-.6-1.7h-.1Z"/>
    <path id="STROKE_d1fa847f-232b-4055-b82d-4da4aac0eb80" class="st8" d="M1419.1,556.9c23.9,30.7,73.1,11.8,66.2-27.4-1.9-12.5-11.4-22.6-22.4-27.8-11.6-5.6-27.8-3.9-37,5.8-6.6,6.4-12,15.6-13.9,24.5-.4,8.5.4,18.7,7.1,24.9h0Z"/>
  </g>
  <g id="Info">
    <path id="K" class="st12" d="M691.7,730.4c-14.1-54.3,24.7-101.9,89.5-105,63.1-2.9,112.6,59.6,89.4,115.5-8.6,25-39.3,38.7-36.7,67.2v20.4c.7,17.6-2.8,35-2.8,52.6s2.5,48.2-2,57.8c-2,4.1-6,4.1-8.1,0-4.1-8.6-2.5-46.2-2.8-56v-32.9s-4.8-.7-5.8-.7h-4.8s1.2,31.7,0,47.8c0,7,0,47.4-7.9,45.5-10.3-4.8-2.8-82.5-4.5-95-2.5-.7-7.9,0-10.3,0,1.5,9.3-1.2,20.9-1.5,30.2,0,10.3,2,45.5,0,55.6-2.1,12-8,12.9-10.3.7-3.8-18.9,0-65.9-1.2-85.1-1.2-.7-7-.2-8.6,0-2,18.9-.7,63.3-1.5,82.2-1.5,11.8-10.2,12.2-12.3,0-1.5-19.7.4-64.6-1.2-84.2-1.2-14.6-7.9-41.1-16.6-51.4-27-31.6-32.2-36-39.9-65.3h0-.2Z"/>
    <path id="M" class="st15" d="M798.8,762.7c-7.9,7-13.2,6-22.4-2"/>
    <path id="A" class="st20" d="M752.2,709.6c-4.1-6-16.6-11.4-26.4-8.6-16.3,5.8-24.2,27-11.1,39.6,10.3,10.6,31,10.6,38.2-3.3,4.8-8.1,3.3-22.1-.7-27.7h0Z"/>
    <path id="A1" class="st20" d="M813.2,738c7.9,9.1,23.7,8.6,32.7,2,8.6-8.6,14.6-23.1,5.3-34-22.1-25.2-58.4,4.8-38,31.7v.2h0Z"/>
  </g>
  <g>
    <g id="Pen">
      <path id="STROKE_9ab8ce2b-e6b5-47b3-be58-a1990f77dbed" class="st2" d="M302.6,141.2c-41.5-38.4-5.8-106.2,48.7-96.3-1.9-47-10.6-108.9,14-100.3,7.9,9.9,4.6,33.8,5.1,46.5,3.3,19.2-4,28.7-2.8,52.7,10.5-7.2,27.2-12,39.2-6.5-.8-28.4-.8-56.4,5-84.8,0-7.2,9.1-8.8,11.3-.9,3.4,19,.9,28.5,1.5,47.9,0,12.3-4.4,29.8-2.6,42.3,23.1,9.8,35.8,38.6,30,62.7,39.6,38.2-5.8,105-56.4,91-32.9,37.5-106.2-7.2-89.1-52.8l-3.8-1.4h-.1Z"/>
    </g>
    <path id="STROKE_258c9859-67f1-43a8-9462-32ddfdd3de1c" class="st8" d="M443.8,161.3c-30.8,25.2-65.6-17.6-37.9-41.8,30.3-21.4,60,18,37.9,41.8Z"/>
    <path id="STROKE_258c9859-67f1-43a8-9462-32ddfdd3de1c1" class="st8" d="M363.1,158.4c-30.8,25.2-65.6-17.6-37.9-41.8,30.3-21.4,60,18,37.9,41.8Z"/>
    <path id="STROKE_3299031d-4c62-4f85-94d0-447bd115ea62" class="st0" d="M373.8,102.2c7.2-4.8,14.9-5.7,21.9.3"/>
  </g>
  <g id="Wesen1">
    <g>
      <path id="STROKE_f1552795-9030-465b-adb7-0bbaa318eaf9" class="st16" d="M1266.9,79.6c.8-36-2.6-100.6-2.6-136.6-1.4-10.1,8.7-24.6,14.9-8.7,5.1,22.1,1.4,73.7,4.4,96.1,3.9,22.2,4.8,44.9,5,67.4.6,19.9,2.2,39.6,1.6,59.7,0,29.4,4.4,58.9-.5,87.9-8.5,34-42,56.9-76.4,55.5-43-3.3-71-47.9-64.5-88.9,0-8.1,5.7-16.5,2-24.1-9.2-11-45.2-5.7-59.2-4.5-44.6,4.5-97,23.2-138.9,1.7-40.1-17.1-51.4-78.2-20.7-108.6.5-25.2-2.3-51.9-1.9-77.2.5-7.9-4.2-80.8,12.1-68.1,6.1,13.4,1.2,57.1,2.5,71.4.6,20.8,0,42.4,1.6,63.1,4.4-1.9,10.3-6.1,14-8.5,1.1-22.2.3-45.5-.3-67.9.9-9.5-5.1-65.4,12-60,8.7,10.6,3,54.6,3,67.2-1.2,19.4-1.9,39.8-1.1,59,4.7,0,17.2,1.1,21.8,0-.3-13.8-.5-29.7-1.6-43.7.3-8.9-7.6-92.6,10.4-82.5,6.2,13.1,3.7,57.8,3.9,72,0,17.2-.6,35.6,0,52.5,19.4.8,41.3-3.6,60.8-4.7-.9-26.9-.9-82.4.3-109.4.6-4.2,1.2-11.8,6.8-11.3,3.3.6,6.1,3.4,6.4,6.8,1.1,27.7-2,85,0,112.5h11.8c.5-12.7-.8-27.7-1.4-40.6,0-14.1,1.1-56.1,1.1-70.3,2.8-16,15.1-7.3,14.3,4.7.8,25.3-3,79.9-1.6,105.2,2.2,0,9.8.8,12.4,0,1.7-.5,4.8-.9,6.4-.9,1.1-12.3,1.4-26.4,1.6-39,.3-9.3-9-84.2,8.9-77.4,9.5,4,4.4,63.9,4.8,73.5-.3,13.1,1.1,29.4,1.9,42.1,6.7-.8,17.9-3.9,24.9-5,8.7-1.2,20.2,1.4,28.6,1.2,3.4-17.9-7.8-103.4,3.7-112.1,15.5-6.5,10.1,56.6,10.9,65,0,16.2-.8,33.9-1.7,49.9,8.5,2.2,20,7.8,28.3,11-1.4-30.6-1.2-89.8.3-120.5.6-6.1,5.7-8.1,10.7-4.8,1.6-.5,1.2.9,1.9,3,4.4,33.9-1.1,96.8.9,130.7,4.2,5.9,11.2,11.2,16.2,16.5l-.3-.3h-.4Z"/>
      <path id="STROKE_f94f754f-33a8-4f95-91ab-9ada959bf062" class="st15" d="M1234.4,219.7c-1.4-5.7-7.8-13.4-14-8.4-3,2-5.4,5.4-5.4,9"/>
      <path id="STROKE_57f05e90-c9d5-44c1-918d-3a76c8b861cd" class="st7" d="M1238,255.9c11.3,17.2,34.8-.5,23.5-16.5-12.1-13.8-32,.5-23.5,16.5Z"/>
      <path id="STROKE_c7d88b34-83bd-4965-8ee8-665416f27cd6" class="st7" d="M1183.5,255.9c14,12.9,31.9-7.8,19.4-20.8-13.4-13.1-33.6,8.7-19.4,20.8Z"/>
    </g>
  </g>
  <g>
    <path id="STROKE_fd284d13-50bc-42fc-8bbe-fb9fb5744b331" class="st10" d="M1555.8,103.1c-1.8,3.3-29.9,56.8-29.9,56.8-.8.2-1.4.2-1.5,0h-.9c-.2.2-.6,0-.6,0-3,0-7.4-.8-10.3-.6-4.1-.8-8.9-2-13-2.7-11.9-1.1-23-5.1-32.6-12.1-1.7-1.7-17.8-16.9-19-19-5.6-7.1-8.2-16.3-11.3-24.6-3.3-8.2-4.8-17.8-5.9-26.8-.2-3.5-2.1-7.6-.8-11,1.4-1.4,3.3-2.1,5-2.9,6.5-2.3,59.2-33.2,59.2-33.2l6.3,1.5s57.4-55.6,61.2-58.5c.5-1.1,2.7-1.2,3.6-.9s.8.2.9.3c.6.6,2.4,1.5,2.9,2.3s.5.5.3.9v.6c1.8,2.4-55.9,57.4-57.3,59.4l5.1,5.1,55.8-55.8c1.1-.5,2.1-.6,3.5-.5s.9,0,1.1.2c.9.3,2.3,1.7,3.2,2.6.3,1.8-.9,3.9-2.3,5l-54.6,54.6,5,5,56.8-56.8c1.1-1.1,2.1-.9,2.7-.6,1.5.6,4.4,1.7,5.4,3.6s-.8,3.8-1.5,4.8c-5.9,7.7-55.5,55.5-55.5,55.5,1.1,1.7,3.9,4.8,5.7,5.7l56.2-56.2c.3-.3.5-.5,1.2-.6s.3-.3.9-.3c1.8,0,4.7,1.7,5.4,3.6s.5,2,.3,2.4-.8,1.7-1.1,2.6l-55.2,55.2c1.1,1.1,4.2,4.8,5.7,5.1l55.8-55.8c.5-.5.6-.6,1.4-.8s.8-.2.9-.3.3-.3.6,0,.6.6,1.1.5c1.4.5,3,2.1,3.9,3.9s1.8,3,2,3.2-55.2,54-58.8,58.2l1.4,5s-7.7,13.8-8.5,16.3h0l-.2.2h.3Z"/>
    <path id="STROKE_a86008a8-9918-471c-95f9-648a296448a41" class="st0" d="M1507.3,80.6c-.9-.9-5.1-3.6-7.3-4.2s-6.8.2-7.9.6"/>
    <path id="STROKE_585e831d-3539-4d43-ba70-2e4e5c4b74981" class="st8" d="M1449,96c20.4,8.9,33.9-19,15.9-31.6-24.2-10.6-32.9,22.4-15.9,31.6Z"/>
    <path id="STROKE_7819c8f3-7a07-4eb6-bb83-ff6bafd390ce1" class="st8" d="M1497.2,119.7c.8,15.9,14.8,23.3,27.8,13.9,13.6-10.9-.3-37.5-16.9-29.6-4.5,3.3-12.4,9.4-10.9,15.7h0Z"/>
  </g>
  <g>
    <path id="STROKE_fd284d13-50bc-42fc-8bbe-fb9fb5744b332" class="st10" d="M1479,859.9c-3.8-2.1-8.3-3.4-12.2-5.7-3.3-1.9-7.2-3.8-10.7-5.5-1.2-.5-2.9-1.9-4.1-2.1-3.6-1.9-7.4-4-11.2-5.3-7.6-4.1-26.5-15.5-26.5-15.5-.2-.9.9-11.9.7-15.1.9-4.6,2.2-10.1,3.1-14.8,1.2-13.6,5.8-26.1,13.8-37.1,1.9-1.9,19.3-20.3,21.7-21.7,8.1-6.4,18.6-9.3,28-12.9,9.3-3.8,20.3-5.5,30.4-6.7,4-.2,8.6-2.4,12.6-.9,1.5,1.5,10.7,19.9,13.6,27,1,2.1,2.2,5.3,3.1,7.6,4.1,10.3,22.2,39.4,22.2,39.4l.5,6.4s62.3,64.4,65.6,68.7c1.2.5,1.2,2.9,1,4.1,0,0-.3.3-.3,1-.3,1-1.7,2.4-2.6,3.3,0,0-.7.7-1,.3h-.7c-2.8,2.1-64.4-62.7-66.6-64.2l-5.8,5.8,62.5,62.5c.5,1.2.7,2.4.5,4,0,0-.3.3-.2,1.2-.3,1.4-1.9,2.6-2.9,3.6-2.1.3-4.5-1-5.7-2.6l-61.1-61.1-5.7,5.7,63.7,63.7c1.2,1.2,1,1,.7,3.1-.2,2.6-2.4,4.5-4.1,6.2-1.7.3-3.6-1.2-5.5-1.7l-62.1-62.1c-1.9,1.2-5.5,4.5-6.5,6.5l63,63c.3.3.7.7.7,1.4.3.3.5.5.3,1,.9,1.9-1.7,6.2-4.1,6.2-.5.5-2.1.3-2.8.3-1-.3-1.9-.9-2.9-1.2l-61.8-61.8c-1.2,1.2-5.5,4.8-5.8,6.5l62.5,62.5c.5.5.9.9.9,1.5.3.3.2.9.3,1v.7c-.3.3,0,0-.5,1.2-1.2,1.2-2.2,4.3-4.5,4.5-.3.3-.9.2-1,.3s-2.4-.3-2.8-.3c-.3-.3-2.1-.3-1.7-1-5.2-5.2-58.5-58.5-63.3-62.7l-5.7,1.5s-15.6-8.8-18.6-9.6h0l-.2-.2h-.2Z"/>
    <path id="STROKE_a86008a8-9918-471c-95f9-648a296448a42" class="st0" d="M1502.4,821.7c3.1,0,6.9-1.4,9.5-2.9,2.4-1.7,5.2-3.1,6.2-6.9"/>
    <path id="STROKE_585e831d-3539-4d43-ba70-2e4e5c4b74982" class="st8" d="M1492.9,773.4c-.2,6,4.5,14.4,10.3,17.2.3.3.7.7,1.4.7,9.5,4.3,20.1-.5,26.1-8.3,5.3-11.2-2.9-28-15-28s-18.1,5-21,10-1.9,6.4-1.9,8.4h0Z"/>
    <path id="STROKE_7819c8f3-7a07-4eb6-bb83-ff6bafd390ce2" class="st8" d="M1444.4,824.6c12.4,15.5,42.6-.3,33.7-19.3-3.8-5.2-11.9-12.6-17.2-12.4-8.9.3-27.2,16.9-16.5,31.6h0Z"/>
  </g>
  <g>
    <path id="STROKE_fd284d13-50bc-42fc-8bbe-fb9fb5744b333" class="st10" d="M22.6,801.4c1.9-3.5,3.2-7.6,5.2-11.2,1.7-3,3.5-6.6,5-9.8.5-1.1,1.7-2.7,1.9-3.8,1.7-3.3,19.1-34.5,19.1-34.5.8-.2,10.9.8,13.9.6,4.3.8,9.3,2,13.5,2.8,12.4,1.1,24.6,4.6,34,12.6s18.4,17.7,19.8,19.8c5.3,7.8,8.5,17,11.8,25.7,3.5,8.5,5,18.6,6.1,27.9.2,3.6,2.2,7.9.8,11.5-1.4,1.4-3.5,2.2-5.2,3-6.6,2.2-63.5,34.2-63.5,34.2l-7.7-.5s-59,59-62.7,62.1c-.5,1.1-2.7,1.1-3.8.9,0,0-.3-.3-.9-.3-.9-.3-2.2-1.6-3-2.4,0,0-.6-.6-.3-.9v-.6c-1.9-2.5,60.1-61.6,61.5-63.7l-5.4-5.4-59.9,59.9c-1.1.5-2.2.6-3.6.5,0,0-.3-.3-1.1-.2-1.3-.3-2.4-1.7-3.3-2.7-.3-1.9.9-4.1,2.4-5.2l58.6-58.6-5.2-5.2-61,61c-1.1,1.1-.9.9-2.8.6-2.4-.2-4.1-2.2-5.7-3.8-.3-1.6,1.1-3.3,1.6-5l59.6-59.6c-1.1-1.7-4.1-5-6-6l-60.4,60.4c-.3.3-.6.6-1.3.6-.3.3-.5.5-.9.3-1.7.8-5.7-1.6-5.7-3.8-.5-.5-.3-1.9-.3-2.5.3-.9.8-1.7,1.1-2.7l59.3-59.3c-1.1-1.1-4.4-5-6-5.4l-59.9,59.9c-.5.5-.8.8-1.4.8-.3.3-.8.2-.9.3h-.6c-.3-.3,0,0-1.1-.5-1.1-1.1-3.9-2-4.1-4.1-.3-.3-.2-.8-.3-.9s.3-2.2.3-2.5c.3-.3.3-1.9.9-1.6,4.7-4.7,56.3-56.3,60.1-60.7l-1.4-5.2s8-14.3,8.8-17h0l.2-.2v.4Z"/>
    <path id="STROKE_a86008a8-9918-471c-95f9-648a296448a43" class="st0" d="M75.7,812.2s-2.5,6.3-2.8,8.5.8,6.1,1.6,7.9"/>
    <path id="STROKE_585e831d-3539-4d43-ba70-2e4e5c4b74983" class="st8" d="M136.2,811.3c-1.9-1.9-7.2-4.1-9.8-4.1-4.9-.2-15.1,6-16.4,10.7s2.5,20.2,7.6,23.9c5,3.8,21.7.6,24.4-9.6,0,0,1.3-3.2,1.1-4.3-.5-5.5-3.6-13.4-6.9-16.7h0Z"/>
    <path id="STROKE_7819c8f3-7a07-4eb6-bb83-ff6bafd390ce3" class="st8" d="M87,772.5c-.8-16.5-15.4-24.3-29-14.5-14.2,11.3.3,39.1,17.6,30.9,4.9-3.3,12.8-9.9,11.3-16.4h0Z"/>
  </g>
  <g>
    <path id="STROKE_fd284d13-50bc-42fc-8bbe-fb9fb5744b334" class="st10" d="M106,28.2c3.4,1.9,7.4,3.1,11,5.1,2.9,1.7,6.5,3.4,9.6,5,1.1.5,2.6,1.7,3.7,1.9,3.3,1.7,6.7,3.6,10.1,4.8,6.8,3.7,13.8,8.2,21.1,11.2l2.8,2.8c.2.8.2,1.4,0,1.6v.9c.2.2,0,.6,0,.6,0,3.1-.8,7.6-.6,10.5-.8,4.2-2,9.1-2.8,13.3-1.1,12.3-5.3,23.6-12.4,33.5-1.7,1.7-17.4,18.3-19.5,19.5-7.3,5.7-16.7,8.4-25.3,11.6-8.4,3.4-18.3,5-27.4,6-3.6.2-7.8,2.2-11.3.8-1.4-1.4-2.2-3.4-2.9-5.1-2.3-6.7-6.7-12.9-9.3-19.2-.9-1.9-2-4.8-2.8-6.8-3.2-8-22.1-37.1-22.1-37.1l1.7-4.1S-21.6,32.1-24.6,28.2c-1.1-.5-1.1-2.6-.9-3.7,0,0,.3-.3.3-.9.3-.9,1.6-2.2,2.3-2.9,0,0,.6-.6.9-.3h.6c2.5-1.9,52.8,51.3,54.9,52.7l5.3-5.3L-12.3,16.6c-.5-1.1-.6-2.2-.5-3.6,0,0,.3-.3.2-1.1.3-1.2,1.7-2.3,2.6-3.3,1.9-.3,4,.9,5.1,2.3l49.9,49.9,5.1-5.1L-2.1,3.5c-1.1-1.1-.9-.9-.6-2.8C-2.5-1.6-.5-3.3,1-4.8c1.6-.3,3.3,1.1,5,1.6l50.8,50.8c1.7-1.1,5-4,5.9-5.9L11.1-10c-.3-.3-.6-.6-.6-1.2-.3-.3-.5-.5-.3-.9-.8-1.7,1.6-5.6,3.7-5.6.5-.5,1.9-.3,2.5-.3.9.3,1.7.8,2.6,1.1l50.5,50.5c1.1-1.1,5-4.3,5.3-5.9L23.7-23.4c-.5-.5-.8-.8-.8-1.4-.3-.3-.2-.8-.3-.9v-.6c.3-.3,0,0,.5-1.1,1.1-1.1,2-3.9,4-4,.3-.3.8-.2.9-.3s2.2.3,2.5.3c.3.3,1.9.3,1.6.9,4.7,4.7,47.6,47.6,51.9,51.3l5.1-1.4s14.1,7.9,16.7,8.7h0l.2.2h0Z"/>
    <path id="STROKE_a86008a8-9918-471c-95f9-648a296448a44" class="st0" d="M82.9,68.6c-2.2,0-5.7,1.1-7.4,2.2s-5,3.7-6.2,7.4"/>
    <path id="STROKE_585e831d-3539-4d43-ba70-2e4e5c4b74984" class="st8" d="M89.9,120h0c-1.9-18.6-23.4-23.4-34.1-8.7-4.8,10.1,6.5,23.6,13.5,25.3,13,3.1,18.8-8.5,18.8-8.5,0,0,2-5.7,1.9-8.1h-.1Z"/>
    <path id="STROKE_7819c8f3-7a07-4eb6-bb83-ff6bafd390ce4" class="st8" d="M122.7,88.3c16.3-.8,23.9-15.2,14.3-28.5-11.2-14-38.5.3-30.4,17.4,3.3,4.8,9.8,12.6,16.1,11.2h0Z"/>
  </g>
  <g>
    <g id="New_Layer_7">
      <path id="STROKE_463343da-bf41-42fb-8396-f0ae27bbffb2" class="st3" d="M132.2,214.6c13.5,1.5,24,4.8,35.8,10,8.2,2.8,17.4,6,24.9,11,18.9,12.9,33.8,32.2,41,53.9,2.5,14.4,5.3,31.6,3.1,46.3-2.2,13.9-6.2,27.3-8.5,41.1-2.6,12.4-9.2,24.6-17.2,34.6-23.2,31.4-49,41.2-87,33.5-25.6-3-51.8-16.8-77.8-11.2-19,6.4-37.9,16.1-53.3,29.1-6.4,4-12.2,8.4-20,9.6-8,1.9-11.5-3.4-4.9-8.4,29.9-11.6,17.1-8.4,38.1-26.6,9.1-6.4,18.5-7.6,29-11.1,11.9-3.8,23.8-8.8,33.3-16.8,8.8-7.9,3.9-13.1-6.2-9.7-8.9,2.9-18.3,9.7-27.4,12.3-11.3,3.2-24.2,5.7-35,10.5-6.9,2.8-14.7,9.4-21.6,12.3-8.2,3.4-20.5-1.4-11.4-10.5,16.8-8.1,33.8-15.1,51-24,18.4-9.6,44.8-2.5,59.5-17.1,5.6-15.1-20.3-5.8-27.8-6.2-9.2.8-17.6,3.4-26.9,4.5-10.2.9-19.4,2.5-28.3,7.8-9.5,5.1-23.5,6.8-31.9-.6-2.1-2.5-.5-8.1,3-8.5,3.3-1,5.9,1,8.8,2.1,10.3,2.5,20.5-5.6,30.4-7.2,21.6-3.7,43.2-6.9,63.7-15,8.5-2,20.7-16.6,6.1-18.9-9.9-.8-15.4,13.7-25.6,9.6-6.3-2.6-13.5-2.4-20.1-.9-7.4.6-13.9,2-19.3,7.2-5.1,3.8-7.2,7.6-13.2,8.3-8-.7-16.2-.9-23.9-3.4-3.8-1.3-7.8-1.2-11-3.6-2.7-2-4.8-7.9-1.1-9.8,8.4-2.7,17.4,3.2,25.4,5.8,6.1,3.3,10.9-2.9,14.3-7.2,16.1-23.1,27.5-7.7,51.3-10.4,10.7-1,19.3-9.2,29-13.2,9.3-6.2,5.8-14.5-5.3-11.9-17.4.7-34.9,2.5-52.2,5.1-11.9-1.4-22.5,1.4-33.9,3.3-4.5.4-9.8.7-14.3,1.3-5.8,1.4-14.3,1.4-12.9-6.8.9-2.8,4.5-3.3,7-4.9,7.7-3.9,15.7-8.5,24.4-9.6,10-1.3,21-.3,31.1-.5,6.7-.6,12.5-1.7,18.6-1.4,11.1-.7,41,8.3,40.4-9.5-6.8-16.1-25.7.3-37.7-.8-11.5-.4-23.3-4.1-35-3.7-7.9,0-16-.5-23.9-.5-4.7.2-10,1.1-14.4-.6-4.9-1.8-14-7.9-6.8-12.9,11.4-5.9,25.1-5.3,37.7-6.8,22-2.1,37.3-2.5,58.1,5.3,8.3,2.3,16.8,4.2,24.6.3,4.1-3.2,6-11.5,0-13.9-7.1-2.4-15.2-.8-22.9-.7-8.8.5-15.6.5-24.3,1-9.8,1.3-18.6-2.2-28.1-2.1-11.8,1-43.5,7.1-45.3-10.7,2.5-9.7,15.5-3.1,22.3-2.2,18.2-.2,36.1,2.5,54.2,3.5,11.3.5,22.3-2.1,33.4-3.2,5.9-1.2,15.2-.2,17.5-7.1,1.8-10.7-11.7-11.5-20.8-9.8-17.4,3.2-34.4,8.2-52.2,5.4-9-1.4-16.4-7.4-24.3-11.2-10.6-3.4-23-5.9-32.2-12.3-3.7-4.9,1.4-12.7,7.4-12.2,6.1-.2,13.1,3.9,18.3,6.4,7.4,3.7,14.3,6.8,21.9,10.2,26.4,14.7,26.8,3.1,50.9,2.5,18.4,1.3,36.3,10.3,54.9,5,6.2-1.4,7.5-3.3,15.8-2.9h0l-.3-.3Z"/>
    </g>
    <path id="STROKE_8ccff32f-4e58-4b73-b056-0a1d2d05225e" class="st0" d="M134.3,342.4c-8.7,5.3-6.4,15-1.5,22.5"/>
    <path id="STROKE_0e1884c4-3386-468a-9623-164377cd5c16" class="st7" d="M134.6,390.5c10.9-6.2,27.5-1.6,34.2,8.6,7.5,11.8,3.8,31.5-8.9,38.5-34.9,15-58-26.5-25.3-47h0Z"/>
    <path id="STROKE_7f70717c-76e1-4d64-b2c0-ab83968c73ee" class="st7" d="M134.9,250.3c38.5-13.7,49.7,36.7,19.9,49.5-32.9,9.6-48.6-32.7-19.9-49.5h0Z"/>
  </g>
  <g>
    <path id="STROKE_e386c48b-9a7b-47b9-b6f7-951242b4e1b1" class="st19" d="M1521.3,316.7c.6-9-1.1-30.8.6-38.1,7.8-.6,100.8-1.4,109.5-1.7l.2-22.1c-18.2-.3-92.9-.8-110.8,0-1.7-10.9-8.4-48.1-23.8-48.7-12.6-.6-26.3-.8-38.9-.8-19-.8-38.3.3-57.4,1.4-15.4.6-22.1,3.6-26.3,14.6-2.2,13.2-.8,27.1,0,40.3,0,16.8-.3,33.9,1.4,50.4,0,21.3.4,42.9-1.1,64.1s17.5,21.1,34.4,19.6c12.3-1.1,25.2,0,37.5.8,20.4.3,42,.6,61.8-3.9,7.8-2.2,9-42.5,11.5-47.6,7,.6,16.5.6,24.1.6,12.9,0,84.9,1.2,84.9,1.2l.8-25.3s-98.6-1.1-108.4-1.4v-3.4h0Z"/>
    <path id="STROKE_9b207411-db7d-4e67-80ba-275c20c465df" class="st6" d="M1409.1,330.1c-10,11.8-9.8,35,6.7,42.3s24.6,5,33.6-4.5,12.6-33.9-1.1-42.8c-13.7-9-32-3.5-39.2,5Z"/>
    <path id="STROKE_f9f28f23-493b-4293-bfee-74ea4d67b20f" class="st6" d="M1406.3,253.7c-.3,12.3,12.6,24.3,24.3,26.3,14.8.8,31.6-11.5,31.3-27.1-4.2-38.3-53.4-39.2-55.7.8h0,0Z"/>
    <path id="STROKE_4d2051d1-299d-4e24-b5f2-268e7dd125281" class="st17" d="M1485.8,287.6c2.5,8.1,1.1,18.5-2.2,26.6"/>
  </g>
  <g>
    <path class="st9" d="M1114.9,865.3c-3.7,7.1-1.7,15.9,4.7,20.3-.9,5.7,1.4,11.4,5.7,15,.6,3,.5,7,1.6,9.6s6.5,6.8,6.5,6.8l-.8,5.1c-.6,1.1-.6,1.6-.7,3.7-.2,2.1.2,4.3.7,6.2-.8,1.8-1.4,3.2-1.6,5.8s.4,4.7,1.1,6.9c-1.1,2-1.2-2.7-1.9,6.2s-.2,2.3.2,3.6c6.4-.9,12.9-1.9,19.1-2.9,5-.8,8.8-1.5,12.6-1.9,0-1.2-.5-2.2-1-3.1,1.1-2,1.7-3.9,1.9-6.2s.3-4.2-.7-6.2c.8-1.8,1.3-1.8,1.6-5.8s-.5-5.7-1.8-8.2c-.4-1-1.7-2.6-1.7-2.6,3.4-6.5.8-13.6-3.2-19.2,0,0-2.1-11.4-2.3-18.3s-4.6-21.1-4.6-21.1c-1,0,56.4-.6,65.1.3,0,0,1.7,14.8,6.1,20.1-.5,2.7-1.8,11.7-2.3,15.6h0c.7,2.4,1.3,6.1,2.2,7.9s5.7,7.1,5.7,7.1l-4.4,7.6c-.5,1.2-.5.7-.4,3.5s.8,5.9,2.2,8c-1.2,2.4-1.8,5.2-1.8,7.3s.5,4.2,1.5,6.3c-.9,1.9-1.4,4.5-1.4,6.4s0,3.5,1,5.4c-.7,1.9-1-3.3-.9,4.9,5.9,1.4,11.3,2.3,17.2,2.9,0,1.4.5,2.3.7,3.8,3.8,0,8,.6,12.5.8,1.2-2.4,1.8-4.7,1.8-7.3s0-3.5-1-5.4c.7-1.9.9-3.1.9-5.4s0-4.2-1.2-6.3c.9-1.9,1.4-3.5,1.4-6.4s-.8-5.6-2.2-7.7c1.2-2.4,1.8-2.9,1.8-5.8s-4-6.5-4-6.5c5.3-6.3,5.1-15.8-.6-21.5,1.3-5.1,0-10.5-3.2-14.4,1-4.8-4.1-22.6-4.1-22.6,9.4-5.4,19.8-7.9,24.3-18.1,1.2-2.4,2.1-4.5,2.6-6.8,18.4-8,31.1-26.6,31.1-47.8s-.5-7.8-1.4-11.5l1.2-.7c4.9-2.8,9.2-5.6,12.7-8.9,7.5-6.8,12-16,12-35.8s-1.9-16-5.4-23.1h0l-.2-.2c-8.5-17.4-26.4-29.4-47.1-29.4s-14.6,1.6-20.9,4.5c-3.3-6.1-8-11.3-13.4-15.8-8.9-7.1-20.2-11.3-32.5-11.3s-9.2.7-13.4,1.9c-7.8-19.1-25.9-32.5-48.2-32.5s-41.6,14.1-48.9,33.9c-6.6-2.8-5.6-4.5-21.2-4.5s-25.2,4.9-34.4,13.2c-1.4,1.2-2.4,2.4-3.5,3.5h-11.5c-28.9,0-52.2,23.5-52.2,52.2s8.9,33.6,22.6,43.1v6.6c0,24.7,16.7,45.2,39.3,50.8,1.6,6.4,4.5,12,8,17.2,9.4,13.2,24.9,21.6,42.6,21.6s14.6-1.6,20.9-4.5c2.4,4,9.3,10,9.3,10h-.4ZM994.8,764.5h0ZM1035.3,669.5l-.5.5c-.7,0-.5,0,.5-.5Z"/>
    <g id="Face">
      <path id="STROKE_c4ab084e-b298-4243-bf50-5929c1d94600" class="st13" d="M1096.5,708c-48.5-30.6-84,37.2-44.7,62.4,11.1,5.9,25.4,10.8,37.4,4.7,25.6-12.2,34.1-51.1,7.3-67.1h0Z"/>
      <path id="STROKE_8329b6f4-9c7a-4829-b578-0082285b7684" class="st13" d="M1248.5,708c-37.9-34.4-86.1,24.2-50.6,58.4,15.8,15.3,47.5,17.4,59.1-4,10.1-19.5,11.5-41.2-8.2-54.4h-.3Z"/>
      <path id="STROKE_a606891e-5f5c-4ee5-8c9c-daa7b2003838" class="st4" d="M1175.3,784.1c-4,12.9-21.9,12-32.5,9.6"/>
    </g>
  </g>
  <g>
    <g id="New_Layer_21">
      <path id="STROKE_efa9bafb-3683-4f0b-a30c-3de88a8ebcaa" class="st1" d="M355.3,881.3c-11.7,35.5,3.3,121.6,3.3,121.6,0,0,3.7,72.7,1.4,92.2,9.8-16,26.2-71.7,23.9-95.5-2.3-28.9,4.2-44.2,13.5-76.6,11.3,37.8,13.6,87.4,13.6,87.4,0,0,5.3,64.8,13.1,87l6.6-62.7s4.2-100.8,4.2-103.5l20.2,60.5,21.6,110.8-4.3-109.4-3.7-64.1,22.9,86.1s19,57.1,15.4,80.5c4.7-26.1,4.8-67.1.9-94.1-3.5-13.7-7.1-118.7-7.1-118.7-5.9-22.6-10.1-92.1,13.3-92.1s20.7,76.4,26.9,97.5c13.7,46,37.4,138.5,75.3,162.3,10.9,6.6,91.7,18.7,105.7,20.3,14,1.6,28.9,2,30.8-9.3,1.2-6.6-3.9-14-7.8-15.6-11.3-3.9-41.3-4.3-55-6.3s-34.3-10.5-55-13.7c-25-20.3-51.9-108.4-61.6-176.7-9.8-68.3-28.5-72.5-39.4-92.8-20.3-27.3-37.4-10.9-31.2-55.8,5.1-39,9.4-87-45.6-80-19.1.8-38.6,0-57.3,3.9-16.8,3.9-35.1,14.8-35.5,33.5.4,21.8,7,44.1,12.5,65.1,2.3,7.4,2.3,15.6,3.9,23,.4,2.7,0,2-2.7,2.7-25-1.6-50.7,10.5-69,26.1-4.3,2.7-15.2,2.7-19.9,0-8.2-5.9-69.4-51.9-75.7-86.6-15.2-37.8-63.2-49.9-98.3-33.5-14,6.2-27.3,10.3-38.2,20.1-7.4,6.2-32.5,17.5-39.5,24.9-23.8,20.7-12.8,38.3,12.6,30.9,32-12.5,74.2-48.9,112-45.8,26.5,4.3,29.6,44.9,41.7,58.5,12.1,13.7,63.6,87.8,102.6,72.2,17.2-7.4,37.1-12.5,52.7-22.6,51.5-35.9,17.9,26.9,9.4,48.4-7.4,16.8-13.7,39.8-13.7,39.8h.8-.3Z"/>
    </g>
    <path id="STROKE_0e1884c4-3386-468a-9623-164377cd5c161" class="st5" d="M412.2,678.6c3.9-7,1.2-17.9-5.5-22.2-7.8-5.1-20.3-2.3-25,5.9-9.8,22.6,17.2,37.8,30.4,16.4h.1Z"/>
    <path id="STROKE_7f70717c-76e1-4d64-b2c0-ab83968c73ee1" class="st5" d="M487.9,671.8c9-25-23.8-32.4-32.4-12.9-6.2,21.5,21.5,31.6,32.4,12.9Z"/>
    <path class="st17" d="M414,708.8c10.1,6.2,44.7,0,49.6-3.5"/>
  </g>
  <g>
    <g>
      <path id="STROKE_5ff50c22-5db1-42e7-9562-6ec8203b32f7" class="st14" d="M710.6,186.5c12.6-1.8,26.9-9.6,38-17.5,22.8-19.6,41.6-48,47.6-80.6,3.5-19.3,1.1-40.2-5.5-56.8-5.5-15.7-12.3-30.6-22.8-41.7-14.9-18.3-30.4-24.1-52.7-23.4-28.2-1.8-58.3,16.2-79.2,42.4-23.8,33.4-30.2,81-17.6,117.8,5.2,16.8,12.4,34.3,28.3,40.9s17.6,15.3,28.2,17.6,23.7,2,29.4,1.3c0,0,4.7.3,6.2,0h0Z"/>
      <g>
        <path id="STROKE_8d44d0fe-2a00-480e-a684-97e3aa31ffee" class="st8" d="M690.6,141c8.5,14.5,31.5,2.9,22.7-12.3s-31-2-22.7,12.3Z"/>
        <path id="STROKE_8d44d0fe-2a00-480e-a684-97e3aa31ffee1" class="st8" d="M766.1,121.2c11.4-12.3-6.4-31.6-18.4-18.8-12,12.8,7.1,30.9,18.4,18.8Z"/>
      </g>
    </g>
    <path class="st0" d="M706.2,104.5c.7-7.8,9.2-13.9,16.8-12.2"/>
  </g>
  <g>
    <path class="st22" d="M252.9,504.5v-14.2l71.8-96.1,2.7,3.1h-69.8v-18.7h91.3v14l-71.5,96.3-2.9-3.1h76.3v18.7h-97.9Z"/>
    <path class="st22" d="M405.9,506.2c-6.7,0-12.6-1.6-17.6-4.7s-8.8-7.5-11.5-13.1-4-12.4-4-20.2v-58.3h18.5v53.3c0,5.5.9,10.3,2.6,14.3s4.3,7.1,7.6,9.3c3.3,2.2,7.3,3.2,12,3.2s6.7-.6,9.5-1.7c2.9-1.1,5.4-2.7,7.5-4.8,2.1-2,3.7-4.5,5-7.4,1.2-2.9,1.8-6,1.8-9.4v-56.9h18.5v94.5h-18.5v-19.8l3.2-2.2c-1.4,4.4-3.9,8.5-7.3,12.1s-7.5,6.5-12.1,8.5c-4.7,2.1-9.7,3.2-15.1,3.2h-.1Z"/>
    <path class="st22" d="M481.3,504.5v-94.5h18.7v20.2l-3.4,2.2c1-3.1,2.5-6.1,4.6-9s4.7-5.4,7.7-7.6c3.1-2.2,6.4-4,9.9-5.3s7.2-2,10.9-2c5.4,0,10.1.9,14.2,2.7,4.1,1.8,7.4,4.5,10.1,8.1,2.6,3.6,4.6,8.1,5.8,13.5l-2.9-.7,1.3-3.1c1.3-2.8,3.1-5.4,5.5-7.8,2.3-2.5,5-4.6,8-6.6,3-1.9,6.2-3.4,9.5-4.5,3.4-1.1,6.7-1.6,9.9-1.6,7.1,0,12.9,1.4,17.6,4.3,4.6,2.9,8.1,7.3,10.4,13.1,2.3,5.9,3.5,13.2,3.5,22v56.7h-18.7v-55.6c0-5.4-.7-9.8-2.1-13.2-1.4-3.4-3.5-6-6.2-7.6-2.8-1.7-6.3-2.5-10.6-2.5s-6.5.6-9.4,1.7-5.5,2.7-7.6,4.8c-2.2,2-3.8,4.4-5,7.1s-1.8,5.7-1.8,8.9v56.5h-18.7v-56c0-4.9-.7-9.1-2.2-12.5-1.4-3.4-3.5-6-6.3-7.8s-6.1-2.7-10.1-2.7-6.5.6-9.4,1.7c-2.9,1.1-5.4,2.7-7.6,4.7s-3.8,4.3-5,7-1.8,5.6-1.8,8.7v56.9h-18.7v-.2Z"/>
    <path class="st22" d="M680.6,506.2c-6.7,0-12.6-1.6-17.5-4.7-5-3.1-8.8-7.5-11.5-13.1s-4-12.4-4-20.2v-58.3h18.5v53.3c0,5.5.9,10.3,2.6,14.3,1.7,4,4.3,7.1,7.6,9.3,3.3,2.2,7.3,3.2,12,3.2s6.7-.6,9.5-1.7c2.9-1.1,5.4-2.7,7.5-4.8,2.1-2,3.7-4.5,4.9-7.4s1.8-6,1.8-9.4v-56.9h18.5v94.5h-18.5v-19.8l3.2-2.2c-1.4,4.4-3.9,8.5-7.3,12.1-3.4,3.6-7.5,6.5-12.1,8.5-4.7,2.1-9.7,3.2-15.1,3.2h-.1Z"/>
    <path class="st22" d="M748.4,428v-18h60.1v18h-60.1ZM768.1,504.5v-118.6h18.5v118.6h-18.5Z"/>
    <path class="st22" d="M858.6,506.2c-6.7,0-12.6-1.6-17.5-4.7-5-3.1-8.8-7.5-11.5-13.1s-4-12.4-4-20.2v-58.3h18.5v53.3c0,5.5.9,10.3,2.6,14.3,1.7,4,4.3,7.1,7.6,9.3,3.3,2.2,7.3,3.2,12,3.2s6.7-.6,9.5-1.7c2.9-1.1,5.4-2.7,7.5-4.8,2.1-2,3.7-4.5,4.9-7.4s1.8-6,1.8-9.4v-56.9h18.5v94.5h-18.5v-19.8l3.2-2.2c-1.4,4.4-3.9,8.5-7.3,12.1-3.4,3.6-7.5,6.5-12.1,8.5-4.7,2.1-9.7,3.2-15.1,3.2h-.1Z"/>
    <path class="st22" d="M934.4,504.5v-94.5h18.5v19.4l-3.2,2.2c1.2-4.2,3.5-8.1,7-11.6s7.6-6.4,12.4-8.6c4.8-2.2,9.7-3.3,14.8-3.3s13.2,1.4,18,4.2c4.8,2.8,8.4,7.1,10.8,12.9,2.4,5.8,3.6,13,3.6,21.8v57.6h-18.5v-56.3c0-5.4-.7-9.9-2.2-13.4-1.4-3.5-3.7-6.1-6.7-7.7s-6.7-2.3-11.2-2.1c-3.6,0-6.9.6-9.9,1.7s-5.6,2.7-7.8,4.8c-2.2,2-4,4.4-5.2,7.1-1.3,2.7-1.9,5.6-1.9,8.7v57.2h-18.5,0Z"/>
    <path class="st22" d="M1083.8,545.9c-6.7,0-13.4-1.1-20.1-3.2-6.7-2.1-12-4.8-16.1-8.2l6.8-14.4c2.4,1.8,5.2,3.4,8.5,4.8,3.2,1.4,6.7,2.5,10.3,3.2,3.6.8,7.1,1.2,10.6,1.2,6.6,0,12.1-1.1,16.6-3.2,4.4-2.2,7.8-5.3,10.1-9.5,2.3-4.2,3.4-9.4,3.4-15.7v-18.2l2,1.3c-.6,3.7-2.6,7.3-5.8,10.7-3.3,3.4-7.4,6.2-12.3,8.4-4.9,2.2-10,3.2-15.1,3.2-9,0-17-2.1-24-6.4s-12.6-10.1-16.6-17.5c-4.1-7.4-6.1-15.8-6.1-25.3s2-17.9,6-25.3,9.5-13.2,16.6-17.5c7-4.3,14.9-6.4,23.7-6.4s7.1.5,10.4,1.4c3.4.9,6.5,2.2,9.4,3.8s5.5,3.4,7.7,5.3c2.3,1.9,4.1,4,5.6,6.1,1.4,2.2,2.3,4.2,2.7,6.1l-4,1.4v-22.1h18.5v88.7c0,7.6-1.1,14.2-3.3,20.1-2.2,5.8-5.4,10.7-9.6,14.8-4.2,4-9.3,7.1-15.3,9.2-6,2.1-12.8,3.2-20.3,3.2h-.3ZM1084.5,489.2c5.9,0,11.1-1.4,15.7-4.1,4.6-2.8,8.1-6.5,10.6-11.3s3.8-10.3,3.8-16.6-1.3-11.8-3.9-16.7c-2.6-4.9-6.1-8.7-10.6-11.4-4.5-2.8-9.7-4.1-15.6-4.1s-10.9,1.4-15.4,4.2c-4.5,2.8-8,6.7-10.6,11.5-2.6,4.9-3.9,10.4-3.9,16.5s1.3,11.6,3.9,16.5,6.1,8.7,10.6,11.4c4.5,2.8,9.6,4.1,15.4,4.1Z"/>
    <path class="st22" d="M1202.4,506.2c-9.7,0-18.3-2.1-25.8-6.2s-13.4-9.8-17.6-17c-4.3-7.2-6.4-15.5-6.4-24.8s1.2-14.2,3.6-20.3c2.4-6.1,5.7-11.4,10-15.9s9.4-8,15.3-10.4c5.9-2.5,12.4-3.7,19.4-3.7s11.8,1.2,17.1,3.5c5.3,2.3,9.9,5.6,13.8,9.6,3.9,4.1,6.9,8.9,9,14.5s3.1,11.7,3,18.3l-.2,7.9h-77.2l-4.1-14.8h65.3l-2.7,3.1v-4.3c-.4-4-1.7-7.5-4-10.6s-5.2-5.6-8.6-7.4c-3.5-1.8-7.3-2.7-11.3-2.7-6.5,0-11.9,1.2-16.4,3.7-4.4,2.5-7.8,6.1-10.1,10.8-2.3,4.7-3.4,10.6-3.4,17.5s1.4,12.3,4.1,17.2c2.8,4.9,6.7,8.6,11.7,11.2s10.9,4,17.5,4,9-.8,13-2.3c4-1.6,8.4-4.4,13-8.5l9.4,13.1c-2.9,2.9-6.4,5.4-10.5,7.6s-8.5,3.9-13.1,5.1c-4.6,1.3-9.2,1.9-13.6,1.9h-.2Z"/>
    <path class="st22" d="M1263.8,504.5v-94.5h18.5v19.4l-3.2,2.2c1.2-4.2,3.5-8.1,7-11.6s7.6-6.4,12.4-8.6,9.7-3.3,14.8-3.3,13.2,1.4,18,4.2c4.8,2.8,8.4,7.1,10.8,12.9s3.6,13,3.6,21.8v57.6h-18.5v-56.3c0-5.4-.7-9.9-2.2-13.4-1.4-3.5-3.7-6.1-6.7-7.7s-6.7-2.3-11.2-2.1c-3.6,0-6.9.6-9.9,1.7s-5.6,2.7-7.8,4.8c-2.2,2-4,4.4-5.2,7.1-1.3,2.7-1.9,5.6-1.9,8.7v57.2h-18.5Z"/>
  </g>
</svg>