<?xml version="1.0" encoding="UTF-8"?>
<svg id="Ebene_1" xmlns="http://www.w3.org/2000/svg" version="1.1" viewBox="0 0 1600 900">
  <!-- Generator: Adobe Illustrator 29.1.0, SVG Export Plug-In . SVG Version: 2.1.0 Build 142)  -->
  <defs>
    <style>
      .st0, .st1, .st2, .st3, .st4, .st5, .st6, .st7, .st8, .st9, .st10, .st11, .st12, .st13, .st14, .st15, .st16, .st17, .st18 {
        stroke-linecap: round;
      }

      .st0, .st1, .st2, .st3, .st4, .st5, .st9, .st10, .st19, .st11, .st12, .st13, .st14, .st15, .st16, .st18 {
        stroke-width: 3px;
      }

      .st0, .st1, .st2, .st3, .st4, .st8, .st9, .st10, .st11, .st12, .st13, .st14 {
        stroke-linejoin: round;
      }

      .st0, .st1, .st2, .st3, .st10, .st11, .st12, .st14, .st15, .st16, .st17, .st18 {
        stroke: #000;
      }

      .st0, .st4, .st15, .st17 {
        fill: none;
      }

      .st1 {
        fill: #ff6f00;
      }

      .st2 {
        fill: #fdc01e;
      }

      .st3 {
        fill: #a598f7;
      }

      .st4, .st9, .st13 {
        stroke: lime;
      }

      .st5, .st6, .st7, .st8, .st19 {
        stroke: #fff;
      }

      .st5, .st6, .st7, .st19, .st15, .st16, .st17, .st18 {
        stroke-miterlimit: 10;
      }

      .st6 {
        stroke-width: 6px;
      }

      .st7, .st8, .st17 {
        stroke-width: 4px;
      }

      .st20 {
        fill: #fff;
      }

      .st9 {
        fill: #003200;
      }

      .st10 {
        fill: #9337e1;
      }

      .st11 {
        fill: #c8b63d;
      }

      .st12 {
        fill: #fff706;
      }

      .st14 {
        fill: #c4006d;
      }

      .st21 {
        fill: #030;
      }

      .st21, .st22 {
        display: none;
      }

      .st16 {
        fill: #aaf488;
      }

      .st18 {
        fill: aqua;
      }
    </style>
  </defs>
  <rect class="st21" width="1600" height="900"/>
  <g>
    <g>
      <path id="STROKE_5ff50c22-5db1-42e7-9562-6ec8203b32f7" class="st14" d="M63.7,691.7c-12.6,1.8-26.9,9.6-38,17.5-22.8,19.6-41.6,48-47.6,80.6-3.5,19.3-1.1,40.2,5.5,56.8,5.5,15.7,12.3,30.6,22.8,41.7,14.9,18.3,30.4,24.1,52.7,23.4,28.2,1.8,58.3-16.2,79.2-42.4,23.8-33.4,30.2-81,17.6-117.8-5.2-16.8-12.4-34.3-28.3-40.9s-17.6-15.3-28.2-17.6-23.7-2-29.4-1.3c0,0-4.7-.3-6.2,0h-.1Z"/>
      <g>
        <path id="STROKE_8d44d0fe-2a00-480e-a684-97e3aa31ffee" class="st8" d="M83.6,737.3c-8.5-14.5-31.5-2.9-22.7,12.3s31,2,22.7-12.3Z"/>
        <path id="STROKE_8d44d0fe-2a00-480e-a684-97e3aa31ffee1" class="st8" d="M8.1,757.1c-11.4,12.3,6.4,31.6,18.4,18.8s-7.1-30.9-18.4-18.8Z"/>
      </g>
    </g>
    <path class="st0" d="M68,773.8c-.7,7.8-9.2,13.9-16.8,12.2"/>
  </g>
  <g>
    <path class="st9" d="M958.4,873.6c-3.2,6-1.5,13.5,4,17.3-.7,4.8,1.2,9.7,4.8,12.8.5,2.5.4,6,1.4,8.1s5.5,5.8,5.5,5.8l-.7,4.4c-.5,1-.5,1.4-.6,3.2s0,3.6.6,5.3c-.7,1.6-1.2,2.7-1.4,4.9s.3,4,1,5.9c-.9,1.7-1-2.3-1.6,5.3s0,2,.2,3c5.5-.8,11-1.6,16.3-2.4,4.3-.7,7.5-1.3,10.8-1.6,0-1-.5-1.8-.8-2.7.9-1.7,1.4-3.3,1.6-5.3s.3-3.6-.6-5.3c.7-1.6,1.1-1.5,1.4-4.9s-.4-4.9-1.5-6.9c-.3-.8-1.5-2.2-1.5-2.2,2.9-5.5.6-11.6-2.7-16.4,0,0-1.8-9.8-2-15.6s-4-17.9-4-17.9c-.8,0,48-.5,55.5.3,0,0,1.4,12.6,5.2,17.1-.4,2.3-1.5,9.9-2,13.3h0c.6,2.1,1.1,5.2,1.9,6.8s4.8,6.1,4.8,6.1l-3.7,6.5c-.4,1-.4.6-.4,3s.6,5,1.9,6.8c-1,2-1.6,4.4-1.6,6.2s.4,3.6,1.2,5.4c-.8,1.6-1.2,3.8-1.2,5.4s0,3,.8,4.6c-.6,1.6-.8-2.8-.8,4.2,5,1.2,9.6,1.9,14.7,2.5,0,1.2.4,2,.6,3.2,3.2,0,6.8.5,10.6.7,1-2,1.6-4,1.6-6.2s0-3-.8-4.6c.6-1.6.8-2.6.8-4.6s0-3.6-1-5.4c.8-1.6,1.2-3,1.2-5.4s-.6-4.8-1.9-6.6c1-2,1.5-2.5,1.5-4.9s-3.4-5.6-3.4-5.6c4.6-5.3,4.3-13.4-.5-18.3,1.1-4.4,0-9-2.7-12.3.8-4-3.5-19.3-3.5-19.3,8-4.6,16.9-6.8,20.7-15.4,1-2,1.8-3.8,2.2-5.8,15.6-6.8,26.5-22.7,26.5-40.7s-.4-6.6-1.2-9.8l1-.6c4.2-2.4,7.8-4.8,10.8-7.6,6.4-5.8,10.2-13.6,10.2-30.5s-1.6-13.6-4.6-19.7h0l-.2-.2c-7.2-14.8-22.5-25.1-40.1-25.1s-12.4,1.4-17.8,3.8c-2.8-5.2-6.8-9.6-11.4-13.4-7.6-6-17.2-9.6-27.7-9.6s-7.8.6-11.4,1.6c-6.6-16.2-22.1-27.7-41.1-27.7s-35.5,12-41.7,28.9c-5.6-2.4-4.8-3.8-18-3.8s-21.5,4.2-29.3,11.2c-1.2,1-2,2-3,3h-9.8c-24.7,0-44.5,20.1-44.5,44.5s7.6,28.7,19.3,36.7v5.6c0,21.1,14.2,38.5,33.5,43.3,1.4,5.4,3.8,10.2,6.8,14.6,8,11.2,21.3,18.5,36.3,18.5s12.4-1.4,17.8-3.8c2,3.4,7.9,8.5,7.9,8.5l-.2-.2h0ZM856.1,787.7h0ZM890.5,706.7l-.4.4c-.6,0-.4,0,.4-.4Z"/>
    <g id="Face">
      <path id="STROKE_c4ab084e-b298-4243-bf50-5929c1d94600" class="st13" d="M942.7,739.6c-41.3-26.1-71.6,31.7-38.1,53.1,9.4,5,21.7,9.2,31.9,4,21.9-10.4,29.1-43.5,6.2-57.2h0Z"/>
      <path id="STROKE_8329b6f4-9c7a-4829-b578-0082285b7684" class="st13" d="M1072.2,739.6c-32.3-29.3-73.4,20.7-43.1,49.7,13.4,13,40.5,14.8,50.3-3.4,8.6-16.6,9.8-35.1-7-46.3h-.2Z"/>
      <path id="STROKE_a606891e-5f5c-4ee5-8c9c-daa7b2003838" class="st4" d="M1009.9,804.4c-3.4,11-18.7,10.2-27.7,8.2"/>
    </g>
  </g>
  <g id="Wesen">
    <g>
      <path id="STROKE_f1552795-9030-465b-adb7-0bbaa318eaf9" class="st16" d="M424,859.8c-.8,36,2.6,100.6,2.6,136.6,1.4,10.1-8.7,24.6-14.9,8.7-5.1-22.1-1.4-73.7-4.4-96.1-3.9-22.2-4.8-44.9-5-67.4-.6-19.9-2.2-39.6-1.6-59.7,0-29.4-4.4-58.9.5-87.9,8.5-34,42-56.9,76.4-55.5,43,3.3,71,47.9,64.5,88.9,0,8.1-5.7,16.5-2,24.1,9.2,11,45.2,5.7,59.2,4.5,44.6-4.5,97-23.2,138.9-1.7,40.1,17.1,51.4,78.2,20.7,108.6-.5,25.2,2.3,51.9,1.9,77.2-.5,7.9,4.2,80.8-12.1,68.1-6.1-13.4-1.2-57.1-2.5-71.4-.6-20.8,0-42.4-1.6-63.1-4.4,1.9-10.3,6.1-14,8.5-1.1,22.2-.3,45.5.3,67.9-.9,9.5,5.1,65.4-12,60-8.7-10.6-3-54.6-3-67.2,1.2-19.4,1.9-39.8,1.1-59-4.7,0-17.2-1.1-21.8,0,.3,13.8.5,29.7,1.6,43.7-.3,8.9,7.6,92.6-10.4,82.5-6.2-13.1-3.7-57.8-3.9-72,0-17.2.6-35.6,0-52.5-19.4-.8-41.3,3.6-60.8,4.7.9,26.9.9,82.4-.3,109.4-.6,4.2-1.2,11.8-6.8,11.3-3.3-.6-6.1-3.4-6.4-6.8-1.1-27.7,2-85,0-112.5h-11.8c-.5,12.7.8,27.7,1.4,40.6,0,14.1-1.1,56.1-1.1,70.3-2.8,16-15.1,7.3-14.3-4.7-.8-25.3,3-79.9,1.6-105.2-2.2,0-9.8-.8-12.4,0-1.7.5-4.8.9-6.4.9-1.1,12.3-1.4,26.4-1.6,39-.3,9.3,9,84.2-8.9,77.4-9.5-4-4.4-63.9-4.8-73.5.3-13.1-1.1-29.4-1.9-42.1-6.7.8-17.9,3.9-24.9,5-8.7,1.2-20.2-1.4-28.6-1.2-3.4,17.9,7.8,103.4-3.7,112.1-15.5,6.5-10.1-56.6-10.9-65,0-16.2.8-33.9,1.7-49.9-8.5-2.2-20-7.8-28.3-11,1.4,30.6,1.2,89.8-.3,120.5-.6,6.1-5.7,8.1-10.7,4.8-1.6.5-1.2-.9-1.9-3-4.4-33.9,1.1-96.8-.9-130.7-4.2-5.9-11.2-11.2-16.2-16.5l.3.3h.4Z"/>
      <path id="STROKE_f94f754f-33a8-4f95-91ab-9ada959bf062" class="st15" d="M456.4,719.6c1.4,5.7,7.8,13.4,14,8.4,3-2,5.4-5.4,5.4-9"/>
      <path id="STROKE_57f05e90-c9d5-44c1-918d-3a76c8b861cd" class="st7" d="M452.9,683.4c-11.3-17.2-34.8.5-23.5,16.5,12.1,13.8,32-.5,23.5-16.5Z"/>
      <path id="STROKE_c7d88b34-83bd-4965-8ee8-665416f27cd6" class="st7" d="M507.4,683.4c-14-12.9-31.9,7.8-19.4,20.8,13.4,13.1,33.6-8.7,19.4-20.8Z"/>
    </g>
  </g>
  <g id="Wesen1">
    <path id="STROKE_72cc54be-af4a-4b7b-827c-fbc532cb380b" class="st11" d="M1240.9,853.7c.6,2.9.8,70.4,0,72.9,0,4.2-1.5,7.9-4.8,10-1.5.8-5.6,1.5-7.1.4-5.6-2.7-7.5-10.2-7.3-15.8-.4-20.1.8-56.5-.4-76-.4-2.5-1.7-4.8-3.5-6.4,0,0-.4,0-.4-.4l-.6-.4c-1.2-.4-3.9-.8-5.2,0-5.6,3.3-10.4,8.7-16.6,11-2.7.4-7.7,1-10.2-.6-.4,0-.8-.4-1-.8-2.5-2.1-2.3-7.9-1-10.8.4-2.3,4.2-6.4,5.2-8.5,2.9-3.7,10-11,6-15.6-5.4-2.5-13.1,1-18.5,2.5-4.2,1-9.8,2.1-14.1.8-1,0-1.9-1-2.7-1.9-.6-.4-1.5-2.5-1.9-3.3,0-2.7,0-5.8,1.9-7.9,2.3-6.4,27.6-17.4,19.3-24.3,0,0-.4,0-.6-.4-8.7-5-34.7,5-30.5-12.5,5.4-12,20.6-6.2,28.9-13.1,9.3-10.2-12.9-12.7-17.6-18.3-5.6-4.6-8.1-12.9-1-17.4,3.3-1.9,8.9-2.7,12.5-1.5.4,0,1,0,1.7.4,4.4,1.5,11.4,3.9,16,2.1h.4s0-.4.6-.8c3.1-7.5-12.5-16.6-14.1-25.5-.6-1.5-.4-3.7-.4-5.2s0-3.3,1-3.7c1-1.2,2.5-1.9,4.4-1.7,1.7,0,4.4-.4,6,.4,7.9,1.5,13.7,9.5,21.8,10.2,1.9,0,3.5-.8,4.6-2.3.6-1.7,1-4.6,0-6.4-1.2-2.7-3.1-5.2-4.6-7.9-.8-1.7-1.7-2.9-2.1-4.8-.6-3.1-.8-7.7.4-10.4.8-3.9,4.8-7.7,9.1-7.3,8.7,0,13.1,15.6,21.8,18.5.8,0,2.1.4,2.9-.4.8,0,1.2-1,1.2-1.9,1.2-9.5,1.5-21.4,6-30.1l1.9-1.9c12.7-4.2,15.6,16.2,18.1,24.7,0,.4,0,.6.4.8,3.9,7.7,8.5,7.5,10.4-1.2,1.7-6,6.9-12.2,10.2-17.9,1.7-2.3,2.9-3.7,5.6-4.6,1.5,0,3.9-.4,5.2.4.4,0,.8.4,1,.6,0,0,.4,0,.4.4,1.9,1.7,3.1,3.3,3.9,5.4,2.1,9.1-3.7,21.4,2.9,29.1,3.5,0,7.3-5.4,9.3-7.7,8.7-12,29.3-20.8,26.2,2.5-1.2,6-7.3,11.2-7.5,17.4,0,1.7-.6,2.9.4,4.2,1.2,1.2,3.1,2.9,5,2.3,7.7-.8,11.6-9.5,19.3-10.8,11-3.7,16,9.3,11.2,17.6-3.1,7.9-18.7,10-15.6,19.9,1.5,3.7,6.4,5.2,10.2,5,3.1-.6,7.3-.8,10.4-1.9,2.7-.4,6.2-1.2,8.7,0,3.1,1.2,5,4.6,4.6,7.9.8,10.2-12.5,11.8-19.7,14.3-5,1.5-10.4,8.9-4.4,12.5,7.9,6.2,20.3,1.7,26.8,9.3,2.1,3.1,2.1,8.5-.8,11.4-7.5,6.4-19.5,1.7-28.2,3.7-1.7,0-4.6,3.5-5.4,4.8,0,11.8,17.2,13.9,22.6,22.4.8,9.1-3.5,13.7-12.7,11.4-.6,0-3.3-.8-3.7-1-3.1-.8-8.1-2.7-11.2-3.7-23-4.2-4.2,17.2,0,25.9.8,2.3.6,5.8.6,8.3s-2.1,3.1-2.9,3.9c0,0-.6,0-.8.4-3.1,0-8.5-.8-11.4-2.7-3.5-1.2-6.9-4.4-9.3-6.9-2.9-2.7-6.2-8.7-10.8-6.4-5.8,3.7-3.1,14.7-3.7,20.6v66c0,3.9-1,7.1-3.5,9.5l-.6.6c-2.3,1.5-5.4,2.1-7.9,1-.6,0-1.2-.4-1.5-.6-9.5-7.1-6.6-28.9-7.3-39.9-.8-8.1-3.1-17.6-2.7-25.9.4-5.4-.6-12.7-2.9-17.2-8.5-.4-29.9-1-38.2,0-2.9,0-8.3,1-8.3,1h.4v-.2l-.2.4h0Z"/>
    <path id="STROKE_316d4fec-0d6a-4ee4-90fc-03d0b3faf70f" d="M1260.4,808.1c4.4,7.3,10.2,14.9,19.7,13.5,5-3.1,4.8-11.6,0-14.9-6.2-2.7-16-1-22.6-1.5,0,0,2.3,1.7,3.1,2.7h0l-.2.2Z"/>
    <path id="STROKE_0410ac66-0648-43b5-8baa-836226ac1cf2" class="st8" d="M1214.3,704.3c28.2-10,52.1,14.5,44.8,43.2,0,.6,0,1.5-.6,2.3-1.7,14.1-14.7,22-27.4,24.9-8.5.8-18.7,1.5-26.2-3.1-12.5-6.2-19.1-24.5-18.5-34s5.6-26.8,26.2-32.6,1.7-.6,1.7-.6h0Z"/>
    <path id="STROKE_d1fa847f-232b-4055-b82d-4da4aac0eb80" class="st8" d="M1286.6,709.1c-30.7,23.9-11.8,73.1,27.4,66.2,12.5-1.9,22.6-11.4,27.8-22.4,5.6-11.6,3.9-27.8-5.8-37-6.4-6.6-15.6-12-24.5-13.9-8.5-.4-18.7.4-24.9,7.1h0Z"/>
    <g>
      <path id="STROKE_e386c48b-9a7b-47b9-b6f7-951242b4e1b1" class="st18" d="M1391.5,866.2c9,.6,30.8-1.1,38.1.6.6,7.8,1.4,100.8,1.7,109.5l22.1.2c.3-18.2.8-92.9,0-110.8,10.9-1.7,48.1-8.4,48.7-23.8.6-12.6.8-26.3.8-38.9.8-19-.3-38.3-1.4-57.4-.6-15.4-3.6-22.1-14.6-26.3-13.2-2.2-27.1-.8-40.3,0-16.8,0-33.9-.3-50.4,1.4-21.3,0-42.9.4-64.1-1.1s-21.1,17.5-19.6,34.4c1.1,12.3,0,25.2-.8,37.5-.3,20.4-.6,42,3.9,61.8,2.2,7.8,42.5,9,47.6,11.5-.6,7-.6,16.5-.6,24.1,0,12.9-1.2,84.9-1.2,84.9l25.3.8s1.1-98.6,1.4-108.4h3.4Z"/>
      <path id="STROKE_9b207411-db7d-4e67-80ba-275c20c465df" class="st6" d="M1378.1,754c-11.8-10-35-9.8-42.3,6.7s-5,24.6,4.5,33.6,33.9,12.6,42.8-1.1c9-13.7,3.5-32-5-39.2Z"/>
      <path id="STROKE_f9f28f23-493b-4293-bfee-74ea4d67b20f" class="st6" d="M1454.5,751.2c-12.3-.3-24.3,12.6-26.3,24.3-.8,14.8,11.5,31.6,27.1,31.3,38.3-4.2,39.2-53.4-.8-55.7h0Z"/>
      <path id="STROKE_4d2051d1-299d-4e24-b5f2-268e7dd12528" class="st17" d="M1420.6,830.7c-8.1,2.5-18.5,1.1-26.6-2.2"/>
    </g>
  </g>
  <g id="Info">
    <path id="K" class="st12" d="M691.7,730.4c-14.1-54.3,24.7-101.9,89.5-105,63.1-2.9,112.6,59.6,89.4,115.5-8.6,25-39.3,38.7-36.7,67.2v20.4c.7,17.6-2.8,35-2.8,52.6s2.5,48.2-2,57.8c-2,4.1-6,4.1-8.1,0-4.1-8.6-2.5-46.2-2.8-56v-32.9s-4.8-.7-5.8-.7h-4.8s1.2,31.7,0,47.8c0,7,0,47.4-7.9,45.5-10.3-4.8-2.8-82.5-4.5-95-2.5-.7-7.9,0-10.3,0,1.5,9.3-1.2,20.9-1.5,30.2,0,10.3,2,45.5,0,55.6-2.1,12-8,12.9-10.3.7-3.8-18.9,0-65.9-1.2-85.1-1.2-.7-7-.2-8.6,0-2,18.9-.7,63.3-1.5,82.2-1.5,11.8-10.2,12.2-12.3,0-1.5-19.7.4-64.6-1.2-84.2-1.2-14.6-7.9-41.1-16.6-51.4-27-31.6-32.2-36-39.9-65.3h-.2,0Z"/>
    <path id="M" class="st15" d="M798.8,762.7c-7.9,7-13.2,6-22.4-2"/>
    <path id="A" class="st19" d="M752.2,709.6c-4.1-6-16.6-11.4-26.4-8.6-16.3,5.8-24.2,27-11.1,39.6,10.3,10.6,31,10.6,38.2-3.3,4.8-8.1,3.3-22.1-.7-27.7h0Z"/>
    <path id="A1" class="st19" d="M813.2,738c7.9,9.1,23.7,8.6,32.7,2,8.6-8.6,14.6-23.1,5.3-34-22.1-25.2-58.4,4.8-38,31.7v.2h0Z"/>
  </g>
  <g>
    <path id="STROKE_fd284d13-50bc-42fc-8bbe-fb9fb5744b331" class="st10" d="M1504.4,837.4c-1.1-3.6-19-61.3-19-61.3.4-.6.9-1.1,1.1-1.1l.6-.6c0-.2.4-.4.4-.4,2.1-2.1,5.8-4.7,7.7-6.8,3.4-2.4,7.7-4.9,11.1-7.3,9.2-7.7,19.9-12.6,31.6-14.5,2.4,0,24.6-.6,26.9,0,9,1.1,17.3,5.8,25.4,9.4,8.1,3.4,16,9.2,23.1,14.7,2.6,2.4,6.8,3.8,8.3,7.3,0,1.9-.9,3.8-1.5,5.6-3,6.2-18.4,65.4-18.4,65.4l-5.6,3.4s-1.3,79.9-1.9,84.6c.4,1.1-1.1,2.8-1.9,3.2s-.6.4-.9.4c-.9,0-2.8.6-3.6.4s-.6,0-.9-.4l-.4-.4c-3-.4-1.1-80.2-1.5-82.5h-7.3v78.9c-.4,1.1-1.1,1.9-2.1,2.8s-.6.6-.9.6c-.9.4-2.8.4-4.1.4-1.5-1.1-2.1-3.4-1.9-5.1v-77.2h-7.1v80.4c0,1.5-.9,2.1-1.5,2.4-1.5.6-4.3,1.9-6.4,1.3s-2.1-3.2-2.4-4.5c-1.3-9.6,0-78.4,0-78.4-1.9-.4-6.2-.6-8.1,0v79.5c0,.4,0,.6-.4,1.3s0,.4-.4.9c-1.3,1.3-4.5,2.1-6.4,1.3s-1.7-1.1-1.9-1.5-.6-1.7-1.1-2.6v-78c-1.5,0-6.4-.4-7.7.4v78.9c0,.6,0,.9-.4,1.5s-.4.6-.4.9,0,.4-.4.4-.9,0-1.1.4c-1.3.6-3.6.6-5.6,0s-3.4-.9-3.6-.9.9-77.2.4-82.7l-4.5-2.6s-4.3-15.2-5.6-17.5h0v-.2l.3-.2h0Z"/>
    <path id="STROKE_a86008a8-9918-471c-95f9-648a296448a41" class="st0" d="M1554.7,819c1.3,0,6.2-1.1,8.1-2.1s4.7-4.9,5.1-6"/>
    <path id="STROKE_585e831d-3539-4d43-ba70-2e4e5c4b74981" class="st8" d="M1585,766.9c-20.7,8.1-10.5,37.4,11.1,33.6,24.6-9.6,7.5-39.1-11.1-33.6Z"/>
    <path id="STROKE_7819c8f3-7a07-4eb6-bb83-ff6bafd390ce1" class="st8" d="M1534.1,784.2c-11.8-10.7-26.9-6-29.5,9.8-1.9,17.3,26.7,26.3,32.9,9,.9-5.6,2.1-15.4-3.4-18.8h0Z"/>
  </g>
  <g>
    <path id="STROKE_fd284d13-50bc-42fc-8bbe-fb9fb5744b332" class="st10" d="M1081.4,825.2c-1.2-4.1-3.4-8.3-4.6-12.6-1-3.6-2.4-7.8-3.6-11.4-.5-1.2-.7-3.4-1.5-4.4-1.2-3.9-2.4-8-4.1-11.7-2.4-8.3-7.8-29.7-7.8-29.7.5-.7,9-7.8,11.2-10.2,3.9-2.7,8.8-5.6,12.6-8.3,10.5-8.8,22.6-14.3,36-16.5,2.7,0,28-.7,30.6,0,10.2,1.2,19.7,6.6,28.9,10.7,9.2,3.9,18.2,10.5,26.3,16.8,2.9,2.7,7.8,4.4,9.5,8.3,0,2.2-6.6,21.6-9.5,28.7-.7,2.2-2.2,5.3-3.2,7.5-4.4,10.2-12.2,43.5-12.2,43.5l-4.1,4.9s-1.5,89.6-2.2,94.9c.5,1.2-1.2,2.9-2.2,3.6,0,0-.5,0-1,.5-1,.5-2.9.5-4.1.5,0,0-1,0-1-.5l-.5-.5c-3.4-.5-1.2-89.8-1.7-92.5h-8.3v88.4c-.5,1.2-1.2,2.2-2.4,3.2,0,0-.5,0-1,.7-1.2.7-3.2.5-4.6.5-1.7-1.2-2.4-3.9-2.2-5.8v-86.4h-8v90.1c0,1.7,0,1.5-1.7,2.7-1.9,1.7-4.9,1.5-7.3,1.5-1.5-1-1.7-3.4-2.7-5.1v-87.9c-2.2-.5-7.1-.7-9.2,0v89.1c0,.5,0,1-.5,1.5,0,.5,0,.7-.5,1-.7,1.9-5.6,3.2-7.3,1.5-.7,0-1.7-1.2-2.2-1.7-.5-1-.7-1.9-1.2-2.9v-87.4c-1.7,0-7.3-.5-8.8.5v88.4c0,.7,0,1.2-.5,1.7,0,.5-.5.7-.5,1l-.5.5c-.5,0,0,0-1.2.5-1.7,0-4.6,1.5-6.3,0-.5,0-.7-.5-1-.5s-1.5-1.9-1.7-2.2c0-.5-1.2-1.7-.5-1.9,0-7.3,0-82.8-.5-89.1l-5.1-2.9s-4.9-17.3-6.3-19.9h0v-.2l.2-.5h0Z"/>
    <path id="STROKE_a86008a8-9918-471c-95f9-648a296448a42" class="st0" d="M1124.9,814.8c2.2,2.2,5.8,3.9,8.8,4.6,2.9.5,5.8,1.5,9.2-.5"/>
    <path id="STROKE_585e831d-3539-4d43-ba70-2e4e5c4b74982" class="st8" d="M1152.4,773.9c-4.4,4.1-7.1,13.4-4.9,19.5,0,.5,0,1,.5,1.5,3.6,9.7,14.6,13.9,24.3,12.6,11.7-4.1,17.8-21.9,9.2-30.4-8.5-8.5-16.3-9.2-21.9-7.8-5.6,1.5-5.8,3.2-7.3,4.6h.1Z"/>
    <path id="STROKE_7819c8f3-7a07-4eb6-bb83-ff6bafd390ce2" class="st8" d="M1081.9,775.9c-2.2,19.7,30.4,29.9,37.4,10.2,1-6.3.5-17.3-3.4-20.9-6.6-6.1-31.1-7.3-34,10.7h0Z"/>
  </g>
  <g>
    <path id="STROKE_fd284d13-50bc-42fc-8bbe-fb9fb5744b334" class="st10" d="M805.4,890.2c-1.1-3.7-3.1-7.5-4.2-11.4-.9-3.3-2.2-7-3.3-10.3-.4-1.1-.7-3.1-1.3-3.9-1.1-3.5-2.2-7.2-3.7-10.5-2.2-7.5-3.9-15.6-7-22.8v-3.9c.4-.7.9-1.1,1.1-1.1l.7-.7c0-.2.4-.4.4-.4,2.2-2.2,5.9-4.8,7.9-7,3.5-2.4,7.9-5,11.4-7.5,9.4-7.9,20.4-12.9,32.5-14.9,2.4,0,25.2-.7,27.6,0,9.2,1.1,17.8,5.9,26.1,9.6,8.3,3.5,16.4,9.4,23.7,15.1,2.6,2.4,7,3.9,8.6,7.5,0,2-.9,3.9-1.5,5.7-3.1,6.4-4.4,13.8-7,20.2-.7,2-2,4.8-2.9,6.8-3.4,7.9-10.6,41.9-10.6,41.9l-4.1,1.7s-1.3,73.4-2,78.2c.4,1.1-1.1,2.6-2,3.3,0,0-.4,0-.9.4-.9.4-2.6.4-3.7.4,0,0-.9,0-.9-.4l-.4-.4c-3.1-.4-1.1-73.6-1.5-76.1h-7.5v72.3c-.4,1.1-1.1,2-2.2,2.9,0,0-.4,0-.9.7-1.1.7-2.9.4-4.2.4-1.5-1.1-2.2-3.5-2-5.3v-70.6h-7.2v73.9c0,1.5,0,1.3-1.5,2.4-1.8,1.5-4.4,1.3-6.6,1.3-1.3-.9-1.5-3.1-2.4-4.6v-71.9c-2-.4-6.4-.7-8.3,0v73c0,.4,0,.9-.4,1.3,0,.4,0,.7-.4.9-.7,1.8-5,2.9-6.6,1.3-.7,0-1.5-1.1-2-1.5-.4-.9-.7-1.8-1.1-2.6v-71.4c-1.5,0-6.6-.4-7.9.4v72.3c0,.7,0,1.1-.4,1.5,0,.4-.4.7-.4.9l-.4.4c-.4,0,0,0-1.1.4-1.5,0-4.2,1.3-5.7,0-.4,0-.7-.4-.9-.4s-1.3-1.8-1.5-2c0-.4-1.1-1.5-.4-1.8,0-6.6,0-67.3-.4-73l-4.6-2.6s-4.4-15.6-5.7-18h0v-.2h-.3,0Z"/>
    <path id="STROKE_a86008a8-9918-471c-95f9-648a296448a44" class="st0" d="M850.4,877.9c1.5,1.5,4.8,3.3,6.8,3.7s6.1.9,9.6-.9"/>
    <path id="STROKE_585e831d-3539-4d43-ba70-2e4e5c4b74984" class="st8" d="M881.7,836.7h0c-11.8,14.5,0,33.1,18,30.3,10.5-3.7,12.1-21.3,8.3-27.4-7-11.4-19.3-7.2-19.3-7.2,0,0-5.5,2.6-7,4.4h0Z"/>
    <path id="STROKE_7819c8f3-7a07-4eb6-bb83-ff6bafd390ce4" class="st8" d="M836.1,835.8c-12.1-11-27.6-6.1-30.3,10.1-2,17.8,27.4,27,33.8,9.2,1.1-5.7,2-15.8-3.5-19.3h0Z"/>
  </g>
  <g>
    <g id="New_Layer_21">
      <path id="STROKE_efa9bafb-3683-4f0b-a30c-3de88a8ebcaa" class="st1" d="M535.9,910.1c-11.7,35.5,3.3,121.6,3.3,121.6,0,0,3.7,72.7,1.4,92.2,9.8-16,26.2-71.7,23.9-95.5-2.3-28.9,4.2-44.2,13.5-76.6,11.3,37.8,13.6,87.4,13.6,87.4,0,0,5.3,64.8,13.1,87l6.6-62.7s4.2-100.8,4.2-103.5l20.2,60.5,21.6,110.8-4.3-109.4-3.7-64.1,22.9,86.1s19,57.1,15.4,80.5c4.7-26.1,4.8-67.1.9-94.1-3.5-13.7-7.1-118.7-7.1-118.7-5.9-22.6-10.1-92.1,13.3-92.1s20.7,76.4,26.9,97.5c13.7,46,37.4,138.5,75.3,162.3,10.9,6.6,91.7,18.7,105.7,20.3,14,1.6,28.9,2,30.8-9.3,1.2-6.6-3.9-14-7.8-15.6-11.3-3.9-41.3-4.3-55-6.3s-34.3-10.5-55-13.7c-25-20.3-51.9-108.4-61.6-176.7-9.8-68.3-28.5-72.5-39.4-92.8-20.3-27.3-37.4-10.9-31.2-55.8,5.1-39,9.4-87-45.6-80-19.1.8-38.6,0-57.3,3.9-16.8,3.9-35.1,14.8-35.5,33.5.4,21.8,7,44.1,12.5,65.1,2.3,7.4,2.3,15.6,3.9,23,.4,2.7,0,2-2.7,2.7-25-1.6-50.7,10.5-69,26.1-4.3,2.7-15.2,2.7-19.9,0-8.2-5.9-69.4-51.9-75.7-86.6-15.2-37.8-63.2-49.9-98.3-33.5-14,6.2-27.3,10.3-38.2,20.1-7.4,6.2-32.5,17.5-39.5,24.9-23.8,20.7-12.8,38.3,12.6,30.9,32-12.5,74.2-48.9,112-45.8,26.5,4.3,29.6,44.9,41.7,58.5,12.1,13.7,63.6,87.8,102.6,72.2,17.2-7.4,37.1-12.5,52.7-22.6,51.5-35.9,17.9,26.9,9.4,48.4-7.4,16.8-13.7,39.8-13.7,39.8h.8-.3Z"/>
    </g>
    <path id="STROKE_0e1884c4-3386-468a-9623-164377cd5c16" class="st5" d="M592.8,730.5c3.9-7,1.2-17.9-5.5-22.2-7.8-5.1-20.3-2.3-25,5.9-9.8,22.6,17.2,37.8,30.4,16.4h0Z"/>
    <path id="STROKE_7f70717c-76e1-4d64-b2c0-ab83968c73ee" class="st5" d="M668.5,723.7c9-25-23.8-32.4-32.4-12.9-6.2,21.5,21.5,31.6,32.4,12.9Z"/>
    <path class="st17" d="M599.6,749.7c7,10.8,29.3,10.1,34.6-3.5"/>
    <g>
      <g id="Pen">
        <path id="STROKE_9ab8ce2b-e6b5-47b3-be58-a1990f77dbed" class="st2" d="M237.5,783c41.5,38.4,5.8,106.2-48.7,96.3,1.9,47,10.6,108.9-14,100.3-7.9-9.9-4.6-33.8-5.1-46.5-3.3-19.2,4-28.7,2.8-52.7-10.5,7.2-27.2,12-39.2,6.5.8,28.4.8,56.4-5,84.8,0,7.2-9.1,8.8-11.3.9-3.4-19-.9-28.5-1.5-47.9,0-12.3,4.4-29.8,2.6-42.3-23.1-9.8-35.8-38.6-30-62.7-39.6-38.2,5.8-105,56.4-91,32.9-37.5,106.2,7.2,89.1,52.8l3.8,1.4h0Z"/>
      </g>
      <path id="STROKE_258c9859-67f1-43a8-9462-32ddfdd3de1c" class="st8" d="M96.3,762.9c30.8-25.2,65.6,17.6,37.9,41.8-30.3,21.4-60-18-37.9-41.8Z"/>
      <path id="STROKE_258c9859-67f1-43a8-9462-32ddfdd3de1c1" class="st8" d="M177,765.9c30.8-25.2,65.6,17.6,37.9,41.8-30.3,21.4-60-18-37.9-41.8Z"/>
      <path id="STROKE_3299031d-4c62-4f85-94d0-447bd115ea62" class="st0" d="M166.2,822.1c-7.2,4.8-14.9,5.7-21.9-.3"/>
    </g>
  </g>
  <g class="st22">
    <path class="st20" d="M252.9,504.5v-14.2l71.8-96.1,2.7,3.1h-69.8v-18.7h91.3v14l-71.5,96.3-2.9-3.1h76.3v18.7h-97.9Z"/>
    <path class="st20" d="M405.9,506.2c-6.7,0-12.6-1.6-17.6-4.7s-8.8-7.5-11.5-13.1-4-12.4-4-20.2v-58.3h18.5v53.3c0,5.5.9,10.3,2.6,14.3s4.3,7.1,7.6,9.3c3.3,2.2,7.3,3.2,12,3.2s6.7-.6,9.5-1.7c2.9-1.1,5.4-2.7,7.5-4.8,2.1-2,3.7-4.5,5-7.4,1.2-2.9,1.8-6,1.8-9.4v-56.9h18.5v94.5h-18.5v-19.8l3.2-2.2c-1.4,4.4-3.9,8.5-7.3,12.1s-7.5,6.5-12.1,8.5c-4.7,2.1-9.7,3.2-15.1,3.2h-.1Z"/>
    <path class="st20" d="M481.3,504.5v-94.5h18.7v20.2l-3.4,2.2c1-3.1,2.5-6.1,4.6-9s4.7-5.4,7.7-7.6c3.1-2.2,6.4-4,9.9-5.3s7.2-2,10.9-2c5.4,0,10.1.9,14.2,2.7,4.1,1.8,7.4,4.5,10.1,8.1,2.6,3.6,4.6,8.1,5.8,13.5l-2.9-.7,1.3-3.1c1.3-2.8,3.1-5.4,5.5-7.8,2.3-2.5,5-4.6,8-6.6,3-1.9,6.2-3.4,9.5-4.5,3.4-1.1,6.7-1.6,9.9-1.6,7.1,0,12.9,1.4,17.6,4.3,4.6,2.9,8.1,7.3,10.4,13.1,2.3,5.9,3.5,13.2,3.5,22v56.7h-18.7v-55.6c0-5.4-.7-9.8-2.1-13.2-1.4-3.4-3.5-6-6.2-7.6-2.8-1.7-6.3-2.5-10.6-2.5s-6.5.6-9.4,1.7-5.5,2.7-7.6,4.8c-2.2,2-3.8,4.4-5,7.1s-1.8,5.7-1.8,8.9v56.5h-18.7v-56c0-4.9-.7-9.1-2.2-12.5-1.4-3.4-3.5-6-6.3-7.8s-6.1-2.7-10.1-2.7-6.5.6-9.4,1.7c-2.9,1.1-5.4,2.7-7.6,4.7s-3.8,4.3-5,7-1.8,5.6-1.8,8.7v56.9h-18.7v-.2h-.1Z"/>
    <path class="st20" d="M680.6,506.2c-6.7,0-12.6-1.6-17.5-4.7-5-3.1-8.8-7.5-11.5-13.1s-4-12.4-4-20.2v-58.3h18.5v53.3c0,5.5.9,10.3,2.6,14.3,1.7,4,4.3,7.1,7.6,9.3,3.3,2.2,7.3,3.2,12,3.2s6.7-.6,9.5-1.7c2.9-1.1,5.4-2.7,7.5-4.8,2.1-2,3.7-4.5,4.9-7.4s1.8-6,1.8-9.4v-56.9h18.5v94.5h-18.5v-19.8l3.2-2.2c-1.4,4.4-3.9,8.5-7.3,12.1-3.4,3.6-7.5,6.5-12.1,8.5-4.7,2.1-9.7,3.2-15.1,3.2h-.1Z"/>
    <path class="st20" d="M748.4,428v-18h60.1v18h-60.1ZM768.1,504.5v-118.6h18.5v118.6h-18.5Z"/>
    <path class="st20" d="M858.6,506.2c-6.7,0-12.6-1.6-17.5-4.7-5-3.1-8.8-7.5-11.5-13.1s-4-12.4-4-20.2v-58.3h18.5v53.3c0,5.5.9,10.3,2.6,14.3,1.7,4,4.3,7.1,7.6,9.3,3.3,2.2,7.3,3.2,12,3.2s6.7-.6,9.5-1.7c2.9-1.1,5.4-2.7,7.5-4.8,2.1-2,3.7-4.5,4.9-7.4s1.8-6,1.8-9.4v-56.9h18.5v94.5h-18.5v-19.8l3.2-2.2c-1.4,4.4-3.9,8.5-7.3,12.1-3.4,3.6-7.5,6.5-12.1,8.5-4.7,2.1-9.7,3.2-15.1,3.2h-.1Z"/>
    <path class="st20" d="M934.4,504.5v-94.5h18.5v19.4l-3.2,2.2c1.2-4.2,3.5-8.1,7-11.6s7.6-6.4,12.4-8.6c4.8-2.2,9.7-3.3,14.8-3.3s13.2,1.4,18,4.2c4.8,2.8,8.4,7.1,10.8,12.9,2.4,5.8,3.6,13,3.6,21.8v57.6h-18.5v-56.3c0-5.4-.7-9.9-2.2-13.4-1.4-3.5-3.7-6.1-6.7-7.7s-6.7-2.3-11.2-2.1c-3.6,0-6.9.6-9.9,1.7s-5.6,2.7-7.8,4.8c-2.2,2-4,4.4-5.2,7.1-1.3,2.7-1.9,5.6-1.9,8.7v57.2h-18.5,0Z"/>
    <path class="st20" d="M1083.8,545.9c-6.7,0-13.4-1.1-20.1-3.2-6.7-2.1-12-4.8-16.1-8.2l6.8-14.4c2.4,1.8,5.2,3.4,8.5,4.8,3.2,1.4,6.7,2.5,10.3,3.2,3.6.8,7.1,1.2,10.6,1.2,6.6,0,12.1-1.1,16.6-3.2,4.4-2.2,7.8-5.3,10.1-9.5,2.3-4.2,3.4-9.4,3.4-15.7v-18.2l2,1.3c-.6,3.7-2.6,7.3-5.8,10.7-3.3,3.4-7.4,6.2-12.3,8.4-4.9,2.2-10,3.2-15.1,3.2-9,0-17-2.1-24-6.4s-12.6-10.1-16.6-17.5c-4.1-7.4-6.1-15.8-6.1-25.3s2-17.9,6-25.3,9.5-13.2,16.6-17.5c7-4.3,14.9-6.4,23.7-6.4s7.1.5,10.4,1.4c3.4.9,6.5,2.2,9.4,3.8s5.5,3.4,7.7,5.3c2.3,1.9,4.1,4,5.6,6.1,1.4,2.2,2.3,4.2,2.7,6.1l-4,1.4v-22.1h18.5v88.7c0,7.6-1.1,14.2-3.3,20.1-2.2,5.8-5.4,10.7-9.6,14.8-4.2,4-9.3,7.1-15.3,9.2-6,2.1-12.8,3.2-20.3,3.2h-.3,0ZM1084.5,489.2c5.9,0,11.1-1.4,15.7-4.1,4.6-2.8,8.1-6.5,10.6-11.3s3.8-10.3,3.8-16.6-1.3-11.8-3.9-16.7c-2.6-4.9-6.1-8.7-10.6-11.4-4.5-2.8-9.7-4.1-15.6-4.1s-10.9,1.4-15.4,4.2c-4.5,2.8-8,6.7-10.6,11.5-2.6,4.9-3.9,10.4-3.9,16.5s1.3,11.6,3.9,16.5,6.1,8.7,10.6,11.4c4.5,2.8,9.6,4.1,15.4,4.1Z"/>
    <path class="st20" d="M1202.4,506.2c-9.7,0-18.3-2.1-25.8-6.2s-13.4-9.8-17.6-17c-4.3-7.2-6.4-15.5-6.4-24.8s1.2-14.2,3.6-20.3c2.4-6.1,5.7-11.4,10-15.9s9.4-8,15.3-10.4c5.9-2.5,12.4-3.7,19.4-3.7s11.8,1.2,17.1,3.5c5.3,2.3,9.9,5.6,13.8,9.6,3.9,4.1,6.9,8.9,9,14.5s3.1,11.7,3,18.3l-.2,7.9h-77.2l-4.1-14.8h65.3l-2.7,3.1v-4.3c-.4-4-1.7-7.5-4-10.6s-5.2-5.6-8.6-7.4c-3.5-1.8-7.3-2.7-11.3-2.7-6.5,0-11.9,1.2-16.4,3.7-4.4,2.5-7.8,6.1-10.1,10.8-2.3,4.7-3.4,10.6-3.4,17.5s1.4,12.3,4.1,17.2c2.8,4.9,6.7,8.6,11.7,11.2s10.9,4,17.5,4,9-.8,13-2.3c4-1.6,8.4-4.4,13-8.5l9.4,13.1c-2.9,2.9-6.4,5.4-10.5,7.6s-8.5,3.9-13.1,5.1c-4.6,1.3-9.2,1.9-13.6,1.9h-.2Z"/>
    <path class="st20" d="M1263.8,504.5v-94.5h18.5v19.4l-3.2,2.2c1.2-4.2,3.5-8.1,7-11.6s7.6-6.4,12.4-8.6,9.7-3.3,14.8-3.3,13.2,1.4,18,4.2c4.8,2.8,8.4,7.1,10.8,12.9s3.6,13,3.6,21.8v57.6h-18.5v-56.3c0-5.4-.7-9.9-2.2-13.4-1.4-3.5-3.7-6.1-6.7-7.7s-6.7-2.3-11.2-2.1c-3.6,0-6.9.6-9.9,1.7s-5.6,2.7-7.8,4.8c-2.2,2-4,4.4-5.2,7.1-1.3,2.7-1.9,5.6-1.9,8.7v57.2h-18.5Z"/>
  </g>
  <g>
    <g id="New_Layer_7">
      <path id="STROKE_463343da-bf41-42fb-8396-f0ae27bbffb2" class="st3" d="M224.3,793.2c1.5-13.5,4.8-24,10-35.8,2.8-8.2,6-17.4,11-24.9,12.9-18.9,32.2-33.8,53.9-41,14.4-2.5,31.6-5.3,46.3-3.1,13.9,2.2,27.3,6.2,41.1,8.5,12.4,2.6,24.6,9.2,34.6,17.2,31.4,23.2,41.2,49,33.5,87-3,25.6-16.8,51.8-11.2,77.8,6.4,19,16.1,37.9,29.1,53.3,4,6.4,8.4,12.2,9.6,20,1.9,8-3.4,11.5-8.4,4.9-11.6-29.9-8.4-17.1-26.6-38.1-6.4-9.1-7.6-18.5-11.1-29-3.8-11.9-8.8-23.8-16.8-33.3-7.9-8.8-13.1-3.9-9.7,6.2,2.9,8.9,9.7,18.3,12.3,27.4,3.2,11.3,5.7,24.2,10.5,35,2.8,6.9,9.4,14.7,12.3,21.6,3.4,8.2-1.4,20.5-10.5,11.4-8.1-16.8-15.1-33.8-24-51-9.6-18.4-2.5-44.8-17.1-59.5-15.1-5.6-5.8,20.3-6.2,27.8.8,9.2,3.4,17.6,4.5,26.9.9,10.2,2.5,19.4,7.8,28.3,5.1,9.5,6.8,23.5-.6,31.9-2.5,2.1-8.1.5-8.5-3-1-3.3,1-5.9,2.1-8.8,2.5-10.3-5.6-20.5-7.2-30.4-3.7-21.6-6.9-43.2-15-63.7-2-8.5-16.6-20.7-18.9-6.1-.8,9.9,13.7,15.4,9.6,25.6-2.6,6.3-2.4,13.5-.9,20.1.6,7.4,2,13.9,7.2,19.3,3.8,5.1,7.6,7.2,8.3,13.2-.7,8-.9,16.2-3.4,23.9-1.3,3.8-1.2,7.8-3.6,11-2,2.7-7.9,4.8-9.8,1.1-2.7-8.4,3.2-17.4,5.8-25.4,3.3-6.1-2.9-10.9-7.2-14.3-23.1-16.1-7.7-27.5-10.4-51.3-1-10.7-9.2-19.3-13.2-29-6.2-9.3-14.5-5.8-11.9,5.3.7,17.4,2.5,34.9,5.1,52.2-1.4,11.9,1.4,22.5,3.3,33.9.4,4.5.7,9.8,1.3,14.3,1.4,5.8,1.4,14.3-6.8,12.9-2.8-.9-3.3-4.5-4.9-7-3.9-7.7-8.5-15.7-9.6-24.4-1.3-10-.3-21-.5-31.1-.6-6.7-1.7-12.5-1.4-18.6-.7-11.1,8.3-41-9.5-40.4-16.1,6.8.3,25.7-.8,37.7-.4,11.5-4.1,23.3-3.7,35,0,7.9-.5,16-.5,23.9.2,4.7,1.1,10-.6,14.4-1.8,4.9-7.9,14-12.9,6.8-5.9-11.4-5.3-25.1-6.8-37.7-2.1-22-2.5-37.3,5.3-58.1,2.3-8.3,4.2-16.8.3-24.6-3.2-4.1-11.5-6-13.9,0-2.4,7.1-.8,15.2-.7,22.9.5,8.8.5,15.6,1,24.3,1.3,9.8-2.2,18.6-2.1,28.1,1,11.8,7.1,43.5-10.7,45.3-9.7-2.5-3.1-15.5-2.2-22.3-.2-18.2,2.5-36.1,3.5-54.2.5-11.3-2.1-22.3-3.2-33.4-1.2-5.9-.2-15.2-7.1-17.5-10.7-1.8-11.5,11.7-9.8,20.8,3.2,17.4,8.2,34.4,5.4,52.2-1.4,9-7.4,16.4-11.2,24.3-3.4,10.6-5.9,23-12.3,32.2-4.9,3.7-12.7-1.4-12.2-7.4-.2-6.1,3.9-13.1,6.4-18.3,3.7-7.4,6.8-14.3,10.2-21.9,14.7-26.4,3.1-26.8,2.5-50.9,1.3-18.4,10.3-36.3,5-54.9-1.4-6.2-3.3-7.5-2.9-15.8h0l-.3.3h0Z"/>
    </g>
    <path id="STROKE_8ccff32f-4e58-4b73-b056-0a1d2d05225e" class="st0" d="M352.2,791.1c5.3,8.7,15,6.4,22.5,1.5"/>
    <path id="STROKE_0e1884c4-3386-468a-9623-164377cd5c161" class="st7" d="M400.2,790.8c-6.2-10.9-1.6-27.5,8.6-34.2,11.8-7.5,31.5-3.8,38.5,8.9,15,34.9-26.5,58-47,25.3h-.1Z"/>
    <path id="STROKE_7f70717c-76e1-4d64-b2c0-ab83968c73ee1" class="st7" d="M260.1,790.5c-13.7-38.5,36.7-49.7,49.5-19.9,9.6,32.9-32.7,48.6-49.5,19.9Z"/>
  </g>
  <g>
    <path id="STROKE_fd284d13-50bc-42fc-8bbe-fb9fb5744b333" class="st10" d="M211.2,915.7c-1.1-3.8-3.1-7.6-4.2-11.6-.9-3.3-2.2-7.1-3.3-10.5-.4-1.1-.7-3.1-1.3-4-1.1-3.6-10.9-37.9-10.9-37.9.4-.7,8.2-7.1,10.2-9.4,3.6-2.5,8-5.1,11.6-7.6,9.6-8,20.6-14.1,33-15.1,2.4-.2,25.6-.5,28.1,0,9.2,1.8,18,6,26.5,9.8,8.5,3.6,16.7,9.6,24.1,15.4,2.7,2.5,7.1,4,8.7,7.6,0,2-.9,4-1.6,5.8-3.1,6.2-20.7,69.1-20.7,69.1l-5.8,5.1s0,83.4-.4,88.3c.4,1.1-1.1,2.7-2,3.3,0,0-.4,0-.9.4-.9.4-2.7.4-3.8.4,0,0-.9,0-.9-.4l-.4-.4c-3.1-.4-1.1-86.1-1.6-88.5h-7.6v84.7c-.4,1.1-1.1,2-2.2,2.9,0,0-.4,0-.9.7-1.1.7-2.9.4-4.2.4-1.6-1.1-2.2-3.6-2-5.3v-82.9h-7.4v86.3c0,1.6,0,1.3-1.6,2.5-1.8,1.6-4.5,1.3-6.7,1.3-1.3-.9-1.6-3.1-2.5-4.7v-84.3c-2-.4-6.5-.7-8.5,0v85.4c0,.4,0,.9-.4,1.3,0,.4,0,.7-.4.9-.7,1.8-5.1,2.9-6.7,1.3-.7,0-1.6-1.1-2-1.6-.4-.9-.7-1.8-1.1-2.7v-83.8c-1.6,0-6.7-.4-8,.4v84.7c0,.7,0,1.1-.4,1.6,0,.4-.4.7-.4.9l-.4.4c-.4,0,0,0-1.1.4-1.6,0-4.2,1.3-5.8,0-.4,0-.7-.4-.9-.4s-1.3-1.8-1.6-2c0-.4-1.1-1.6-.4-1.8,0-6.7,0-79.6-.4-85.4l-4.7-2.7s-4.5-15.8-5.8-18.3h0v-.2l-.3.2h0Z"/>
    <path id="STROKE_a86008a8-9918-471c-95f9-648a296448a43" class="st0" d="M256.4,885.8s2.7,6.2,4,8,4.9,3.8,6.7,4.5"/>
    <path id="STROKE_585e831d-3539-4d43-ba70-2e4e5c4b74983" class="st8" d="M298.5,842.4c-2.7,0-8,2.2-9.8,4-3.6,3.3-6.5,14.9-4,19.2,2.5,4.2,16,12.5,22.3,11.6,6.2-.9,15.8-14.9,10.5-24.1,0,0-1.3-3.1-2.2-3.8-4.2-3.6-12-6.9-16.7-6.9h0Z"/>
    <path id="STROKE_7819c8f3-7a07-4eb6-bb83-ff6bafd390ce3" class="st8" d="M236.4,849.7c-12.3-11.1-28.1-6.2-30.7,10.2-2,18,27.8,27.4,34.3,9.4,1.1-5.8,2-16-3.6-19.6h0Z"/>
  </g>
</svg>