<?xml version="1.0" encoding="UTF-8"?>
<svg id="Ebene_1" xmlns="http://www.w3.org/2000/svg" version="1.1" viewBox="0 0 1600 900">
  <!-- Generator: Adobe Illustrator 29.1.0, SVG Export Plug-In . SVG Version: 2.1.0 Build 142)  -->
  <defs>
    <style>
      .st0, .st1 {
        fill: none;
      }

      .st1 {
        stroke-linecap: round;
        stroke-linejoin: round;
      }

      .st1, .st2 {
        stroke: #fff;
        stroke-width: 3px;
      }

      .st2 {
        stroke-miterlimit: 10;
      }
    </style>
  </defs>
  <rect class="st0" width="1600" height="900"/>
  <g>
    <path id="STROKE_a6e7f16f-1d34-4b58-b368-3f2791157b64" class="st1" d="M286.9,343.1c-20.1.6-40.3,0-60.4,1.2"/>
    <path id="STROKE_a6e7f16f-1d34-4b58-b368-3f2791157b641" class="st1" d="M256.3,313.5c-.4,19.8.6,40.7,1,60.4"/>
  </g>
  <g id="Enter">
    <path id="STROKE_6e6cf8a7-6b26-4ef4-847f-82c3bfcb1c11" class="st2" d="M137.9,544.6c1.7,23.4-.4,47.3.4,70.7,1.7,11.4-8.1,39.9,7.7,42,68.8,1.4,137.8-.8,206.5,2.1,26,2.9,26-10.7,24.6-32.5-4.1-67-1-135-3.5-201.7-8.7-11-53.3-1.9-68.4-3.7-16.9,2.7-51.7-5.2-63.4,3.1-8.9,141.8,35.8,104.6-97.1,111.2-6.6.6-8.9.6-7,8.7h.2,0Z"/>
    <path class="st1" d="M321,607.2c-5-3.7-11.8-6.8-16.7-10.7,4.8-4.1,10.7-7.4,16.5-11.2"/>
    <path id="STROKE_a6e7f16f-1d34-4b58-b368-3f2791157b642" class="st1" d="M354.7,526c-.4,22.9.6,46.9.8,69.7-16.7.2-33.5,0-50.4.8"/>
  </g>
  <g id="Tab">
    <path id="STROKE_28ab2aa8-7a8f-418b-8bd9-56777522f045" class="st2" d="M137.7,147.4c2.1,39.7-6,79.8,1,119.2,4.6,17.4,43.2,8.1,57.3,9.5,42.2-1.2,84.1,2.1,126.1-.8,32.5-3.1,61.4,11.8,53.9-35.6-6-117,29.6-118.8-63.7-116.4-50.6-1.4-100.6,1.4-150.9,1-22.7-2.9-24.8,1-23.6,23.2h0Z"/>
    <path id="STROKE_e73e8f14-050e-49b9-a495-0944f9ddbd95" class="st1" d="M157.8,225.5c18-.4,36.2,0,54.2.4"/>
    <path id="STROKE_cf34fad5-5b8b-466f-84c6-97501202f2bd" class="st1" d="M192.3,212.2c7.2,4.5,14.9,9.5,20.9,14.1-6.4,5-14.5,8.5-20.9,13.6"/>
    <path id="STROKE_90ab8764-bb4e-40f9-959c-368563a000b2" class="st1" d="M220,203.8c1,14.1-.4,29.3,0,43.4"/>
  </g>
</svg>